<svg width="24" height="24" viewBox="0 0 24 24" fill="none" xmlns="http://www.w3.org/2000/svg">
<path d="M20.9962 19.572L19.5692 21L13.1272 14.558L14.5572 13.13L20.9962 19.572ZM13.1162 3.00195C10.5362 3.00195 7.95616 3.98195 5.97616 5.95195L5.96616 5.96195C2.01616 9.91195 2.01616 16.322 5.96616 20.272L20.2662 5.96195C18.2962 3.99195 15.7062 3.00195 13.1162 3.00195ZM6.13616 17.272C5.39616 16.032 4.99616 14.612 4.99616 13.122C4.99616 12.192 5.15616 11.302 5.45616 10.452C5.64616 12.362 6.34616 14.242 7.52616 15.892L6.13616 17.272ZM8.97616 14.432C7.62616 12.382 7.11616 9.93195 7.59616 7.60195C8.17616 7.48195 8.75616 7.42195 9.34616 7.42195C11.1462 7.42195 12.8962 7.97195 14.4262 8.98195L8.97616 14.432ZM10.4462 5.46195C11.2962 5.16195 12.1862 5.00195 13.1162 5.00195C14.6062 5.00195 16.0262 5.40195 17.2662 6.14195L15.8762 7.53195C14.2262 6.35195 12.3562 5.65195 10.4462 5.46195Z" fill="black"/>
</svg>
