<svg width="24" height="24" viewBox="0 0 24 24" fill="none" xmlns="http://www.w3.org/2000/svg">
<path d="M3.5201 3.00922L2.1001 4.41922L7.7101 10.0292V14.3292L5.1101 12.8492C4.9401 12.7592 4.7701 12.7092 4.5701 12.7092C4.3101 12.7092 4.0701 12.7992 3.8701 12.9692L2.7101 14.0792L9.5101 21.2592C10.0801 21.8592 10.8601 22.1992 11.6901 22.1992H17.7101C18.3301 22.1992 18.8901 22.0092 19.3701 21.6792L20.4901 22.7992L21.9001 21.3892L3.5201 3.00922ZM17.7101 20.1992H11.7101C11.3201 20.1992 11.0701 19.9692 10.9601 19.8392L7.5801 16.1992H9.7101V12.0292L17.8501 20.1692C17.8001 20.1792 17.7601 20.1992 17.7101 20.1992ZM14.5401 11.1992H14.7101V3.44922C14.7101 2.75922 15.2701 2.19922 15.9601 2.19922C16.6501 2.19922 17.2101 2.75922 17.2101 3.44922V11.1992H18.2101V5.44922C18.2101 4.75922 18.7701 4.19922 19.4601 4.19922C20.1501 4.19922 20.7101 4.75922 20.7101 5.44922V17.3692L18.7101 15.3692V13.1992H16.5401L14.5401 11.1992ZM13.7101 10.3692V2.44922C13.7101 1.75922 13.1501 1.19922 12.4601 1.19922C11.7701 1.19922 11.2101 1.75922 11.2101 2.44922V7.86922L13.7101 10.3692ZM10.2101 6.86922V4.44922C10.2101 3.75922 9.6501 3.19922 8.9601 3.19922C8.2901 3.19922 7.7601 3.72922 7.7201 4.37922L10.2101 6.86922Z" fill="black"/>
</svg>
