<svg width="24" height="24" viewBox="0 0 24 24" fill="none" xmlns="http://www.w3.org/2000/svg">
<path d="M17.7101 6V14.17L19.7101 16.17V3C19.7101 1.9 18.8101 1.01 17.7101 1.01L7.7101 1C6.8601 1 6.1301 1.55 5.8401 2.3L9.5401 6H17.7101ZM7.7101 3H17.7101V4H7.7101V3ZM21.9001 21.19L3.5201 2.81L2.1001 4.22L5.7101 7.83V21C5.7101 22.1 6.6101 23 7.7101 23H17.7101C18.5601 23 19.2901 22.45 19.5801 21.7L20.4901 22.61L21.9001 21.19ZM17.7101 21H7.7101V20H17.7101V21ZM7.7101 18V9.83L15.8801 18H7.7101Z" fill="black"/>
</svg>
