<svg width="24" height="24" viewBox="0 0 24 24" fill="none" xmlns="http://www.w3.org/2000/svg">
<path d="M9.56009 5.36453L8.14009 3.95453L9.66009 2.29453H15.6601L17.4901 4.29453H20.6601C21.7601 4.29453 22.6601 5.19453 22.6601 6.29453V18.2945C22.6601 18.3445 22.6501 18.3945 22.6401 18.4545L20.6601 16.4645V6.29453H16.6101L14.7801 4.29453H10.5401L9.56009 5.36453ZM21.1501 22.6045L18.8301 20.2945H4.66009C3.56009 20.2945 2.66009 19.3945 2.66009 18.2945V6.29453C2.66009 5.70453 2.93009 5.17453 3.34009 4.80453L1.34009 2.80453L2.76009 1.39453L22.5601 21.1945L21.1501 22.6045ZM9.85009 11.3145C9.74009 11.6245 9.66009 11.9445 9.66009 12.2945C9.66009 13.9545 11.0001 15.2945 12.6601 15.2945C13.0101 15.2945 13.3301 15.2145 13.6401 15.1045L9.85009 11.3145ZM16.8301 18.2945L15.1501 16.6145C14.4201 17.0445 13.5701 17.2945 12.6601 17.2945C9.90009 17.2945 7.66009 15.0545 7.66009 12.2945C7.66009 11.3845 7.91009 10.5345 8.34009 9.80453L4.83009 6.29453H4.66009V18.2945H16.8301ZM15.4701 11.2745L17.5401 13.3445C17.6201 13.0045 17.6601 12.6545 17.6601 12.2945C17.6601 9.53453 15.4201 7.29453 12.6601 7.29453C12.3001 7.29453 11.9501 7.33453 11.6001 7.41453L13.6701 9.48453C14.5101 9.78453 15.1701 10.4445 15.4701 11.2745Z" fill="black"/>
</svg>
