<svg width="24" height="24" viewBox="0 0 24 24" fill="none" xmlns="http://www.w3.org/2000/svg">
<path d="M8.30507 19.2896C8.30507 20.3896 7.40507 21.2896 6.30507 21.2896C5.20507 21.2896 4.30507 20.3896 4.30507 19.2896C4.30507 18.1896 5.20507 17.2896 6.30507 17.2896C7.40507 17.2896 8.30507 18.1896 8.30507 19.2896ZM15.3051 7.94961V11.4596L17.3051 13.4596V5.55961C17.8851 4.87961 18.2751 4.28961 18.9551 4.28961C19.7251 4.28961 20.3051 4.94961 20.3051 5.76961V6.28961H22.3051V5.76961C22.3051 3.84961 20.8251 2.28961 18.9551 2.28961C17.2951 2.28961 16.4151 3.55961 15.7751 4.31961L12.2751 8.42961L13.6951 9.84961L15.3051 7.94961ZM20.0851 21.8996L18.1751 19.9896C17.8851 20.7496 17.1651 21.2896 16.3051 21.2896C15.2051 21.2896 14.3051 20.3896 14.3051 19.2896C14.3051 18.4296 14.8451 17.7096 15.6051 17.4196L14.4751 16.2896H7.73507C6.88507 16.2896 6.42507 15.2896 6.97507 14.6396L9.66507 11.4796L1.69507 3.50961L3.10507 2.09961L21.4951 20.4896L20.0851 21.8996ZM12.4751 14.2896L11.0851 12.8996L9.90507 14.2896H12.4751ZM10.3051 4.28961C10.5951 4.28961 10.8851 4.30961 11.1651 4.33961L9.79507 5.95961L11.2151 7.37961L14.6051 3.38961C13.3351 2.68961 11.8651 2.28961 10.3051 2.28961C9.07507 2.28961 7.90507 2.53961 6.83507 2.98961L8.40507 4.55961C9.01507 4.38961 9.65507 4.28961 10.3051 4.28961Z" fill="black"/>
</svg>
