<svg width="24" height="24" viewBox="0 0 24 24" fill="none" xmlns="http://www.w3.org/2000/svg">
<path d="M15.9858 6.01367H13.9858V4.01367H15.9858V6.01367ZM17.9858 7.01367H15.9858V9.01367H17.9858V7.01367ZM18.9858 9.01367H20.9858V7.01367H18.9858V9.01367ZM18.9858 4.01367H16.9858V6.01367H18.9858V4.01367ZM14.9858 7.01367H12.9858V9.01367H14.9858V7.01367ZM18.9858 10.0137H16.9858V12.0137H18.9858V10.0137ZM15.9858 10.0137H13.9858V12.0137H15.9858V10.0137ZM12.9858 4.01367H10.9858V6.01367H12.9858V4.01367ZM19.9858 15.8337V19.9837C19.9858 20.5437 19.5158 21.0137 18.9558 20.9837C16.0658 20.8137 13.3558 19.9537 10.9858 18.5837C8.25577 17.0037 5.99577 14.7437 4.41577 12.0137C3.03577 9.64367 2.18577 6.93367 2.01577 4.04367C1.98577 3.48367 2.45577 3.01367 3.01577 3.01367H7.16577C7.64577 3.01367 8.05577 3.35367 8.14577 3.81367L8.88577 7.49367C8.95577 7.82367 8.84577 8.16367 8.61577 8.39367L6.08577 10.9137C7.51577 13.4137 9.58577 15.4837 12.0858 16.9137L14.6058 14.3937C14.8458 14.1537 15.1858 14.0537 15.5058 14.1237L19.1758 14.8537C19.6458 14.9437 19.9858 15.3537 19.9858 15.8337ZM5.16577 9.00367L6.81577 7.35367L6.34577 5.01367H4.11577C4.28577 6.38367 4.64577 7.72367 5.16577 9.00367ZM17.9858 16.6537L15.6458 16.1837L13.9958 17.8337C15.2758 18.3537 16.6258 18.7037 17.9858 18.8837V16.6537ZM19.9858 4.01367V6.01367H21.9858V4.01367H19.9858ZM19.9858 12.0137H21.9858V10.0137H19.9858V12.0137ZM12.9858 10.0137H10.9858V12.0137H12.9858V10.0137Z" fill="black"/>
</svg>
