<svg width="24" height="24" viewBox="0 0 24 24" fill="none" xmlns="http://www.w3.org/2000/svg">
<path d="M2.30507 16.1992H3.30507C4.63507 16.1992 6.01507 16.0192 7.30507 15.6992V18.6992C6.01507 18.3792 4.63507 18.1992 3.30507 18.1992H2.30507V16.1992ZM16.4751 18.6992H8.30507V15.6992H13.4751L1.69507 3.91922L3.10507 2.50922L21.4851 20.8892L20.0751 22.2992L16.4751 18.6992ZM19.1351 15.6992H22.3051V18.6992H22.1351L19.1351 15.6992ZM11.3051 17.1992C11.3051 16.9192 11.0851 16.6992 10.8051 16.6992C10.5251 16.6992 10.3051 16.9192 10.3051 17.1992C10.3051 17.4792 10.5251 17.6992 10.8051 17.6992C11.0851 17.6992 11.3051 17.4792 11.3051 17.1992ZM22.3051 12.4592V14.6992H20.8051V12.4692C20.8051 10.2292 19.0451 8.39922 16.8051 8.39922V6.89922C17.8251 6.89922 18.6551 6.06922 18.6551 5.04922C18.6551 4.02922 17.8251 3.19922 16.8051 3.19922V1.69922C18.6551 1.69922 20.1551 3.19922 20.1551 5.04922C20.1551 5.97922 19.7751 6.81922 19.1551 7.42922C21.0251 8.31922 22.3051 10.2392 22.3051 12.4592ZM11.4551 8.01922C11.4551 8.00922 11.4551 8.00922 11.4551 7.99922C11.4551 6.14922 12.9551 4.64922 14.8051 4.64922V6.14922C13.7851 6.14922 12.9551 6.87922 12.9551 7.89922C12.9551 8.91922 13.7851 9.89922 14.8051 9.89922H16.3351C18.2051 9.89922 19.8051 11.2492 19.8051 13.0592V14.6992H18.3051V13.3992C18.3051 12.0892 17.3851 11.3492 16.3351 11.3492H14.8051C14.7951 11.3492 14.7951 11.3492 14.7851 11.3492L11.4551 8.01922Z" fill="black"/>
</svg>
