<svg width="24" height="24" viewBox="0 0 24 24" fill="none" xmlns="http://www.w3.org/2000/svg">
<path d="M21.9001 21.3853L3.5201 3.00531L2.1001 4.41531L3.7101 6.02531V19.1953C3.7101 20.2953 4.6101 21.1953 5.7101 21.1953H18.8801L20.4901 22.8053L21.9001 21.3853ZM5.7101 19.1953V8.02531L16.8801 19.1953H5.7101ZM17.7101 8.19531V5.19531H19.7101V16.3653L21.7101 18.3653V5.19531C21.7101 4.09531 20.8101 3.19531 19.7101 3.19531H15.5301C15.1101 2.03531 14.0101 1.19531 12.7101 1.19531C11.4101 1.19531 10.3101 2.03531 9.8901 3.19531H6.5401L11.5401 8.19531H17.7101ZM12.7101 3.19531C13.2601 3.19531 13.7101 3.64531 13.7101 4.19531C13.7101 4.74531 13.2601 5.19531 12.7101 5.19531C12.1601 5.19531 11.7101 4.74531 11.7101 4.19531C11.7101 3.64531 12.1601 3.19531 12.7101 3.19531Z" fill="black"/>
</svg>
