<svg width="24" height="24" viewBox="0 0 24 24" fill="none" xmlns="http://www.w3.org/2000/svg">
<path d="M12 0.755859C7.59 0.755859 4 4.34586 4 8.75586C4 14.3259 10.96 22.0959 11.26 22.4259L12 23.2459L12.74 22.4259C13.04 22.0959 20 14.3259 20 8.75586C20 4.34586 16.41 0.755859 12 0.755859ZM12 20.2259C9.82 17.6159 6 12.2959 6 8.75586C6 5.44586 8.69 2.75586 12 2.75586C15.31 2.75586 18 5.44586 18 8.75586C18 12.5859 13.75 18.1159 12 20.2259ZM10.47 10.9259L8.71 9.15586L7.29 10.5759L10.47 13.7559L16.48 7.74586L15.07 6.32586L10.47 10.9259Z" fill="black"/>
</svg>
