<svg width="24" height="24" viewBox="0 0 24 24" fill="none" xmlns="http://www.w3.org/2000/svg">
<path d="M5.03509 21.5005H21.0351V5.47055L5.03509 21.5005ZM19.0351 19.5005H17.0351V12.2805L19.0351 10.2805V19.5005ZM4.25509 6.72055L2.96509 5.43055C6.86509 1.52055 13.2051 1.52055 17.1151 5.43055L15.8251 6.72055C12.6351 3.53055 7.44509 3.53055 4.25509 6.72055ZM11.9651 10.5705L10.0351 12.5005L8.10509 10.5705C9.17509 9.51055 10.8951 9.51055 11.9651 10.5705ZM13.2551 9.29055C11.4751 7.52055 8.59509 7.52055 6.82509 9.29055L5.53509 8.00055C8.01509 5.52055 12.0551 5.52055 14.5351 8.00055L13.2551 9.29055Z" fill="black"/>
</svg>
