<svg width="24" height="24" viewBox="0 0 24 24" fill="none" xmlns="http://www.w3.org/2000/svg">
<path d="M19.485 15.3457H20.655V3.3457H7.48497L5.48497 1.3457H20.655C21.755 1.3457 22.655 2.2457 22.655 3.3457V18.5157L19.485 15.3457ZM18.655 5.3457H9.48497L11.485 7.3457H18.655V5.3457ZM18.655 8.3457H12.485L14.485 10.3457H18.655V8.3457ZM18.655 13.3457V11.3457H15.485L17.485 13.3457H18.655ZM22.555 21.2457L21.145 22.6557L15.825 17.3457H4.65497C3.55497 17.3457 2.65497 16.4457 2.65497 15.3457V4.1757L1.34497 2.8557L2.75497 1.4457L22.555 21.2457ZM13.825 15.3457L11.825 13.3457H6.65497V11.3457H9.82497L8.82497 10.3457H6.65497V8.3457H6.82497L4.65497 6.1757V15.3457H13.825Z" fill="black"/>
</svg>
