<svg width="24" height="24" viewBox="0 0 24 24" fill="none" xmlns="http://www.w3.org/2000/svg">
<g clip-path="url(#clip0_299_38367)">
<path d="M1.91488 0.845703L0.504883 2.2557L1.50488 3.2457V15.1557C1.50488 16.2557 2.39488 17.1557 3.49488 17.1557H10.5049V19.1557H8.50488V21.1557H16.5049V19.1557H14.5049V17.1557H15.4049L21.4049 23.1557L22.8149 21.7457L1.91488 0.845703ZM3.49488 15.1557V5.2457L13.4049 15.1557H3.49488ZM5.05488 1.1557L7.05488 3.1557H21.5049V15.1557H19.0549L21.0549 17.1557H21.4949C22.5949 17.1557 23.4949 16.2557 23.4949 15.1557V3.1557C23.4949 2.0557 22.5949 1.1557 21.4949 1.1557H5.05488Z" fill="black"/>
</g>
<defs>
<clipPath id="clip0_299_38367">
<rect width="24" height="24" fill="white"/>
</clipPath>
</defs>
</svg>
