<svg width="24" height="24" viewBox="0 0 24 24" fill="none" xmlns="http://www.w3.org/2000/svg">
<g clip-path="url(#clip0_299_38375)">
<path d="M2.25497 0.845703L0.844971 2.2557L2.84497 4.2557V20.1557H18.745L21.745 23.1557L23.155 21.7457L2.25497 0.845703ZM6.84497 18.1557H4.84497V16.1557H6.84497V18.1557ZM6.84497 14.1557H4.84497V12.1557H6.84497V14.1557ZM4.84497 10.1557V8.1557H6.84497V10.1557H4.84497ZM10.845 18.1557H8.84497V16.1557H10.845V18.1557ZM8.84497 14.1557V12.1557H10.845V14.1557H8.84497ZM12.845 18.1557V16.1557H14.745L16.745 18.1557H12.845ZM8.84497 4.1557H10.845V6.1557H10.395L12.845 8.6057V8.1557H20.845V16.6057L22.845 18.6057V6.1557H12.845V2.1557H6.39497L8.84497 4.6057V4.1557ZM16.845 10.1557H18.845V12.1557H16.845V10.1557Z" fill="black"/>
</g>
<defs>
<clipPath id="clip0_299_38375">
<rect width="24" height="24" fill="white"/>
</clipPath>
</defs>
</svg>
