<svg width="24" height="24" viewBox="0 0 24 24" fill="none" xmlns="http://www.w3.org/2000/svg">
<path d="M21.9001 20.8892L3.5201 2.50922L2.1001 3.91922L6.3001 8.11922C5.3001 9.42922 4.7001 11.0592 4.7001 12.8192C4.7101 17.1792 8.2901 20.6992 12.7101 20.6992C14.4601 20.6992 16.0701 20.1392 17.3801 19.1992L20.4801 22.2992L21.9001 20.8892ZM12.7101 18.6992C9.4001 18.6992 6.7101 16.0692 6.7101 12.8292C6.7101 11.6392 7.0701 10.5092 7.7301 9.54922L12.7101 14.5292V18.6992ZM9.0901 5.25922L12.7101 1.69922L18.3601 7.25922C19.8101 8.68922 20.7101 10.6592 20.7101 12.8292C20.7101 14.0092 20.4401 15.1192 19.9701 16.1292L12.7101 8.86922V4.50922L10.5101 6.66922L9.0901 5.25922Z" fill="black"/>
</svg>
