<svg width="24" height="24" viewBox="0 0 24 24" fill="none" xmlns="http://www.w3.org/2000/svg">
<path d="M18.0501 13.8296L16.6201 12.3996C17.1801 11.6696 17.6701 10.8996 18.0901 10.0796L15.8901 7.87961C15.6101 7.59961 15.5301 7.20961 15.6401 6.85961C16.0101 5.73961 16.2101 4.53961 16.2101 3.28961C16.2101 2.73961 16.6601 2.28961 17.2101 2.28961H20.7101C21.2601 2.28961 21.7101 2.73961 21.7101 3.28961C21.7101 7.26961 20.3401 10.9296 18.0501 13.8296ZM15.2301 16.6396C12.3401 18.9296 8.6801 20.2896 4.7101 20.2896C4.1601 20.2896 3.7101 19.8396 3.7101 19.2896V15.7996C3.7101 15.2496 4.1601 14.7996 4.7101 14.7996C5.9501 14.7996 7.1601 14.5996 8.2801 14.2296C8.3801 14.1896 8.4901 14.1796 8.5901 14.1796C8.8501 14.1796 9.1001 14.2796 9.3001 14.4696L11.5001 16.6696C12.3101 16.2496 13.0801 15.7696 13.8001 15.2096L2.1001 3.50961L3.5201 2.09961L21.9001 20.4896L20.4901 21.8996L15.2301 16.6396ZM8.3101 16.3096C7.4601 16.5496 6.5901 16.6996 5.7101 16.7596V18.2496C7.0301 18.1596 8.3001 17.8996 9.5101 17.4996L8.3101 16.3096ZM18.1701 4.28961C18.1101 5.17961 17.9601 6.04961 17.7201 6.87961L18.9201 8.07961C19.3301 6.87961 19.5901 5.60961 19.6801 4.28961H18.1701Z" fill="black"/>
</svg>
