<svg width="24" height="24" viewBox="0 0 24 24" fill="none" xmlns="http://www.w3.org/2000/svg">
<g clip-path="url(#clip0_299_38459)">
<path d="M2.23007 0.820312L0.820068 2.23031L5.82007 7.22031C4.16007 7.22031 2.82007 8.56031 2.82007 10.2203V16.2203H6.82007V20.2203H18.8201L21.7701 23.1803L23.1801 21.7703L2.23007 0.820312ZM6.82007 14.2203H4.82007V10.2203C4.82007 9.67031 5.27007 9.22031 5.82007 9.22031H7.82007L10.8201 12.2203H6.82007V14.2203ZM8.82007 18.2203V14.2203H12.8201L16.8201 18.2203H8.82007ZM8.82007 4.22031H16.8201V7.22031H11.4801L13.4801 9.22031H19.8201C20.3701 9.22031 20.8201 9.67031 20.8201 10.2203V14.2203L18.8201 14.2303V12.2203H16.4801L20.4801 16.2203H22.8201V10.2203C22.8201 8.56031 21.4801 7.22031 19.8201 7.22031H18.8201V2.22031H6.82007V2.58031L8.82007 4.58031V4.22031Z" fill="black"/>
<path d="M18.8201 11.7303C19.3724 11.7303 19.8201 11.2826 19.8201 10.7303C19.8201 10.178 19.3724 9.73031 18.8201 9.73031C18.2678 9.73031 17.8201 10.178 17.8201 10.7303C17.8201 11.2826 18.2678 11.7303 18.8201 11.7303Z" fill="black"/>
</g>
<defs>
<clipPath id="clip0_299_38459">
<rect width="24" height="24" fill="white"/>
</clipPath>
</defs>
</svg>
