<svg width="24" height="24" viewBox="0 0 24 24" fill="none" xmlns="http://www.w3.org/2000/svg">
<path d="M6.39997 19.7807C7.60395 19.7807 8.57997 18.8047 8.57997 17.6007C8.57997 16.3967 7.60395 15.4207 6.39997 15.4207C5.19599 15.4207 4.21997 16.3967 4.21997 17.6007C4.21997 18.8047 5.19599 19.7807 6.39997 19.7807Z" fill="black"/>
<path d="M4.21997 4.2207V7.0507C11.25 7.0507 16.95 12.7507 16.95 19.7807H19.78C19.78 11.1907 12.81 4.2207 4.21997 4.2207ZM4.21997 9.8807V12.7107C8.11997 12.7107 11.29 15.8807 11.29 19.7807H14.12C14.12 14.3107 9.68997 9.8807 4.21997 9.8807Z" fill="black"/>
</svg>
