<svg width="24" height="24" viewBox="0 0 24 24" fill="none" xmlns="http://www.w3.org/2000/svg">
<path d="M7 7.57586L8.43 9.00586C9.34 8.09586 10.61 7.52586 12 7.52586C13.39 7.52586 14.66 8.09586 15.57 9.00586L17 7.57586C15.72 6.29586 13.95 5.50586 12 5.50586C10.05 5.50586 8.28 6.29586 7 7.57586ZM12 1.50586C8.98 1.50586 6.24 2.73586 4.25 4.71586L5.66 6.12586C7.28 4.50586 9.53 3.50586 12 3.50586C14.47 3.50586 16.72 4.50586 18.34 6.12586L19.75 4.71586C17.76 2.73586 15.02 1.50586 12 1.50586ZM14.86 10.5159L9.14 10.5059C8.51 10.5059 8 11.0159 8 11.6459V21.3559C8 21.9859 8.51 22.4959 9.14 22.4959H14.85C15.48 22.4959 15.99 21.9859 15.99 21.3559V11.6459C16 11.0159 15.49 10.5159 14.86 10.5159ZM15 20.5059H9V12.5059H15V20.5059Z" fill="black"/>
</svg>
