<svg width="24" height="24" viewBox="0 0 24 24" fill="none" xmlns="http://www.w3.org/2000/svg">
<path d="M20.4885 14.538V5.49805C20.4885 4.39805 19.5885 3.49805 18.4885 3.49805H4.49854C3.39854 3.49805 2.49854 4.39805 2.49854 5.49805V15.498C2.49854 16.598 3.39854 17.498 4.49854 17.498H14.5485C14.8285 19.418 16.6485 20.848 18.7285 20.428C20.0685 20.158 21.1585 19.058 21.4285 17.718C21.6785 16.478 21.2685 15.328 20.4885 14.538ZM18.4885 5.49805L11.4985 8.99805L4.49854 5.49805H18.4885ZM14.8485 15.498H4.49854V7.49805L11.4985 10.998L18.4985 7.49805V13.548C18.3385 13.528 18.1685 13.498 17.9985 13.498C16.6085 13.498 15.4085 14.318 14.8485 15.498ZM19.9985 17.498H15.9985V16.498H19.9985V17.498Z" fill="black"/>
</svg>
