<svg width="24" height="24" viewBox="0 0 24 24" fill="none" xmlns="http://www.w3.org/2000/svg">
<path d="M18.3449 4.26078C16.8649 3.05078 15.0349 2.25078 13.0249 2.05078V4.07078C14.4849 4.25078 15.8149 4.83078 16.9249 5.69078L18.3449 4.26078ZM19.9549 11.0008H21.9749C21.7749 8.99078 20.9749 7.16078 19.7649 5.68078L18.3349 7.10078C19.1949 8.21078 19.7749 9.54078 19.9549 11.0008ZM18.3349 16.9008L19.7649 18.3308C20.9749 16.8508 21.7749 15.0108 21.9749 13.0108H19.9549C19.7749 14.4608 19.1949 15.7908 18.3349 16.9008ZM13.0249 19.9308V21.9508C15.0349 21.7508 16.8649 20.9508 18.3449 19.7408L16.9149 18.3108C15.8149 19.1708 14.4849 19.7508 13.0249 19.9308ZM15.6149 10.5908L13.0249 13.1708V7.00078H11.0249V13.1708L8.4349 10.5808L7.0249 12.0008L12.0249 17.0008L17.0249 12.0008L15.6149 10.5908ZM11.0249 19.9308V21.9508C5.9749 21.4508 2.0249 17.1908 2.0249 12.0008C2.0249 6.81078 5.9749 2.55078 11.0249 2.05078V4.07078C7.0749 4.56078 4.0249 7.92078 4.0249 12.0008C4.0249 16.0808 7.0749 19.4408 11.0249 19.9308Z" fill="black"/>
</svg>
