<svg width="24" height="24" viewBox="0 0 24 24" fill="none" xmlns="http://www.w3.org/2000/svg">
<path d="M18.3051 7.69922C17.2451 7.69922 16.6651 7.98922 14.3951 8.88922C14.2051 8.74922 13.9951 8.61922 13.7751 8.51922C14.0251 7.48922 14.3851 6.98922 15.1051 6.47922C15.9151 5.90922 16.3051 5.13922 16.3051 4.19922C16.3051 2.97922 15.3551 1.69922 13.7051 1.69922C10.6251 1.69922 8.78507 3.16922 8.38507 4.95922L10.7151 7.28922C10.3751 6.38922 10.3051 6.07922 10.3051 5.69922C10.3051 4.51922 11.7051 3.69922 13.7051 3.69922C14.2751 3.69922 14.3051 4.11922 14.3051 4.19922C14.3051 4.46922 14.2551 4.62922 13.9551 4.84922C12.6851 5.74922 12.1251 6.75922 11.7951 8.23922L11.7751 8.33922L19.0251 15.5892C19.2651 15.6492 19.5251 15.6992 19.8051 15.6992C21.0251 15.6992 22.3051 14.7492 22.3051 13.0992C22.3051 9.60922 20.4151 7.69922 18.3051 7.69922ZM19.8051 13.6992C19.5351 13.6992 19.3751 13.6492 19.1551 13.3492C18.2551 12.0792 17.2451 11.5192 15.7651 11.1892C15.7351 10.9692 15.6851 10.7692 15.6151 10.5692C17.4151 9.81922 17.7951 9.69922 18.3051 9.69922C19.4851 9.69922 20.3051 11.0992 20.3051 13.0992C20.3051 13.6692 19.8851 13.6992 19.8051 13.6992Z" fill="black"/>
<path d="M1.69507 3.91922L5.58507 7.80922C5.34507 7.74922 5.08507 7.69922 4.80507 7.69922C3.58507 7.69922 2.30507 8.64922 2.30507 10.2992C2.30507 13.7892 4.19507 15.6992 6.30507 15.6992C7.36507 15.6992 7.94507 15.4092 10.2151 14.5092C10.4051 14.6492 10.6151 14.7792 10.8351 14.8792C10.5851 15.9092 10.2251 16.4092 9.50507 16.9192C8.69507 17.4892 8.30507 18.2592 8.30507 19.1992C8.30507 20.4192 9.25507 21.6992 10.9051 21.6992C13.9851 21.6992 15.8251 20.2292 16.2251 18.4392L20.0851 22.2992L21.4951 20.8892L3.11507 2.50922L1.69507 3.91922ZM12.8251 15.1592C12.8551 15.1592 12.8851 15.1392 12.9151 15.1392L13.8851 16.1092C14.2351 17.0092 14.3051 17.3192 14.3051 17.6992C14.3051 18.8792 12.9051 19.6992 10.9051 19.6992C10.3351 19.6992 10.3051 19.2792 10.3051 19.1992C10.3051 18.9292 10.3551 18.7692 10.6551 18.5492C11.9351 17.6592 12.4851 16.6392 12.8251 15.1592ZM8.84507 12.2192C8.87507 12.4392 8.92507 12.6392 8.99507 12.8392C7.19507 13.5792 6.81507 13.6992 6.30507 13.6992C5.12507 13.6992 4.30507 12.2992 4.30507 10.2992C4.30507 9.72922 4.72507 9.69922 4.80507 9.69922C5.07507 9.69922 5.23507 9.74922 5.45507 10.0492C6.34507 11.3292 7.36507 11.8792 8.84507 12.2192Z" fill="black"/>
</svg>
