<svg width="24" height="24" viewBox="0 0 24 24" fill="none" xmlns="http://www.w3.org/2000/svg">
<g clip-path="url(#clip0_299_37417)">
<path d="M11.9999 10.9999C13.6599 10.9999 14.9999 9.65992 14.9999 7.99992C14.9999 6.33992 13.6599 4.99992 11.9999 4.99992C10.3399 4.99992 8.99992 6.33992 8.99992 7.99992C8.99992 9.65992 10.3399 10.9999 11.9999 10.9999ZM11.9999 6.99992C12.5499 6.99992 12.9999 7.44992 12.9999 7.99992C12.9999 8.54992 12.5499 8.99992 11.9999 8.99992C11.4499 8.99992 10.9999 8.54992 10.9999 7.99992C10.9999 7.44992 11.4499 6.99992 11.9999 6.99992Z" fill="black"/>
<path d="M11.9999 11.9999C10.1599 11.9999 8.43992 12.4999 6.96992 13.3699C6.35992 13.7199 5.99992 14.3899 5.99992 15.0899V16.9999H17.9999V15.0899C17.9999 14.3899 17.6399 13.7299 17.0299 13.3699C15.5599 12.4999 13.8399 11.9999 11.9999 11.9999ZM8.13992 14.9999C9.31992 14.3499 10.6499 13.9999 11.9999 13.9999C13.3499 13.9999 14.6799 14.3499 15.8499 14.9999H8.13992Z" fill="black"/>
<path d="M21.2299 8.14992L23.0799 7.37992C21.8599 4.46992 19.5299 2.12992 16.6199 0.919922L15.8499 2.76992C18.2699 3.78992 20.2099 5.72992 21.2299 8.14992Z" fill="black"/>
<path d="M8.14992 2.76992L7.37992 0.919922C4.46992 2.13992 2.13992 4.46992 0.919922 7.37992L2.76992 8.14992C3.78992 5.72992 5.72992 3.78992 8.14992 2.76992Z" fill="black"/>
<path d="M2.76992 15.8499L0.919922 16.6199C2.13992 19.5299 4.46992 21.8699 7.37992 23.0799L8.14992 21.2299C5.72992 20.2099 3.78992 18.2699 2.76992 15.8499Z" fill="black"/>
<path d="M15.8499 21.2299L16.6199 23.0799C19.5299 21.8599 21.8699 19.5299 23.0799 16.6199L21.2299 15.8499C20.2099 18.2699 18.2699 20.2099 15.8499 21.2299Z" fill="black"/>
</g>
<defs>
<clipPath id="clip0_299_37417">
<rect width="24" height="24" fill="white"/>
</clipPath>
</defs>
</svg>
