<svg width="728" height="728" viewBox="0 0 728 728" fill="none" xmlns="http://www.w3.org/2000/svg">
<rect width="728" height="728" rx="132.364" fill="#092F32"/>
<path d="M212.57 321.305C244.68 289.195 296.741 289.194 328.852 321.305C338.658 331.111 345.469 342.778 349.285 355.169C357.955 383.317 362.652 415.163 383.478 435.989C404.304 456.816 436.151 461.513 464.299 470.183C476.69 473.999 488.357 480.811 498.164 490.617C530.274 522.727 530.275 574.789 498.164 606.899C466.054 639.01 413.992 639.01 381.881 606.899C369.14 594.158 361.454 578.275 358.825 561.743C354.612 535.261 351.326 506.064 332.365 487.103C313.403 468.142 284.207 464.855 257.724 460.643C241.193 458.014 225.311 450.329 212.569 437.587C180.459 405.477 180.459 353.415 212.57 321.305Z" fill="#EDE1A2"/>
<path d="M230.662 121.426C262.772 89.3151 314.835 89.3151 346.945 121.426C356.751 131.231 363.562 142.898 367.378 155.288C376.048 183.436 380.745 215.283 401.571 236.11C422.398 256.937 454.245 261.633 482.393 270.304C494.784 274.12 506.451 280.932 516.257 290.738C548.367 322.848 548.367 374.91 516.256 407.02C484.146 439.13 432.085 439.13 399.975 407.02C387.233 394.278 379.548 378.396 376.918 361.865C372.706 335.382 369.419 306.185 350.458 287.223C331.496 268.262 302.3 264.976 275.817 260.764C259.286 258.134 243.404 250.449 230.663 237.708C198.552 205.598 198.552 153.536 230.662 121.426Z" fill="#EDE1A2"/>
</svg>
