<svg width="24" height="24" viewBox="0 0 24 24" fill="none" xmlns="http://www.w3.org/2000/svg">
<path d="M19.8051 7.19531L20.7451 5.13531L22.8051 4.19531L20.7451 3.25531L19.8051 1.19531L18.8651 3.25531L16.8051 4.19531L18.8651 5.13531L19.8051 7.19531Z" fill="black"/>
<path d="M13.9751 8.61531L15.3851 10.0253L13.9251 11.4853L15.3351 12.8953L17.5051 10.7253C17.8951 10.3353 17.8951 9.70531 17.5051 9.31531L14.6751 6.48531C14.4851 6.29531 14.2351 6.19531 13.9751 6.19531C13.7151 6.19531 13.4651 6.29531 13.2651 6.48531L11.0951 8.65531L12.5051 10.0653L13.9751 8.61531Z" fill="black"/>
<path d="M1.19507 4.41531L8.26507 11.4853L2.09507 17.6553C1.70507 18.0453 1.70507 18.6753 2.09507 19.0653L4.92507 21.8953C5.12507 22.0953 5.37507 22.1953 5.63507 22.1953C5.89507 22.1953 6.14507 22.0953 6.34507 21.9053L12.5151 15.7353L19.5851 22.8053L20.9951 21.3953L2.61507 3.00531L1.19507 4.41531ZM11.0951 14.3153L5.63507 19.7753L4.22507 18.3653L9.68507 12.9053L11.0951 14.3153Z" fill="black"/>
</svg>
