<svg width="24" height="24" viewBox="0 0 24 24" fill="none" xmlns="http://www.w3.org/2000/svg">
<path d="M9.9801 4.17922C9.8501 4.76922 9.7801 5.32922 9.7401 5.88922L11.7901 7.93922C11.5201 5.88922 11.8901 3.71922 13.0501 1.70922C12.9301 1.70922 12.8201 1.69922 12.7001 1.69922C10.6501 1.69922 8.7701 2.30922 7.2001 3.34922L8.6601 4.80922C9.0801 4.56922 9.5201 4.34922 9.9801 4.17922ZM2.1001 3.90922L4.3701 6.17922C3.3201 7.75922 2.7101 9.65922 2.7101 11.6892C2.7101 17.2092 7.1901 21.6892 12.7101 21.6892C14.7501 21.6892 16.6301 21.0592 18.2101 20.0192L20.4901 22.2992L21.9001 20.8892L3.5201 2.49922L2.1001 3.90922ZM5.8401 7.64922L16.7601 18.5692C15.5501 19.2892 14.1601 19.6892 12.7101 19.6892C8.3001 19.6892 4.7101 16.0992 4.7101 11.6892C4.7101 10.2092 5.1301 8.83922 5.8401 7.64922Z" fill="black"/>
</svg>
