<svg width="24" height="24" viewBox="0 0 24 24" fill="none" xmlns="http://www.w3.org/2000/svg">
<g clip-path="url(#clip0_299_36983)">
<path d="M19.9999 8.68945V3.99945H15.3099L11.9999 0.689453L8.68994 3.99945H3.99994V8.68945L0.689941 11.9995L3.99994 15.3095V19.9995H8.68994L11.9999 23.3095L15.3099 19.9995H19.9999V15.3095L23.3099 11.9995L19.9999 8.68945ZM17.9999 14.4795V17.9995H14.4799L11.9999 20.4795L9.51994 17.9995H5.99994V14.4795L3.51994 11.9995L5.99994 9.51945V5.99945H9.51994L11.9999 3.51945L14.4799 5.99945H17.9999V9.51945L20.4799 11.9995L17.9999 14.4795ZM12.2899 6.99945C11.5499 6.99945 10.8399 7.16945 10.2099 7.45945C11.9299 8.24945 13.1299 9.98945 13.1299 11.9995C13.1299 14.0095 11.9299 15.7495 10.2099 16.5395C10.8399 16.8295 11.5499 16.9995 12.2899 16.9995C15.0499 16.9995 17.2899 14.7595 17.2899 11.9995C17.2899 9.23945 15.0499 6.99945 12.2899 6.99945Z" fill="black"/>
</g>
<defs>
<clipPath id="clip0_299_36983">
<rect width="24" height="24" fill="white"/>
</clipPath>
</defs>
</svg>
