<svg width="24" height="24" viewBox="0 0 24 24" fill="none" xmlns="http://www.w3.org/2000/svg">
<path d="M9.05507 14.1953C9.74542 14.1953 10.3051 13.6357 10.3051 12.9453C10.3051 12.255 9.74542 11.6953 9.05507 11.6953C8.36471 11.6953 7.80507 12.255 7.80507 12.9453C7.80507 13.6357 8.36471 14.1953 9.05507 14.1953Z" fill="black"/>
<path d="M17.5551 9.94531C18.3051 9.94531 19.0251 9.85531 19.7251 9.70531C19.9351 10.4153 20.0551 11.1653 20.0551 11.9453C20.0551 13.1653 19.7751 14.3153 19.2851 15.3453L20.7751 16.8353C21.5851 15.3853 22.0551 13.7253 22.0551 11.9453C22.0551 6.42531 17.5751 1.94531 12.0551 1.94531C10.2751 1.94531 8.61507 2.41531 7.16507 3.22531L12.4951 8.55531C13.9851 9.43531 15.7051 9.94531 17.5551 9.94531ZM10.7151 4.06531C11.1451 3.99531 11.5951 3.94531 12.0551 3.94531C14.9551 3.94531 17.4951 5.50531 18.8951 7.82531C18.4651 7.89531 18.0151 7.94531 17.5551 7.94531C14.6551 7.94531 12.1151 6.38531 10.7151 4.06531Z" fill="black"/>
<path d="M1.94507 3.66531L4.13507 5.85531C2.83507 7.54531 2.05507 9.65531 2.05507 11.9453C2.05507 17.4653 6.53507 21.9453 12.0551 21.9453C14.3451 21.9453 16.4551 21.1653 18.1451 19.8653L20.3351 22.0553L21.7451 20.6453L3.36507 2.25531L1.94507 3.66531ZM16.7151 18.4353C15.4051 19.3853 13.7951 19.9453 12.0551 19.9453C7.64507 19.9453 4.05507 16.3553 4.05507 11.9453C4.05507 11.8953 4.06507 11.8453 4.05507 11.8053C5.44507 11.2853 6.68507 10.4553 7.69507 9.41531L16.7151 18.4353ZM6.28507 8.00531C5.75507 8.55531 5.14507 9.03531 4.47507 9.41531C4.73507 8.64531 5.10507 7.93531 5.56507 7.28531L6.28507 8.00531Z" fill="black"/>
</svg>
