<svg width="24" height="24" viewBox="0 0 24 24" fill="none" xmlns="http://www.w3.org/2000/svg">
<g clip-path="url(#clip0_299_37155)">
<path d="M8.56494 3.42445V4.31445L10.5649 6.31445V3.42445H14.5649V7.42445H11.6749L13.6749 9.42445H14.5649V10.3145L16.5649 12.3145V9.42445H20.5649V13.4245H17.6749L19.6749 15.4245H20.5649V16.3145L22.5649 18.3145V3.42445C22.5649 2.32445 21.6649 1.42445 20.5649 1.42445H5.67494L7.67494 3.42445H8.56494ZM16.5649 3.42445H20.5649V7.42445H16.5649V3.42445ZM1.97494 0.564453L0.564941 1.97445L2.56494 3.97445V19.4245C2.56494 20.5245 3.46494 21.4245 4.56494 21.4245H20.0149L22.0249 23.4345L23.4349 22.0245L1.97494 0.564453ZM10.5649 11.9745L12.0149 13.4245H10.5649V11.9745ZM4.56494 5.97445L6.01494 7.42445H4.56494V5.97445ZM8.56494 19.4245H4.56494V15.4245H8.56494V19.4245ZM8.56494 13.4245H4.56494V9.42445H8.01494L8.56494 9.97445V13.4245ZM14.5649 19.4245H10.5649V15.4245H14.0149L14.5649 15.9745V19.4245ZM16.5649 19.4245V17.9745L18.0149 19.4245H16.5649Z" fill="black"/>
</g>
<defs>
<clipPath id="clip0_299_37155">
<rect width="24" height="24" fill="white"/>
</clipPath>
</defs>
</svg>
