<svg width="24" height="24" viewBox="0 0 24 24" fill="none" xmlns="http://www.w3.org/2000/svg">
<path d="M17.9951 14.4553V12.4553H19.0951L19.9951 14.4553H21.4951L20.5951 12.3553C21.0951 12.0553 21.4951 11.5553 21.4951 10.9553V9.95531C21.4951 9.15531 20.7951 8.45531 19.9951 8.45531H16.4951V13.3153L17.6351 14.4553H17.9951ZM17.9951 9.95531H19.9951V10.9553H17.9951V9.95531ZM13.4951 9.95531V10.3153L14.9951 11.8153V9.95531C14.9951 9.15531 14.2951 8.45531 13.4951 8.45531H11.6351L13.1351 9.95531H13.4951ZM3.00507 1.94531L1.94507 3.00531L7.39507 8.45531H6.99507V10.4553H4.99507V8.45531H3.49507V14.4553H4.99507V11.9553H6.99507V14.4553H8.49507V9.55531L9.99507 11.0553V14.4553H13.3951L20.9951 22.0553L22.0551 20.9953L3.00507 1.94531Z" fill="black"/>
</svg>
