<svg width="24" height="24" viewBox="0 0 24 24" fill="none" xmlns="http://www.w3.org/2000/svg">
<path d="M17.7449 11.9991L21.7249 8.01906C22.1149 7.62906 22.1149 6.99906 21.7249 6.60906L17.3849 2.26906C16.9949 1.87906 16.3649 1.87906 15.9749 2.26906L11.9949 6.24906L8.01491 2.26906C7.81491 2.07906 7.56491 1.97906 7.30491 1.97906C7.05491 1.97906 6.79491 2.07906 6.60491 2.26906L2.26491 6.60906C1.87491 6.99906 1.87491 7.62906 2.26491 8.01906L6.24491 11.9991L2.26491 15.9791C1.87491 16.3691 1.87491 16.9991 2.26491 17.3891L6.60491 21.7291C6.99491 22.1191 7.62491 22.1191 8.01491 21.7291L11.9949 17.7491L15.9749 21.7291C16.1749 21.9291 16.4249 22.0191 16.6849 22.0191C16.9449 22.0191 17.1949 21.9191 17.3949 21.7291L21.7349 17.3891C22.1249 16.9991 22.1249 16.3691 21.7349 15.9791L17.7449 11.9991ZM12.0149 8.97906C12.5649 8.97906 13.0149 9.42906 13.0149 9.97906C13.0149 10.5291 12.5649 10.9791 12.0149 10.9791C11.4649 10.9791 11.0149 10.5291 11.0149 9.97906C11.0149 9.42906 11.4649 8.97906 12.0149 8.97906ZM7.30491 10.9391L3.67491 7.31906L7.30491 3.68906L10.9249 7.30906L7.30491 10.9391ZM10.0149 12.9791C9.46491 12.9791 9.01491 12.5291 9.01491 11.9791C9.01491 11.4291 9.46491 10.9791 10.0149 10.9791C10.5649 10.9791 11.0149 11.4291 11.0149 11.9791C11.0149 12.5291 10.5649 12.9791 10.0149 12.9791ZM12.0149 14.9791C11.4649 14.9791 11.0149 14.5291 11.0149 13.9791C11.0149 13.4291 11.4649 12.9791 12.0149 12.9791C12.5649 12.9791 13.0149 13.4291 13.0149 13.9791C13.0149 14.5291 12.5649 14.9791 12.0149 14.9791ZM14.0149 10.9791C14.5649 10.9791 15.0149 11.4291 15.0149 11.9791C15.0149 12.5291 14.5649 12.9791 14.0149 12.9791C13.4649 12.9791 13.0149 12.5291 13.0149 11.9791C13.0149 11.4291 13.4649 10.9791 14.0149 10.9791ZM16.6749 20.3191L13.0449 16.6991L16.6749 13.0691L20.2949 16.6891L16.6749 20.3191Z" fill="black"/>
</svg>
