<svg width="24" height="24" viewBox="0 0 24 24" fill="none" xmlns="http://www.w3.org/2000/svg">
<path d="M13.9299 3.06969H11.9299C11.9299 4.41969 11.6199 5.69969 11.0899 6.83969L12.5799 8.32969C13.4399 6.76969 13.9299 4.97969 13.9299 3.06969ZM20.9299 12.0697V10.0697C19.0199 10.0697 17.2299 10.5597 15.6599 11.4197L17.1499 12.9097C18.2999 12.3797 19.5799 12.0697 20.9299 12.0697ZM20.9299 16.0697V14.0697C20.1399 14.0697 19.3899 14.1997 18.6899 14.4397L20.3699 16.1197C20.5599 16.1097 20.7399 16.0697 20.9299 16.0697ZM9.92993 3.06969H7.92993C7.92993 3.25969 7.88993 3.43969 7.86993 3.62969L9.54993 5.30969C9.79993 4.60969 9.92993 3.84969 9.92993 3.06969ZM4.33993 2.92969L2.92993 4.33969L5.76993 7.17969C4.95993 7.73969 3.98993 8.06969 2.92993 8.06969V10.0697C4.53993 10.0697 6.01993 9.51969 7.19993 8.60969L8.62993 10.0397C7.06993 11.3097 5.08993 12.0697 2.92993 12.0697V14.0697C5.64993 14.0697 8.12993 13.0797 10.0399 11.4497L12.5499 13.9597C10.9199 15.8797 9.92993 18.3597 9.92993 21.0697H11.9299C11.9299 18.9097 12.6899 16.9297 13.9599 15.3697L15.3899 16.7997C14.4799 17.9797 13.9299 19.4597 13.9299 21.0697H15.9299C15.9299 20.0097 16.2599 19.0397 16.8199 18.2297L19.6599 21.0697L21.0699 19.6597L4.33993 2.92969Z" fill="black"/>
</svg>
