<svg width="24" height="24" viewBox="0 0 24 24" fill="none" xmlns="http://www.w3.org/2000/svg">
<path d="M9.99488 11L9.05488 13.06L6.99488 14L9.05488 14.94L9.99488 17L10.9349 14.94L12.9949 14L10.9349 13.06L9.99488 11ZM18.0049 4L20.0049 8H17.0049L15.0049 4H13.0049L15.0049 8H12.0049L10.0049 4H8.00488L10.0049 8H7.00488L5.00488 4H4.00488C2.90488 4 2.01488 4.9 2.01488 6L2.00488 18C2.00488 19.1 2.90488 20 4.00488 20H20.0049C21.1049 20 21.9949 19.1 21.9949 18V4H18.0049ZM20.0049 18H4.00488V6.47L5.76488 10H15.9949L15.3649 11.37L13.9949 12L15.3649 12.63L15.9949 14L16.6249 12.63L17.9949 12L16.6249 11.37L15.9949 10H20.0049V18Z" fill="black"/>
</svg>
