<svg width="24" height="24" viewBox="0 0 24 24" fill="none" xmlns="http://www.w3.org/2000/svg">
<path d="M13.9299 7.06969H17.9299V3.06969H11.9299V7.67969L13.9299 9.67969V7.06969ZM11.9299 10.5097L4.33993 2.92969L2.92993 4.33969L11.9299 13.3397V13.6197C10.9899 13.0797 9.82993 12.8697 8.59993 13.2997C7.25993 13.7797 6.22993 14.9697 5.98993 16.3697C5.52993 19.1097 7.84993 21.4497 10.5799 21.0197C12.5399 20.7097 13.9299 18.9097 13.9299 16.9197V15.3397L19.6599 21.0697L21.0699 19.6597L11.9299 10.5097ZM9.92993 19.0697C8.82993 19.0697 7.92993 18.1697 7.92993 17.0697C7.92993 15.9697 8.82993 15.0697 9.92993 15.0697C11.0299 15.0697 11.9299 15.9697 11.9299 17.0697C11.9299 18.1697 11.0299 19.0697 9.92993 19.0697Z" fill="black"/>
</svg>
