<svg width="24" height="24" viewBox="0 0 24 24" fill="none" xmlns="http://www.w3.org/2000/svg">
<path d="M7.90993 7.03086L1.42993 13.5209L7.91993 20.0009L14.4099 13.5209L7.90993 7.03086ZM4.25993 13.5209L7.91993 9.86086L11.5699 13.5209L7.90993 17.1809L4.25993 13.5209ZM19.9299 7.26086C18.1799 5.50086 15.8699 4.62086 13.5699 4.62086V1.38086L9.32993 5.62086L13.5699 9.86086V6.62086C15.3599 6.62086 17.1499 7.30086 18.5199 8.67086C21.2499 11.4009 21.2499 15.8409 18.5199 18.5709C17.1499 19.9409 15.3599 20.6209 13.5699 20.6209C12.5999 20.6209 11.6299 20.4109 10.7299 20.0109L9.23993 21.5009C10.5899 22.2409 12.0799 22.6209 13.5699 22.6209C15.8699 22.6209 18.1799 21.7409 19.9299 19.9809C23.4499 16.4709 23.4499 10.7709 19.9299 7.26086Z" fill="black"/>
</svg>
