<svg width="24" height="24" viewBox="0 0 24 24" fill="none" xmlns="http://www.w3.org/2000/svg">
<path d="M7.07491 10.0652L5.66491 8.64516C4.76491 9.80516 4.20491 11.1452 4.03491 12.5352H6.05491C6.19491 11.6652 6.54491 10.8152 7.07491 10.0652ZM6.05491 14.5352H4.03491C4.20491 15.9252 4.75491 17.2652 5.65491 18.4252L7.06491 17.0052C6.54491 16.2552 6.19491 15.4152 6.05491 14.5352ZM7.06491 19.8552C8.22491 20.7552 9.57491 21.2952 10.9649 21.4652V19.4352C10.0949 19.2852 9.25491 18.9452 8.50491 18.4052L7.06491 19.8552ZM12.9649 5.60516V2.53516L8.41491 7.08516L12.9649 11.5352V7.62516C15.8049 8.10516 17.9649 10.5652 17.9649 13.5352C17.9649 16.5052 15.8049 18.9652 12.9649 19.4452V21.4652C16.9149 20.9752 19.9649 17.6152 19.9649 13.5352C19.9649 9.45516 16.9149 6.09516 12.9649 5.60516Z" fill="black"/>
</svg>
