<svg width="24" height="24" viewBox="0 0 24 24" fill="none" xmlns="http://www.w3.org/2000/svg">
<path d="M15.5849 7.08516L11.0349 2.53516V5.60516C7.09491 6.09516 4.03491 9.45516 4.03491 13.5352C4.03491 17.6152 7.08491 20.9752 11.0349 21.4652V19.4452C8.19491 18.9652 6.03491 16.5052 6.03491 13.5352C6.03491 10.5652 8.19491 8.10516 11.0349 7.62516V11.5352L15.5849 7.08516ZM19.9649 12.5352C19.7949 11.1452 19.2449 9.80516 18.3449 8.64516L16.9249 10.0652C17.4649 10.8152 17.8049 11.6652 17.9449 12.5352H19.9649ZM13.0349 19.4352V21.4552C14.4249 21.2852 15.7749 20.7452 16.9349 19.8452L15.4949 18.4052C14.7449 18.9452 13.9049 19.2952 13.0349 19.4352ZM16.9249 17.0152L18.3449 18.4252C19.2449 17.2652 19.7949 15.9252 19.9649 14.5352H17.9449C17.8049 15.4052 17.4649 16.2552 16.9249 17.0152Z" fill="black"/>
</svg>
