<svg width="24" height="24" viewBox="0 0 24 24" fill="none" xmlns="http://www.w3.org/2000/svg">
<path d="M15.7101 1.19531H9.7101V3.19531H15.7101V1.19531Z" fill="black"/>
<path d="M12.7101 6.19531C16.5801 6.19531 19.7101 9.32531 19.7101 13.1953C19.7101 14.1353 19.5201 15.0253 19.1901 15.8453L20.6901 17.3453C21.3401 16.1053 21.7101 14.6953 21.7101 13.1953C21.7101 11.0753 20.9701 9.12531 19.7401 7.58531L21.1601 6.16531C20.7301 5.65531 20.2601 5.17531 19.7501 4.75531L18.3301 6.17531C16.7801 4.93531 14.8301 4.19531 12.7101 4.19531C11.2101 4.19531 9.8001 4.56531 8.5601 5.21531L10.0601 6.71531C10.8801 6.38531 11.7701 6.19531 12.7101 6.19531Z" fill="black"/>
<path d="M11.7101 8.36531L13.7101 10.3653V8.19531H11.7101V8.36531Z" fill="black"/>
<path d="M3.5201 3.00531L2.1001 4.41531L5.5001 7.81531C4.3801 9.31531 3.7101 11.1753 3.7101 13.1953C3.7101 18.1653 7.7301 22.1953 12.7101 22.1953C14.7301 22.1953 16.5901 21.5253 18.0901 20.4053L20.4901 22.8053L21.9001 21.3953L3.5201 3.00531ZM12.7101 20.1953C8.8401 20.1953 5.7101 17.0653 5.7101 13.1953C5.7101 11.7253 6.1601 10.3653 6.9301 9.24531L16.6601 18.9753C15.5401 19.7453 14.1801 20.1953 12.7101 20.1953Z" fill="black"/>
</svg>
