<svg width="24" height="24" viewBox="0 0 24 24" fill="none" xmlns="http://www.w3.org/2000/svg">
<path d="M4.99492 15H18.9949V9H4.99492V15ZM6.99492 11H16.9949V13H6.99492V11ZM10.9949 1H12.9949V4H10.9949V1ZM20.4549 5.01L19.0349 3.6L17.2449 5.39L18.6549 6.8L20.4549 5.01ZM10.9949 20H12.9949V23H10.9949V20ZM17.2349 18.71L19.0249 20.51L20.4449 19.09L18.6449 17.3L17.2349 18.71ZM4.95492 3.595L6.74292 5.385L5.33492 6.79L3.54792 5.003L4.95492 3.595ZM3.54492 19.08L4.95492 20.5L6.74492 18.7L5.33492 17.29L3.54492 19.08Z" fill="black"/>
</svg>
