<svg width="32" height="24" viewBox="0 0 32 24" fill="none" xmlns="http://www.w3.org/2000/svg">
<g clip-path="url(#clip0_299_35339)">
<rect width="32" height="24" fill="white"/>
<path fill-rule="evenodd" clip-rule="evenodd" d="M8 0H24V24H8V0Z" fill="#FFD018"/>
<path fill-rule="evenodd" clip-rule="evenodd" d="M0 0H8V24H0V0Z" fill="#2E42A5"/>
<path fill-rule="evenodd" clip-rule="evenodd" d="M24 0H32V24H24V0Z" fill="#E31D1C"/>
<path fill-rule="evenodd" clip-rule="evenodd" d="M17.0836 4.55248C17.4219 4.33295 17.8449 4.33284 18.0895 4.71947C18.3339 5.10598 18.0383 5.50435 17.9645 5.64037C17.8908 5.77624 17.7332 6.27517 18.0895 6.4392C18.4459 6.60315 18.9695 6.51242 19.2398 6.27514C19.2398 6.27514 18.9086 6.12559 18.9938 5.88353C19.0794 5.64126 19.6626 4.95684 20.7311 5.46556C21.7994 5.97425 21.9834 6.44085 21.691 6.8181C21.3986 7.19533 20.6149 7.84233 20.8033 8.27904C20.8033 8.27904 20.9401 8.03915 21.1236 8.15892C21.3036 8.27643 21.2686 8.48128 21.2672 8.489C21.2672 8.489 22.5706 8.41735 22.7135 9.68139C22.8563 10.9454 21.8678 11.282 21.8678 11.282C21.8742 11.289 22.1773 11.6253 21.9742 11.8454C21.769 12.0674 21.5338 11.9324 21.5338 11.9324C21.5338 11.9324 21.1047 12.3383 21.3189 12.8005C21.5337 13.2629 21.691 13.3992 21.691 13.3992C21.6928 13.3915 21.728 13.2567 21.9742 13.2566C22.2278 13.2566 22.6995 14.0269 22.4068 14.2663C22.1142 14.5057 21.9742 14.4617 21.9742 14.4617C21.9742 14.4617 22.6067 14.9867 22.4068 15.8201C22.207 16.653 21.6733 17.0545 21.1236 17.2878C20.5738 17.5212 19.9175 17.5212 19.0748 17.5212C18.2322 17.5213 17.733 18.0456 17.733 18.0456C17.733 18.0456 18.1597 18.2101 18.0172 18.5935C17.877 18.9702 17.5609 18.9762 17.5504 18.9763C17.5504 18.9763 17.3123 19.319 17.0836 19.2048C16.8548 19.09 16.7106 18.9763 16.7106 18.9763C16.7106 18.9763 16.5201 19.3588 16.2994 19.4216V19.4314C16.2893 19.4314 16.2792 19.429 16.2691 19.4275C16.2594 19.4289 16.2496 19.4314 16.2398 19.4314V19.4216C16.0191 19.3589 15.8287 18.9763 15.8287 18.9763C15.8287 18.9763 15.6845 19.09 15.4557 19.2048C15.227 19.3191 14.9889 18.9763 14.9889 18.9763C14.9787 18.9762 14.6623 18.9705 14.5221 18.5935C14.3796 18.2101 14.8063 18.0456 14.8063 18.0456C14.8063 18.0456 14.307 17.5213 13.4645 17.5212C12.6218 17.5212 11.9655 17.5212 11.4156 17.2878C10.866 17.0545 10.3323 16.653 10.1324 15.8201C9.93254 14.9867 10.565 14.4617 10.565 14.4617C10.565 14.4617 10.425 14.5057 10.1324 14.2663C9.83975 14.0269 10.3114 13.2566 10.565 13.2566C10.8113 13.2567 10.8464 13.3916 10.8482 13.3992C10.8482 13.3992 11.0056 13.2629 11.2203 12.8005C11.4345 12.3383 11.0055 11.9324 11.0055 11.9324C11.0055 11.9324 10.7702 12.0674 10.565 11.8454C10.3618 11.6252 10.6654 11.2887 10.6715 11.282C10.6715 11.282 9.68296 10.9454 9.82579 9.68139C9.96863 8.41735 11.2721 8.489 11.2721 8.489C11.2707 8.48133 11.2357 8.27645 11.4156 8.15892C11.5992 8.03915 11.7359 8.27904 11.7359 8.27904C11.9244 7.84233 11.1407 7.19533 10.8482 6.8181C10.5559 6.44085 10.7398 5.97426 11.8082 5.46556C12.8766 4.95685 13.4599 5.64126 13.5455 5.88353C13.6307 6.12559 13.2994 6.27514 13.2994 6.27514C13.5698 6.51242 14.0934 6.60315 14.4498 6.4392C14.806 6.27516 14.6485 5.77624 14.5748 5.64037C14.501 5.50436 14.2053 5.10599 14.4498 4.71947C14.6944 4.33284 15.1174 4.33294 15.4557 4.55248C15.7445 4.73997 16.1554 4.83792 16.2691 4.86303C16.3816 4.83825 16.794 4.74047 17.0836 4.55248Z" fill="#BF9937"/>
<path d="M12.1101 15.9983L12.2152 15.7441C13.4229 16.2618 14.7973 16.521 16.3391 16.521C17.8802 16.521 19.2176 16.2621 20.3521 15.7454L20.4627 15.997C19.2913 16.5305 17.9165 16.7967 16.3391 16.7967C14.7625 16.7967 13.3526 16.5308 12.1101 15.9983Z" fill="#805440"/>
</g>
<defs>
<clipPath id="clip0_299_35339">
<rect width="32" height="24" fill="white"/>
</clipPath>
</defs>
</svg>
