<svg width="32" height="24" viewBox="0 0 32 24" fill="none" xmlns="http://www.w3.org/2000/svg">
<g clip-path="url(#clip0_299_35343)">
<rect width="32" height="24" fill="white"/>
<path fill-rule="evenodd" clip-rule="evenodd" d="M22 0H32V24H22V0Z" fill="#67BD38"/>
<path fill-rule="evenodd" clip-rule="evenodd" d="M10 0H22V24H10V0Z" fill="#D51700"/>
<path fill-rule="evenodd" clip-rule="evenodd" d="M0 0H10V24H0V0Z" fill="#272727"/>
<path d="M12.8337 8.19336C12.2568 9.16428 11.8708 10.0546 11.6706 10.8633C11.7546 10.941 11.808 11.0091 11.862 11.1025C12.0184 11.3734 12.1499 11.6364 12.2565 11.8916L11.7966 12.0879C11.7251 11.9167 11.6375 11.7422 11.5407 11.5615C11.4946 11.9542 11.4984 12.3252 11.5514 12.6748C11.635 12.6835 11.7055 12.6989 11.7868 12.7285C12.0807 12.8355 12.3507 12.9522 12.5964 13.0791L12.3698 13.5254C12.1608 13.4174 11.9313 13.3172 11.6813 13.2236C11.6828 13.228 11.6838 13.2329 11.6852 13.2373C11.8992 13.8839 12.2275 14.4781 12.6696 15.0215C12.7377 15.007 12.8013 15 12.8757 15C13.1884 15 13.4822 15.0175 13.7565 15.0527L13.696 15.5488C13.5101 15.5249 13.3133 15.5123 13.1061 15.5059C13.5022 15.9017 13.9669 16.2671 14.5007 16.6016L14.2897 16.957C13.6264 16.5414 13.0624 16.0774 12.5973 15.5664C12.5365 15.5902 12.4623 15.6218 12.3678 15.6631C12.3559 15.6683 12.3434 15.6717 12.3317 15.6768C12.7379 16.1029 13.2182 16.4948 13.7731 16.8525L13.5573 17.2061C12.9167 16.7931 12.3693 16.3333 11.9137 15.8291C11.6959 15.8852 11.5123 15.8842 11.2975 15.8213L11.4313 15.3398C11.4633 15.3492 11.4946 15.3559 11.526 15.3604C11.1032 14.7975 10.7847 14.1839 10.571 13.5195C10.5333 13.4023 10.5022 13.2826 10.4753 13.1611C10.309 13.1296 10.1686 13.068 10.0231 12.9609L10.3132 12.5547C10.338 12.573 10.3635 12.5884 10.3893 12.6025C10.3375 11.99 10.4091 11.3289 10.6032 10.6191C10.4818 10.4793 10.4068 10.3349 10.361 10.1465L10.7878 10.0352C11.0167 9.38742 11.339 8.70142 11.7565 7.97852L12.1051 8.19141C11.6502 8.9792 11.3121 9.71503 11.0915 10.3994C11.1534 10.4558 11.2278 10.5178 11.321 10.5869C11.5426 9.7811 11.9327 8.91104 12.488 7.97656L12.8337 8.19336ZM11.0837 13.1777C11.0179 13.1819 10.9555 13.181 10.8971 13.1826C10.9149 13.2521 10.934 13.3209 10.9557 13.3887C11.1768 14.0761 11.519 14.7064 11.9831 15.2803C12.0416 15.2582 12.1063 15.2332 12.1774 15.2021C12.2069 15.1893 12.2349 15.1774 12.2614 15.166C11.8366 14.6173 11.516 14.0194 11.3014 13.3711C11.2794 13.3045 11.2602 13.2369 11.2419 13.1689C11.1958 13.1711 11.1435 13.174 11.0837 13.1777ZM10.945 10.9238C10.79 11.5606 10.7449 12.1485 10.8073 12.6885C10.8813 12.689 10.9656 12.6868 11.0622 12.6807C11.0905 12.6789 11.1175 12.6773 11.1432 12.6758C11.0771 12.1895 11.0961 11.6714 11.1999 11.1201C11.1546 11.0848 11.1005 11.0432 11.0339 10.9941C11.0023 10.9709 10.9739 10.946 10.945 10.9238Z" fill="#F7FCFF"/>
<path d="M19.1531 8.19336C19.7299 9.16428 20.1159 10.0546 20.3162 10.8633C20.2322 10.941 20.1787 11.0091 20.1248 11.1025C19.9684 11.3734 19.8368 11.6364 19.7302 11.8916L20.1902 12.0879C20.2617 11.9167 20.3493 11.7422 20.446 11.5615C20.4922 11.9542 20.4883 12.3252 20.4353 12.6748C20.3517 12.6835 20.2812 12.6989 20.2 12.7285C19.9061 12.8355 19.636 12.9522 19.3904 13.0791L19.6169 13.5254C19.8259 13.4174 20.0555 13.3172 20.3054 13.2236C20.304 13.228 20.303 13.2329 20.3015 13.2373C20.0875 13.8839 19.7593 14.4781 19.3171 15.0215C19.249 15.007 19.1854 15 19.1111 15C18.7983 15 18.5045 15.0175 18.2302 15.0527L18.2908 15.5488C18.4766 15.5249 18.6734 15.5123 18.8806 15.5059C18.4846 15.9017 18.0198 16.2671 17.4861 16.6016L17.697 16.957C18.3603 16.5414 18.9243 16.0774 19.3894 15.5664C19.4502 15.5902 19.5244 15.6218 19.6189 15.6631C19.6308 15.6683 19.6434 15.6717 19.655 15.6768C19.2488 16.1029 18.7685 16.4948 18.2136 16.8525L18.4294 17.2061C19.07 16.7931 19.6175 16.3333 20.073 15.8291C20.2908 15.8852 20.4745 15.8842 20.6892 15.8213L20.5554 15.3398C20.5234 15.3492 20.4921 15.3559 20.4607 15.3604C20.8835 14.7975 21.2021 14.1839 21.4158 13.5195C21.4535 13.4023 21.4846 13.2826 21.5115 13.1611C21.6778 13.1296 21.8182 13.068 21.9636 12.9609L21.6736 12.5547C21.6487 12.573 21.6232 12.5884 21.5974 12.6025C21.6492 11.99 21.5777 11.3289 21.3835 10.6191C21.5049 10.4793 21.58 10.3349 21.6257 10.1465L21.199 10.0352C20.9701 9.38742 20.6477 8.70142 20.2302 7.97852L19.8816 8.19141C20.3366 8.9792 20.6746 9.71503 20.8953 10.3994C20.8333 10.4558 20.7589 10.5178 20.6658 10.5869C20.4442 9.7811 20.054 8.91104 19.4988 7.97656L19.1531 8.19336ZM20.9031 13.1777C20.9689 13.1819 21.0312 13.181 21.0896 13.1826C21.0718 13.2521 21.0528 13.3209 21.031 13.3887C20.8099 14.0761 20.4677 14.7064 20.0037 15.2803C19.9451 15.2582 19.8804 15.2332 19.8093 15.2021C19.7799 15.1893 19.7518 15.1774 19.7253 15.166C20.1501 14.6173 20.4708 14.0194 20.6853 13.3711C20.7073 13.3045 20.7265 13.2369 20.7449 13.1689C20.791 13.1711 20.8432 13.174 20.9031 13.1777ZM21.0417 10.9238C21.1967 11.5606 21.2419 12.1485 21.1794 12.6885C21.1054 12.689 21.0212 12.6868 20.9246 12.6807C20.8962 12.6789 20.8693 12.6773 20.8435 12.6758C20.9096 12.1895 20.8906 11.6714 20.7869 11.1201C20.8322 11.0848 20.8863 11.0432 20.9529 10.9941C20.9844 10.9709 21.0128 10.946 21.0417 10.9238Z" fill="#F7FCFF"/>
<path fill-rule="evenodd" clip-rule="evenodd" d="M14.2531 16.2637L13.1367 17.3683C13.1367 17.3683 14.0994 17.9578 15.9137 17.9578C17.728 17.9578 18.7844 17.3683 18.7844 17.3683L17.9359 16.2637C17.9359 16.2637 16.7796 16.7118 15.9606 16.7118C15.1416 16.7118 14.2531 16.2637 14.2531 16.2637Z" fill="#F7FCFF"/>
<path d="M14.2764 16.9688C14.2764 16.9688 15.2215 17.1918 15.946 17.1918C16.6705 17.1918 17.6156 16.9688 17.6156 16.9688" stroke="#C00001" stroke-width="0.5"/>
<path d="M14.7237 10.4521H14.7754L15.0401 10.249H16.8994L17.2129 10.4521H17.3701V8.86719H17.8565V10.4521H18.0274V10.7227H17.8565V13.5957C17.8565 13.7645 18.0368 14.0547 18.4141 14.4316L18.8438 14.8604H12.8662L13.8594 14.3838C14.0462 14.2941 14.1796 14.0363 14.2373 13.5801V10.7227H13.8106V10.4521H14.2373V8.86719H14.7237V10.4521ZM14.7237 13.6113C14.6864 13.9176 14.6213 14.1633 14.5235 14.3604H17.6934C17.4795 14.0788 17.3701 13.8274 17.3701 13.5957V10.7227H14.7237V13.6113ZM17.1348 14.083H15.0274V11.999H16.0811L17.1348 14.083ZM16 8.66602C16.4926 8.66603 16.8916 9.02079 16.8916 9.45801C16.8914 9.89508 16.4925 10.249 16 10.249C15.5076 10.249 15.1086 9.89508 15.1084 9.45801C15.1084 9.02078 15.5075 8.66602 16 8.66602Z" fill="#F7FCFF"/>
<path fill-rule="evenodd" clip-rule="evenodd" d="M17.0681 6.0712C17.0892 6.07617 17.1059 6.08382 17.1218 6.09366C17.1683 6.12257 17.2189 6.1806 17.2575 6.24991C17.3356 6.34715 17.38 6.46807 17.4021 6.61124C17.4087 6.65414 17.4127 6.68971 17.4157 6.73526C17.435 6.68157 17.4515 6.61888 17.4646 6.54971C17.4695 6.52346 17.4725 6.5045 17.4782 6.46768C17.4808 6.45135 17.4817 6.44396 17.4831 6.43643C17.4845 6.4291 17.4847 6.42892 17.487 6.41885C17.4921 6.39831 17.497 6.38414 17.5114 6.36221C17.5245 6.34323 17.5246 6.34309 17.5564 6.31632C17.6069 6.28869 17.607 6.2888 17.6823 6.29288C17.7819 6.35194 17.7818 6.35197 17.7946 6.38858C17.8028 6.40766 17.806 6.42041 17.8083 6.43741C17.8097 6.44785 17.8103 6.45924 17.8112 6.4755C17.8119 6.48702 17.8132 6.50128 17.8142 6.52335C17.8146 6.53243 17.8165 6.57911 17.8171 6.59366C17.8183 6.62165 17.8183 6.65025 17.8181 6.6796C17.8176 6.74404 17.815 6.80384 17.8083 6.87979C17.8902 6.80017 18.0137 6.82007 18.153 6.89639C18.2908 6.97199 18.3767 7.081 18.4138 7.21378C18.4244 7.252 18.4303 7.28697 18.4333 7.32413C18.4853 7.26631 18.5363 7.17212 18.5817 7.04874C18.6262 6.92778 18.7082 6.60874 18.7038 6.621C18.7114 6.59838 18.7192 6.58177 18.7341 6.56143C18.7614 6.52407 18.7991 6.4955 18.8601 6.49307C18.9337 6.49024 18.9821 6.53014 19.0095 6.57999C19.0304 6.61825 19.0329 6.6401 19.0358 6.70206C19.0383 6.75575 19.0388 6.83557 19.0388 7.04385C19.0388 7.45637 19.0996 7.75603 19.1784 7.87979H19.3718C19.3716 8.20668 19.092 8.35295 18.9069 8.06241C18.8264 7.93584 18.7672 7.73136 18.737 7.46768C18.6814 7.5492 18.6181 7.61411 18.5437 7.65909C18.3871 7.75373 18.3022 7.78218 18.2019 7.71768C18.1381 7.67648 18.1139 7.61672 18.1081 7.54776C18.1058 7.51988 18.1062 7.50481 18.1091 7.44815C18.1127 7.37756 18.1121 7.34087 18.1022 7.30557C18.0973 7.28779 18.0892 7.27187 18.0788 7.25675C18.0909 7.34849 18.0917 7.41384 18.073 7.48038C18.0376 7.60533 17.9367 7.6815 17.8005 7.68155C17.612 7.68155 17.4914 7.57064 17.4597 7.39053C17.4495 7.33302 17.4469 7.28577 17.4509 7.21085C17.3347 7.27636 17.2144 7.2683 17.1433 7.13858C17.1249 7.10509 17.1154 7.07584 17.1091 7.03409C17.0626 7.0829 17.0078 7.13085 16.946 7.17764C16.8148 7.277 16.7178 7.34153 16.6452 7.37686C16.5182 7.43854 16.4027 7.44502 16.3327 7.31436C16.2914 7.23696 16.3008 7.16962 16.3356 7.06436C16.3449 7.03649 16.3565 7.00634 16.3718 6.96768C16.3799 6.9472 16.4088 6.87563 16.4118 6.86807C16.4227 6.84081 16.4312 6.81796 16.4392 6.79678C16.474 6.70416 16.4908 6.63869 16.4909 6.60147C16.4909 6.54666 16.491 6.50848 16.4899 6.4794C16.4278 6.52743 16.3457 6.60607 16.2429 6.71671C15.8884 7.09808 15.5179 7.09729 15.2155 6.85928C15.1419 6.80132 15.0884 6.74322 15.0573 6.7001L15.0515 6.69132C15.0417 6.67579 15.0198 6.64718 14.9909 6.61905C14.9142 6.54441 14.8763 6.53943 14.8112 6.621C14.7969 6.63902 14.7821 6.66074 14.7673 6.68643C14.6001 6.97568 14.4658 7.14007 14.3073 7.20987C14.092 7.30462 13.8894 7.20166 13.7087 6.93936C13.6175 6.80716 13.4961 6.77595 13.4323 6.82901C13.3442 6.90235 13.3391 7.11696 13.4958 7.44034C13.6692 7.79803 13.7014 8.04389 13.5075 8.17276C13.3472 8.27889 13.1034 8.21862 12.7302 8.02921L12.8737 7.73038C13.0241 7.80668 13.1456 7.8557 13.2351 7.87784C13.2696 7.88637 13.2951 7.89001 13.3112 7.89151C13.3109 7.88822 13.3108 7.88463 13.3103 7.88077C13.3015 7.81575 13.2664 7.71698 13.2048 7.58975C12.9879 7.1423 12.9991 6.76151 13.2292 6.57022C13.4524 6.38499 13.782 6.46943 13.9733 6.74698C14.0755 6.89533 14.1319 6.92402 14.1794 6.90323C14.2535 6.8706 14.3549 6.74573 14.488 6.51553C14.5108 6.47604 14.5353 6.44043 14.5603 6.40909C14.7656 6.15188 15.016 6.1847 15.2136 6.37686C15.2614 6.42336 15.2971 6.46937 15.32 6.50479C15.3234 6.50916 15.3302 6.51692 15.3396 6.52725C15.3603 6.55015 15.3846 6.57318 15.4118 6.59464C15.5906 6.73539 15.7764 6.73605 16.0085 6.48624C16.3117 6.15997 16.4887 6.03939 16.6579 6.12296C16.7508 6.16898 16.7894 6.25407 16.8054 6.36807C16.8138 6.4281 16.8161 6.47895 16.8161 6.60147C16.8161 6.69138 16.7903 6.78794 16.7419 6.9169C16.7453 6.91566 16.7494 6.91231 16.7536 6.90909C16.9976 6.72422 17.0446 6.57301 16.989 6.44132C16.9456 6.39927 16.9154 6.3658 16.8972 6.33682C16.8892 6.3241 16.8821 6.31118 16.8767 6.29581C16.8609 6.25155 16.8573 6.20517 16.8884 6.1503C16.9321 6.07304 17.0053 6.05666 17.0681 6.0712ZM19.0105 6.73428L19.0114 6.73233V6.73038C19.011 6.73165 19.0109 6.73303 19.0105 6.73428ZM18.7116 6.70694V6.7001L18.7106 6.69815C18.7109 6.70038 18.7113 6.70331 18.7116 6.70694ZM16.4812 6.39444L16.4802 6.38858L16.4792 6.38663C16.4799 6.38812 16.4802 6.39108 16.4812 6.39444Z" fill="#F7FCFF"/>
<path d="M14.5262 12.9189L14.327 13.0625L13.4374 11.7559C13.3356 11.8009 13.2147 11.8921 13.1366 12.0732C12.9808 12.4351 12.9208 13.0723 12.9208 13.0723L12.3485 12.7041C12.3528 12.6939 12.5399 12.2511 12.5399 11.7119C12.5399 11.3362 12.8229 11.1765 12.9989 11.1133L12.7938 10.8115L12.993 10.668L14.5262 12.9189Z" fill="#F7FCFF"/>
<path d="M17.5379 12.9189L17.7371 13.0625L18.6268 11.7559C18.7285 11.8009 18.8494 11.8921 18.9275 12.0732C19.0833 12.4351 19.1434 13.0723 19.1434 13.0723L19.7156 12.7041C19.7113 12.6939 19.5242 12.2511 19.5242 11.7119C19.5242 11.3362 19.2413 11.1765 19.0652 11.1133L19.2703 10.8115L19.0711 10.668L17.5379 12.9189Z" fill="#F7FCFF"/>
</g>
<defs>
<clipPath id="clip0_299_35343">
<rect width="32" height="24" fill="white"/>
</clipPath>
</defs>
</svg>
