<svg width="32" height="24" viewBox="0 0 32 24" fill="none" xmlns="http://www.w3.org/2000/svg">
<g clip-path="url(#clip0_299_35347)">
<rect width="32" height="24" fill="white"/>
<path fill-rule="evenodd" clip-rule="evenodd" d="M0 0V24H32V0H0Z" fill="#2E42A5"/>
<mask id="mask0_299_35347" style="mask-type:luminance" maskUnits="userSpaceOnUse" x="0" y="0" width="32" height="24">
<path fill-rule="evenodd" clip-rule="evenodd" d="M0 0V24H32V0H0Z" fill="white"/>
</mask>
<g mask="url(#mask0_299_35347)">
<path d="M25.4977 11.8574C26.1842 12.2992 26.8922 12.5185 27.6256 12.5186C28.3677 12.5186 29.0572 12.3521 29.6979 12.0205L30.0163 11.8564L30.0182 12.2041C30.0351 14.9362 29.8964 16.8725 29.5983 18.0215C29.3574 18.9497 28.7528 20.2093 28.0465 21.2021C27.186 22.4118 26.2623 23.1377 25.3766 23.1377C24.4943 23.1374 23.5727 22.3564 22.7086 21.0732C22.0213 20.0525 21.4369 18.7795 21.276 18.0117C21.0824 17.0873 20.9729 15.157 20.946 12.207L20.943 11.8564L21.2643 12.0205C21.92 12.3532 22.5703 12.5185 23.2165 12.5186C23.8547 12.5186 24.5359 12.2986 25.2604 11.8545L25.3795 11.7812L25.4977 11.8574ZM25.3766 12.0312C24.6194 12.4954 23.8992 12.7275 23.2165 12.7275C22.5338 12.7275 21.8497 12.5531 21.1637 12.2051C21.1905 15.1414 21.299 17.0639 21.4889 17.9707C21.7742 19.3312 23.6457 22.9271 25.3766 22.9277C27.1077 22.9277 28.9483 19.662 29.3874 17.9707C29.6799 16.8432 29.8182 14.9208 29.8014 12.2051C29.129 12.5532 28.4034 12.7275 27.6256 12.7275C26.8479 12.7275 26.0979 12.4955 25.3766 12.0312Z" fill="#FBE625"/>
<path fill-rule="evenodd" clip-rule="evenodd" d="M21.1635 12.2055C21.1635 12.2055 21.2036 16.61 21.4886 17.9702C21.7735 19.3304 23.6458 22.928 25.3771 22.928C27.1083 22.928 28.9485 19.6614 29.3874 17.9702C29.8262 16.279 29.8011 12.2055 29.8011 12.2055C29.8011 12.2055 28.7924 12.7276 27.6257 12.7276C26.4591 12.7276 25.3771 12.0312 25.3771 12.0312C25.3771 12.0312 24.2411 12.7276 23.2169 12.7276C22.1926 12.7276 21.1635 12.2055 21.1635 12.2055Z" fill="#F5FBFF"/>
<mask id="mask1_299_35347" style="mask-type:luminance" maskUnits="userSpaceOnUse" x="21" y="12" width="9" height="11">
<path fill-rule="evenodd" clip-rule="evenodd" d="M21.1635 12.2055C21.1635 12.2055 21.2036 16.61 21.4886 17.9702C21.7735 19.3304 23.6458 22.928 25.3771 22.928C27.1083 22.928 28.9485 19.6614 29.3874 17.9702C29.8262 16.279 29.8011 12.2055 29.8011 12.2055C29.8011 12.2055 28.7924 12.7276 27.6257 12.7276C26.4591 12.7276 25.3771 12.0312 25.3771 12.0312C25.3771 12.0312 24.2411 12.7276 23.2169 12.7276C22.1926 12.7276 21.1635 12.2055 21.1635 12.2055Z" fill="white"/>
</mask>
<g mask="url(#mask1_299_35347)">
<path fill-rule="evenodd" clip-rule="evenodd" d="M25.8419 14.875C25.7646 14.5644 26.3377 15.0757 26.4904 15.1572C26.6424 15.2381 26.6024 15.2217 26.88 15.2451C27.914 15.2974 28.0453 15.8486 28.1291 15.9658C28.2128 16.0824 28.1635 16.3526 28.5158 16.4678C28.8678 16.5834 29.0998 17.1435 29.0998 17.1436C29.0907 17.1375 28.342 16.6376 28.3302 17.1309C28.318 17.6271 27.31 18.2212 27.0109 18.6162C26.7119 19.0111 26.9139 19.3183 26.8664 19.4082C26.8186 19.498 26.7444 19.5944 26.6789 19.5596C26.6137 19.5232 26.6353 19.0209 26.6828 18.7871C26.7304 18.5531 26.3497 18.7882 26.1876 18.8359C26.0252 18.8834 25.394 18.6701 25.8878 18.623C26.3818 18.5759 26.9 18.1923 27.1681 17.7744C27.4362 17.3566 27.397 16.6294 27.0822 16.377C26.77 16.1268 26.5258 16.7309 26.5216 16.7412C26.5203 16.7382 26.4907 16.6648 26.5236 16.4463C26.5573 16.2231 26.7199 16.0772 26.7199 16.0771C26.4659 15.9421 25.9194 15.1859 25.8419 14.875ZM23.0714 15.5352C23.1197 15.3732 23.6428 14.9594 23.4132 15.3994C23.1839 15.8393 23.2246 16.4822 23.4289 16.9346C23.6333 17.3871 24.2645 17.7507 24.6476 17.624C25.0298 17.497 24.6466 16.9551 24.6466 16.9551C24.6485 16.9554 24.726 16.9694 24.8927 17.1172C25.0616 17.2669 25.0958 17.4831 25.0959 17.4834C25.3476 17.344 26.2793 17.297 26.5822 17.4014C26.885 17.5058 26.1419 17.7085 25.9914 17.792C25.8409 17.8754 25.8769 17.8504 25.7062 18.0703C25.0987 18.91 24.5645 18.7188 24.421 18.7256C24.2776 18.7323 24.0786 18.5438 23.7902 18.7764C23.5055 19.006 22.9211 18.9013 22.9054 18.8984C22.9284 18.8885 23.7391 18.536 23.3351 18.2598C22.9256 17.9793 22.9761 16.8108 22.8078 16.3447C22.6394 15.8787 22.2711 15.8809 22.2218 15.792C22.1726 15.7031 22.1325 15.5887 22.1974 15.5527C22.2633 15.5178 22.6727 15.8094 22.8429 15.9766C23.0131 16.1438 23.0233 15.6974 23.0714 15.5352ZM25.3283 17.8828C25.2781 17.911 25.2612 17.976 25.2902 18.0283C25.3193 18.0805 25.3833 18.1001 25.4337 18.0723C25.4843 18.0442 25.5019 17.9792 25.4728 17.9268C25.4437 17.8743 25.3789 17.8548 25.3283 17.8828ZM24.464 12.8867C24.4634 12.8924 24.3722 13.7941 24.8146 13.5723C25.2585 13.3504 26.2561 13.9613 26.7453 14.04C27.2343 14.1186 27.4112 13.7949 27.5128 13.7949C27.6144 13.795 27.7344 13.8156 27.7345 13.8896C27.7345 13.9639 27.279 14.1811 27.05 14.249C26.8212 14.3167 27.2067 14.5423 27.3253 14.6631C27.4435 14.784 27.5519 15.4422 27.2785 15.0283C27.0049 14.6143 26.4227 14.3375 25.9279 14.2969C25.433 14.2564 24.8095 14.6319 24.7345 15.0283C24.6603 15.4213 25.3082 15.3528 25.3195 15.3516C25.3195 15.3516 25.2714 15.4142 25.0587 15.4893C24.8494 15.5631 24.6466 15.4917 24.6398 15.4893C24.6396 15.777 24.2295 16.6132 23.9914 16.8281C23.7533 17.0423 23.9355 16.2956 23.9357 16.123C23.9357 15.9509 23.9399 15.9944 23.8302 15.7383C23.3905 14.8001 23.8173 14.4256 23.881 14.2969C23.9447 14.1682 24.2051 14.0854 24.1418 13.7207C24.0787 13.3591 24.4567 12.8956 24.464 12.8867ZM27.0636 15.5127C27.0126 15.4856 26.9483 15.5058 26.9201 15.5586C26.8919 15.6116 26.911 15.6769 26.9621 15.7041C27.0131 15.7312 27.0775 15.7102 27.1056 15.6572C27.1336 15.6043 27.1146 15.5398 27.0636 15.5127ZM24.0334 15.3535C23.9735 15.3537 23.925 15.4002 23.925 15.458C23.925 15.5157 23.9735 15.5623 24.0334 15.5625C24.0932 15.5624 24.1427 15.5158 24.1427 15.458C24.1427 15.4002 24.0933 15.3536 24.0334 15.3535Z" fill="#FF9800"/>
<path fill-rule="evenodd" clip-rule="evenodd" d="M21.4259 19.7539H28.7049V23.211H21.4259V19.7539Z" fill="#36C6FF"/>
</g>
<g clip-path="url(#clip1_299_35347)">
<rect width="18" height="14" fill="#2E42A5"/>
<path d="M-2.00424 12.9991L1.95671 14.7363L18.0899 1.88805L20.1792 -0.693481L15.9435 -1.27411L9.3632 4.26259L4.0667 7.99302L-2.00424 12.9991Z" fill="#F7FCFF"/>
<path d="M-1.46198 14.2165L0.555946 15.2246L19.429 -0.933105H16.5956L-1.46198 14.2165Z" fill="#F50100"/>
<path d="M20.0043 12.9991L16.0434 14.7363L-0.0898438 1.88805L-2.17916 -0.693481L2.05651 -1.27411L8.63686 4.26259L13.9334 7.99302L20.0043 12.9991Z" fill="#F7FCFF"/>
<path d="M19.8691 13.8727L17.8512 14.8809L9.81489 7.9629L7.43229 7.18998L-2.3802 -0.684557H0.453194L10.2602 7.00307L12.8651 7.92989L19.8691 13.8727Z" fill="#F50100"/>
<path fill-rule="evenodd" clip-rule="evenodd" d="M9.98454 0H7.98454V6H3.05176e-05V8H7.98454V14H9.98454V8H18V6H9.98454V0Z" fill="#F50100"/>
<path fill-rule="evenodd" clip-rule="evenodd" d="M6.48454 0H11.4845V4.5H18V9.5H11.4845L11.5 14H6.50003L6.48454 9.5H3.05176e-05V4.5H6.48454V0ZM7.98454 6H3.05176e-05V8H7.98454V14H9.98454V8H18V6H9.98454V0H7.98454V6Z" fill="#F7FCFF"/>
</g>
</g>
</g>
<defs>
<clipPath id="clip0_299_35347">
<rect width="32" height="24" fill="white"/>
</clipPath>
<clipPath id="clip1_299_35347">
<rect width="18" height="14" fill="white"/>
</clipPath>
</defs>
</svg>
