<svg width="32" height="24" viewBox="0 0 32 24" fill="none" xmlns="http://www.w3.org/2000/svg">
<g clip-path="url(#clip0_299_35349)">
<rect width="32" height="24" fill="white"/>
<path fill-rule="evenodd" clip-rule="evenodd" d="M0 0H32V24H0V0Z" fill="#F50100"/>
<path fill-rule="evenodd" clip-rule="evenodd" d="M17.8066 3.96218C18.7245 3.96213 19.1312 3.3956 19.6152 3.67898C20.0993 3.96232 20.6832 3.96218 20.4824 3.96218C20.2812 3.96263 19.5612 4.37317 20.1182 4.37331C20.6758 4.37331 21.3101 3.55244 21.3105 3.96218C21.3105 3.96218 21.469 4.42602 21.0859 4.4612C21.0723 4.46254 19.3599 4.63065 19.6953 4.70632C19.6953 4.70632 20.0034 4.83338 20.2139 4.84109C20.2172 4.85366 20.2928 5.16243 19.7441 5.24929C19.718 5.25419 18.1608 5.54772 18.0889 6.05202C18.0165 6.56053 17.517 7.70677 18.0889 7.7073C18.6614 7.7073 19.0332 7.31483 19.0332 6.87429C19.0332 6.43375 19.1114 5.68981 19.6152 5.65359C19.6316 5.64807 20.8533 5.23588 21.0068 5.26394C21.1604 5.29265 20.8852 5.51296 21.3105 5.51296C21.7359 5.51276 22.9678 4.4911 23.1621 4.08523C23.3561 3.67945 23.6475 4.08523 23.6475 4.08523C23.6503 4.10311 23.827 5.2247 22.8584 5.63699C21.8907 6.04884 21.3204 6.05199 21.3105 6.05202C21.3105 6.05202 20.7017 6.50018 21.0859 6.50027C21.4704 6.50027 22.2908 6.65742 22.8584 6.35476C23.4259 6.05208 23.6474 5.88292 23.6475 6.05202C23.6475 6.22131 23.6508 7.17117 22.9971 7.17117H21.3105C21.0862 7.17117 20.5549 7.49101 21.4375 7.7073C22.3197 7.92344 22.6044 7.83313 22.9971 7.7073C23.39 7.58139 23.6475 7.50987 23.6475 7.7073C23.6468 7.90527 23.1083 8.64275 22.6455 8.64285C22.1825 8.64285 21.6689 8.23291 21.4375 8.23269C21.2062 8.23269 20.9663 8.64259 21.0859 8.64285C21.2059 8.64285 21.6042 9.23855 22.125 9.23855C22.6456 9.23845 22.958 9.04519 23.3027 9.04519C23.6475 9.04518 23.6475 8.97404 23.6475 9.23855C23.6467 9.50293 22.9595 9.79416 22.6455 9.79421C22.3314 9.79421 21.0068 9.03727 21.0068 9.23855C21.008 9.44096 21.8371 10.5217 22.3477 10.5218H23.3027C23.6474 10.5218 23.5107 10.9602 23.5107 10.9602C23.5018 10.9681 23.1714 11.2559 22.7627 11.2561C22.3481 11.2561 21.9401 10.8378 21.6885 10.68C21.4369 10.5222 21.0859 10.4 21.0859 10.68C21.0864 10.9603 21.8792 12.0782 22.5205 12.0784C23.1619 12.0784 23.6473 11.8205 23.6475 12.0784C23.6475 12.3365 23.349 12.9114 22.9971 12.7844C22.6449 12.6574 21.535 12.2591 21.3105 11.8362C21.0862 11.4132 20.6762 11.5938 20.8418 11.8362C21.0077 12.079 21.8792 13.3316 22.5205 13.4485C23.162 13.5653 23.7843 13.5355 23.6475 13.8128C23.5105 14.09 22.9432 14.4775 22.6455 14.3557C22.3478 14.2337 21.3305 13.2982 21.0859 12.9085C20.8414 12.5187 20.214 11.7727 20.2139 12.0784C20.2139 12.3844 19.9585 13.2196 20.4824 13.3343C21.0067 13.4487 21.2831 13.9534 21.0068 13.9534C20.7303 13.9533 19.7441 13.7165 19.7441 13.0911C19.744 12.4657 19.2988 12.1147 19.2988 12.2903C19.2988 12.466 19.2535 12.9947 19.499 13.3343C19.7444 13.6737 19.3972 13.9507 19.2988 13.8128C19.2007 13.6742 18.7803 13.0327 18.7803 12.9085C18.7802 12.7843 18.6314 12.4925 18.457 12.4925C18.283 12.4929 18.2483 12.7971 18.5742 13.4485C18.9004 14.1002 19.7044 14.6219 19.959 14.6223C20.2106 14.6223 19.964 15.1947 19.959 15.2063L21.6885 15.6546C21.6885 15.6546 22.2666 15.3566 22.3398 15.2298L22.3633 15.1594C22.4335 15.0363 22.7301 14.8344 22.9971 14.8343C23.3024 14.8343 23.3269 15.2063 23.1621 15.2063C22.9973 15.2063 22.6935 15.4925 22.5205 15.4925C22.3478 15.4926 21.8218 15.8609 21.8193 15.8626H22.9971C22.9971 15.8626 22.8088 15.6546 23.3027 15.6546C23.7966 15.6546 24 15.8626 24 15.8626C23.9879 15.8696 23.4418 16.1886 23.3027 16.1887C23.2142 16.1887 23.068 16.2326 22.8398 16.2376C22.8053 16.2132 22.7851 16.2175 22.7725 16.2376C22.6523 16.2359 22.5116 16.2241 22.3477 16.1887C21.8191 16.0747 22.7627 16.426 22.7627 16.426C22.7627 16.426 22.7413 16.2871 22.7725 16.2376C22.7957 16.2379 22.8181 16.238 22.8398 16.2376C22.8758 16.2629 22.9267 16.3194 22.9971 16.426C23.3024 16.889 23.349 17.0335 22.9971 17.0335C22.6453 17.0334 22.3478 16.9259 22.3477 16.676C22.3477 16.426 21.6885 16.1887 21.6885 16.1887L20.8418 16.676C20.8469 16.6849 20.9954 16.9494 20.7412 17.0335C20.4829 17.1189 20.1185 16.993 20.1182 16.9075C20.1182 16.8219 20.2042 16.426 20.4238 16.426C20.6437 16.4257 21.3105 16.0628 21.3105 16.0628L19.6953 15.5803C19.6953 15.5803 19.2437 16.0622 19.0947 16.0628C18.9461 16.0628 18.5166 14.8896 18.252 14.6223C17.9874 14.3557 17.8207 13.8041 17.5146 14.0237C17.2085 14.2437 17.0869 14.9216 17.5146 15.4925C17.9424 16.0632 18.6825 16.5139 18.8887 16.5139C19.095 16.514 19.499 16.5338 19.499 16.676C19.4989 16.8186 19.3191 17.4008 18.8887 17.1546C18.458 16.9077 17.9973 16.6115 17.9316 16.676C17.8662 16.7408 18.1354 17.4743 18.5117 17.6497C18.888 17.8248 19.2029 17.5726 19.2031 17.8801C19.2031 18.1882 18.9368 18.532 18.457 18.2063C17.9776 17.8808 17.6874 17.3214 17.6006 17.5364C17.5139 17.7522 17.5512 18.596 17.9316 18.596C18.3117 18.5959 18.5738 18.5425 18.5742 18.6907C18.5742 18.8394 18.4861 19.4739 18.0889 19.221C17.6917 18.9681 17.4011 18.6521 17.3301 18.429C17.2587 18.2065 16.8352 18.4289 16.9688 18.7425C17.1024 19.0562 17.428 19.6887 17.5146 19.6887C17.597 19.6955 16.5068 21.5999 16.5068 21.5999L16.5 19.1585L16.4932 21.5999C16.4932 21.5999 15.403 19.6955 15.4854 19.6887C15.572 19.6887 15.8976 19.0562 16.0312 18.7425C16.1648 18.4289 15.7413 18.2065 15.6699 18.429C15.5989 18.6521 15.3083 18.9681 14.9111 19.221C14.5139 19.4739 14.4258 18.8394 14.4258 18.6907C14.4262 18.5425 14.6883 18.5959 15.0684 18.596C15.4488 18.596 15.4861 17.7522 15.3994 17.5364C15.3126 17.3214 15.0224 17.8808 14.543 18.2063C14.0632 18.532 13.7969 18.1882 13.7969 17.8801C13.7971 17.5726 14.112 17.8248 14.4883 17.6497C14.8646 17.4743 15.1338 16.7408 15.0684 16.676C15.0027 16.6115 14.542 16.9077 14.1113 17.1546C13.6809 17.4008 13.5011 16.8186 13.501 16.676C13.501 16.5338 13.905 16.514 14.1113 16.5139C14.3175 16.5139 15.0576 16.0632 15.4854 15.4925C15.9131 14.9216 15.7915 14.2437 15.4854 14.0237C15.1793 13.8041 15.0126 14.3557 14.748 14.6223C14.4834 14.8896 14.0539 16.0628 13.9053 16.0628C13.7563 16.0622 13.3047 15.5803 13.3047 15.5803L11.6895 16.0628C11.6895 16.0628 12.3563 16.4257 12.5762 16.426C12.7958 16.426 12.8818 16.8219 12.8818 16.9075C12.8815 16.993 12.5171 17.1189 12.2588 17.0335C12.0046 16.9494 12.1531 16.6849 12.1582 16.676L11.3115 16.1887C11.3115 16.1887 10.6523 16.426 10.6523 16.676C10.6522 16.9259 10.3547 17.0334 10.0029 17.0335C9.65099 17.0335 9.69761 16.889 10.0029 16.426C10.0728 16.3201 10.1233 16.2632 10.1592 16.2376C10.1809 16.2381 10.2033 16.2379 10.2266 16.2376C10.2581 16.2867 10.2373 16.426 10.2373 16.426C10.2373 16.426 11.1809 16.0747 10.6523 16.1887C10.4879 16.2242 10.3469 16.2359 10.2266 16.2376C10.2138 16.2178 10.1939 16.2128 10.1592 16.2376C9.93159 16.2325 9.78566 16.1887 9.69727 16.1887C9.55818 16.1886 9.01207 15.8696 9 15.8626C9 15.8626 9.20335 15.6546 9.69727 15.6546C10.1912 15.6546 10.0029 15.8626 10.0029 15.8626H11.1807C11.1782 15.8609 10.6522 15.4926 10.4795 15.4925C10.3065 15.4925 10.0027 15.2063 9.83789 15.2063C9.67311 15.2063 9.69761 14.8343 10.0029 14.8343C10.2699 14.8344 10.5665 15.0363 10.6367 15.1594L10.6602 15.2298C10.7334 15.3566 11.3115 15.6546 11.3115 15.6546L13.041 15.2063C13.036 15.1947 12.7894 14.6223 13.041 14.6223C13.2956 14.6219 14.0996 14.1002 14.4258 13.4485C14.7517 12.7971 14.717 12.4929 14.543 12.4925C14.3686 12.4925 14.2198 12.7843 14.2197 12.9085C14.2197 13.0327 13.7993 13.6742 13.7012 13.8128C13.6028 13.9507 13.2556 13.6737 13.501 13.3343C13.7465 12.9947 13.7012 12.466 13.7012 12.2903C13.7012 12.1147 13.256 12.4657 13.2559 13.0911C13.2559 13.7165 12.2697 13.9533 11.9932 13.9534C11.7169 13.9534 11.9933 13.4487 12.5176 13.3343C13.0415 13.2196 12.7861 12.3844 12.7861 12.0784C12.786 11.7727 12.1586 12.5187 11.9141 12.9085C11.6695 13.2982 10.6522 14.2337 10.3545 14.3557C10.0568 14.4775 9.48948 14.09 9.35254 13.8128C9.21572 13.5355 9.838 13.5653 10.4795 13.4485C11.1208 13.3316 11.9923 12.079 12.1582 11.8362C12.3238 11.5938 11.9138 11.4132 11.6895 11.8362C11.465 12.2591 10.3551 12.6574 10.0029 12.7844C9.65099 12.9114 9.35254 12.3365 9.35254 12.0784C9.3527 11.8205 9.83811 12.0784 10.4795 12.0784C11.1208 12.0782 11.9136 10.9603 11.9141 10.68C11.9141 10.4 11.5631 10.5222 11.3115 10.68C11.0599 10.8378 10.6519 11.2561 10.2373 11.2561C9.82864 11.2559 9.49821 10.9681 9.48926 10.9602C9.48926 10.9602 9.35255 10.5218 9.69727 10.5218H10.6523C11.1629 10.5217 11.992 9.44096 11.9932 9.23855C11.9932 9.03727 10.6686 9.79421 10.3545 9.79421C10.0405 9.79416 9.3533 9.50293 9.35254 9.23855C9.35254 8.97404 9.35253 9.04518 9.69727 9.04519C10.042 9.04519 10.3544 9.23845 10.875 9.23855C11.3958 9.23855 11.7941 8.64285 11.9141 8.64285C12.0337 8.64259 11.7938 8.23269 11.5625 8.23269C11.3311 8.23291 10.8175 8.64285 10.3545 8.64285C9.8917 8.64275 9.35322 7.90527 9.35254 7.7073C9.35254 7.50987 9.61002 7.58139 10.0029 7.7073C10.3956 7.83313 10.6803 7.92344 11.5625 7.7073C12.4451 7.49101 11.9138 7.17117 11.6895 7.17117H10.0029C9.34925 7.17117 9.35254 6.22131 9.35254 6.05202C9.35263 5.88292 9.57415 6.05208 10.1416 6.35476C10.7092 6.65742 11.5296 6.50027 11.9141 6.50027C12.2983 6.50018 11.6895 6.05202 11.6895 6.05202C11.6796 6.05199 11.1093 6.04884 10.1416 5.63699C9.173 5.2247 9.34965 4.10311 9.35254 4.08523C9.35254 4.08523 9.64389 3.67945 9.83789 4.08523C10.0322 4.4911 11.2641 5.51276 11.6895 5.51296C12.1148 5.51296 11.8396 5.29265 11.9932 5.26394C12.1467 5.23588 13.3684 5.64807 13.3848 5.65359C13.8886 5.68981 13.9668 6.43375 13.9668 6.87429C13.9668 7.31483 14.3386 7.7073 14.9111 7.7073C15.483 7.70677 14.9835 6.56053 14.9111 6.05202C14.8392 5.54772 13.282 5.25419 13.2559 5.24929C12.7072 5.16243 12.7828 4.85366 12.7861 4.84109C12.9966 4.83338 13.3047 4.70632 13.3047 4.70632C13.6401 4.63065 11.9277 4.46254 11.9141 4.4612C11.531 4.42602 11.6895 3.96218 11.6895 3.96218C11.6899 3.55244 12.3242 4.37331 12.8818 4.37331C13.4388 4.37317 12.7188 3.96263 12.5176 3.96218C12.3168 3.96218 12.9007 3.96232 13.3848 3.67898C13.8688 3.3956 14.2755 3.96213 15.1934 3.96218C16.1113 3.96218 15.3826 4.9605 15.8975 5.63699C16.2617 6.11548 16.4319 6.2079 16.5 6.22195C16.5681 6.2079 16.7383 6.11548 17.1025 5.63699C17.6174 4.9605 16.8887 3.96218 17.8066 3.96218Z" fill="#1A1A1A"/>
</g>
<defs>
<clipPath id="clip0_299_35349">
<rect width="32" height="24" fill="white"/>
</clipPath>
</defs>
</svg>
