<svg width="32" height="24" viewBox="0 0 32 24" fill="none" xmlns="http://www.w3.org/2000/svg">
<g clip-path="url(#clip0_299_35403)">
<rect width="32" height="24" fill="white"/>
<path fill-rule="evenodd" clip-rule="evenodd" d="M0 0H32V24H0V0Z" fill="#F7FCFF"/>
<path d="M32 -1L32.3516 0.936523L2.84863 12L32.3516 23.0635L32 25H-1V12.6924L-2.84766 12L-1 11.3066V-1H32Z" fill="#3547A0" stroke="#E31D1C" stroke-width="2"/>
<path fill-rule="evenodd" clip-rule="evenodd" d="M29.0224 5.10938C29.0224 5.10938 27.0121 5.65184 26.2852 5.84903C26.1871 5.87563 26 5.92321 26.0134 5.65621C25.5528 5.95182 24.8104 6.2506 24.5061 6.33539C24.3529 6.37805 24.3938 6.11304 24.3284 6.03719C24.1959 6.23256 23.8553 6.5188 23.7586 6.54676C22.8004 6.82405 22.1641 7.02561 21.8499 7.15145C21.8499 7.15145 21.4008 7.58339 21.4008 7.92584C21.4008 8.2683 21.3529 8.56077 21.0438 8.56077C20.7347 8.56077 20.0217 9.18283 20.2829 9.53336C20.544 9.88389 21.4008 9.69723 21.4008 9.53336C21.4008 9.36948 22.0115 9.16447 22.0115 9.34891C22.0115 9.53336 21.8499 9.86697 21.8499 9.86697H22.5242L22.0115 10.1322H22.5242L22.0115 10.4463H22.9714L22.3579 10.7199H22.7835L22.5242 11.08H23.1891C23.1891 11.08 23.4479 11.3418 23.6918 11.4848C23.9357 11.6278 24.4764 12.845 24.206 13.3163C23.9357 13.7877 24.2674 13.8578 24.3284 13.6507C24.3895 13.4436 24.5159 13.1469 24.6244 13.1469C24.7329 13.1469 24.9412 13.1469 24.9412 13.1469L25.0884 13.5341L25.4377 13.9074C25.4377 13.9074 25.4625 13.5829 25.5281 13.5341C25.5281 13.5341 25.8008 13.5619 25.933 13.5298C25.933 13.5298 25.8743 13.058 25.879 12.9945C25.879 12.9945 26.3017 13.138 26.4829 13.1348C26.4829 13.1348 26.2108 12.7093 26.2108 12.564C26.2108 12.564 26.7162 12.5898 26.7162 12.8047L26.6602 12.2682C26.6602 12.2682 27.1386 12.0647 27.1554 11.8934L26.8419 11.8551C26.8419 11.8551 27.0047 11.6484 26.9896 11.6076L26.5264 11.5489C26.5264 11.5489 27.0325 11.3727 27.0707 11.2614C27.0707 11.2614 26.9571 11.083 26.853 11.0129L26.4995 10.7838C26.4995 10.7838 27.2901 10.7889 27.4224 10.7889C27.4224 10.7889 27.629 10.7147 27.47 10.5876C27.47 10.5876 27.3143 10.494 27.3356 10.4036C27.3356 10.4036 27.4414 10.2003 27.4172 10.165C27.4172 10.165 27.5301 10.3146 27.5301 9.94477C27.5301 9.94477 27.533 9.57303 27.4618 9.55515C27.4618 9.55515 27.6699 9.40209 27.588 9.30439C27.5062 9.2067 26.6301 8.94665 26.4205 8.94665L28.0256 7.92922C28.0256 7.92922 28.1369 7.50899 28.2998 7.25781C28.2998 7.25781 28.7264 6.87488 28.8123 6.57482C28.8983 6.27476 29.1404 5.53469 29.1404 5.53469V5.19601L29.0224 5.10938Z" fill="#9C3900"/>
<path fill-rule="evenodd" clip-rule="evenodd" d="M29.1403 5.19629V5.53516C28.979 6.02833 28.8694 6.37521 28.8122 6.5752C28.7548 6.77515 28.5837 7.00267 28.2995 7.25781C28.1909 7.42526 28.0992 7.64957 28.0251 7.92969L26.5085 8.89062C26.4737 8.88574 26.4439 8.88284 26.4206 8.88281L26.4362 8.93652C26.4262 8.94676 26.4557 9 26.4557 9L26.5231 8.95703C26.8304 9.00692 27.5156 9.21882 27.5876 9.30469C27.6342 9.36039 27.61 9.42902 27.5153 9.51172C27.5042 9.50305 27.4913 9.4967 27.4772 9.49316L27.4616 9.55469L27.5006 9.60645C27.5216 9.6665 27.5312 9.77925 27.5299 9.94434C27.5299 10.0994 27.5148 10.186 27.485 10.2041C27.4888 10.1734 27.4841 10.1489 27.4704 10.1289L27.4167 10.165L27.3649 10.2031C27.378 10.2204 27.3923 10.2348 27.4069 10.2461C27.3931 10.2854 27.3696 10.338 27.3356 10.4033C27.3214 10.4636 27.3657 10.5255 27.4694 10.5879C27.5754 10.6726 27.5601 10.7396 27.4225 10.7891C27.3411 10.7891 27.0725 10.7871 26.6178 10.7842L26.5348 10.7305L26.5182 10.7842C26.5117 10.7862 26.4987 10.8477 26.4987 10.8477C26.5327 10.8479 26.5661 10.8474 26.5983 10.8477L26.8532 11.0127C26.9225 11.0594 26.9943 11.1428 27.07 11.2617C27.0476 11.3256 26.9104 11.4053 26.6579 11.501L26.5348 11.4854L26.5407 11.5439C26.5365 11.5467 26.5464 11.6025 26.5475 11.6084C26.589 11.594 26.6287 11.5802 26.6657 11.5664L26.9889 11.6074C26.9975 11.6305 26.9633 11.6941 26.8864 11.7969L26.8493 11.792L26.8639 11.8262C26.8568 11.8355 26.8492 11.8456 26.8415 11.8555L26.8786 11.8594L26.8932 11.8945C26.9013 11.8843 26.9092 11.8739 26.9167 11.8643L27.1549 11.8936C27.1436 12.0077 26.9786 12.1329 26.6598 12.2686L26.7126 12.7695C26.6881 12.6571 26.5419 12.59 26.2751 12.5684C26.2514 12.5665 26.2313 12.5655 26.2106 12.5645C26.2106 12.5799 26.2128 12.598 26.2174 12.6182C26.2476 12.7357 26.3357 12.9044 26.4831 13.1348C26.3717 13.1367 26.1914 13.0968 25.943 13.0156C25.9408 13.0082 25.8786 12.9941 25.8786 12.9941L25.8581 13.0547C25.8879 13.1481 25.9051 13.3044 25.9333 13.5303C25.8451 13.5516 25.7097 13.5527 25.528 13.5342C25.4633 13.5824 25.4378 13.8992 25.4372 13.9072L25.0885 13.5342L24.9411 13.1465H24.6247C24.5162 13.1465 24.3889 13.4433 24.3278 13.6504C24.2667 13.8574 23.9355 13.7877 24.2057 13.3164C24.476 12.8452 23.936 11.6279 23.692 11.4844C23.5295 11.3891 23.3616 11.2545 23.1891 11.0801H22.5241L22.737 10.7832H22.7829L22.7643 10.7471L22.7829 10.7197H22.7497L22.7301 10.6826L22.7038 10.7197H22.3581L22.8288 10.5098H22.9713L22.9586 10.4521L22.944 10.3887L22.8141 10.4463H22.0114L22.4196 10.1963H22.5241L22.5085 10.1416L22.4899 10.0781L22.402 10.1318H22.0114L22.401 9.93066H22.5241L22.5094 9.87402L22.4938 9.81055L22.3844 9.86719H21.8493C21.957 9.64478 22.0114 9.4716 22.0114 9.34863C22.0108 9.16473 21.4014 9.36944 21.401 9.5332C21.401 9.69708 20.544 9.88372 20.2829 9.5332C20.0217 9.18267 20.7345 8.56055 21.0436 8.56055C21.3527 8.56053 21.401 8.26823 21.401 7.92578C21.4011 7.69753 21.55 7.43924 21.8493 7.15137C22.1635 7.02553 22.8002 6.82416 23.7585 6.54688C23.8551 6.51892 24.1952 6.23248 24.3278 6.03711C24.3931 6.11293 24.3526 6.37735 24.5055 6.33496C24.8099 6.25017 25.5528 5.95186 26.0133 5.65625C26 5.9232 26.1868 5.87523 26.2848 5.84863C26.7695 5.71718 27.682 5.47101 29.0221 5.10938L29.1403 5.19629ZM26.3024 5.91016C26.2082 5.9357 26.1508 5.94288 26.0876 5.92285C26.0181 5.90086 25.9731 5.84825 25.9557 5.7666C25.537 6.016 24.8824 6.29639 24.5231 6.39648C24.4507 6.41653 24.391 6.39213 24.3551 6.33398C24.3335 6.29879 24.3229 6.26245 24.3092 6.19043C24.1464 6.3547 23.8813 6.57686 23.777 6.60742C22.8327 6.88067 22.2011 7.08096 21.8854 7.20605C21.6036 7.47941 21.4655 7.72029 21.4655 7.92578C21.4655 8.13577 21.4467 8.28268 21.3971 8.39648C21.3328 8.54389 21.2158 8.62402 21.0436 8.62402C20.9128 8.62402 20.6721 8.76835 20.4967 8.95801C20.3045 9.16595 20.2393 9.36817 20.3346 9.49609C20.4354 9.63122 20.665 9.68842 20.9333 9.66309C21.0472 9.65232 21.1566 9.62612 21.237 9.59277C21.3021 9.56571 21.3356 9.53797 21.3356 9.5332C21.3357 9.41846 21.4905 9.31238 21.6862 9.25C21.7727 9.22245 21.8557 9.20916 21.9206 9.21387C22.0115 9.22047 22.0757 9.26508 22.0758 9.34863C22.0758 9.46487 22.0343 9.61631 21.9508 9.80371H22.7858L22.2731 10.0684H22.7506L22.2379 10.3828H23.2702L22.6569 10.6562H22.9088L22.6491 11.0166H23.2165L23.235 11.0352C23.4037 11.2057 23.5671 11.3374 23.7243 11.4297C23.8655 11.5125 24.0678 11.8668 24.2028 12.2568C24.3601 12.7114 24.3965 13.1136 24.2624 13.3477C24.1562 13.5327 24.1457 13.6541 24.1862 13.6904C24.2066 13.7086 24.2492 13.6906 24.2663 13.6328C24.3568 13.3258 24.4852 13.083 24.6247 13.083H24.986L25.1442 13.5L25.3893 13.7617C25.392 13.7432 25.3949 13.7249 25.3981 13.707C25.419 13.5908 25.4433 13.5174 25.4889 13.4834L25.5348 13.4707C25.673 13.4848 25.7821 13.4868 25.861 13.4775C25.8262 13.194 25.8109 13.0362 25.8141 12.9902L25.82 12.9072L25.9001 12.9346C26.0932 13.0001 26.247 13.0421 26.36 13.0605C26.2171 12.8258 26.1463 12.6635 26.1461 12.5645V12.4971L26.2135 12.5C26.3926 12.5091 26.532 12.5365 26.6276 12.584L26.5905 12.2285L26.6344 12.21C26.8657 12.1116 27.0083 12.0203 27.0641 11.9463L26.7213 11.9043L26.7907 11.8164C26.8418 11.7515 26.8789 11.6993 26.902 11.6611L26.2487 11.5781L26.5045 11.4893C26.6702 11.4316 26.7971 11.3791 26.8844 11.333C26.9376 11.3049 26.9745 11.2801 26.9938 11.2617C26.9307 11.1678 26.8707 11.1026 26.817 11.0664L26.2809 10.7188L26.4997 10.7197C27.0056 10.723 27.3095 10.7255 27.4108 10.7256C27.4913 10.6961 27.4916 10.6873 27.4323 10.6396C27.3101 10.5653 27.2505 10.4826 27.2721 10.3896C27.3115 10.3098 27.3349 10.2579 27.3473 10.2217C27.3526 10.2062 27.3553 10.1941 27.3561 10.1865C27.3565 10.1887 27.4499 10.1406 27.4499 10.1406C27.4593 10.107 27.4655 10.0398 27.4655 9.94434C27.4664 9.82388 27.4614 9.73237 27.4508 9.67188C27.4461 9.64507 27.4399 9.62571 27.4342 9.61426C27.43 9.61318 27.3141 9.58398 27.3141 9.58398L27.4225 9.50391C27.5355 9.42079 27.5604 9.37177 27.5377 9.34473C27.4724 9.26793 26.6212 9.01101 26.4206 9.01074H26.2008L27.9694 7.88867C28.0439 7.614 28.1354 7.39231 28.2448 7.22363C28.5319 6.9629 28.6962 6.74403 28.7497 6.55762C28.8069 6.35791 28.9159 6.01344 29.0758 5.52441V5.22754L29.0085 5.17871C27.6854 5.53575 26.7834 5.77969 26.3024 5.91016Z" fill="#212121"/>
<path fill-rule="evenodd" clip-rule="evenodd" d="M27.4067 10.7907C27.4067 10.7907 29.3153 11.0447 29.4307 11.0447C29.5462 11.0447 30.0266 10.9225 29.8621 10.1538C29.6975 9.38497 29.7645 8.91992 29.2936 8.91992C28.8226 8.91992 28.3315 9.12452 28.1548 9.12452C27.9781 9.12452 28.149 9.12452 27.4067 9.12452C26.6645 9.12452 22.2428 9.09899 21.9244 9.45363C21.606 9.80827 20.7106 10.3085 20.2958 10.4849C19.881 10.6614 19.7746 10.5381 19.5882 11.0447C19.4017 11.5514 19.263 11.5866 19.263 11.5866L19.5882 11.9493H20.5547C20.5547 11.9493 21.2202 11.1143 22.6017 11.0447C23.9833 10.9751 27.4067 10.7907 27.4067 10.7907Z" fill="white"/>
<path d="M29.2932 8.91992C29.7641 8.91992 29.6972 9.38484 29.8616 10.1533C30.026 10.9216 29.5468 11.0448 29.4309 11.0449C29.354 11.0449 28.6789 10.9604 27.4065 10.791C25.1244 10.914 23.5229 10.9985 22.6018 11.0449C21.6809 11.0913 20.9986 11.3927 20.555 11.9492H19.5882L19.263 11.5869C19.3554 11.5634 19.4639 11.3826 19.5882 11.0449C19.7746 10.5383 19.8814 10.6618 20.2962 10.4854C20.7109 10.3089 21.6054 9.80867 21.9241 9.4541C22.2425 9.09949 26.6636 9.12499 27.4065 9.125H28.1546C28.3312 9.125 28.8224 8.92001 29.2932 8.91992ZM29.2132 9.01758C29.0414 9.02601 28.8642 9.05843 28.638 9.11523C28.5921 9.12674 28.4075 9.17503 28.3645 9.18555C28.2685 9.20908 28.2053 9.21973 28.1546 9.21973H27.2249C26.2789 9.21843 25.526 9.22428 24.7122 9.24609C23.9818 9.26568 23.3663 9.29592 22.8987 9.33984C22.3817 9.38843 22.0519 9.45663 21.9973 9.5166C21.71 9.83668 20.8799 10.3401 20.3343 10.5723C20.2713 10.5991 20.2119 10.6211 20.1477 10.6416C20.1137 10.6525 20.0163 10.6817 20.0071 10.6846C19.8844 10.7228 19.8385 10.7539 19.7805 10.8516C19.7487 10.9052 19.7155 10.9781 19.679 11.0771C19.5835 11.3366 19.4979 11.5105 19.4075 11.6035L19.6321 11.8535H20.5081C20.9709 11.2969 21.6698 10.9959 22.597 10.9492C23.5179 10.9028 25.1196 10.8183 27.4016 10.6953C28.6748 10.8631 29.3612 10.9492 29.4309 10.9492C29.4984 10.9491 29.6048 10.9066 29.679 10.8242C29.793 10.6974 29.8341 10.4881 29.7669 10.1738C29.7444 10.0687 29.7254 9.96421 29.7054 9.84375C29.6959 9.78716 29.6656 9.59968 29.6595 9.5625C29.5864 9.12245 29.5204 9.01562 29.2932 9.01562C29.2671 9.01563 29.2404 9.01624 29.2132 9.01758Z" fill="#4D4D4D"/>
<path fill-rule="evenodd" clip-rule="evenodd" d="M19.507 11.3984C19.507 11.3984 18.779 11.8653 19.0462 12.1791C19.3135 12.4928 19.3399 12.5326 19.3932 12.5326C19.3932 12.5326 19.4075 12.1967 19.4937 12.1967C19.5799 12.1967 20.2626 12.5229 20.5101 11.9715C20.7576 11.42 19.507 11.3984 19.507 11.3984Z" fill="#FFC221"/>
<path fill-rule="evenodd" clip-rule="evenodd" d="M17.9221 12.9197L19.5976 12.6094L20.2403 13.3051L20.4257 12.6825L20.8864 12.7955V13.1099H21.0564V13.5412L22.2612 13.793L22.4124 13.3798C22.4124 13.3798 22.8047 14.0273 23.4074 13.995C24.01 13.9628 24.1175 14.1335 24.2235 13.6551C24.3295 13.1767 24.625 12.9197 24.625 12.9197L25.3282 13.1566C25.3282 13.1566 24.5556 14.1055 24.925 14.4037L27.6788 15.0408L27.5699 15.3744H27.2539L27.3392 15.6617L24.3298 15.4538C24.3298 15.4538 23.9945 15.8787 23.9945 15.7702C23.9945 15.6617 23.9763 15.6617 23.8281 15.6617C23.68 15.6617 23.6031 15.4538 23.6031 15.4538L23.4074 15.5291C23.4074 15.5291 23.4369 15.5332 23.1908 15.4538C22.9446 15.3744 22.8004 15.3744 22.8004 15.3744L21.784 15.2994V15.4538C21.784 15.4538 21.5148 15.4673 21.6082 15.5291C21.7017 15.591 23.6031 15.6617 23.6031 15.6617L23.4872 15.8753C23.4872 15.8753 24.4273 15.8787 24.625 15.7702C24.8226 15.6617 24.6955 16.0106 24.6955 16.0106H25.6293C25.6293 16.0106 25.3977 16.2298 25.1008 16.2298C24.804 16.2298 25.953 16.5942 25.953 16.5942C25.953 16.5942 25.3116 16.7933 25.0145 16.6617C24.7175 16.5301 25.1406 16.9161 25.3282 17.0137C25.5158 17.1112 24.6683 17.1025 24.3298 16.7262C24.3298 16.7262 24.4362 17.005 24.3298 17.0847C24.3298 17.0847 23.7369 16.3861 23.4407 16.3861C23.1446 16.3861 23.4872 16.8467 23.4872 16.8467C23.4872 16.8467 23.3181 16.6059 23.1292 16.7037C22.9403 16.8015 22.8004 16.9122 22.8004 16.9122C22.8004 16.9122 22.6766 16.4855 22.0223 16.3091C21.3679 16.1327 21.5875 16.0678 21.0564 16.0106C20.5254 15.9534 20.4986 15.6617 20.4257 15.6617C20.3528 15.6617 19.7911 15.1702 19.7911 15.1702C19.7911 15.1702 19.6662 14.7092 19.959 14.7092C20.2518 14.7092 20.7163 14.5714 20.8864 14.7092C21.0564 14.847 21.1283 14.7092 21.1283 14.7092H21.4276L21.8564 15.0408H22.7072C22.7072 15.0408 22.8703 14.7889 23.1292 14.7092C23.3881 14.6295 23.1292 14.4037 23.1292 14.4037C23.1292 14.4037 22.5114 14.4389 22.2612 14.5346C22.0111 14.6303 22.1714 14.0714 22.1714 14.0714L21.0564 13.8689L20.8864 14.0714L20.5173 14.1824V14.4037L20.1283 14.3181L20.2403 13.6551L19.3299 14.0714L17.9221 12.9197Z" fill="#FFC221"/>
<path d="M20.1897 13.25L20.178 13.2871L20.2161 13.2783L20.2405 13.3047L20.2502 13.2705L20.2883 13.2627L20.262 13.2334L20.426 12.6826L20.886 12.7959V13.1104H21.0569V13.541L22.261 13.793L22.4123 13.3799C22.6739 13.8115 23.0057 14.0166 23.4075 13.9951C24.01 13.9629 24.1179 14.1335 24.2239 13.6553C24.2945 13.3363 24.4282 13.0912 24.6252 12.9199L25.3284 13.1562C24.8134 13.7887 24.679 14.2045 24.925 14.4033L27.6789 15.041L27.5696 15.374H27.3215L27.3157 15.3564L27.302 15.374H27.2541L27.2678 15.4199L27.2541 15.4385L27.3391 15.6621L24.3303 15.4541C24.1071 15.7369 23.9947 15.8422 23.9944 15.7705C23.9944 15.6621 23.9763 15.6621 23.8284 15.6621C23.7811 15.6621 23.7388 15.646 23.7024 15.6143L23.6887 15.6016C23.6551 15.5672 23.6264 15.5178 23.6028 15.4541L23.5442 15.4766C23.5392 15.4775 23.4101 15.5283 23.4075 15.5293C23.4116 15.5289 23.4163 15.4658 23.4163 15.4658C23.3933 15.4659 23.3937 15.4668 23.3645 15.4854C23.3572 15.4953 23.3522 15.5003 23.3498 15.5059C23.3133 15.4934 23.2601 15.4765 23.1907 15.4541C23.0266 15.4012 22.8962 15.374 22.8 15.374L21.8489 15.3037L21.7844 15.2998V15.4541C21.7844 15.4541 21.5151 15.4674 21.6086 15.5293C21.6141 15.5328 21.6238 15.5365 21.6379 15.54C21.7922 15.5783 22.447 15.6192 23.6028 15.6621L23.5217 15.8115C23.5104 15.8115 23.499 15.8116 23.4875 15.8115L23.5051 15.8418L23.4875 15.875C23.5005 15.875 23.5138 15.875 23.5266 15.875L23.5442 15.9053L23.5608 15.875C24.1437 15.8743 24.4987 15.84 24.6252 15.7705C24.7441 15.7053 24.7745 15.7642 24.717 15.9473L24.7102 15.9678C24.7057 15.9814 24.701 15.9959 24.6955 16.0107H24.7414L24.7561 16.0322C24.7587 16.025 24.7615 16.0177 24.7639 16.0107H25.5325C25.5028 16.0484 25.4719 16.0815 25.4407 16.1104H25.5012C25.3848 16.1857 25.2582 16.2261 25.1204 16.2295C25.1054 16.2212 25.099 16.2178 25.095 16.2148C25.0983 16.2204 25.1012 16.2246 25.1028 16.2295C25.0242 16.2295 25.0196 16.2485 25.0881 16.2852C25.2243 16.3529 25.5075 16.4523 25.9534 16.5938C25.526 16.7264 25.2129 16.7496 25.0149 16.6621C25.0036 16.6571 24.9929 16.652 24.9836 16.6484C24.8978 16.6172 24.8986 16.6449 24.9397 16.6963C25.0213 16.7946 25.2165 16.9555 25.3284 17.0137C25.4993 17.1028 24.8056 17.1028 24.427 16.8145C24.4178 16.7799 24.4057 16.7431 24.3909 16.7041L24.3381 16.7354C24.3315 16.7303 24.2815 16.7686 24.2815 16.7686C24.3078 16.7978 24.3373 16.8257 24.3694 16.8516C24.3964 16.9668 24.3836 17.0449 24.3303 17.085C23.935 16.6192 23.6381 16.3857 23.4407 16.3857C23.1762 16.3858 23.4214 16.7536 23.4768 16.832C23.3671 16.6833 23.2512 16.6409 23.1291 16.7041C22.9403 16.8019 22.8 16.9121 22.8 16.9121C22.7175 16.6279 22.4585 16.4272 22.0227 16.3096C21.3685 16.1332 21.5873 16.068 21.0569 16.0107C20.5267 15.9536 20.4987 15.663 20.426 15.6621C20.3774 15.6621 20.1657 15.4976 19.7913 15.1699C19.7081 14.8627 19.764 14.709 19.9592 14.709C20.2519 14.7089 20.7157 14.5717 20.886 14.709C20.9994 14.8009 21.0802 14.8009 21.1282 14.709H21.428L21.8567 15.041H22.7073C22.816 14.8731 22.9565 14.7621 23.1291 14.709C23.3017 14.6558 23.3017 14.5539 23.1291 14.4033C22.7173 14.4268 22.4278 14.4704 22.261 14.5342C22.1038 14.5943 22.0685 14.4606 22.1545 14.1328C22.1607 14.1095 22.1656 14.0906 22.1711 14.0713L22.1135 14.0605C22.1035 14.0548 21.0821 13.8736 21.0569 13.8691L20.886 14.0713L20.5168 14.1826V14.4033L20.1282 14.3184L20.2278 13.7314L20.2678 13.7129L20.2346 13.6885L20.2405 13.6553L20.2092 13.6689L20.176 13.6445L20.1692 13.6875L19.3303 14.0713L17.9221 12.9199L19.5979 12.6094L20.1897 13.25ZM18.0696 12.957L19.3401 13.9971L20.3245 13.5469L20.2024 14.2695L20.4524 14.3242V14.1357L20.8489 14.0156L21.0305 13.7998L22.2532 14.0215L22.2336 14.0889C22.1828 14.2661 22.1644 14.3904 22.177 14.4551C22.1839 14.4907 22.1904 14.4936 22.2375 14.4756C22.4122 14.4088 22.7072 14.3637 23.1252 14.3398L23.1721 14.3564C23.3774 14.5356 23.3775 14.6989 23.1487 14.7695C22.9911 14.8181 22.8627 14.9196 22.762 15.0752L22.7424 15.1045H21.8342L21.4055 14.7725H21.1643C21.091 14.8715 20.973 14.8625 20.845 14.7588C20.7747 14.7019 20.6329 14.6996 20.3372 14.7373C20.3265 14.7387 20.316 14.7401 20.3 14.7422C20.1161 14.766 20.0441 14.7724 19.9592 14.7725C19.8223 14.7725 19.7816 14.8763 19.8489 15.1357C20.0281 15.2923 20.169 15.4105 20.2707 15.4893C20.322 15.5289 20.3634 15.558 20.3938 15.5771C20.4078 15.586 20.4188 15.5929 20.427 15.5967C20.4485 15.5996 20.4645 15.605 20.4788 15.6143C20.4987 15.6273 20.5935 15.7528 20.6409 15.793C20.7345 15.8721 20.8677 15.9261 21.0637 15.9473C21.2892 15.9716 21.3917 15.9969 21.5002 16.0479C21.5168 16.0556 21.571 16.0824 21.5784 16.0859C21.6119 16.1022 21.6425 16.1157 21.677 16.1299C21.7686 16.1675 21.8831 16.2059 22.0393 16.248C22.4522 16.3594 22.719 16.5459 22.8323 16.8096C22.9005 16.7621 22.9679 16.7195 23.0393 16.6797C23.0589 16.6687 23.0791 16.6577 23.0989 16.6475C23.1615 16.615 23.2238 16.6044 23.2834 16.6152C23.2589 16.5502 23.2492 16.4934 23.26 16.4443C23.2774 16.366 23.343 16.3223 23.4407 16.3223C23.6535 16.3223 23.9404 16.5399 24.3176 16.9727C24.3219 16.9238 24.3081 16.8496 24.2698 16.749L24.1457 16.4258L24.3782 16.6836C24.515 16.8357 24.7644 16.9407 25.0364 16.9844C25.0908 16.9931 25.1435 16.9987 25.1887 17.001C25.1053 16.9421 25.0116 16.864 24.9436 16.7959C24.8816 16.7338 24.8488 16.6916 24.8469 16.6504C24.8445 16.593 24.8923 16.5656 24.9426 16.5713C24.9679 16.5742 24.9997 16.5851 25.0413 16.6035C25.1905 16.6696 25.4214 16.6661 25.7317 16.5898C25.4547 16.4996 25.2576 16.4293 25.1399 16.3789C25.056 16.343 25.0101 16.3182 24.9895 16.2891C24.9591 16.2461 24.979 16.195 25.0256 16.1768C25.0449 16.1692 25.0685 16.166 25.1008 16.166C25.2231 16.166 25.3363 16.1357 25.4407 16.0742H24.6038L24.635 15.9893C24.6552 15.9339 24.6681 15.888 24.675 15.8525C24.678 15.8372 24.6804 15.8245 24.6809 15.8145C24.6743 15.8173 24.6657 15.8211 24.6565 15.8262C24.5106 15.9061 24.1261 15.9418 23.4866 15.9395L23.3791 15.9385L23.4973 15.7217C22.2515 15.6744 21.6508 15.633 21.5725 15.582C21.5103 15.5408 21.5068 15.4697 21.5696 15.4326C21.595 15.4177 21.6299 15.4085 21.676 15.4014C21.6899 15.3992 21.7044 15.3971 21.719 15.3955V15.2305L22.803 15.3105C22.9068 15.311 23.0425 15.3392 23.2112 15.3936C23.2935 15.4201 23.3532 15.4394 23.3899 15.4521C23.402 15.4531 23.6293 15.3751 23.6409 15.3711L23.6643 15.4316C23.7072 15.5476 23.7612 15.5977 23.8284 15.5977C23.9708 15.5977 24.0297 15.6128 24.05 15.6836C24.103 15.6305 24.1796 15.5405 24.2786 15.415L24.3 15.3877L27.2512 15.5918L27.1672 15.3105H27.5227L27.5959 15.0869L24.8957 14.4619C24.6082 14.2297 24.7323 13.8066 25.2209 13.1875L24.6399 12.9922C24.4689 13.1526 24.3508 13.378 24.2864 13.6689C24.242 13.869 24.1954 13.9681 24.1086 14.0205C24.0347 14.065 23.9845 14.0678 23.758 14.0586C23.6216 14.053 23.528 14.0523 23.4104 14.0586C23.0196 14.0793 22.691 13.8987 22.4289 13.5234L22.303 13.8672L20.9914 13.5928V13.1738H20.8215V12.8457L20.47 12.7588L20.2698 13.4316L19.5745 12.6787L18.0696 12.957ZM25.6106 16.0381C25.5924 16.0637 25.5737 16.0878 25.5549 16.1104H25.5012C25.5381 16.0865 25.573 16.0584 25.6077 16.0273L25.6106 16.0381ZM25.6077 16.0273L25.6028 16.0107H25.6291C25.6225 16.017 25.6143 16.0214 25.6077 16.0273Z" fill="#4D4D4D"/>
</g>
<defs>
<clipPath id="clip0_299_35403">
<rect width="32" height="24" fill="white"/>
</clipPath>
</defs>
</svg>
