<svg width="32" height="24" viewBox="0 0 32 24" fill="none" xmlns="http://www.w3.org/2000/svg">
<g clip-path="url(#clip0_299_35413)">
<rect width="32" height="24" fill="white"/>
<path fill-rule="evenodd" clip-rule="evenodd" d="M0 0V24H32V0H0Z" fill="#AF0100"/>
<mask id="mask0_299_35413" style="mask-type:luminance" maskUnits="userSpaceOnUse" x="0" y="0" width="32" height="24">
<path fill-rule="evenodd" clip-rule="evenodd" d="M0 0V24H32V0H0Z" fill="white"/>
</mask>
<g mask="url(#mask0_299_35413)">
<path fill-rule="evenodd" clip-rule="evenodd" d="M0 0V8H32V0H0Z" fill="#3CA5D9"/>
<path fill-rule="evenodd" clip-rule="evenodd" d="M0 16V24H32V16H0Z" fill="#73BE4A"/>
<path fill-rule="evenodd" clip-rule="evenodd" d="M16.997 7.79298C18.1629 7.79001 19.5838 8.42713 19.9921 9.33497C19.9807 9.33027 18.4505 8.70007 16.9745 9.03321C15.4932 9.3677 14.638 10.5455 14.6249 12C14.6109 13.5539 15.7936 14.7138 17.1405 15.0244C18.4821 15.3334 19.9185 14.4803 19.9296 14.4736C19.756 14.9557 18.9194 16.0891 17.1581 16.0938C14.9611 16.0995 12.4646 14.6084 12.4882 11.9854C12.5111 9.4554 14.8268 7.79867 16.997 7.79298ZM19.664 11.1553L21.0956 11.1846L19.954 12.0498L20.3691 13.4209L19.1933 12.6025L18.0175 13.4209L18.4325 12.0498L17.2909 11.1846L18.7236 11.1553L19.1933 9.80274L19.664 11.1553Z" fill="#F7FCFF"/>
</g>
</g>
<defs>
<clipPath id="clip0_299_35413">
<rect width="32" height="24" fill="white"/>
</clipPath>
</defs>
</svg>
