<svg width="32" height="24" viewBox="0 0 32 24" fill="none" xmlns="http://www.w3.org/2000/svg">
<g clip-path="url(#clip0_299_35415)">
<rect width="32" height="24" fill="white"/>
<path fill-rule="evenodd" clip-rule="evenodd" d="M0 0H32V24H0V0Z" fill="#2E42A5"/>
<path fill-rule="evenodd" clip-rule="evenodd" d="M9 0H29V24L9 0Z" fill="#FECA00"/>
<path fill-rule="evenodd" clip-rule="evenodd" d="M6.10805 2.79297L4.93248 3.411L5.15699 2.10199L4.20593 1.17493L5.52026 0.983952L6.10805 -0.207031L6.69583 0.983952L8.01016 1.17493L7.0591 2.10199L7.28362 3.411L6.10805 2.79297Z" fill="#F7FCFF"/>
<path fill-rule="evenodd" clip-rule="evenodd" d="M9.59474 7.07227L8.41917 7.6903L8.64368 6.38128L7.69263 5.45423L9.00695 5.26325L9.59474 4.07227L10.1825 5.26325L11.4969 5.45423L10.5458 6.38128L10.7703 7.6903L9.59474 7.07227Z" fill="#F7FCFF"/>
<path fill-rule="evenodd" clip-rule="evenodd" d="M12.8634 11.2383L11.6878 11.8563L11.9124 10.5473L10.9613 9.62025L12.2756 9.42926L12.8634 8.23828L13.4512 9.42926L14.7655 9.62025L13.8145 10.5473L14.039 11.8563L12.8634 11.2383Z" fill="#F7FCFF"/>
<path fill-rule="evenodd" clip-rule="evenodd" d="M16.0654 15.2285L14.8898 15.8465L15.1143 14.5375L14.1633 13.6105L15.4776 13.4195L16.0654 12.2285L16.6532 13.4195L17.9675 13.6105L17.0164 14.5375L17.241 15.8465L16.0654 15.2285Z" fill="#F7FCFF"/>
<path fill-rule="evenodd" clip-rule="evenodd" d="M19.5144 19.3359L18.3389 19.954L18.5634 18.645L17.6123 17.7179L18.9267 17.5269L19.5144 16.3359L20.1022 17.5269L21.4166 17.7179L20.4655 18.645L20.69 19.954L19.5144 19.3359Z" fill="#F7FCFF"/>
<path fill-rule="evenodd" clip-rule="evenodd" d="M23.3269 23.3105L22.1513 23.9286L22.3758 22.6196L21.4247 21.6925L22.7391 21.5015L23.3269 20.3105L23.9146 21.5015L25.229 21.6925L24.2779 22.6196L24.5024 23.9286L23.3269 23.3105Z" fill="#F7FCFF"/>
</g>
<defs>
<clipPath id="clip0_299_35415">
<rect width="32" height="24" fill="white"/>
</clipPath>
</defs>
</svg>
