<svg width="32" height="24" viewBox="0 0 32 24" fill="none" xmlns="http://www.w3.org/2000/svg">
<g clip-path="url(#clip0_299_35417)">
<rect width="32" height="24" fill="white"/>
<path fill-rule="evenodd" clip-rule="evenodd" d="M22 0H32V24H22V0Z" fill="#2E42A5"/>
<path fill-rule="evenodd" clip-rule="evenodd" d="M10 0H22V24H10V0Z" fill="#FECA00"/>
<path fill-rule="evenodd" clip-rule="evenodd" d="M0 0H10V24H0V0Z" fill="#2E42A5"/>
<path fill-rule="evenodd" clip-rule="evenodd" d="M18.612 15.6673C18.8 14.3778 20.1328 11.5749 20.1328 11.5749L20.7509 9.93031L18.3012 10.7252L18.8809 11.0269L17.7464 14.2253L16.8895 14.0208V7.85208L17.5674 7.80258L15.8953 5.37109L14.2628 7.85208H15.0505V14.0208L14.0852 14.1822L13.3967 10.9474L13.7942 10.6143L11.1289 10.1229L11.9246 11.5912C11.9246 11.5912 12.9956 14.1078 13.3967 15.6673L15.0505 15.5399V17.937H16.8895V15.5399L18.612 15.6673Z" fill="black"/>
</g>
<defs>
<clipPath id="clip0_299_35417">
<rect width="32" height="24" fill="white"/>
</clipPath>
</defs>
</svg>
