<svg width="32" height="24" viewBox="0 0 32 24" fill="none" xmlns="http://www.w3.org/2000/svg">
<g clip-path="url(#clip0_299_35479)">
<rect width="32" height="24" fill="white"/>
<path fill-rule="evenodd" clip-rule="evenodd" d="M0 0V24H32V0H0Z" fill="#AF0100"/>
<mask id="mask0_299_35479" style="mask-type:luminance" maskUnits="userSpaceOnUse" x="0" y="0" width="32" height="24">
<path fill-rule="evenodd" clip-rule="evenodd" d="M0 0V24H32V0H0Z" fill="white"/>
</mask>
<g mask="url(#mask0_299_35479)">
<path fill-rule="evenodd" clip-rule="evenodd" d="M21.0298 11.043L29.9185 11.043V20.0328C29.9185 20.0328 29.6426 21.2705 27.9315 22.0876C26.2205 22.9048 25.4742 22.9048 25.4742 22.9048C25.4742 22.9048 22.7487 22.2352 22.1852 21.608C21.6217 20.9809 21.0298 20.749 21.0298 19.6527C21.0298 18.5565 21.0298 11.043 21.0298 11.043Z" fill="white"/>
<mask id="mask1_299_35479" style="mask-type:luminance" maskUnits="userSpaceOnUse" x="21" y="11" width="9" height="12">
<path fill-rule="evenodd" clip-rule="evenodd" d="M21.0298 11.043L29.9185 11.043V20.0328C29.9185 20.0328 29.6426 21.2705 27.9315 22.0876C26.2205 22.9048 25.4742 22.9048 25.4742 22.9048C25.4742 22.9048 22.7487 22.2352 22.1852 21.608C21.6217 20.9809 21.0298 20.749 21.0298 19.6527C21.0298 18.5565 21.0298 11.043 21.0298 11.043Z" fill="white"/>
</mask>
<g mask="url(#mask1_299_35479)">
<path fill-rule="evenodd" clip-rule="evenodd" d="M25.502 11.624C25.5341 11.6546 25.5732 11.6787 25.6201 11.6787L25.8174 11.5615C25.8174 11.5615 25.7716 11.8196 25.8311 11.8125C25.8311 11.8125 26.0151 11.6913 26.0879 11.7568C26.0862 11.7588 25.8751 12.001 26.1309 12.0029C26.1309 12.0029 26.4548 11.9513 26.4268 12.1016C26.4211 12.112 26.1858 12.5469 26.2861 12.5752L26.6865 12.5635C26.6773 12.5716 26.4195 12.7978 26.4258 12.8945L26.5596 13C26.5612 12.9961 26.6348 12.8175 26.6973 12.9668C26.6976 12.978 26.7046 13.2383 26.6641 13.2402L26.3076 13.3545C26.3076 13.3545 26.2848 13.4883 26.4121 13.4883C26.4238 13.4834 26.7062 13.3668 26.7148 13.4902C26.7148 13.4902 26.6763 13.6371 26.6592 13.7607C26.6589 13.7666 26.6405 14.2096 26.6377 14.248C26.6411 14.2472 26.6747 14.2477 26.8848 14.4951C26.8909 14.499 27.45 14.8516 27.5537 14.7705C27.6573 14.6883 27.6309 14.2939 28.0625 14.4277C28.4944 14.5618 28.6001 14.5943 28.4912 14.7705C28.3831 14.9454 27.9749 15.3599 27.9688 15.3662L27.6104 16.8047H28.3779C28.6095 16.8047 28.8224 16.894 28.8633 17.0859C28.9041 17.278 28.915 17.6518 28.915 17.6963C28.9148 17.7413 28.8625 17.9062 29.0742 17.9062C29.0817 17.9072 29.4405 17.954 29.3652 17.9805C29.3605 17.9796 29.1054 17.9323 29.1035 18.1592C29.1035 18.1592 29.0034 18.1888 29.0518 18.4717C29.0547 18.4808 29.2521 19.0907 29.1191 18.9639C29.1166 18.9609 28.8447 18.6405 28.8447 18.5039C28.8383 18.5065 28.6494 18.5847 28.6553 18.7832C28.6553 18.7832 28.47 19.0313 28.4756 18.7891C28.4756 18.7891 28.7896 18.1934 28.6143 18.3281C28.611 18.3353 28.3861 18.8192 28.3565 18.7451L27.5127 18.5176L27.1914 19.9316C27.1914 19.9316 27.2768 20.1973 27.5127 20.1973C27.7484 20.1971 27.9112 19.9437 28.0625 20.1973C28.1759 20.3874 28.2422 20.4491 28.2998 20.4678L28.3848 20.4795C28.4512 20.5001 28.5139 20.5912 28.4756 20.7217C28.4318 20.8707 28.2344 20.9824 28.1484 20.9824C28.0632 20.9829 28.2718 21.1816 28.0186 21.1816C27.7652 21.1816 27.7646 21.1211 27.5127 21.1211C27.2605 21.1211 27.0244 21.1447 27.0244 20.9824C27.0243 20.8202 26.7967 20.6793 26.6377 20.5576C26.4786 20.4358 26.1309 19.0596 26.1309 19.0596L25.4746 14.9268L25.4551 13.9678L25.4356 14.9268L24.7793 19.0596C24.7793 19.0596 24.4325 20.4354 24.2734 20.5576C24.1144 20.6794 23.8869 20.8202 23.8867 20.9824C23.8867 21.1447 23.6506 21.1211 23.3984 21.1211C23.1464 21.1211 23.1457 21.1816 22.8926 21.1816C22.639 21.1816 22.8477 20.9824 22.7617 20.9824C22.6755 20.9821 22.4793 20.8704 22.4356 20.7217C22.3918 20.5727 22.4797 20.4756 22.5547 20.4756C22.6295 20.4755 22.6965 20.4508 22.8477 20.1973C22.9991 19.9433 23.1626 20.1973 23.3984 20.1973C23.6343 20.1972 23.7197 19.9316 23.7197 19.9316L23.3984 18.5176L22.5547 18.7451C22.5252 18.8189 22.3019 18.3389 22.2969 18.3281C22.1213 18.1931 22.4356 18.7891 22.4356 18.7891C22.4411 19.0313 22.2559 18.7832 22.2559 18.7832C22.2619 18.5813 22.0654 18.5039 22.0654 18.5039C22.0654 18.6412 21.791 18.9639 21.791 18.9639C21.6581 19.0899 21.858 18.4759 21.8594 18.4717C21.9078 18.1888 21.8076 18.1592 21.8076 18.1592C21.8058 17.9349 21.5563 17.9786 21.5459 17.9805C21.4698 17.9537 21.8369 17.9062 21.8369 17.9062C22.0484 17.9062 21.9964 17.7413 21.9961 17.6963C21.9961 17.6518 22.007 17.278 22.0479 17.0859C22.0888 16.894 22.3016 16.8047 22.5332 16.8047H23.3008L22.9424 15.3662C22.9424 15.3662 22.529 14.9468 22.4199 14.7705C22.3111 14.5944 22.4161 14.5616 22.8477 14.4277C23.2795 14.2937 23.2538 14.6882 23.3574 14.7705C23.4621 14.8515 24.0264 14.4951 24.0264 14.4951C24.2458 14.2367 24.2724 14.2475 24.2734 14.248C24.2707 14.2096 24.2522 13.7672 24.252 13.7607C24.2349 13.6371 24.1963 13.4902 24.1963 13.4902C24.2051 13.3658 24.4917 13.4852 24.499 13.4883C24.6263 13.4883 24.6035 13.3545 24.6035 13.3545L24.2471 13.2402C24.2062 13.2395 24.2136 12.9779 24.2139 12.9668C24.277 12.8158 24.3516 13 24.3516 13L24.4854 12.8945C24.4917 12.796 24.2236 12.5635 24.2236 12.5635L24.625 12.5752C24.7244 12.5463 24.4915 12.1147 24.4844 12.1016C24.4569 11.9539 24.7684 12.0012 24.7793 12.0029C25.0332 12.0013 24.8291 11.7636 24.8232 11.7568C24.8961 11.6913 25.0801 11.8125 25.0801 11.8125C25.1391 11.8188 25.0938 11.5615 25.0938 11.5615L25.291 11.6787C25.3372 11.6787 25.3753 11.6549 25.4072 11.625L25.4043 11.4766C25.4043 11.4766 25.4228 11.5201 25.4551 11.5674C25.4864 11.5216 25.5048 11.4794 25.5059 11.4766L25.502 11.624Z" fill="#CF142B"/>
<path d="M27.9442 19.9482C27.948 19.9431 28.1582 19.6562 28.203 19.7305C28.2465 19.8029 28.2736 20.1334 28.3055 20.1279C28.4033 20.1036 28.4325 19.5791 28.4325 19.5791C28.4325 19.5791 28.5303 20.219 28.5721 20.1279C28.6134 20.0374 28.6155 19.5892 28.6522 19.5791C28.7618 19.5493 28.8701 19.9916 28.8719 19.999C28.8719 19.999 28.8795 19.3916 28.951 19.4619C29.0225 19.5322 29.0194 19.999 29.0194 19.999C29.0226 20.0046 29.0903 20.1211 29.1122 20.0605C29.1492 19.9579 29.1611 19.6039 29.1864 19.5791C29.2464 19.5209 29.3432 19.6739 29.3456 19.6777C29.3989 19.6681 29.3699 20.1127 29.4354 20.0605C29.5503 19.9685 29.7448 19.4334 29.6727 19.999L29.9998 19.6777V23.3203H20.8954V19.6777L21.2225 19.999C21.1503 19.433 21.3459 19.969 21.4608 20.0605C21.5259 20.1113 21.4963 19.6681 21.5497 19.6777C21.5497 19.6777 21.648 19.5204 21.7088 19.5791C21.7341 19.6039 21.747 19.958 21.784 20.0605C21.8065 20.1222 21.8768 19.999 21.8768 19.999C21.8768 19.999 21.8728 19.5325 21.9442 19.4619C22.0157 19.3916 22.0233 19.999 22.0233 19.999C22.0247 19.9932 22.1333 19.5496 22.243 19.5791C22.2797 19.5892 22.2818 20.0374 22.3231 20.1279C22.3648 20.2193 22.4627 19.5791 22.4627 19.5791C22.4627 19.5791 22.4919 20.1036 22.5897 20.1279C22.6216 20.1345 22.6486 19.8031 22.6922 19.7305C22.7369 19.6565 22.9456 19.9409 22.951 19.9482L23.1004 19.3438L23.5116 19.6777H27.3836L27.7957 19.3438L27.9442 19.9482Z" fill="#5DC852"/>
<path fill-rule="evenodd" clip-rule="evenodd" d="M25.8963 14.7365C25.9635 14.6121 27.0609 15.3683 27.6942 15.3683C28.0169 15.3682 28.1392 15.2634 28.1805 15.1574V15.5832C28.1805 15.7982 28.3142 16.1268 28.1805 16.1271C28.0464 16.1271 27.4461 16.5499 27.4461 17.0363C27.4466 17.5225 28.1805 17.922 28.1805 17.922C28.1755 17.9395 27.6918 19.6348 27.2684 19.8957C26.8428 20.1572 26.702 19.6344 26.702 19.8957C26.702 20.1572 26.3333 20.5264 25.8934 20.672C25.4534 20.8177 25.8934 20.911 25.8934 21.0685C25.8931 21.1944 25.5455 21.0149 25.407 20.9396C25.2687 21.0149 24.921 21.1945 24.9207 21.0685C24.9207 20.911 25.3605 20.8176 24.9207 20.672C24.4808 20.5264 24.1121 20.1572 24.1121 19.8957C24.1121 19.6344 23.9713 20.1572 23.5457 19.8957C23.1226 19.6353 22.6393 17.9422 22.6336 17.922C22.6336 17.922 23.3675 17.5225 23.368 17.0363C23.368 16.5499 22.7677 16.1271 22.6336 16.1271C22.4996 16.1271 22.6336 15.7983 22.6336 15.5832V15.1574C22.675 15.2634 22.7971 15.3683 23.1199 15.3683C23.7732 15.3683 24.9202 14.5636 24.9207 14.7511C24.9207 14.9112 25.0826 14.7989 25.3279 14.7619C25.335 14.7548 25.3427 14.7511 25.3504 14.7511C25.3697 14.7511 25.3885 14.7528 25.407 14.7541C25.4256 14.7528 25.4444 14.7511 25.4637 14.7511C25.4713 14.7511 25.4783 14.7551 25.4852 14.7619C25.695 14.7933 25.8435 14.8798 25.8826 14.8048L25.8963 14.7365ZM28.1805 14.9396C28.1831 14.9466 28.2214 15.0525 28.1805 15.1574V14.9396Z" fill="#4ABCE6"/>
<mask id="mask2_299_35479" style="mask-type:luminance" maskUnits="userSpaceOnUse" x="22" y="14" width="7" height="8">
<path fill-rule="evenodd" clip-rule="evenodd" d="M25.8963 14.7365C25.9635 14.6121 27.0609 15.3683 27.6942 15.3683C28.0169 15.3682 28.1392 15.2634 28.1805 15.1574V15.5832C28.1805 15.7982 28.3142 16.1268 28.1805 16.1271C28.0464 16.1271 27.4461 16.5499 27.4461 17.0363C27.4466 17.5225 28.1805 17.922 28.1805 17.922C28.1755 17.9395 27.6918 19.6348 27.2684 19.8957C26.8428 20.1572 26.702 19.6344 26.702 19.8957C26.702 20.1572 26.3333 20.5264 25.8934 20.672C25.4534 20.8177 25.8934 20.911 25.8934 21.0685C25.8931 21.1944 25.5455 21.0149 25.407 20.9396C25.2687 21.0149 24.921 21.1945 24.9207 21.0685C24.9207 20.911 25.3605 20.8176 24.9207 20.672C24.4808 20.5264 24.1121 20.1572 24.1121 19.8957C24.1121 19.6344 23.9713 20.1572 23.5457 19.8957C23.1226 19.6353 22.6393 17.9422 22.6336 17.922C22.6336 17.922 23.3675 17.5225 23.368 17.0363C23.368 16.5499 22.7677 16.1271 22.6336 16.1271C22.4996 16.1271 22.6336 15.7983 22.6336 15.5832V15.1574C22.675 15.2634 22.7971 15.3683 23.1199 15.3683C23.7732 15.3683 24.9202 14.5636 24.9207 14.7511C24.9207 14.9112 25.0826 14.7989 25.3279 14.7619C25.335 14.7548 25.3427 14.7511 25.3504 14.7511C25.3697 14.7511 25.3885 14.7528 25.407 14.7541C25.4256 14.7528 25.4444 14.7511 25.4637 14.7511C25.4713 14.7511 25.4783 14.7551 25.4852 14.7619C25.695 14.7933 25.8435 14.8798 25.8826 14.8048L25.8963 14.7365ZM28.1805 14.9396C28.1831 14.9466 28.2214 15.0525 28.1805 15.1574V14.9396Z" fill="white"/>
</mask>
<g mask="url(#mask2_299_35479)">
<path fill-rule="evenodd" clip-rule="evenodd" d="M22.4651 16.8911C22.4651 16.8911 24.6517 16.6582 25.9356 16.6582C27.2196 16.6582 26.5292 16.7372 27.0227 16.7926C27.5162 16.848 28.0116 16.8911 28.0116 16.8911V21.284H22.4651V16.8911Z" fill="white"/>
<path fill-rule="evenodd" clip-rule="evenodd" d="M22.9848 16.2716C22.9848 16.2716 22.8061 15.9215 23.5311 15.7963C24.256 15.671 24.4803 15.6183 24.755 15.945C25.0298 16.2716 25.5881 17.6781 25.1716 18.056C24.755 18.434 24.4648 18.8316 24.3 18.6933C24.1352 18.555 24.4877 18.056 23.6161 18.056C22.7446 18.056 22.4468 18.056 22.4468 18.056L22.9848 16.2716Z" fill="#FFDA3A"/>
<path fill-rule="evenodd" clip-rule="evenodd" d="M26.6573 16.6109L25.0944 17.0901C25.0944 17.0901 25.2361 18.1568 24.833 18.1568C24.4299 18.1568 24.2581 15.8477 24.2581 15.8477H24.0916L24.6227 18.3872L24.2581 18.6231L25.3744 19.1193L27.267 18.1568L26.6573 16.6109Z" fill="#B35A1F"/>
</g>
<path fill-rule="evenodd" clip-rule="evenodd" d="M25.8934 14.751C25.8939 14.5635 27.0409 15.3682 27.6942 15.3682C27.9523 15.3681 28.1145 15.3174 28.1805 15.2168V15.583C28.1805 15.7981 28.3142 16.1267 28.1805 16.127C28.0464 16.127 27.4461 16.5497 27.4461 17.0361C27.4463 17.3602 27.691 17.6556 28.1805 17.9219C27.8562 19.063 27.552 19.7209 27.2684 19.8955C27.0404 20.0356 26.8939 19.9508 26.8074 19.8818C26.7317 19.8206 26.702 19.7766 26.702 19.8955C26.702 19.905 26.702 19.915 26.701 19.9248C26.67 20.1892 26.3141 20.5326 25.8934 20.6719C25.4534 20.8175 25.8934 20.9109 25.8934 21.0684C25.8932 21.1675 25.731 21.1259 25.407 20.9434C25.083 21.1259 24.9209 21.1675 24.9207 21.0684C24.9207 20.9109 25.3605 20.8175 24.9207 20.6719C24.5001 20.5326 24.1445 20.1892 24.1141 19.9307C24.1125 19.915 24.1121 19.905 24.1121 19.8955C24.1121 19.7766 24.0823 19.8198 24.0106 19.8779C23.9202 19.9502 23.7741 20.0359 23.5457 19.8955C23.262 19.721 22.9579 19.0631 22.6336 17.9219C23.1231 17.6556 23.3677 17.3602 23.368 17.0361C23.368 16.5497 22.7677 16.127 22.6336 16.127C22.4996 16.1269 22.6336 15.7981 22.6336 15.583V15.2168C22.6996 15.3174 22.8617 15.3681 23.1199 15.3682C23.7732 15.3682 24.9202 14.5635 24.9207 14.751C24.9207 14.9102 25.0809 14.8003 25.324 14.7627C25.3324 14.7552 25.3413 14.751 25.3504 14.751C25.3696 14.751 25.3886 14.7517 25.407 14.7529C25.4256 14.7517 25.4445 14.751 25.4637 14.751C25.4728 14.751 25.4817 14.7552 25.4901 14.7627C25.7331 14.8003 25.8934 14.9101 25.8934 14.751ZM25.9813 14.8438C25.9549 14.9057 25.8985 14.9414 25.8231 14.9414C25.7925 14.9414 25.7605 14.9363 25.7176 14.9258C25.6965 14.9206 25.6176 14.8992 25.6072 14.8965C25.5573 14.8835 25.5161 14.8746 25.4744 14.8682L25.4442 14.8633C25.4306 14.8587 25.4221 14.8598 25.4139 14.8604C25.3922 14.8598 25.3839 14.8587 25.3758 14.8584L25.3397 14.8682C25.298 14.8746 25.2568 14.8835 25.2069 14.8965C25.1965 14.8992 25.1176 14.9206 25.0965 14.9258C25.0532 14.9364 25.0208 14.9414 24.9901 14.9414C24.9148 14.9413 24.8592 14.9056 24.8328 14.8438C24.8069 14.8527 24.7739 14.8654 24.7342 14.8828C24.6504 14.9196 24.2552 15.1125 24.1912 15.1426C24.0618 15.2035 23.9472 15.2549 23.8377 15.2988C23.5516 15.4136 23.3148 15.4756 23.1199 15.4756C22.9661 15.4756 22.8377 15.4556 22.7381 15.418V15.583C22.7381 15.6395 22.7307 15.7009 22.7166 15.7822C22.7137 15.7991 22.7112 15.8163 22.7069 15.8398C22.6864 15.9505 22.6795 15.9904 22.6785 16.0244C22.969 16.0771 23.4725 16.6016 23.4725 17.0361C23.4723 17.3897 23.2286 17.7016 22.7576 17.9746C23.0652 19.0372 23.3541 19.6526 23.5994 19.8037C23.7396 19.8899 23.831 19.8794 23.9266 19.8086C23.9267 19.8084 24.014 19.7351 24.0438 19.7227C24.1057 19.6971 24.1736 19.7234 24.201 19.7891C24.2128 19.8176 24.2166 19.8491 24.2166 19.8955C24.2166 20.1061 24.5593 20.44 24.9529 20.5703C25.188 20.6482 25.2877 20.7624 25.1863 20.9092C25.1725 20.9293 25.1625 20.9412 25.1414 20.9609C25.2009 20.934 25.2727 20.8967 25.3563 20.8496L25.407 20.8213L25.4578 20.8496C25.5414 20.8967 25.6132 20.934 25.6727 20.9609C25.6516 20.9412 25.6416 20.9293 25.6278 20.9092C25.5264 20.7624 25.626 20.6482 25.8611 20.5703C26.2548 20.44 26.5975 20.1061 26.5975 19.8955C26.5975 19.8491 26.6013 19.8176 26.6131 19.7891C26.6405 19.7235 26.7084 19.6971 26.7703 19.7227C26.7991 19.7348 26.8804 19.8034 26.8865 19.8086C26.9822 19.8795 27.0744 19.8899 27.2147 19.8037C27.46 19.6525 27.749 19.0371 28.0565 17.9746C27.5855 17.7016 27.3409 17.3897 27.3406 17.0361C27.3406 16.6016 27.8451 16.0771 28.1356 16.0244C28.1346 15.9904 28.1277 15.9505 28.1072 15.8398C28.1029 15.8163 28.0994 15.7991 28.0965 15.7822C28.0824 15.7009 28.076 15.6395 28.076 15.583V15.418C27.9765 15.4556 27.8479 15.4756 27.6942 15.4756C27.4993 15.4756 27.2625 15.4136 26.9764 15.2988C26.8668 15.2549 26.7523 15.2035 26.6229 15.1426C26.5593 15.1127 26.1638 14.9197 26.0799 14.8828C26.0402 14.8654 26.0072 14.8527 25.9813 14.8438Z" fill="#FFD129"/>
<path d="M29.9185 20.0332C29.7344 20.8581 29.0717 21.5432 27.9312 22.0879C26.7907 22.6325 25.9716 22.9053 25.4741 22.9053C23.6574 22.4589 22.5608 22.0264 22.1851 21.6084C21.6215 20.9813 21.0298 20.7486 21.0298 19.6523V11.043H29.9185V20.0332ZM21.2388 19.6523C21.2388 20.2389 21.3898 20.5339 21.8091 20.9395C21.8543 20.9832 22.025 21.1436 22.0249 21.1436C22.1169 21.2309 22.1875 21.3016 22.2573 21.375C22.2853 21.4044 22.3129 21.4334 22.3394 21.4629C22.6743 21.8356 23.7382 22.2566 25.4976 22.6904C25.9591 22.6815 26.7479 22.4167 27.8433 21.8936C28.9195 21.3795 29.5346 20.7493 29.7095 20.0078V11.2568H21.2388V19.6523Z" fill="black"/>
</g>
<g clip-path="url(#clip1_299_35479)">
<rect width="18" height="14" fill="#2E42A5"/>
<path d="M-2.00427 12.9991L1.95668 14.7363L18.0899 1.88805L20.1792 -0.693481L15.9435 -1.27411L9.36317 4.26259L4.06667 7.99302L-2.00427 12.9991Z" fill="#F7FCFF"/>
<path d="M-1.46201 14.2165L0.555916 15.2246L19.4289 -0.933105H16.5955L-1.46201 14.2165Z" fill="#F50100"/>
<path d="M20.0043 12.9991L16.0433 14.7363L-0.0898743 1.88805L-2.17919 -0.693481L2.05648 -1.27411L8.63683 4.26259L13.9333 7.99302L20.0043 12.9991Z" fill="#F7FCFF"/>
<path d="M19.8691 13.8727L17.8512 14.8809L9.81486 7.9629L7.43226 7.18998L-2.38023 -0.684557H0.453163L10.2601 7.00307L12.8651 7.92989L19.8691 13.8727Z" fill="#F50100"/>
<path fill-rule="evenodd" clip-rule="evenodd" d="M9.98451 0H7.98451V6H0V8H7.98451V14H9.98451V8H18V6H9.98451V0Z" fill="#F50100"/>
<path fill-rule="evenodd" clip-rule="evenodd" d="M6.48451 0H11.4845V4.5H18V9.5H11.4845L11.5 14H6.5L6.48451 9.5H0V4.5H6.48451V0ZM7.98451 6H0V8H7.98451V14H9.98451V8H18V6H9.98451V0H7.98451V6Z" fill="#F7FCFF"/>
</g>
</g>
</g>
<defs>
<clipPath id="clip0_299_35479">
<rect width="32" height="24" fill="white"/>
</clipPath>
<clipPath id="clip1_299_35479">
<rect width="18" height="14" fill="white"/>
</clipPath>
</defs>
</svg>
