<svg width="32" height="24" viewBox="0 0 32 24" fill="none" xmlns="http://www.w3.org/2000/svg">
<g clip-path="url(#clip0_299_35481)">
<rect width="32" height="24" fill="white"/>
<path fill-rule="evenodd" clip-rule="evenodd" d="M0 0V24H32V0H0Z" fill="#FFD221"/>
<mask id="mask0_299_35481" style="mask-type:luminance" maskUnits="userSpaceOnUse" x="0" y="0" width="32" height="24">
<path fill-rule="evenodd" clip-rule="evenodd" d="M0 0V24H32V0H0Z" fill="white"/>
</mask>
<g mask="url(#mask0_299_35481)">
<path d="M-3.06699 10.6162L-1.059 6.03711L33.7677 21.3091L31.7597 25.8882L-3.06699 10.6162Z" fill="#313131"/>
<path d="M-3.01724 5.56968L-1.01009 0.990234L35.5485 17.0137L33.5414 21.5931L-3.01724 5.56968Z" fill="#FAF9F9"/>
<path fill-rule="evenodd" clip-rule="evenodd" d="M6.14935 9.47852C6.14935 9.47852 7.60109 9.53162 7.5849 10.4678C7.58497 11.1626 9.19232 11.7925 9.19232 12.1904C9.19242 12.5873 9.48883 16.5555 9.49212 16.5996C9.49212 16.5996 9.28252 16.9648 8.28021 16.9648C7.27785 16.9648 7.33099 16.3877 7.33099 16.3877C7.9385 15.6423 7.33099 12.3965 7.33099 12.3965C5.9177 10.6621 6.14766 9.487 6.14935 9.47852ZM25.8515 9.47852C25.8532 9.4871 26.0831 10.6622 24.6699 12.3965C24.6699 12.3965 24.0623 15.6423 24.6699 16.3877C24.6699 16.3877 24.723 16.9648 23.7206 16.9648C22.7183 16.9648 22.5087 16.5996 22.5087 16.5996C22.512 16.5555 22.8084 12.5873 22.8085 12.1904C22.8085 11.7925 24.4159 11.1626 24.416 10.4678C24.3998 9.53162 25.8515 9.47852 25.8515 9.47852Z" fill="#CF1225"/>
<path d="M16.2692 6.47461V7.39746C16.2762 7.38998 16.65 6.99479 17.4811 6.83008C18.3201 6.66419 19.269 7.64761 20.0055 7.95117C20.7372 8.2527 21.0802 7.95501 21.0846 7.95117C21.0846 7.95117 21.0852 8.20872 20.5377 8.60449C20.2997 8.77655 20.0273 8.76373 19.7955 8.69434C19.5921 8.54126 19.2657 8.41959 19.2614 8.41797C19.2614 8.41797 19.4942 8.60408 19.7955 8.69434C19.9677 8.82383 20.0517 8.97566 19.778 9.09766C19.1828 9.36277 18.1851 8.61545 18.1705 8.60449C18.187 8.61665 19.441 9.54199 18.902 9.54199C18.3662 9.54172 17.5029 8.84862 17.4811 8.83105C17.5043 8.85346 18.5406 9.85603 17.9733 10.0137C17.6068 10.1152 17.1694 9.57844 16.9655 9.26367C16.9684 9.22115 16.9511 9.16824 16.8981 9.09766C16.809 8.97903 16.8502 9.08578 16.9655 9.26367C16.9547 9.41969 16.6514 9.43594 16.651 9.67188C16.651 9.97256 16.5182 9.83047 16.5182 10.0137V10.2471L16.651 10.4424C16.651 10.4424 16.6509 10.7471 16.5182 10.9893C16.3854 11.2314 16.5182 11.423 16.651 11.8838C16.7834 12.3434 16.5199 13.1278 16.5182 13.1328H16.651C16.651 13.1328 16.5182 13.2298 16.5182 13.6182C16.5182 14.0065 16.6506 14.189 16.8981 14.7139C17.1455 15.2387 16.651 15.9062 16.651 15.9062C16.651 15.9062 17.4804 15.5421 17.3141 15.9062C17.1857 16.1858 16.4848 16.4573 16.1666 16.5684V16.6211C16.1628 16.6199 16.1344 16.6094 16.0875 16.5938C16.0379 16.6103 16.0094 16.6211 16.0094 16.6211V16.5674C15.6908 16.4561 14.99 16.1857 14.8619 15.9062C14.6956 15.5421 15.526 15.9062 15.526 15.9062C15.526 15.9062 15.0307 15.2387 15.278 14.7139C15.5255 14.189 15.6588 14.0065 15.6588 13.6182C15.6588 13.2404 15.5328 13.1381 15.526 13.1328H15.6588C15.6588 13.1328 15.3932 12.3449 15.526 11.8838C15.6588 11.4231 15.7916 11.2314 15.6588 10.9893C15.526 10.747 15.526 10.4424 15.526 10.4424L15.6588 10.2471C15.6588 10.2471 15.6588 10.1966 15.6588 10.0137C15.6588 9.83047 15.526 9.97256 15.526 9.67188C15.5257 9.43589 15.2202 9.41978 15.2096 9.26367C15.3253 9.08526 15.3674 8.97851 15.278 9.09766C15.225 9.16818 15.2067 9.22117 15.2096 9.26367C15.0054 9.57861 14.569 10.1154 14.2028 10.0137C13.6332 9.85516 14.6819 8.84458 14.6959 8.83105C14.6839 8.84074 13.8129 9.54199 13.274 9.54199C12.7319 9.5418 14.0065 8.60449 14.0065 8.60449C14.0065 8.60449 12.9976 9.36484 12.3981 9.09766C12.1243 8.9755 12.2089 8.82293 12.3815 8.69336C12.6825 8.60303 12.9156 8.41797 12.9156 8.41797C12.9156 8.41797 12.5864 8.53952 12.3815 8.69336C12.1496 8.76293 11.8775 8.7766 11.6393 8.60449C11.0917 8.20866 11.0914 7.95117 11.0914 7.95117C11.0914 7.95117 11.4349 8.25479 12.1715 7.95117C12.9081 7.64745 13.8569 6.66381 14.6959 6.83008C15.535 6.99637 15.9078 7.39746 15.9078 7.39746V6.47461H16.2692ZM17.1862 3.67969L16.4479 3.87695L17.1862 4.51465L16.2672 4.28223V4.92676H17.1862L17.4938 6.43848L17.1383 6.18555L16.7828 6.43848L16.4264 6.18555L16.0709 6.43848L15.7047 6.18555L15.3385 6.43848L14.9713 6.18555L14.6051 6.43848L15.067 4.92676H15.9176V2.875H16.0602L17.1862 3.67969Z" fill="#CF1225"/>
<path fill-rule="evenodd" clip-rule="evenodd" d="M11.2293 9.57812C11.2293 9.57812 10.0356 11.2017 10.1685 12.9365C10.3013 14.6713 11.7167 18.7075 15.9157 18.7075C15.9518 18.7075 15.9877 18.7065 16.0234 18.7065C20.4728 18.7065 21.7358 14.2563 21.7358 12.6559C21.7358 11.0417 20.7291 9.57812 20.7291 9.57812C20.7291 9.57812 20.8467 11.7441 20.7291 12.6559C20.3743 15.4064 18.6415 16.6769 15.9936 16.6769C13.3293 16.6769 11.6806 15.3584 11.2293 12.6559C11.0833 11.7822 11.2293 9.57812 11.2293 9.57812Z" fill="#CF1225"/>
<path fill-rule="evenodd" clip-rule="evenodd" d="M9.06555 19.7514C9.06555 19.7514 9.28222 19.1309 9.54855 19.1309C9.81489 19.1309 9.03897 18.5925 9.54855 18.4401C10.0581 18.2878 10.8423 19.0471 10.8423 18.2878C10.8423 17.5285 10.1791 17.1142 10.6664 17.1142C11.1537 17.1142 11.662 16.9688 11.662 16.9688C11.662 16.9688 13.7352 19.1309 15.8107 19.1309C17.8862 19.1309 20.3821 17.1142 20.3821 17.1142C20.3821 17.1142 21.302 16.8802 21.302 17.2451C21.302 17.6099 21.1002 18.1607 21.1002 18.1607C21.1002 18.1607 21.7448 18.0336 22.0728 18.1607C22.4007 18.2878 22.0728 18.8958 22.0728 18.8958V19.1309C22.0728 19.1309 22.926 18.9431 22.926 19.2793C22.926 19.6155 22.5141 19.4234 21.6795 19.5195C20.8448 19.6155 20.528 20.268 20.0037 20.268C19.4793 20.268 19.3664 19.7514 19.3664 19.7514C19.3664 19.7514 17.7415 20.6322 15.8107 20.6322C13.8799 20.6322 12.7136 19.7514 12.7136 19.7514C12.7136 19.7514 12.8958 20.6556 12.2789 20.4618C11.662 20.268 11.0309 19.0391 10.2898 19.2793C9.54855 19.5195 9.06555 19.7514 9.06555 19.7514Z" fill="#CF1225"/>
<path fill-rule="evenodd" clip-rule="evenodd" d="M11.3872 14.7148C11.1859 14.9127 11.0607 15.0609 11.0142 15.1523C10.9896 15.2007 10.98 15.1827 11.0191 15.1826C11.0896 15.1826 11.165 15.1533 11.2779 15.0889C11.2922 15.0807 11.3385 15.0536 11.3433 15.0508C11.3695 15.0357 11.3891 15.0242 11.4078 15.0146C11.4607 14.9877 11.5028 14.9737 11.5445 14.9736C11.6669 14.9736 11.7173 15.0791 11.7173 15.2666V15.4912C11.7172 15.7553 11.7254 15.914 11.7515 16.0264C11.7766 16.1346 11.7948 16.1495 11.8413 16.125C11.8728 16.1083 11.9095 16.0804 11.9517 16.041C11.9845 16.0105 12.0186 15.9751 12.064 15.9258C12.2672 15.7052 12.2699 15.702 12.3374 15.6719C12.4873 15.605 12.5572 15.728 12.5572 15.96C12.5572 16.326 12.5699 16.6031 12.604 16.7871C12.6191 16.8681 12.6389 16.9227 12.6529 16.9443C12.6674 16.9329 12.6875 16.9105 12.7105 16.876C12.9832 16.466 13.5864 16.4061 13.5865 16.7471C13.5865 16.8123 13.5801 16.8302 13.4888 17.0537C13.4767 17.0834 13.4672 17.1071 13.4585 17.1299C13.4168 17.2398 13.3985 17.3171 13.4048 17.3652C13.4098 17.4025 13.4304 17.4179 13.5044 17.418C13.5947 17.418 13.6701 17.3436 13.7652 17.1768C13.7793 17.152 13.8258 17.0677 13.8287 17.0625C13.8538 17.0174 13.8725 16.9854 13.8921 16.958C14.0347 16.7593 14.1878 16.8341 14.3287 17.167C14.3759 17.2786 14.5103 17.6081 14.5337 17.6631C14.5933 17.8031 14.6346 17.8842 14.6714 17.9326C14.7186 17.9945 14.7441 17.9942 14.8355 17.916C14.8714 17.8853 14.911 17.8559 14.9556 17.8252C15.0002 17.7945 15.1503 17.6998 15.1763 17.6816C15.2158 17.654 15.2345 17.6347 15.2388 17.6338C15.2328 17.6356 15.1972 17.6124 15.1128 17.5811C14.8618 17.4877 14.8221 17.3181 15.024 17.2178C15.147 17.1566 15.3674 17.1172 15.566 17.1172C15.6911 17.1172 15.7533 17.2023 15.7505 17.3291C15.7489 17.4023 15.7361 17.4564 15.688 17.6367C15.682 17.6594 15.6785 17.6762 15.6744 17.6924C15.6337 17.8504 15.6221 17.9448 15.6412 18.001C15.6589 18.0532 15.7167 18.0742 15.8648 18.0449C16.1017 17.998 16.1921 17.925 16.2144 17.8184C16.2207 17.7884 16.2211 17.7619 16.2212 17.7031C16.2215 17.5055 16.2772 17.418 16.4859 17.418C16.7025 17.418 16.8092 17.5134 16.8921 17.707C16.8978 17.7203 16.9042 17.7344 16.9146 17.7598C16.9472 17.8384 16.9681 17.8745 16.9986 17.8887C16.9945 17.8806 16.9911 17.8729 16.9888 17.8682C16.862 17.6084 16.9213 17.3739 17.3023 17.1299C17.4491 17.0359 17.864 16.7328 17.9244 16.7168C18.0224 16.6911 18.0767 16.7545 18.0933 16.8623C18.0985 16.8959 18.1022 16.9374 18.105 17C18.1064 17.0322 18.1108 17.1692 18.1119 17.1973C18.1236 17.4974 18.1868 17.7746 18.2583 17.8623C18.3257 17.8081 18.3758 17.6808 18.4244 17.4814C18.5361 17.0228 18.6969 16.5896 18.857 16.3193C18.9467 16.1679 19.0355 16.0674 19.1265 16.0264C19.2452 15.9731 19.3557 16.0232 19.4302 16.1582C19.5489 16.3738 19.7334 16.5766 19.8667 16.6279C19.9895 16.6752 20.063 16.5742 20.063 16.2002C20.063 15.7799 20.1324 15.4398 20.2486 15.1738C20.3198 15.0108 20.3929 14.9075 20.4449 14.8564L20.5581 14.9775C20.5505 14.985 20.5343 15.004 20.5122 15.0352C20.4737 15.0897 20.4346 15.1592 20.398 15.2432C20.2915 15.4872 20.2271 15.8036 20.2271 16.2002C20.2271 16.6734 20.0714 16.8862 19.8091 16.7852C19.6324 16.717 19.4235 16.4879 19.2876 16.2412C19.2515 16.1757 19.2268 16.165 19.1919 16.1807C19.1394 16.2044 19.0702 16.282 18.9966 16.4062C18.8463 16.6602 18.6917 17.0789 18.5835 17.5225C18.4705 17.9859 18.3044 18.1804 18.1324 17.9697C18.0309 17.8452 17.9619 17.5387 17.9488 17.2041C17.9477 17.1755 17.9423 17.0391 17.941 17.0078C17.9387 16.9578 17.9364 16.9235 17.9331 16.8984C17.8346 16.9628 17.5407 17.1755 17.3892 17.2725C17.081 17.4699 17.0457 17.6096 17.1353 17.793C17.1416 17.8058 17.1637 17.8486 17.1675 17.8564C17.182 17.8857 17.1899 17.9069 17.1929 17.9307C17.2048 18.024 17.1378 18.0643 17.0415 18.0645C16.8971 18.0645 16.8322 17.9925 16.7632 17.8262C16.7527 17.8006 16.7478 17.7874 16.7427 17.7754C16.6833 17.6365 16.6269 17.586 16.4859 17.5859C16.3866 17.5859 16.3854 17.5869 16.3853 17.7031C16.3852 17.7737 16.384 17.8083 16.3746 17.8535C16.3369 18.0338 16.1923 18.1513 15.896 18.21C15.6771 18.2533 15.5355 18.2028 15.4859 18.0566C15.452 17.9569 15.466 17.8408 15.5152 17.6494C15.5195 17.6326 15.5246 17.6159 15.5308 17.5928C15.5742 17.4298 15.5853 17.3782 15.5865 17.3252C15.5874 17.2844 15.5878 17.2852 15.566 17.2852C15.39 17.2852 15.1929 17.3206 15.0953 17.3691C15.0764 17.3785 15.0683 17.3819 15.064 17.3789V17.373C15.0613 17.3712 15.0594 17.3704 15.0591 17.3701C15.0607 17.3768 15.0625 17.381 15.065 17.3828L15.064 17.3799C15.0735 17.3793 15.1075 17.4001 15.1685 17.4229C15.3241 17.4807 15.4027 17.5393 15.4038 17.6328C15.4047 17.7067 15.3592 17.7567 15.2681 17.8203C15.2381 17.8413 15.0872 17.9368 15.0464 17.9648C15.0065 17.9923 14.9719 18.0185 14.941 18.0449C14.7838 18.1793 14.6518 18.1809 14.5415 18.0361C14.4936 17.9731 14.4483 17.883 14.3833 17.7305C14.3593 17.674 14.225 17.3448 14.1783 17.2344C14.0795 17.0008 14.0694 16.9957 14.0249 17.0576C14.0098 17.0787 13.9927 17.1062 13.9703 17.1465C13.9665 17.1532 13.9215 17.236 13.9068 17.2617C13.7843 17.4768 13.6731 17.5859 13.5044 17.5859C13.3531 17.5859 13.2595 17.5145 13.2427 17.3877C13.2316 17.3026 13.2549 17.2045 13.3062 17.0693C13.3154 17.045 13.3248 17.0192 13.3374 16.9883C13.4106 16.809 13.4224 16.7768 13.4224 16.7471C13.4222 16.6323 13.0455 16.6697 12.8453 16.9707C12.7577 17.1021 12.6634 17.1572 12.5699 17.0938C12.5059 17.0503 12.47 16.9591 12.4439 16.8184C12.4072 16.6207 12.3931 16.3364 12.3931 15.96C12.3931 15.9035 12.3899 15.8622 12.3843 15.8369C12.3564 15.8548 12.3193 15.8942 12.1831 16.042C12.1352 16.0941 12.0985 16.1321 12.0621 16.166C12.01 16.2145 11.9619 16.25 11.9156 16.2744C11.7515 16.361 11.6387 16.2649 11.5923 16.0654C11.5622 15.9358 11.5532 15.7687 11.5533 15.4912V15.2666C11.5533 15.1603 11.5445 15.1416 11.5445 15.1416C11.522 15.1417 11.513 15.1463 11.357 15.2354C11.2213 15.3128 11.1254 15.3506 11.0191 15.3506C10.8509 15.3505 10.7896 15.2297 10.8687 15.0742C10.9259 14.9618 11.0604 14.8036 11.274 14.5938L11.3872 14.7148Z" fill="#F6E017"/>
<path d="M12.3055 18.3066C12.4101 18.5941 12.472 18.7409 12.5311 18.8428C12.5978 18.9576 12.66 19.0132 12.785 19.0742C12.831 19.0966 12.8243 19.094 12.9979 19.168C13.1327 19.2254 13.2467 19.329 13.3739 19.4873C13.4074 19.529 13.5064 19.659 13.5126 19.667C13.5574 19.7246 13.5887 19.7588 13.6132 19.7773C13.6265 19.7874 13.6266 19.789 13.6249 19.79C13.6363 19.7831 13.657 19.7512 13.6796 19.6904C13.7298 19.5548 13.6856 19.4493 13.5634 19.3398C13.5455 19.3239 13.4091 19.2195 13.3895 19.1904C13.3435 19.1214 13.3834 19.0514 13.455 19.0322C13.4874 19.0236 13.5357 19.0205 13.6122 19.0205C13.8767 19.0206 13.9498 19.1758 13.9989 19.5732V19.5801C14.0376 19.8933 14.0772 19.9794 14.2108 19.9795C14.3617 19.9795 14.4537 19.9193 14.6141 19.748C14.6315 19.7295 14.6319 19.7295 14.6493 19.7109C14.8537 19.4934 14.9969 19.4199 15.2372 19.4863C15.4293 19.5395 15.5118 19.6339 15.5311 19.7803C15.5333 19.7965 15.5339 19.8084 15.536 19.8359C15.5454 19.9594 15.5676 19.9795 15.8065 19.9795C15.9878 19.9795 16.1567 19.9893 16.3768 20.0088C16.3883 20.0098 16.5551 20.0248 16.5975 20.0283C16.6692 20.0342 16.7204 20.0371 16.7606 20.0371C16.789 20.0371 16.811 20.0358 16.826 20.0332C16.8322 19.9851 16.8609 19.9511 16.9755 19.8213C16.9886 19.8064 16.9992 19.7944 17.0087 19.7832C17.0623 19.7199 17.0863 19.6767 17.0848 19.6699C17.0836 19.6683 17.0345 19.6514 16.9061 19.6514C16.7873 19.6513 16.7274 19.6367 16.7167 19.5527C16.7077 19.4824 16.7487 19.4483 16.8387 19.4004C16.9419 19.3455 17.1298 19.2739 17.3553 19.2021C17.5724 19.133 17.8021 19.0707 17.9764 19.0342C18.0705 19.0145 18.1472 19.0032 18.203 19C18.3095 18.994 18.3729 19.0086 18.3729 19.1045C18.3731 19.1446 18.4854 19.2824 18.5975 19.3447C18.7314 19.4191 18.8268 19.3906 18.8925 19.2158C18.9883 18.9605 19.188 18.6843 19.3827 18.5264C19.4871 18.4417 19.5837 18.3958 19.6669 18.4033C19.7789 18.4136 19.8378 18.5108 19.8378 18.6562H19.6737C19.6737 18.5881 19.6643 18.5724 19.6522 18.5713C19.6213 18.5685 19.5587 18.5978 19.4843 18.6582C19.3124 18.7976 19.131 19.0494 19.0458 19.2764C18.9424 19.5515 18.7359 19.6126 18.5194 19.4922C18.3867 19.4184 18.2594 19.278 18.2206 19.167C18.1653 19.1701 18.0955 19.181 18.0087 19.1992C17.8401 19.2346 17.6163 19.2957 17.4042 19.3633C17.2636 19.408 17.1378 19.4521 17.0419 19.4912C17.1589 19.508 17.2273 19.5519 17.245 19.6338C17.2626 19.7156 17.2227 19.7873 17.1327 19.8936C17.1224 19.9057 17.1113 19.918 17.0975 19.9336C17.0186 20.023 16.9884 20.0616 16.9882 20.0635C16.9882 20.1746 16.9042 20.2051 16.7606 20.2051C16.7151 20.2051 16.6604 20.2025 16.5848 20.1963C16.5423 20.1928 16.3765 20.177 16.3632 20.1758C16.1473 20.1567 15.9823 20.1475 15.8065 20.1475C15.484 20.1474 15.3891 20.0625 15.3729 19.8496C15.3711 19.825 15.3706 19.8148 15.369 19.8027C15.3586 19.724 15.3238 19.6841 15.1952 19.6484C15.0271 19.6019 14.9347 19.6491 14.7675 19.8271C14.7502 19.8456 14.7499 19.8455 14.7323 19.8643C14.5434 20.066 14.4189 20.1475 14.2108 20.1475C13.9756 20.1474 13.8984 20.0217 13.8495 19.6963C13.8449 19.7139 13.8396 19.7318 13.8329 19.75C13.7602 19.9462 13.6451 20.0112 13.5155 19.9131C13.4762 19.8833 13.4379 19.8409 13.3846 19.7725C13.3803 19.7668 13.2801 19.6338 13.2479 19.5938C13.1363 19.4548 13.0399 19.3678 12.9354 19.3232C12.757 19.2472 12.7645 19.2509 12.7147 19.2266C12.5615 19.1518 12.4737 19.0746 12.3895 18.9297C12.3237 18.8163 12.2602 18.6622 12.1522 18.3652L12.3055 18.3066ZM13.7928 19.3525C13.8133 19.4123 13.83 19.4915 13.8456 19.5947L13.8466 19.6016C13.8516 19.6348 13.8567 19.6665 13.8622 19.6963C13.9028 19.5681 13.8739 19.455 13.7928 19.3525ZM16.8475 19.4795L16.8505 19.4805C16.8488 19.4798 16.8471 19.4789 16.8456 19.4785L16.8475 19.4795Z" fill="#F6E017"/>
</g>
</g>
<defs>
<clipPath id="clip0_299_35481">
<rect width="32" height="24" fill="white"/>
</clipPath>
</defs>
</svg>
