<svg width="32" height="24" viewBox="0 0 32 24" fill="none" xmlns="http://www.w3.org/2000/svg">
<g clip-path="url(#clip0_299_35483)">
<rect width="32" height="24" fill="white"/>
<path fill-rule="evenodd" clip-rule="evenodd" d="M0 0V24H32V0H0Z" fill="#FECA00"/>
<mask id="mask0_299_35483" style="mask-type:luminance" maskUnits="userSpaceOnUse" x="0" y="0" width="32" height="24">
<path fill-rule="evenodd" clip-rule="evenodd" d="M0 0V24H32V0H0Z" fill="white"/>
</mask>
<g mask="url(#mask0_299_35483)">
<path fill-rule="evenodd" clip-rule="evenodd" d="M0 0V8H32V0H0Z" fill="#DB501C"/>
<path fill-rule="evenodd" clip-rule="evenodd" d="M0 16V24H32V16H0Z" fill="#5EAA22"/>
<path d="M12.446 9.96104L12.4824 9.92578L19.702 16.8705L19.6657 16.9058L12.446 9.96104Z" fill="#864C26"/>
<path d="M20.2213 16.4176L20.1901 16.4572L11.791 10.2876L11.8222 10.248L20.2213 16.4176Z" fill="#864C26"/>
<path d="M20.3982 15.8023L20.3729 15.8457L11.03 10.7601L11.0553 10.7168L20.3982 15.8023Z" fill="#A05A2C"/>
<path d="M10.8047 10.4541L10.7695 10.4932C10.7891 10.4983 10.8099 10.5024 10.8311 10.5088C10.8526 10.5153 10.8686 10.5265 10.8809 10.54C10.8835 10.4957 10.8722 10.4464 10.8418 10.3916L10.7676 10.2578L10.8818 10.3623C11.0643 10.5283 11.1224 10.6664 11.0439 10.7744C10.9673 10.8799 10.808 10.9004 10.5693 10.8418L10.4727 10.8184L10.5693 10.7939C10.6482 10.7741 10.7124 10.7455 10.7637 10.7109H10.7236C10.6866 10.7109 10.6561 10.6916 10.6289 10.6572L10.5732 10.7236L10 10.1855L10.8047 10.4541ZM10.5693 10.6504L10.5996 10.6133C10.5944 10.6032 10.5888 10.5927 10.584 10.5811L10.5869 10.5801L10.5625 10.5537L10.6611 10.4678L10.6738 10.4697C10.6874 10.4721 10.7012 10.4763 10.7158 10.4795L10.7178 10.4785L10.2021 10.3057L10.5693 10.6504ZM11.5312 9.98047L11.4941 10.0156C11.5128 10.0223 11.5327 10.0281 11.5527 10.0361C11.5739 10.0446 11.5886 10.0575 11.5996 10.0723C11.6063 10.0282 11.5989 9.97839 11.5732 9.9209L11.5107 9.78027L11.6162 9.89453C11.7836 10.0758 11.8288 10.2186 11.7412 10.3193C11.6557 10.4176 11.4951 10.4248 11.2627 10.3457L11.168 10.3135L11.2666 10.2969C11.3466 10.284 11.4128 10.2612 11.4668 10.2314L11.4277 10.2285C11.3909 10.2253 11.362 10.2035 11.3379 10.167L11.2773 10.2285L10.7529 9.64258L11.5312 9.98047ZM12.3096 9.58105L12.2676 9.6084C12.2841 9.61785 12.3018 9.62683 12.3193 9.6377C12.3386 9.64964 12.3511 9.66524 12.3594 9.68164C12.3737 9.63938 12.3756 9.58853 12.3604 9.52734L12.3232 9.37891L12.4072 9.50977C12.5402 9.71695 12.5603 9.86517 12.457 9.94922C12.3557 10.0313 12.1958 10.0099 11.9805 9.8916L11.8936 9.84375L11.9932 9.8457C12.0736 9.8469 12.1421 9.83506 12.2002 9.81543L12.1631 9.80566C12.1283 9.7963 12.1043 9.77081 12.0869 9.73242L12.0166 9.78125L11.6016 9.11328L12.3096 9.58105Z" fill="#E7E7E7"/>
<path fill-rule="evenodd" clip-rule="evenodd" d="M13.4714 16.2153L14.306 14.7266L15.477 15.0419L14.6343 16.4006H14.306V16.5488L13.4714 16.2153Z" fill="#925229"/>
<path fill-rule="evenodd" clip-rule="evenodd" d="M13.1135 10.4902L12.561 11.0644L12.36 14.8586L14.3508 15.1488C14.3508 15.1488 13.4833 14.3871 13.3554 13.9171C13.2275 13.447 13.1867 11.6922 13.4286 11.4254L13.6176 11.5357L13.7696 11.0842" fill="#FFE000"/>
<path fill-rule="evenodd" clip-rule="evenodd" d="M11.1892 10.7493C11.1892 10.7493 10.9753 13.712 10.9753 14.2323C10.9753 14.7526 11.417 15.9916 12.424 15.9916C13.431 15.9916 14.8128 15.4373 14.8128 15.2112C14.8128 14.9851 14.4003 14.8231 14.4003 14.8231C14.4003 14.8231 12.5484 14.9498 12.5484 14.2323C12.5484 13.5149 12.6742 11.3912 12.7841 11.1407C12.894 10.8903 13.2751 10.5127 13.2751 10.5127L12.5484 9.97266L12.424 10.5127L11.958 10.3542L11.8159 11.1407L11.1892 10.7493Z" fill="#D52C1E"/>
<path fill-rule="evenodd" clip-rule="evenodd" d="M13.7765 11.0781L13.6427 11.4972L13.3722 11.383C13.3722 11.383 12.9678 13.2792 13.3722 14.0735C13.7765 14.8679 14.7949 14.9255 14.7949 14.9255L14.3647 11.4972L13.7765 11.0781Z" fill="#027934"/>
<path fill-rule="evenodd" clip-rule="evenodd" d="M13.7171 13.6387L12.7466 14.4062C12.7466 14.4062 12.4804 14.7877 12.7466 15.0765C13.0128 15.3653 13.7507 15.6597 13.9248 15.3111C14.0989 14.9625 14.6161 14.5541 14.6161 14.5541L13.7171 13.6387Z" fill="#E8A30C"/>
<path fill-rule="evenodd" clip-rule="evenodd" d="M14.4788 10.744C14.7149 10.5388 14.8333 10.2883 14.7432 10.1846C14.653 10.0809 14.3885 10.1633 14.1524 10.3686C13.9163 10.5738 13.7979 10.8243 13.8881 10.928C13.9782 11.0317 14.2427 10.9493 14.4788 10.744Z" fill="#E1E5E8"/>
<path fill-rule="evenodd" clip-rule="evenodd" d="M13.8834 9.30453C13.8834 9.30453 13.7883 9.28507 13.7453 9.27855C13.4383 9.23202 13.2849 9.29462 13.2849 9.46634C13.2849 9.76001 13.4805 10.0771 13.4805 10.2989C13.4805 10.5208 13.49 10.866 13.5841 10.6934C13.6782 10.5208 14.1568 10.0019 14.1568 10.0019L13.8834 9.5518C13.8834 9.5518 14.5622 9.62815 14.2641 9.46634" fill="#D52C1E"/>
<path fill-rule="evenodd" clip-rule="evenodd" d="M15.97 15.3793L15.4609 15.3742C15.0829 15.748 15.0481 16.2508 15.3457 16.8582C15.3457 16.8582 15.4433 16.9993 15.4775 16.9861C15.5254 16.9677 15.5919 16.7632 15.5919 16.7632C15.5692 16.1701 15.9473 15.7773 15.97 15.3793Z" fill="#D52C1E"/>
<path fill-rule="evenodd" clip-rule="evenodd" d="M15.3252 15.3956L15.5082 15.3105C15.6887 15.6854 15.5982 16.0735 15.2502 16.4589L15.0987 16.3269C15.2502 15.8847 15.2502 15.7016 15.3252 15.3956Z" fill="#FFE000"/>
<path d="M15.0914 15.3821L15.2824 15.3262C15.3743 15.6401 15.3284 15.9639 15.148 16.2925L14.9736 16.1968C15.1295 15.9127 15.1677 15.6428 15.0914 15.3821Z" fill="#027934"/>
<path d="M19.554 9.96104L19.5176 9.92578L12.298 16.8705L12.3343 16.9058L19.554 9.96104Z" fill="#864C26"/>
<path d="M11.7787 16.4176L11.8099 16.4572L20.209 10.2876L20.1778 10.248L11.7787 16.4176Z" fill="#864C26"/>
<path d="M11.6018 15.8023L11.6271 15.8457L20.97 10.7601L20.9447 10.7168L11.6018 15.8023Z" fill="#A05A2C"/>
<path d="M21.1953 10.4541L21.2305 10.4932C21.2109 10.4983 21.1901 10.5024 21.1689 10.5088C21.1474 10.5153 21.1314 10.5265 21.1191 10.54C21.1165 10.4957 21.1278 10.4464 21.1582 10.3916L21.2324 10.2578L21.1182 10.3623C20.9357 10.5283 20.8776 10.6664 20.9561 10.7744C21.0327 10.8799 21.192 10.9004 21.4307 10.8418L21.5273 10.8184L21.4307 10.7939C21.3518 10.7741 21.2876 10.7455 21.2363 10.7109H21.2764C21.3134 10.7109 21.3439 10.6916 21.3711 10.6572L21.4268 10.7236L22 10.1855L21.1953 10.4541ZM21.4307 10.6504L21.4004 10.6133C21.4056 10.6032 21.4112 10.5927 21.416 10.5811L21.4131 10.5801L21.4375 10.5537L21.3389 10.4678L21.3262 10.4697C21.3126 10.4721 21.2988 10.4763 21.2842 10.4795L21.2822 10.4785L21.7979 10.3057L21.4307 10.6504ZM20.4688 9.98047L20.5059 10.0156C20.4872 10.0223 20.4673 10.0281 20.4473 10.0361C20.4261 10.0446 20.4114 10.0575 20.4004 10.0723C20.3937 10.0282 20.4011 9.97839 20.4268 9.9209L20.4893 9.78027L20.3838 9.89453C20.2164 10.0758 20.1712 10.2186 20.2588 10.3193C20.3443 10.4176 20.5049 10.4248 20.7373 10.3457L20.832 10.3135L20.7334 10.2969C20.6534 10.284 20.5872 10.2612 20.5332 10.2314L20.5723 10.2285C20.6091 10.2253 20.638 10.2035 20.6621 10.167L20.7227 10.2285L21.2471 9.64258L20.4688 9.98047ZM19.6904 9.58105L19.7324 9.6084C19.7159 9.61785 19.6982 9.62683 19.6807 9.6377C19.6614 9.64964 19.6489 9.66524 19.6406 9.68164C19.6263 9.63938 19.6244 9.58853 19.6396 9.52734L19.6768 9.37891L19.5928 9.50977C19.4598 9.71695 19.4397 9.86517 19.543 9.94922C19.6443 10.0313 19.8042 10.0099 20.0195 9.8916L20.1064 9.84375L20.0068 9.8457C19.9264 9.8469 19.8579 9.83506 19.7998 9.81543L19.8369 9.80566C19.8717 9.7963 19.8957 9.77081 19.9131 9.73242L19.9834 9.78125L20.3984 9.11328L19.6904 9.58105Z" fill="#E7E7E7"/>
<path fill-rule="evenodd" clip-rule="evenodd" d="M18.5286 16.2153L17.694 14.7266L16.523 15.0419L17.3657 16.4006H17.694V16.5488L18.5286 16.2153Z" fill="#925229"/>
<path fill-rule="evenodd" clip-rule="evenodd" d="M18.8865 10.4902L19.439 11.0644L19.64 14.8586L17.6492 15.1488C17.6492 15.1488 18.5167 14.3871 18.6446 13.9171C18.7725 13.447 18.8133 11.6922 18.5714 11.4254L18.3824 11.5357L18.2304 11.0842" fill="#FFE000"/>
<path fill-rule="evenodd" clip-rule="evenodd" d="M20.8108 10.7493C20.8108 10.7493 21.0247 13.712 21.0247 14.2323C21.0247 14.7526 20.583 15.9916 19.576 15.9916C18.569 15.9916 17.1872 15.4373 17.1872 15.2112C17.1872 14.9851 17.5997 14.8231 17.5997 14.8231C17.5997 14.8231 19.4516 14.9498 19.4516 14.2323C19.4516 13.5149 19.3258 11.3912 19.2159 11.1407C19.106 10.8903 18.7249 10.5127 18.7249 10.5127L19.4516 9.97266L19.576 10.5127L20.042 10.3542L20.1841 11.1407L20.8108 10.7493Z" fill="#D52C1E"/>
<path fill-rule="evenodd" clip-rule="evenodd" d="M18.2235 11.0781L18.3573 11.4972L18.6278 11.383C18.6278 11.383 19.0322 13.2792 18.6278 14.0735C18.2235 14.8679 17.2051 14.9255 17.2051 14.9255L17.6353 11.4972L18.2235 11.0781Z" fill="#027934"/>
<path fill-rule="evenodd" clip-rule="evenodd" d="M18.2829 13.6406L19.2534 14.4081C19.2534 14.4081 19.5196 14.7896 19.2534 15.0784C18.9872 15.3672 18.2493 15.6617 18.0752 15.313C17.9011 14.9644 17.3839 14.556 17.3839 14.556L18.2829 13.6406Z" fill="#E8A30C"/>
<path fill-rule="evenodd" clip-rule="evenodd" d="M17.5212 10.744C17.2851 10.5388 17.1667 10.2883 17.2568 10.1846C17.347 10.0809 17.6115 10.1633 17.8476 10.3686C18.0837 10.5738 18.2021 10.8243 18.1119 10.928C18.0218 11.0317 17.7573 10.9493 17.5212 10.744Z" fill="#E1E5E8"/>
<path fill-rule="evenodd" clip-rule="evenodd" d="M16.03 15.3793L16.5391 15.3742C16.9171 15.748 16.9519 16.2508 16.6543 16.8582C16.6543 16.8582 16.5567 16.9993 16.5225 16.9861C16.4746 16.9677 16.4081 16.7632 16.4081 16.7632C16.4308 16.1701 16.0527 15.7773 16.03 15.3793Z" fill="#D52C1E"/>
<path fill-rule="evenodd" clip-rule="evenodd" d="M16.6748 15.3956L16.4918 15.3105C16.3113 15.6854 16.4018 16.0735 16.7498 16.4589L16.9013 16.3269C16.7498 15.8847 16.7498 15.7016 16.6748 15.3956Z" fill="#FFE000"/>
<path d="M16.9086 15.3821L16.7176 15.3262C16.6257 15.6401 16.6716 15.9639 16.852 16.2925L17.0264 16.1968C16.8705 15.9127 16.8323 15.6428 16.9086 15.3821Z" fill="#027934"/>
<path d="M15.9745 10.1855C17.3323 10.1857 18.3944 11.3833 18.3945 12.8223C18.3945 14.2613 17.3323 15.4588 15.9745 15.459C14.6166 15.459 13.5536 14.2614 13.5536 12.8223C13.5537 11.3832 14.6167 10.1855 15.9745 10.1855ZM15.9745 10.7324C14.9506 10.7324 14.1201 11.6683 14.1201 12.8223C14.1201 13.9763 14.9506 14.9121 15.9745 14.9121C16.9984 14.9119 17.8281 13.9762 17.8281 12.8223C17.828 11.6684 16.9984 10.7326 15.9745 10.7324Z" fill="#00A6DE"/>
<path fill-rule="evenodd" clip-rule="evenodd" d="M15.9742 12.45L15.7336 12.9462L15.7396 12.3982L15.2999 12.7444L15.5515 12.2533L14.9998 12.3809L15.447 12.0438L14.8927 11.9276L15.447 11.8113L14.9998 11.4743L15.5515 11.6019L15.2999 11.1107L15.7396 11.4569L15.7336 10.909L15.9742 11.4052L16.2149 10.909L16.2089 11.4569L16.6486 11.1107L16.397 11.6019L16.9487 11.4743L16.5015 11.8113L17.0558 11.9276L16.5015 12.0438L16.9487 12.3809L16.397 12.2533L16.6486 12.7444L16.2089 12.3982L16.2149 12.9462L15.9742 12.45Z" fill="#D52C1E"/>
<path fill-rule="evenodd" clip-rule="evenodd" d="M14.0412 12.9428C14.0412 12.9428 15.4912 11.9219 15.8473 11.9219C16.2035 11.9219 17.7231 12.9484 18.0339 13.088C18.3448 13.2277 18.0339 15.9659 18.0339 15.9659H13.921L14.0412 12.9428Z" fill="#027934"/>
<path d="M16.0148 15.0967L16.2179 15.1006L16.0558 15.2188L16.1154 15.4062L15.9484 15.2949L15.7823 15.4062L15.8409 15.2188L15.6788 15.1006L15.882 15.0967L15.9484 14.9111L16.0148 15.0967ZM15.1398 14.8477L15.3419 14.8516L15.1808 14.9697L15.2394 15.1572L15.0734 15.0459L14.9064 15.1572L14.965 14.9697L14.8038 14.8516L15.006 14.8477L15.0734 14.6631L15.1398 14.8477ZM16.9425 14.8477L17.1447 14.8516L16.9835 14.9697L17.0421 15.1572L16.8751 15.0459L16.7091 15.1572L16.7677 14.9697L16.6066 14.8516L16.8087 14.8477L16.8751 14.6631L16.9425 14.8477ZM14.5216 14.3506L14.7247 14.3545L14.5626 14.4727L14.6212 14.6602L14.4552 14.5479L14.2882 14.6602L14.3468 14.4727L14.1857 14.3545L14.3888 14.3506L14.4552 14.165L14.5216 14.3506ZM17.5597 14.3506L17.7628 14.3545L17.6017 14.4727L17.6603 14.6602L17.4933 14.5479L17.3273 14.6602L17.3859 14.4727L17.2238 14.3545L17.4269 14.3506L17.4933 14.165L17.5597 14.3506ZM14.1095 13.7529L14.3126 13.7568L14.1505 13.876L14.2091 14.0635L14.0431 13.9512L13.8761 14.0635L13.9347 13.876L13.7736 13.7568L13.9767 13.7529L14.0431 13.5684L14.1095 13.7529ZM17.9718 13.7529L18.1749 13.7568L18.0138 13.876L18.0724 14.0635L17.9054 13.9512L17.7394 14.0635L17.798 13.876L17.6359 13.7568L17.839 13.7529L17.9054 13.5684L17.9718 13.7529ZM13.9034 13.0068L14.1066 13.0107L13.9445 13.1289L14.0031 13.3164L13.837 13.2051L13.67 13.3164L13.7296 13.1289L13.5675 13.0107L13.7706 13.0068L13.837 12.8223L13.9034 13.0068ZM18.1779 13.0068L18.381 13.0107L18.2189 13.1289L18.2784 13.3164L18.1115 13.2051L17.9454 13.3164L18.004 13.1289L17.8419 13.0107L18.045 13.0068L18.1115 12.8223L18.1779 13.0068ZM15.9913 10.4434C16.8831 10.493 17.5508 10.9799 17.9904 11.8975L17.8976 11.9395C17.4732 11.0536 16.8372 10.5903 15.9884 10.543C15.2302 10.543 14.6088 10.9519 14.1202 11.7764L14.0304 11.7266C14.5361 10.8732 15.1901 10.4433 15.9913 10.4434Z" fill="#FFC036"/>
<path d="M14.6834 7.00781L14.8821 7.15243C14.3727 7.60952 14.2769 8.11924 14.3745 8.55714C14.4761 9.01334 14.9278 9.49999 15.7491 9.99972L15.4472 10.4628C14.5094 9.89214 13.9693 9.36411 13.8292 8.73529C13.685 8.08817 14.0389 7.58602 14.6834 7.00781Z" fill="#036A2D"/>
<path d="M17.3866 7.00781L17.1878 7.15243C17.6973 7.60952 17.793 8.11924 17.6955 8.55714C17.5939 9.01334 17.1421 9.49999 16.3208 9.99972L16.6228 10.4628C17.5606 9.89214 18.1007 9.36411 18.2408 8.73529C18.3849 8.08817 18.031 7.58602 17.3866 7.00781Z" fill="#036A2D"/>
<path fill-rule="evenodd" clip-rule="evenodd" d="M12.7751 8.86142C12.7751 8.86142 13.6445 8.2603 14.057 8.2603C14.4696 8.2603 15.0202 8.12261 15.1065 8.43887C15.1928 8.75513 15.356 8.66354 15.6755 8.66354C15.9951 8.66354 16.6229 8.66354 16.6229 8.66354C16.6229 8.66354 16.4354 8.2603 16.783 8.2603C17.1305 8.2603 18.5819 8.46566 19.02 8.66354C19.4581 8.86142 19.4801 8.97841 19.4801 8.97841C19.4801 8.97841 19.0747 8.74444 18.6262 8.86142C18.1776 8.97841 17.3641 9.49347 16.9935 9.49347C16.6229 9.49347 16.3264 9.8916 16.3264 9.8916C16.3264 9.8916 16.3508 9.68752 16.0132 9.78956C15.6755 9.8916 15.6834 10.3723 15.395 10.284C15.1065 10.1958 15.4781 9.49347 15.395 9.49347C15.3119 9.49347 14.7229 9.26263 14.7229 9.26263C14.7229 9.26263 14.1514 8.74444 13.3028 8.86142C12.4542 8.97841 12.7751 8.86142 12.7751 8.86142Z" fill="#452C24"/>
<path fill-rule="evenodd" clip-rule="evenodd" d="M15.8712 9.28945C16.0419 9.28945 16.1802 9.16694 16.1802 9.01582C16.1802 8.8647 16.0419 8.74219 15.8712 8.74219C15.7005 8.74219 15.5622 8.8647 15.5622 9.01582C15.5622 9.16694 15.7005 9.28945 15.8712 9.28945Z" fill="#E7E7E7"/>
<path fill-rule="evenodd" clip-rule="evenodd" d="M15.2037 9.00732C15.2037 9.00732 15.3036 8.81836 15.5017 8.81836C15.6998 8.81836 16.0711 8.81836 16.0711 8.91284C16.0711 9.00732 16.1009 9.13074 15.8013 9.13074C15.5017 9.13074 15.6937 9.00732 15.5017 9.00732C15.3097 9.00732 15.2037 9.00732 15.2037 9.00732Z" fill="#E8A30C"/>
<path fill-rule="evenodd" clip-rule="evenodd" d="M18.7363 10.2833C18.8514 10.1628 18.9158 9.87037 18.9158 9.87037C18.9158 9.87037 18.4016 9.95267 18.2819 9.87037C18.1622 9.78807 18.1001 9.54688 18.1001 9.54688C18.1001 9.54688 17.6369 9.75855 17.8135 9.75855C17.9902 9.75855 18.1001 9.9151 18.1001 9.9151L18.4596 10.0475C18.4596 10.0475 18.2209 10.2833 18.3403 10.2833C18.4596 10.2833 18.6212 10.4039 18.7363 10.2833Z" fill="#E1E5E8"/>
<path d="M17.8307 10.384L17.766 10.3067L18.2177 9.95312L18.2824 10.0305L17.8307 10.384Z" fill="#925229"/>
</g>
</g>
<defs>
<clipPath id="clip0_299_35483">
<rect width="32" height="24" fill="white"/>
</clipPath>
</defs>
</svg>
