<svg width="32" height="24" viewBox="0 0 32 24" fill="none" xmlns="http://www.w3.org/2000/svg">
<g clip-path="url(#clip0_299_35485)">
<rect width="32" height="24" fill="white"/>
<path fill-rule="evenodd" clip-rule="evenodd" d="M0 0H32V24H0V0Z" fill="white"/>
<path fill-rule="evenodd" clip-rule="evenodd" d="M0 10.9333V0H16L0 10.9333Z" fill="#FEDA00"/>
<path fill-rule="evenodd" clip-rule="evenodd" d="M0 24H32.009V0L0 24Z" fill="#00268D"/>
<mask id="path-4-inside-1_299_35485" fill="white">
<path d="M9.88086 6.13184C12.0258 6.38815 13.6948 8.18704 13.75 10.3877L14.707 10.8662L13.6631 11.3877C13.2896 13.2104 11.7894 14.6203 9.92188 14.8613L9.35352 16L8.78418 14.8613C6.91688 14.62 5.41635 13.2103 5.04297 11.3877L4 10.8662L4.95508 10.3887C5.00943 8.20015 6.66153 6.40913 8.78906 6.13672L9.35352 5L9.88086 6.13184Z"/>
</mask>
<path d="M9.88086 6.13184C12.0258 6.38815 13.6948 8.18704 13.75 10.3877L14.707 10.8662L13.6631 11.3877C13.2896 13.2104 11.7894 14.6203 9.92188 14.8613L9.35352 16L8.78418 14.8613C6.91688 14.62 5.41635 13.2103 5.04297 11.3877L4 10.8662L4.95508 10.3887C5.00943 8.20015 6.66153 6.40913 8.78906 6.13672L9.35352 5L9.88086 6.13184Z" fill="white"/>
<path d="M9.88086 6.13184L9.16296 6.46632L9.34914 6.86593L9.78689 6.91824L9.88086 6.13184ZM13.75 10.3877L12.9582 10.4075L12.9702 10.8833L13.3958 11.0961L13.75 10.3877ZM14.707 10.8662L15.061 11.5747L16.4787 10.8665L15.0612 10.1578L14.707 10.8662ZM13.6631 11.3877L13.3092 10.6792L12.9645 10.8513L12.8872 11.2287L13.6631 11.3877ZM9.92188 14.8613L9.82049 14.0758L9.40179 14.1299L9.21325 14.5076L9.92188 14.8613ZM9.35352 16L8.64513 16.3542L9.35412 17.7722L10.0621 16.3537L9.35352 16ZM8.78418 14.8613L9.49257 14.5071L9.30395 14.1299L8.88568 14.0759L8.78418 14.8613ZM5.04297 11.3877L5.81885 11.2287L5.74158 10.8515L5.39716 10.6793L5.04297 11.3877ZM4 10.8662L3.64581 10.1578L2.22903 10.8662L3.64581 11.5746L4 10.8662ZM4.95508 10.3887L5.30927 11.0971L5.73502 10.8842L5.74683 10.4083L4.95508 10.3887ZM8.78906 6.13672L8.88965 6.92231L9.30996 6.86849L9.49842 6.48896L8.78906 6.13672ZM9.35352 5L10.0714 4.66552L9.37624 3.17346L8.64416 4.64776L9.35352 5ZM9.88086 6.13184L9.78689 6.91824C11.5444 7.12826 12.913 8.60363 12.9582 10.4075L13.75 10.3877L14.5418 10.3679C14.4767 7.77045 12.5071 5.64803 9.97483 5.34543L9.88086 6.13184ZM13.75 10.3877L13.3958 11.0961L14.3528 11.5746L14.707 10.8662L15.0612 10.1578L14.1042 9.67931L13.75 10.3877ZM14.707 10.8662L14.3531 10.1577L13.3092 10.6792L13.6631 11.3877L14.017 12.0962L15.061 11.5747L14.707 10.8662ZM13.6631 11.3877L12.8872 11.2287C12.5813 12.7219 11.3505 13.8784 9.82049 14.0758L9.92188 14.8613L10.0233 15.6468C12.2283 15.3622 13.998 13.6989 14.439 11.5467L13.6631 11.3877ZM9.92188 14.8613L9.21325 14.5076L8.64489 15.6463L9.35352 16L10.0621 16.3537L10.6305 15.215L9.92188 14.8613ZM9.35352 16L10.0619 15.6458L9.49257 14.5071L8.78418 14.8613L8.07579 15.2155L8.64513 16.3542L9.35352 16ZM8.78418 14.8613L8.88568 14.0759C7.35572 13.8782 6.1247 12.7217 5.81885 11.2287L5.04297 11.3877L4.26708 11.5466C4.708 13.6989 6.47804 15.3619 8.68268 15.6468L8.78418 14.8613ZM5.04297 11.3877L5.39716 10.6793L4.35419 10.1578L4 10.8662L3.64581 11.5746L4.68878 12.0961L5.04297 11.3877ZM4 10.8662L4.35419 11.5746L5.30927 11.0971L4.95508 10.3887L4.60088 9.68029L3.64581 10.1578L4 10.8662ZM4.95508 10.3887L5.74683 10.4083C5.79138 8.6149 7.14586 7.14559 8.88965 6.92231L8.78906 6.13672L8.68847 5.35113C6.1772 5.67268 4.22749 7.7854 4.16332 10.369L4.95508 10.3887ZM8.78906 6.13672L9.49842 6.48896L10.0629 5.35224L9.35352 5L8.64416 4.64776L8.0797 5.78448L8.78906 6.13672ZM9.35352 5L8.63561 5.33448L9.16296 6.46632L9.88086 6.13184L10.5988 5.79735L10.0714 4.66552L9.35352 5Z" fill="black" mask="url(#path-4-inside-1_299_35485)"/>
<path fill-rule="evenodd" clip-rule="evenodd" d="M9.37578 8.30078L8.72675 9.38984H7.44666L8.08496 10.534L7.44666 11.6315H8.72675L9.37578 12.7512L10.0347 11.6315H11.3033L10.6806 10.534L11.3033 9.38984H10.0347L9.37578 8.30078Z" fill="#F00A17"/>
</g>
<defs>
<clipPath id="clip0_299_35485">
<rect width="32" height="24" fill="white"/>
</clipPath>
</defs>
</svg>
