<svg width="32" height="24" viewBox="0 0 32 24" fill="none" xmlns="http://www.w3.org/2000/svg">
<g clip-path="url(#clip0_299_35545)">
<rect width="32" height="24" fill="white"/>
<path fill-rule="evenodd" clip-rule="evenodd" d="M0 0H32V24H0V0Z" fill="#73BE4A"/>
<path fill-rule="evenodd" clip-rule="evenodd" d="M0 0V16H32V0H0Z" fill="#AF0100"/>
<rect width="6" height="24" fill="#F7FCFF"/>
<path d="M3.31238 2.23535L1.89636 4.31543L0.444214 2.23633L1.89636 0.0566406L3.31238 2.23535ZM1.05554 2.22852L1.89148 3.4248L2.70593 2.22852L1.89148 0.975586L1.05554 2.22852ZM1.99988 2.58008H1.74988V2.06445H1.99988V2.58008Z" fill="#B20000"/>
<path d="M1.81238 5.17578L1.1366 6.12109L0.444214 5.17578L1.1366 4.18555L1.81238 5.17578ZM0.832886 5.16797L1.14929 5.61719L1.46082 5.19336L1.14832 4.70312L0.832886 5.16797Z" fill="#B20000"/>
<path d="M3.31238 5.17578L2.6366 6.12109L1.94421 5.17578L2.6366 4.18555L3.31238 5.17578ZM2.33289 5.16797L2.64929 5.61719L2.96082 5.19336L2.64832 4.70312L2.33289 5.16797Z" fill="#B20000"/>
<path d="M4.31238 5.17578L3.6366 6.12109L2.94421 5.17578L3.6366 4.18555L4.31238 5.17578ZM3.33289 5.16797L3.64929 5.61719L3.96082 5.19336L3.64832 4.70312L3.33289 5.16797Z" fill="#B20000"/>
<path d="M5.81238 5.17578L5.1366 6.12109L4.44421 5.17578L5.1366 4.18555L5.81238 5.17578ZM4.83289 5.16797L5.14929 5.61719L5.46082 5.19336L5.14832 4.70312L4.83289 5.16797Z" fill="#B20000"/>
<path d="M5.81238 2.23535L4.39636 4.31543L2.94421 2.23633L4.39636 0.0566406L5.81238 2.23535ZM3.55554 2.22852L4.39148 3.4248L5.20593 2.22852L4.39148 0.975586L3.55554 2.22852ZM4.49988 2.58008H4.24988V2.06445H4.49988V2.58008Z" fill="#B20000"/>
<path d="M1.65621 12.406L0.0370483 9.68699L0.463008 9.4167L1.63679 11.3878L3.06901 8.75586L4.53682 11.3941L5.57391 9.67279L5.99849 9.94537L4.51973 12.3998L3.07383 9.80089L1.65621 12.406Z" fill="#B20000"/>
<path fill-rule="evenodd" clip-rule="evenodd" d="M0.75 0.515625H1.01882V1.03175H0.75V0.515625Z" fill="#B20000"/>
<path fill-rule="evenodd" clip-rule="evenodd" d="M3 0H3.26882V0.516129H3V0Z" fill="#B20000"/>
<path fill-rule="evenodd" clip-rule="evenodd" d="M5.25 0.515625H5.51882V1.03175H5.25V0.515625Z" fill="#B20000"/>
<path d="M1 4.12988H0.75V3.61328H1V4.12988ZM3.25 4.12988H3V3.61328H3.25V4.12988ZM5.5 4.12988H5.25V3.61328H5.5V4.12988Z" fill="#B20000"/>
<path d="M1 6.70996H0.75V6.19336H1V6.70996ZM3.25 6.70996H3V6.19336H3.25V6.70996ZM5.5 6.70996H5.25V6.19336H5.5V6.70996Z" fill="#B20000"/>
<path d="M5.62921 8.03711L3.9173 8.95508L4.44171 7.86523L4.24933 7.42188L3.12921 9.23828V9.4541L3.06281 9.3457L2.9964 9.4541V9.23828L1.87628 7.42188L1.6839 7.86523L2.20831 8.95508L0.496399 8.03711L1.87628 5.88086L3.06281 7.75977L4.24933 5.88086L5.62921 8.03711Z" fill="#B20000"/>
<path d="M3.25 13.6768H3V13.1611H3.25V13.6768ZM3.25 12.1289H3.5V12.6445H3.25V12.3867H3V12.6445H2.75V12.1289H3V11.8701H3.25V12.1289ZM0.75 12.3867H0.5V11.8701H0.75V12.3867ZM2.5 12.3867H2.25V11.8701H2.5V12.3867ZM4 12.3867H3.75V11.8701H4V12.3867ZM5.75 12.3867H5.5V11.8701H5.75V12.3867ZM3 11.8701H2.75V11.3545H3V11.8701ZM3.5 11.8701H3.25V11.3545H3.5V11.8701ZM3.25 11.0967H3V10.5801H3.25V11.0967Z" fill="#B20000"/>
<path d="M3.31238 21.7646L1.89636 19.6846L0.444214 21.7637L1.89636 23.9434L3.31238 21.7646ZM1.05554 21.7715L1.89148 20.5752L2.70593 21.7715L1.89148 23.0244L1.05554 21.7715ZM1.99988 21.4199H1.74988V21.9355H1.99988V21.4199Z" fill="#B20000"/>
<path d="M1.81238 18.8242L1.1366 17.8789L0.444214 18.8242L1.1366 19.8145L1.81238 18.8242ZM0.832886 18.832L1.14929 18.3828L1.46082 18.8066L1.14832 19.2969L0.832886 18.832Z" fill="#B20000"/>
<path d="M3.31238 18.8242L2.6366 17.8789L1.94421 18.8242L2.6366 19.8145L3.31238 18.8242ZM2.33289 18.832L2.64929 18.3828L2.96082 18.8066L2.64832 19.2969L2.33289 18.832Z" fill="#B20000"/>
<path d="M4.31238 18.8242L3.6366 17.8789L2.94421 18.8242L3.6366 19.8145L4.31238 18.8242ZM3.33289 18.832L3.64929 18.3828L3.96082 18.8066L3.64832 19.2969L3.33289 18.832Z" fill="#B20000"/>
<path d="M5.81238 18.8242L5.1366 17.8789L4.44421 18.8242L5.1366 19.8145L5.81238 18.8242ZM4.83289 18.832L5.14929 18.3828L5.46082 18.8066L5.14832 19.2969L4.83289 18.832Z" fill="#B20000"/>
<path d="M5.81238 21.7646L4.39636 19.6846L2.94421 21.7637L4.39636 23.9434L5.81238 21.7646ZM3.55554 21.7715L4.39148 20.5752L5.20593 21.7715L4.39148 23.0244L3.55554 21.7715ZM4.49988 21.4199H4.24988V21.9355H4.49988V21.4199Z" fill="#B20000"/>
<path d="M1.65621 11.594L0.0370483 14.313L0.463008 14.5833L1.63679 12.6122L3.06901 15.2441L4.53682 12.6059L5.57391 14.3272L5.99849 14.0546L4.51973 11.6002L3.07383 14.1991L1.65621 11.594Z" fill="#B20000"/>
<path fill-rule="evenodd" clip-rule="evenodd" d="M0.75 23.4844H1.01882V22.9682H0.75V23.4844Z" fill="#B20000"/>
<path fill-rule="evenodd" clip-rule="evenodd" d="M3 24H3.26882V23.4839H3V24Z" fill="#B20000"/>
<path fill-rule="evenodd" clip-rule="evenodd" d="M5.25 23.4844H5.51882V22.9682H5.25V23.4844Z" fill="#B20000"/>
<path d="M1 19.8701H0.75V20.3867H1V19.8701ZM3.25 19.8701H3V20.3867H3.25V19.8701ZM5.5 19.8701H5.25V20.3867H5.5V19.8701Z" fill="#B20000"/>
<path d="M1 17.29H0.75V17.8066H1V17.29ZM3.25 17.29H3V17.8066H3.25V17.29ZM5.5 17.29H5.25V17.8066H5.5V17.29Z" fill="#B20000"/>
<path d="M5.62921 16.1113L3.9173 15.1934L4.44171 16.2832L4.24933 16.7266L3.12921 14.9102V14.6943L3.06281 14.8027L2.9964 14.6943V14.9102L1.87628 16.7266L1.6839 16.2832L2.20831 15.1934L0.496399 16.1113L1.87628 18.2676L3.06281 16.3887L4.24933 18.2676L5.62921 16.1113Z" fill="#B20000"/>
</g>
<defs>
<clipPath id="clip0_299_35545">
<rect width="32" height="24" fill="white"/>
</clipPath>
</defs>
</svg>
