<svg width="32" height="24" viewBox="0 0 32 24" fill="none" xmlns="http://www.w3.org/2000/svg">
<g clip-path="url(#clip0_299_35547)">
<rect width="32" height="24" fill="white"/>
<path fill-rule="evenodd" clip-rule="evenodd" d="M0 0V24H32V0H0Z" fill="#0168B4"/>
<mask id="mask0_299_35547" style="mask-type:luminance" maskUnits="userSpaceOnUse" x="0" y="0" width="32" height="24">
<path fill-rule="evenodd" clip-rule="evenodd" d="M0 0V24H32V0H0Z" fill="white"/>
</mask>
<g mask="url(#mask0_299_35547)">
<path fill-rule="evenodd" clip-rule="evenodd" d="M0 0V3H32V0H0Z" fill="#E93C43"/>
<path fill-rule="evenodd" clip-rule="evenodd" d="M0 21V24H32V21H0Z" fill="#E93C43"/>
<path d="M16 18C12.6863 18 10 15.3137 10 12C10 8.68629 12.6863 6 16 6C19.3137 6 22 8.68629 22 12C22 15.3137 19.3137 18 16 18Z" fill="#F7FCFF"/>
<path d="M16 20C11.5817 20 8 16.4183 8 12C8 7.58172 11.5817 4 16 4C20.4183 4 24 7.58172 24 12C24 16.4183 20.4183 20 16 20Z" fill="white"/>
<path fill-rule="evenodd" clip-rule="evenodd" d="M16 19C19.866 19 23 15.866 23 12C23 8.13401 19.866 5 16 5C12.134 5 9 8.13401 9 12C9 15.866 12.134 19 16 19Z" stroke="#9C4C17" stroke-width="0.5"/>
<path d="M16.5206 18.4717C16.2677 18.6038 16.1682 18.748 16.168 18.9365C16.168 19.1271 16.2648 19.4418 16.5206 19.5811L16.3653 19.916C15.882 19.6536 15.418 19.4224 15.418 18.9365C15.4183 18.4489 15.8791 18.3798 16.3653 18.126L16.5206 18.4717ZM14.6729 18.3613C14.3934 18.4186 14.2573 18.5288 14.2051 18.71C14.1526 18.8933 14.1594 19.2234 14.3672 19.4277L14.1251 19.7061C13.7329 19.3206 13.3506 18.971 13.4844 18.5039C13.619 18.0348 14.0816 18.0955 14.6192 17.9854L14.6729 18.3613ZM18.3262 18.0566C18.1196 18.2533 18.0635 18.4193 18.1153 18.6006C18.1678 18.7838 18.3476 19.0597 18.6319 19.123L18.5753 19.4883C18.0382 19.3692 17.5286 19.2748 17.3946 18.8076C17.2601 18.3385 17.6845 18.1449 18.0821 17.7666L18.3262 18.0566ZM11.7559 17.5352C12.0217 17.1258 12.4469 17.3192 12.9932 17.3711L12.9346 17.7461C12.6505 17.7191 12.4876 17.7852 12.3848 17.9434C12.281 18.1033 12.1912 18.4206 12.3301 18.6768L12.0176 18.873C11.7552 18.3896 11.4912 17.9428 11.7559 17.5352ZM19.9297 17.1455C19.7896 17.3941 19.7832 17.5693 19.8858 17.7275C19.9896 17.8874 20.2428 18.0989 20.5333 18.0762L20.586 18.4414C20.0376 18.4845 19.5216 18.5434 19.2569 18.1357C18.9916 17.7266 19.3409 17.4173 19.6104 16.9395L19.9297 17.1455ZM10.3643 16.126C10.7326 15.8059 11.0879 16.1091 11.5987 16.3096L11.4385 16.6533C11.1729 16.5492 10.9989 16.5686 10.8565 16.6924C10.7126 16.8175 10.5386 17.0973 10.6016 17.3818L10.2471 17.4844C10.1281 16.9473 9.99746 16.4449 10.3643 16.126ZM21.2237 15.8213C21.1575 16.0989 21.2004 16.2688 21.3428 16.3926C21.4867 16.5176 21.7877 16.6507 22.0606 16.5488L22.212 16.8857C21.6967 17.0783 21.2175 17.2777 20.8506 16.959C20.4823 16.6388 20.733 16.2447 20.8604 15.7109L21.2237 15.8213ZM9.42487 14.3809C9.86719 14.1746 10.1248 14.564 10.5606 14.8975L10.3126 15.1846C10.0858 15.011 9.91328 14.9808 9.74225 15.0605C9.56942 15.1411 9.32549 15.3624 9.30768 15.6533H8.93854C8.97213 15.1045 8.98479 14.5863 9.42487 14.3809ZM22.0919 14.1846C22.1048 14.4696 22.1934 14.6214 22.3643 14.7012C22.5372 14.7817 22.8635 14.8265 23.0977 14.6533L23.336 14.9355C22.8938 15.2627 22.4875 15.5863 22.0469 15.3809C21.6048 15.1746 21.7376 14.7268 21.713 14.1787L22.0919 14.1846ZM9.02545 12.4404C9.50876 12.3725 9.64171 12.8202 9.961 13.2666L9.63971 13.4688C9.47357 13.2365 9.31683 13.1573 9.12994 13.1836C8.94111 13.2101 8.64316 13.3501 8.54108 13.623L8.18756 13.5156C8.38024 13.0004 8.54415 12.5081 9.02545 12.4404ZM22.4532 12.376C22.5489 12.6449 22.6775 12.7638 22.8643 12.79C23.0532 12.8165 23.3785 12.7644 23.5518 12.5303L23.8614 12.7305C23.5342 13.1726 23.2411 13.6007 22.7598 13.5332C22.2765 13.4653 22.2718 12.9985 22.088 12.4814L22.4532 12.376ZM9.17877 10.4648C9.662 10.5328 9.66685 10.9996 9.85065 11.5166L9.48541 11.6221C9.38975 11.3534 9.26103 11.2343 9.07428 11.208C8.88539 11.1816 8.56004 11.2337 8.38678 11.4678L8.07721 11.2676C8.40434 10.8255 8.69768 10.3975 9.17877 10.4648ZM23.751 10.4824C23.5583 10.9977 23.3945 11.49 22.9131 11.5576C22.4298 11.6255 22.2969 11.1778 21.9776 10.7314L22.2989 10.5303C22.465 10.7625 22.6218 10.8416 22.8087 10.8154C22.9974 10.7889 23.2953 10.6487 23.3975 10.376L23.751 10.4824ZM8.60358 9.06348C9.04578 8.73631 9.45116 8.41275 9.89166 8.61816C10.3335 8.82443 10.2011 9.27144 10.2256 9.81934L9.84674 9.81445C9.8339 9.52917 9.74532 9.37761 9.57428 9.29785C9.40144 9.21727 9.07516 9.17237 8.84088 9.3457L8.60358 9.06348ZM23.0001 8.34473C22.9664 8.89375 22.9542 9.41275 22.5137 9.61816C22.0715 9.82438 21.8137 9.43501 21.378 9.10156L21.626 8.81445C21.8526 8.98777 22.0255 9.01801 22.1964 8.93848C22.3691 8.85791 22.614 8.63648 22.6319 8.3457L23.0001 8.34473ZM9.72662 7.1123C10.2419 6.91968 10.7211 6.72114 11.088 7.04004C11.4561 7.36017 11.2056 7.75348 11.0782 8.28711L10.7149 8.17773C10.7812 7.89997 10.7382 7.72928 10.5958 7.60547C10.4518 7.48048 10.1507 7.34746 9.87799 7.44922L9.72662 7.1123ZM21.6915 6.51465C21.8105 7.05163 21.941 7.55322 21.5743 7.87207C21.2061 8.19215 20.8515 7.8899 20.3409 7.68945L20.5001 7.34473C20.7656 7.44886 20.9398 7.43015 21.0821 7.30664C21.226 7.18158 21.3999 6.90164 21.337 6.61719L21.6915 6.51465ZM11.3526 5.55664C11.901 5.51351 12.417 5.45464 12.6817 5.8623C12.9473 6.2715 12.5977 6.58072 12.3282 7.05859L12.0098 6.85254C12.1498 6.60407 12.1555 6.42868 12.0528 6.27051C11.949 6.1106 11.6958 5.90007 11.4053 5.92285L11.3526 5.55664ZM19.921 5.125C20.1834 5.6084 20.4472 6.05528 20.1827 6.46289C19.9169 6.87221 19.4917 6.67882 18.9454 6.62695L19.004 6.25195C19.2883 6.27894 19.451 6.21296 19.5538 6.05469C19.6576 5.89474 19.7475 5.5774 19.6085 5.32129L19.921 5.125ZM13.3633 4.51074C13.9003 4.62983 14.411 4.72326 14.545 5.19043C14.6795 5.65958 14.2541 5.85315 13.8565 6.23145L13.6124 5.94141C13.8191 5.74466 13.8753 5.57879 13.8233 5.39746C13.7708 5.21423 13.591 4.93824 13.3067 4.875L13.3633 4.51074ZM17.8135 4.29199C18.2058 4.67755 18.5891 5.02792 18.4551 5.49512C18.3205 5.96398 17.8569 5.90258 17.3194 6.0127L17.2657 5.6377C17.5454 5.5804 17.6814 5.46939 17.7335 5.28809C17.786 5.10478 17.7792 4.77558 17.5714 4.57129L17.8135 4.29199ZM15.5733 4.08203C16.0566 4.3445 16.5206 4.57553 16.5206 5.06152C16.5205 5.54938 16.0596 5.61822 15.5733 5.87207L15.418 5.52637C15.6709 5.39421 15.7706 5.25016 15.7706 5.06152C15.7706 4.8709 15.6739 4.55615 15.418 4.41699L15.5733 4.08203Z" fill="#5B8C39"/>
<path fill-rule="evenodd" clip-rule="evenodd" d="M12.2788 13.9861C12.2788 13.9861 11.179 13.9621 11.179 14.4674C11.179 14.9727 11.179 15.5324 11.7289 15.2525C12.2788 14.9727 12.9511 14.8621 13.3067 15.0573C13.6623 15.2525 14.4909 15.6492 15.659 15.6492C16.827 15.6492 16.7491 15.2525 17.8248 15.2525C18.9006 15.2525 20.8212 15.1669 20.3764 14.8171C19.9316 14.4674 19.4081 14.246 19.0084 14.246C18.6087 14.246 18.3023 14.246 17.4619 13.8342C16.6216 13.4223 15.6834 13.385 14.7381 13.5178C13.7928 13.6506 13.668 13.9861 13.109 13.9861C12.5499 13.9861 12.2788 13.9861 12.2788 13.9861Z" fill="#247805"/>
<path d="M18.3764 10.4492V13.1914C18.3763 14.2271 17.8079 14.9078 17.2631 15.3184C16.9913 15.5231 16.721 15.6645 16.519 15.7549C16.4177 15.8002 16.3325 15.8337 16.2719 15.8555C16.2416 15.8664 16.2168 15.8743 16.1996 15.8799C16.1912 15.8826 16.184 15.8852 16.1791 15.8867C16.1769 15.8874 16.1747 15.8873 16.1733 15.8877L16.1713 15.8887L16.0971 15.9111L16.0239 15.8877L16.1 15.6494L16.0229 15.8867H16.0209C16.0196 15.8863 16.0173 15.8855 16.0151 15.8848C16.0102 15.8831 16.0031 15.8799 15.9946 15.877C15.9775 15.871 15.9534 15.8622 15.9233 15.8506C15.863 15.8274 15.7782 15.7926 15.6772 15.7451C15.4758 15.6505 15.2061 15.5039 14.935 15.2959C14.3938 14.8807 13.8238 14.2011 13.8237 13.1914V10.4492H18.3764Z" fill="white" stroke="#565656" stroke-width="0.5"/>
<mask id="mask1_299_35547" style="mask-type:luminance" maskUnits="userSpaceOnUse" x="13" y="10" width="6" height="7">
<path d="M18.3764 10.4492V13.1914C18.3763 14.2271 17.8079 14.9078 17.2631 15.3184C16.9913 15.5231 16.721 15.6645 16.519 15.7549C16.4177 15.8002 16.3325 15.8337 16.2719 15.8555C16.2416 15.8664 16.2168 15.8743 16.1996 15.8799C16.1912 15.8826 16.184 15.8852 16.1791 15.8867C16.1769 15.8874 16.1747 15.8873 16.1733 15.8877L16.1713 15.8887L16.0971 15.9111L16.0239 15.8877L16.1 15.6494L16.0229 15.8867H16.0209C16.0196 15.8863 16.0173 15.8855 16.0151 15.8848C16.0102 15.8831 16.0031 15.8799 15.9946 15.877C15.9775 15.871 15.9534 15.8622 15.9233 15.8506C15.863 15.8274 15.7782 15.7926 15.6772 15.7451C15.4758 15.6505 15.2061 15.5039 14.935 15.2959C14.3938 14.8807 13.8238 14.2011 13.8237 13.1914V10.4492H18.3764Z" fill="white" stroke="white" stroke-width="0.5"/>
</mask>
<g mask="url(#mask1_299_35547)">
<path opacity="0.4" fill-rule="evenodd" clip-rule="evenodd" d="M14.1968 13.9085L16.1301 12.4844L18.163 14.07V16.3268H14.1968V13.9085Z" fill="#84CEFF"/>
<path fill-rule="evenodd" clip-rule="evenodd" d="M14.2579 14.4121H17.85V14.9121H14.2579V14.4121Z" fill="#006AC9"/>
<path fill-rule="evenodd" clip-rule="evenodd" d="M14.4421 14.9062H17.7579V15.1714H14.4421V14.9062Z" fill="#59C800"/>
<path fill-rule="evenodd" clip-rule="evenodd" d="M14.4421 15.2363H17.7579V15.7363H14.4421V15.2363Z" fill="#FFD800"/>
<path fill-rule="evenodd" clip-rule="evenodd" d="M18.7263 14.5096L16.1361 12.5316L16.1361 9.86133H18.7263V14.5096Z" fill="#F7D85D"/>
<path fill-rule="evenodd" clip-rule="evenodd" d="M15.5474 13.4209C15.5474 13.4209 15.6292 13.8458 15.6919 13.8458C15.7545 13.8458 15.8677 13.4209 15.8677 13.4209C15.8677 13.4209 15.8811 13.8458 15.9441 13.8458C16.0072 13.8458 15.9994 13.4897 16.1 13.4209C16.1364 13.396 16.1824 13.8436 16.2384 13.8458C16.2854 13.8476 16.4004 13.4209 16.4004 13.4209C16.4004 13.4209 16.4352 13.8458 16.4895 13.8458C16.5439 13.8458 16.6526 13.4209 16.6526 13.4209V14.4934H15.5474V13.4209Z" fill="#F5F6F6"/>
<path fill-rule="evenodd" clip-rule="evenodd" d="M16.1 14.8396C16.6596 14.8396 17.1132 14.7439 17.1132 14.6259C17.1132 14.5078 16.6596 14.4121 16.1 14.4121C15.5405 14.4121 15.0869 14.5078 15.0869 14.6259C15.0869 14.7439 15.5405 14.8396 16.1 14.8396Z" fill="#892E2E"/>
<path d="M14.2894 11.104L14.4977 10.9414L15.8985 12.3809L15.6902 12.5435L14.2894 11.104Z" fill="#A46031"/>
<path d="M14.5146 12.7657L14.2934 12.6174L15.6557 10.9863L15.8769 11.1346L14.5146 12.7657Z" fill="#892E2E"/>
<path d="M16.4078 11.3166L16.6161 11.1875L18.0169 12.3305L17.8086 12.4596L16.4078 11.3166Z" fill="#A46031"/>
<path d="M16.7009 12.4848L16.4417 12.3087L17.7741 11.2344L18.0582 11.4684L16.7009 12.4848Z" fill="#F5F6F6"/>
</g>
<path fill-rule="evenodd" clip-rule="evenodd" d="M14.5668 16.5332L15.2173 16.737V17.2984H14.5668V16.5332Z" fill="#6699FF"/>
<path fill-rule="evenodd" clip-rule="evenodd" d="M14.1022 15.3848L14.4682 15.5885V16.15H14.1022V15.3848Z" fill="#6699FF"/>
<path fill-rule="evenodd" clip-rule="evenodd" d="M17.5402 16.5332L16.8897 16.737V17.2984H17.5402V16.5332Z" fill="#6699FF"/>
<path fill-rule="evenodd" clip-rule="evenodd" d="M18.0048 15.3848L17.6388 15.5885V16.15H18.0048V15.3848Z" fill="#6699FF"/>
<path d="M13.7478 16.5746C13.6287 16.5746 13.5296 16.5774 13.4163 16.5828C13.1417 16.596 13.1244 16.5957 13.0486 16.5645C13.003 16.5458 12.9576 16.5156 12.8922 16.4619C12.7371 16.3346 12.57 16.0421 12.3885 15.5832L12.3891 15.5639C12.613 15.0797 13.0735 15.0198 13.7583 15.3786C13.9387 15.4732 14.4647 15.759 14.4604 15.7567C14.6996 15.8848 14.8673 15.9668 15.0322 16.0332C15.374 16.1708 15.6964 16.2332 16.1097 16.2332C16.3579 16.2332 16.6455 16.1627 16.9809 16.0295C17.1747 15.9525 17.3764 15.8585 17.6224 15.7336C17.6548 15.7172 18.1695 15.4495 18.2968 15.3883C18.5195 15.2811 18.6664 15.2291 18.7677 15.2291C18.7952 15.2291 18.8166 15.229 18.8701 15.2287C18.9626 15.2282 19.0065 15.2281 19.06 15.2287C19.5536 15.2348 19.7973 15.317 19.7973 15.5742C19.7973 15.8171 19.6393 16.1467 19.3243 16.5654L19.309 16.5744C18.6858 16.6585 18.3244 16.6585 18.2132 16.5696C18.1829 16.5454 18.0998 16.5564 17.9471 16.6054C17.8779 16.6276 17.5074 16.76 17.3929 16.798C16.9164 16.956 16.508 17.0408 16.0921 17.0408C15.4586 17.0408 14.7654 16.7951 14.0122 16.3043C14.1487 16.4778 14.0623 16.5746 13.7478 16.5746Z" fill="white"/>
<path fill-rule="evenodd" clip-rule="evenodd" d="M12.3895 15.5633C12.6135 15.0796 13.074 15.02 13.7587 15.3787C13.9387 15.4731 14.4608 15.7566 14.4608 15.7566C14.6998 15.8845 14.8673 15.9667 15.0321 16.033C15.3738 16.1706 15.6961 16.2332 16.1093 16.2332C16.3575 16.2332 16.6459 16.1623 16.9813 16.0291C17.1749 15.9522 17.3763 15.8579 17.6219 15.7332C17.6543 15.7168 18.1692 15.4499 18.2968 15.3885C18.5193 15.2814 18.6662 15.2294 18.7675 15.2293C18.795 15.2293 18.8166 15.2286 18.87 15.2283C18.9626 15.2278 19.007 15.2277 19.0604 15.2283C19.5538 15.2344 19.7977 15.317 19.7977 15.574C19.7977 15.8169 19.639 16.1466 19.3241 16.5652L19.3094 16.574C18.6863 16.658 18.3239 16.658 18.2128 16.5691C18.1821 16.5454 18.0991 16.5566 17.9471 16.6053C17.878 16.6274 17.507 16.7597 17.3925 16.7977C16.9161 16.9556 16.5075 17.0408 16.0917 17.0408C15.4585 17.0407 14.7655 16.795 14.0126 16.3045C14.1486 16.4777 14.0621 16.574 13.7479 16.574C13.6289 16.574 13.5292 16.5774 13.4159 16.5828C13.1417 16.5959 13.1244 16.5954 13.0487 16.5643C13.0032 16.5455 12.9578 16.5153 12.8925 16.4617C12.7374 16.3344 12.57 16.0417 12.3885 15.5828L12.3895 15.5633ZM13.7372 15.4207C13.0776 15.0751 12.6475 15.1286 12.4354 15.575C12.6124 16.0209 12.7748 16.3047 12.9208 16.4246C12.9829 16.4756 13.0258 16.5037 13.0663 16.5203C13.1324 16.5474 13.1499 16.5476 13.4139 16.535C13.5279 16.5295 13.6281 16.5262 13.7479 16.5262C14.1239 16.5261 14.1239 16.4067 13.7343 16.1141L13.7606 16.075C14.6145 16.6872 15.3919 16.9929 16.0917 16.993C16.5019 16.993 16.9065 16.9093 17.3788 16.7527C17.4925 16.715 17.8634 16.5818 17.9335 16.5594C18.1032 16.505 18.1939 16.4935 18.2421 16.532C18.3386 16.6084 18.6932 16.6086 19.2938 16.5281C19.599 16.121 19.7508 15.8021 19.7509 15.574C19.7509 15.3577 19.527 15.2819 19.0594 15.2762C19.0064 15.2755 18.9623 15.2756 18.87 15.2762C18.8167 15.2765 18.7951 15.2771 18.7675 15.2771C18.6754 15.2772 18.5327 15.3273 18.3163 15.4314C18.1895 15.4925 17.6754 15.7594 17.6425 15.7762C17.3956 15.9015 17.1931 15.9965 16.9979 16.074C16.6576 16.2091 16.3642 16.2811 16.1093 16.2811C15.6905 16.281 15.3625 16.2176 15.0155 16.0779C14.8488 16.0108 14.6798 15.9274 14.4393 15.7986C14.4393 15.7986 13.9165 15.5147 13.7372 15.4207Z" fill="#666666"/>
<path d="M13.0283 15.8065L12.9611 15.7404C13.1126 15.5772 13.3134 15.5361 13.5551 15.616C13.6492 15.6471 14.2617 16.0012 14.4253 16.0843C15.0232 16.3878 15.5923 16.5573 16.1968 16.5573C17.0659 16.5573 17.9054 16.2829 18.7129 15.7358C19.0181 15.4884 19.2091 15.4884 19.2091 15.7734H19.1161C19.1161 15.6034 19.0264 15.6034 18.7672 15.8134C17.9417 16.3728 17.0846 16.6529 16.1968 16.6529C15.5761 16.6529 14.9938 16.4795 14.3842 16.17C14.2128 16.083 13.6102 15.7347 13.5267 15.7071C13.3172 15.6379 13.1538 15.6713 13.0283 15.8065Z" fill="#565757"/>
<path d="M16.4899 6.94336C16.4945 7.73563 16.3112 8.25511 15.9254 8.49512C15.8872 8.51891 15.8365 8.54553 15.7848 8.5752C15.8116 8.66612 15.8229 8.73197 15.8229 8.7998V8.85156C15.9052 9.01951 15.9542 9.24021 15.9713 9.51367C16.0245 9.44793 16.0847 9.39136 16.1539 9.34668C16.4298 9.16869 16.5846 9.00542 16.6217 8.86328L16.7975 8.90234C16.7479 9.09234 16.5661 9.28332 16.2574 9.48242C16.1336 9.5623 16.0406 9.69186 15.9772 9.87012C15.9711 10.0894 15.9501 10.3336 15.9137 10.6025L15.8815 10.5986C15.8817 10.6159 15.881 10.6338 15.8815 10.6514L15.6998 10.6543C15.6995 10.6389 15.7 10.6236 15.6998 10.6084H15.6422V10.6025L15.6119 10.6123C15.6104 10.608 15.6086 10.6039 15.6071 10.5996L15.5524 10.6182C15.4459 10.344 15.3554 10.1389 15.2819 10.0039C15.2467 9.93947 15.2163 9.89179 15.191 9.8623C15.182 9.85174 15.174 9.84395 15.1686 9.83984C15.1704 9.84027 15.176 9.84176 15.1842 9.8418V9.67578C15.2403 9.67594 15.2955 9.71288 15.3551 9.79004C15.2784 9.49589 15.2389 9.26105 15.2389 9.08398C15.2389 8.80245 15.2527 8.72268 15.3444 8.64453C15.2987 8.63172 15.2501 8.62402 15.1979 8.62402C14.5685 8.62401 14.1139 8.45224 13.8444 8.10547L13.9918 8.00879C14.2236 8.30703 14.6223 8.45799 15.1979 8.45801C15.3217 8.45801 15.4301 8.48259 15.524 8.53027C15.5395 8.52153 15.5555 8.51219 15.5719 8.50293C15.5409 8.41653 15.4985 8.30741 15.4401 8.16406C15.432 8.14421 15.4325 8.14391 15.4244 8.12402C15.1891 7.545 15.1416 7.3053 15.359 7.17676L15.4576 7.31641C15.359 7.37468 15.4012 7.59345 15.5934 8.06641C15.6014 8.08602 15.602 8.08586 15.61 8.10547C15.6605 8.22924 15.6986 8.32901 15.7291 8.41113C15.7645 8.39061 15.7981 8.37345 15.8239 8.35742C16.1476 8.15594 16.3136 7.68673 16.3092 6.94434L16.4899 6.94336ZM15.4869 8.74707C15.4267 8.79088 15.4196 8.82418 15.4196 9.08398C15.4196 9.3156 15.4943 9.6668 15.6422 10.1357V8.89062C15.6054 8.82539 15.5608 8.77364 15.5114 8.73242C15.4992 8.73952 15.4905 8.74446 15.4869 8.74707Z" fill="#984800"/>
<path fill-rule="evenodd" clip-rule="evenodd" d="M15.8723 9.55707C15.9291 9.31136 16.3297 9.19421 16.7679 9.29535C17.2059 9.39652 17.515 9.67759 17.4583 9.92328C17.4013 10.1687 17.0005 10.2859 16.5628 10.185C16.1248 10.0839 15.8159 9.80272 15.8723 9.55707ZM14.6321 9.05707C15.128 8.99619 15.5524 9.13129 15.5804 9.35883C15.6082 9.58633 15.2294 9.82038 14.7337 9.88129C14.2381 9.94214 13.8138 9.80686 13.7854 9.57953C13.7575 9.35202 14.1363 9.11799 14.6321 9.05707ZM15.8372 8.57074C15.8853 8.3232 16.4613 8.22721 17.1233 8.3559C17.7852 8.48459 18.2826 8.78907 18.2347 9.03656C18.1865 9.28411 17.6106 9.38108 16.9485 9.25238C16.2867 9.12366 15.7892 8.81823 15.8372 8.57074ZM14.3792 7.64301C14.9287 7.6526 15.3709 7.86548 15.3665 8.11762C15.3618 8.36962 14.9128 8.56568 14.3636 8.5561C13.8141 8.54647 13.3719 8.33458 13.3763 8.08246C13.3808 7.83046 13.83 7.63353 14.3792 7.64301ZM16.6018 6.36664C16.9962 6.42922 17.29 6.64544 17.2581 6.84906C17.2518 6.88881 17.2306 6.92321 17.2024 6.95551C17.3975 6.89652 17.669 6.90682 17.9466 7.00238C18.4187 7.16509 18.7285 7.50797 18.639 7.76801C18.5491 8.02784 18.0935 8.10637 17.6214 7.94379C17.5645 7.92418 17.5101 7.90176 17.4583 7.87738C17.3311 8.07537 16.9737 8.18038 16.5774 8.11762C16.109 8.04331 15.7642 7.76318 15.8069 7.49164C15.85 7.21993 16.2649 7.05997 16.7337 7.13422C16.8014 7.14495 16.8663 7.16046 16.928 7.17914H16.929C16.9413 7.14326 16.9603 7.11032 16.9856 7.08149C16.8484 7.1224 16.6724 7.13463 16.4847 7.10492C16.2765 7.07196 16.0968 6.99578 15.9778 6.9018C15.986 6.92613 15.9919 6.95057 15.9915 6.97602C15.9875 7.2052 15.6197 7.38518 15.1702 7.37738C14.7206 7.36954 14.3596 7.17691 14.3636 6.9477C14.3676 6.71848 14.7353 6.53946 15.1848 6.54731C15.4587 6.55214 15.6994 6.62549 15.845 6.73383C15.8304 6.69671 15.8225 6.65983 15.8284 6.6225C15.8611 6.41898 16.2074 6.30416 16.6018 6.36664ZM13.4593 7.00727C13.8085 6.81372 14.1724 6.80289 14.2727 6.98285C14.3727 7.16327 14.171 7.46681 13.8216 7.66059C13.472 7.85435 13.1072 7.86545 13.0071 7.685C12.9071 7.50455 13.1097 7.20104 13.4593 7.00727Z" fill="#247805"/>
<path fill-rule="evenodd" clip-rule="evenodd" d="M12.2451 10.9375C12.2451 10.9375 11.9322 13.9077 11.9322 14.3102C11.9322 14.7127 12.508 14.3102 12.508 14.3102C12.508 14.3102 12.5926 12.8918 12.7886 12.3649C12.9847 11.8379 13.0773 12.4168 13.0773 12.7245C13.0773 13.0321 13.0773 14.4713 13.0773 14.4713C13.0773 14.4713 13.7939 14.5688 13.7939 14.3102C13.7939 14.0515 13.4957 10.9375 13.4957 10.9375H12.4119H12.2451Z" fill="white"/>
<path d="M13.5395 10.9346C13.5401 10.9406 13.5406 10.9409 13.5434 10.9697C13.5471 11.009 13.5466 11.0093 13.5522 11.0684C13.5624 11.1754 13.5741 11.2954 13.5864 11.4248C13.6213 11.7948 13.6563 12.1696 13.6889 12.5244C13.6937 12.5767 13.6938 12.5772 13.6987 12.6299C13.7864 13.5872 13.8382 14.1986 13.8383 14.3105C13.8383 14.522 13.5734 14.5821 13.0707 14.5137L13.0336 14.5078V12.7256C13.0336 12.5536 13.0061 12.3477 12.9653 12.2471C12.9304 12.1614 12.9081 12.1714 12.8305 12.3799C12.7016 12.7264 12.6083 13.3718 12.5522 14.3135L12.5512 14.333L12.5336 14.3447C12.1264 14.6293 11.8881 14.6289 11.8881 14.3105C11.8882 14.0394 11.9929 12.916 12.2016 10.9346L12.2055 10.8965H13.5356L13.5395 10.9346ZM12.2846 10.9805C12.0791 12.9334 11.9761 14.0453 11.976 14.3105C11.976 14.5254 12.1171 14.5293 12.4653 14.2891C12.522 13.3504 12.6159 12.7052 12.7475 12.3516C12.847 12.0843 12.9721 12.0326 13.0473 12.2178C13.0928 12.33 13.1215 12.5443 13.1215 12.7256V14.4355C13.5483 14.4894 13.7495 14.4402 13.7495 14.3105C13.7493 14.2025 13.6978 13.5872 13.6108 12.6367C13.6059 12.5839 13.6059 12.5839 13.601 12.5312C13.5684 12.1766 13.5334 11.8026 13.4985 11.4326C13.4862 11.3031 13.4745 11.1832 13.4643 11.0762C13.4588 11.0185 13.459 11.0167 13.4555 10.9805H12.2846Z" fill="#979797"/>
<path fill-rule="evenodd" clip-rule="evenodd" d="M11.2067 9.91708C11.2067 9.91708 11.4524 10.8016 11.5612 10.8016C11.6699 10.8016 12.3302 10.2588 12.3302 10.2588V10.9956H13.5605V10.6692L13.7183 10.9956L13.9334 10.895L14.3056 10.4563H13.9334C13.9334 10.4563 13.8253 9.75191 13.8253 9.64051C13.8253 9.52912 13.8297 9.30875 13.5605 9.22898C13.2912 9.14922 13.1592 9.00799 13.1592 9.00799C13.1592 9.00799 13.7389 8.17773 13.2975 8.17773C12.856 8.17773 12.6562 8.28417 12.6562 8.28417C12.6562 8.28417 12.6562 8.77714 12.6562 8.89256C12.6562 9.00799 12.0229 8.87132 12.0229 9.22898C12.0229 9.58664 11.7276 9.91708 11.7276 9.91708L11.6525 9.67754L11.2067 9.91708Z" fill="#FF863B"/>
<path fill-rule="evenodd" clip-rule="evenodd" d="M13.0668 8.38213C13.3101 8.38213 13.5073 8.28522 13.5073 8.16567C13.5073 8.04613 13.3101 7.94922 13.0668 7.94922C12.8235 7.94922 12.6263 8.04613 12.6263 8.16567C12.6263 8.28522 12.8235 8.38213 13.0668 8.38213Z" fill="black"/>
<path d="M10.8471 10.2596L10.6483 10.0944C11.0313 9.6797 11.4575 9.37798 11.9265 9.19069C12.3705 9.01334 12.9509 8.73028 13.6663 8.3418L13.7977 8.5593C13.0737 8.9524 12.4845 9.23977 12.0291 9.42167C11.5985 9.59364 11.2046 9.87246 10.8471 10.2596Z" fill="#740000"/>
<path fill-rule="evenodd" clip-rule="evenodd" d="M13.6578 8.43252L13.8248 9.21671L14.5661 8.82461L13.9823 8.17578L13.6578 8.43252Z" fill="#F9FCFF" stroke="#6C6C6C" stroke-width="0.5"/>
<path fill-rule="evenodd" clip-rule="evenodd" d="M19.8592 11.3066C19.8592 11.3066 20.1696 14.4066 20.1696 14.8267C20.1696 15.2468 19.5984 14.8267 19.5984 14.8267C19.5984 14.8267 19.5145 13.3463 19.32 12.7964C19.1255 12.2464 19.0337 12.8506 19.0337 13.1717C19.0337 13.4928 19.0337 14.9948 19.0337 14.9948C19.0337 14.9948 18.3229 15.0967 18.3229 14.8267C18.3229 14.5568 18.6187 11.3066 18.6187 11.3066H19.6937H19.8592Z" fill="white"/>
<path d="M18.5756 11.3037C18.575 11.3097 18.5743 11.3102 18.5717 11.3398C18.5679 11.3812 18.5685 11.3813 18.5629 11.4434C18.5528 11.5551 18.5408 11.6803 18.5287 11.8154C18.494 12.2015 18.4595 12.5917 18.4271 12.9619C18.4223 13.0169 18.4221 13.0173 18.4174 13.0723C18.3303 14.0723 18.2797 14.7109 18.2797 14.8271C18.2797 15.0478 18.5418 15.1105 19.0404 15.0391L19.0775 15.0332V13.1719C19.0776 12.9925 19.1044 12.7788 19.1449 12.6738C19.1796 12.584 19.2016 12.5937 19.2787 12.8115C19.4066 13.1732 19.4994 13.8471 19.5551 14.8301L19.556 14.8506L19.5726 14.8623C19.9767 15.1596 20.2133 15.1595 20.2133 14.8271C20.2132 14.5445 20.1098 13.3715 19.9027 11.3027L19.8988 11.2637H18.5785L18.5756 11.3037ZM19.8197 11.3506C20.0237 13.3897 20.1263 14.5507 20.1263 14.8271C20.1263 15.0514 19.9861 15.0553 19.641 14.8047C19.5847 13.825 19.4922 13.1513 19.3617 12.7822C19.263 12.5032 19.1375 12.4492 19.0629 12.6426C19.0178 12.7596 18.9897 12.9829 18.9896 13.1719V14.957C18.5664 15.0132 18.3666 14.9624 18.3666 14.8271C18.3666 14.715 18.4179 14.0727 18.5043 13.0801C18.5091 13.025 18.5092 13.0248 18.514 12.9697C18.5464 12.5996 18.581 12.2093 18.6156 11.8232C18.6277 11.6881 18.6397 11.5629 18.6498 11.4512C18.6552 11.3908 18.6551 11.3889 18.6586 11.3506H19.8197Z" fill="#979797"/>
<path fill-rule="evenodd" clip-rule="evenodd" d="M20.9108 10.1767C20.9108 10.1767 20.6671 11.0999 20.5592 11.0999C20.4513 11.0999 19.7964 10.5334 19.7964 10.5334V11.3023H18.5761V10.9617L18.4195 11.3023L18.2061 11.1973L17.837 10.7395H18.2061C18.2061 10.7395 18.3134 10.0043 18.3134 9.88803C18.3134 9.77177 18.309 9.54176 18.5761 9.45851C18.8431 9.37527 18.9741 9.22787 18.9741 9.22787C18.9741 9.22787 18.3991 8.36133 18.8369 8.36133C19.2748 8.36133 19.473 8.47241 19.473 8.47241C19.473 8.47241 19.473 8.98692 19.473 9.10739C19.473 9.22787 20.1012 9.08522 20.1012 9.45851C20.1012 9.83181 20.3941 10.1767 20.3941 10.1767L20.4686 9.92668L20.9108 10.1767Z" fill="#824028"/>
<path fill-rule="evenodd" clip-rule="evenodd" d="M19.0657 8.57488C18.8244 8.57488 18.6288 8.47373 18.6288 8.34896C18.6288 8.22419 18.8244 8.12305 19.0657 8.12305C19.3071 8.12305 19.5027 8.22419 19.5027 8.34896C19.5027 8.47373 19.3071 8.57488 19.0657 8.57488Z" fill="black"/>
<path d="M21.5252 10.3452L18.8526 8.95216C18.8526 8.95216 18.8031 8.48419 18.2869 8.34329C17.7707 8.2024 17.359 7.98438 17.359 7.98438L17.124 8.34329C17.124 8.34329 16.7054 8.23282 18.2869 8.95216C19.8684 9.6715 18.2273 8.56226 18.6769 8.95216L21.5252 10.3452Z" fill="#BA611F"/>
</g>
</g>
<defs>
<clipPath id="clip0_299_35547">
<rect width="32" height="24" fill="white"/>
</clipPath>
</defs>
</svg>
