<svg width="32" height="24" viewBox="0 0 32 24" fill="none" xmlns="http://www.w3.org/2000/svg">
<g clip-path="url(#clip0_299_35595)">
<rect width="32" height="24" fill="white"/>
<path fill-rule="evenodd" clip-rule="evenodd" d="M0 0H32V24H0V0Z" fill="#5EAA22"/>
<path fill-rule="evenodd" clip-rule="evenodd" d="M24 7L23 7.73205L23.134 6.5L22 6L23.134 5.5L23 4.26795L24 5L25 4.26795L24.866 5.5L26 6L24.866 6.5L25 7.73205L24 7Z" fill="#FECA00"/>
<path fill-rule="evenodd" clip-rule="evenodd" d="M22.9628 13.6793L21.9628 14.4114L22.0968 13.1793L20.9628 12.6793L22.0968 12.1793L21.9628 10.9473L22.9628 11.6793L23.9628 10.9473L23.8288 12.1793L24.9628 12.6793L23.8288 13.1793L23.9628 14.4114L22.9628 13.6793Z" fill="#FECA00"/>
<path fill-rule="evenodd" clip-rule="evenodd" d="M26 19L25 19.7321L25.134 18.5L24 18L25.134 17.5L25 16.2679L26 17L27 16.2679L26.866 17.5L28 18L26.866 18.5L27 19.7321L26 19Z" fill="#FECA00"/>
<path fill-rule="evenodd" clip-rule="evenodd" d="M27 9.5L26.5 9.86603L26.567 9.25L26 9L26.567 8.75L26.5 8.13397L27 8.5L27.5 8.13397L27.433 8.75L28 9L27.433 9.25L27.5 9.86603L27 9.5Z" fill="#FECA00"/>
<path fill-rule="evenodd" clip-rule="evenodd" d="M7 14C9.76142 14 12 11.7614 12 9C12 6.23858 9.76142 4 7 4C4.23858 4 2 6.23858 2 9C2 11.7614 4.23858 14 7 14Z" fill="#FECA00"/>
<path d="M16.7939 9C18.392 9.00008 19.6667 9.5594 20.252 11.082C19.7887 10.623 19.072 10.3077 18 10.3477C16.3433 10.3477 15.2658 11.6387 15.2656 12.7432C15.2656 13.8477 16.3431 15.3496 18 15.3496C18.8327 15.3371 19.4478 15.1846 19.8965 14.9453C19.2383 16.0742 18.1935 16.5868 16.7939 16.5869C14.6989 16.5869 13.0002 14.8889 13 12.7939C13 10.6988 14.6988 9 16.7939 9Z" fill="#FECA00"/>
<path d="M7.58247 8.69486C7.58247 8.69486 6.60483 12.2758 6.20116 12.6146C6.02247 12.6935 7.81981 12.6146 7.81981 12.6146C7.81981 12.6146 7.14604 12.3198 7.38338 11.9275C7.62072 11.5351 7.93076 9.0107 7.81981 8.15083C7.70886 7.29096 7.58247 8.69486 7.58247 8.69486Z" fill="#915E2B"/>
<path fill-rule="evenodd" clip-rule="evenodd" d="M7.79048 8.82726C7.79048 8.82726 8.83881 9.14208 8.83881 9.67778C8.83881 10.2135 9.71092 10.9664 9.71092 10.2534C9.71092 9.54032 9.54778 8.82726 9.19329 8.82726C8.83881 8.82726 9.36668 8.34787 9.66982 8.74598C9.97297 9.14409 11.0359 8.70854 10.82 8.42915C10.6041 8.14976 9.83774 7.8016 9.71092 7.8016C9.58411 7.8016 10.583 7.12104 9.71092 7.12104C8.83881 7.12104 9.33896 7.70236 8.74795 7.08519C8.15693 6.46802 8.99957 7.38645 8.99957 6.35004C8.99957 5.31362 8.76048 4.89015 7.97104 5.47191C7.18161 6.05367 7.33297 5.68469 7.05199 5.46534C6.77102 5.24599 6.52444 6.26843 6.83365 6.47714C7.14286 6.68585 7.48563 7.20314 7.17642 7.20314C6.86721 7.20314 6.6489 6.90464 6.6489 6.69089C6.6489 6.47714 5.80752 6.09961 5.00896 6.09961C4.21039 6.09961 4.72707 6.69089 5.00896 6.69089C5.29084 6.69089 6.55318 7.12104 5.92201 7.12104C5.29084 7.12104 5.97077 6.80278 5.17519 6.80278C4.37961 6.80278 3.45481 6.44049 3.45481 7.12104C3.45481 7.8016 4.24976 8.10309 4.4981 7.8016C4.74644 7.50011 5.03354 6.99185 5.03354 7.49928C5.03354 8.00671 4.40078 7.79954 3.45481 8.11434C2.50884 8.42915 2.78029 9.2591 3.90878 9.05641C5.03726 8.85372 4.91516 8.86476 5.36822 8.54995C5.82129 8.23515 6.382 8.32291 5.92201 8.82726C5.46202 9.33161 5.00203 10.2534 5.46202 10.2534C5.92201 10.2534 6.21854 10.3788 6.21854 9.89153C6.21854 9.40426 6.48557 8.45561 6.48557 9.05641C6.48557 9.65721 6.83365 10.1101 7.14286 9.89153C7.45207 9.67299 7.07085 8.98918 7.42383 8.98918C7.77682 8.98918 7.79048 8.82726 7.79048 8.82726Z" fill="#5EAA22"/>
</g>
<defs>
<clipPath id="clip0_299_35595">
<rect width="32" height="24" fill="white"/>
</clipPath>
</defs>
</svg>
