<svg width="32" height="24" viewBox="0 0 32 24" fill="none" xmlns="http://www.w3.org/2000/svg">
<g clip-path="url(#clip0_299_35607)">
<rect width="32" height="24" fill="white"/>
<path fill-rule="evenodd" clip-rule="evenodd" d="M0 0V24H32V0H0Z" fill="#2E42A5"/>
<g clip-path="url(#clip1_299_35607)">
<rect width="18" height="14" fill="#2E42A5"/>
<path d="M-2.00427 12.9991L1.95668 14.7363L18.0899 1.88805L20.1792 -0.693481L15.9435 -1.27411L9.36317 4.26259L4.06667 7.99302L-2.00427 12.9991Z" fill="#F7FCFF"/>
<path d="M-1.46201 14.2165L0.555916 15.2246L19.4289 -0.933105H16.5955L-1.46201 14.2165Z" fill="#F50100"/>
<path d="M20.0043 12.9991L16.0433 14.7363L-0.0898743 1.88805L-2.17919 -0.693481L2.05648 -1.27411L8.63683 4.26259L13.9333 7.99302L20.0043 12.9991Z" fill="#F7FCFF"/>
<path d="M19.8691 13.8727L17.8512 14.8809L9.81486 7.9629L7.43226 7.18998L-2.38023 -0.684557H0.453163L10.2601 7.00307L12.8651 7.92989L19.8691 13.8727Z" fill="#F50100"/>
<path fill-rule="evenodd" clip-rule="evenodd" d="M9.98451 0H7.98451V6H0V8H7.98451V14H9.98451V8H18V6H9.98451V0Z" fill="#F50100"/>
<path fill-rule="evenodd" clip-rule="evenodd" d="M6.48451 0H11.4845V4.5H18V9.5H11.4845L11.5 14H6.5L6.48451 9.5H0V4.5H6.48451V0ZM7.98451 6H0V8H7.98451V14H9.98451V8H18V6H9.98451V0H7.98451V6Z" fill="#F7FCFF"/>
</g>
<path d="M24.8298 19.5361H25.5476L24.9841 20.1104L25.2019 21.0156L24.4997 20.5068L23.7741 21.0156L24.0193 20.1104L23.3737 19.5361H24.2165L24.4987 18.7969L24.8298 19.5361ZM22.4558 18.3291H23.1736L22.6101 18.9033L22.8279 19.8086L22.1257 19.2998L21.4001 19.8086L21.6452 18.9033L21.0007 18.3291H21.8425L22.1247 17.5898L22.4558 18.3291ZM27.3777 18.29H28.0964L27.532 18.8643L27.7507 19.7695L27.0476 19.2607L26.322 19.7695L26.5671 18.8643L25.9226 18.29H26.7644L27.0466 17.5508L27.3777 18.29ZM21.1902 16.0312H21.9079L21.3435 16.6055L21.5622 17.5107L20.8601 17.002L20.1335 17.5107L20.3786 16.6055L19.7341 16.0312H20.5759L20.8591 15.292L21.1902 16.0312ZM28.3747 16.0146H29.0925L28.529 16.5889L28.7468 17.4941L28.0446 16.9854L27.3191 17.4941L27.5642 16.5889L26.9196 16.0146H27.7614L28.0437 15.2764L28.3747 16.0146ZM22.1032 13.6807H22.821L22.2566 14.2549L22.4753 15.1602L21.7732 14.6514L21.0466 15.1602L21.2917 14.2549L20.6472 13.6807H21.489L21.7722 12.9414L22.1032 13.6807ZM27.5359 13.6338H28.2536L27.6892 14.208L27.9079 15.1133L27.2058 14.6045L26.4802 15.1133L26.7253 14.208L26.0798 13.6338H26.9226L27.2048 12.8955L27.5359 13.6338ZM24.7234 12.376H25.4411L24.8767 12.9492L25.0954 13.8555L24.3933 13.3467L23.6667 13.8555L23.9118 12.9492L23.2673 12.376H24.1091L24.3923 11.6367L24.7234 12.376Z" fill="white"/>
</g>
<defs>
<clipPath id="clip0_299_35607">
<rect width="32" height="24" fill="white"/>
</clipPath>
<clipPath id="clip1_299_35607">
<rect width="18" height="14" fill="white"/>
</clipPath>
</defs>
</svg>
