<svg width="32" height="24" viewBox="0 0 32 24" fill="none" xmlns="http://www.w3.org/2000/svg">
<g clip-path="url(#clip0_299_35663)">
<rect width="32" height="24" fill="white"/>
<path fill-rule="evenodd" clip-rule="evenodd" d="M0 0V24H32V0H0Z" fill="#3D58DB"/>
<mask id="mask0_299_35663" style="mask-type:luminance" maskUnits="userSpaceOnUse" x="0" y="0" width="32" height="24">
<path fill-rule="evenodd" clip-rule="evenodd" d="M0 0V24H32V0H0Z" fill="white"/>
</mask>
<g mask="url(#mask0_299_35663)">
<path d="M34 8V16H-2V8H34Z" fill="#3D58DB" stroke="#F7FCFF" stroke-width="4"/>
</g>
<path fill-rule="evenodd" clip-rule="evenodd" d="M0 0V24L18 12L0 0Z" fill="#E31D1C"/>
<mask id="mask1_299_35663" style="mask-type:luminance" maskUnits="userSpaceOnUse" x="0" y="0" width="18" height="24">
<path fill-rule="evenodd" clip-rule="evenodd" d="M0 0V24L18 12L0 0Z" fill="white"/>
</mask>
<g mask="url(#mask1_299_35663)">
<path fill-rule="evenodd" clip-rule="evenodd" d="M6.68778 14.2172L3.01585 16.1552L4.80351 12.2613L2.52553 10.1811L5.33801 10.0773L6.68778 6.55664L7.71783 10.0773H10.5255L8.65414 12.2613L10.1427 16.1552L6.68778 14.2172Z" fill="#F7FCFF"/>
</g>
</g>
<defs>
<clipPath id="clip0_299_35663">
<rect width="32" height="24" fill="white"/>
</clipPath>
</defs>
</svg>
