<svg width="32" height="24" viewBox="0 0 32 24" fill="none" xmlns="http://www.w3.org/2000/svg">
<g clip-path="url(#clip0_299_35669)">
<rect width="32" height="24" fill="white"/>
<path fill-rule="evenodd" clip-rule="evenodd" d="M0 0H32V24H0V0Z" fill="#5EAA22"/>
<path fill-rule="evenodd" clip-rule="evenodd" d="M0 0L32 24H0V0Z" fill="#4141DB"/>
<path fill-rule="evenodd" clip-rule="evenodd" d="M6 9L5 9.73205L5.13397 8.5L4 8L5.13397 7.5L5 6.26795L6 7L7 6.26795L6.86603 7.5L8 8L6.86603 8.5L7 9.73205L6 9Z" fill="white"/>
<path fill-rule="evenodd" clip-rule="evenodd" d="M4 15L3 15.7321L3.13397 14.5L2 14L3.13397 13.5L3 12.2679L4 13L5 12.2679L4.86603 13.5L6 14L4.86603 14.5L5 15.7321L4 15Z" fill="white"/>
<path fill-rule="evenodd" clip-rule="evenodd" d="M8 21L7 21.7321L7.13397 20.5L6 20L7.13397 19.5L7 18.2679L8 19L9 18.2679L8.86603 19.5L10 20L8.86603 20.5L9 21.7321L8 21Z" fill="white"/>
<path fill-rule="evenodd" clip-rule="evenodd" d="M9 11.5L8.5 11.866L8.56699 11.25L8 11L8.56699 10.75L8.5 10.134L9 10.5L9.5 10.134L9.43301 10.75L10 11L9.43301 11.25L9.5 11.866L9 11.5Z" fill="white"/>
<path fill-rule="evenodd" clip-rule="evenodd" d="M21.5611 12.2245C21.1873 11.8345 24.5513 10.9182 24.9 9.73665C25.3621 8.70796 25.0534 7.87441 23.3072 7.14236C21.5611 6.41031 19.7964 4.99483 21.8256 4.99483C23.8549 4.99483 23.8549 5.28416 24.4 6.13766C24.9452 6.99116 26.1235 7.17399 26.1485 6.13766C26.1485 4.37187 26.3151 4.13437 24.8897 2.5992C23.4642 1.06403 28.4641 3.22963 28.0509 5.86143C27.6376 8.49322 27.1401 7.644 27.4559 8.08579C27.7718 8.52758 29.6722 7.15618 29.4349 8.98299C28.77 10.0336 27.4514 11.5969 21.5611 12.2245Z" fill="#FECA00"/>
<path fill-rule="evenodd" clip-rule="evenodd" d="M16 17C18.7614 17 21 14.7614 21 12C21 9.23858 18.7614 7 16 7C13.2386 7 11 9.23858 11 12C11 14.7614 13.2386 17 16 17Z" fill="#FECA00"/>
<path fill-rule="evenodd" clip-rule="evenodd" d="M12.953 10.1626C13.5201 10.0362 14.2956 11.5549 15.6954 10.9853C17.0951 10.4157 17.3874 9.32822 18.0525 9.72622C18.7175 10.1242 18.8048 11.0825 18.3618 11.5642C17.9188 12.0458 17.1669 12.1597 17.1669 12.7685C17.1669 13.3772 17.0195 15.5481 16.7322 14.919C15.8706 14.2199 16.3963 13.1065 15.335 12.7685C14.2738 12.4305 13.6292 12.4418 12.8463 12.5844C12.0635 12.7271 13.3723 12.1926 13.6498 11.6852C14.215 11.1415 12.6936 10.3434 12.953 10.1626Z" fill="#548650"/>
</g>
<defs>
<clipPath id="clip0_299_35669">
<rect width="32" height="24" fill="white"/>
</clipPath>
</defs>
</svg>
