<svg width="32" height="24" viewBox="0 0 32 24" fill="none" xmlns="http://www.w3.org/2000/svg">
<g clip-path="url(#clip0_299_35671)">
<rect width="32" height="24" fill="white"/>
<path fill-rule="evenodd" clip-rule="evenodd" d="M0 0V24H32V0H0Z" fill="#F7FCFF"/>
<mask id="mask0_299_35671" style="mask-type:luminance" maskUnits="userSpaceOnUse" x="0" y="0" width="32" height="24">
<path fill-rule="evenodd" clip-rule="evenodd" d="M0 0V24H32V0H0Z" fill="white"/>
</mask>
<g mask="url(#mask0_299_35671)">
<path fill-rule="evenodd" clip-rule="evenodd" d="M15.948 18.0596C15.8989 18.0765 15.8385 18.112 15.7712 18.1582C16.0157 18.2541 16.3016 18.3817 16.5789 18.542L16.1326 18.9131C16.1268 18.9071 15.8242 18.5919 15.532 18.3438C15.2369 18.5943 14.9304 18.9131 14.9304 18.9131L14.4851 18.542C14.7621 18.3819 15.0475 18.254 15.2917 18.1582C15.2247 18.1122 15.1649 18.0764 15.116 18.0596V17.9375C15.116 17.9375 15.2825 17.9815 15.532 18.0693C15.7814 17.9816 15.948 17.9375 15.948 17.9375V18.0596ZM13.7869 17.6484C14.0282 17.6092 14.6033 17.9287 14.6033 17.9287C14.6033 17.9287 14.1843 18.2118 13.738 18.3027C13.2918 18.3936 12.9392 17.8721 12.9392 17.8721C12.9392 17.8721 13.5457 17.688 13.7869 17.6484ZM17.2771 17.6484C17.5148 17.6874 18.1068 17.8669 18.1238 17.8721C18.1216 17.8753 17.7707 18.3932 17.3259 18.3027C16.8797 18.2118 16.4607 17.9287 16.4607 17.9287C16.4636 17.9271 17.0365 17.6091 17.2771 17.6484ZM12.4832 17.8613C12.554 17.8908 12.6261 18.0454 12.6287 18.0508C12.6194 18.0504 12.4499 18.0423 12.3162 17.9922C12.1786 17.9405 12.2097 17.7744 12.2097 17.7744C12.2097 17.7744 12.4109 17.8313 12.4832 17.8613ZM18.8542 17.7744C18.8542 17.7744 18.8854 17.9405 18.7478 17.9922C18.6103 18.0438 18.4343 18.0508 18.4343 18.0508C18.4343 18.0508 18.5087 17.8913 18.5808 17.8613C18.6532 17.8313 18.8542 17.7744 18.8542 17.7744ZM13.4558 16.7021C13.4708 16.7082 14.0451 16.942 14.2546 17.0615C14.4669 17.1829 14.7126 17.793 14.7126 17.793C14.7126 17.793 14.2094 17.7491 13.8054 17.5391C13.4046 17.3306 13.455 16.712 13.4558 16.7021ZM17.6082 16.7021C17.609 16.7126 17.6591 17.3307 17.2585 17.5391C16.8546 17.7491 16.3513 17.793 16.3513 17.793C16.3513 17.793 16.597 17.1828 16.8093 17.0615C17.0197 16.9416 17.5977 16.7064 17.6082 16.7021ZM12.2078 17.1064C12.2078 17.1064 12.7725 17.1108 12.9871 17.1406C13.2014 17.1705 13.5828 17.585 13.5828 17.585C13.5759 17.5869 13.14 17.7092 12.741 17.6689C12.3415 17.6282 12.2093 17.1124 12.2078 17.1064ZM18.8562 17.1064C18.8555 17.1091 18.7232 17.6285 18.322 17.6689C17.9255 17.7089 17.493 17.5883 17.4812 17.585C17.4812 17.585 17.8626 17.1705 18.0769 17.1406C18.2916 17.1108 18.8562 17.1064 18.8562 17.1064ZM11.2869 17.0898C11.5001 17.0861 11.9314 17.4246 11.9441 17.4346C11.9441 17.4346 11.5302 17.6275 11.1267 17.6504C10.7273 17.673 10.5158 17.1877 10.5115 17.1777C10.5115 17.1777 11.0705 17.0939 11.2869 17.0898ZM19.7771 17.0898C19.9935 17.0939 20.5525 17.1777 20.5525 17.1777C20.5492 17.1854 20.3376 17.6731 19.9373 17.6504C19.5378 17.6278 19.1281 17.4384 19.1199 17.4346C19.1347 17.4229 19.5645 17.0859 19.7771 17.0898ZM10.4539 16.8125C10.5251 16.8421 10.5986 16.9973 10.6003 17.001C10.6003 17.001 10.4244 16.994 10.2869 16.9424C10.1493 16.8907 10.1814 16.7246 10.1814 16.7246C10.1893 16.7269 10.3831 16.7831 10.4539 16.8125ZM12.99 16.8125C13.061 16.842 13.1343 16.9964 13.1365 17.001C13.1365 17.001 12.9606 16.994 12.823 16.9424C12.6855 16.8907 12.7175 16.7246 12.7175 16.7246C12.7239 16.7264 12.9188 16.783 12.99 16.8125ZM18.3464 16.7246C18.3464 16.7246 18.3782 16.8906 18.241 16.9424C18.1041 16.9938 17.9293 17.0009 17.9275 17.001C17.9302 16.9951 18.0024 16.8423 18.073 16.8125C18.1451 16.7825 18.3464 16.7246 18.3464 16.7246ZM20.8826 16.7246C20.8826 16.7246 20.9145 16.8906 20.7771 16.9424C20.6395 16.994 20.4636 17.001 20.4636 17.001C20.4661 16.9958 20.5384 16.8424 20.6091 16.8125C20.6803 16.7829 20.8779 16.726 20.8826 16.7246ZM10.4353 16.2305C10.4353 16.2305 10.9911 16.3337 11.197 16.4004C11.4018 16.4667 11.7034 16.9351 11.7068 16.9404C11.7068 16.9404 11.252 16.9877 10.863 16.8779C10.4742 16.7681 10.4353 16.2305 10.4353 16.2305ZM20.6287 16.2305C20.6287 16.2305 20.5897 16.768 20.2009 16.8779C19.8119 16.9877 19.3572 16.9404 19.3572 16.9404C19.3628 16.9316 19.663 16.4664 19.8669 16.4004C20.073 16.3337 20.6287 16.2305 20.6287 16.2305ZM11.3865 15.8936C11.3865 15.8936 11.9129 16.1004 12.1023 16.2051C12.2916 16.3102 12.4988 16.833 12.4988 16.833C12.493 16.8325 12.0419 16.791 11.6834 16.6104C11.3278 16.4311 11.3847 15.9089 11.3865 15.8936ZM19.6765 15.8936C19.6781 15.9068 19.7369 16.4307 19.3806 16.6104C19.0245 16.7899 18.5768 16.8319 18.5652 16.833C18.5652 16.833 18.7723 16.31 18.9617 16.2051C19.1477 16.1023 19.6582 15.9008 19.6765 15.8936ZM9.44019 16.0146C9.66729 16.0089 10.2625 16.3789 10.2625 16.3789C10.2625 16.3789 9.89517 16.5871 9.4773 16.6143C9.05945 16.6413 8.65405 16.1133 8.65405 16.1133C8.66908 16.1108 9.21611 16.0204 9.44019 16.0146ZM21.6238 16.0146C21.849 16.0204 22.3998 16.1116 22.4099 16.1133C22.4099 16.1133 22.0045 16.6412 21.5867 16.6143C21.1688 16.5871 20.8015 16.3789 20.8015 16.3789C20.8015 16.3789 21.3967 16.0089 21.6238 16.0146ZM11.0632 15.9531C11.1353 15.9832 11.2087 16.1426 11.2087 16.1426C11.2066 16.1425 11.032 16.1353 10.8953 16.084C10.7579 16.0323 10.7898 15.8662 10.7898 15.8662C10.7941 15.8674 10.9919 15.9235 11.0632 15.9531ZM20.2742 15.8662C20.2746 15.8682 20.3051 16.0325 20.1687 16.084C20.0338 16.1346 19.8619 16.1423 19.8552 16.1426C19.8552 16.1426 19.9287 15.9831 20.0007 15.9531C20.0728 15.9232 20.2742 15.8662 20.2742 15.8662ZM7.45972 14.8516C7.45972 14.8516 7.95731 14.8502 8.15405 14.877C8.30888 14.898 8.62075 15.1529 8.74683 15.2598C8.72368 15.0691 8.77515 14.8975 8.77515 14.8975C8.77515 14.8975 9.31168 15.1843 9.49976 15.3174C9.68441 15.448 9.8182 15.9798 9.823 15.999C9.8052 15.9949 9.3289 15.884 8.97437 15.6523C8.84202 15.5658 8.78016 15.4412 8.75464 15.3184C8.64728 15.3513 8.37219 15.4258 8.08765 15.3984C7.72314 15.3633 7.45972 14.8516 7.45972 14.8516ZM23.6033 14.8516C23.6033 14.8516 23.3407 15.3632 22.9763 15.3984C22.6911 15.4259 22.4152 15.3512 22.3084 15.3184C22.2828 15.4412 22.2219 15.5659 22.0896 15.6523C21.7283 15.8885 21.24 15.999 21.24 15.999C21.2439 15.9835 21.3789 15.4485 21.5642 15.3174C21.7524 15.1843 22.2888 14.8975 22.2888 14.8975C22.2888 14.8975 22.3393 15.069 22.3162 15.2598C22.4419 15.1531 22.7549 14.8981 22.9099 14.877C23.1037 14.8506 23.588 14.8515 23.6033 14.8516ZM8.73999 15.6729C8.86064 15.6666 9.17163 15.8564 9.17163 15.8564C9.17163 15.8564 8.97387 15.9728 8.75171 15.9932C8.52947 16.0135 8.32105 15.7363 8.32105 15.7363C8.32105 15.7363 8.61917 15.6792 8.73999 15.6729ZM22.324 15.6729C22.4449 15.6792 22.7429 15.7363 22.7429 15.7363C22.7429 15.7363 22.5345 16.0135 22.3123 15.9932C22.09 15.9728 21.8923 15.8564 21.8923 15.8564C21.8923 15.8564 22.2033 15.6666 22.324 15.6729ZM9.65015 14.6533C9.65707 14.6587 10.0412 14.9588 10.1834 15.1045C10.3263 15.251 10.519 15.9166 10.5203 15.9209C10.5203 15.9209 10.1942 15.8305 9.92261 15.5723C9.65102 15.314 9.65015 14.6533 9.65015 14.6533ZM21.4138 14.6533C21.4138 14.6533 21.4129 15.3139 21.1414 15.5723C20.8697 15.8305 20.5437 15.9209 20.5437 15.9209C20.5459 15.9132 20.7371 15.2512 20.8796 15.1045C21.023 14.9575 21.4138 14.6533 21.4138 14.6533ZM7.36402 13.3711C7.36402 13.3711 7.99936 13.7317 8.22241 13.8994C8.44292 14.0653 8.60295 14.7449 8.6062 14.7588C8.6062 14.7588 8.02747 14.6189 7.59937 14.3213C7.17407 14.0252 7.36196 13.3781 7.36402 13.3711ZM23.7 13.3711C23.7027 13.3806 23.8886 14.0259 23.4636 14.3213C23.0385 14.6168 22.4656 14.7569 22.4578 14.7588C22.4613 14.7437 22.6212 14.0652 22.8416 13.8994C23.0647 13.7317 23.7 13.3711 23.7 13.3711ZM8.93628 13.8555C8.93905 13.8627 9.04528 14.1406 9.07202 14.2568C9.09862 14.3727 8.97084 14.7019 8.96655 14.7129C8.96288 14.7086 8.81644 14.5359 8.75855 14.3232C8.7013 14.1121 8.92751 13.865 8.93628 13.8555ZM22.1277 13.8555C22.1377 13.8663 22.3625 14.1128 22.3054 14.3232C22.2479 14.5347 22.1026 14.7067 22.0974 14.7129C22.0936 14.7031 21.9653 14.3728 21.9919 14.2568C22.0188 14.1403 22.1256 13.8611 22.1277 13.8555Z" fill="#006B49"/>
<path fill-rule="evenodd" clip-rule="evenodd" d="M27.8061 3.01758C27.8061 3.01758 28.1522 3.46243 27.8061 3.46243C27.4599 3.46243 26.5796 3.94378 26.5796 3.94378C26.5796 3.94378 26.1609 4.56869 25.6538 4.71007C25.1467 4.85146 24.9756 5.37649 24.2333 5.59531C23.491 5.81414 23.4151 5.87388 23.4151 6.09536C23.4151 6.31683 23.5417 6.6919 23.0347 6.6919C22.5278 6.6919 22.1696 5.98216 21.8952 6.6919C21.6209 7.40165 21.343 7.60971 21.723 8.04389C22.103 8.47807 22.6064 8.89383 22.8206 9.14458C23.0347 9.39533 24.4633 10.1292 23.4151 10.1292C22.367 10.1292 22.8939 9.46493 22.087 9.70756C21.2801 9.95019 21.7433 10.3081 21.1266 10.1292C20.51 9.95019 20.0988 9.78692 19.9075 9.86856C19.7161 9.95019 19.4087 9.41494 19.4087 10.1292C19.4087 10.8434 19.9842 10.5539 18.7502 11.3428C17.5163 12.1317 17.7613 11.9137 17.195 11.9137C16.6286 11.9137 16.4296 12.2708 16.0519 12.2708C15.6743 12.2708 15.7203 12.2708 15.295 12.2708C14.8697 12.2708 15.3254 11.819 14.6 12.2708C13.8747 12.7226 13.6149 12.8125 13.6149 12.9861C13.6149 13.1597 13.6149 13.62 13.6149 13.62C13.6149 13.62 12.9503 14.0001 12.9503 13.62C12.9503 13.2398 12.7455 13.1424 12.4699 12.9861C12.1944 12.8298 11.6438 12.9423 11.0558 12.9861C10.4678 13.0299 9.80298 12.393 9.29253 12.393C8.78208 12.393 8.68711 11.9137 8.54748 11.9137C8.40784 11.9137 8.69315 11.504 8.09879 11.1364C7.50444 10.7688 7.2964 10.7231 7.2964 10.1292C7.2964 9.53516 7.02347 9.37271 7.02347 9.01177C7.02347 8.65084 7.31431 9.14458 7.93089 9.14458C8.54748 9.14458 8.58792 8.76261 9.29253 8.40325C9.99714 8.04389 10.2363 7.84723 10.8238 8.04389C11.4113 8.24055 11.9895 8.97337 12.4699 8.27001C12.9503 7.56665 12.9503 6.76232 12.9503 6.35623C12.9503 5.95014 12.6662 5.83448 13.4331 6.09536C14.2 6.35623 14.6461 6.35623 15.9205 6.35623C17.195 6.35623 18.7188 6.77299 19.1884 6.35623C19.658 5.93947 20.16 5.59531 21.3784 5.59531C22.5967 5.59531 22.9948 4.99649 23.8141 4.71007C24.6334 4.42366 23.4252 5.02914 25.263 4.24579C27.1007 3.46243 27.8061 3.01758 27.8061 3.01758Z" fill="#F57A01"/>
</g>
</g>
<defs>
<clipPath id="clip0_299_35671">
<rect width="32" height="24" fill="white"/>
</clipPath>
</defs>
</svg>
