<svg width="32" height="24" viewBox="0 0 32 24" fill="none" xmlns="http://www.w3.org/2000/svg">
<g clip-path="url(#clip0_299_35677)">
<rect width="32" height="24" fill="white"/>
<path fill-rule="evenodd" clip-rule="evenodd" d="M0 0V24H32V0H0Z" fill="#73BE4A"/>
<mask id="mask0_299_35677" style="mask-type:luminance" maskUnits="userSpaceOnUse" x="0" y="0" width="32" height="24">
<path fill-rule="evenodd" clip-rule="evenodd" d="M0 0V24H32V0H0Z" fill="white"/>
</mask>
<g mask="url(#mask0_299_35677)">
<path fill-rule="evenodd" clip-rule="evenodd" d="M0 -2V12H32V-2H0Z" fill="#6699FF"/>
</g>
<path fill-rule="evenodd" clip-rule="evenodd" d="M0 0V24L18 12L0 0Z" fill="white"/>
<mask id="mask1_299_35677" style="mask-type:luminance" maskUnits="userSpaceOnUse" x="0" y="0" width="18" height="24">
<path fill-rule="evenodd" clip-rule="evenodd" d="M0 0V24L18 12L0 0Z" fill="white"/>
</mask>
<g mask="url(#mask1_299_35677)">
<path fill-rule="evenodd" clip-rule="evenodd" d="M7.00179 14.0699L5.13112 15.1992L5.55781 12.9955L4 11.3462L6.10936 11.257L7.00179 9.19922L7.89423 11.257H10L8.44578 12.9955L8.91369 15.1992L7.00179 14.0699Z" fill="#E31D1C"/>
</g>
</g>
<defs>
<clipPath id="clip0_299_35677">
<rect width="32" height="24" fill="white"/>
</clipPath>
</defs>
</svg>
