<svg width="32" height="24" viewBox="0 0 32 24" fill="none" xmlns="http://www.w3.org/2000/svg">
<g clip-path="url(#clip0_299_35725)">
<rect width="32" height="24" fill="white"/>
<path fill-rule="evenodd" clip-rule="evenodd" d="M0 0V24H32V0H0Z" fill="#279E19"/>
<mask id="mask0_299_35725" style="mask-type:luminance" maskUnits="userSpaceOnUse" x="0" y="0" width="32" height="24">
<path fill-rule="evenodd" clip-rule="evenodd" d="M0 0V24H32V0H0Z" fill="white"/>
</mask>
<g mask="url(#mask0_299_35725)">
<path fill-rule="evenodd" clip-rule="evenodd" d="M17 0H19V13H32V15H19V24H17V15H0V13H17V0Z" fill="#F7FCFF"/>
<path fill-rule="evenodd" clip-rule="evenodd" d="M15 0H17V11H32V13H17V24H15V13H0V11H15V0Z" fill="#272727"/>
<path fill-rule="evenodd" clip-rule="evenodd" d="M13 0H15V9H32V11H15V24H13V11H0V9H13V0Z" fill="#FECA00"/>
<path fill-rule="evenodd" clip-rule="evenodd" d="M16 20C20.4183 20 24 16.4183 24 12C24 7.58172 20.4183 4 16 4C11.5817 4 8 7.58172 8 12C8 16.4183 11.5817 20 16 20Z" fill="#C51918"/>
<path fill-rule="evenodd" clip-rule="evenodd" d="M14.7259 8.41256C14.7259 8.41256 15.1059 7.17963 15.9885 7.81658C17.3725 8.49827 17.8291 9.28145 18.3634 10.1684C18.8977 11.0553 17.0533 10.4057 16.7092 9.90654C16.3651 9.40737 14.4565 9.24552 14.7259 8.82904C14.9954 8.41256 14.7259 8.41256 14.7259 8.41256Z" fill="#804BFF"/>
<path fill-rule="evenodd" clip-rule="evenodd" d="M14.4131 14.7246C14.4131 14.7246 13.4734 16.0101 14.4131 16.0101C15.3528 16.0101 19.1625 15.7335 18.7059 15.3674C18.2492 15.0012 14.8646 15.3674 14.8646 15.3674L14.4131 14.7246Z" fill="#A95601"/>
<path fill-rule="evenodd" clip-rule="evenodd" d="M15.818 14.6856C15.7604 14.6206 14.9028 14.0573 14.5684 12.7692C14.3373 11.8787 14.4791 10.213 14.8045 9.88292C15.6006 9.07542 16.0671 9.54992 16.0671 10.7608C16.0671 11.9716 16.1149 14.9847 15.818 14.6856Z" fill="#804BFF"/>
<path fill-rule="evenodd" clip-rule="evenodd" d="M15.7173 14.0534C15.7173 14.0534 15.6185 14.9978 16.1042 16.1002C16.5898 17.2027 17.5708 17.1815 17.5708 16.2791C17.5708 15.3768 18.2868 16.2236 18.5617 16.8258C18.8366 17.428 18.1247 11.4781 17.1144 10.147C16.1042 8.81586 15.1294 8.7304 15.4234 9.59059C15.7173 10.4508 15.7173 14.0534 15.7173 14.0534Z" fill="#279E19"/>
<path fill-rule="evenodd" clip-rule="evenodd" d="M15.1273 7.59961C15.1273 7.59961 14.7 7.87365 14.7 8.62846C14.7 9.38327 15.7118 8.39475 15.7118 8.39475L15.1273 7.59961Z" fill="#FECA00"/>
<mask id="path-12-inside-1_299_35725" fill="white">
<path d="M16.6559 17.7188L17.527 18.3633L16.444 18.373L16.1003 19.3994L15.7565 18.373L14.6735 18.3633L15.5436 17.7188L15.2184 16.6865L16.1003 17.3145L16.9821 16.6865L16.6559 17.7188ZM12.9762 16.2998L14.0583 16.3096L13.1881 16.9531L13.5133 17.9863L12.6325 17.3574L11.7506 17.9863L12.0758 16.9531L11.2057 16.3096L12.2878 16.2998L12.6325 15.2725L12.9762 16.2998ZM19.9118 16.2998L20.9948 16.3096L20.1247 16.9531L20.4499 17.9863L19.568 17.3574L18.6862 17.9863L19.0114 16.9531L18.1413 16.3096L19.2243 16.2998L19.568 15.2725L19.9118 16.2998ZM11.0456 13.6416L11.9157 14.2861L10.8327 14.2959L10.4889 15.3232L10.1452 14.2959L9.06216 14.2861L9.93228 13.6416L9.60709 12.6094L10.4889 13.2383L11.3708 12.6094L11.0456 13.6416ZM22.2672 13.6416L23.1374 14.2861L22.0553 14.2959L21.7116 15.3232L21.3678 14.2959L20.2848 14.2861L21.1549 13.6416L20.8297 12.6094L21.7116 13.2383L22.5924 12.6094L22.2672 13.6416ZM10.8327 9.70312L11.9157 9.71289L11.0456 10.3574L11.3708 11.3896L10.4889 10.7617L9.60709 11.3896L9.93228 10.3574L9.06216 9.71289L10.1452 9.70312L10.4889 8.67676L10.8327 9.70312ZM22.0553 9.70312L23.1374 9.71289L22.2672 10.3574L22.5924 11.3896L21.7116 10.7617L20.8297 11.3896L21.1549 10.3574L20.2848 9.71289L21.3678 9.70312L21.7116 8.67676L22.0553 9.70312ZM13.1881 7.0459L14.0583 7.68945L12.9762 7.69922L12.6325 8.72656L12.2878 7.69922L11.2057 7.68945L12.0758 7.0459L11.7506 6.0127L12.6325 6.6416L13.5133 6.0127L13.1881 7.0459ZM20.1247 7.0459L20.9948 7.68945L19.9118 7.69922L19.568 8.72656L19.2243 7.69922L18.1413 7.68945L19.0114 7.0459L18.6862 6.0127L19.568 6.6416L20.4499 6.0127L20.1247 7.0459ZM16.444 5.62598L17.527 5.63574L16.6559 6.28027L16.9821 7.31348L16.1003 6.68457L15.2184 7.31348L15.5436 6.28027L14.6735 5.63574L15.7565 5.62598L16.1003 4.59961L16.444 5.62598Z"/>
</mask>
<path d="M16.6559 17.7188L17.527 18.3633L16.444 18.373L16.1003 19.3994L15.7565 18.373L14.6735 18.3633L15.5436 17.7188L15.2184 16.6865L16.1003 17.3145L16.9821 16.6865L16.6559 17.7188ZM12.9762 16.2998L14.0583 16.3096L13.1881 16.9531L13.5133 17.9863L12.6325 17.3574L11.7506 17.9863L12.0758 16.9531L11.2057 16.3096L12.2878 16.2998L12.6325 15.2725L12.9762 16.2998ZM19.9118 16.2998L20.9948 16.3096L20.1247 16.9531L20.4499 17.9863L19.568 17.3574L18.6862 17.9863L19.0114 16.9531L18.1413 16.3096L19.2243 16.2998L19.568 15.2725L19.9118 16.2998ZM11.0456 13.6416L11.9157 14.2861L10.8327 14.2959L10.4889 15.3232L10.1452 14.2959L9.06216 14.2861L9.93228 13.6416L9.60709 12.6094L10.4889 13.2383L11.3708 12.6094L11.0456 13.6416ZM22.2672 13.6416L23.1374 14.2861L22.0553 14.2959L21.7116 15.3232L21.3678 14.2959L20.2848 14.2861L21.1549 13.6416L20.8297 12.6094L21.7116 13.2383L22.5924 12.6094L22.2672 13.6416ZM10.8327 9.70312L11.9157 9.71289L11.0456 10.3574L11.3708 11.3896L10.4889 10.7617L9.60709 11.3896L9.93228 10.3574L9.06216 9.71289L10.1452 9.70312L10.4889 8.67676L10.8327 9.70312ZM22.0553 9.70312L23.1374 9.71289L22.2672 10.3574L22.5924 11.3896L21.7116 10.7617L20.8297 11.3896L21.1549 10.3574L20.2848 9.71289L21.3678 9.70312L21.7116 8.67676L22.0553 9.70312ZM13.1881 7.0459L14.0583 7.68945L12.9762 7.69922L12.6325 8.72656L12.2878 7.69922L11.2057 7.68945L12.0758 7.0459L11.7506 6.0127L12.6325 6.6416L13.5133 6.0127L13.1881 7.0459ZM20.1247 7.0459L20.9948 7.68945L19.9118 7.69922L19.568 8.72656L19.2243 7.69922L18.1413 7.68945L19.0114 7.0459L18.6862 6.0127L19.568 6.6416L20.4499 6.0127L20.1247 7.0459ZM16.444 5.62598L17.527 5.63574L16.6559 6.28027L16.9821 7.31348L16.1003 6.68457L15.2184 7.31348L15.5436 6.28027L14.6735 5.63574L15.7565 5.62598L16.1003 4.59961L16.444 5.62598Z" fill="#279E19"/>
<path d="M16.6559 17.7188L16.5606 17.6886L16.5391 17.7567L16.5964 17.7991L16.6559 17.7188ZM17.527 18.3633L17.5279 18.4633L17.8266 18.4606L17.5865 18.2829L17.527 18.3633ZM16.444 18.373L16.4431 18.2731L16.3718 18.2737L16.3492 18.3413L16.444 18.373ZM16.1003 19.3994L16.0054 19.4312L16.1003 19.7143L16.1951 19.4312L16.1003 19.3994ZM15.7565 18.373L15.8513 18.3413L15.8287 18.2737L15.7574 18.2731L15.7565 18.373ZM14.6735 18.3633L14.614 18.2829L14.3741 18.4606L14.6726 18.4633L14.6735 18.3633ZM15.5436 17.7188L15.6031 17.7991L15.6604 17.7567L15.639 17.6887L15.5436 17.7188ZM15.2184 16.6865L15.2764 16.6051L15.0334 16.432L15.123 16.7166L15.2184 16.6865ZM16.1003 17.3145L16.0422 17.3959L16.1003 17.4372L16.1583 17.3959L16.1003 17.3145ZM16.9821 16.6865L17.0774 16.7167L17.1675 16.4318L16.9241 16.6051L16.9821 16.6865ZM12.9762 16.2998L12.8814 16.3315L12.904 16.3992L12.9753 16.3998L12.9762 16.2998ZM14.0583 16.3096L14.1177 16.39L14.358 16.2123L14.0592 16.2096L14.0583 16.3096ZM13.1881 16.9531L13.1287 16.8727L13.0713 16.9151L13.0928 16.9831L13.1881 16.9531ZM13.5133 17.9863L13.4552 18.0677L13.6984 18.2414L13.6087 17.9563L13.5133 17.9863ZM12.6325 17.3574L12.6906 17.276L12.6325 17.2346L12.5744 17.276L12.6325 17.3574ZM11.7506 17.9863L11.6553 17.9563L11.5656 18.2411L11.8087 18.0677L11.7506 17.9863ZM12.0758 16.9531L12.1712 16.9831L12.1926 16.9151L12.1353 16.8727L12.0758 16.9531ZM11.2057 16.3096L11.2048 16.2096L10.906 16.2123L11.1463 16.39L11.2057 16.3096ZM12.2878 16.2998L12.2887 16.3998L12.3599 16.3992L12.3826 16.3316L12.2878 16.2998ZM12.6325 15.2725L12.7273 15.2407L12.6326 14.9577L12.5377 15.2406L12.6325 15.2725ZM19.9118 16.2998L19.8169 16.3315L19.8396 16.3992L19.9109 16.3998L19.9118 16.2998ZM20.9948 16.3096L21.0542 16.39L21.2945 16.2123L20.9957 16.2096L20.9948 16.3096ZM20.1247 16.9531L20.0652 16.8727L20.0079 16.9151L20.0293 16.9831L20.1247 16.9531ZM20.4499 17.9863L20.3918 18.0677L20.6349 18.2411L20.5452 17.9563L20.4499 17.9863ZM19.568 17.3574L19.6261 17.276L19.568 17.2346L19.51 17.276L19.568 17.3574ZM18.6862 17.9863L18.5908 17.9563L18.5012 18.2411L18.7443 18.0677L18.6862 17.9863ZM19.0114 16.9531L19.1068 16.9831L19.1282 16.9151L19.0708 16.8727L19.0114 16.9531ZM18.1413 16.3096L18.1404 16.2096L17.8415 16.2123L18.0818 16.39L18.1413 16.3096ZM19.2243 16.2998L19.2252 16.3998L19.2965 16.3992L19.3191 16.3315L19.2243 16.2998ZM19.568 15.2725L19.6629 15.2407L19.568 14.9573L19.4732 15.2407L19.568 15.2725ZM11.0456 13.6416L10.9502 13.6116L10.9288 13.6795L10.986 13.722L11.0456 13.6416ZM11.9157 14.2861L11.9166 14.3861L12.215 14.3834L11.9752 14.2058L11.9157 14.2861ZM10.8327 14.2959L10.8318 14.1959L10.7605 14.1965L10.7378 14.2642L10.8327 14.2959ZM10.4889 15.3232L10.3941 15.355L10.4889 15.6384L10.5838 15.355L10.4889 15.3232ZM10.1452 14.2959L10.24 14.2642L10.2174 14.1965L10.1461 14.1959L10.1452 14.2959ZM9.06216 14.2861L9.00264 14.2058L8.7628 14.3834L9.06126 14.3861L9.06216 14.2861ZM9.93228 13.6416L9.9918 13.722L10.0491 13.6795L10.0277 13.6116L9.93228 13.6416ZM9.60709 12.6094L9.66515 12.528L9.42195 12.3545L9.51171 12.6394L9.60709 12.6094ZM10.4889 13.2383L10.4309 13.3197L10.4889 13.3611L10.547 13.3197L10.4889 13.2383ZM11.3708 12.6094L11.4661 12.6394L11.5559 12.3545L11.3127 12.528L11.3708 12.6094ZM22.2672 13.6416L22.1719 13.6116L22.1504 13.6795L22.2077 13.722L22.2672 13.6416ZM23.1374 14.2861L23.1383 14.3861L23.4367 14.3834L23.1969 14.2058L23.1374 14.2861ZM22.0553 14.2959L22.0544 14.1959L21.9831 14.1965L21.9605 14.2642L22.0553 14.2959ZM21.7116 15.3232L21.6167 15.355L21.7116 15.6384L21.8064 15.355L21.7116 15.3232ZM21.3678 14.2959L21.4627 14.2642L21.44 14.1965L21.3687 14.1959L21.3678 14.2959ZM20.2848 14.2861L20.2253 14.2058L19.9855 14.3834L20.2839 14.3861L20.2848 14.2861ZM21.1549 13.6416L21.2145 13.722L21.2717 13.6795L21.2503 13.6116L21.1549 13.6416ZM20.8297 12.6094L20.8878 12.528L20.6446 12.3545L20.7344 12.6394L20.8297 12.6094ZM21.7116 13.2383L21.6535 13.3197L21.7116 13.3611L21.7697 13.3197L21.7116 13.2383ZM22.5924 12.6094L22.6878 12.6394L22.7777 12.3543L22.5343 12.528L22.5924 12.6094ZM10.8327 9.70312L10.7378 9.73488L10.7605 9.80248L10.8318 9.80312L10.8327 9.70312ZM11.9157 9.71289L11.9752 9.79325L12.215 9.61559L11.9166 9.61289L11.9157 9.71289ZM11.0456 10.3574L10.986 10.2771L10.9288 10.3195L10.9502 10.3875L11.0456 10.3574ZM11.3708 11.3896L11.3128 11.4711L11.5558 11.6442L11.4661 11.3596L11.3708 11.3896ZM10.4889 10.7617L10.5469 10.6803L10.4889 10.639L10.4309 10.6803L10.4889 10.7617ZM9.60709 11.3896L9.51171 11.3596L9.42206 11.6442L9.66509 11.4711L9.60709 11.3896ZM9.93228 10.3574L10.0277 10.3875L10.0491 10.3195L9.9918 10.2771L9.93228 10.3574ZM9.06216 9.71289L9.06126 9.61289L8.7628 9.61559L9.00264 9.79325L9.06216 9.71289ZM10.1452 9.70312L10.1461 9.80312L10.2174 9.80248L10.24 9.73488L10.1452 9.70312ZM10.4889 8.67676L10.5837 8.645L10.4889 8.36188L10.3941 8.645L10.4889 8.67676ZM22.0553 9.70312L21.9605 9.73488L21.9831 9.80248L22.0544 9.80312L22.0553 9.70312ZM23.1374 9.71289L23.1969 9.79325L23.4367 9.61559L23.1383 9.61289L23.1374 9.71289ZM22.2672 10.3574L22.2077 10.2771L22.1504 10.3195L22.1719 10.3875L22.2672 10.3574ZM22.5924 11.3896L22.5344 11.4711L22.7775 11.6444L22.6878 11.3596L22.5924 11.3896ZM21.7116 10.7617L21.7696 10.6803L21.7116 10.6389L21.6536 10.6803L21.7116 10.7617ZM20.8297 11.3896L20.7344 11.3596L20.6447 11.6442L20.8877 11.4711L20.8297 11.3896ZM21.1549 10.3574L21.2503 10.3875L21.2717 10.3195L21.2145 10.2771L21.1549 10.3574ZM20.2848 9.71289L20.2839 9.61289L19.9855 9.61559L20.2253 9.79325L20.2848 9.71289ZM21.3678 9.70312L21.3687 9.80312L21.44 9.80248L21.4627 9.73488L21.3678 9.70312ZM21.7116 8.67676L21.8064 8.645L21.7116 8.36188L21.6168 8.645L21.7116 8.67676ZM13.1881 7.0459L13.0928 7.01588L13.0713 7.08389L13.1287 7.1263L13.1881 7.0459ZM14.0583 7.68945L14.0592 7.78945L14.358 7.78675L14.1177 7.60905L14.0583 7.68945ZM12.9762 7.69922L12.9753 7.59922L12.904 7.59987L12.8814 7.66749L12.9762 7.69922ZM12.6325 8.72656L12.5377 8.75837L12.6326 9.04131L12.7273 8.75829L12.6325 8.72656ZM12.2878 7.69922L12.3826 7.66741L12.3599 7.59987L12.2887 7.59922L12.2878 7.69922ZM11.2057 7.68945L11.1463 7.60905L10.906 7.78675L11.2048 7.78945L11.2057 7.68945ZM12.0758 7.0459L12.1353 7.1263L12.1926 7.08389L12.1712 7.01588L12.0758 7.0459ZM11.7506 6.0127L11.8087 5.93128L11.5656 5.75791L11.6553 6.04272L11.7506 6.0127ZM12.6325 6.6416L12.5744 6.72302L12.6325 6.76445L12.6906 6.72299L12.6325 6.6416ZM13.5133 6.0127L13.6087 6.04272L13.6984 5.75766L13.4552 5.93131L13.5133 6.0127ZM20.1247 7.0459L20.0293 7.01588L20.0079 7.08389L20.0652 7.1263L20.1247 7.0459ZM20.9948 7.68945L20.9957 7.78945L21.2945 7.78675L21.0542 7.60905L20.9948 7.68945ZM19.9118 7.69922L19.9109 7.59922L19.8396 7.59987L19.8169 7.66749L19.9118 7.69922ZM19.568 8.72656L19.4732 8.75829L19.568 9.04171L19.6629 8.75829L19.568 8.72656ZM19.2243 7.69922L19.3191 7.66749L19.2965 7.59987L19.2252 7.59922L19.2243 7.69922ZM18.1413 7.68945L18.0818 7.60905L17.8415 7.78675L18.1404 7.78945L18.1413 7.68945ZM19.0114 7.0459L19.0708 7.1263L19.1282 7.08389L19.1068 7.01588L19.0114 7.0459ZM18.6862 6.0127L18.7443 5.93128L18.5012 5.75791L18.5908 6.04272L18.6862 6.0127ZM19.568 6.6416L19.51 6.72302L19.568 6.76443L19.6261 6.72302L19.568 6.6416ZM20.4499 6.0127L20.5452 6.04272L20.6349 5.75791L20.3918 5.93128L20.4499 6.0127ZM16.444 5.62598L16.3492 5.65773L16.3718 5.72533L16.4431 5.72597L16.444 5.62598ZM17.527 5.63574L17.5865 5.71613L17.8266 5.53844L17.5279 5.53575L17.527 5.63574ZM16.6559 6.28027L16.5964 6.19989L16.5391 6.24233L16.5606 6.31038L16.6559 6.28027ZM16.9821 7.31348L16.924 7.39489L17.1675 7.56851L17.0774 7.28337L16.9821 7.31348ZM16.1003 6.68457L16.1583 6.60315L16.1003 6.56174L16.0422 6.60315L16.1003 6.68457ZM15.2184 7.31348L15.123 7.28345L15.0334 7.56826L15.2765 7.39489L15.2184 7.31348ZM15.5436 6.28027L15.639 6.3103L15.6604 6.24233L15.6031 6.19992L15.5436 6.28027ZM14.6735 5.63574L14.6726 5.53575L14.3741 5.53844L14.614 5.7161L14.6735 5.63574ZM15.7565 5.62598L15.7574 5.72597L15.8287 5.72533L15.8513 5.65773L15.7565 5.62598ZM16.1003 4.59961L16.1951 4.56785L16.1003 4.28473L16.0054 4.56785L16.1003 4.59961ZM16.6559 17.7188L16.5964 17.7991L17.4675 18.4437L17.527 18.3633L17.5865 18.2829L16.7154 17.6384L16.6559 17.7188ZM17.527 18.3633L17.5261 18.2633L16.4431 18.2731L16.444 18.373L16.4449 18.473L17.5279 18.4633L17.527 18.3633ZM16.444 18.373L16.3492 18.3413L16.0054 19.3677L16.1003 19.3994L16.1951 19.4312L16.5388 18.4048L16.444 18.373ZM16.1003 19.3994L16.1951 19.3677L15.8513 18.3413L15.7565 18.373L15.6617 18.4048L16.0054 19.4312L16.1003 19.3994ZM15.7565 18.373L15.7574 18.2731L14.6744 18.2633L14.6735 18.3633L14.6726 18.4633L15.7556 18.473L15.7565 18.373ZM14.6735 18.3633L14.733 18.4436L15.6031 17.7991L15.5436 17.7188L15.4841 17.6384L14.614 18.2829L14.6735 18.3633ZM15.5436 17.7188L15.639 17.6887L15.3138 16.6565L15.2184 16.6865L15.123 16.7166L15.4482 17.7488L15.5436 17.7188ZM15.2184 16.6865L15.1604 16.768L16.0422 17.3959L16.1003 17.3145L16.1583 17.233L15.2764 16.6051L15.2184 16.6865ZM16.1003 17.3145L16.1583 17.3959L17.0401 16.768L16.9821 16.6865L16.9241 16.6051L16.0422 17.233L16.1003 17.3145ZM16.9821 16.6865L16.8867 16.6564L16.5606 17.6886L16.6559 17.7188L16.7513 17.7489L17.0774 16.7167L16.9821 16.6865ZM12.9762 16.2998L12.9753 16.3998L14.0574 16.4096L14.0583 16.3096L14.0592 16.2096L12.9771 16.1998L12.9762 16.2998ZM14.0583 16.3096L13.9988 16.2292L13.1287 16.8727L13.1881 16.9531L13.2476 17.0335L14.1177 16.39L14.0583 16.3096ZM13.1881 16.9531L13.0928 16.9831L13.4179 18.0164L13.5133 17.9863L13.6087 17.9563L13.2835 16.9231L13.1881 16.9531ZM13.5133 17.9863L13.5714 17.9049L12.6906 17.276L12.6325 17.3574L12.5744 17.4388L13.4552 18.0677L13.5133 17.9863ZM12.6325 17.3574L12.5744 17.276L11.6926 17.9049L11.7506 17.9863L11.8087 18.0677L12.6905 17.4388L12.6325 17.3574ZM11.7506 17.9863L11.846 18.0164L12.1712 16.9831L12.0758 16.9531L11.9804 16.9231L11.6553 17.9563L11.7506 17.9863ZM12.0758 16.9531L12.1353 16.8727L11.2652 16.2292L11.2057 16.3096L11.1463 16.39L12.0164 17.0335L12.0758 16.9531ZM11.2057 16.3096L11.2066 16.4096L12.2887 16.3998L12.2878 16.2998L12.2868 16.1998L11.2048 16.2096L11.2057 16.3096ZM12.2878 16.2998L12.3826 16.3316L12.7273 15.3043L12.6325 15.2725L12.5377 15.2406L12.1929 16.268L12.2878 16.2998ZM12.6325 15.2725L12.5376 15.3042L12.8814 16.3315L12.9762 16.2998L13.0711 16.2681L12.7273 15.2407L12.6325 15.2725ZM19.9118 16.2998L19.9109 16.3998L20.9939 16.4096L20.9948 16.3096L20.9957 16.2096L19.9127 16.1998L19.9118 16.2998ZM20.9948 16.3096L20.9353 16.2292L20.0652 16.8727L20.1247 16.9531L20.1841 17.0335L21.0542 16.39L20.9948 16.3096ZM20.1247 16.9531L20.0293 16.9831L20.3545 18.0164L20.4499 17.9863L20.5452 17.9563L20.2201 16.9231L20.1247 16.9531ZM20.4499 17.9863L20.5079 17.9049L19.6261 17.276L19.568 17.3574L19.51 17.4388L20.3918 18.0677L20.4499 17.9863ZM19.568 17.3574L19.51 17.276L18.6281 17.9049L18.6862 17.9863L18.7443 18.0677L19.6261 17.4388L19.568 17.3574ZM18.6862 17.9863L18.7816 18.0164L19.1068 16.9831L19.0114 16.9531L18.916 16.9231L18.5908 17.9563L18.6862 17.9863ZM19.0114 16.9531L19.0708 16.8727L18.2007 16.2292L18.1413 16.3096L18.0818 16.39L18.9519 17.0335L19.0114 16.9531ZM18.1413 16.3096L18.1422 16.4096L19.2252 16.3998L19.2243 16.2998L19.2234 16.1998L18.1404 16.2096L18.1413 16.3096ZM19.2243 16.2998L19.3191 16.3315L19.6629 15.3042L19.568 15.2725L19.4732 15.2407L19.1294 16.2681L19.2243 16.2998ZM19.568 15.2725L19.4732 15.3042L19.8169 16.3315L19.9118 16.2998L20.0066 16.2681L19.6629 15.2407L19.568 15.2725ZM11.0456 13.6416L10.986 13.722L11.8562 14.3665L11.9157 14.2861L11.9752 14.2058L11.1051 13.5612L11.0456 13.6416ZM11.9157 14.2861L11.9148 14.1861L10.8318 14.1959L10.8327 14.2959L10.8336 14.3959L11.9166 14.3861L11.9157 14.2861ZM10.8327 14.2959L10.7378 14.2642L10.3941 15.2915L10.4889 15.3232L10.5838 15.355L10.9275 14.3276L10.8327 14.2959ZM10.4889 15.3232L10.5838 15.2915L10.24 14.2642L10.1452 14.2959L10.0503 14.3276L10.3941 15.355L10.4889 15.3232ZM10.1452 14.2959L10.1461 14.1959L9.06307 14.1861L9.06216 14.2861L9.06126 14.3861L10.1443 14.3959L10.1452 14.2959ZM9.06216 14.2861L9.12169 14.3665L9.9918 13.722L9.93228 13.6416L9.87276 13.5612L9.00264 14.2058L9.06216 14.2861ZM9.93228 13.6416L10.0277 13.6116L9.70246 12.5793L9.60709 12.6094L9.51171 12.6394L9.8369 13.6716L9.93228 13.6416ZM9.60709 12.6094L9.54902 12.6908L10.4309 13.3197L10.4889 13.2383L10.547 13.1569L9.66515 12.528L9.60709 12.6094ZM10.4889 13.2383L10.547 13.3197L11.4288 12.6908L11.3708 12.6094L11.3127 12.528L10.4309 13.1569L10.4889 13.2383ZM11.3708 12.6094L11.2754 12.5793L10.9502 13.6116L11.0456 13.6416L11.1409 13.6716L11.4661 12.6394L11.3708 12.6094ZM22.2672 13.6416L22.2077 13.722L23.0778 14.3665L23.1374 14.2861L23.1969 14.2058L22.3268 13.5612L22.2672 13.6416ZM23.1374 14.2861L23.1365 14.1861L22.0544 14.1959L22.0553 14.2959L22.0562 14.3959L23.1383 14.3861L23.1374 14.2861ZM22.0553 14.2959L21.9605 14.2642L21.6167 15.2915L21.7116 15.3232L21.8064 15.355L22.1502 14.3276L22.0553 14.2959ZM21.7116 15.3232L21.8064 15.2915L21.4627 14.2642L21.3678 14.2959L21.273 14.3276L21.6167 15.355L21.7116 15.3232ZM21.3678 14.2959L21.3687 14.1959L20.2857 14.1861L20.2848 14.2861L20.2839 14.3861L21.3669 14.3959L21.3678 14.2959ZM20.2848 14.2861L20.3443 14.3665L21.2145 13.722L21.1549 13.6416L21.0954 13.5612L20.2253 14.2058L20.2848 14.2861ZM21.1549 13.6416L21.2503 13.6116L20.9251 12.5793L20.8297 12.6094L20.7344 12.6394L21.0596 13.6716L21.1549 13.6416ZM20.8297 12.6094L20.7717 12.6908L21.6535 13.3197L21.7116 13.2383L21.7696 13.1569L20.8878 12.528L20.8297 12.6094ZM21.7116 13.2383L21.7697 13.3197L22.6505 12.6908L22.5924 12.6094L22.5343 12.528L21.6535 13.1569L21.7116 13.2383ZM22.5924 12.6094L22.4971 12.5793L22.1719 13.6116L22.2672 13.6416L22.3626 13.6716L22.6878 12.6394L22.5924 12.6094ZM10.8327 9.70312L10.8318 9.80312L11.9148 9.81289L11.9157 9.71289L11.9166 9.61289L10.8336 9.60313L10.8327 9.70312ZM11.9157 9.71289L11.8562 9.63253L10.986 10.2771L11.0456 10.3574L11.1051 10.4378L11.9752 9.79325L11.9157 9.71289ZM11.0456 10.3574L10.9502 10.3875L11.2754 11.4197L11.3708 11.3896L11.4661 11.3596L11.1409 10.3274L11.0456 10.3574ZM11.3708 11.3896L11.4288 11.3082L10.5469 10.6803L10.4889 10.7617L10.4309 10.8432L11.3128 11.4711L11.3708 11.3896ZM10.4889 10.7617L10.4309 10.6803L9.54908 11.3082L9.60709 11.3896L9.66509 11.4711L10.5469 10.8432L10.4889 10.7617ZM9.60709 11.3896L9.70246 11.4197L10.0277 10.3875L9.93228 10.3574L9.8369 10.3274L9.51171 11.3596L9.60709 11.3896ZM9.93228 10.3574L9.9918 10.2771L9.12169 9.63253L9.06216 9.71289L9.00264 9.79325L9.87276 10.4378L9.93228 10.3574ZM9.06216 9.71289L9.06307 9.81289L10.1461 9.80312L10.1452 9.70312L10.1443 9.60313L9.06126 9.61289L9.06216 9.71289ZM10.1452 9.70312L10.24 9.73488L10.5837 8.70852L10.4889 8.67676L10.3941 8.645L10.0503 9.67137L10.1452 9.70312ZM10.4889 8.67676L10.3941 8.70852L10.7378 9.73488L10.8327 9.70312L10.9275 9.67137L10.5837 8.645L10.4889 8.67676ZM22.0553 9.70312L22.0544 9.80312L23.1365 9.81289L23.1374 9.71289L23.1383 9.61289L22.0562 9.60313L22.0553 9.70312ZM23.1374 9.71289L23.0778 9.63253L22.2077 10.2771L22.2672 10.3574L22.3268 10.4378L23.1969 9.79325L23.1374 9.71289ZM22.2672 10.3574L22.1719 10.3875L22.4971 11.4197L22.5924 11.3896L22.6878 11.3596L22.3626 10.3274L22.2672 10.3574ZM22.5924 11.3896L22.6505 11.3082L21.7696 10.6803L21.7116 10.7617L21.6535 10.8431L22.5344 11.4711L22.5924 11.3896ZM21.7116 10.7617L21.6536 10.6803L20.7717 11.3082L20.8297 11.3896L20.8877 11.4711L21.7696 10.8432L21.7116 10.7617ZM20.8297 11.3896L20.9251 11.4197L21.2503 10.3875L21.1549 10.3574L21.0596 10.3274L20.7344 11.3596L20.8297 11.3896ZM21.1549 10.3574L21.2145 10.2771L20.3443 9.63253L20.2848 9.71289L20.2253 9.79325L21.0954 10.4378L21.1549 10.3574ZM20.2848 9.71289L20.2857 9.81289L21.3687 9.80312L21.3678 9.70312L21.3669 9.60313L20.2839 9.61289L20.2848 9.71289ZM21.3678 9.70312L21.4627 9.73488L21.8064 8.70852L21.7116 8.67676L21.6168 8.645L21.273 9.67137L21.3678 9.70312ZM21.7116 8.67676L21.6168 8.70852L21.9605 9.73488L22.0553 9.70312L22.1502 9.67137L21.8064 8.645L21.7116 8.67676ZM13.1881 7.0459L13.1287 7.1263L13.9988 7.76985L14.0583 7.68945L14.1177 7.60905L13.2476 6.9655L13.1881 7.0459ZM14.0583 7.68945L14.0574 7.58946L12.9753 7.59922L12.9762 7.69922L12.9771 7.79921L14.0592 7.78945L14.0583 7.68945ZM12.9762 7.69922L12.8814 7.66749L12.5376 8.69483L12.6325 8.72656L12.7273 8.75829L13.0711 7.73095L12.9762 7.69922ZM12.6325 8.72656L12.7273 8.69475L12.3826 7.66741L12.2878 7.69922L12.1929 7.73103L12.5377 8.75837L12.6325 8.72656ZM12.2878 7.69922L12.2887 7.59922L11.2066 7.58946L11.2057 7.68945L11.2048 7.78945L12.2868 7.79921L12.2878 7.69922ZM11.2057 7.68945L11.2652 7.76985L12.1353 7.1263L12.0758 7.0459L12.0164 6.9655L11.1463 7.60905L11.2057 7.68945ZM12.0758 7.0459L12.1712 7.01588L11.846 5.98267L11.7506 6.0127L11.6553 6.04272L11.9804 7.07592L12.0758 7.0459ZM11.7506 6.0127L11.6926 6.09411L12.5744 6.72302L12.6325 6.6416L12.6905 6.56019L11.8087 5.93128L11.7506 6.0127ZM12.6325 6.6416L12.6906 6.72299L13.5714 6.09408L13.5133 6.0127L13.4552 5.93131L12.5744 6.56022L12.6325 6.6416ZM13.5133 6.0127L13.4179 5.98267L13.0928 7.01588L13.1881 7.0459L13.2835 7.07592L13.6087 6.04272L13.5133 6.0127ZM20.1247 7.0459L20.0652 7.1263L20.9353 7.76985L20.9948 7.68945L21.0542 7.60905L20.1841 6.9655L20.1247 7.0459ZM20.9948 7.68945L20.9939 7.58946L19.9109 7.59922L19.9118 7.69922L19.9127 7.79921L20.9957 7.78945L20.9948 7.68945ZM19.9118 7.69922L19.8169 7.66749L19.4732 8.69483L19.568 8.72656L19.6629 8.75829L20.0066 7.73095L19.9118 7.69922ZM19.568 8.72656L19.6629 8.69483L19.3191 7.66749L19.2243 7.69922L19.1294 7.73095L19.4732 8.75829L19.568 8.72656ZM19.2243 7.69922L19.2252 7.59922L18.1422 7.58946L18.1413 7.68945L18.1404 7.78945L19.2234 7.79921L19.2243 7.69922ZM18.1413 7.68945L18.2007 7.76985L19.0708 7.1263L19.0114 7.0459L18.9519 6.9655L18.0818 7.60905L18.1413 7.68945ZM19.0114 7.0459L19.1068 7.01588L18.7816 5.98267L18.6862 6.0127L18.5908 6.04272L18.916 7.07592L19.0114 7.0459ZM18.6862 6.0127L18.6281 6.09411L19.51 6.72302L19.568 6.6416L19.6261 6.56019L18.7443 5.93128L18.6862 6.0127ZM19.568 6.6416L19.6261 6.72302L20.5079 6.09411L20.4499 6.0127L20.3918 5.93128L19.51 6.56019L19.568 6.6416ZM20.4499 6.0127L20.3545 5.98267L20.0293 7.01588L20.1247 7.0459L20.2201 7.07592L20.5452 6.04272L20.4499 6.0127ZM16.444 5.62598L16.4431 5.72597L17.5261 5.73574L17.527 5.63574L17.5279 5.53575L16.4449 5.52598L16.444 5.62598ZM17.527 5.63574L17.4675 5.55535L16.5964 6.19989L16.6559 6.28027L16.7154 6.36066L17.5865 5.71613L17.527 5.63574ZM16.6559 6.28027L16.5606 6.31038L16.8867 7.34358L16.9821 7.31348L17.0774 7.28337L16.7513 6.25017L16.6559 6.28027ZM16.9821 7.31348L17.0402 7.23206L16.1583 6.60315L16.1003 6.68457L16.0422 6.76599L16.924 7.39489L16.9821 7.31348ZM16.1003 6.68457L16.0422 6.60315L15.1604 7.23206L15.2184 7.31348L15.2765 7.39489L16.1583 6.76599L16.1003 6.68457ZM15.2184 7.31348L15.3138 7.3435L15.639 6.3103L15.5436 6.28027L15.4482 6.25025L15.123 7.28345L15.2184 7.31348ZM15.5436 6.28027L15.6031 6.19992L14.733 5.55539L14.6735 5.63574L14.614 5.7161L15.4841 6.36063L15.5436 6.28027ZM14.6735 5.63574L14.6744 5.73574L15.7574 5.72597L15.7565 5.62598L15.7556 5.52598L14.6726 5.53575L14.6735 5.63574ZM15.7565 5.62598L15.8513 5.65773L16.1951 4.63137L16.1003 4.59961L16.0054 4.56785L15.6617 5.59422L15.7565 5.62598ZM16.1003 4.59961L16.0054 4.63137L16.3492 5.65773L16.444 5.62598L16.5388 5.59422L16.1951 4.56785L16.1003 4.59961Z" fill="#FECA00" mask="url(#path-12-inside-1_299_35725)"/>
</g>
</g>
<defs>
<clipPath id="clip0_299_35725">
<rect width="32" height="24" fill="white"/>
</clipPath>
</defs>
</svg>
