<svg width="32" height="24" viewBox="0 0 32 24" fill="none" xmlns="http://www.w3.org/2000/svg">
<g clip-path="url(#clip0_299_35727)">
<rect width="32" height="24" fill="white"/>
<path fill-rule="evenodd" clip-rule="evenodd" d="M0 0V24H32V0H0Z" fill="#C51918"/>
<mask id="mask0_299_35727" style="mask-type:luminance" maskUnits="userSpaceOnUse" x="0" y="0" width="32" height="24">
<path fill-rule="evenodd" clip-rule="evenodd" d="M0 0V24H32V0H0Z" fill="white"/>
</mask>
<g mask="url(#mask0_299_35727)">
<rect width="14" height="10" fill="#4257BF"/>
<rect x="18" y="14" width="14" height="10" fill="#4257BF"/>
<path fill-rule="evenodd" clip-rule="evenodd" d="M13 0H19V9H32V15H19V24H13V15H0V9H13V0Z" fill="#F7FCFF"/>
<path d="M13.8676 10.5225C13.9038 10.4727 13.9416 10.42 13.9819 10.3662L14.0951 10.4619C13.9968 10.5933 13.9108 10.7129 13.8373 10.8193C13.9677 10.7799 14.0942 10.7432 14.0942 10.7432C13.9687 10.9275 13.8242 11.0173 13.6713 11.0732C13.6236 11.1517 13.5867 11.219 13.561 11.2754C13.5402 11.321 13.5211 11.3669 13.5033 11.4121C13.6435 11.3267 13.8237 11.2148 13.8237 11.2148C13.7337 11.4727 13.5816 11.6044 13.4096 11.7041C13.3956 11.7589 13.383 11.8131 13.3735 11.8672C13.5091 11.7845 13.682 11.6778 13.6928 11.6709C13.6149 11.8938 13.4895 12.02 13.3461 12.1152C13.343 12.1723 13.3425 12.2289 13.3442 12.2852C13.4676 12.1773 13.6422 12.0198 13.6488 12.0137C13.609 12.2581 13.4989 12.4068 13.3656 12.5283C13.3763 12.5961 13.39 12.6632 13.4076 12.7295C13.4125 12.7478 13.4183 12.7661 13.4233 12.7842C13.5029 12.6389 13.6078 12.4424 13.6078 12.4424C13.657 12.7009 13.5964 12.8863 13.5033 13.0537C13.5151 13.0896 13.5292 13.1243 13.5414 13.1592C13.5829 13.0328 13.6239 12.9111 13.6254 12.9062C13.7052 13.117 13.6949 13.2885 13.6518 13.4473C13.6993 13.5596 13.75 13.6646 13.8022 13.7627C13.798 13.6068 13.7927 13.4231 13.7924 13.416C13.9724 13.625 14.0097 13.8245 14.0092 14.0254L13.9301 13.9814C14.0182 14.1185 14.1091 14.2361 14.2045 14.3301C14.2003 14.1768 14.195 14.002 14.1947 13.9951C14.341 14.1648 14.3905 14.3282 14.4047 14.4912C14.4258 14.5043 14.447 14.5165 14.4682 14.5273C14.536 14.5619 14.6147 14.5935 14.7055 14.626C14.7321 14.4643 14.7729 14.1738 14.7729 14.1738C14.8848 14.3618 14.9071 14.5281 14.8949 14.6875C14.9132 14.693 14.9315 14.7005 14.9506 14.7061C15.0198 14.7262 15.0911 14.7459 15.184 14.7705C15.2194 14.7797 15.3692 14.8189 15.4067 14.8291C15.5723 14.8741 15.6651 14.9052 15.7221 14.9395C15.7462 14.954 15.7653 14.9695 15.7787 14.9893L15.6625 15.0791C15.6633 15.0802 15.6593 15.0778 15.6518 15.0732C15.6102 15.0483 15.5234 15.0188 15.3715 14.9775C15.3359 14.9679 15.1951 14.9308 15.1537 14.9199C15.0581 14.8946 14.9849 14.8743 14.9135 14.8535C14.9106 14.8527 14.9076 14.8514 14.9047 14.8506C14.7526 14.9013 14.5854 14.9197 14.3754 14.8564C14.3754 14.8564 14.4928 14.8072 14.6166 14.7568C14.538 14.7276 14.4682 14.6979 14.4057 14.666C14.4013 14.6638 14.3973 14.6605 14.393 14.6582C14.2388 14.7111 14.0696 14.7323 13.8559 14.668C13.8582 14.6671 14.0479 14.5887 14.1977 14.5264C14.0676 14.4178 13.945 14.2714 13.8285 14.0947C13.6504 14.0385 13.4829 13.947 13.3422 13.7324C13.349 13.7347 13.5283 13.7916 13.6781 13.8389C13.6377 13.7629 13.5976 13.6835 13.56 13.5996C13.3758 13.5439 13.203 13.4525 13.058 13.2314C13.0687 13.235 13.3031 13.3115 13.4594 13.3594C13.4242 13.2677 13.3895 13.1729 13.3578 13.0742C13.2137 12.9897 13.085 12.8725 12.9946 12.6621C13.0003 12.6652 13.1474 12.7428 13.2807 12.8125C13.277 12.7989 13.2726 12.7852 13.269 12.7715C13.2488 12.6956 13.2338 12.6187 13.2221 12.541C13.1045 12.4071 13.0142 12.2473 13.0004 12.0029C13.0024 12.0052 13.1014 12.1137 13.1977 12.2197C13.1978 12.185 13.1998 12.1502 13.2016 12.1152C13.1064 11.9863 13.0692 11.8332 13.0561 11.6006C13.0561 11.6006 13.1458 11.6993 13.2377 11.8008C13.2518 11.7279 13.2709 11.6548 13.2924 11.5811C13.1728 11.4384 13.1066 11.239 13.0922 10.9854C13.0989 10.9931 13.2789 11.1994 13.3871 11.3145C13.4014 11.2797 13.4152 11.2439 13.4311 11.209C13.4318 11.2074 13.4323 11.2057 13.433 11.2041C13.3202 11.0528 13.3745 10.7757 13.3598 10.5146C13.3598 10.5146 13.4895 10.7801 13.5912 10.9238C13.6238 10.8724 13.6605 10.8176 13.7006 10.7588C13.663 10.5716 13.6911 10.3628 13.7856 10.1328C13.7865 10.1377 13.8303 10.3496 13.8676 10.5225Z" fill="#5AB92D"/>
<path d="M17.9106 10.5225C17.8744 10.4727 17.8366 10.42 17.7963 10.3662L17.6831 10.4619C17.7814 10.5933 17.8674 10.7129 17.9409 10.8193C17.8105 10.7799 17.684 10.7432 17.684 10.7432C17.8095 10.9275 17.954 11.0173 18.1069 11.0732C18.1546 11.1517 18.1915 11.219 18.2172 11.2754C18.238 11.321 18.2571 11.3669 18.2749 11.4121C18.1347 11.3267 17.9545 11.2148 17.9545 11.2148C18.0445 11.4727 18.1966 11.6044 18.3686 11.7041C18.3825 11.7589 18.3952 11.8131 18.4047 11.8672C18.2691 11.7845 18.0962 11.6778 18.0854 11.6709C18.1633 11.8938 18.2887 12.02 18.4321 12.1152C18.4352 12.1723 18.4357 12.2289 18.434 12.2852C18.3106 12.1773 18.136 12.0198 18.1293 12.0137C18.1692 12.2581 18.2793 12.4068 18.4126 12.5283C18.4019 12.5961 18.3882 12.6632 18.3706 12.7295C18.3657 12.7478 18.3599 12.7661 18.3549 12.7842C18.2753 12.6389 18.1704 12.4424 18.1704 12.4424C18.1212 12.7009 18.1818 12.8863 18.2749 13.0537C18.2631 13.0896 18.249 13.1243 18.2368 13.1592C18.1953 13.0328 18.1543 12.9111 18.1528 12.9062C18.073 13.117 18.0833 13.2885 18.1264 13.4473C18.0789 13.5596 18.0282 13.6646 17.976 13.7627C17.9802 13.6068 17.9855 13.4231 17.9858 13.416C17.8058 13.625 17.7685 13.8245 17.769 14.0254L17.8481 13.9814C17.76 14.1185 17.6691 14.2361 17.5737 14.3301C17.5779 14.1768 17.5831 14.002 17.5835 13.9951C17.4372 14.1648 17.3877 14.3282 17.3735 14.4912C17.3524 14.5043 17.3312 14.5165 17.31 14.5273C17.2422 14.5619 17.1635 14.5935 17.0727 14.626C17.0461 14.4643 17.0053 14.1738 17.0053 14.1738C16.8934 14.3618 16.871 14.5281 16.8833 14.6875C16.865 14.693 16.8467 14.7005 16.8276 14.7061C16.7584 14.7262 16.6871 14.7459 16.5942 14.7705C16.5588 14.7797 16.409 14.8189 16.3715 14.8291C16.2059 14.8741 16.1131 14.9052 16.0561 14.9395C16.032 14.954 16.0129 14.9695 15.9995 14.9893L16.1157 15.0791C16.1149 15.0802 16.1189 15.0778 16.1264 15.0732C16.168 15.0483 16.2548 15.0188 16.4067 14.9775C16.4423 14.9679 16.5831 14.9308 16.6245 14.9199C16.7201 14.8946 16.7933 14.8743 16.8647 14.8535C16.8676 14.8527 16.8706 14.8514 16.8735 14.8506C17.0256 14.9013 17.1928 14.9197 17.4028 14.8564C17.4028 14.8564 17.2854 14.8072 17.1616 14.7568C17.2402 14.7276 17.31 14.6979 17.3725 14.666C17.3769 14.6638 17.3809 14.6605 17.3852 14.6582C17.5394 14.7111 17.7086 14.7323 17.9223 14.668C17.92 14.6671 17.7303 14.5887 17.5805 14.5264C17.7106 14.4178 17.8332 14.2714 17.9497 14.0947C18.1278 14.0385 18.2953 13.947 18.436 13.7324C18.4292 13.7347 18.2499 13.7916 18.1001 13.8389C18.1405 13.7629 18.1806 13.6835 18.2182 13.5996C18.4024 13.5439 18.5752 13.4525 18.7202 13.2314C18.7095 13.235 18.4751 13.3115 18.3188 13.3594C18.354 13.2677 18.3887 13.1729 18.4204 13.0742C18.5645 12.9897 18.6932 12.8725 18.7836 12.6621C18.7779 12.6652 18.6308 12.7428 18.4975 12.8125C18.5012 12.7989 18.5056 12.7852 18.5092 12.7715C18.5294 12.6956 18.5444 12.6187 18.5561 12.541C18.6737 12.4071 18.764 12.2473 18.7778 12.0029C18.7758 12.0052 18.6768 12.1137 18.5805 12.2197C18.5804 12.185 18.5784 12.1502 18.5766 12.1152C18.6718 11.9863 18.709 11.8332 18.7221 11.6006C18.7221 11.6006 18.6324 11.6993 18.5405 11.8008C18.5264 11.7279 18.5073 11.6548 18.4858 11.5811C18.6054 11.4384 18.6716 11.239 18.686 10.9854C18.6793 10.9931 18.4993 11.1994 18.3911 11.3145C18.3768 11.2797 18.363 11.2439 18.3471 11.209C18.3464 11.2074 18.3459 11.2057 18.3452 11.2041C18.458 11.0528 18.4037 10.7757 18.4184 10.5146C18.4184 10.5146 18.2887 10.7801 18.187 10.9238C18.1544 10.8724 18.1177 10.8176 18.0776 10.7588C18.1152 10.5716 18.0871 10.3628 17.9926 10.1328C17.9917 10.1377 17.9479 10.3496 17.9106 10.5225Z" fill="#5AB92D"/>
<path d="M13.2515 9.31616C13.6512 9.03514 14.3839 8.79254 14.7609 8.79254C14.7627 8.79254 14.7668 8.79164 14.7774 8.78725C14.8087 8.7743 15.0152 8.64641 15.0281 8.63901C15.2945 8.4865 15.5733 8.40625 15.953 8.40625V9.07292C15.6804 9.07292 15.5022 9.12421 15.3236 9.22645C15.3547 9.20865 15.0882 9.37371 15.0034 9.40881C14.9243 9.44151 14.8449 9.45921 14.7609 9.45921C14.5083 9.45921 13.8948 9.66237 13.5955 9.87278C13.4879 9.9484 13.4979 9.92532 13.5012 9.9704C13.5132 10.1343 13.5009 10.2345 13.4 10.3625C13.3869 10.3792 13.3661 10.4709 13.3643 10.6317L12.7393 10.6238C12.7422 10.3613 12.7821 10.1542 12.8766 9.99851C12.8629 9.72933 12.9575 9.52292 13.2515 9.31616Z" fill="#003994"/>
<path d="M13.5857 9.56647L13.5167 9.45527C13.8375 9.22885 14.1367 9.11461 14.4143 9.11461C14.5063 9.11461 14.6111 9.09015 14.7331 9.04305C14.8148 9.01149 14.8985 8.97249 15.0109 8.91535C15.418 8.70839 15.4296 8.70312 15.5372 8.70312H15.9057V8.83646H15.5372C15.4593 8.83646 15.4341 8.84788 15.0646 9.03572C14.9489 9.09455 14.862 9.13508 14.7756 9.16842C14.6412 9.22035 14.5229 9.24795 14.4143 9.24795C14.1638 9.24795 13.8875 9.35344 13.5857 9.56647Z" fill="#EBCA5E"/>
<path d="M18.4985 9.31616C18.0988 9.03514 17.3661 8.79254 16.9891 8.79254C16.9873 8.79254 16.9832 8.79164 16.9726 8.78725C16.9413 8.7743 16.7348 8.64641 16.7219 8.63901C16.4555 8.4865 16.1767 8.40625 15.797 8.40625V9.07292C16.0696 9.07292 16.2478 9.12421 16.4264 9.22645C16.3953 9.20865 16.6618 9.37371 16.7466 9.40881C16.8257 9.44151 16.9051 9.45921 16.9891 9.45921C17.2417 9.45921 17.8552 9.66237 18.1545 9.87278C18.2621 9.9484 18.2521 9.92532 18.2488 9.9704C18.2368 10.1343 18.2491 10.2345 18.35 10.3625C18.3631 10.3792 18.3839 10.4709 18.3857 10.6317L19.0107 10.6238C19.0078 10.3613 18.9679 10.1542 18.8734 9.99851C18.8871 9.72933 18.7925 9.52292 18.4985 9.31616Z" fill="#003994"/>
<path d="M18.1143 9.56647L18.1833 9.45527C17.8625 9.22885 17.5633 9.11461 17.2857 9.11461C17.1937 9.11461 17.0888 9.09015 16.9669 9.04305C16.8852 9.01149 16.8015 8.97249 16.6891 8.91535C16.282 8.70839 16.2704 8.70312 16.1628 8.70312H15.7943V8.83646H16.1628C16.2407 8.83646 16.2659 8.84788 16.6354 9.03572C16.7511 9.09455 16.838 9.13508 16.9244 9.16842C17.0588 9.22035 17.1771 9.24795 17.2857 9.24795C17.5362 9.24795 17.8125 9.35344 18.1143 9.56647Z" fill="#EBCA5E"/>
<path d="M13.8221 10.0195L14.1482 10.3741V11.8469H14.4775V11.9406L14.9594 12.1724C14.9594 12.1724 15.0322 11.1981 14.8055 10.9413C14.5789 10.6846 14.9594 10.6215 14.9594 10.6215L15.5379 11.2007V10.0195H13.8221Z" fill="#003994"/>
<path d="M17.7379 10.0195L17.4117 10.3741V11.8469H17.0825V11.9406L16.6006 12.1724C16.6006 12.1724 16.5278 11.1981 16.7544 10.9413C16.981 10.6846 16.6006 10.6215 16.6006 10.6215L16.0221 11.2007V10.0195H17.7379Z" fill="#D62818"/>
<path d="M14.8769 10.5977L14.8278 10.6581L15.7895 11.5471L15.8412 11.5445L16.6366 10.6555L16.5824 10.6003L15.8116 11.4617L14.8769 10.5977Z" fill="#FFC300"/>
<path d="M14.7405 10.9707L14.6778 11.0312L15.9054 11.9202L15.9714 11.9176L16.9866 11.0285L16.9173 10.9733L15.9336 11.8347L14.7405 10.9707Z" fill="#FFC300"/>
<path d="M14.1767 12.4219H14.5989L14.8869 12.5098C14.8869 12.5098 14.9796 13.1709 15.4424 13.1709L15.5182 14.0171L15.1595 13.8234C15.1595 13.8234 14.9264 13.9264 14.8869 13.9264C14.8475 13.9264 14.515 14.1128 14.515 13.9264C14.515 13.7399 14.1767 13.4382 14.1767 13.4382V12.4219Z" fill="#D62818"/>
<path d="M17.5182 12.4219H17.096L16.808 12.5098C16.808 12.5098 16.7154 13.1709 16.2525 13.1709L16.1767 14.0171L16.5354 13.8234C16.5354 13.8234 16.7685 13.9264 16.808 13.9264C16.8475 13.9264 17.1799 14.1128 17.1799 13.9264C17.1799 13.7399 17.5182 13.4382 17.5182 13.4382V12.4219Z" fill="#003994"/>
<path d="M16.6138 12.502L17.1138 12.5022C17.1136 12.8762 16.9817 13.1793 16.7216 13.3843L16.4244 12.9555C16.5518 12.855 16.6137 12.7129 16.6138 12.502Z" fill="#D62818"/>
<path d="M15.304 11.4746V12.1759H15.8853C15.8853 12.1759 15.8307 12.7018 15.8307 13.0335C15.8307 13.3652 15.8853 13.7957 15.8853 13.7957C15.8853 13.7957 16.0276 13.7247 16.0276 13.2761C16.0276 12.8274 16.0276 12.1273 16.0276 12.1273L16.4869 12.1759L16.4383 11.5435H16.2447C16.2447 11.5435 16.5425 11.9376 16.2447 11.9376C15.9468 11.9376 15.6045 12.0146 15.5396 12.0146C15.4747 12.0146 15.304 11.4746 15.304 11.4746Z" fill="#D62818"/>
<path d="M15.8096 12.3203C15.8096 12.3203 15.483 12.5127 15.483 12.8256C15.483 13.1385 15.6463 13.4953 15.6463 13.4953C15.6463 13.4953 15.5688 12.7906 15.6892 12.6031C15.8096 12.4157 15.8096 12.3203 15.8096 12.3203Z" fill="#003994"/>
<path d="M15.278 12.5527C15.278 12.5527 15.2596 12.7792 15.3938 12.7792C15.5279 12.7792 15.278 12.5527 15.278 12.5527Z" fill="#003994"/>
<path d="M16.4276 11.9445L16.479 12.1229L15.6244 12.4027L15.4329 11.607L15.6024 11.5605L15.7483 12.1669L16.4276 11.9445Z" fill="#373737"/>
<path d="M13.2779 15.417C13.5607 15.4601 13.8277 15.4951 13.8277 15.4951C13.8277 15.4951 13.7448 15.5843 13.4781 15.6631C13.2132 15.7413 12.8468 15.4218 12.8414 15.417C12.8414 15.417 12.9952 15.3739 13.2779 15.417ZM15.8013 14.8467C15.526 14.8468 14.4589 14.9933 14.2808 15.0947C14.2247 15.1266 14.2143 15.1265 14.2437 15.167C14.253 15.1662 14.2595 15.1647 14.2623 15.1621L14.44 15.3496C14.3665 15.4285 14.2039 15.4396 14.0367 15.4072L13.9605 15.4727C13.9354 15.4389 13.9139 15.405 13.896 15.3711C13.8212 15.3451 13.7502 15.3114 13.6919 15.2705C13.6107 15.2134 13.5264 15.2129 13.4205 15.2754L13.2994 15.042C13.4836 14.9334 13.6675 14.9338 13.8296 15.0479C13.8314 15.0491 13.8337 15.0496 13.8355 15.0508C13.8582 14.9194 13.9441 14.8022 14.0923 14.7178C14.3472 14.5727 15.4622 14.42 15.8013 14.4199V14.8467Z" fill="#D62818"/>
<path fill-rule="evenodd" clip-rule="evenodd" d="M14.3326 14.8809C14.3761 14.8716 14.4206 14.8642 14.4654 14.8555C14.3971 14.8688 14.3298 14.881 14.2652 14.8955C14.0125 14.9522 13.978 15.0116 14.11 15.1172L14.065 15.1807C13.866 15.0215 13.945 14.8858 14.2496 14.8174C14.2719 14.8124 14.2951 14.8086 14.318 14.8037L14.3326 14.8809ZM14.7017 14.8115C14.755 14.8028 14.8089 14.7959 14.8629 14.7881C14.8089 14.7959 14.7549 14.8028 14.7017 14.8115ZM15.0875 14.7568C15.1659 14.7475 15.2443 14.7413 15.3219 14.7344C15.2443 14.7413 15.1658 14.7475 15.0875 14.7568ZM14.692 14.7324C14.7362 14.7252 14.781 14.7195 14.8258 14.7129C14.781 14.7195 14.7362 14.7252 14.692 14.7324ZM15.8805 14.625C15.6343 14.625 15.3586 14.6441 15.0826 14.6768C15.359 14.644 15.6342 14.625 15.8805 14.625Z" fill="#EBCA5E"/>
<path d="M18.2221 15.417C17.9393 15.4601 17.6723 15.4951 17.6723 15.4951C17.6723 15.4951 17.7552 15.5843 18.0219 15.6631C18.2868 15.7413 18.6532 15.4218 18.6586 15.417C18.6586 15.417 18.5048 15.3739 18.2221 15.417ZM15.6987 14.8467C15.974 14.8468 17.0411 14.9933 17.2192 15.0947C17.2753 15.1266 17.2857 15.1265 17.2563 15.167C17.247 15.1662 17.2405 15.1647 17.2377 15.1621L17.06 15.3496C17.1335 15.4285 17.2961 15.4396 17.4633 15.4072L17.5395 15.4727C17.5646 15.4389 17.5861 15.405 17.604 15.3711C17.6788 15.3451 17.7498 15.3114 17.8081 15.2705C17.8893 15.2134 17.9736 15.2129 18.0795 15.2754L18.2006 15.042C18.0164 14.9334 17.8325 14.9338 17.6704 15.0479C17.6686 15.0491 17.6663 15.0496 17.6645 15.0508C17.6418 14.9194 17.5559 14.8022 17.4077 14.7178C17.1528 14.5727 16.0378 14.42 15.6987 14.4199V14.8467Z" fill="#D62818"/>
<path fill-rule="evenodd" clip-rule="evenodd" d="M17.1674 14.8809C17.1239 14.8716 17.0794 14.8642 17.0346 14.8555C17.1029 14.8688 17.1702 14.881 17.2348 14.8955C17.4875 14.9522 17.522 15.0116 17.39 15.1172L17.435 15.1807C17.634 15.0215 17.555 14.8858 17.2504 14.8174C17.2281 14.8124 17.2049 14.8086 17.182 14.8037L17.1674 14.8809ZM16.7983 14.8115C16.745 14.8028 16.6911 14.7959 16.6371 14.7881C16.6911 14.7959 16.7451 14.8028 16.7983 14.8115ZM16.4125 14.7568C16.3341 14.7475 16.2557 14.7413 16.1781 14.7344C16.2557 14.7413 16.3342 14.7475 16.4125 14.7568ZM16.808 14.7324C16.7638 14.7252 16.719 14.7195 16.6742 14.7129C16.719 14.7195 16.7638 14.7252 16.808 14.7324ZM15.6195 14.625C15.8657 14.625 16.1414 14.6441 16.4174 14.6768C16.141 14.644 15.8658 14.625 15.6195 14.625Z" fill="#EBCA5E"/>
<path d="M15.3656 15.5111L15.1713 15.169C15.3482 15.0546 15.5755 15 15.8514 15C16.1286 15 16.3533 15.0551 16.524 15.1716L16.3219 15.5085C16.219 15.4383 16.0627 15.4 15.8514 15.4C15.6389 15.4 15.4775 15.4388 15.3656 15.5111Z" fill="#D62818"/>
</g>
</g>
<defs>
<clipPath id="clip0_299_35727">
<rect width="32" height="24" fill="white"/>
</clipPath>
</defs>
</svg>
