<svg width="32" height="24" viewBox="0 0 32 24" fill="none" xmlns="http://www.w3.org/2000/svg">
<g clip-path="url(#clip0_299_35729)">
<rect width="32" height="24" fill="white"/>
<path fill-rule="evenodd" clip-rule="evenodd" d="M16 0H32V24H16V0Z" fill="#F7FCFF"/>
<path fill-rule="evenodd" clip-rule="evenodd" d="M0 0H16V24H0V0Z" fill="#36A400"/>
<path d="M15.9996 5.49219C18.3365 5.49219 20.4175 6.58368 21.7643 8.2832C20.7011 7.35647 19.3118 6.79395 17.7906 6.79395C14.449 6.79419 11.74 9.50309 11.7399 12.8447C11.7399 16.1865 14.4489 18.8962 17.7906 18.8965C19.3114 18.8965 20.7003 18.3336 21.7633 17.4072C20.4165 19.1064 18.3362 20.1982 15.9996 20.1982C11.9389 20.1981 8.64709 16.9055 8.64709 12.8447C8.64728 8.78411 11.939 5.49237 15.9996 5.49219ZM20.4303 12.0977L22.7223 12.9189L20.4303 13.9014V16.4414L19.028 14.2529L16.4635 15.1758L17.819 12.9189L16.4635 10.7988L18.9088 11.4717L20.611 9.54297L20.4303 12.0977Z" fill="#FF0000"/>
</g>
<defs>
<clipPath id="clip0_299_35729">
<rect width="32" height="24" fill="white"/>
</clipPath>
</defs>
</svg>
