<svg width="32" height="24" viewBox="0 0 32 24" fill="none" xmlns="http://www.w3.org/2000/svg">
<g clip-path="url(#clip0_299_35731)">
<rect width="32" height="24" fill="white"/>
<path fill-rule="evenodd" clip-rule="evenodd" d="M0 0V24H32V0H0Z" fill="#2E42A5"/>
<mask id="mask0_299_35731" style="mask-type:luminance" maskUnits="userSpaceOnUse" x="0" y="0" width="32" height="24">
<path fill-rule="evenodd" clip-rule="evenodd" d="M0 0V24H32V0H0Z" fill="white"/>
</mask>
<g mask="url(#mask0_299_35731)">
<path fill-rule="evenodd" clip-rule="evenodd" d="M0 0V12H32V0H0Z" fill="#FECA00"/>
<path fill-rule="evenodd" clip-rule="evenodd" d="M0 18V24H32V18H0Z" fill="#E31D1C"/>
<path fill-rule="evenodd" clip-rule="evenodd" d="M9.71707 5.71342C9.71707 5.71342 13.8733 3.8358 14.2511 4.0491C14.6289 4.26241 14.72 4.87038 15.0461 4.87038C15.3723 4.87038 16.0288 4.67827 16.303 4.67827C16.5771 4.67827 16.8481 4.87038 16.8481 4.87038H18.0187V4.21939L23.3269 5.71342C23.3269 5.71342 20.2309 6.11789 19.9976 6.11789C19.7642 6.11789 19.9976 6.45151 19.9976 6.45151C19.9976 6.45151 19.5561 6.11789 18.8837 6.11789C18.2114 6.11789 16.8481 6.81246 16.8481 6.81246L17.3436 7.87861L16.8481 8.19212L16.303 7.87861C16.303 7.87861 16.3383 7.00186 16.1035 7.00186C15.8687 7.00186 15.6975 7.56511 15.6975 7.87861C15.6975 8.19212 15.0461 8.19212 15.0461 8.19212L15.3371 7.60521C15.3371 7.60521 15.6263 6.63218 15.0461 6.63218C14.466 6.63218 11.8213 6.11789 11.8213 6.11789L11.1451 6.45151L11.3868 5.71342H9.71707Z" fill="#7B2900"/>
<path fill-rule="evenodd" clip-rule="evenodd" d="M15.9221 18.0527C15.9224 18.0766 15.9667 21.2429 15.7102 21.5146C15.4528 21.7869 15.1395 21.5147 14.7336 21.5146C14.3294 21.5146 15.5347 18.8311 15.5461 18.8057L15.9221 18.0527ZM12.7619 11.7451C12.6124 12.4989 12.5892 13.923 13.0608 15.0879C13.5306 16.2481 15.3013 17.1635 15.3156 17.1709C15.3156 17.1709 16.2154 17.3711 14.8488 17.5156C13.482 17.6602 12.1499 17.2294 11.5012 15.7715C10.854 14.3166 11.4984 11.0977 11.5012 11.084L12.7619 11.7451Z" fill="#E31D1C"/>
<path fill-rule="evenodd" clip-rule="evenodd" d="M15.6744 18.5576C15.6744 18.5576 14.9577 21.6387 14.4576 21.6387C13.958 21.6385 14.4576 21.2158 14.4576 20.9492C14.4572 20.6852 13.9627 21.2083 13.9556 21.2158L14.4576 19.4238L15.1656 18.5576H15.6744ZM11.4849 10.7734C11.3596 11.899 11.359 14.8099 12.0806 16.0713C12.8024 17.3325 15.9683 17.8623 15.9683 17.8623C15.9683 17.8623 15.3438 18.3242 14.1988 18.54C13.0536 18.7559 10.8702 17.4739 10.3267 15.2969C9.78339 13.1199 10.6314 10.1641 10.6314 10.1641L11.4849 10.7734Z" fill="#2E42A5"/>
<path fill-rule="evenodd" clip-rule="evenodd" d="M15.061 18.7178C15.0507 18.7431 14.6571 19.7011 14.1724 19.7012C13.6812 19.7012 14.1719 19.4141 13.686 19.4141C13.2078 19.4136 13.8792 18.7365 13.8979 18.7178H15.061ZM10.6206 9.92773C10.2349 11.0122 10.3544 14.1249 10.6206 15.6699C10.8872 17.2147 13.4067 18.1455 13.4067 18.1455C13.4067 18.1455 12.7821 18.6074 11.6372 18.8232C10.4921 19.0391 9.76729 17.5436 9.49756 15.6699C9.22842 13.7999 9.76488 9.33669 9.76709 9.31836L10.6206 9.92773Z" fill="#FECA00"/>
<path fill-rule="evenodd" clip-rule="evenodd" d="M15.9446 18.0527C15.9443 18.0766 15.9 21.2429 16.1565 21.5146C16.4139 21.7869 16.7272 21.5147 17.1331 21.5146C17.5373 21.5146 16.332 18.8311 16.3206 18.8057L15.9446 18.0527ZM19.1048 11.7451C19.2543 12.4989 19.2775 13.923 18.8059 15.0879C18.3361 16.2481 16.5654 17.1635 16.5511 17.1709C16.5511 17.1709 15.6513 17.3711 17.0179 17.5156C18.3847 17.6602 19.7168 17.2294 20.3655 15.7715C21.0127 14.3166 20.3683 11.0977 20.3655 11.084L19.1048 11.7451Z" fill="#E31D1C"/>
<path fill-rule="evenodd" clip-rule="evenodd" d="M16.1923 18.5576C16.1923 18.5576 16.909 21.6387 17.4091 21.6387C17.9087 21.6385 17.4091 21.2158 17.4091 20.9492C17.4095 20.6852 17.904 21.2083 17.9111 21.2158L17.4091 19.4238L16.7011 18.5576H16.1923ZM20.3818 10.7734C20.5071 11.899 20.5077 14.8099 19.7861 16.0713C19.0643 17.3325 15.8984 17.8623 15.8984 17.8623C15.8984 17.8623 16.5229 18.3242 17.6679 18.54C18.8131 18.7559 20.9965 17.4739 21.54 15.2969C22.0833 13.1199 21.2353 10.1641 21.2353 10.1641L20.3818 10.7734Z" fill="#2E42A5"/>
<path fill-rule="evenodd" clip-rule="evenodd" d="M16.8057 18.7178C16.816 18.7431 17.2096 19.7011 17.6943 19.7012C18.1855 19.7012 17.6948 19.4141 18.1807 19.4141C18.6589 19.4136 17.9875 18.7365 17.9688 18.7178H16.8057ZM21.2461 9.92773C21.6318 11.0122 21.5123 14.1249 21.2461 15.6699C20.9795 17.2147 18.46 18.1455 18.46 18.1455C18.46 18.1455 19.0846 18.6074 20.2295 18.8232C21.3746 19.0391 22.0994 17.5436 22.3691 15.6699C22.6383 13.7999 22.1018 9.33669 22.0996 9.31836L21.2461 9.92773Z" fill="#FECA00"/>
<path d="M10.2029 10.4457L10.2944 9.89334L11.8953 9.99698L10.681 8.73905L11.0902 8.34988L12.7325 10.0512L11.3284 7.41118L11.8138 7.12249L13.0921 9.00286L12.4824 7.04837L13.0067 6.83984L14.9723 10.7599L14.2183 10.7111L14.2921 10.9479L14.9341 11.1181L14.7878 11.6615L14.4902 11.5826L14.7682 12.4739L14.2852 11.7634L15.1262 13.3439L13.0599 11.2033L10.2029 10.4457Z" fill="#6FAE21"/>
<path d="M21.9262 10.4457L21.8347 9.89334L20.2338 9.99698L21.4481 8.73905L21.0389 8.34988L19.3966 10.0512L20.8007 7.41118L20.3153 7.12249L19.037 9.00286L19.6467 7.04837L19.1224 6.83984L17.1568 10.7599L17.9108 10.7111L17.8369 10.9479L17.195 11.1181L17.3412 11.6615L17.6389 11.5826L17.3609 12.4739L17.8439 11.7634L17.0029 13.3439L19.0692 11.2033L21.9262 10.4457Z" fill="#6FAE21"/>
<path d="M11.0668 21.3105L10.6544 20.9246L22.8448 8.08984L23.2571 8.47572L11.0668 21.3105Z" fill="#171401"/>
<path fill-rule="evenodd" clip-rule="evenodd" d="M22.5352 8.18772L23.1602 8.77716L23.5125 7.80273L22.5352 8.18772Z" fill="#CECECC"/>
<path fill-rule="evenodd" clip-rule="evenodd" d="M11.3764 21.307L10.6585 20.835L10.4259 21.8025L11.3764 21.307Z" fill="#CECECC"/>
<path d="M10.1601 19.3984L9.74777 19.0125L21.9381 6.17773L22.3505 6.56361L10.1601 19.3984Z" fill="#171401"/>
<path fill-rule="evenodd" clip-rule="evenodd" d="M21.6285 6.27561L22.2535 6.86505L22.6058 5.89063L21.6285 6.27561Z" fill="#CECECC"/>
<path fill-rule="evenodd" clip-rule="evenodd" d="M10.4697 19.3949L9.75179 18.9229L9.51922 19.8904L10.4697 19.3949Z" fill="#CECECC"/>
<path d="M21.2533 21.3105L21.6656 20.9246L9.47522 8.08984L9.06291 8.47572L21.2533 21.3105Z" fill="#171401"/>
<path fill-rule="evenodd" clip-rule="evenodd" d="M9.78485 8.18772L9.15982 8.77716L8.80754 7.80273L9.78485 8.18772Z" fill="#CECECC"/>
<path fill-rule="evenodd" clip-rule="evenodd" d="M20.9437 21.307L21.6616 20.835L21.8941 21.8025L20.9437 21.307Z" fill="#CECECC"/>
<path d="M22.3866 19.8496L22.7989 19.4637L10.6085 6.62891L10.1962 7.01478L22.3866 19.8496Z" fill="#171401"/>
<path fill-rule="evenodd" clip-rule="evenodd" d="M10.9182 6.72678L10.2932 7.31622L9.9409 6.3418L10.9182 6.72678Z" fill="#CECECC"/>
<path fill-rule="evenodd" clip-rule="evenodd" d="M22.077 19.846L22.7949 19.3741L23.0275 20.3415L22.077 19.846Z" fill="#CECECC"/>
<rect x="13.6667" y="16.375" width="4.53333" height="2.25" fill="#B74E01"/>
<path d="M15.9474 7.78516C16.8462 7.78516 17.6238 8.36293 18.1632 9.21973C18.7048 10.0798 19.0314 11.2528 19.0314 12.5352C19.0314 13.8175 18.7048 14.9905 18.1632 15.8506C17.6238 16.7074 16.8462 17.2852 15.9474 17.2852C15.0488 17.285 14.272 16.7072 13.7326 15.8506C13.191 14.9905 12.8644 13.8175 12.8644 12.5352C12.8644 11.2528 13.191 10.0798 13.7326 9.21973C14.272 8.3631 15.0488 7.7853 15.9474 7.78516Z" fill="#7DB8FF" stroke="#FECA00" stroke-width="0.5"/>
<mask id="mask1_299_35731" style="mask-type:luminance" maskUnits="userSpaceOnUse" x="12" y="7" width="8" height="11">
<path d="M15.9474 7.78516C16.8462 7.78516 17.6238 8.36293 18.1632 9.21973C18.7048 10.0798 19.0314 11.2528 19.0314 12.5352C19.0314 13.8175 18.7048 14.9905 18.1632 15.8506C17.6238 16.7074 16.8462 17.2852 15.9474 17.2852C15.0488 17.285 14.272 16.7072 13.7326 15.8506C13.191 14.9905 12.8644 13.8175 12.8644 12.5352C12.8644 11.2528 13.191 10.0798 13.7326 9.21973C14.272 8.3631 15.0488 7.7853 15.9474 7.78516Z" fill="white" stroke="white" stroke-width="0.5"/>
</mask>
<g mask="url(#mask1_299_35731)">
<path fill-rule="evenodd" clip-rule="evenodd" d="M12.8794 12.6089H14.4917C14.4917 12.6089 15.6001 12.8545 15.0459 13.0477C14.4917 13.2409 14.4917 13.3048 14.4917 13.5803C14.4917 13.8559 14.4917 14.8642 14.4917 15.0795C14.4917 15.2949 14.886 15.7559 14.055 15.7559C13.2241 15.7559 12.5082 12.3398 12.5082 12.3398L12.8794 12.6089Z" fill="#6FAE21"/>
<path fill-rule="evenodd" clip-rule="evenodd" d="M19.1791 12.793C19.1791 12.793 17.6814 13.0888 16.6554 12.9902C15.6294 12.8916 15.1791 12.793 15.1791 12.793C15.1791 12.793 15.8942 13.1649 16.1484 13.4767C16.4025 13.7884 16.9229 14.3274 17.4533 14.3274C17.9838 14.3274 18.797 14.8305 18.797 14.8305L19.1791 12.793Z" fill="#6FAE21"/>
<path fill-rule="evenodd" clip-rule="evenodd" d="M13.3188 10.1348C13.3188 10.1348 14.5534 10.3734 14.8507 10.7307C15.1481 11.0879 14.4579 11.4452 16.2569 11.0879C18.0559 10.7307 19.4839 10.1074 19.4839 11.0879C19.4839 12.0684 19.3268 12.9716 18.5526 12.9716C17.7785 12.9716 17.4697 12.9716 15.1087 12.9716C12.7478 12.9716 11.4608 13.6938 11.6261 12.5319C11.7914 11.3699 13.3188 10.1348 13.3188 10.1348Z" fill="#F7FCFF"/>
</g>
</g>
</g>
<defs>
<clipPath id="clip0_299_35731">
<rect width="32" height="24" fill="white"/>
</clipPath>
</defs>
</svg>
