<svg width="32" height="24" viewBox="0 0 32 24" fill="none" xmlns="http://www.w3.org/2000/svg">
<g clip-path="url(#clip0_299_35735)">
<rect width="32" height="24" fill="white"/>
<path fill-rule="evenodd" clip-rule="evenodd" d="M0 0V24H32V0H0Z" fill="#F7FCFF"/>
<mask id="mask0_299_35735" style="mask-type:luminance" maskUnits="userSpaceOnUse" x="0" y="0" width="32" height="24">
<path fill-rule="evenodd" clip-rule="evenodd" d="M0 0V24H32V0H0Z" fill="white"/>
</mask>
<g mask="url(#mask0_299_35735)">
<path fill-rule="evenodd" clip-rule="evenodd" d="M0 0V8H32V0H0Z" fill="#BF2714"/>
<path fill-rule="evenodd" clip-rule="evenodd" d="M0 16V24H32V16H0Z" fill="#272727"/>
<path d="M12.2603 10.2188L13.2593 10.2645L13.0085 15.7343L12.0096 15.6886L12.2603 10.2188Z" fill="#C09302"/>
<path d="M13.3041 10.5586L14.3025 10.615L14.0518 15.0504L13.0533 14.9939L13.3041 10.5586Z" fill="#C09302"/>
<path d="M14.3484 10.8906L15.3451 10.9724L15.0943 14.0284L14.0977 13.9466L14.3484 10.8906Z" fill="#C09302"/>
<path d="M19.7397 10.2188L18.7407 10.2645L18.9915 15.7343L19.9904 15.6886L19.7397 10.2188Z" fill="#C09302"/>
<path d="M18.6959 10.5586L17.6975 10.615L17.9482 15.0504L18.9467 14.9939L18.6959 10.5586Z" fill="#C09302"/>
<path d="M17.6516 10.8906L16.6549 10.9724L16.9057 14.0284L17.9023 13.9466L17.6516 10.8906Z" fill="#C09302"/>
<path d="M15.9733 15.3268L14.9986 15.1034L15.4112 13.3027L16.3859 13.5261L15.9733 15.3268Z" fill="#C09302"/>
<path d="M16.7195 15.3268L17.6942 15.1034L17.2817 13.3027L16.3069 13.5261L16.7195 15.3268Z" fill="#C09302"/>
<path d="M16.4722 15.3109H15.4722V13.543H16.4722V15.3109Z" fill="#C09302"/>
<path d="M14.6348 10.9121L15.6345 10.9366L15.5761 13.3175L14.5764 13.293L14.6348 10.9121Z" fill="#C09302"/>
<path d="M16.3739 10.9121L17.3736 10.9366L17.3152 13.3175L16.3155 13.293L16.3739 10.9121Z" fill="#C09302"/>
<path d="M13.338 15.9227L13.5977 14.957C14.6587 15.2424 15.4734 15.3835 16.029 15.3835C16.5845 15.3835 17.3993 15.2424 18.4603 14.957L18.72 15.9227C17.5816 16.2289 16.6889 16.3835 16.029 16.3835C15.3691 16.3835 14.4764 16.2289 13.338 15.9227Z" fill="#C09302"/>
<path d="M12.2823 10.2222C12.2156 9.56156 12.6023 9.11438 13.2575 9.17142C13.473 9.19017 13.715 9.25391 14.0373 9.36326C14.1315 9.39557 14.1315 9.39557 14.223 9.42797C14.6661 9.58557 14.7864 9.62608 14.8114 9.63141C14.7132 9.60918 15.0024 9.08641 15.0687 8.99829C15.0765 9.05425 15.0433 9.04628 14.9633 9.03029L14.0613 8.84976L14.7034 8.19101C14.9278 7.96074 15.2267 7.84656 15.5678 7.84656C15.6032 7.84656 15.6362 7.84492 15.7445 7.83825C15.8247 7.83338 15.8247 7.83338 15.9148 7.82965C16.5387 7.80943 16.9862 7.98587 16.9862 8.62753C16.9862 8.85708 17.0152 9.22623 17.063 9.50628C17.0791 9.60049 17.1102 9.68867 17.0185 9.7274C17.0223 9.69398 17.2409 9.60773 17.5807 9.46561L17.6215 9.44856C18.6089 9.03641 18.7243 8.99818 19.0426 9.19162C19.2547 9.32053 19.4567 9.5524 19.683 9.89812L18.8463 10.4458C18.7003 10.2228 18.5841 10.0875 18.5288 10.0497C18.6546 10.1371 18.2309 10.2778 18.0067 10.3714L17.9665 10.3882C17.1977 10.7097 17.0964 10.748 16.8766 10.748C16.2784 10.748 16.0636 10.1353 16.0048 9.25774C15.8202 9.86531 15.2696 10.6321 14.8158 10.6321C14.6171 10.6321 14.7126 10.6635 13.8879 10.3702C13.8015 10.3396 13.8015 10.3396 13.716 10.3102C13.4662 10.2255 13.2859 10.1779 13.1722 10.1678C13.1769 10.1624 13.1936 10.1444 13.2124 10.1283L12.2823 10.2222Z" fill="#C09302"/>
</g>
</g>
<defs>
<clipPath id="clip0_299_35735">
<rect width="32" height="24" fill="white"/>
</clipPath>
</defs>
</svg>
