<svg width="32" height="24" viewBox="0 0 32 24" fill="none" xmlns="http://www.w3.org/2000/svg">
<g clip-path="url(#clip0_299_35739)">
<rect width="32" height="24" fill="white"/>
<path fill-rule="evenodd" clip-rule="evenodd" d="M0 0V12H32V0H0Z" fill="#43B764"/>
<path fill-rule="evenodd" clip-rule="evenodd" d="M0 12V24H32V12H0Z" fill="#B4D7F4"/>
<path fill-rule="evenodd" clip-rule="evenodd" d="M0 0L33 12L0 24V0Z" fill="#BE0027"/>
<path fill-rule="evenodd" clip-rule="evenodd" d="M9.29299 6C10.0695 6.19125 10.7684 6.42645 11.3887 6.70508C11.2818 6.54069 11.1665 6.36211 11.0703 6.19434C10.738 5.61436 11.7758 6.51501 12.1865 7.11133C12.1872 7.11229 12.1878 7.11329 12.1885 7.11426C12.8565 7.50206 13.407 7.95471 13.8399 8.47168V7.2959C14.2271 7.42853 14.4453 8.67833 14.5615 9.62207C14.6479 9.81512 14.7221 10.0146 14.7842 10.2207C14.9347 9.81623 15.2192 9.38319 15.4766 9.75488C15.7801 10.1938 15.2449 12.6715 15.044 13.5469C15.0351 13.6417 15.0235 13.7357 15.0117 13.8291C15.8935 13.2692 15.9854 11.341 15.9854 12.7822C15.9854 13.6454 15.3123 14.4991 14.7617 15.0547C14.6829 15.3278 14.5893 15.5936 14.4815 15.8525C15.5254 15.5231 16.1596 14.5095 15.9854 15.6836C15.8644 16.4985 14.6816 16.7962 13.9385 16.9053C13.8842 16.9925 13.8297 17.0798 13.7715 17.165L13.7403 17.2031C13.625 17.3198 13.5063 17.4293 13.3887 17.5352C13.7726 17.3722 14.081 17.1885 14.4971 17.1885C14.9374 17.1885 13.1045 17.6903 12.7676 18.0537C12.4666 18.3787 12.5725 18.4582 12.0703 18.4717C11.4932 18.7783 10.8924 18.9708 10.2676 19.0498C10.3059 19.1406 10.3237 19.2016 10.3252 19.207H7.69338C7.69493 19.2013 7.71608 19.1269 7.76369 19.0195C7.21604 18.9266 6.6871 18.7444 6.17678 18.4736C6.16338 18.4739 6.14921 18.4756 6.13479 18.4756C5.39672 18.4756 5.56896 18.4171 5.23244 18.0537C4.89554 17.6903 3.06267 17.1885 3.50295 17.1885C3.94309 17.1885 4.26168 17.3966 4.67776 17.5654C4.77274 17.604 4.90081 17.6496 5.04104 17.6982C4.85979 17.5454 4.6806 17.3809 4.5049 17.2031L4.47365 17.165C4.42301 17.0908 4.37488 17.0151 4.32717 16.9395C3.63969 16.8646 2.16422 16.5989 2.02834 15.6836C1.85059 14.4861 2.5135 15.5671 3.59475 15.874C3.66823 15.8949 3.73437 15.908 3.79201 15.9219C3.71419 15.7403 3.6445 15.5549 3.58108 15.3662C3.01959 14.863 2.02834 13.8296 2.02834 12.7822C2.02836 11.3204 2.12259 13.3262 3.04006 13.8535C3.03384 13.828 2.16927 10.2875 2.53811 9.75488C2.90825 9.22074 3.33791 10.3485 3.33791 10.666C3.33803 10.981 3.51483 7.52161 4.17385 7.2959C4.17385 7.2959 4.17385 8.17806 4.17385 8.58789C4.17385 8.64964 4.20162 8.66942 4.251 8.66211C4.61153 8.18694 5.06628 7.76305 5.61428 7.39062C5.69727 7.28812 5.77143 7.19367 5.82815 7.11133C6.23894 6.51501 7.27574 5.61439 6.94338 6.19434C6.81552 6.41742 6.65382 6.65962 6.52346 6.8623C7.22316 6.51387 8.03273 6.22622 8.95119 6L9.08498 6.53027C8.28051 6.72841 7.56894 6.97304 6.94924 7.26367C7.31253 7.31832 7.72205 7.45792 7.9424 7.45801C8.28952 7.45801 7.2864 7.9119 6.77834 7.91211C6.2704 7.91211 5.85677 8.12598 5.6094 8.12598C5.36377 8.12639 6.53675 8.48649 6.07326 8.83008C5.68966 9.11434 5.09837 8.78445 4.59084 9.13379C4.41201 9.39025 4.26328 9.66217 4.14358 9.94922C4.26451 10.1084 4.73793 9.92487 4.8467 9.75488C5.00732 9.50447 5.94715 9.75115 5.23049 10.4697C4.76434 10.9369 4.12145 11.2253 3.78811 11.4316C3.77686 11.527 3.7685 11.6218 3.75979 11.7158C3.85139 11.6145 3.93314 11.3829 4.17385 11.5137C4.53447 11.7096 4.28615 11.223 4.28615 12.1211C4.28611 12.4429 4.20762 12.7539 4.11526 13.0049C4.31612 12.8096 4.5342 12.7378 4.5342 13.1094C4.5342 13.7327 4.28617 13.9118 4.28615 14.54C4.28615 15.1679 4.53391 16.0628 4.5342 15.874C4.5342 15.6839 4.83625 14.4623 5.00686 15.0137C5.17741 15.5651 5.1864 16.5703 5.50686 16.9688C5.74012 17.2587 6.571 17.9347 7.10061 18.2822C7.42765 18.3978 7.76119 18.4757 8.10256 18.5146C8.22747 18.389 8.3866 18.2781 8.58596 18.21C8.59779 17.5725 8.58992 16.8769 8.5508 16.2158C8.49804 16.1367 8.40693 16.0703 8.24709 16.0703C7.84708 16.07 6.96986 15.728 6.96975 15.2363C6.98275 15.2422 7.62667 15.5303 7.80764 15.3838C7.98848 15.235 6.62468 14.3584 6.7969 13.9365C6.7969 13.9365 7.4382 14.5047 7.57619 14.5059C7.71327 14.5059 7.34574 13.6221 7.57619 13.7793C7.80692 13.937 8.44777 15.0238 8.44826 15.3838C8.44826 15.5773 8.49846 15.8812 8.54494 16.1201C8.51838 15.7064 8.48159 15.3347 8.43069 15.0166C8.14245 13.2162 8.13201 11.3703 8.53322 10.3887C8.33357 10.2649 8.18752 10.1079 8.18752 9.92773C8.19616 9.93124 8.84381 10.1928 9.02541 10.0605C9.20689 9.92699 7.84279 9.13838 8.01467 8.75879C8.01467 8.75879 8.65783 9.27051 8.79494 9.27051C8.93077 9.26873 8.56439 8.47548 8.79494 8.61719C9.02606 8.75998 9.66564 9.73703 9.66604 10.0605C9.66604 10.063 9.66602 10.0658 9.66604 10.0684C9.91438 9.76053 10.2042 9.4734 10.3565 9.40137C10.6566 9.25953 10.1785 10.0544 10.3565 10.0547C10.5348 10.0547 11.3701 9.54297 11.3701 9.54297C11.5942 9.92267 9.81892 10.7126 10.0567 10.8457C10.2921 10.9768 11.126 10.718 11.1455 10.7119C11.1455 11.1543 10.0045 11.4618 9.4844 11.4619C9.29155 11.4619 9.1742 11.5129 9.10354 11.5771C9.06883 11.8847 9.05282 12.2331 9.05471 12.6064C9.31478 12.2713 9.63907 11.9401 9.80373 11.8623C10.1029 11.7215 9.62552 12.5166 9.80373 12.5166C9.98037 12.516 10.7947 12.0182 10.8164 12.0049C11.0404 12.3845 9.26656 13.1732 9.50295 13.3066C9.73928 13.439 10.5828 13.1769 10.5928 13.1738C10.5924 13.5665 9.69266 13.8508 9.12697 13.9102C9.15857 14.2339 9.19798 14.5626 9.25002 14.8877C9.30546 15.234 9.34595 15.6306 9.37404 16.0684C9.3859 16.2531 9.39517 16.4409 9.40236 16.6289C9.4265 16.4732 9.44627 16.32 9.44631 16.2051C9.44631 15.8457 10.0874 14.7579 10.3184 14.5996C10.5491 14.442 10.182 15.3251 10.3184 15.3262C10.4555 15.3262 11.0977 14.7568 11.0977 14.7568C11.27 15.1789 9.90509 16.0571 10.0879 16.2051C10.2711 16.3526 10.9258 16.0566 10.9258 16.0566C10.9258 16.5486 10.0473 16.8906 9.64748 16.8906C9.54109 16.8907 9.46582 16.921 9.41115 16.9639C9.42162 17.3853 9.42318 17.8053 9.41604 18.2041C9.63277 18.2746 9.80177 18.3969 9.93264 18.5332C10.1898 18.5157 10.4423 18.4762 10.6914 18.416C11.1707 18.1529 12.2372 17.3039 12.5069 16.9688C12.8273 16.5704 12.8363 15.5651 13.0069 15.0137C13.1775 14.4623 13.4795 15.6839 13.4795 15.874C13.4798 16.0628 13.7285 15.1679 13.7285 14.54C13.7285 13.9118 13.4795 13.7327 13.4795 13.1094C13.4795 12.7383 13.6968 12.8101 13.8975 13.0049C13.8052 12.754 13.7286 12.4427 13.7285 12.1211C13.7285 11.2232 13.4796 11.7092 13.8399 11.5137C14.2003 11.3179 14.2001 11.9385 14.419 11.71C14.6382 11.4803 13.5014 11.1886 12.7842 10.4697C12.0673 9.75113 13.0061 9.50473 13.167 9.75488C13.3274 10.0055 14.2838 10.2873 13.7285 9.45312C13.173 8.61874 12.4042 9.17386 11.9405 8.83008C11.4772 8.48635 12.6515 8.12602 12.4043 8.12598C12.157 8.12598 11.7442 7.91218 11.2363 7.91211C10.7285 7.91211 9.72463 7.45816 10.0713 7.45801C10.3302 7.45801 10.8505 7.26445 11.25 7.24316C10.641 6.96174 9.94423 6.72362 9.1592 6.53027L9.29299 6ZM13.8946 15.8164C13.8418 15.8687 13.8047 15.922 13.834 15.9512C13.8552 15.9067 13.8744 15.8614 13.8946 15.8164ZM9.21389 10.9648C9.18156 11.0863 9.15314 11.2213 9.13088 11.3682C9.16586 11.2318 9.19972 11.0872 9.21389 10.9648Z" fill="#F3E294"/>
</g>
<defs>
<clipPath id="clip0_299_35739">
<rect width="32" height="24" fill="white"/>
</clipPath>
</defs>
</svg>
