<svg width="32" height="24" viewBox="0 0 32 24" fill="none" xmlns="http://www.w3.org/2000/svg">
<g clip-path="url(#clip0_299_35741)">
<rect width="32" height="24" fill="white"/>
<path fill-rule="evenodd" clip-rule="evenodd" d="M0 0V24H32V0H0Z" fill="#FFB400"/>
<mask id="mask0_299_35741" style="mask-type:luminance" maskUnits="userSpaceOnUse" x="0" y="0" width="32" height="24">
<path fill-rule="evenodd" clip-rule="evenodd" d="M0 0V24H32V0H0Z" fill="white"/>
</mask>
<g mask="url(#mask0_299_35741)">
<path fill-rule="evenodd" clip-rule="evenodd" d="M0 0V6H32V0H0Z" fill="#C51918"/>
<path fill-rule="evenodd" clip-rule="evenodd" d="M0 18V24H32V18H0Z" fill="#C51918"/>
<rect x="5.008" y="10.2734" width="1.12" height="5.824" fill="#F1F9FF"/>
<path d="M6.57562 9.82324H6.23969V10.2715H4.89594V9.82324H4.56V9.26367H6.57562V9.82324Z" fill="#C88A02"/>
<path fill-rule="evenodd" clip-rule="evenodd" d="M6.24 16.4324H6.576V16.9924H4.56V16.4324H4.896V15.9844H6.24V16.4324Z" fill="#C88A02"/>
<path fill-rule="evenodd" clip-rule="evenodd" d="M5.568 9.37653C5.81173 9.37653 5.8365 9.28475 5.9803 9.14768C6.09195 9.04124 6.352 8.90923 6.352 8.76053C6.352 8.42032 6.00099 8.14453 5.568 8.14453C5.13501 8.14453 4.784 8.42032 4.784 8.76053C4.784 8.9262 4.96308 9.03697 5.09848 9.14768C5.24114 9.26432 5.34585 9.37653 5.568 9.37653Z" fill="#AD1619"/>
<path fill-rule="evenodd" clip-rule="evenodd" d="M4.56 16.9922H6.576V17.8882C6.576 17.8882 6.324 17.7762 6.072 17.7762C5.82 17.7762 5.568 17.8882 5.568 17.8882C5.568 17.8882 5.316 17.7762 5.064 17.7762C4.812 17.7762 4.56 17.8882 4.56 17.8882V16.9922Z" fill="#005BBF"/>
<mask id="mask1_299_35741" style="mask-type:luminance" maskUnits="userSpaceOnUse" x="4" y="16" width="3" height="2">
<path fill-rule="evenodd" clip-rule="evenodd" d="M4.56 16.9922H6.576V17.8882C6.576 17.8882 6.324 17.7762 6.072 17.7762C5.82 17.7762 5.568 17.8882 5.568 17.8882C5.568 17.8882 5.316 17.7762 5.064 17.7762C4.812 17.7762 4.56 17.8882 4.56 17.8882V16.9922Z" fill="white"/>
</mask>
<g mask="url(#mask1_299_35741)">
<path d="M4.54174 17.713L4.49774 17.6057C4.67932 17.5249 4.86155 17.4844 5.04405 17.4844C5.16195 17.4844 5.22353 17.5008 5.3282 17.5474C5.42014 17.5883 5.4678 17.601 5.56835 17.601C5.6689 17.601 5.71656 17.5883 5.8085 17.5474C5.91317 17.5008 5.97474 17.4844 6.09265 17.4844C6.27515 17.4844 6.45738 17.5249 6.63896 17.6057L6.59495 17.713C6.427 17.6383 6.25969 17.601 6.09265 17.601C5.9921 17.601 5.94444 17.6138 5.8525 17.6547C5.74783 17.7013 5.68626 17.7177 5.56835 17.7177C5.45044 17.7177 5.38887 17.7013 5.2842 17.6547C5.19225 17.6138 5.1446 17.601 5.04405 17.601C4.87701 17.601 4.7097 17.6383 4.54174 17.713Z" fill="white"/>
<path d="M4.54174 17.3771L4.49774 17.2698C4.67932 17.189 4.86155 17.1484 5.04405 17.1484C5.16195 17.1484 5.22353 17.1649 5.3282 17.2115C5.42014 17.2524 5.4678 17.2651 5.56835 17.2651C5.6689 17.2651 5.71656 17.2524 5.8085 17.2115C5.91317 17.1649 5.97474 17.1484 6.09265 17.1484C6.27515 17.1484 6.45738 17.189 6.63896 17.2698L6.59495 17.3771C6.427 17.3023 6.25969 17.2651 6.09265 17.2651C5.9921 17.2651 5.94444 17.2778 5.8525 17.3187C5.74783 17.3653 5.68626 17.3818 5.56835 17.3818C5.45044 17.3818 5.38887 17.3653 5.2842 17.3187C5.19225 17.2778 5.1446 17.2651 5.04405 17.2651C4.87701 17.2651 4.7097 17.3023 4.54174 17.3771Z" fill="white"/>
</g>
<rect x="15.984" y="10.2734" width="1.12" height="5.824" fill="#F1F9FF"/>
<path d="M17.5516 9.82324H17.2157V10.2715H15.8719V9.82324H15.536V9.26367H17.5516V9.82324Z" fill="#C88A02"/>
<path fill-rule="evenodd" clip-rule="evenodd" d="M17.216 16.4324H17.552V16.9924H15.536V16.4324H15.872V15.9844H17.216V16.4324Z" fill="#C88A02"/>
<path fill-rule="evenodd" clip-rule="evenodd" d="M16.544 9.37653C16.7877 9.37653 16.8125 9.28475 16.9563 9.14768C17.068 9.04124 17.328 8.90923 17.328 8.76053C17.328 8.42032 16.977 8.14453 16.544 8.14453C16.111 8.14453 15.76 8.42032 15.76 8.76053C15.76 8.9262 15.9391 9.03697 16.0745 9.14768C16.2171 9.26432 16.3219 9.37653 16.544 9.37653Z" fill="#AD1619"/>
<path fill-rule="evenodd" clip-rule="evenodd" d="M15.536 16.9922H17.552V17.8882C17.552 17.8882 17.3 17.7762 17.048 17.7762C16.796 17.7762 16.544 17.8882 16.544 17.8882C16.544 17.8882 16.292 17.7762 16.04 17.7762C15.788 17.7762 15.536 17.8882 15.536 17.8882V16.9922Z" fill="#005BBF"/>
<mask id="mask2_299_35741" style="mask-type:luminance" maskUnits="userSpaceOnUse" x="15" y="16" width="3" height="2">
<path fill-rule="evenodd" clip-rule="evenodd" d="M15.536 16.9922H17.552V17.8882C17.552 17.8882 17.3 17.7762 17.048 17.7762C16.796 17.7762 16.544 17.8882 16.544 17.8882C16.544 17.8882 16.292 17.7762 16.04 17.7762C15.788 17.7762 15.536 17.8882 15.536 17.8882V16.9922Z" fill="white"/>
</mask>
<g mask="url(#mask2_299_35741)">
<path d="M15.5178 17.713L15.4738 17.6057C15.6553 17.5249 15.8376 17.4844 16.0201 17.4844C16.138 17.4844 16.1995 17.5008 16.3042 17.5474C16.3962 17.5883 16.4438 17.601 16.5444 17.601C16.6449 17.601 16.6926 17.5883 16.7845 17.5474C16.8892 17.5008 16.9508 17.4844 17.0687 17.4844C17.2512 17.4844 17.4334 17.5249 17.615 17.6057L17.571 17.713C17.403 17.6383 17.2357 17.601 17.0687 17.601C16.9681 17.601 16.9205 17.6138 16.8285 17.6547C16.7238 17.7013 16.6623 17.7177 16.5444 17.7177C16.4265 17.7177 16.3649 17.7013 16.2602 17.6547C16.1683 17.6138 16.1206 17.601 16.0201 17.601C15.853 17.601 15.6857 17.6383 15.5178 17.713Z" fill="white"/>
<path d="M15.5178 17.3771L15.4738 17.2698C15.6553 17.189 15.8376 17.1484 16.0201 17.1484C16.138 17.1484 16.1995 17.1649 16.3042 17.2115C16.3962 17.2524 16.4438 17.2651 16.5444 17.2651C16.6449 17.2651 16.6926 17.2524 16.7845 17.2115C16.8892 17.1649 16.9508 17.1484 17.0687 17.1484C17.2512 17.1484 17.4334 17.189 17.615 17.2698L17.571 17.3771C17.403 17.3023 17.2357 17.2651 17.0687 17.2651C16.9681 17.2651 16.9205 17.2778 16.8285 17.3187C16.7238 17.3653 16.6623 17.3818 16.5444 17.3818C16.4265 17.3818 16.3649 17.3653 16.2602 17.3187C16.1683 17.2778 16.1206 17.2651 16.0201 17.2651C15.853 17.2651 15.6857 17.3023 15.5178 17.3771Z" fill="white"/>
</g>
<path fill-rule="evenodd" clip-rule="evenodd" d="M4.38778 11.8721C5.13784 11.3555 7.14593 11.3088 8.02743 11.7637L7.61629 12.5596C7.18365 12.3365 6.20107 12.2947 5.51278 12.4092C5.61736 12.4274 5.73489 12.4471 5.86629 12.4678C5.94857 12.4807 6.23671 12.5247 6.25985 12.5283C6.53462 12.5711 6.72245 12.6251 6.86141 12.7197C7.1451 12.9129 7.18695 13.2618 6.98446 13.5185C6.89903 13.6268 6.78714 13.7077 6.61825 13.8056C6.56399 13.8371 6.50525 13.8693 6.42684 13.9111C6.41084 13.9197 6.27467 13.9921 6.23446 14.0137C6.07301 14.1004 5.96683 14.1632 5.88778 14.2207C5.76397 14.3107 5.6364 14.384 5.49227 14.4531C5.41521 14.49 5.19717 14.5853 5.19344 14.5869C5.18905 14.5889 5.18483 14.5909 5.18075 14.5928C5.25833 14.6979 5.30277 14.8267 5.30282 14.9756C5.30279 15.2121 5.18928 15.4349 4.98739 15.6797L4.29989 15.1123L4.23446 15.0928L4.19832 14.8056C4.13078 14.2765 4.35646 13.9835 4.82235 13.7715C4.83471 13.7659 5.0455 13.6743 5.10555 13.6455C5.20387 13.5983 5.28476 13.5511 5.36043 13.4961C5.43513 13.4418 5.51569 13.3901 5.61239 13.334C5.03564 13.2413 4.72361 13.1733 4.48446 13.0703C3.91212 12.8237 3.83796 12.251 4.38778 11.8721ZM13.9806 11.7637C14.8619 11.3086 16.8701 11.3555 17.6202 11.8721C18.1704 12.2509 18.0969 12.8236 17.5245 13.0703C17.2853 13.1733 16.9734 13.2413 16.3966 13.334C16.4932 13.39 16.5729 13.4418 16.6475 13.4961C16.7233 13.5512 16.805 13.5983 16.9034 13.6455C16.964 13.6745 17.1738 13.7661 17.1856 13.7715C17.6518 13.9835 17.8782 14.2763 17.8106 14.8056L17.7745 15.0928L17.7081 15.1123L17.0206 15.6797C16.8187 15.4349 16.7061 15.2121 16.7061 14.9756C16.7062 14.8265 16.7505 14.6979 16.8282 14.5928C16.824 14.5909 16.8191 14.589 16.8145 14.5869C16.8073 14.5838 16.5917 14.4896 16.5157 14.4531C16.3717 14.384 16.2449 14.3106 16.1212 14.2207C16.0421 14.1632 15.9359 14.1003 15.7745 14.0137C15.7349 13.9924 15.5993 13.9203 15.5821 13.9111C15.5037 13.8693 15.445 13.8371 15.3907 13.8056C15.2218 13.7076 15.11 13.6268 15.0245 13.5185C14.822 13.2617 14.8638 12.9129 15.1475 12.7197C15.2866 12.6252 15.4743 12.571 15.7491 12.5283C15.7729 12.5246 16.0609 12.4806 16.1427 12.4678C16.2742 12.4471 16.3915 12.4274 16.4962 12.4092C15.8076 12.2946 14.8242 12.3363 14.3917 12.5596L13.9806 11.7637Z" fill="#AD1619"/>
<path d="M5.92335 12.4004L6.25394 12.4688V12.9615C5.90184 13.2425 5.008 13.716 5.008 13.716V12.4004H5.92335Z" fill="#F1F9FF"/>
<path d="M16.3146 12.4004L15.984 12.4688V12.9615C16.3361 13.2425 17.2299 13.716 17.2299 13.716V12.4004H16.3146Z" fill="#F1F9FF"/>
<path fill-rule="evenodd" clip-rule="evenodd" d="M9.26154 6.42069C9.26154 6.42069 10.1998 6.01526 11.1307 6.10624C11.1306 6.10654 11.1298 6.10715 11.1297 6.10819C11.7492 6.04817 12.3619 6.15308 12.9666 6.42069C13.5969 6.4208 14.2003 6.62747 14.7762 7.04081V7.20487L13.6463 8.33866C13.4205 8.96476 13.0175 8.99804 12.7039 9.10233C12.5986 9.13645 11.153 9.17681 11.1268 9.17753C11.1268 9.17753 11.1268 9.17604 11.1268 9.17362C8.89951 9.43048 8.58185 8.33866 8.58185 8.33866L7.45197 7.20487V7.04081C7.45197 7.04081 8.31593 6.42081 9.26154 6.42069Z" fill="#AD1619"/>
<path d="M12.8693 7.50195C12.8942 7.78072 12.9705 7.91136 13.0832 7.92969C13.2363 7.95457 13.3525 7.94329 13.4338 7.89941L13.5988 7.80957V7.96191C13.6508 7.96744 13.7405 7.95816 13.8625 7.93164L13.8976 8.09375L14.7238 7.31738L14.8 7.39941L13.7726 8.36523C13.6228 8.64126 13.5471 8.82373 13.5471 8.89941C13.547 9.01486 13.2466 9.08293 12.6603 9.15332C12.2011 9.20844 11.6593 9.2435 11.216 9.24902V9.25195C11.1973 9.25195 11.1785 9.25013 11.1594 9.25C11.1406 9.25012 11.122 9.25195 11.1037 9.25195V9.24902C10.6604 9.24349 10.1186 9.20844 9.65936 9.15332C9.07314 9.08293 8.77268 9.01486 8.77264 8.89941C8.77264 8.88347 8.76761 8.86316 8.76093 8.83789C8.70513 8.76326 8.66478 8.6469 8.63788 8.54004C8.61141 8.4869 8.58132 8.42833 8.54706 8.36523L8.31952 8.15137C8.31759 8.15095 8.3156 8.15081 8.31366 8.15039V8.14648L7.51971 7.39941L7.59686 7.31738L8.34198 8.01855L8.36151 7.93164C8.48319 7.95808 8.57225 7.96739 8.62421 7.96191V7.80957L8.78925 7.89941C8.87055 7.94342 8.98745 7.95464 9.14081 7.92969C9.25343 7.91133 9.32982 7.78068 9.35468 7.50195L9.40448 6.93945L9.57245 7.47852C9.64861 7.72257 9.76545 7.83008 9.93085 7.83008C10.0921 7.83001 10.1571 7.77117 10.1642 7.62207L10.1848 7.19824L10.3762 7.57715C10.4451 7.71298 10.5401 7.7743 10.675 7.77441C10.8684 7.77441 10.9982 7.6134 10.9982 7.36035H11.2258C11.2258 7.61326 11.3548 7.77424 11.548 7.77441C11.6832 7.77441 11.7789 7.71318 11.8478 7.57715L12.0392 7.19824L12.0598 7.62207C12.067 7.77125 12.1317 7.83008 12.2932 7.83008C12.4585 7.83008 12.5744 7.72257 12.6506 7.47852L12.8195 6.93945L12.8693 7.50195ZM11.0988 8.66113C10.8069 8.67971 9.19129 8.78698 8.9455 8.90137C8.94132 8.90332 8.93591 8.90275 8.93182 8.9043C8.96812 8.91777 9.01774 8.93398 9.08026 8.94824C9.22427 8.98109 9.42922 9.01381 9.67206 9.04297C10.1464 9.09993 10.7108 9.1357 11.1594 9.13867C11.6081 9.13575 12.1729 9.09997 12.6476 9.04297C12.8905 9.01381 13.0954 8.98108 13.2394 8.94824C13.3127 8.93152 13.3695 8.91492 13.4064 8.89941C13.4195 8.8939 13.4292 8.88807 13.4357 8.88379C13.437 8.86587 13.442 8.84595 13.4474 8.82324C13.397 8.89813 13.3342 8.93929 13.2531 8.90137C13.0084 8.78685 11.3895 8.67963 11.0988 8.66113ZM12.7141 7.84766C12.6249 7.96117 12.5108 8.02575 12.3742 8.04492C13.0872 8.14504 13.5915 8.28646 13.6076 8.29102C13.6076 8.29102 13.5945 8.39966 13.5637 8.52637C13.5959 8.45996 13.6343 8.38553 13.6789 8.30371L13.6896 8.29004L13.8215 8.16504C13.6366 8.19804 13.5034 8.19716 13.4328 8.13965C13.3229 8.17161 13.1942 8.17529 13.0471 8.15137C12.8898 8.12578 12.7799 8.02114 12.7141 7.84766ZM9.50897 7.84766C9.44309 8.02097 9.33405 8.12576 9.17694 8.15137C9.02986 8.1753 8.90106 8.17155 8.7912 8.13965C8.73587 8.1847 8.64176 8.19458 8.51483 8.18164L8.62225 8.28223C8.74533 8.24914 9.21151 8.13088 9.83514 8.04395C9.70478 8.02211 9.59503 7.9573 9.50897 7.84766ZM11.9025 7.87012C11.8456 7.92032 11.78 7.95378 11.7072 7.97461C11.8254 7.98348 11.941 7.99259 12.0529 8.00488C11.9897 7.97388 11.9389 7.92857 11.9025 7.87012ZM10.3205 7.87012C10.2853 7.9268 10.2365 7.97008 10.176 8.00098C10.2843 7.9894 10.3959 7.98098 10.5099 7.97266C10.4398 7.95156 10.3757 7.91885 10.3205 7.87012ZM11.1115 7.75879C11.055 7.84638 10.9799 7.91365 10.8869 7.9541C10.9423 7.95237 10.9979 7.94985 11.0539 7.94922V7.94727C11.0688 7.94727 11.0839 7.94816 11.0988 7.94824C11.1138 7.94816 11.1287 7.94727 11.1437 7.94727V7.94922C11.2093 7.94995 11.2744 7.95285 11.3391 7.95508C11.2449 7.91469 11.1685 7.84724 11.1115 7.75879Z" fill="#C88A02"/>
<path fill-rule="evenodd" clip-rule="evenodd" d="M11.1122 5.34583C11.2978 5.34583 11.4482 5.1954 11.4482 5.00983C11.4482 4.82426 11.2978 4.67383 11.1122 4.67383C10.9266 4.67383 10.7762 4.82426 10.7762 5.00983C10.7762 5.1954 10.9266 5.34583 11.1122 5.34583Z" fill="#005BBF"/>
<path fill-rule="evenodd" clip-rule="evenodd" d="M7.78536 7.26458C7.874 7.23749 7.98225 7.33472 8.02755 7.48235C8.03915 7.52032 8.04465 7.55835 8.0461 7.59368C8.07694 7.55728 8.1167 7.52092 8.16719 7.49407C8.30369 7.42156 8.44982 7.42976 8.49337 7.51165C8.53645 7.59358 8.46073 7.71847 8.32442 7.79095C8.18819 7.86324 8.043 7.85584 7.99923 7.77434C7.99812 7.77227 7.99725 7.76964 7.9963 7.76751C7.98276 7.78214 7.96783 7.79402 7.94942 7.79974C7.86069 7.82686 7.75147 7.72887 7.70626 7.58099C7.66108 7.43313 7.69664 7.2917 7.78536 7.26458ZM14.3596 7.22942C14.4483 7.25655 14.4839 7.39892 14.4387 7.54681C14.3935 7.69449 14.2852 7.79246 14.1965 7.76556C14.1779 7.75986 14.1623 7.74812 14.1486 7.73333C14.1477 7.73538 14.1478 7.73816 14.1467 7.74017C14.103 7.82186 13.9569 7.82923 13.8205 7.75677C13.684 7.68417 13.608 7.55842 13.6516 7.47649C13.6952 7.39474 13.8414 7.38753 13.9777 7.45989C14.0274 7.48632 14.0672 7.5218 14.0979 7.55755C14.0994 7.52273 14.106 7.48551 14.1174 7.44817C14.1626 7.30072 14.271 7.20288 14.3596 7.22942ZM9.3254 6.80169C9.41638 6.78412 9.51361 6.8923 9.54317 7.04388C9.5539 7.09905 9.55062 7.15186 9.54219 7.19817C9.57697 7.18888 9.61593 7.18352 9.65645 7.18352C9.81071 7.18365 9.93542 7.25896 9.93575 7.35149C9.93575 7.4442 9.81091 7.51933 9.65645 7.51946C9.50181 7.51946 9.37618 7.44428 9.37618 7.35149C9.37619 7.34951 9.37704 7.3476 9.37716 7.34563C9.37617 7.34531 9.37521 7.34501 9.37423 7.34466C9.37439 7.34696 9.37617 7.34917 9.37618 7.35149C9.37618 7.44428 9.25055 7.51946 9.09591 7.51946C8.94133 7.51941 8.81563 7.44425 8.81563 7.35149C8.81596 7.2589 8.94153 7.18357 9.09591 7.18352C9.1526 7.18352 9.20416 7.19739 9.24825 7.21477C9.23308 7.18306 9.22161 7.14703 9.21407 7.10833C9.18456 6.95653 9.23432 6.81939 9.3254 6.80169ZM12.7805 6.7597C12.873 6.75507 12.955 6.87689 12.9631 7.03118C12.966 7.08732 12.9545 7.13884 12.9397 7.18352C12.9755 7.17913 13.0147 7.17982 13.0549 7.18548C13.2079 7.20708 13.3217 7.29874 13.3088 7.39056C13.2958 7.48232 13.161 7.53898 13.008 7.51751C12.8549 7.49599 12.7412 7.40431 12.7541 7.31243C12.7544 7.31014 12.7546 7.30784 12.7551 7.30559L12.7531 7.30462C12.753 7.30718 12.7545 7.30987 12.7541 7.31243C12.7412 7.40431 12.6065 7.46091 12.4533 7.43938C12.3002 7.41785 12.1865 7.32617 12.1994 7.23431C12.2125 7.14252 12.3472 7.08584 12.5002 7.10735C12.5559 7.11519 12.6047 7.13507 12.6457 7.15813C12.6353 7.12487 12.6292 7.08776 12.6272 7.04876C12.6191 6.89433 12.6878 6.76455 12.7805 6.7597ZM11.0051 6.68938C11.0962 6.67168 11.1943 6.78075 11.2238 6.93255C11.2345 6.98746 11.2302 7.03974 11.2219 7.08587C11.2567 7.07654 11.2955 7.0722 11.3361 7.0722C11.4907 7.07222 11.6164 7.1474 11.6164 7.24017C11.6161 7.33279 11.4906 7.40811 11.3361 7.40813C11.1817 7.40813 11.0561 7.33281 11.0559 7.24017C11.0559 7.23797 11.0567 7.23551 11.0568 7.23333C11.0559 7.233 11.0549 7.23271 11.0539 7.23235C11.0541 7.23489 11.0559 7.2376 11.0559 7.24017C11.0556 7.33281 10.9301 7.40813 10.7756 7.40813C10.6213 7.40799 10.4966 7.33271 10.4963 7.24017C10.4963 7.14747 10.6212 7.07235 10.7756 7.0722C10.8325 7.0722 10.8847 7.08497 10.9289 7.10247C10.9137 7.07071 10.9013 7.03479 10.8938 6.99602C10.8643 6.84437 10.9141 6.70718 11.0051 6.68938Z" fill="#C88A02"/>
<path d="M11.2197 4.22363H11.373V4.45703H11.2197V4.92383H11.373V5.15723H10.832V4.92383H10.9872V4.45703H10.832V4.22363H10.9872V4.07617H11.2197V4.22363Z" fill="#C88A02"/>
<rect x="10.944" y="5.34375" width="0.448" height="1.456" fill="#C88A02"/>
<path d="M9.14055 5.58736L9.13859 5.69935C8.14549 5.68201 7.57584 5.82694 7.43124 6.11579C7.28174 6.41441 7.30954 6.77743 7.51902 7.20866L7.41827 7.2576C7.19477 6.7975 7.16425 6.39891 7.33109 6.06565C7.50282 5.72261 8.10544 5.56929 9.14055 5.58736Z" fill="white"/>
<path d="M9.33268 6.57997L9.27526 6.67613C9.05899 6.547 8.95074 6.32663 8.95074 6.02292C8.95074 5.58644 9.17559 5.33049 9.67294 5.15533C9.99036 5.04354 10.424 5.08938 10.975 5.28915L10.9368 5.39445C10.4078 5.20266 9.99855 5.1594 9.71015 5.26097C9.25396 5.42163 9.06274 5.6393 9.06274 6.02292C9.06274 6.28944 9.15265 6.47248 9.33268 6.57997Z" fill="white"/>
<path d="M7.66012 7.03733L7.44878 7.11156C7.2295 6.48721 7.29212 6.0632 7.66681 5.88029C7.99698 5.71912 8.47816 5.65353 9.11276 5.67925L9.10369 5.90306C8.50285 5.87872 8.05585 5.93965 7.76507 6.08159C7.51883 6.20179 7.47378 6.50678 7.66012 7.03733Z" fill="#C88A02"/>
<path d="M10.1292 5.43689C9.61709 5.43689 9.40678 5.56162 9.28663 5.92991C9.21006 6.16461 9.28432 6.36493 9.52511 6.55191L9.38772 6.72883C9.07598 6.48675 8.96607 6.19027 9.07367 5.86044C9.2268 5.39109 9.52725 5.21289 10.1292 5.21289C10.5238 5.21289 10.8311 5.31655 11.0451 5.52751L11.0785 5.56041V6.64037H10.8545V5.65615C10.6874 5.51097 10.4473 5.43689 10.1292 5.43689Z" fill="#C88A02"/>
<path d="M13.049 5.69869L13.0509 5.81068C14.044 5.79334 14.6137 5.93826 14.7583 6.22711C14.9078 6.52574 14.88 6.88876 14.6705 7.31999L14.7712 7.36893C14.9947 6.90883 15.0253 6.51024 14.8584 6.17698C14.6867 5.83393 14.0841 5.68062 13.049 5.69869Z" fill="white"/>
<path d="M12.6983 6.60341L12.7557 6.69957C12.972 6.57044 13.0802 6.35006 13.0802 6.04636C13.0802 5.60988 12.8554 5.35393 12.358 5.17877C12.0406 5.06698 11.607 5.11281 11.056 5.31259L11.0941 5.41788C11.6231 5.2261 12.0324 5.18284 12.3208 5.28441C12.777 5.44507 12.9682 5.66274 12.9682 6.04636C12.9682 6.31287 12.8783 6.49592 12.6983 6.60341Z" fill="white"/>
<path d="M14.5992 7.14866L14.8106 7.22288C15.0298 6.59854 14.9672 6.17452 14.5925 5.99162C14.2624 5.83045 13.7812 5.76486 13.1466 5.79058L13.1557 6.01439C13.7565 5.99004 14.2035 6.05098 14.4943 6.19292C14.7405 6.31312 14.7856 6.61811 14.5992 7.14866Z" fill="#C88A02"/>
<path d="M12.1172 5.45447C12.6294 5.45447 12.8397 5.5792 12.9598 5.94749C13.0364 6.18219 12.9621 6.38251 12.7214 6.56949L12.8587 6.74641C13.1705 6.50433 13.2804 6.20785 13.1728 5.87801C13.0197 5.40867 12.7192 5.23047 12.1172 5.23047C11.7227 5.23047 11.4153 5.33413 11.2013 5.54509L11.1679 5.57799V6.65795H11.3919V5.67373C11.5591 5.52855 11.7992 5.45447 12.1172 5.45447Z" fill="#C88A02"/>
<path opacity="0.3" fill-rule="evenodd" clip-rule="evenodd" d="M7.47198 9.26367H14.752V15.8045C14.752 15.8045 14.2112 17.9997 11.112 17.9997C8.01276 17.9997 7.47198 15.7466 7.47198 15.7466V9.26367Z" fill="#E1E5E8"/>
<mask id="mask3_299_35741" style="mask-type:luminance" maskUnits="userSpaceOnUse" x="7" y="9" width="8" height="9">
<path fill-rule="evenodd" clip-rule="evenodd" d="M7.47198 9.26367H14.752V15.8045C14.752 15.8045 14.2112 17.9997 11.112 17.9997C8.01276 17.9997 7.47198 15.7466 7.47198 15.7466V9.26367Z" fill="white"/>
</mask>
<g mask="url(#mask3_299_35741)">
<rect x="7.47198" y="13.2949" width="3.696" height="4.368" fill="#FFC034"/>
<rect x="7.91998" y="13.5195" width="0.448" height="4.144" fill="#AD1619"/>
<rect x="9.48798" y="13.5195" width="0.448" height="4.144" fill="#AD1619"/>
<rect x="8.70398" y="13.5195" width="0.448" height="4.144" fill="#AD1619"/>
<rect x="10.272" y="13.5195" width="0.448" height="4.144" fill="#AD1619"/>
<rect x="7.47198" y="9.15234" width="3.696" height="4.256" fill="#AD1619"/>
<rect x="11.056" y="13.1836" width="3.696" height="4.256" fill="#AD1619"/>
<rect x="11.056" y="9.26367" width="3.92" height="4.144" fill="#F1F9FF"/>
<path d="M9.3761 10.5283H9.59973V10.0645H9.93567V10.5283H10.2716V11.1094H9.93567V12.1553H10.2716V12.7354H8.25598V12.1553H8.59192V11.1094H8.25598V10.5283H8.47961V10.0645H8.81555V10.5283H9.04016V9.59961H9.3761V10.5283Z" fill="#C88A02"/>
<path fill-rule="evenodd" clip-rule="evenodd" d="M12.6261 9.80388C12.8926 9.69743 13.2032 9.80949 13.4669 10.1857C13.6172 10.4002 13.6173 10.637 13.4709 10.8244C13.3969 10.9189 13.2951 10.9906 13.1711 11.049C13.265 11.1817 13.3216 11.2562 13.4181 11.3654C13.4639 11.4172 13.5039 11.4668 13.5402 11.5129C13.5751 11.493 13.6193 11.4766 13.674 11.4601C13.6826 11.4575 13.6919 11.4549 13.7013 11.4523C13.7359 11.4427 13.7609 11.4348 13.7814 11.4279C13.8738 11.3969 13.8706 11.4074 13.8703 11.1388C13.8702 11.1182 13.8703 11.1173 13.8703 11.0959C13.8703 11.0284 13.8679 10.9707 13.8625 10.839C13.8622 10.833 13.8627 10.8322 13.8625 10.8263C13.8423 10.3422 13.8599 10.1565 14.008 10.0236L14.1574 10.1906C14.0856 10.2554 14.0697 10.4222 14.0861 10.8166C14.0863 10.8228 14.0858 10.8238 14.0861 10.8302C14.0917 10.965 14.0939 11.0243 14.0939 11.0959C14.0939 11.1169 14.0939 11.1177 14.0939 11.1379C14.0944 11.4941 14.0672 11.5688 13.8527 11.6408C13.8278 11.6492 13.7989 11.6576 13.7609 11.6681C13.753 11.6703 13.7455 11.6729 13.7384 11.675C13.7072 11.6844 13.6846 11.6889 13.6691 11.6955C13.6901 11.7311 13.7078 11.7645 13.7209 11.7961C13.7809 11.9417 13.7615 12.0799 13.6505 12.1584C13.6509 12.1603 13.6512 12.1625 13.6515 12.1642C13.6523 12.1681 13.6534 12.1724 13.6564 12.1838C13.6693 12.2366 13.6669 12.2908 13.6427 12.5051C13.6291 12.6262 13.6291 12.7061 13.6369 12.7277C13.6294 12.707 13.6019 12.6837 13.5636 12.6838L13.5568 12.6779C13.5549 12.68 13.5527 12.6819 13.5509 12.6838H13.5636L13.5714 12.6906C13.5673 12.6913 13.5633 12.6927 13.5597 12.6935L13.549 12.6838C13.5396 12.6937 13.5331 12.7016 13.5285 12.7052L13.5304 12.7043C13.5368 12.7004 13.5464 12.6966 13.5597 12.6935L13.7082 12.8283C13.614 12.9322 13.4788 12.9492 13.4259 12.8029C13.4026 12.7378 13.4026 12.6349 13.4201 12.4797C13.4405 12.298 13.4424 12.2538 13.4386 12.2375C13.4364 12.2291 13.4338 12.2195 13.4318 12.2101C13.4238 12.1723 13.4197 12.1216 13.4191 12.0383L13.3312 12.2306C13.2315 12.1845 13.18 12.1426 13.1671 12.0695C13.1627 12.0437 13.1653 12.0202 13.172 11.9963C13.1752 11.9851 13.1788 11.9732 13.1837 11.9601C13.1954 11.9281 13.1925 11.9092 13.1418 11.84C13.1293 11.8231 13.1171 11.8045 13.1037 11.7853C13.0994 11.784 13.0952 11.7826 13.091 11.7814C13.0383 11.766 12.9929 11.7545 12.9562 11.7472C12.9683 11.7789 12.9829 11.8135 13.0002 11.8527C13.0026 11.8582 13.0618 11.9894 13.0763 12.0246C13.1062 12.0971 13.122 12.1514 13.1252 12.2052C13.1382 12.4344 12.9529 12.4898 12.7218 12.422C12.5494 12.3714 12.4612 12.351 12.4367 12.3517C12.5131 12.3496 12.5549 12.2658 12.55 12.2345L12.2179 12.2863C12.1957 12.1436 12.2577 12.0206 12.4279 12.0158C12.4923 12.0141 12.5747 12.0303 12.7306 12.0744C12.72 12.0502 12.7074 12.0212 12.6925 11.9875C12.6554 11.903 12.6283 11.8353 12.6076 11.7668C12.5494 11.5746 12.6471 11.4237 12.8332 11.4045C12.8427 11.4035 12.8525 11.4039 12.8625 11.4035C12.8224 11.3364 12.7803 11.2637 12.7355 11.1857C12.7106 11.1906 12.6877 11.1971 12.6662 11.2004L12.6525 11.1135C12.5593 11.2174 12.4657 11.314 12.3732 11.3869C12.1502 11.5626 11.9425 11.6215 11.7863 11.4465L12.0373 11.2228C12.0289 11.2135 12.0156 11.2104 12.0236 11.2082C12.0567 11.1987 12.1064 11.1695 12.1652 11.1232C12.2282 11.0735 12.295 11.0069 12.3634 10.9338C12.2692 10.8711 12.1766 10.7848 12.0871 10.676C12.0197 10.5941 11.9609 10.5394 11.9054 10.5011C11.8777 10.4821 11.795 10.4367 11.7834 10.4289C11.6449 10.3358 11.6526 10.2474 11.7365 10.0363L12.049 10.1603C12.0451 10.1702 12.0414 10.1795 12.0382 10.1877C12.0583 10.1995 12.0796 10.2126 12.0959 10.2238C12.1779 10.2803 12.2597 10.3571 12.3468 10.4631C12.4328 10.5675 12.5123 10.6372 12.5861 10.6769L12.5822 10.6467C12.597 10.6444 12.6277 10.6382 12.6681 10.6291C12.7356 10.6138 12.8029 10.5943 12.8634 10.5715C12.9259 10.5479 12.9748 10.523 13.0041 10.5021C12.9289 10.396 12.8689 10.3444 12.8273 10.3293C12.8213 10.3271 12.8266 10.3274 12.8341 10.3244C12.8421 10.3212 12.8518 10.3152 12.8644 10.3058L12.5314 9.85564C12.5554 9.83794 12.5869 9.81956 12.6261 9.80388ZM13.4113 11.926C13.4124 11.9563 13.4103 11.9859 13.4015 12.0158C13.4068 12.0185 13.4126 12.0215 13.4191 12.0246C13.4191 12.0214 13.4191 12.0181 13.4191 12.0148C13.4191 11.9899 13.4178 11.9663 13.4171 11.9406C13.4159 11.9382 13.4143 11.9332 13.4113 11.926Z" fill="#C37C9C"/>
<path d="M12.9788 9.79436L13.2082 9.54883L13.6897 9.99865L13.4604 10.2442L12.9788 9.79436Z" fill="#C88A02"/>
<path d="M14.3598 16.1396L14.3549 16.1592C14.2125 16.7497 13.7304 17.0478 12.9604 17.0479C12.1893 17.0479 11.7066 16.7416 11.5649 16.1377L11.56 16.1191V13.6875H14.3598V16.1396ZM11.8959 16.0791C12.0033 16.5028 12.3417 16.7119 12.9604 16.7119C13.5791 16.7118 13.9168 16.5084 14.0239 16.0986V14.0234H11.8959V16.0791Z" fill="#FFC034"/>
<path d="M13.0759 14.8867L13.8875 14.0039L14.0525 14.1553L13.2205 15.0605H14.1511V15.3965H13.2029L14.0525 16.3213L13.8875 16.4727L13.0759 15.5889V16.7715H12.8425V15.4717L11.9226 16.4727L11.7576 16.3213L12.6062 15.3965H11.8357V15.0605H12.5906L11.7576 14.1553L11.9226 14.0039L12.8425 15.0039V13.8926H13.0759V14.8867Z" fill="#FFC034"/>
<path fill-rule="evenodd" clip-rule="evenodd" d="M13.4827 17.4431C13.4827 17.4431 11.1105 17.6296 11.1105 16.0996C11.1105 16.0996 11.0879 17.4431 8.6109 17.4431V18.6509H13.4827V17.4431Z" fill="#F1F9FF"/>
<path fill-rule="evenodd" clip-rule="evenodd" d="M11.112 14.1924C11.5759 14.1924 11.952 13.7912 11.952 13.2964C11.952 12.8015 11.5759 12.4004 11.112 12.4004C10.6481 12.4004 10.272 12.8015 10.272 13.2964C10.272 13.7912 10.6481 14.1924 11.112 14.1924Z" fill="#005BBF" stroke="#AD1619" stroke-width="1.16667"/>
</g>
</g>
</g>
<defs>
<clipPath id="clip0_299_35741">
<rect width="32" height="24" fill="white"/>
</clipPath>
</defs>
</svg>
