<svg width="32" height="24" viewBox="0 0 32 24" fill="none" xmlns="http://www.w3.org/2000/svg">
<g clip-path="url(#clip0_299_35791)">
<rect width="32" height="24" fill="white"/>
<path fill-rule="evenodd" clip-rule="evenodd" d="M0 0V24H32V0H0Z" fill="#67BFE5"/>
<mask id="mask0_299_35791" style="mask-type:luminance" maskUnits="userSpaceOnUse" x="0" y="0" width="32" height="24">
<path fill-rule="evenodd" clip-rule="evenodd" d="M0 0V24H32V0H0Z" fill="white"/>
</mask>
<g mask="url(#mask0_299_35791)">
</g>
<g clip-path="url(#clip1_299_35791)">
<rect width="18" height="14" fill="#2E42A5"/>
<path d="M-2.00427 12.9991L1.95668 14.7363L18.0899 1.88805L20.1792 -0.693481L15.9435 -1.27411L9.36317 4.26259L4.06667 7.99302L-2.00427 12.9991Z" fill="#F7FCFF"/>
<path d="M-1.46201 14.2165L0.555916 15.2246L19.4289 -0.933105H16.5955L-1.46201 14.2165Z" fill="#F50100"/>
<path d="M20.0043 12.9991L16.0433 14.7363L-0.0898743 1.88805L-2.17919 -0.693481L2.05648 -1.27411L8.63683 4.26259L13.9333 7.99302L20.0043 12.9991Z" fill="#F7FCFF"/>
<path d="M19.8691 13.8727L17.8512 14.8809L9.81488 7.9629L7.43228 7.18998L-2.38022 -0.684557H0.453178L10.2602 7.00307L12.8651 7.92989L19.8691 13.8727Z" fill="#F50100"/>
<path fill-rule="evenodd" clip-rule="evenodd" d="M9.98451 0H7.98451V6H0V8H7.98451V14H9.98451V8H18V6H9.98451V0Z" fill="#F50100"/>
<path fill-rule="evenodd" clip-rule="evenodd" d="M6.48451 0H11.4845V4.5H18V9.5H11.4845L11.5 14H6.5L6.48451 9.5H0V4.5H6.48451V0ZM7.98451 6H0V8H7.98451V14H9.98451V8H18V6H9.98451V0H7.98451V6Z" fill="#F7FCFF"/>
</g>
<path fill-rule="evenodd" clip-rule="evenodd" d="M20 10H29.6552V18.3333C29.6552 18.3333 28.8455 22 24.8276 22C20.8097 22 20 18.3333 20 18.3333V10Z" fill="#F7FCFF"/>
<mask id="mask1_299_35791" style="mask-type:luminance" maskUnits="userSpaceOnUse" x="20" y="10" width="10" height="12">
<path fill-rule="evenodd" clip-rule="evenodd" d="M20 10H29.6552V18.3333C29.6552 18.3333 28.8455 22 24.8276 22C20.8097 22 20 18.3333 20 18.3333V10Z" fill="white"/>
</mask>
<g mask="url(#mask1_299_35791)">
<rect x="20" y="10" width="9.65517" height="3" fill="#C3352C"/>
<rect x="24.1379" y="12.666" width="1.37931" height="9.33333" fill="#C3352C"/>
<rect x="20" y="16.334" width="9.65517" height="1.33333" fill="#C3352C"/>
<path fill-rule="evenodd" clip-rule="evenodd" d="M23.3897 18.5804C23.4259 18.5913 23.4835 18.6039 23.5625 18.6165C23.6028 18.6229 23.6029 18.6228 23.6446 18.6292C23.9114 18.6704 23.9958 18.6931 24.0899 18.807C24.269 19.0236 24.1482 19.2202 23.875 19.429C23.5737 19.6594 23.5264 19.7439 23.5332 19.806C23.5518 19.8514 23.5489 19.9735 23.4551 20.0648C23.4513 20.0685 23.4471 20.0721 23.4434 20.0755C23.5217 20.2097 23.6586 20.4022 23.8526 20.6488C24.1873 20.7153 24.1636 21.0551 23.9287 21.3949C23.5943 21.8785 23.1206 21.5583 22.5401 20.7376C22.2291 20.3235 21.949 20.0993 21.7149 20.0521C21.2472 19.9579 20.3659 19.1739 20.5147 18.7464C20.6125 18.4656 20.7639 18.4636 21.3672 18.5394L21.4082 18.5443C21.6178 18.5709 21.6939 18.5784 21.7637 18.5785C21.8233 18.5785 21.5596 18.6833 22.1826 18.4203C22.5138 18.2804 22.8167 18.2122 23.2041 18.224L23.3897 18.5804ZM22.8936 18.7367C22.7162 18.7584 22.554 18.8064 22.377 18.8812C21.4944 19.2539 21.9349 19.0785 21.7637 19.0785C21.6635 19.0784 21.5812 19.0703 21.3457 19.0404L21.3047 19.0355C21.2125 19.0239 21.12 19.0165 21.0576 18.9994C21.0351 18.9759 21.0147 18.9583 21.003 18.9427C20.9914 18.9274 20.9859 18.9167 20.9873 18.9115C20.9789 18.936 20.9818 18.9547 20.9942 18.9691C21.0068 18.9837 21.0294 18.9916 21.0576 18.9994C21.2239 19.1722 21.6462 19.5282 21.8135 19.5619C22.1921 19.6381 22.5624 19.9347 22.9444 20.4437C23.3323 20.992 23.5148 21.1148 23.5176 21.1107C23.5926 21.0024 23.5926 21.1369 23.7227 21.1371L23.5274 21.0433C23.2556 20.7031 23.0734 20.4456 22.9766 20.264C22.8378 20.0035 22.8166 19.7424 23.0479 19.6693C23.0887 19.4968 23.2177 19.3201 23.4746 19.1087C23.2678 19.0751 23.1475 19.0399 23.041 18.9574C22.9618 18.8959 22.9133 18.8202 22.8936 18.7367ZM23.3477 20.1107C23.3163 20.1321 23.2684 20.1497 23.1963 20.1497C23.2531 20.1497 23.2974 20.1475 23.336 20.1371L23.3477 20.1107Z" fill="#979797"/>
<path d="M21.655 16.1102C21.655 16.1102 21.178 15.4501 21.178 15.2148" stroke="#964C36"/>
<path d="M21.3588 15.5443C21.3588 15.5443 20.7488 15.2838 20.7488 15.5443" stroke="#2A8E51"/>
<path d="M21.3488 15.2704C21.3488 15.2704 20.9198 14.7246 20.5972 14.7246C20.2746 14.7246 20.2823 14.9975 20.2823 14.9975" stroke="#2A8E51"/>
<path d="M21.104 14.7228C21.104 14.7228 20.9125 13.8301 20.6059 13.8301C20.2993 13.8301 20.2993 14.2765 20.2993 14.2765" stroke="#2A8E51"/>
<path d="M21.1814 14.7202C21.1814 14.7202 21.096 13.9551 21.4909 13.9551" stroke="#2A8E51"/>
<path d="M22.2611 15.9811C22.2611 15.9811 22.0385 15.1977 22.119 14.9766" stroke="#964C36"/>
<path d="M22.1767 15.3467C22.1767 15.3467 21.6926 14.8932 21.6035 15.138" stroke="#2A8E51"/>
<path d="M22.2611 15.0848C22.2611 15.0848 22.0446 14.4251 21.7415 14.3148C21.4384 14.2045 21.3523 14.4635 21.3523 14.4635" stroke="#2A8E51"/>
<path d="M22.218 14.4872C22.218 14.4872 22.3435 13.5828 22.0553 13.4779C21.7672 13.373 21.6145 13.7925 21.6145 13.7925" stroke="#2A8E51"/>
<path d="M22.2914 14.5113C22.2914 14.5113 22.4729 13.7631 22.8439 13.8981" stroke="#2A8E51"/>
<path d="M22.752 16.259C22.752 16.259 23.0684 15.5086 23.0155 15.2793" stroke="#964C36" stroke-width="0.7"/>
<path d="M22.9131 15.6411C22.9131 15.6411 23.4488 15.25 23.5074 15.5039" stroke="#2A8E51" stroke-width="0.7"/>
<path d="M22.8611 15.3714C22.8611 15.3714 23.1564 14.743 23.4707 14.6705C23.785 14.5979 23.8389 14.8656 23.8389 14.8656" stroke="#2A8E51" stroke-width="0.7"/>
<path d="M22.9767 14.7833C22.9767 14.7833 22.9624 13.8704 23.2612 13.8014C23.56 13.7324 23.6604 14.1674 23.6604 14.1674" stroke="#2A8E51" stroke-width="0.7"/>
<path d="M22.9008 14.7997C22.9008 14.7997 22.8119 14.035 22.4272 14.1238" stroke="#2A8E51" stroke-width="0.7"/>
<path d="M26.698 15.8029C26.698 15.8029 26.94 14.6895 27.6286 14.6895C28.3173 14.6895 28.6254 15.8659 28.6254 15.8659" stroke="#2A8E51" stroke-width="0.7"/>
<path d="M26.1293 15.0416C26.1293 15.0416 26.5001 14.3839 27.724 14.4377C28.9478 14.4914 29.1709 15.0416 29.1709 15.0416" stroke="#2A8E51" stroke-width="0.7"/>
<path d="M25.882 14.2062C25.882 14.2062 26.5543 13.3735 27.4965 14.0793L27.8157 14.2062C27.8157 14.2062 28.1357 13.2625 29.682 14.2062" stroke="#2A8E51" stroke-width="0.7"/>
<path d="M27.7385 16.0376C27.7385 16.0376 27.7876 14.9983 27.9524 14.7129" stroke="#964C36"/>
<path d="M29.0988 18.3153C29.0988 18.3153 28.4806 18.0246 28.2957 18.3153C28.1108 18.606 25.8829 21.2771 25.8829 21.2771" stroke="#964C36"/>
<path fill-rule="evenodd" clip-rule="evenodd" d="M26.9643 18.5958L28.3451 19.561C28.3451 19.561 28.9806 19.1077 28.6629 18.8518C28.3451 18.5958 27.4793 18.1445 27.4793 18.1445L26.9643 18.5958Z" fill="#FFF203"/>
<path fill-rule="evenodd" clip-rule="evenodd" d="M26.9166 18.6445C26.9166 18.6445 26.5967 18.9794 26.5967 19.2354C26.5967 19.4913 26.2991 20.1774 26.2991 20.1774C26.2991 20.1774 27.1315 20.6898 27.3043 20.3634C27.4772 20.037 28.5997 20.2325 28.4018 19.7339C28.2038 19.2354 26.9166 18.6445 26.9166 18.6445Z" fill="#00A651"/>
<path fill-rule="evenodd" clip-rule="evenodd" d="M21.0563 11.1828C21.0563 11.1828 21.7936 10.8045 22.1586 11.1828C22.5236 11.5612 22.8226 11.1515 22.8226 10.9232C22.8226 10.695 23.4021 9.91156 23.4021 10.5472C23.4021 11.1828 23.2217 11.5417 23.7311 11.5417C24.2405 11.5417 26.5342 10.6637 27.0842 10.9232C27.6343 11.1828 28.0552 11.1183 27.9154 10.7458C27.7755 10.3734 27.4162 10.1406 26.7242 10.3439C26.0323 10.5472 26.1956 10.7458 25.5975 10.7458C24.9995 10.7458 24.3339 10.5472 24.3339 10.5472C24.3339 10.5472 24.5209 10.2132 25.2036 10.4508C25.8864 10.6883 26.8281 10.1565 27.0842 10.1565C27.3404 10.1565 28.0453 10.1406 28.1151 10.3439C28.185 10.5472 28.6106 10.7337 28.2862 10.9232C27.9618 11.1128 27.4268 11.2315 27.7949 11.4743C28.163 11.7171 29.0094 11.6703 29.0502 11.9229C29.091 12.1754 29.4922 12.5526 29.3312 12.5526C29.1701 12.5526 28.8792 12.9083 28.6082 12.8C28.3373 12.6917 28.3054 12.5966 28.5652 12.5089C28.825 12.4211 28.8225 12.0521 28.6082 12.0521C28.3939 12.0521 28.4985 12.1814 28.0106 12.0521C27.5227 11.9229 26.8769 11.7792 26.9157 12.0521C26.9546 12.3251 27.2722 12.7442 26.6861 12.8C26.1 12.8559 25.8257 13.0801 25.7116 12.8995C25.5975 12.7189 25.1898 12.4784 25.5104 12.4012C25.8311 12.3241 26.1374 12.6634 26.2529 12.608C26.3684 12.5526 26.6302 12.5218 26.4109 12.287C26.1917 12.0521 25.8303 11.9139 26.1653 11.7382C26.5004 11.5624 26.236 11.5588 25.5975 11.9229C24.9591 12.287 24.604 12.5964 24.0435 12.5526C23.483 12.5089 23.273 12.5679 23.0929 12.5089C22.9127 12.4498 22.0353 13.1609 21.7827 12.9805C21.53 12.8 20.7143 12.7308 20.8612 12.5089C21.008 12.287 21.2051 12.1727 21.4247 12.287C21.6443 12.4012 21.8625 12.5155 22.0105 12.4012C22.1586 12.287 22.5862 11.8949 22.4786 11.8165C22.3711 11.7382 22.4751 11.4743 21.8661 11.4743C21.2571 11.4743 21.043 11.7684 20.8985 11.5831C20.7539 11.3978 21.0563 11.1828 21.0563 11.1828Z" fill="#FFD100"/>
</g>
</g>
<defs>
<clipPath id="clip0_299_35791">
<rect width="32" height="24" fill="white"/>
</clipPath>
<clipPath id="clip1_299_35791">
<rect width="18" height="14" fill="white"/>
</clipPath>
</defs>
</svg>
