<svg width="32" height="24" viewBox="0 0 32 24" fill="none" xmlns="http://www.w3.org/2000/svg">
<g clip-path="url(#clip0_299_35793)">
<rect width="32" height="24" fill="white"/>
<path fill-rule="evenodd" clip-rule="evenodd" d="M0 0V24H32V0H0Z" fill="#2E42A5"/>
<mask id="mask0_299_35793" style="mask-type:luminance" maskUnits="userSpaceOnUse" x="0" y="0" width="32" height="24">
<path fill-rule="evenodd" clip-rule="evenodd" d="M0 0V24H32V0H0Z" fill="white"/>
</mask>
<g mask="url(#mask0_299_35793)">
</g>
<g clip-path="url(#clip1_299_35793)">
<rect width="18" height="14" fill="#2E42A5"/>
<path d="M-2.00427 12.9991L1.95668 14.7363L18.0899 1.88805L20.1792 -0.693481L15.9435 -1.27411L9.36317 4.26259L4.06667 7.99302L-2.00427 12.9991Z" fill="#F7FCFF"/>
<path d="M-1.46201 14.2165L0.555916 15.2246L19.4289 -0.933105H16.5955L-1.46201 14.2165Z" fill="#F50100"/>
<path d="M20.0043 12.9991L16.0433 14.7363L-0.0898743 1.88805L-2.17919 -0.693481L2.05648 -1.27411L8.63683 4.26259L13.9333 7.99302L20.0043 12.9991Z" fill="#F7FCFF"/>
<path d="M19.8691 13.8727L17.8512 14.8809L9.81486 7.9629L7.43226 7.18998L-2.38023 -0.684557H0.453163L10.2601 7.00307L12.8651 7.92989L19.8691 13.8727Z" fill="#F50100"/>
<path fill-rule="evenodd" clip-rule="evenodd" d="M9.98451 0H7.98451V6H0V8H7.98451V14H9.98451V8H18V6H9.98451V0Z" fill="#F50100"/>
<path fill-rule="evenodd" clip-rule="evenodd" d="M6.48451 0H11.4845V4.5H18V9.5H11.4845L11.5 14H6.5L6.48451 9.5H0V4.5H6.48451V0ZM7.98451 6H0V8H7.98451V14H9.98451V8H18V6H9.98451V0H7.98451V6Z" fill="#F7FCFF"/>
</g>
<path d="M22.9633 18.3945C22.9633 18.3945 23.9472 19.337 23.3531 19.9756C22.7589 20.6142 22.2141 20.2432 22.2141 20.2432" stroke="#B85F3C"/>
<path d="M29.0499 18.3945C29.0499 18.3945 28.0659 19.337 28.66 19.9756C29.2542 20.6142 29.799 20.2432 29.799 20.2432" stroke="#B85F3C"/>
<path d="M22.3207 19.1543C22.3207 19.1543 24.0159 20.7743 26.0999 20.7743C28.1838 20.7743 29.8608 19.5367 29.8608 19.5367" stroke="#CB8B73"/>
</g>
<defs>
<clipPath id="clip0_299_35793">
<rect width="32" height="24" fill="white"/>
</clipPath>
<clipPath id="clip1_299_35793">
<rect width="18" height="14" fill="white"/>
</clipPath>
</defs>
</svg>
