<svg width="32" height="24" viewBox="0 0 32 24" fill="none" xmlns="http://www.w3.org/2000/svg">
<g clip-path="url(#clip0_299_35795)">
<rect width="32" height="24" fill="white"/>
<path fill-rule="evenodd" clip-rule="evenodd" d="M0 0V24H32V0H0Z" fill="#63B3E1"/>
<mask id="mask0_299_35795" style="mask-type:luminance" maskUnits="userSpaceOnUse" x="0" y="0" width="32" height="24">
<path fill-rule="evenodd" clip-rule="evenodd" d="M0 0V24H32V0H0Z" fill="white"/>
</mask>
<g mask="url(#mask0_299_35795)">
<path fill-rule="evenodd" clip-rule="evenodd" d="M16 7.30078L14.2366 8.22783L14.5734 6.26431L13.1468 4.87373L15.1183 4.58726L16 2.80078L16.8817 4.58726L18.8532 4.87373L17.4266 6.26431L17.7634 8.22783L16 7.30078Z" fill="#F7FCFF"/>
<path fill-rule="evenodd" clip-rule="evenodd" d="M16 19.3008L14.2366 20.2278L14.5734 18.2643L13.1468 16.8737L15.1183 16.5873L16 14.8008L16.8817 16.5873L18.8532 16.8737L17.4266 18.2643L17.7633 20.2278L16 19.3008Z" fill="#F7FCFF"/>
<path fill-rule="evenodd" clip-rule="evenodd" d="M9.80005 13.5L8.03669 14.4271L8.37346 12.4635L6.94688 11.0729L8.91837 10.7865L9.80005 9L10.6817 10.7865L12.6532 11.0729L11.2266 12.4635L11.5634 14.4271L9.80005 13.5Z" fill="#F7FCFF"/>
<path fill-rule="evenodd" clip-rule="evenodd" d="M22 13.5L20.2366 14.4271L20.5734 12.4635L19.1468 11.0729L21.1183 10.7865L22 9L22.8817 10.7865L24.8532 11.0729L23.4266 12.4635L23.7634 14.4271L22 13.5Z" fill="#F7FCFF"/>
</g>
</g>
<defs>
<clipPath id="clip0_299_35795">
<rect width="32" height="24" fill="white"/>
</clipPath>
</defs>
</svg>
