<svg width="32" height="24" viewBox="0 0 32 24" fill="none" xmlns="http://www.w3.org/2000/svg">
<g clip-path="url(#clip0_299_35837)">
<rect width="32" height="24" fill="white"/>
<path fill-rule="evenodd" clip-rule="evenodd" d="M0 0V24H32V0H0Z" fill="#2E42A5"/>
<mask id="mask0_299_35837" style="mask-type:luminance" maskUnits="userSpaceOnUse" x="0" y="0" width="32" height="24">
<path fill-rule="evenodd" clip-rule="evenodd" d="M0 0V24H32V0H0Z" fill="white"/>
</mask>
<g mask="url(#mask0_299_35837)">
<path d="M-3.56323 22.2856L3.47846 25.2637L32.1597 3.23805L35.874 -1.18743L28.344 -2.18279L16.6456 7.30869L7.22956 13.7037L-3.56323 22.2856Z" fill="white"/>
<path d="M-2.59924 24.3714L0.988173 26.0996L34.5402 -1.59933H29.5031L-2.59924 24.3714Z" fill="#F50100"/>
<path d="M35.563 22.2856L28.5213 25.2637L-0.159939 3.23805L-3.87427 -1.18743L3.6558 -2.18279L15.3542 7.30869L24.7702 13.7037L35.563 22.2856Z" fill="white"/>
<path d="M35.3228 23.7815L31.7353 25.5098L17.4485 13.6504L13.2128 12.3254L-4.23163 -1.17381H0.805515L18.2402 12.005L22.8712 13.5938L35.3228 23.7815Z" fill="#F50100"/>
<mask id="path-7-inside-1_299_35837" fill="white">
<path d="M19.7775 8H34.0275V16H19.7775V26H12.2218V16H-1.97253V8H12.2218V-2H19.7775V8Z"/>
</mask>
<path d="M19.7775 8H34.0275V16H19.7775V26H12.2218V16H-1.97253V8H12.2218V-2H19.7775V8Z" fill="#F50100"/>
<path d="M19.7775 8H17.7775V10H19.7775V8ZM34.0275 8H36.0275V6H34.0275V8ZM34.0275 16V18H36.0275V16H34.0275ZM19.7775 16V14H17.7775V16H19.7775ZM19.7775 26V28H21.7775V26H19.7775ZM12.2218 26H10.2218V28H12.2218V26ZM12.2218 16H14.2218V14H12.2218V16ZM-1.97253 16H-3.97253V18H-1.97253V16ZM-1.97253 8V6H-3.97253V8H-1.97253ZM12.2218 8V10H14.2218V8H12.2218ZM12.2218 -2V-4H10.2218V-2H12.2218ZM19.7775 -2H21.7775V-4H19.7775V-2ZM19.7775 8V10H34.0275V8V6H19.7775V8ZM34.0275 8H32.0275V16H34.0275H36.0275V8H34.0275ZM34.0275 16V14H19.7775V16V18H34.0275V16ZM19.7775 16H17.7775V26H19.7775H21.7775V16H19.7775ZM19.7775 26V24H12.2218V26V28H19.7775V26ZM12.2218 26H14.2218V16H12.2218H10.2218V26H12.2218ZM12.2218 16V14H-1.97253V16V18H12.2218V16ZM-1.97253 16H0.0274658V8H-1.97253H-3.97253V16H-1.97253ZM-1.97253 8V10H12.2218V8V6H-1.97253V8ZM12.2218 8H14.2218V-2H12.2218H10.2218V8H12.2218ZM12.2218 -2V0H19.7775V-2V-4H12.2218V-2ZM19.7775 -2H17.7775V8H19.7775H21.7775V-2H19.7775Z" fill="white" mask="url(#path-7-inside-1_299_35837)"/>
</g>
</g>
<defs>
<clipPath id="clip0_299_35837">
<rect width="32" height="24" fill="white"/>
</clipPath>
</defs>
</svg>
