<svg width="32" height="24" viewBox="0 0 32 24" fill="none" xmlns="http://www.w3.org/2000/svg">
<g clip-path="url(#clip0_299_35841)">
<rect width="32" height="24" fill="white"/>
<path fill-rule="evenodd" clip-rule="evenodd" d="M0 0H32V24H0V0Z" fill="#C51918"/>
<path fill-rule="evenodd" clip-rule="evenodd" d="M6 6H26V18H6V6Z" fill="#FECA00"/>
<mask id="mask0_299_35841" style="mask-type:luminance" maskUnits="userSpaceOnUse" x="6" y="6" width="20" height="12">
<path fill-rule="evenodd" clip-rule="evenodd" d="M6 6H26V18H6V6Z" fill="white"/>
</mask>
<g mask="url(#mask0_299_35841)">
<path fill-rule="evenodd" clip-rule="evenodd" d="M6 6L16 12L6 18V6Z" fill="#23875F"/>
<path fill-rule="evenodd" clip-rule="evenodd" d="M26 6L16 12L26 18V6Z" fill="#23875F"/>
<mask id="mask1_299_35841" style="mask-type:luminance" maskUnits="userSpaceOnUse" x="16" y="6" width="10" height="12">
<path fill-rule="evenodd" clip-rule="evenodd" d="M26 6L16 12L26 18V6Z" fill="white"/>
</mask>
<g mask="url(#mask1_299_35841)">
</g>
<path fill-rule="evenodd" clip-rule="evenodd" d="M16 16C18.2091 16 20 14.2091 20 12C20 9.79086 18.2091 8 16 8C13.7909 8 12 9.79086 12 12C12 14.2091 13.7909 16 16 16Z" fill="#C51918"/>
<path fill-rule="evenodd" clip-rule="evenodd" d="M15.9295 13.3125L13.8585 14.7489L14.5203 12.2887L13 10.717L15.0585 10.6321L15.9295 8.19922L16.8004 10.6321H18.8554L17.3386 12.2887L18.0983 14.6037L15.9295 13.3125Z" fill="#FECA00"/>
</g>
<path d="M10.3837 20.1562H11.5067L10.6776 20.9648L11.0927 22.0967L9.9071 21.4658L8.77527 22.167L9.13757 20.9648L8.30652 20.1973L9.43152 20.1562L9.9071 18.9678L10.3837 20.1562ZM16.3837 20.1562H17.5067L16.6776 20.9648L17.0927 22.0967L15.9071 21.4658L14.7753 22.167L15.1376 20.9648L14.3065 20.1973L15.4315 20.1562L15.9071 18.9678L16.3837 20.1562ZM22.3837 20.1562H23.5067L22.6776 20.9648L23.0927 22.0967L21.9071 21.4658L20.7753 22.167L21.1376 20.9648L20.3065 20.1973L21.4315 20.1562L21.9071 18.9678L22.3837 20.1562ZM10.3846 2.43066H11.5077L10.6786 3.24023L11.0936 4.37109L9.90808 3.74023L8.77625 4.44238L9.13855 3.24023L8.3075 2.47266L9.4325 2.43066L9.90808 1.24219L10.3846 2.43066ZM16.3846 2.43066H17.5077L16.6786 3.24023L17.0936 4.37109L15.9081 3.74023L14.7762 4.44238L15.1385 3.24023L14.3075 2.47266L15.4325 2.43066L15.9081 1.24219L16.3846 2.43066ZM22.3846 2.43066H23.5077L22.6786 3.24023L23.0936 4.37109L21.9081 3.74023L20.7762 4.44238L21.1385 3.24023L20.3075 2.47266L21.4325 2.43066L21.9081 1.24219L22.3846 2.43066Z" fill="#FECA00"/>
<path fill-rule="evenodd" clip-rule="evenodd" d="M8.63474 12.7729C8.63474 12.7729 9.17331 13.2523 9.46662 13.4155C9.56776 13.0322 9.3421 12.1638 9.3421 12.1638C9.27878 11.9562 8.58429 11.584 8.58429 11.584C8.58429 11.584 8.38922 12.2393 8.63474 12.7729Z" fill="#C51918"/>
<path fill-rule="evenodd" clip-rule="evenodd" d="M9.19579 13.9304C9.19579 13.9304 7.81256 13.2844 7.67199 12.3706C7.53143 11.4568 7.82953 10 7.82953 10C7.82953 10 10.0757 10.5112 10.2286 11.6064C10.3814 12.7016 9.87404 13.3896 9.87404 13.3896C9.87404 13.3896 9.35449 12.0545 8.86421 11.9064C8.86421 11.9064 8.86421 13.2296 9.19579 13.9304Z" fill="#FECA00"/>
</g>
<defs>
<clipPath id="clip0_299_35841">
<rect width="32" height="24" fill="white"/>
</clipPath>
</defs>
</svg>
