<svg width="32" height="24" viewBox="0 0 32 24" fill="none" xmlns="http://www.w3.org/2000/svg">
<g clip-path="url(#clip0_299_35851)">
<rect width="32" height="24" fill="white"/>
<rect width="32" height="24" fill="#F7FCFF"/>
<path fill-rule="evenodd" clip-rule="evenodd" d="M0 16H32V24H0V16Z" fill="#C51918"/>
<path d="M17.3887 9.61523H18.333V6.8457H22.1113V9.61523H24V10.5381H23.0557V15.1543H24V16.0771H7V15.1543H7.94434V10.5381H7V9.61523H8.88867V6.8457H12.667V9.61523H13.6113V5H17.3887V9.61523Z" fill="#DB000B"/>
<path d="M9.83334 8.58971C9.83334 8.13674 10.2005 7.76953 10.6535 7.76953C11.1065 7.76953 11.4737 8.13674 11.4737 8.58971V9.8003H9.83334V8.58971Z" fill="#272727"/>
<path d="M19.2778 8.58971C19.2778 8.13674 19.645 7.76953 20.098 7.76953C20.5509 7.76953 20.9181 8.13674 20.9181 8.58971V9.8003H19.2778V8.58971Z" fill="#272727"/>
<path fill-rule="evenodd" clip-rule="evenodd" d="M9.5674 13.4709C9.5674 12.871 10.0537 12.3848 10.6535 12.3848C11.2534 12.3848 11.7396 12.871 11.7396 13.4709V15.3386H9.5674V13.4709Z" fill="#272727"/>
<path d="M19.0118 13.4709C19.0118 12.871 19.4981 12.3848 20.098 12.3848C20.6978 12.3848 21.1841 12.871 21.1841 13.4709V15.3386H19.0118V13.4709Z" fill="#272727"/>
<path fill-rule="evenodd" clip-rule="evenodd" d="M13.8945 13.6399C13.8945 12.8712 14.5177 12.248 15.2863 12.248C16.055 12.248 16.6781 12.8712 16.6781 13.6399V16.3096H13.8945V13.6399Z" fill="#272727"/>
<path d="M14.5556 7.66783C14.5556 7.21486 14.9228 6.84766 15.3757 6.84766C15.8287 6.84766 16.1959 7.21486 16.1959 7.66783V9.8015H14.5556V7.66783Z" fill="#272727"/>
<rect x="7" y="8.69336" width="0.944444" height="0.923077" fill="#DE1A23"/>
<path d="M9.5 7H8.5V6H9.5V7ZM11.75 7H10.25V6H11.75V7ZM13.3184 7H12.3184V6H13.3184V7Z" fill="#DE1A23"/>
<path d="M19.0907 7H18.0907V6H19.0907V7ZM21.204 7H19.704V6H21.204V7ZM22.8182 7H21.8182V6H22.8182V7Z" fill="#DE1A23"/>
<path d="M13.7998 5.02344H12.7998V4.02344H13.7998V5.02344ZM15.2998 5.02344H14.2998V4.02344H15.2998V5.02344ZM16.7998 5.02344H15.7998V4.02344H16.7998V5.02344ZM18.2998 5.02344H17.2998V4.02344H18.2998V5.02344Z" fill="#DE1A23"/>
<rect x="22.9994" y="8.77539" width="1" height="0.838696" fill="#DE1A23"/>
<path d="M18.1527 16.6797L15.4399 18.4531L12.3637 16.9902L15.2582 15.3262L18.1527 16.6797ZM14.3803 16.8418L15.3627 17.3096L16.2055 16.7578L15.268 16.2471L14.3803 16.8418Z" fill="#E8AA00"/>
<path fill-rule="evenodd" clip-rule="evenodd" d="M13.4756 21.0078H14.9493V22.1148V21.7411H14.0335V22.1148H13.4756V21.0078Z" fill="#E8AA00"/>
<path fill-rule="evenodd" clip-rule="evenodd" d="M14.8157 18.1133H16.0665V22.1133H14.8157V18.1133Z" fill="#E8AA00"/>
</g>
<defs>
<clipPath id="clip0_299_35851">
<rect width="32" height="24" fill="white"/>
</clipPath>
</defs>
</svg>
