<svg width="32" height="24" viewBox="0 0 32 24" fill="none" xmlns="http://www.w3.org/2000/svg">
<g clip-path="url(#clip0_299_35767)">
<rect width="32" height="24" fill="white"/>
<path d="M0 0V7H32V0L0 0Z" fill="#002488"/>
<path d="M0.000732422 7V24H32.0007V7L0.000732422 7Z" fill="#DA121A"/>
<path d="M5.02811 0.789156C4.64592 1.41942 4.60032 1.92356 4.86117 2.7941C4.98676 3.20035 5.12472 3.80702 5.18269 4.13589C5.25997 4.60017 5.25188 4.64431 5.26273 4.74526C5.35934 4.74526 5.57889 4.74563 5.68041 4.74502C5.695 4.58428 5.70681 4.39875 5.74108 4.14362C5.78104 3.84615 5.89956 3.22399 6.02703 2.79186C6.28176 1.92833 6.26471 1.39853 5.86861 0.798829C5.7237 0.576358 5.53048 0.392578 5.44353 0.392578C5.35658 0.392578 5.15989 0.562434 5.02811 0.789156Z" fill="#FCDD09"/>
<path d="M5.86088 4.33325C5.82805 4.49955 5.82005 4.55826 5.80359 4.74569C5.92069 4.74616 5.96672 4.74696 6.08086 4.74628C6.10585 4.62019 6.12385 4.55362 6.17892 4.37465C6.39724 3.68248 7.04028 3.40468 7.0113 4.05275C7.00163 4.23169 6.9262 4.3316 6.84224 4.42753C6.94603 4.40163 7.16645 4.29863 7.34518 4.19706C8.34025 3.59736 7.9484 2.12789 6.90503 2.57283C6.36402 2.80498 6.03862 3.44762 5.86088 4.33325Z" fill="#FCDD09"/>
<path d="M4.69434 4.98984C5.13096 4.99208 5.88557 4.9961 6.24802 4.99386C6.24844 4.88635 6.24979 4.94122 6.25068 4.85434C5.98385 4.85177 4.96208 4.85601 4.6964 4.85601C4.69701 4.91222 4.6958 4.93943 4.69434 4.98984L4.69434 4.98984Z" fill="#FCDD09"/>
<path d="M4.41956 5.77915C4.41956 5.77915 4.63706 5.80363 4.83989 5.78882C5.04273 5.77401 5.15527 5.74866 5.27515 5.69036C5.2426 5.93236 5.24073 6.16605 5.24073 6.16605C5.27023 6.47748 5.30361 6.55719 5.37107 6.70876C5.46259 6.8352 5.51581 6.83589 5.58309 6.70238C5.6558 6.55289 5.70367 6.39914 5.71886 6.1646C5.71358 5.98881 5.70376 5.90826 5.66218 5.69338C5.80253 5.75418 5.89117 5.76994 6.10055 5.78882C6.31481 5.80813 6.51175 5.79867 6.51175 5.79867C6.51175 5.79867 6.22233 5.65324 6.09494 5.47489C5.9692 5.29884 5.99601 5.32877 5.90458 5.10197C5.79348 5.09671 5.23019 5.10189 5.05146 5.10189C4.95357 5.30866 4.94373 5.35183 4.82282 5.48231C4.66542 5.65216 4.41956 5.77915 4.41956 5.77915Z" fill="#FCDD09"/>
<path d="M4.02743 2.57283C4.56844 2.80498 4.89383 3.44762 5.07158 4.33325C5.1044 4.49955 5.11241 4.55826 5.12887 4.74569C5.01177 4.74616 4.96574 4.74696 4.85159 4.74628C4.8266 4.62019 4.80861 4.55362 4.75354 4.37465C4.53521 3.68248 3.89218 3.40468 3.92116 4.05275C3.93082 4.23169 4.00625 4.3316 4.09021 4.42753C3.98643 4.40163 3.766 4.29863 3.58728 4.19706C2.59221 3.59736 2.98405 2.12789 4.02743 2.57283V2.57283Z" fill="#FCDD09"/>
<path d="M15.0281 0.789156C14.6459 1.41942 14.6003 1.92356 14.8612 2.7941C14.9868 3.20035 15.1247 3.80702 15.1827 4.13589C15.26 4.60017 15.2519 4.64431 15.2627 4.74526C15.3593 4.74526 15.5789 4.74563 15.6804 4.74502C15.695 4.58428 15.7068 4.39875 15.7411 4.14362C15.781 3.84615 15.8996 3.22399 16.027 2.79186C16.2818 1.92833 16.2647 1.39853 15.8686 0.798829C15.7237 0.576358 15.5305 0.392578 15.4435 0.392578C15.3566 0.392578 15.1599 0.562434 15.0281 0.789156Z" fill="#FCDD09"/>
<path d="M16.905 2.57283C16.364 2.80498 16.0386 3.44762 15.8609 4.33325C15.8281 4.49955 15.82 4.55826 15.8036 4.74569C15.9207 4.74616 15.9667 4.74696 16.0809 4.74628C16.1059 4.62019 16.1238 4.55362 16.1789 4.37465C16.3972 3.68248 17.0403 3.40468 17.0113 4.05275C17.0016 4.23169 16.9262 4.3316 16.8422 4.42753C16.946 4.40163 17.1665 4.29863 17.3452 4.19706C18.3403 3.59736 17.9484 2.12789 16.905 2.57283V2.57283Z" fill="#FCDD09"/>
<path d="M14.6943 4.98984C15.131 4.99208 15.8856 4.9961 16.248 4.99386C16.2484 4.88635 16.2498 4.94122 16.2507 4.85434C15.9839 4.85177 14.9621 4.85601 14.6964 4.85601C14.697 4.91222 14.6958 4.93943 14.6943 4.98984L14.6943 4.98984Z" fill="#FCDD09"/>
<path d="M14.8228 5.48231C14.6654 5.65216 14.4196 5.77915 14.4196 5.77915C14.4196 5.77915 14.6371 5.80363 14.8399 5.78882C15.0427 5.77401 15.1553 5.74866 15.2752 5.69036C15.2426 5.93236 15.2407 6.16605 15.2407 6.16605C15.2702 6.47748 15.3036 6.55719 15.3711 6.70876C15.4626 6.8352 15.5158 6.83589 15.5831 6.70238C15.6558 6.55289 15.7037 6.39914 15.7189 6.1646C15.7136 5.98881 15.7038 5.90826 15.6622 5.69338C15.8025 5.75418 15.8912 5.76994 16.1006 5.78882C16.3148 5.80813 16.5117 5.79867 16.5117 5.79867C16.5117 5.79867 16.2223 5.65324 16.0949 5.47489C15.9692 5.29884 15.996 5.32877 15.9046 5.10197C15.7935 5.09671 15.2302 5.10189 15.0515 5.10189C14.9536 5.30866 14.9437 5.35183 14.8228 5.48231V5.48231Z" fill="#FCDD09"/>
<path d="M14.0274 2.57283C14.5684 2.80498 14.8938 3.44762 15.0716 4.33325C15.1044 4.49955 15.1124 4.55826 15.1289 4.74569C15.0118 4.74616 14.9657 4.74696 14.8516 4.74628C14.8266 4.62019 14.8086 4.55362 14.7535 4.37465C14.5352 3.68248 13.8922 3.40468 13.9212 4.05275C13.9308 4.23169 14.0063 4.3316 14.0902 4.42753C13.9864 4.40163 13.766 4.29863 13.5873 4.19706C12.5922 3.59736 12.9841 2.12789 14.0274 2.57283V2.57283Z" fill="#FCDD09"/>
<path d="M25.0281 0.789156C24.6459 1.41942 24.6003 1.92356 24.8612 2.7941C24.9868 3.20035 25.1247 3.80702 25.1827 4.13589C25.26 4.60017 25.2519 4.64431 25.2627 4.74526C25.3593 4.74526 25.5789 4.74563 25.6804 4.74502C25.695 4.58428 25.7068 4.39875 25.7411 4.14362C25.781 3.84615 25.8996 3.22399 26.027 2.79186C26.2818 1.92833 26.2647 1.39853 25.8686 0.798829C25.7237 0.576358 25.5305 0.392578 25.4435 0.392578C25.3566 0.392578 25.1599 0.562434 25.0281 0.789156Z" fill="#FCDD09"/>
<path d="M26.905 2.57283C26.364 2.80498 26.0386 3.44762 25.8609 4.33325C25.8281 4.49955 25.82 4.55826 25.8036 4.74569C25.9207 4.74616 25.9667 4.74696 26.0809 4.74628C26.1059 4.62019 26.1238 4.55362 26.1789 4.37465C26.3972 3.68248 27.0403 3.40468 27.0113 4.05275C27.0016 4.23169 26.9262 4.3316 26.8422 4.42753C26.946 4.40163 27.1665 4.29863 27.3452 4.19706C28.3403 3.59736 27.9484 2.12789 26.905 2.57283V2.57283Z" fill="#FCDD09"/>
<path d="M24.6943 4.98984C25.131 4.99208 25.8856 4.9961 26.248 4.99386C26.2484 4.88635 26.2498 4.94122 26.2507 4.85434C25.9839 4.85177 24.9621 4.85601 24.6964 4.85601C24.697 4.91222 24.6958 4.93943 24.6943 4.98984L24.6943 4.98984Z" fill="#FCDD09"/>
<path d="M24.8228 5.48231C24.6654 5.65216 24.4196 5.77915 24.4196 5.77915C24.4196 5.77915 24.6371 5.80363 24.8399 5.78882C25.0427 5.77401 25.1553 5.74866 25.2752 5.69036C25.2426 5.93236 25.2407 6.16605 25.2407 6.16605C25.2702 6.47748 25.3036 6.55719 25.3711 6.70876C25.4626 6.8352 25.5158 6.83589 25.5831 6.70238C25.6558 6.55289 25.7037 6.39914 25.7189 6.1646C25.7136 5.98881 25.7038 5.90826 25.6622 5.69338C25.8025 5.75418 25.8912 5.76994 26.1006 5.78882C26.3148 5.80813 26.5117 5.79867 26.5117 5.79867C26.5117 5.79867 26.2223 5.65324 26.0949 5.47489C25.9692 5.29884 25.996 5.32877 25.9046 5.10197C25.7935 5.09671 25.2302 5.10189 25.0515 5.10189C24.9536 5.30866 24.9437 5.35183 24.8228 5.48231V5.48231Z" fill="#FCDD09"/>
<path d="M24.0274 2.57283C24.5684 2.80498 24.8938 3.44762 25.0716 4.33325C25.1044 4.49955 25.1124 4.55826 25.1289 4.74569C25.0118 4.74616 24.9657 4.74696 24.8516 4.74628C24.8266 4.62019 24.8086 4.55362 24.7535 4.37465C24.5352 3.68248 23.8922 3.40468 23.9212 4.05275C23.9308 4.23169 24.0063 4.3316 24.0902 4.42753C23.9864 4.40163 23.766 4.29863 23.5873 4.19706C22.5922 3.59736 22.9841 2.12789 24.0274 2.57283V2.57283Z" fill="#FCDD09"/>
<path d="M11.2987 13.1265C11.5085 13.2244 11.7763 13.3015 11.9114 13.3061C12.071 13.3115 12.0286 13.2722 11.7307 13.1562C11.4975 13.065 11.2186 12.9118 11.0948 12.8168C10.8728 12.6352 10.8728 12.6352 10.8961 12.795C10.9094 12.8862 11.0767 13.0281 11.2987 13.1265Z" fill="#008000"/>
<path d="M9.99394 11.2398C10.1292 11.7814 10.6895 12.7777 10.8827 12.8164C11.0566 12.8454 11.0566 12.8358 10.9117 12.6713C10.6702 12.3908 10.1485 11.3655 10.1485 11.1721C10.1485 11.0657 10.1002 10.9883 10.0422 10.9883C9.97462 10.9883 9.95529 11.085 9.99394 11.2398Z" fill="#008000"/>
<path d="M4.18706 10.562C4.1837 10.5811 4.36505 10.7211 4.59228 10.8791C4.81952 11.0371 5.08426 11.2606 5.17214 11.3743C5.32271 11.5777 6.17567 12.0819 6.25569 12.0174C6.33403 11.9625 5.23533 11.0712 4.7708 10.8124C4.21783 10.4987 4.1988 10.4953 4.18706 10.562Z" fill="#008000"/>
<path d="M4.49829 11.3057C4.49829 11.325 4.70117 11.4314 4.95235 11.5475C5.20354 11.6635 5.50302 11.8377 5.60929 11.9344C5.79285 12.1085 6.7203 12.4567 6.78792 12.3793C6.85555 12.3116 5.61895 11.6249 5.11659 11.4507C4.51761 11.2379 4.49829 11.2379 4.49829 11.3057Z" fill="#008000"/>
<path d="M9.28186 11.3824C9.28186 11.4888 9.65864 12.224 9.88084 12.5335C10.0064 12.7076 10.1513 12.8043 10.3156 12.8043C10.5571 12.8043 10.5571 12.8043 10.19 12.3884C9.97744 12.1659 9.69728 11.8274 9.55237 11.6436C9.40745 11.4598 9.28186 11.3437 9.28186 11.3824H9.28186Z" fill="#008000"/>
<path d="M7.72648 14.3612C7.08887 14.6127 6.95361 14.6998 6.95361 14.8352C6.95361 14.8932 7.02124 14.8836 7.12751 14.7965C7.21446 14.7095 7.53327 14.5934 7.82309 14.5257C8.11292 14.458 8.46071 14.3419 8.59597 14.2742L8.83749 14.1484H8.54766C8.39309 14.1581 8.01631 14.2548 7.72648 14.3612Z" fill="#008000"/>
<path d="M6.46225 12.8455C6.29801 12.9712 6.30767 12.9809 6.66513 12.9228C6.87766 12.8938 7.18681 12.8358 7.34139 12.7971C7.59257 12.7294 7.57325 12.7197 7.13851 12.71C6.84868 12.7004 6.57818 12.7584 6.46225 12.8455Z" fill="#008000"/>
<path d="M4.06216 11.8278C5.65621 12.118 8.85397 13.1917 8.66075 13.3754C8.61244 13.4238 7.71398 13.2013 7.58839 13.1143C7.54008 13.0659 7.0667 13.0853 6.54501 13.153C5.56926 13.2594 5.40503 13.3464 5.42435 13.743C5.43401 13.9365 5.43401 13.9365 5.48231 13.743C5.56926 13.3851 5.71418 13.3077 6.26485 13.3077C6.86382 13.3077 8.50617 13.5496 9.23074 13.743C10.1968 14.0138 10.2258 14.0138 9.907 13.8397C9.49158 13.6076 8.86363 13.182 8.7477 13.0563C8.53516 12.8144 4.68046 11.7504 4.12013 11.7698C3.85928 11.7891 3.84962 11.7891 4.06216 11.8278Z" fill="#008000"/>
<path d="M4.79507 12.3422C4.67913 12.4292 4.55354 12.6323 4.52456 12.7968C4.4666 13.0773 4.4666 13.0773 4.62117 12.8935C5.02693 12.3809 5.05591 12.3615 5.55828 12.3518C5.96403 12.3422 6.022 12.3228 5.82878 12.2648C5.42302 12.139 5.01727 12.1681 4.79507 12.3422Z" fill="#008000"/>
<path d="M9.71931 12.9391C9.7966 13.0746 10.5502 13.4518 10.6081 13.3938C10.6371 13.3647 10.5502 13.2874 10.4342 13.2196C10.3086 13.1519 10.1444 13.0455 10.0768 12.9682C9.92219 12.8231 9.63237 12.794 9.71931 12.9391Z" fill="#008000"/>
<path d="M9.77742 13.8591C9.85471 13.9945 10.6083 14.3717 10.6662 14.3137C10.6952 14.2847 10.6083 14.2073 10.4923 14.1396C10.3667 14.0719 10.2025 13.9655 10.1349 13.8881C9.9803 13.743 9.69047 13.714 9.77742 13.8591Z" fill="#008000"/>
<path d="M8.69744 12.7067C8.71134 12.6933 8.92871 12.7655 9.18659 12.8657C9.44447 12.966 9.7776 13.0608 9.92092 13.0701C10.1735 13.0814 11.068 13.5074 11.0593 13.6099C11.0577 13.7056 9.70525 13.2921 9.23118 13.0512C8.66221 12.7676 8.64879 12.7537 8.69744 12.7067Z" fill="#008000"/>
<path d="M10.2976 13.4138C10.1174 13.4835 9.93614 13.6096 9.87982 13.6999C9.81327 13.8065 9.86959 13.8075 10.102 13.6906C10.2843 13.5993 10.5475 13.5245 10.6919 13.5122C10.9622 13.4988 10.9622 13.4988 10.7902 13.3912C10.6919 13.3296 10.483 13.3358 10.2976 13.4138Z" fill="#008000"/>
<path d="M5.7763 10.1542C6.07578 10.7248 7.29306 12.0403 7.96932 12.5433C8.15288 12.6787 8.48135 12.8141 8.68423 12.8431L9.061 12.9012L8.78083 12.5917C8.32677 12.0984 7.63119 11.1504 7.40899 10.7345C7.16746 10.2799 7.13848 10.396 7.34136 10.9763C7.41865 11.2085 7.7278 11.6728 8.02728 12.0016C8.32677 12.3402 8.51999 12.6207 8.47169 12.6207C8.34609 12.6207 7.53458 11.6631 6.95493 10.8312C6.32697 9.92201 6.29798 9.89299 6.47188 10.396C6.55883 10.6378 6.75205 10.9957 6.91628 11.1891C7.07086 11.3923 7.16746 11.5567 7.11916 11.5567C7.02255 11.5567 6.59747 11.0731 6.06612 10.3766C5.92121 10.1735 5.71833 9.91234 5.63138 9.79627C5.53477 9.67052 5.6024 9.83496 5.7763 10.1542Z" fill="#008000"/>
<path d="M6.34209 13.8975C5.92667 13.9942 5.70447 14.1393 5.70447 14.3134C5.70447 14.3811 5.74311 14.3715 5.79142 14.2941C5.8687 14.1683 6.6609 13.9362 6.73818 14.0136C6.75751 14.0329 6.72852 14.178 6.67056 14.3231C6.61259 14.4682 6.59327 14.6133 6.62225 14.6423C6.65124 14.681 6.69954 14.6036 6.72852 14.4972C6.84445 14.0813 7.20191 13.9555 8.06173 14.0329C8.49647 14.0716 8.97951 14.12 9.13408 14.1296C9.29832 14.1393 9.52052 14.1973 9.63645 14.2651C9.88763 14.4005 10.8634 14.4101 10.7764 14.2747C10.7475 14.2264 10.5639 14.1587 10.361 14.1296C10.1678 14.1006 9.76204 14.0039 9.46256 13.9265C8.86358 13.7717 6.95072 13.7524 6.34209 13.8975Z" fill="#008000"/>
<path d="M9.86998 15.0148C9.14186 14.8847 8.79558 15.0009 8.50106 15.4554L8.24976 15.8457L8.57295 15.5389C9.01202 15.1121 9.3311 15.0709 10.1203 15.3005C10.4895 15.4098 10.8026 15.4813 10.8134 15.4652C10.8728 15.377 10.2501 15.0732 9.86998 15.0148Z" fill="#008000"/>
<path d="M10.0684 15.217C9.39216 15.5168 9.16996 15.807 9.17962 16.3487L9.18928 16.8129L9.28589 16.3777C9.41148 15.778 9.653 15.5652 10.4355 15.3137C10.8027 15.1976 11.1021 15.0815 11.1021 15.0622C11.1021 14.9558 10.4162 15.0525 10.0684 15.217Z" fill="#008000"/>
<path d="M9.94018 16.0481C9.82425 16.2028 9.7373 16.406 9.7373 16.5124C9.7373 16.6381 9.78561 16.6091 9.92086 16.3866C10.0271 16.2125 10.2107 16.0094 10.3266 15.9223C10.5488 15.7676 10.5488 15.7676 10.3459 15.7676C10.23 15.7676 10.0561 15.8836 9.94018 16.0481Z" fill="#008000"/>
<path d="M20.3852 17.6246C20.6989 17.7607 22.3265 18.1716 23.4781 18.5093C24.6297 18.8469 25.9761 19.2357 26.2742 19.2775C26.7002 18.3479 25.9249 20.0867 26.3673 19.0329C25.7922 18.8863 23.5252 18.3523 22.6154 18.0905C21.8311 17.8706 20.7185 17.5277 20.4335 17.4648C20.1486 17.402 20.1446 17.5199 20.3852 17.6246Z" fill="#008000"/>
<path d="M20.5842 17.3834C20.9025 17.5084 22.5434 17.8623 23.7061 18.1595C24.8687 18.4567 26.2279 18.7981 26.5272 18.8296C26.9206 17.8856 26.2064 19.6505 26.6118 18.5818C26.0319 18.4554 23.7477 18.0009 22.8293 17.7711C22.0378 17.5788 20.9139 17.2749 20.627 17.2221C20.34 17.1692 20.3402 17.2871 20.5842 17.3834Z" fill="#008000"/>
<path d="M20.1335 17.7992C20.4397 17.9515 22.0436 18.4472 23.176 18.8447C24.3083 19.2423 25.6326 19.701 25.9281 19.7585C26.4021 18.8524 25.537 20.5482 26.0339 19.519C25.4672 19.3425 23.2312 18.6904 22.3363 18.3813C21.5646 18.1207 20.4714 17.7199 20.1902 17.6422C19.9089 17.5645 19.8988 17.682 20.1335 17.7992Z" fill="#008000"/>
<path d="M19.9382 17.9974C20.2359 18.1656 21.8117 18.7447 22.9218 19.201C24.0318 19.6573 25.3303 20.1848 25.6223 20.2577C26.1431 19.3777 25.1905 21.0259 25.7405 20.0241C25.1839 19.8181 22.985 19.0497 22.1075 18.6942C21.3505 18.3935 20.2798 17.9359 20.0029 17.8436C19.7261 17.7513 19.7099 17.8681 19.9382 17.9974Z" fill="#008000"/>
<path d="M19.7542 18.2468C20.046 18.4253 21.6006 19.0591 22.6941 19.5539C23.7875 20.0487 25.0668 20.6213 25.3562 20.7043C25.9072 19.8431 24.8978 21.4569 25.4824 20.475C24.9333 20.2497 22.7625 19.405 21.898 19.019C21.1519 18.692 20.0978 18.1973 19.8243 18.0954C19.5508 17.9935 19.5306 18.1096 19.7542 18.2468Z" fill="#008000"/>
<path d="M16.4953 20.7546C16.9439 21.0675 17.1905 21.5023 17.1661 21.9511L17.1495 22.3217L17.2968 21.9571C17.4579 21.5755 17.4357 20.9976 17.2454 20.5697L17.1344 20.3202L17.4869 20.4738C17.9906 20.6865 18.3223 21.0604 18.3916 21.5046L18.4523 21.8706L18.5206 21.4831C18.5989 21.0763 18.4573 20.5159 18.1822 20.1369L18.0218 19.9158L18.3986 19.9927C18.9354 20.0959 19.3374 20.3927 19.4975 20.8128L19.6329 21.1581L19.6192 20.7649C19.6113 20.3507 19.3564 19.832 19.0087 19.5185L18.8059 19.3356L19.1904 19.3325C19.7369 19.3217 20.1918 19.5283 20.4356 19.9059L20.6396 20.2154L20.5447 19.8337C20.451 19.4304 20.0939 18.976 19.6887 18.7418L19.4523 18.6051L19.8278 18.5221C20.3601 18.3976 20.848 18.505 21.1648 18.8236L21.4287 19.0839L21.2565 18.7303C21.0811 18.3552 20.6375 17.985 20.1925 17.8402L19.9329 17.7559L20.2829 17.5965C20.7777 17.364 21.2772 17.3675 21.6533 17.6131L21.9656 17.8129L21.7237 17.5028C21.4742 17.1723 20.9634 16.9027 20.4981 16.8538L20.2267 16.8253L20.536 16.5964C20.9717 16.2661 21.461 16.1653 21.8798 16.3274L22.2268 16.4577L21.9258 16.2048C21.6131 15.9336 21.0575 15.7761 20.5922 15.8251L20.3208 15.8536L20.5757 15.5654C20.9334 15.1515 21.3911 14.9513 21.8345 15.0226L22.2008 15.0778L21.8539 14.8931C21.4917 14.6929 20.9156 14.6545 20.4706 14.7993L20.211 14.8836L20.4005 14.5488C20.6643 14.0695 21.0705 13.7783 21.5189 13.7557L21.8888 13.7335L21.5111 13.6251C21.1152 13.5046 20.5437 13.5871 20.1385 13.8212L19.9021 13.9578L20.018 13.5908C20.1766 13.067 20.5134 12.6978 20.9474 12.5823L21.3046 12.4836L20.9126 12.4562C20.5003 12.4207 19.9584 12.6202 19.6107 12.9336L19.4079 13.1165L19.445 12.7334C19.4913 12.188 19.7441 11.7567 20.1447 11.5534L20.4735 11.3825L20.0844 11.4372C19.6738 11.4883 19.1852 11.7964 18.9102 12.1753L18.7498 12.3965L18.7065 12.0139C18.6386 11.471 18.7962 10.9963 19.1458 10.7142L19.4319 10.4786L19.0627 10.613C18.6717 10.7485 18.2578 11.1515 18.0675 11.5795L17.9565 11.8292L17.8347 11.464C17.6554 10.947 17.7111 10.4499 17.9945 10.1012L18.2255 9.81119L17.8922 10.0196C17.5379 10.2335 17.2167 10.7138 17.1194 11.172L17.0627 11.4394L16.8677 11.1076C16.585 10.639 16.5363 10.1414 16.741 9.74123L16.9067 9.40947L16.624 9.68261C16.3219 9.96569 16.1074 10.5025 16.1074 10.9709V11.2441L15.8478 10.9602C15.4741 10.5609 15.3231 10.0841 15.4402 9.6501L15.5333 9.29102L15.3135 9.61722C15.0767 9.95685 14.9785 10.5266 15.0757 10.9849L15.1324 11.2521L14.8196 11.0284C14.371 10.7155 14.1243 10.2807 14.1488 9.83175L14.1653 9.46113L14.018 9.82595C13.857 10.2075 13.8792 10.7852 14.0694 11.2131L14.1804 11.4628L13.8279 11.3091C13.3242 11.0965 12.9925 10.7225 12.9232 10.2784L12.8625 9.91244L12.7943 10.2998C12.716 10.7066 12.8575 11.2671 13.1326 11.6461L13.293 11.8671L12.9163 11.7901C12.3795 11.6869 11.9774 11.3903 11.8174 10.9701L11.682 10.6248L11.6957 11.018C11.7035 11.4322 11.9585 11.9509 12.3062 12.2643L12.509 12.4472L12.1245 12.4503C11.578 12.4612 11.1231 12.2546 10.8793 11.8771L10.6752 11.5675L10.7702 11.9491C10.8639 12.3527 11.221 12.807 11.6262 13.0412L11.8625 13.1779L11.4871 13.2609C10.9547 13.3853 10.4669 13.278 10.1501 12.9594L9.88609 12.6991L10.0583 13.0527C10.2338 13.4278 10.6774 13.7978 11.1224 13.9426L11.382 14.0271L11.032 14.1864C10.5371 14.419 10.0376 14.4154 9.66153 14.1698L9.34925 13.9701L9.59111 14.2801C9.84065 14.6106 10.3514 14.8802 10.8167 14.9291L11.0881 14.9577L10.7789 15.1865C10.3431 15.517 9.8538 15.6175 9.43496 15.4555L9.08801 15.3252L9.38897 15.5781C9.70168 15.8494 10.2573 16.0068 10.7226 15.9578L10.994 15.9294L10.7391 16.2174C10.3815 16.6314 9.92368 16.8315 9.48035 16.7603L9.11397 16.705L9.46092 16.8898C9.82316 17.0901 10.3993 17.1284 10.8443 16.9837L11.1039 16.8993L10.9143 17.2342C10.6505 17.7135 10.2443 18.0047 9.79587 18.0272L9.42601 18.0493L9.80373 18.1578C10.1996 18.2783 10.7711 18.1958 11.1763 17.9617L11.4127 17.825L11.2969 18.1921C11.1383 18.7159 10.8015 19.0852 10.3675 19.2006L10.0103 19.2994L10.4023 19.3268C10.8145 19.3622 11.3564 19.1626 11.7041 18.8492L11.9069 18.6663L11.8698 19.0496C11.8235 19.5949 11.5708 20.0262 11.1702 20.2295L10.8414 20.4004L11.2305 20.3458C11.6411 20.2947 12.1297 19.9865 12.4047 19.6075L12.5651 19.3865L12.6084 19.7691C12.6763 20.3121 12.5187 20.7865 12.1691 21.0688L11.8829 21.3044L12.2521 21.1699C12.6431 21.0345 13.0571 20.6313 13.2474 20.2034L13.3584 19.9538L13.4801 20.3188C13.6594 20.836 13.6037 21.3329 13.3203 21.6817L13.0893 21.9718L13.4226 21.7633C13.7769 21.5495 14.0981 21.069 14.1954 20.6108L14.2521 20.3436L14.4471 20.6754C14.7298 21.1439 14.7785 21.6416 14.5738 22.0417L14.4081 22.3735L14.6908 22.1002C14.993 21.8173 15.2074 21.2805 15.2074 20.812V20.5388L15.467 20.8228C15.8407 21.2221 15.9917 21.6989 15.8747 22.1328L15.7815 22.4919L16.0012 22.1657C16.238 21.826 16.3363 21.2564 16.2391 20.7981L16.1823 20.5309L16.4953 20.7546Z" fill="#FCDD09"/>
</g>
<defs>
<clipPath id="clip0_299_35767">
<rect width="32" height="24" fill="white"/>
</clipPath>
</defs>
</svg>
