<svg width="32" height="24" viewBox="0 0 32 24" fill="none" xmlns="http://www.w3.org/2000/svg">
<g clip-path="url(#clip0_299_35643)">
<rect width="32" height="24" fill="white"/>
<path fill-rule="evenodd" clip-rule="evenodd" d="M0 0V24H32V0H0Z" fill="#F7FCFF"/>
<mask id="mask0_299_35643" style="mask-type:luminance" maskUnits="userSpaceOnUse" x="0" y="0" width="32" height="24">
<path fill-rule="evenodd" clip-rule="evenodd" d="M0 0V24H32V0H0Z" fill="white"/>
</mask>
<g mask="url(#mask0_299_35643)">
<path fill-rule="evenodd" clip-rule="evenodd" d="M0 0V8H32V0H0Z" fill="#009D00"/>
<path fill-rule="evenodd" clip-rule="evenodd" d="M0 8V16H32V8H0Z" fill="white"/>
<path fill-rule="evenodd" clip-rule="evenodd" d="M0 16V24H32V16H0Z" fill="#F80000"/>
</g>
<path fill-rule="evenodd" clip-rule="evenodd" d="M0 0V24L8 12.152L0 0Z" fill="#0075D5"/>
<mask id="mask1_299_35643" style="mask-type:luminance" maskUnits="userSpaceOnUse" x="0" y="0" width="8" height="24">
<path fill-rule="evenodd" clip-rule="evenodd" d="M0 0V24L8 12.152L0 0Z" fill="white"/>
</mask>
<g mask="url(#mask1_299_35643)">
</g>
<path d="M14.5711 9.31876L14.5789 9.30871L14.5926 9.31036L14.8709 9.34346L14.7285 9.10111L14.7214 9.09009L14.7266 9.07833L14.8446 8.82282L14.5702 8.88477L14.5573 8.8874L14.5475 8.87871L14.3399 8.6876L14.3153 8.96813L14.3139 8.9809L14.3022 8.98686L14.0568 9.12534L14.3153 9.23605L14.328 9.24147L14.3297 9.25406L14.3849 9.53072L14.5711 9.31876Z" fill="#FFD500" stroke="black" stroke-width="0.05"/>
<path d="M15.5711 9.31876L15.5789 9.30871L15.5926 9.31036L15.8709 9.34346L15.7285 9.10111L15.7214 9.09009L15.7266 9.07833L15.8446 8.82282L15.5702 8.88477L15.5573 8.8874L15.5475 8.87871L15.3399 8.6876L15.3153 8.96813L15.3139 8.9809L15.3022 8.98686L15.0568 9.12534L15.3153 9.23605L15.328 9.24147L15.3297 9.25406L15.3849 9.53072L15.5711 9.31876Z" fill="#FFD500" stroke="black" stroke-width="0.05"/>
<path d="M16.5711 9.31876L16.5789 9.30871L16.5926 9.31036L16.8709 9.34346L16.7285 9.10111L16.7214 9.09009L16.7266 9.07833L16.8446 8.82282L16.5702 8.88477L16.5573 8.8874L16.5475 8.87871L16.3399 8.6876L16.3153 8.96813L16.3139 8.9809L16.3022 8.98686L16.0568 9.12534L16.3153 9.23605L16.328 9.24147L16.3297 9.25406L16.3849 9.53072L16.5711 9.31876Z" fill="#FFD500" stroke="black" stroke-width="0.05"/>
<path d="M17.5711 9.31876L17.5789 9.30871L17.5926 9.31036L17.8709 9.34346L17.7285 9.10111L17.7214 9.09009L17.7266 9.07833L17.8446 8.82282L17.5702 8.88477L17.5573 8.8874L17.5475 8.87871L17.3399 8.6876L17.3153 8.96813L17.3139 8.9809L17.3022 8.98686L17.0568 9.12534L17.3153 9.23605L17.328 9.24147L17.3297 9.25406L17.3849 9.53072L17.5711 9.31876Z" fill="#FFD500" stroke="black" stroke-width="0.05"/>
<path d="M18.5711 9.31876L18.5789 9.30871L18.5926 9.31036L18.8709 9.34346L18.7285 9.10111L18.7214 9.09009L18.7266 9.07833L18.8446 8.82282L18.5702 8.88477L18.5573 8.8874L18.5475 8.87871L18.3399 8.6876L18.3153 8.96813L18.3139 8.9809L18.3022 8.98686L18.0568 9.12534L18.3153 9.23605L18.328 9.24147L18.3297 9.25406L18.3849 9.53072L18.5711 9.31876Z" fill="#FFD500" stroke="black" stroke-width="0.05"/>
<path d="M19.5711 9.31876L19.5789 9.30871L19.5926 9.31036L19.8709 9.34346L19.7285 9.10111L19.7214 9.09009L19.7266 9.07833L19.8446 8.82282L19.5702 8.88477L19.5573 8.8874L19.5475 8.87871L19.3399 8.6876L19.3153 8.96813L19.3139 8.9809L19.3022 8.98686L19.0568 9.12534L19.3153 9.23605L19.328 9.24147L19.3297 9.25406L19.3849 9.53072L19.5711 9.31876Z" fill="#FFD500" stroke="black" stroke-width="0.05"/>
<path d="M18.9502 10.0498V13C18.9502 14.077 18.077 14.9502 17 14.9502C15.923 14.9502 15.0498 14.077 15.0498 13V10.0498H18.9502Z" stroke="#373737" stroke-width="0.1"/>
<path fill-rule="evenodd" clip-rule="evenodd" d="M16.7264 11.9606C16.7264 11.9606 16.5247 14.3259 16.3234 14.4692C16.122 14.6126 17.2883 14.6842 17.3997 14.5767C17.5112 14.4692 16.8911 12.5418 17.1044 11.9606C17.3177 11.3794 17.6613 11.3323 17.6613 11.3323C17.6613 11.3323 17.2282 11.2407 17.1044 11.4152C16.9807 11.5896 16.6116 11.3323 16.6116 11.3323L16.7264 11.9606Z" fill="#6F3E1D"/>
<path fill-rule="evenodd" clip-rule="evenodd" d="M16.6823 11.8258H16.5271C16.5271 11.8258 16.422 12.2365 16.181 12.0312C15.94 11.8258 15.6 11.8982 15.6 11.8982C15.6 11.8982 15.6305 11.6524 16.0005 11.5547C16.3705 11.457 16.5271 10.6635 16.5271 10.6635C16.5271 10.6635 17.0507 10.4686 17.3692 10.868C17.6878 11.2675 18.1366 11.0971 18.1366 11.0971C18.1366 11.0971 18.4646 11.2836 18.3006 11.5547C18.1366 11.8258 17.8568 12.0241 17.613 11.8258C17.3692 11.6275 16.6823 11.8258 16.6823 11.8258Z" fill="#009D29"/>
</g>
<defs>
<clipPath id="clip0_299_35643">
<rect width="32" height="24" fill="white"/>
</clipPath>
</defs>
</svg>
