<svg width="32" height="24" viewBox="0 0 32 24" fill="none" xmlns="http://www.w3.org/2000/svg">
<g clip-path="url(#clip0_299_35647)">
<rect width="32" height="24" fill="white"/>
<path fill-rule="evenodd" clip-rule="evenodd" d="M0 0.0996094H32V24.0996H0V0.0996094Z" fill="#2B409A"/>
<g clip-path="url(#clip1_299_35647)">
<rect width="18" height="14" fill="#2E42A5"/>
<path d="M-2.00427 12.9991L1.95668 14.7363L18.0899 1.88805L20.1792 -0.693481L15.9435 -1.27411L9.36317 4.26259L4.06667 7.99302L-2.00427 12.9991Z" fill="#F7FCFF"/>
<path d="M-1.46204 14.2165L0.555885 15.2246L19.4289 -0.933105H16.5955L-1.46204 14.2165Z" fill="#F50100"/>
<path d="M20.0043 12.9991L16.0433 14.7363L-0.0898743 1.88805L-2.17919 -0.693481L2.05648 -1.27411L8.63683 4.26259L13.9333 7.99302L20.0043 12.9991Z" fill="#F7FCFF"/>
<path d="M19.8691 13.8727L17.8512 14.8809L9.81489 7.9629L7.43229 7.18998L-2.3802 -0.684557H0.453194L10.2602 7.00307L12.8651 7.92989L19.8691 13.8727Z" fill="#F50100"/>
<path fill-rule="evenodd" clip-rule="evenodd" d="M9.98451 0H7.98451V6H0V8H7.98451V14H9.98451V8H18V6H9.98451V0Z" fill="#F50100"/>
<path fill-rule="evenodd" clip-rule="evenodd" d="M6.48451 0H11.4845V4.5H18V9.5H11.4845L11.5 14H6.5L6.48451 9.5H0V4.5H6.48451V0ZM7.98451 6H0V8H7.98451V14H9.98451V8H18V6H9.98451V0H7.98451V6Z" fill="#F7FCFF"/>
</g>
<path d="M24.3181 18.5511C24.2566 18.5511 24.0336 18.431 24.0336 18.431C24.0336 18.431 23.8721 18.6866 23.7875 18.7014C23.7029 18.7165 23.2646 18.5438 23.2646 18.5438C23.2646 18.5438 22.9571 18.7841 22.8879 18.769C22.8187 18.7542 22.1113 18.6039 22.1113 18.6039L21.7268 18.3634C21.7268 18.3634 21.5115 18.7089 21.5038 18.7014C21.4961 18.6938 20.8579 18.5737 20.8579 18.5737C20.8579 18.5737 21.0502 18.3109 21.0502 18.3033C21.0502 18.2958 20.9579 18.2656 20.9579 18.2656L20.8195 18.3785L20.2505 18.431L20.3889 18.0401L20.6119 17.7097L23.3415 15.1172L24.6871 17.5443L24.4873 18.2731C24.4873 18.2731 24.3795 18.5511 24.3181 18.5511Z" fill="#6A4C2D"/>
<path d="M21.7105 18.0605C21.8055 18.1755 23.058 19.4558 23.261 20.0615C23.4641 20.6672 21.614 19.8935 21.614 19.8935C21.614 19.8935 23.9436 18.3804 25.1073 18.3804C26.271 18.3804 28.5582 19.8935 28.5582 19.8935C28.5582 19.8935 27.0234 20.9744 27.0392 20.2929C27.0549 19.6113 27.7596 18.2688 28.6006 18.0605" stroke="#FFBB00" stroke-width="0.5" stroke-linecap="round" stroke-linejoin="round"/>
<path d="M29.5418 18.1605L29.1592 18.018L28.8204 17.5693L27.4175 17.4662L26.1385 17.1172L25.5992 17.4769L25.8896 17.8561L26.5992 18.1172L29.5418 18.1605Z" fill="#F7FCFF"/>
<path d="M23.9389 9.86591C23.9519 9.89868 24.2379 9.84058 24.2988 10.0119C24.6067 9.55728 24.968 9.99088 24.968 9.99088L25.2721 9.63086L25.6154 9.95598L25.9304 9.93145L26.2596 10.704L23.662 10.6553C23.662 10.6553 23.9259 9.83315 23.9389 9.86591Z" fill="#656263"/>
<path d="M26.6315 13.154C26.6106 12.9094 26.3938 12.8808 26.2728 12.889C26.1515 12.8971 26.043 12.999 26.043 12.999L25.6424 12.7503C25.6424 12.7503 25.8429 11.5146 26.0556 11.4372C26.2576 11.2948 26.2934 11.2332 26.2934 11.2008C26.2934 11.1681 26.2184 11.0357 26.2184 11.0357L24.912 10.8848L23.6768 11.0275C23.6768 11.0275 23.5809 11.2209 23.5935 11.2781C23.606 11.335 23.6102 11.3964 23.8312 11.5636C24.0761 11.7476 24.2444 12.8034 24.2444 12.8034C24.2444 12.8034 23.8982 12.9704 23.8773 12.95C23.8563 12.9298 23.7521 12.9094 23.6977 12.9176C23.6437 12.9257 23.4641 13.0154 23.4641 13.2477C23.4641 13.4804 23.6437 13.615 23.6437 13.615C23.6437 13.615 24.8245 14.4804 24.9999 14.7983C25.1711 14.415 26.2934 13.5496 26.4269 13.4842C26.4813 13.4518 26.6524 13.3986 26.6315 13.154Z" fill="#656263"/>
<path d="M27.8101 12.0019C27.9082 11.9381 28.5617 11.906 28.7187 12.0019C28.8754 12.0978 28.9343 12.5704 28.9343 12.5704C28.9343 12.5704 29.0324 12.7364 29.0389 12.8578C29.0453 12.9791 29.0585 13.0622 29.0585 13.0622C29.0585 13.0622 29.5814 13.7265 29.5878 14.3268C29.6467 14.7356 29.6335 15.8276 29.4704 16.2426C29.4636 16.7602 29.2416 17.0985 29.2416 17.0985C29.2416 17.0985 29.2937 17.1878 29.2873 17.2837C29.2805 17.3796 29.2284 17.4689 29.2284 17.4689L28.7384 17.6796L28.1959 17.5903L27.5813 15.7955L27.7251 12.7619L27.7644 12.6087L27.6991 12.2C27.6991 12.2 27.7123 12.0657 27.8101 12.0019Z" fill="black"/>
<path d="M24.2621 13.593C24.2621 13.593 24.9233 13.593 24.9948 13.8027C25.1199 13.5232 25.6917 13.5408 25.6917 13.5408C26.0373 13.5291 26.3828 13.5175 26.7281 13.5059C26.7342 14.3209 26.74 15.1359 26.7461 15.9509C26.5437 16.8995 25.8407 17.5692 25.0662 17.8544C24.1427 17.5633 23.5591 16.8008 23.3686 15.9333C23.3325 15.1591 23.2968 14.3847 23.2611 13.6106C23.5948 13.6046 23.9284 13.5989 24.2621 13.593Z" fill="#F7FCFF"/>
<path d="M23.6176 13.6022L25.0755 17.3987L26.3924 13.5195C25.9838 13.5453 25.1073 13.4566 24.9986 13.8208C24.83 13.495 23.9078 13.6264 23.6176 13.6022V13.6022Z" fill="#006B00"/>
<path fill-rule="evenodd" clip-rule="evenodd" d="M25.3075 14.1975C25.3075 14.1975 25.4401 14.5434 25.3075 14.7146C25.1749 14.8859 25.3185 15.0261 25.3985 15.0261C25.4784 15.0261 25.753 15.2981 25.5302 15.2981C25.3075 15.2981 25.1817 15.2134 25.1817 15.4524C25.1817 15.6914 25.4894 16.7676 25.3985 17.0256C25.3075 17.2837 25.3301 17.4812 25.4606 17.4156C25.5911 17.35 25.6727 17.1814 25.6015 16.8567C25.5302 16.5321 25.4606 16.6087 25.4606 16.3281C25.4606 16.0475 25.5302 15.7352 25.5302 15.7352C25.5302 15.7352 25.6473 15.823 25.564 16.1433C25.4808 16.4636 25.6671 16.9055 25.6671 17.0256C25.6671 17.1458 25.6727 17.4765 25.6015 17.5093C25.5302 17.5421 25.4649 17.7418 25.3985 17.5896C25.332 17.4374 25.2904 17.1864 25.2054 17.3591C25.1203 17.5318 25.1367 17.9289 25.0482 17.948C24.9597 17.9672 24.8275 18.1554 24.8275 18.0799C24.8275 18.0043 24.7028 17.8678 24.7408 17.7407C24.7787 17.6135 24.8121 17.5986 24.8428 17.7205C24.8736 17.8424 25.0029 17.8412 25.0029 17.7407C25.0029 17.6401 24.9576 17.6892 25.0029 17.4603C25.0482 17.2314 25.0985 16.9284 25.0029 16.9466C24.9072 16.9648 24.7604 17.1139 24.7408 16.8389C24.7212 16.5639 24.6426 16.4352 24.7059 16.3816C24.7692 16.3281 24.8535 16.1368 24.8805 16.2872C24.9076 16.4377 24.7886 16.5814 24.8081 16.6356C24.8275 16.6898 24.8383 16.8126 24.9206 16.7097C25.0029 16.6069 25.0513 16.4373 25.1129 16.5945C25.1745 16.7517 25.1757 16.6277 25.0482 16.3281C24.9206 16.0286 24.8122 15.862 24.8275 15.599C24.8428 15.336 24.8221 15.2375 24.8428 15.153C24.8635 15.0684 24.6143 14.6568 24.6775 14.5382C24.7408 14.4197 24.7651 14.037 24.8428 14.1059C24.9206 14.1748 24.9606 14.2673 24.9206 14.3703C24.8805 14.4733 24.8405 14.5757 24.8805 14.6451C24.9206 14.7146 25.058 14.9152 25.0854 14.8648C25.1129 14.8143 25.2054 14.8631 25.2054 14.5774C25.2054 14.2917 25.1023 14.1912 25.1672 14.1234C25.2322 14.0556 25.3075 14.1975 25.3075 14.1975Z" fill="#FFD100"/>
<path d="M26.4008 13.5203L26.5974 13.5156L26.2463 13.9502L26.6675 14.4306L25.839 15.4506L26.6209 16.37C26.535 16.576 26.4352 16.7634 26.3023 16.9329L25.8531 16.4477L26.6675 15.4553L25.9983 14.7142L26.4008 13.5203Z" fill="#1E5AA6"/>
<path d="M23.3814 13.6121L23.7746 14.0281L23.3582 14.5359L24.2241 15.4556L23.5078 16.3933C23.5938 16.5992 23.717 16.8278 23.8496 16.997L24.2756 16.4709L23.4004 15.5195L24.0416 14.7236L23.5921 13.6074L23.3814 13.6121Z" fill="#1E5AA6"/>
<path d="M24.5658 16.0775L24.257 16.4799L25.3616 17.7289C25.5566 17.6327 25.7097 17.5229 25.8767 17.3905L25.3008 16.7409L25.535 16.0684L25.8719 16.4479L24.8188 17.7609C24.6424 17.6877 24.4474 17.5732 24.2711 17.4314L24.8281 16.7409L24.5658 16.0775Z" fill="#1E5AA6"/>
<path d="M28.3855 12.8513C28.3855 12.9152 28.455 16.6834 28.5313 16.6474C28.7208 16.5578 28.7645 16.7534 28.7645 16.7534C28.7645 16.7534 28.8298 17.3732 28.6664 17.4562C28.3723 17.6093 28.2436 17.6431 28.2436 17.6431L27.9607 17.437C27.9607 17.437 27.6731 17.0345 27.6078 16.8556C27.5424 16.677 27.4639 15.8787 27.49 15.706C27.5161 15.5337 27.5357 14.5244 27.5228 14.4735C27.5096 14.4222 27.4575 13.5792 27.49 13.4516C27.5228 13.3239 27.7252 12.7617 27.7188 12.7617C27.7188 12.7617 28.3855 12.7875 28.3855 12.8513Z" fill="url(#paint0_linear_299_35647)"/>
<path d="M27.7319 12.2046C27.869 12.2046 27.9735 12.3197 28.0063 12.4219C28.0128 12.4665 27.9932 12.4986 27.9996 12.5816C28.0063 12.6646 27.0063 12.6005 26.9999 12.5942C26.9999 12.5942 27.4639 12.1537 27.7319 12.2046Z" fill="#FF7000"/>
<path d="M28.8298 17.6657C28.8298 17.6657 29.1436 17.5952 29.2285 17.4868C29.2809 17.4484 29.5554 17.8892 28.8298 17.6657Z" fill="white" stroke="black" stroke-width="0.5" stroke-linejoin="round"/>
<path d="M28.309 12.4602C28.309 12.4878 28.2866 12.5102 28.259 12.5102C28.2314 12.5102 28.209 12.4878 28.209 12.4602C28.209 12.4325 28.2314 12.4102 28.259 12.4102C28.2866 12.4102 28.309 12.4325 28.309 12.4602Z" fill="black"/>
<path d="M25.8207 11.9082C25.8207 11.9082 26.3413 12.4588 26.6782 12.4528C26.7393 12.6144 26.525 12.7647 26.4395 12.8364C26.268 12.7826 26.1129 12.8461 25.7148 12.3676C25.7396 12.0623 25.8268 11.9202 25.8207 11.9082Z" fill="#F7FCFF"/>
<path d="M27.8906 9.13672C27.9395 9.48982 27.8876 9.57181 27.8646 9.72009C27.8416 9.86836 28.769 9.92311 29.0078 9.62975C28.9833 9.76149 28.705 10.2976 27.4433 10.2916C27.9211 10.7347 27.2905 11.0878 27.0209 10.9799C27.517 10.6089 26.8802 10.3875 26.525 10.6268C26.5923 10.4234 27.0884 9.40021 27.8906 9.13672Z" fill="#F7FCFF"/>
<path fill-rule="evenodd" clip-rule="evenodd" d="M26.5436 10.6161C26.5543 10.6093 26.8481 10.4281 27.1188 10.6102C26.91 10.7809 26.957 11.2265 27.0514 11.6151C27.1024 11.4667 27.3253 10.9136 27.8288 10.9032C27.8455 11.6616 27.2921 12.0272 27.1803 12.0936C27.096 12.9593 26.4502 12.8391 26.4333 12.8358C26.4149 12.8418 26.7386 12.6211 26.6959 12.4774C26.5917 11.8971 26.1759 12.0042 26.1452 12.118C26.0872 12.064 25.7599 11.3531 26.5436 11.5565C26.2128 10.9581 26.5253 10.6579 26.5436 10.6161Z" fill="#0000FF"/>
<path d="M24.0877 12.0645C24.0877 12.0645 23.5796 12.4952 23.2916 12.3575C23.0773 12.4833 22.8263 12.2619 22.8263 12.2619C22.8263 12.2619 23.1201 13.3209 24.1736 12.555C24.1552 12.3217 24.0999 12.0824 24.0877 12.0645Z" fill="#F7FCFF"/>
<path d="M23.2854 12.3383C23.3282 12.117 23.5059 12.0091 23.6468 12.2185C23.8366 12.2547 24.0265 11.4947 23.3527 11.6202C23.5425 10.6269 22.9732 10.2559 22.9732 10.2559C22.9732 10.2559 22.7711 11.357 22.8629 11.5604C22.9548 11.7639 22.7283 11.1834 21.9995 11.0218C21.9873 11.8538 22.814 12.2427 22.814 12.2427C22.814 12.2427 23.0467 12.4522 23.2854 12.3383Z" fill="#0000FF"/>
<path d="M22.5965 11.1387C22.3822 11.2044 21.861 10.8902 22.1917 10.483C21.1078 10.4591 20.5177 9.5434 20.879 9.718C21.2402 9.89261 21.4983 9.52054 21.7678 9.718C21.4371 9.41898 21.8832 9.17969 21.8832 9.17969C21.8832 9.17969 22.8079 9.44915 22.9732 10.251C22.9181 10.4066 22.8936 10.6817 22.8813 10.6698C22.8813 10.6638 22.3087 10.6598 22.5965 11.1387Z" fill="#F7FCFF"/>
<path d="M24.3271 7.43086C24.3319 7.40341 25.0246 7.16547 25.0713 6.77213C25.1179 6.37879 25.062 6.64403 25.062 6.64403C25.062 6.64403 25.2541 6.46565 25.1839 6.36956C25.1134 6.27351 25.1369 6.4931 25.0246 6.48851C24.9123 6.48392 24.9732 6.25064 24.9732 6.25064C24.9732 6.25064 24.9638 6.22319 24.931 6.20947C24.884 6.21405 24.7766 6.11341 24.7766 6.11341C24.7766 6.11341 24.7064 6.02192 24.6453 6.31011C24.6781 6.61661 24.8795 6.55712 24.8795 6.75842C24.8795 6.95969 24.7016 7.11521 24.6501 7.1198C24.5986 7.12436 24.6173 6.95054 24.6173 6.95054C24.6173 6.95054 24.5893 6.86819 24.5706 6.86819C24.552 6.86819 24.6736 6.84989 24.6549 6.62117C24.6128 6.34671 24.58 6.68522 24.505 6.67148C24.43 6.65777 24.4863 6.41991 24.5143 6.39246C24.5423 6.36501 24.4815 6.25065 24.3177 6.54342C24.3036 6.68522 24.2849 6.50682 24.2521 6.51597C24.1961 6.63032 24.2054 6.71267 24.2849 6.81788C24.402 6.92309 24.477 7.0283 24.4722 7.0832C24.4677 7.1381 24.4065 7.26161 24.3226 7.26161C24.2382 7.26161 24.3271 7.11065 24.3226 7.06031C24.3177 7.01 24.1774 6.82703 24.1774 6.82703C24.1774 6.82703 24.079 6.67148 24.0883 6.66692C24.0976 6.66233 23.8637 6.89105 24.004 7.01C23.8965 6.99629 23.8872 7.03745 23.8872 7.03745C23.8872 7.09235 24.0323 7.11521 24.051 7.21127C24.0696 7.30736 23.901 7.36222 23.901 7.36222C23.901 7.36222 23.9715 7.45828 24.1678 7.27076C24.1726 7.38967 24.0931 7.47202 24.0931 7.47202C24.1585 7.50098 24.2099 7.49793 24.2193 7.57267C24.2193 7.57267 24.3226 7.45828 24.3271 7.43086Z" fill="#CDAD56"/>
<path d="M23.577 7.57338C23.577 7.57338 23.4895 7.44644 23.4857 7.42144C23.4815 7.39648 23.0551 7.45301 22.8535 6.94483C22.7222 6.70341 22.8535 6.84494 22.8535 6.84494L22.8614 6.72838C22.8614 6.72838 22.7218 6.56148 22.7814 6.47407C22.841 6.38665 22.8165 6.58644 22.8932 6.58685C22.9885 6.5827 22.9369 6.3704 22.9369 6.3704C22.9369 6.3704 22.9448 6.34543 22.9727 6.33295C23.0123 6.3371 23.0288 6.46234 23.0645 6.47067C23.1002 6.479 23.1742 6.3233 23.1974 6.29127C23.2302 6.28669 23.2289 6.16229 23.2807 6.42451C23.253 6.70341 23.0165 6.6493 23.0165 6.83245C23.0165 7.01558 23.1674 7.1571 23.2112 7.16128C23.255 7.16543 23.2392 7.00728 23.2392 7.00728C23.2392 7.00728 23.263 6.93235 23.2788 6.93235C23.2949 6.93235 23.1398 6.96143 23.1558 6.75331C23.1916 6.55846 23.2707 6.76586 23.3344 6.75334C23.3981 6.74086 23.327 6.5473 23.3454 6.51774C23.3495 6.48818 23.4432 6.36125 23.4795 6.64137C23.4914 6.77042 23.5635 6.53032 23.5912 6.53865C23.6391 6.64269 23.5703 6.78167 23.5027 6.87742C23.4033 6.97313 23.3582 7.07802 23.3624 7.12799C23.3663 7.17792 23.3898 7.23999 23.4615 7.23999C23.533 7.23999 23.4857 7.15295 23.4895 7.10717C23.4934 7.06139 23.6128 6.91317 23.6128 6.91317C23.6362 6.8766 23.6166 6.80824 23.6414 6.77664C23.6803 6.77705 23.6964 6.72423 23.736 6.8699C23.7759 7.01558 23.8235 6.77416 23.8235 6.77416C23.8235 6.77416 23.8792 6.95316 23.7598 7.06139C23.8512 7.04891 23.8592 7.08636 23.8592 7.08636C23.8592 7.13632 23.8158 7.1571 23.7997 7.24451C23.7836 7.33193 23.8473 7.38189 23.8473 7.38189C23.8473 7.38189 23.7878 7.4693 23.6208 7.29863C23.6166 7.40685 23.6845 7.48178 23.6845 7.48178C23.6285 7.50816 23.5851 7.50537 23.577 7.57338Z" fill="#CDAD56"/>
<path d="M24.6755 7.47406C24.5732 7.77299 24.2041 7.65958 24.2041 7.65958C24.2041 7.65958 24.2164 7.80918 24.1797 7.88097C24.2099 7.90324 24.4281 8.07108 24.6572 8.11437C24.9867 8.17663 25.6614 8.0063 25.8879 8.25797C26.1144 8.50963 26.1025 8.71276 26.1025 8.71276C26.1025 8.71276 25.8078 8.74643 25.8897 8.85022C25.9429 8.91762 26.0895 8.96771 26.1025 9.03737C26.1439 9.2591 25.9642 9.65805 26.0288 9.80792C25.9268 9.81704 25.9188 9.92143 25.9188 9.92143C25.913 10.04 25.6186 9.96954 25.6186 9.96954C25.6186 9.96954 25.8023 9.50858 25.8145 9.40105C25.8268 9.2932 25.6858 9.10171 25.5758 9.10171C25.4654 9.10171 25.386 9.44287 25.386 9.44287C25.386 9.44287 25.3309 9.70007 25.3493 9.72397C25.3676 9.74787 25.2756 9.64033 25.2756 9.64033C25.2756 9.64033 25.2467 9.7448 25.1993 9.80792C25.146 9.87892 25.0735 9.90948 25.0735 9.90948C25.0735 9.90948 25.0185 9.75384 25.0369 9.6941C25.0552 9.63436 25.3371 9.40105 25.3126 9.23346C25.3017 9.15949 25.292 9.0304 25.1993 8.98756C25.082 8.93333 24.8669 8.97288 24.737 8.94613C24.6655 9.06775 24.6327 9.73592 24.6816 9.77805C24.7309 9.81987 24.5594 9.90948 24.5594 9.90948L24.3573 9.91546C24.3541 9.8249 24.4763 9.57744 24.4763 9.36803C24.4763 9.15862 24.4918 8.93418 24.4918 8.93418C24.4918 8.93418 24.356 8.96837 24.2836 9.10171C24.2229 9.21352 24.223 9.42484 24.2286 9.45482C24.2408 9.52053 24.3019 9.70605 24.2836 9.76013C24.2653 9.8139 23.947 9.88559 23.947 9.88559L23.9345 9.71202C23.9345 9.71202 24.0693 9.62838 24.0693 9.41897C24.0693 9.20956 24.0815 8.91022 24.0754 8.8923C24.0718 8.88153 23.9651 8.42327 23.8249 8.11437C23.7313 7.90836 23.5869 7.81396 23.5796 7.7972C23.5613 7.75532 23.5613 7.70743 23.5613 7.70743C23.5613 7.70743 23.3589 7.85106 23.1201 7.54588C23.3389 7.36341 23.5735 7.49799 23.5735 7.49799C23.5735 7.49799 23.6346 7.33043 23.9162 7.34241C24.198 7.35439 24.253 7.50997 24.2408 7.49202C24.2408 7.49202 24.449 7.31248 24.6755 7.47406Z" fill="#923F00"/>
<path d="M25.7814 10.5879C25.7863 10.5879 26.3014 10.603 26.3066 10.8721C26.3117 11.141 26.1486 11.0715 26.1434 11.0715C26.1383 11.0715 25.766 11.0265 25.766 11.0265L25.7814 10.5879Z" fill="#0000FF"/>
<path d="M25.2814 10.5117C25.2814 10.5117 25.9239 10.507 25.8882 10.7809C25.8525 11.0551 25.6894 11.0003 25.6894 11.0003L25.3782 10.9752L25.2814 10.5117Z" fill="#F7FCFF"/>
<path d="M24.9195 10.4824L25.2917 10.5123C25.2917 10.5123 25.516 10.5422 25.506 10.7516C25.4957 10.961 25.2763 10.966 25.2763 10.966L24.9143 10.9459L24.9195 10.4824Z" fill="#0000FF"/>
<path d="M24.0474 10.5879C24.0422 10.5879 23.5271 10.603 23.522 10.8721C23.5171 11.141 23.6803 11.0715 23.6854 11.0715C23.6906 11.0715 24.0628 11.0265 24.0628 11.0265L24.0474 10.5879Z" fill="#F7FCFF"/>
<path d="M24.5471 10.5117C24.5471 10.5117 23.9046 10.507 23.9403 10.7809C23.976 11.0551 24.1391 11.0003 24.1391 11.0003L24.4503 10.9752L24.5471 10.5117Z" fill="#0000FF"/>
<path d="M24.9094 10.4824L24.5371 10.5123C24.5371 10.5123 24.3126 10.5422 24.3229 10.7516C24.3331 10.961 24.5523 10.966 24.5523 10.966L24.9143 10.9459L24.9094 10.4824Z" fill="#F7FCFF"/>
<path d="M26.2869 13.1643C26.3854 13.1963 26.3104 13.4947 26.2634 13.5224L25.9063 13.5086C25.9063 13.5086 26.174 13.1231 26.2869 13.1643Z" fill="#5E0043"/>
<path d="M24.0712 13.578C23.9869 13.4632 23.8647 13.1466 23.7521 13.2337C23.6533 13.2658 23.7286 13.5642 23.7755 13.5918L24.0712 13.578Z" fill="#5E0043"/>
<path d="M23.6278 11.3634L24.9162 12.1872L26.0764 11.4247C26.0764 11.4247 26.3184 11.2942 26.2975 11.2005C26.2769 11.1065 26.1932 11.1433 26.1514 11.1596C26.1099 11.176 24.9371 11.9875 24.9371 11.9875L23.6893 11.2165C23.6893 11.2165 23.5976 11.1882 23.5808 11.2452C23.5641 11.3024 23.6153 11.3348 23.6278 11.3634Z" fill="#B4B6B9"/>
<path d="M27.9469 17.4273C27.9469 17.4273 27.3838 17.5973 27.5407 17.6021C27.6568 17.6057 28.2162 17.6021 28.2162 17.6021L27.9469 17.4273Z" fill="#FF7000"/>
<path d="M28.175 17.6131L27.675 17.6273C27.675 17.6273 27.5492 17.7389 27.5411 17.7656C27.5334 17.7926 27.6238 17.8002 27.6238 17.8002C27.6238 17.8002 28.1396 17.9313 28.5299 17.8464C28.7268 17.7791 28.7612 17.6983 28.6232 17.6493C28.4855 17.6002 28.1788 17.615 28.175 17.6131Z" fill="#FF7000"/>
<path d="M22.3907 12.9885C22.3907 12.9885 22.3256 13.1884 22.3907 13.2884C22.4558 13.3884 22.8651 14.1974 22.8651 14.1974C22.8651 14.1974 23.1442 13.861 23.2466 13.8519C23.3489 13.8431 23.3022 14.7247 23.3022 14.7247C23.3022 14.7247 23.1349 14.8791 23.0326 14.87C22.9302 14.8609 23.2836 15.2156 23.2742 15.5155C23.2649 15.8155 22.8093 17.3062 22.6419 17.3333C22.4744 17.3606 22.3299 17.0526 22.3299 16.7863C22.3299 16.5201 22.5023 16.0972 22.493 15.979C22.4837 15.8608 21.661 17.246 21.6112 17.4622C21.6018 17.5032 21.6559 17.6515 21.6559 17.6515C21.6559 17.6515 21.3335 17.6779 21.4047 18.0879C20.456 17.7606 19.9909 17.1971 20.0002 16.6245C20.0038 16.405 19.7945 15.8887 20.0002 15.3186C20.3314 14.4007 21.1386 13.3531 21.1443 13.2523C21.1536 13.0884 21.2187 13.0158 21.228 12.9249C21.2373 12.8341 21.2001 12.3703 21.2931 12.2885C21.3861 12.2068 21.8698 12.0068 21.9907 12.0159C22.1117 12.025 22.214 12.1068 22.214 12.1068C22.214 12.1068 22.6698 12.1068 22.6977 12.2794C22.7256 12.4524 22.6047 12.5159 22.6047 12.5159C22.6047 12.5159 22.6698 12.7614 22.3907 12.9885Z" fill="#8A9396"/>
<path d="M22.662 18.1448C22.8157 18.2511 23.1707 18.3139 23.1707 18.3139C23.1707 18.3139 22.2987 18.5488 21.4128 18.0929C21.3318 17.7379 21.6028 17.6587 21.6699 17.6558C21.8264 17.615 22.5083 18.0382 22.662 18.1448Z" fill="#2B2B2B"/>
<path d="M23.7292 18.1076C24.6833 18.6119 24.7854 18.2724 25.4427 17.7931C25.4883 17.7598 25.7053 18.5629 26.6264 18.1076C27.9299 17.4633 25.5089 16.3895 25.1667 16.4127C24.8246 16.4366 22.7752 17.6033 23.7292 18.1076Z" fill="#00713D"/>
</g>
<defs>
<linearGradient id="paint0_linear_299_35647" x1="28.2754" y1="15.6073" x2="29.0179" y2="15.5992" gradientUnits="userSpaceOnUse">
<stop stop-color="#D5DFFF"/>
<stop offset="1" stop-color="white"/>
</linearGradient>
<clipPath id="clip0_299_35647">
<rect width="32" height="24" fill="white"/>
</clipPath>
<clipPath id="clip1_299_35647">
<rect width="18" height="14" fill="white"/>
</clipPath>
</defs>
</svg>
