<svg width="32" height="24" viewBox="0 0 32 24" fill="none" xmlns="http://www.w3.org/2000/svg">
<g clip-path="url(#clip0_299_35649)">
<rect width="32" height="24" fill="white"/>
<path fill-rule="evenodd" clip-rule="evenodd" d="M22 0H32V24H22V0Z" fill="#58A5FF"/>
<path fill-rule="evenodd" clip-rule="evenodd" d="M0 0H12V24H0V0Z" fill="#58A5FF"/>
<path fill-rule="evenodd" clip-rule="evenodd" d="M10 0H22V24H10V0Z" fill="white"/>
<path fill-rule="evenodd" clip-rule="evenodd" d="M11.7684 15.7186L12.2902 16.4016L14.6595 13.1897V12.6211L11.7684 15.7186Z" fill="#6C301F"/>
<path d="M13.4043 12.1351L13.5775 11.8965C15.8213 13.5836 17.411 14.8787 18.2998 15.9579L17.7448 16.4151C16.9 15.3893 15.6064 13.7908 13.4043 12.1351Z" fill="#979797"/>
<path d="M17.0211 10.7252L16.7629 10.475L18.1777 9.01579L18.4876 9.31691L19.9564 7.94922L20.2014 8.21234L18.4824 9.81306L18.1853 9.52443L17.0211 10.7252Z" fill="#979797"/>
<path d="M12.3452 7.71094C12.3458 7.71379 12.433 8.11715 12.5083 8.44434C12.5814 8.35014 12.6574 8.25125 12.7388 8.14941L12.9634 8.3291C12.7676 8.57417 12.5979 8.79723 12.4517 8.99609C12.698 8.93011 12.9345 8.86884 12.9438 8.86621C12.7024 9.21806 12.4184 9.38495 12.1138 9.48242C12.0205 9.62694 11.9466 9.75038 11.896 9.85449C11.855 9.93882 11.8168 10.0227 11.7817 10.1064C12.0546 9.95196 12.4034 9.75095 12.4116 9.74609C12.2392 10.2342 11.9369 10.4783 11.5933 10.6611L11.5923 10.6543C11.5643 10.7571 11.5412 10.8593 11.522 10.9609C11.7941 10.8069 12.141 10.6055 12.1509 10.5996C12.0006 11.0252 11.7514 11.2638 11.4624 11.4395C11.4566 11.5427 11.4552 11.6453 11.4585 11.7471C11.7068 11.5441 12.063 11.2443 12.0688 11.2393C11.9919 11.7015 11.7742 11.9835 11.5063 12.2109C11.5275 12.3355 11.5548 12.4591 11.5894 12.5811C11.5996 12.6172 11.6111 12.6528 11.6216 12.6885C11.7829 12.4155 11.9949 12.0453 11.9995 12.0371C12.0892 12.5185 11.9676 12.8677 11.7798 13.1836C11.8049 13.2558 11.8317 13.3265 11.8579 13.3965C11.9472 13.1516 12.0359 12.9127 12.0396 12.9023C12.1869 13.2955 12.1639 13.6196 12.0728 13.9209C12.1712 14.1397 12.274 14.3452 12.3823 14.5352C12.3843 14.2251 12.3843 13.8516 12.3843 13.8516C12.7208 14.2448 12.7805 14.6286 12.7671 15.0176L12.646 14.9531C12.819 15.2024 13.0011 15.4143 13.188 15.5859C13.1894 15.2835 13.1899 14.9375 13.1899 14.9375C13.4604 15.2535 13.5502 15.5637 13.5688 15.875C13.6156 15.9028 13.6624 15.9286 13.7095 15.9512C13.8455 16.0163 14.0035 16.0767 14.186 16.1377C14.2476 15.8252 14.3413 15.2764 14.3413 15.2764C14.5495 15.629 14.5871 15.9456 14.5542 16.251C14.594 16.2623 14.6345 16.2748 14.6763 16.2861C14.8149 16.3239 14.9569 16.3601 15.1431 16.4062C15.214 16.4237 15.5122 16.4975 15.5874 16.5166C15.9187 16.6009 16.1041 16.6594 16.2183 16.7236C16.2666 16.7509 16.3046 16.7803 16.3315 16.8174L16.0991 16.9863C16.1001 16.988 16.0925 16.983 16.0776 16.9746C15.9945 16.9278 15.821 16.8732 15.5171 16.7959C15.4221 16.7717 14.9541 16.6562 15.0806 16.6875C14.8891 16.6401 14.7439 16.6024 14.6011 16.5635C14.5899 16.5604 14.5789 16.5568 14.5679 16.5537C14.2767 16.6625 13.9575 16.705 13.5601 16.5869C13.5601 16.5869 13.7791 16.4875 14.0122 16.3838C13.8531 16.3283 13.7117 16.2714 13.5854 16.2109C13.5732 16.2051 13.5616 16.1976 13.5493 16.1914C13.2525 16.3061 12.9279 16.3543 12.521 16.2334C12.5249 16.2317 12.8808 16.0727 13.1655 15.9434C12.9068 15.74 12.658 15.4702 12.4263 15.1406C12.0739 15.0436 11.7465 14.8761 11.478 14.4697C11.4908 14.4735 11.8284 14.5701 12.1177 14.6514C12.0386 14.5114 11.9619 14.3641 11.8882 14.21C11.5241 14.1142 11.1849 13.9485 10.9087 13.5303C10.9087 13.5303 11.3748 13.6671 11.687 13.752C11.6191 13.5856 11.5541 13.413 11.4927 13.2344C11.2043 13.0801 10.9505 12.8602 10.7769 12.46C10.7871 12.4651 11.0721 12.6026 11.3325 12.7285C11.3259 12.7057 11.3185 12.6831 11.312 12.6602C11.2717 12.5181 11.2406 12.3739 11.2173 12.2285C10.9819 11.9774 10.8025 11.6762 10.7749 11.2178C10.7749 11.2178 10.9749 11.4233 11.1694 11.624C11.1697 11.5576 11.1715 11.4908 11.1753 11.4238C10.9871 11.1829 10.9133 10.8966 10.8872 10.4629C10.8872 10.4629 11.068 10.6481 11.2524 10.8389C11.2808 10.702 11.3167 10.5643 11.3599 10.4258C11.1208 10.1582 10.9871 9.78428 10.9585 9.30859C10.9585 9.30859 11.3265 9.7036 11.5474 9.92383C11.5756 9.85915 11.6057 9.79442 11.6372 9.72949C11.6381 9.72772 11.6383 9.72541 11.6392 9.72363C11.4116 9.44029 11.5251 8.91722 11.4956 8.42676C11.4956 8.42676 11.7516 8.93151 11.9556 9.2002C12.0209 9.10332 12.0938 8.99953 12.1743 8.88867C12.0978 8.53678 12.1555 8.1436 12.3452 7.71094Z" fill="#5AB92D"/>
<path d="M19.7943 7.71094C19.7937 7.71379 19.7065 8.11715 19.6312 8.44434C19.5582 8.35014 19.4821 8.25125 19.4008 8.14941L19.1761 8.3291C19.3719 8.57417 19.5416 8.79723 19.6879 8.99609C19.4415 8.93011 19.2051 8.86884 19.1957 8.86621C19.4371 9.21806 19.7211 9.38495 20.0258 9.48242C20.1191 9.62694 20.1929 9.75038 20.2435 9.85449C20.2845 9.93882 20.3227 10.0227 20.3578 10.1064C20.0849 9.95196 19.7361 9.75095 19.7279 9.74609C19.9003 10.2342 20.2026 10.4783 20.5463 10.6611L20.5472 10.6543C20.5752 10.7571 20.5984 10.8593 20.6176 10.9609C20.3454 10.8069 19.9986 10.6055 19.9886 10.5996C20.1389 11.0252 20.3881 11.2638 20.6771 11.4395C20.6829 11.5427 20.6843 11.6453 20.681 11.7471C20.4328 11.5441 20.0765 11.2443 20.0707 11.2393C20.1476 11.7015 20.3653 11.9835 20.6332 12.2109C20.6121 12.3355 20.5848 12.4591 20.5502 12.5811C20.5399 12.6172 20.5285 12.6528 20.5179 12.6885C20.3567 12.4155 20.1446 12.0453 20.14 12.0371C20.0503 12.5185 20.1719 12.8677 20.3597 13.1836C20.3346 13.2558 20.3079 13.3265 20.2816 13.3965C20.1923 13.1516 20.1036 12.9127 20.1 12.9023C19.9526 13.2955 19.9757 13.6196 20.0668 13.9209C19.9683 14.1397 19.8656 14.3452 19.7572 14.5352C19.7552 14.2251 19.7552 13.8516 19.7552 13.8516C19.4187 14.2448 19.359 14.6286 19.3724 15.0176L19.4935 14.9531C19.3205 15.2024 19.1384 15.4143 18.9515 15.5859C18.9501 15.2835 18.9496 14.9375 18.9496 14.9375C18.6791 15.2535 18.5894 15.5637 18.5707 15.875C18.5239 15.9028 18.4771 15.9286 18.4301 15.9512C18.294 16.0163 18.1361 16.0767 17.9535 16.1377C17.8919 15.8252 17.7982 15.2764 17.7982 15.2764C17.5901 15.629 17.5524 15.9456 17.5853 16.251C17.5455 16.2623 17.505 16.2748 17.4633 16.2861C17.3246 16.3239 17.1827 16.3601 16.9965 16.4062C16.9255 16.4237 16.6273 16.4975 16.5521 16.5166C16.2208 16.6009 16.0354 16.6594 15.9213 16.7236C15.8729 16.7509 15.8349 16.7803 15.808 16.8174L16.0404 16.9863C16.0394 16.988 16.047 16.983 16.0619 16.9746C16.145 16.9278 16.3185 16.8732 16.6224 16.7959C16.7174 16.7717 17.1855 16.6562 17.059 16.6875C17.2504 16.6401 17.3957 16.6024 17.5385 16.5635C17.5496 16.5604 17.5606 16.5568 17.5717 16.5537C17.8629 16.6625 18.1821 16.705 18.5795 16.5869C18.5795 16.5869 18.3605 16.4875 18.1273 16.3838C18.2865 16.3283 18.4278 16.2714 18.5541 16.2109C18.5663 16.2051 18.578 16.1976 18.5902 16.1914C18.8871 16.3061 19.2116 16.3543 19.6185 16.2334C19.6147 16.2317 19.2587 16.0727 18.974 15.9434C19.2328 15.74 19.4815 15.4702 19.7133 15.1406C20.0656 15.0436 20.3931 14.8761 20.6615 14.4697C20.6487 14.4735 20.3111 14.5701 20.0219 14.6514C20.101 14.5114 20.1776 14.3641 20.2513 14.21C20.6154 14.1142 20.9546 13.9485 21.2308 13.5303C21.2308 13.5303 20.7648 13.6671 20.4525 13.752C20.5204 13.5856 20.5855 13.413 20.6469 13.2344C20.9352 13.0801 21.189 12.8602 21.3627 12.46C21.3524 12.4651 21.0674 12.6026 20.807 12.7285C20.8136 12.7057 20.821 12.6831 20.8275 12.6602C20.8679 12.5181 20.8989 12.3739 20.9222 12.2285C21.1577 11.9774 21.337 11.6762 21.3646 11.2178C21.3646 11.2178 21.1646 11.4233 20.9701 11.624C20.9699 11.5576 20.968 11.4908 20.9642 11.4238C21.1524 11.1829 21.2262 10.8966 21.2523 10.4629C21.2523 10.4629 21.0715 10.6481 20.8871 10.8389C20.8588 10.702 20.8228 10.5643 20.7797 10.4258C21.0188 10.1582 21.1524 9.78428 21.181 9.30859C21.181 9.30859 20.813 9.7036 20.5922 9.92383C20.5639 9.85915 20.5338 9.79442 20.5023 9.72949C20.5015 9.72772 20.5012 9.72541 20.5004 9.72363C20.728 9.44029 20.6144 8.91722 20.6439 8.42676C20.6439 8.42676 20.3879 8.93151 20.184 9.2002C20.1186 9.10332 20.0458 8.99953 19.9652 8.88867C20.0417 8.53678 19.984 8.1436 19.7943 7.71094Z" fill="#5AB92D"/>
<path fill-rule="evenodd" clip-rule="evenodd" d="M13.4174 9.32321L14.6245 12.5224H13.7372C13.7372 12.5224 13.4174 13.532 14.0209 13.532C14.6245 13.532 17.7349 13.532 17.7349 13.532C17.7349 13.532 18.1393 13.2789 17.9371 12.5224C17.7349 11.766 16.7133 9.67772 16.7133 9.67772C16.7133 9.67772 17.1499 9.33115 17.1499 9.07425C17.1499 8.81736 16.7133 8.78906 16.7133 8.78906H13.9578C13.6061 8.84606 13.4174 9.32321 13.4174 9.32321Z" fill="#EFE298"/>
<path d="M14.444 10.5017L16.3189 10.3852L14.444 10.5017Z" fill="#C5A042"/>
<path d="M14.444 10.5017L16.3189 10.3852" stroke="#B47D00" stroke-width="0.5"/>
<path d="M14.9003 11.5212L16.7752 11.4047L14.9003 11.5212Z" fill="#C5A042"/>
<path d="M14.9003 11.5212L16.7752 11.4047" stroke="#B47D00" stroke-width="0.5"/>
<path d="M15.2566 12.5407L17.1315 12.4243L15.2566 12.5407Z" fill="#C5A042"/>
<path d="M15.2566 12.5407L17.1315 12.4243" stroke="#B47D00" stroke-width="0.5"/>
<path fill-rule="evenodd" clip-rule="evenodd" d="M15.8805 7.58789C15.8805 7.58789 15.5917 7.64655 15.5917 7.82896C15.5917 8.01137 15.5137 8.1669 15.5137 8.1669C15.5137 8.1669 15.6018 8.99886 16.2601 9.19192C16.9185 9.38499 17.3044 9.43134 17.5816 9.81861C17.8587 10.2059 18.7089 11.2992 18.3679 12.2421C18.027 13.185 17.7593 13.6662 17.7593 13.6662C17.7593 13.6662 19.0029 12.4948 19.0029 11.9394C19.0029 11.3841 18.8191 10.8459 18.2682 10.1407C17.7172 9.43555 17.4609 9.02332 17.0505 8.70558C16.64 8.38785 16.0519 8.09467 16.0519 8.09467C16.0519 8.09467 16.2612 7.87083 16.1565 7.76559C16.0519 7.66035 15.8805 7.58789 15.8805 7.58789Z" fill="#5AB92D"/>
</g>
<defs>
<clipPath id="clip0_299_35649">
<rect width="32" height="24" fill="white"/>
</clipPath>
</defs>
</svg>
