<svg width="32" height="24" viewBox="0 0 32 24" fill="none" xmlns="http://www.w3.org/2000/svg">
<g clip-path="url(#clip0_299_35651)">
<rect width="32" height="24" fill="white"/>
<path fill-rule="evenodd" clip-rule="evenodd" d="M0 0H32V24H0V0Z" fill="#C51918"/>
<path fill-rule="evenodd" clip-rule="evenodd" d="M4 4H28V20H4V4Z" fill="#4564F9"/>
<path d="M27 5V19H5V5H27Z" stroke="#CBDAFF" stroke-opacity="0.1" stroke-width="2"/>
<mask id="mask0_299_35651" style="mask-type:luminance" maskUnits="userSpaceOnUse" x="4" y="4" width="24" height="16">
<path fill-rule="evenodd" clip-rule="evenodd" d="M4 4H28V20H4V4Z" fill="white"/>
<path d="M27 5V19H5V5H27Z" stroke="white" stroke-width="2"/>
</mask>
<g mask="url(#mask0_299_35651)">
<path d="M16.5 19L15.7803 20.2588L16.4863 20.6631L17.1992 20.2705L16.5 19ZM16.5 19L17.2002 20.2695H17.2012L17.2031 20.2686C17.2048 20.2676 17.2067 20.2659 17.209 20.2646C17.2135 20.2621 17.2195 20.2589 17.2266 20.2549C17.241 20.2468 17.2609 20.2356 17.2852 20.2217C17.334 20.1936 17.4027 20.1538 17.4873 20.1025C17.6564 20.0002 17.8929 19.8517 18.1738 19.6611C18.7329 19.2819 19.4837 18.7252 20.2402 18.0186C21.6956 16.6591 23.4502 14.4842 23.4502 11.7529C23.4502 8.99321 21.6654 6.93595 20.1855 5.68652C19.419 5.03936 18.6594 4.54422 18.0947 4.21191C17.8109 4.04487 17.5718 3.91645 17.4004 3.82812C17.315 3.78409 17.2461 3.74979 17.1963 3.72559C17.1714 3.71346 17.1507 3.70337 17.1357 3.69629C17.1283 3.69279 17.122 3.68975 17.1172 3.6875C17.1149 3.68644 17.113 3.68535 17.1113 3.68457L17.1084 3.68359H17.1074C17.1054 3.68681 17.075 3.75187 16.5 5L17.1064 3.68262L16.4863 3.39746L15.8701 3.69434L16.4375 4.87109C15.8699 3.69407 15.8696 3.69414 15.8691 3.69434H15.8682L15.8662 3.69629C15.8646 3.69709 15.8626 3.69811 15.8604 3.69922C15.8556 3.70154 15.8492 3.70437 15.8418 3.70801C15.8271 3.71529 15.8069 3.7248 15.7822 3.7373C15.7329 3.76233 15.6643 3.79813 15.5791 3.84375C15.4088 3.93493 15.1711 4.06697 14.8887 4.23828C14.3266 4.57915 13.5706 5.08397 12.8076 5.73633C11.3431 6.98854 9.54983 9.04668 9.5498 11.7529C9.5498 14.4297 11.3121 16.6054 12.7539 17.9678C13.5075 18.6798 14.2557 19.2461 14.8125 19.6338C15.0922 19.8285 15.327 19.9808 15.4951 20.0859C15.5793 20.1385 15.6469 20.1801 15.6953 20.209C15.7194 20.2233 15.7387 20.2349 15.7529 20.2432C15.76 20.2473 15.766 20.2503 15.7705 20.2529C15.7728 20.2542 15.7748 20.2559 15.7764 20.2568L15.7783 20.2578H15.7793C15.7821 20.2537 15.8237 20.1823 16.5 19Z" stroke="#C1C9F1" stroke-opacity="0.1182" stroke-width="2.9"/>
<path d="M16.4 17.918L15.5953 19.124L16.3844 19.6514L17.1832 19.1377L16.4 17.918ZM16.4 17.918C17.1544 19.0924 17.1828 19.1363 17.1842 19.1377L17.1852 19.1367L17.1871 19.1357L17.2076 19.1221C17.2193 19.1144 17.2348 19.1044 17.2535 19.0918C17.2916 19.0662 17.3445 19.0308 17.4088 18.9854C17.5372 18.8946 17.715 18.7642 17.9254 18.5977C18.3441 18.2662 18.9041 17.7811 19.4684 17.166C20.5637 15.9722 21.8502 14.0944 21.8502 11.7676C21.8501 9.41713 20.5413 7.63336 19.4176 6.52637C18.8423 5.95968 18.2721 5.52578 17.8463 5.2334C17.6321 5.0863 17.4503 4.97257 17.319 4.89355C17.2534 4.85414 17.2001 4.82309 17.1608 4.80078C17.1411 4.7896 17.1243 4.78126 17.1119 4.77441C17.1058 4.771 17.1006 4.76796 17.0963 4.76562C17.0942 4.76446 17.0921 4.76261 17.0905 4.76172L17.0885 4.76074H17.0875C17.0853 4.76388 17.0503 4.82737 16.4 6.03711L17.0865 4.75977L16.3844 4.38184L15.6891 4.77344L16.2535 5.77734C15.697 4.78845 15.6886 4.77343 15.6881 4.77344L15.6871 4.77441L15.6852 4.77539C15.6836 4.77629 15.6814 4.77812 15.6793 4.7793C15.6752 4.78163 15.6696 4.7837 15.6637 4.78711C15.6516 4.79409 15.6362 4.80399 15.6168 4.81543C15.578 4.83839 15.5247 4.87043 15.4596 4.91113C15.3295 4.99242 15.1497 5.10933 14.9371 5.25977C14.5143 5.55901 13.9473 6.00091 13.3756 6.57129C12.2657 7.67868 10.95 9.46171 10.9498 11.7676C10.9498 14.049 12.2424 15.9276 13.3258 17.1221C13.8871 17.741 14.4448 18.2341 14.861 18.5723C15.07 18.7421 15.2464 18.875 15.3737 18.9678C15.4372 19.0142 15.4885 19.051 15.526 19.0771C15.5447 19.0902 15.5604 19.1006 15.5719 19.1084C15.5777 19.1123 15.5827 19.1156 15.5865 19.1182C15.5884 19.1194 15.59 19.1211 15.5914 19.1221L15.5934 19.123L15.5944 19.124C15.595 19.1239 15.609 19.103 16.4 17.918Z" fill="#CCE0E5"/>
<path d="M16.4 17.918L15.5953 19.124L16.3844 19.6514L17.1832 19.1377L16.4 17.918ZM16.4 17.918C17.1544 19.0924 17.1828 19.1363 17.1842 19.1377L17.1852 19.1367L17.1871 19.1357L17.2076 19.1221C17.2193 19.1144 17.2348 19.1044 17.2535 19.0918C17.2916 19.0662 17.3445 19.0308 17.4088 18.9854C17.5372 18.8946 17.715 18.7642 17.9254 18.5977C18.3441 18.2662 18.9041 17.7811 19.4684 17.166C20.5637 15.9722 21.8502 14.0944 21.8502 11.7676C21.8501 9.41713 20.5413 7.63336 19.4176 6.52637C18.8423 5.95968 18.2721 5.52578 17.8463 5.2334C17.6321 5.0863 17.4503 4.97257 17.319 4.89355C17.2534 4.85414 17.2001 4.82309 17.1608 4.80078C17.1411 4.7896 17.1243 4.78126 17.1119 4.77441C17.1058 4.771 17.1006 4.76796 17.0963 4.76562C17.0942 4.76446 17.0921 4.76261 17.0905 4.76172L17.0885 4.76074H17.0875C17.0853 4.76388 17.0503 4.82737 16.4 6.03711L17.0865 4.75977L16.3844 4.38184L15.6891 4.77344L16.2535 5.77734C15.697 4.78845 15.6886 4.77343 15.6881 4.77344L15.6871 4.77441L15.6852 4.77539C15.6836 4.77629 15.6814 4.77812 15.6793 4.7793C15.6752 4.78163 15.6696 4.7837 15.6637 4.78711C15.6516 4.79409 15.6362 4.80399 15.6168 4.81543C15.578 4.83839 15.5247 4.87043 15.4596 4.91113C15.3295 4.99242 15.1497 5.10933 14.9371 5.25977C14.5143 5.55901 13.9473 6.00091 13.3756 6.57129C12.2657 7.67868 10.95 9.46171 10.9498 11.7676C10.9498 14.049 12.2424 15.9276 13.3258 17.1221C13.8871 17.741 14.4448 18.2341 14.861 18.5723C15.07 18.7421 15.2464 18.875 15.3737 18.9678C15.4372 19.0142 15.4885 19.051 15.526 19.0771C15.5447 19.0902 15.5604 19.1006 15.5719 19.1084C15.5777 19.1123 15.5827 19.1156 15.5865 19.1182C15.5884 19.1194 15.59 19.1211 15.5914 19.1221L15.5934 19.123L15.5944 19.124C15.595 19.1239 15.609 19.103 16.4 17.918Z" stroke="#C1C9F1" stroke-opacity="0.748217" stroke-width="2.9"/>
<path d="M16.4 17.918L15.5953 19.124L16.3844 19.6514L17.1832 19.1377L16.4 17.918ZM16.4 17.918C17.1544 19.0924 17.1828 19.1363 17.1842 19.1377L17.1852 19.1367L17.1871 19.1357L17.2076 19.1221C17.2193 19.1144 17.2348 19.1044 17.2535 19.0918C17.2916 19.0662 17.3445 19.0308 17.4088 18.9854C17.5372 18.8946 17.715 18.7642 17.9254 18.5977C18.3441 18.2662 18.9041 17.7811 19.4684 17.166C20.5637 15.9722 21.8502 14.0944 21.8502 11.7676C21.8501 9.41713 20.5413 7.63336 19.4176 6.52637C18.8423 5.95968 18.2721 5.52578 17.8463 5.2334C17.6321 5.0863 17.4503 4.97257 17.319 4.89355C17.2534 4.85414 17.2001 4.82309 17.1608 4.80078C17.1411 4.7896 17.1243 4.78126 17.1119 4.77441C17.1058 4.771 17.1006 4.76796 17.0963 4.76562C17.0942 4.76446 17.0921 4.76261 17.0905 4.76172L17.0885 4.76074H17.0875C17.0853 4.76388 17.0503 4.82737 16.4 6.03711L17.0865 4.75977L16.3844 4.38184L15.6891 4.77344L16.2535 5.77734C15.697 4.78845 15.6886 4.77343 15.6881 4.77344L15.6871 4.77441L15.6852 4.77539C15.6836 4.77629 15.6814 4.77812 15.6793 4.7793C15.6752 4.78163 15.6696 4.7837 15.6637 4.78711C15.6516 4.79409 15.6362 4.80399 15.6168 4.81543C15.578 4.83839 15.5247 4.87043 15.4596 4.91113C15.3295 4.99242 15.1497 5.10933 14.9371 5.25977C14.5143 5.55901 13.9473 6.00091 13.3756 6.57129C12.2657 7.67868 10.95 9.46171 10.9498 11.7676C10.9498 14.049 12.2424 15.9276 13.3258 17.1221C13.8871 17.741 14.4448 18.2341 14.861 18.5723C15.07 18.7421 15.2464 18.875 15.3737 18.9678C15.4372 19.0142 15.4885 19.051 15.526 19.0771C15.5447 19.0902 15.5604 19.1006 15.5719 19.1084C15.5777 19.1123 15.5827 19.1156 15.5865 19.1182C15.5884 19.1194 15.59 19.1211 15.5914 19.1221L15.5934 19.123L15.5944 19.124C15.595 19.1239 15.609 19.103 16.4 17.918Z" stroke="#C51918" stroke-width="2.9"/>
<mask id="mask1_299_35651" style="mask-type:luminance" maskUnits="userSpaceOnUse" x="12" y="6" width="9" height="12">
<path d="M17.1129 7.2998H17.1139H17.1129ZM17.1129 7.2998H17.111H17.1129ZM16.4127 7.77246C16.7017 7.98344 17.0438 8.25912 17.3824 8.59277C18.2586 9.45586 18.9497 10.5376 18.9498 11.7676C18.9498 13.0214 18.2362 14.2191 17.3317 15.2051C17.0126 15.5528 16.691 15.8505 16.4117 16.0879C16.1278 15.8417 15.7999 15.5329 15.4742 15.1738C14.5577 14.1633 13.8502 12.9661 13.8502 11.7676C13.8504 10.5939 14.5345 9.5119 15.4244 8.62402C15.7701 8.27916 16.119 7.99209 16.4127 7.77246Z" fill="white"/>
<path d="M17.1129 7.2998H17.1139H17.1129ZM17.1129 7.2998H17.111H17.1129ZM16.4127 7.77246C16.7017 7.98344 17.0438 8.25912 17.3824 8.59277C18.2586 9.45586 18.9497 10.5376 18.9498 11.7676C18.9498 13.0214 18.2362 14.2191 17.3317 15.2051C17.0126 15.5528 16.691 15.8505 16.4117 16.0879C16.1278 15.8417 15.7999 15.5329 15.4742 15.1738C14.5577 14.1633 13.8502 12.9661 13.8502 11.7676C13.8504 10.5939 14.5345 9.5119 15.4244 8.62402C15.7701 8.27916 16.119 7.99209 16.4127 7.77246Z" stroke="white" stroke-width="2.9"/>
</mask>
<g mask="url(#mask1_299_35651)">
<rect x="12.9333" y="14" width="7.46667" height="1.5" fill="#91CBCB"/>
<path fill-rule="evenodd" clip-rule="evenodd" d="M13.6018 15.1971C13.6018 15.1971 18.8959 15.199 19.3824 15.0163C19.869 14.8336 18.469 18.5239 16.6801 18.5239C14.8913 18.5239 13.6018 15.1971 13.6018 15.1971Z" fill="#FDF9A1"/>
<path d="M18.5936 14.7545L17.6426 15.4863C16.1437 13.5384 15.515 11.5233 15.7833 9.4668L16.9732 9.62207C16.7485 11.3446 17.2796 13.0468 18.5936 14.7545Z" fill="#A68861"/>
<path fill-rule="evenodd" clip-rule="evenodd" d="M16.3937 9.63749L15.4864 10.7006C15.4523 10.7405 15.3876 10.7078 15.3997 10.6567L15.7118 9.33116H14.2924C14.2383 9.33116 14.2228 9.2571 14.2724 9.23536L15.4852 8.70367L14.6243 7.56878C14.5939 7.52858 14.6353 7.47365 14.6823 7.49198L16.036 8.01967L16.345 6.77623C16.3576 6.72561 16.4296 6.72566 16.4421 6.77629L16.7495 8.01967L18.0914 7.49719C18.1394 7.4785 18.1809 7.53583 18.1482 7.57558L17.2185 8.70367L18.5013 9.23496C18.5518 9.2559 18.5368 9.33116 18.4821 9.33116H17.2185L17.4108 10.6873C17.4179 10.7369 17.3558 10.7649 17.3233 10.7268L16.3937 9.63749Z" fill="#239E46"/>
<path fill-rule="evenodd" clip-rule="evenodd" d="M15.6 13H20.4V14.05H15.6V13Z" fill="#239E46"/>
<path fill-rule="evenodd" clip-rule="evenodd" d="M14.872 12.3931H14.8672C14.8533 12.4446 14.8194 12.4874 14.7656 12.5215C14.7117 12.5556 14.6421 12.5727 14.5568 12.5727C14.4885 12.5727 14.4258 12.5604 14.3688 12.5357C14.3117 12.511 14.2629 12.4748 14.2224 12.427C14.1818 12.3792 14.1501 12.3199 14.1272 12.249C14.1042 12.1782 14.0928 12.0965 14.0928 12.0041C14.0928 11.9128 14.104 11.8317 14.1264 11.7608C14.1488 11.6899 14.1808 11.6306 14.2224 11.5828C14.264 11.535 14.3141 11.4985 14.3728 11.4733C14.4314 11.4481 14.4965 11.4355 14.568 11.4355C14.6682 11.4355 14.752 11.4576 14.8192 11.5017C14.8864 11.5458 14.9381 11.6041 14.9744 11.6765L14.864 11.7427C14.8384 11.6839 14.8002 11.6377 14.7496 11.6041C14.6989 11.5705 14.6384 11.5537 14.568 11.5537C14.5189 11.5537 14.4741 11.5623 14.4336 11.5797C14.393 11.597 14.3581 11.6214 14.3288 11.6529C14.2994 11.6844 14.2768 11.7222 14.2608 11.7663C14.2448 11.8104 14.2368 11.8597 14.2368 11.9143V12.0923C14.2368 12.1469 14.2448 12.1965 14.2608 12.2412C14.2768 12.2858 14.2994 12.3238 14.3288 12.3553C14.3581 12.3868 14.3941 12.4113 14.4368 12.4286C14.4794 12.4459 14.5274 12.4546 14.5808 12.4546C14.6192 12.4546 14.6557 12.4496 14.6904 12.4396C14.725 12.4296 14.7554 12.4147 14.7816 12.3947C14.8077 12.3748 14.8282 12.3498 14.8432 12.3199C14.8581 12.29 14.8656 12.2545 14.8656 12.2136V12.1049H14.6192V11.9884H14.9968V12.5538H14.872V12.3931ZM15.7072 11.4544V12.1348C15.7072 12.2398 15.7269 12.3194 15.7664 12.3735C15.8058 12.4275 15.8752 12.4546 15.9744 12.4546C16.0736 12.4546 16.1429 12.4275 16.1824 12.3735C16.2218 12.3194 16.2416 12.2398 16.2416 12.1348V11.4544H16.376V12.1033C16.376 12.1831 16.3688 12.2524 16.3544 12.3112C16.34 12.37 16.3168 12.4189 16.2848 12.4577C16.2528 12.4966 16.2109 12.5254 16.1592 12.5443C16.1074 12.5632 16.0442 12.5727 15.9696 12.5727C15.8949 12.5727 15.8322 12.5632 15.7816 12.5443C15.7309 12.5254 15.6901 12.4966 15.6592 12.4577C15.6282 12.4189 15.6061 12.37 15.5928 12.3112C15.5794 12.2524 15.5728 12.1831 15.5728 12.1033V11.4544H15.7072ZM17.664 12.5538L17.552 12.2293H17.1008L16.9888 12.5538H16.8528L17.2432 11.4544H17.4144L17.8048 12.5538H17.664ZM17.3296 11.5773H17.3216L17.1328 12.1128H17.5184L17.3296 11.5773ZM19.1808 11.6277H19.1728L19.0784 11.812L18.8112 12.2908L18.544 11.812L18.4496 11.6277H18.4416V12.5538H18.3104V11.4544H18.4896L18.8096 12.0466H18.8176L19.1392 11.4544H19.312V12.5538H19.1808V11.6277Z" fill="#C51918"/>
</g>
</g>
</g>
<defs>
<clipPath id="clip0_299_35651">
<rect width="32" height="24" fill="white"/>
</clipPath>
</defs>
</svg>
