<svg width="32" height="24" viewBox="0 0 32 24" fill="none" xmlns="http://www.w3.org/2000/svg">
<g clip-path="url(#clip0_299_35829)">
<rect width="32" height="24" fill="white"/>
<path fill-rule="evenodd" clip-rule="evenodd" d="M0 0V24H32V0H0Z" fill="#EA1A1A"/>
<mask id="mask0_299_35829" style="mask-type:luminance" maskUnits="userSpaceOnUse" x="0" y="0" width="32" height="24">
<path fill-rule="evenodd" clip-rule="evenodd" d="M0 0V24H32V0H0Z" fill="white"/>
</mask>
<g mask="url(#mask0_299_35829)">
<path fill-rule="evenodd" clip-rule="evenodd" d="M18.2387 11.8262C18.2977 11.8439 25.6501 14.0741 20.686 19.7031C20.6711 19.6968 17.9282 18.5378 18.2387 15.6533C18.5504 12.7613 19.1281 12.1376 18.2387 11.8262ZM16.2846 13.5605C16.2846 13.5605 17.6169 21.2028 10.3335 19.2715C10.3308 19.2297 10.155 16.2799 12.8618 15.2725C15.5884 14.2577 16.4041 14.4958 16.2846 13.5605ZM7.32468 7.86719C7.32468 7.86719 10.2063 7.06058 11.7583 9.52148C13.31 11.9821 13.2436 12.83 14.1343 12.5215C14.1127 12.5301 6.92797 15.3801 7.32468 7.86719ZM17.2739 11.1182C17.2739 11.1182 20.9235 4.27226 25.479 10.2744C25.479 10.2744 23.7996 12.7505 21.0259 11.874C18.2518 10.9973 17.755 10.3072 17.2739 11.1182ZM16.9887 3.40234C16.9887 3.40234 18.998 5.61896 17.4907 8.10742C15.983 10.5957 15.1952 10.9152 15.8696 11.5742C15.8696 11.5742 10.08 6.41073 16.9887 3.40234Z" fill="white"/>
<path d="M9.9502 10.3424L10.3722 10.0742C11.2985 11.5321 12.5008 12.2495 14.0011 12.2495V12.7495C12.3226 12.7495 10.9649 11.9394 9.9502 10.3424Z" fill="#EA1A1A"/>
<path fill-rule="evenodd" clip-rule="evenodd" d="M21.75 10.75C22.1642 10.75 22.5 10.4142 22.5 10C22.5 9.58579 22.1642 9.25 21.75 9.25C21.3358 9.25 21 9.58579 21 10C21 10.4142 21.3358 10.75 21.75 10.75Z" fill="#EA1A1A"/>
<path fill-rule="evenodd" clip-rule="evenodd" d="M19.9585 15.7285C20.3727 15.7285 20.7085 15.3927 20.7085 14.9785C20.7085 14.5643 20.3727 14.2285 19.9585 14.2285C19.5443 14.2285 19.2085 14.5643 19.2085 14.9785C19.2085 15.3927 19.5443 15.7285 19.9585 15.7285Z" fill="#EA1A1A"/>
<path fill-rule="evenodd" clip-rule="evenodd" d="M13.9585 17.7285C14.3727 17.7285 14.7085 17.3927 14.7085 16.9785C14.7085 16.5643 14.3727 16.2285 13.9585 16.2285C13.5443 16.2285 13.2085 16.5643 13.2085 16.9785C13.2085 17.3927 13.5443 17.7285 13.9585 17.7285Z" fill="#EA1A1A"/>
<path fill-rule="evenodd" clip-rule="evenodd" d="M9.9585 10.7285C10.3727 10.7285 10.7085 10.3927 10.7085 9.97852C10.7085 9.5643 10.3727 9.22852 9.9585 9.22852C9.54428 9.22852 9.2085 9.5643 9.2085 9.97852C9.2085 10.3927 9.54428 10.7285 9.9585 10.7285Z" fill="#EA1A1A"/>
<path fill-rule="evenodd" clip-rule="evenodd" d="M15.9585 7.72852C16.3727 7.72852 16.7085 7.39273 16.7085 6.97852C16.7085 6.5643 16.3727 6.22852 15.9585 6.22852C15.5443 6.22852 15.2085 6.5643 15.2085 6.97852C15.2085 7.39273 15.5443 7.72852 15.9585 7.72852Z" fill="#EA1A1A"/>
<path d="M15.6346 7.05352L16.0742 7.2918C15.2416 8.82779 15.1829 10.2445 15.8879 11.5706L15.4465 11.8053C14.6592 10.3246 14.7252 8.73119 15.6346 7.05352Z" fill="#EA1A1A"/>
<path d="M22.0149 9.68507L21.94 10.1794C19.9842 9.88292 18.5202 10.2955 17.5178 11.4088L17.1462 11.0743C18.2708 9.82528 19.9038 9.36502 22.0149 9.68507Z" fill="#EA1A1A"/>
<path d="M20.3512 15.3641L19.861 15.4627C19.4707 13.5235 18.5823 12.2889 17.1933 11.7277L17.3806 11.2641C18.9389 11.8937 19.9299 13.2708 20.3512 15.3641Z" fill="#EA1A1A"/>
<path d="M13.9065 17.1502L13.6462 16.7234C15.335 15.6933 16.1912 14.4362 16.2435 12.939L16.7432 12.9565C16.6845 14.6361 15.7294 16.0384 13.9065 17.1502Z" fill="#EA1A1A"/>
</g>
</g>
<defs>
<clipPath id="clip0_299_35829">
<rect width="32" height="24" fill="white"/>
</clipPath>
</defs>
</svg>
