<svg width="32" height="24" viewBox="0 0 32 24" fill="none" xmlns="http://www.w3.org/2000/svg">
<g clip-path="url(#clip0_299_35589)">
<rect width="32" height="24" fill="white"/>
<path fill-rule="evenodd" clip-rule="evenodd" d="M0 0V24H32V0H0Z" fill="#F7FCFF"/>
<mask id="mask0_299_35589" style="mask-type:luminance" maskUnits="userSpaceOnUse" x="0" y="0" width="32" height="24">
<path fill-rule="evenodd" clip-rule="evenodd" d="M0 0V24H32V0H0Z" fill="white"/>
</mask>
<g mask="url(#mask0_299_35589)">
<path fill-rule="evenodd" clip-rule="evenodd" d="M0 0V8H32V0H0Z" fill="#4564F9"/>
<path fill-rule="evenodd" clip-rule="evenodd" d="M0 16V24H32V16H0Z" fill="#4564F9"/>
<path fill-rule="evenodd" clip-rule="evenodd" d="M16.4021 12.6708L15.5356 13.118L15.7011 12.1708L15 11.4309H15.9688L16.4021 10.5L16.8354 11.4309H17.8042L17.1032 12.1708L17.2687 13.118L16.4021 12.6708Z" fill="#4564F9"/>
<path fill-rule="evenodd" clip-rule="evenodd" d="M10.3181 10.5029L9.45158 10.9501L9.61707 10.0029L8.91602 9.26293H9.88485L10.3181 8.33203L10.7514 9.26293H11.7202L11.0192 10.0029L11.1847 10.9501L10.3181 10.5029Z" fill="#4564F9"/>
<path fill-rule="evenodd" clip-rule="evenodd" d="M10.3181 14.7021L9.45158 15.1493L9.61707 14.2021L8.91602 13.4622H9.88485L10.3181 12.5312L10.7514 13.4622H11.7202L11.0192 14.2021L11.1847 15.1493L10.3181 14.7021Z" fill="#4564F9"/>
<path fill-rule="evenodd" clip-rule="evenodd" d="M22.3181 10.5029L21.4516 10.9501L21.6171 10.0029L20.916 9.26293H21.8849L22.3181 8.33203L22.7514 9.26293H23.7202L23.0192 10.0029L23.1847 10.9501L22.3181 10.5029Z" fill="#4564F9"/>
<path fill-rule="evenodd" clip-rule="evenodd" d="M22.3181 14.7021L21.4516 15.1493L21.6171 14.2021L20.916 13.4622H21.8849L22.3181 12.5312L22.7514 13.4622H23.7202L23.0192 14.2021L23.1847 15.1493L22.3181 14.7021Z" fill="#4564F9"/>
</g>
</g>
<defs>
<clipPath id="clip0_299_35589">
<rect width="32" height="24" fill="white"/>
</clipPath>
</defs>
</svg>
