<svg width="32" height="24" viewBox="0 0 32 24" fill="none" xmlns="http://www.w3.org/2000/svg">
<g clip-path="url(#clip0_299_35707)">
<rect width="32" height="24" fill="white"/>
<path fill-rule="evenodd" clip-rule="evenodd" d="M0 0V24H32V0H0Z" fill="#F7FCFF"/>
<mask id="mask0_299_35707" style="mask-type:luminance" maskUnits="userSpaceOnUse" x="0" y="0" width="32" height="24">
<path fill-rule="evenodd" clip-rule="evenodd" d="M0 0V24H32V0H0Z" fill="white"/>
</mask>
<g mask="url(#mask0_299_35707)">
<path fill-rule="evenodd" clip-rule="evenodd" d="M0 0V8H32V0H0Z" fill="#E31D1C"/>
<path fill-rule="evenodd" clip-rule="evenodd" d="M0 16V24H32V16H0Z" fill="#3D58DB"/>
<rect x="10.0765" y="6.39648" width="11.4" height="4" fill="#E31D1C"/>
<path d="M20.7802 8.95898C20.7972 9.72788 20.8027 11.0691 20.8026 12.3604C20.8025 13.1942 20.8009 13.9974 20.7987 14.5918C20.7976 14.8889 20.7966 15.134 20.7958 15.3047C20.7954 15.3898 20.795 15.4565 20.7948 15.502C20.7947 15.5128 20.7939 15.5229 20.7938 15.5312V15.5342C20.7894 15.5607 20.7818 15.6025 20.7704 15.6572C20.7474 15.7673 20.7089 15.9293 20.6473 16.125C20.5235 16.5183 20.3098 17.0395 19.955 17.5576C19.2605 18.5715 17.9994 19.6143 15.6493 19.6143C13.3029 19.6141 12.1034 18.5733 11.4647 17.5693C11.1368 17.0537 10.9494 16.5336 10.8446 16.1406C10.7925 15.9451 10.7608 15.7838 10.743 15.6738C10.7342 15.6191 10.7286 15.5773 10.7255 15.5508C10.7251 15.5473 10.7248 15.544 10.7245 15.541C10.7243 15.5294 10.7238 15.5118 10.7235 15.4893C10.723 15.4441 10.7216 15.3778 10.7206 15.293C10.7185 15.1233 10.7163 14.8794 10.7128 14.584C10.7057 13.9932 10.6958 13.195 10.6864 12.3643C10.6721 11.0945 10.6601 9.75252 10.6542 8.95898H20.7802Z" fill="#F7FCFF" stroke="#E31D1C" stroke-width="1.125"/>
<mask id="mask1_299_35707" style="mask-type:luminance" maskUnits="userSpaceOnUse" x="10" y="8" width="12" height="13">
<path d="M20.7802 8.95898C20.7972 9.72788 20.8027 11.0691 20.8026 12.3604C20.8025 13.1942 20.8009 13.9974 20.7987 14.5918C20.7976 14.8889 20.7966 15.134 20.7958 15.3047C20.7954 15.3898 20.795 15.4565 20.7948 15.502C20.7947 15.5128 20.7939 15.5229 20.7938 15.5312V15.5342C20.7894 15.5607 20.7818 15.6025 20.7704 15.6572C20.7474 15.7673 20.7089 15.9293 20.6473 16.125C20.5235 16.5183 20.3098 17.0395 19.955 17.5576C19.2605 18.5715 17.9994 19.6143 15.6493 19.6143C13.3029 19.6141 12.1034 18.5733 11.4647 17.5693C11.1368 17.0537 10.9494 16.5336 10.8446 16.1406C10.7925 15.9451 10.7608 15.7838 10.743 15.6738C10.7342 15.6191 10.7286 15.5773 10.7255 15.5508C10.7251 15.5473 10.7248 15.544 10.7245 15.541C10.7243 15.5294 10.7238 15.5118 10.7235 15.4893C10.723 15.4441 10.7216 15.3778 10.7206 15.293C10.7185 15.1233 10.7163 14.8794 10.7128 14.584C10.7057 13.9932 10.6958 13.195 10.6864 12.3643C10.6721 11.0945 10.6601 9.75252 10.6542 8.95898H20.7802Z" fill="white" stroke="white" stroke-width="1.125"/>
</mask>
<g mask="url(#mask1_299_35707)">
<path d="M12.6078 19.749H10.4984V17.6064H12.6078V19.749ZM16.8265 19.749H14.7172V17.6064H16.8265V19.749ZM21.0453 19.749H18.9359V17.6064H21.0453V19.749ZM14.7172 17.6064H12.6078V15.4648H14.7172V17.6064ZM18.9359 17.6064H16.8265V15.4648H18.9359V17.6064ZM12.6078 15.4648H10.4984V13.3232H12.6078V15.4648ZM16.8265 15.4648H14.7172V13.3232H16.8265V15.4648ZM21.0453 15.4648H18.9359V13.3232H21.0453V15.4648ZM14.7172 13.3232H12.6078V11.1807H14.7172V13.3232ZM18.9359 13.3232H16.8265V11.1807H18.9359V13.3232ZM12.6078 11.1807H10.4984V9.03906H12.6078V11.1807ZM16.8265 11.1807H14.7172V9.03906H16.8265V11.1807ZM21.0453 11.1807H18.9359V9.03906H21.0453V11.1807Z" fill="#F50100"/>
</g>
<path fill-rule="evenodd" clip-rule="evenodd" d="M10.453 8.16108C10.453 8.16108 11.1055 7.81259 11.6619 7.63299C12.2184 7.45339 12.6583 7.35526 12.6583 7.35526L11.8303 4.30317L10.172 3.68359L9.23279 5.23169L10.453 8.16108Z" fill="#56C6F5" stroke="white" stroke-width="0.5"/>
<path d="M10.181 6.48972L10.3716 6.39786C10.5684 6.81878 10.8278 6.94879 11.1833 6.81611C11.5465 6.68058 11.6945 6.42428 11.6423 6.01797L11.8514 5.99023C11.9163 6.4946 11.7129 6.84666 11.2561 7.01715C10.7916 7.19049 10.4221 7.00528 10.181 6.48972Z" fill="white"/>
<path fill-rule="evenodd" clip-rule="evenodd" d="M10.6323 5.54091L10.4501 5.65127C10.4098 5.67569 10.3597 5.64059 10.3688 5.59436L10.4102 5.38542L10.2236 5.28283C10.1823 5.26013 10.1876 5.19917 10.2322 5.18399L10.4339 5.11537L10.4294 4.90242C10.4284 4.8553 10.4838 4.82944 10.5193 4.86049L10.6795 5.0008L10.8617 4.89045C10.902 4.86603 10.9522 4.90112 10.943 4.94736L10.9016 5.15629L11.0883 5.25889C11.1296 5.28159 11.1242 5.34254 11.0796 5.35772L10.878 5.42635L10.8825 5.6393C10.8835 5.68642 10.828 5.71227 10.7925 5.68123L10.6323 5.54091Z" fill="#FECA00"/>
<path fill-rule="evenodd" clip-rule="evenodd" d="M14.5407 7.0749C14.5407 7.0749 15.0971 7.02524 15.6817 7.0366C16.2664 7.04796 16.7609 7.05211 16.7609 7.05211L17.0465 4.04263L15.7942 2.91125L14.4021 4.06923L14.5407 7.0749Z" fill="#56C6F5" stroke="white" stroke-width="0.5"/>
<path fill-rule="evenodd" clip-rule="evenodd" d="M15.7501 6.58463C16.2325 6.58463 16.2787 6.06366 16.2787 5.70878C16.1553 5.51195 16.1802 5.37109 15.7848 5.37109C15.3895 5.37109 15.3444 5.49056 15.229 5.70878C15.229 6.06366 15.2678 6.58463 15.7501 6.58463Z" fill="#FECA00"/>
<path fill-rule="evenodd" clip-rule="evenodd" d="M16.293 5.11197C16.7753 5.11197 16.8215 4.59101 16.8215 4.23613C16.6982 4.03929 16.723 3.89844 16.3277 3.89844C15.9323 3.89844 15.8872 4.0179 15.7719 4.23613C15.7719 4.59101 15.8106 5.11197 16.293 5.11197Z" fill="#FECA00"/>
<path fill-rule="evenodd" clip-rule="evenodd" d="M15.2383 5.11197C15.7206 5.11197 15.7668 4.59101 15.7668 4.23613C15.6435 4.03929 15.6683 3.89844 15.273 3.89844C14.8776 3.89844 14.8325 4.0179 14.7172 4.23613C14.7172 4.59101 14.7559 5.11197 15.2383 5.11197Z" fill="#FECA00"/>
<path d="M13.1287 2.85645L14.4919 3.82422L14.5857 3.8916L14.5964 4.00684L14.8484 6.93164L14.8708 7.19141L14.6091 7.20215H14.6082C14.6072 7.20219 14.6053 7.20304 14.6033 7.20312C14.5992 7.2033 14.5933 7.20278 14.5857 7.20312C14.57 7.20384 14.5471 7.20556 14.5183 7.20703C14.4603 7.21 14.3782 7.21453 14.2849 7.2207C14.0971 7.23314 13.8665 7.25164 13.6814 7.27734C13.5046 7.30191 13.2594 7.36243 13.0505 7.41992C12.9478 7.4482 12.856 7.47553 12.7908 7.49512C12.7584 7.50483 12.7323 7.51307 12.7146 7.51855C12.7058 7.52128 12.6986 7.523 12.6941 7.52441C12.6919 7.52509 12.6903 7.52603 12.6892 7.52637H12.6882L12.4451 7.60352L12.3728 7.3584L11.5056 4.41504L11.4646 4.27539L11.5662 4.1709L12.8044 2.88672L12.9539 2.73242L13.1287 2.85645Z" fill="#2E42A5" stroke="white" stroke-width="0.5"/>
<mask id="mask2_299_35707" style="mask-type:luminance" maskUnits="userSpaceOnUse" x="11" y="2" width="5" height="6">
<path d="M13.1287 2.85645L14.4919 3.82422L14.5857 3.8916L14.5964 4.00684L14.8484 6.93164L14.8708 7.19141L14.6091 7.20215H14.6082C14.6072 7.20219 14.6053 7.20304 14.6033 7.20312C14.5992 7.2033 14.5933 7.20278 14.5857 7.20312C14.57 7.20384 14.5471 7.20556 14.5183 7.20703C14.4603 7.21 14.3782 7.21453 14.2849 7.2207C14.0971 7.23314 13.8665 7.25164 13.6814 7.27734C13.5046 7.30191 13.2594 7.36243 13.0505 7.41992C12.9478 7.4482 12.856 7.47553 12.7908 7.49512C12.7584 7.50483 12.7323 7.51307 12.7146 7.51855C12.7058 7.52128 12.6986 7.523 12.6941 7.52441C12.6919 7.52509 12.6903 7.52603 12.6892 7.52637H12.6882L12.4451 7.60352L12.3728 7.3584L11.5056 4.41504L11.4646 4.27539L11.5662 4.1709L12.8044 2.88672L12.9539 2.73242L13.1287 2.85645Z" fill="white" stroke="white" stroke-width="0.5"/>
</mask>
<g mask="url(#mask2_299_35707)">
<path d="M12.4364 6.63595L12.1859 6.04587C12.7239 5.81037 13.6328 5.66587 14.5891 5.60938L14.6259 6.25086C13.7368 6.30338 12.8958 6.43486 12.4364 6.63595Z" fill="#C51918"/>
<path d="M12.0137 5.20944L11.7632 4.61936C12.3012 4.38387 13.4576 4.19322 14.414 4.13672L14.4507 4.7782C13.5617 4.83073 12.4731 5.00836 12.0137 5.20944Z" fill="#C51918"/>
</g>
<path d="M18.2784 2.85645L16.9161 3.82422L16.8214 3.8916L16.8116 4.00684L16.5587 6.93164L16.5363 7.19141L16.798 7.20215H16.799C16.7999 7.20219 16.8018 7.20304 16.8038 7.20312C16.8078 7.2033 16.8137 7.20278 16.8214 7.20312C16.8372 7.20385 16.8608 7.20555 16.8898 7.20703C16.9477 7.21 17.029 7.21454 17.1222 7.2207C17.3102 7.23314 17.5414 7.2516 17.7267 7.27734C17.9036 7.30195 18.1486 7.36241 18.3575 7.41992C18.4603 7.4482 18.5511 7.47553 18.6163 7.49512C18.6488 7.50485 18.6747 7.51305 18.6925 7.51855C18.7013 7.52128 18.7085 7.52299 18.713 7.52441C18.7151 7.52507 18.7168 7.52602 18.7179 7.52637H18.7198L18.9689 7.60547L19.0363 7.35352L19.8322 4.4043L19.8683 4.27246L19.7755 4.1709L18.6075 2.8916L18.4591 2.72852L18.2784 2.85645Z" fill="#2E42A5" stroke="white" stroke-width="0.5"/>
<mask id="mask3_299_35707" style="mask-type:luminance" maskUnits="userSpaceOnUse" x="16" y="2" width="5" height="6">
<path d="M18.2784 2.85645L16.9161 3.82422L16.8214 3.8916L16.8116 4.00684L16.5587 6.93164L16.5363 7.19141L16.798 7.20215H16.799C16.7999 7.20219 16.8018 7.20304 16.8038 7.20312C16.8078 7.2033 16.8137 7.20278 16.8214 7.20312C16.8372 7.20385 16.8608 7.20555 16.8898 7.20703C16.9477 7.21 17.029 7.21454 17.1222 7.2207C17.3102 7.23314 17.5414 7.2516 17.7267 7.27734C17.9036 7.30195 18.1486 7.36241 18.3575 7.41992C18.4603 7.4482 18.5511 7.47553 18.6163 7.49512C18.6488 7.50485 18.6747 7.51305 18.6925 7.51855C18.7013 7.52128 18.7085 7.52299 18.713 7.52441C18.7151 7.52507 18.7168 7.52602 18.7179 7.52637H18.7198L18.9689 7.60547L19.0363 7.35352L19.8322 4.4043L19.8683 4.27246L19.7755 4.1709L18.6075 2.8916L18.4591 2.72852L18.2784 2.85645Z" fill="white" stroke="white" stroke-width="0.5"/>
</mask>
<g mask="url(#mask3_299_35707)">
<path fill-rule="evenodd" clip-rule="evenodd" d="M18.3978 6.46416C18.3978 6.46416 18.6918 6.30053 18.7342 6.02465C18.7766 5.74877 19.2313 5.40897 19.0039 5.44941C18.7766 5.48986 18.9066 5.52144 18.5774 5.44941C18.2481 5.37738 17.822 5.32974 17.822 5.12735C17.822 4.92497 18.0338 4.76433 17.8607 4.76433C17.6875 4.76433 17.3182 4.57278 17.3923 4.71919C17.4665 4.8656 17.2217 4.70005 17.3441 5.00402C17.4665 5.30798 17.3182 5.6142 17.3923 5.69478C17.4665 5.77535 17.3441 6.17054 17.3441 6.17054C17.3441 6.17054 17.3891 6.31732 17.4677 6.09748C17.5464 5.87763 17.7185 5.72353 17.6325 5.9105C17.5464 6.09748 17.4366 6.5422 17.5345 6.46416C17.6325 6.38612 17.7298 6.1703 17.7298 6.09748C17.7298 6.02465 17.9769 5.73879 17.9769 5.95467C17.9769 6.17054 17.7444 6.34055 17.8607 6.34055C17.9769 6.34055 18.0421 6.38642 18.1152 6.17054C18.1882 5.95467 18.3657 5.81186 18.4385 5.95467C18.5113 6.09748 18.4952 6.08984 18.3978 6.277C18.3005 6.46416 18.3978 6.46416 18.3978 6.46416Z" fill="#FECA00"/>
<path fill-rule="evenodd" clip-rule="evenodd" d="M18.3031 6.4245C18.3652 6.4245 18.4154 6.47446 18.4154 6.53582C18.4151 6.59697 18.3651 6.64618 18.3031 6.64618C18.2412 6.64611 18.1911 6.59693 18.1908 6.53582C18.1908 6.4745 18.241 6.42456 18.3031 6.4245ZM17.5717 6.25457C17.6338 6.25457 17.684 6.30454 17.684 6.3659C17.6839 6.42721 17.6337 6.47723 17.5717 6.47723C17.5097 6.47713 17.4594 6.42715 17.4594 6.3659C17.4594 6.3046 17.5096 6.25468 17.5717 6.25457ZM17.9506 6.24676C18.0126 6.24676 18.0626 6.29594 18.0629 6.35711C18.0629 6.41848 18.0127 6.46844 17.9506 6.46844C17.8885 6.46833 17.8383 6.41841 17.8383 6.35711C17.8385 6.296 17.8887 6.24687 17.9506 6.24676ZM17.3607 6.04071C17.4228 6.04071 17.473 6.09067 17.473 6.15204C17.4728 6.2132 17.4227 6.26239 17.3607 6.26239C17.2988 6.26228 17.2487 6.21313 17.2484 6.15204C17.2484 6.09073 17.2987 6.04081 17.3607 6.04071ZM17.598 4.68231C17.7943 4.56146 17.9749 4.52992 18.1332 4.59735C18.205 4.62798 18.2597 4.66315 18.4008 4.76239C18.4096 4.76863 18.4102 4.76871 18.4193 4.77508C18.566 4.87793 18.6438 4.92039 18.6918 4.92059V5.13446C18.5821 5.13435 18.4872 5.08273 18.2992 4.95086C18.29 4.94438 18.2897 4.94454 18.2806 4.93817C18.1534 4.84867 18.1039 4.81709 18.0511 4.79461C17.9636 4.7573 17.8511 4.77738 17.7074 4.8659L17.598 4.68231Z" fill="#C51918"/>
</g>
<path d="M21.335 3.44922L19.6768 4.06934L19.5576 4.11328L19.5234 4.23438L18.6777 7.21094L18.6045 7.46582L18.8633 7.52344H18.8643C18.8649 7.52359 18.8659 7.52411 18.8672 7.52441C18.8702 7.5251 18.8756 7.5259 18.8818 7.52734C18.8942 7.53021 18.9127 7.53431 18.9365 7.54004C18.9849 7.55168 19.0557 7.56979 19.1436 7.59277C19.3196 7.63885 19.5643 7.70693 19.8369 7.79492C20.1002 7.87989 20.392 8.00638 20.6211 8.11426C20.7347 8.16774 20.8314 8.21642 20.8994 8.25098C20.9333 8.26817 20.9604 8.28156 20.9785 8.29102C20.9875 8.29572 20.9945 8.29936 20.999 8.30176C21.0013 8.30294 21.0028 8.30412 21.0039 8.30469L21.0049 8.30566L21.2441 8.43359L21.3525 8.18457L22.5908 5.33105L22.6426 5.21289L22.5752 5.10156L21.6357 3.55371L21.5283 3.37695L21.335 3.44922Z" fill="#56C6F5" stroke="white" stroke-width="0.5"/>
<mask id="mask4_299_35707" style="mask-type:luminance" maskUnits="userSpaceOnUse" x="18" y="3" width="5" height="6">
<path d="M21.335 3.44922L19.6768 4.06934L19.5576 4.11328L19.5234 4.23438L18.6777 7.21094L18.6045 7.46582L18.8633 7.52344H18.8643C18.8649 7.52359 18.8659 7.52411 18.8672 7.52441C18.8702 7.5251 18.8756 7.5259 18.8818 7.52734C18.8942 7.53021 18.9127 7.53431 18.9365 7.54004C18.9849 7.55168 19.0557 7.56979 19.1436 7.59277C19.3196 7.63885 19.5643 7.70693 19.8369 7.79492C20.1002 7.87989 20.392 8.00638 20.6211 8.11426C20.7347 8.16774 20.8314 8.21642 20.8994 8.25098C20.9333 8.26817 20.9604 8.28156 20.9785 8.29102C20.9875 8.29572 20.9945 8.29936 20.999 8.30176C21.0013 8.30294 21.0028 8.30412 21.0039 8.30469L21.0049 8.30566L21.2441 8.43359L21.3525 8.18457L22.5908 5.33105L22.6426 5.21289L22.5752 5.10156L21.6357 3.55371L21.5283 3.37695L21.335 3.44922Z" fill="white" stroke="white" stroke-width="0.5"/>
</mask>
<g mask="url(#mask4_299_35707)">
<path fill-rule="evenodd" clip-rule="evenodd" d="M21.1274 5.0871L20.9854 5.2459C20.954 5.28104 20.8958 5.26213 20.8911 5.21524L20.8696 5.00333L20.6611 4.9598C20.615 4.95017 20.6022 4.89032 20.6405 4.86275L20.8132 4.73817L20.7467 4.53584C20.732 4.49107 20.7774 4.45013 20.8204 4.46945L21.0147 4.55678L21.1566 4.39798C21.188 4.36285 21.2462 4.38175 21.251 4.42864L21.2725 4.64055L21.481 4.68409C21.5271 4.69372 21.5399 4.75357 21.5016 4.78114L21.3289 4.90571L21.3954 5.10805C21.4101 5.15282 21.3647 5.19376 21.3217 5.17444L21.1274 5.0871Z" fill="#FECA00"/>
<path d="M18.9951 6.48541L19.2075 5.65625C20.1483 5.90475 21.129 6.22324 21.8484 6.53121L21.5207 7.32068C20.841 7.02975 19.8985 6.72404 18.9951 6.48541Z" fill="#E31D1C"/>
<path d="M19.2831 5.71979L19.3332 5.51172C20.2351 5.73554 21.1937 6.09266 21.8903 6.42528L21.8005 6.61911C21.1173 6.29288 20.1719 5.94036 19.2831 5.71979Z" fill="white"/>
<path d="M19.0157 6.57525L19.0658 6.36719C19.9677 6.59101 20.8013 6.8947 21.4979 7.22732L21.4082 7.42115C20.725 7.09492 19.9046 6.79583 19.0157 6.57525Z" fill="white"/>
<path d="M19.4229 6.17315L19.616 6.08594C19.6973 6.27625 19.7977 6.31818 19.9656 6.23661C20.3621 6.04395 21.3457 6.31318 21.3457 6.67621C21.3457 6.81784 21.2636 6.90371 21.1383 6.89874C21.0676 6.89593 20.9921 6.86798 20.8813 6.81322C20.8679 6.80658 20.859 6.80213 20.8372 6.79105C20.7148 6.72859 20.7055 6.72403 20.6729 6.71228L20.7427 6.50763C20.7878 6.52391 20.7949 6.52739 20.931 6.59677C20.952 6.60744 20.9601 6.61157 20.9727 6.61777C21.0576 6.65975 21.1144 6.68076 21.1464 6.68203C21.1494 6.68215 21.1348 6.69745 21.1348 6.67621C21.1348 6.51648 20.3342 6.29736 20.0557 6.43268C19.7779 6.56764 19.5509 6.47283 19.4229 6.17315Z" fill="#272727"/>
</g>
</g>
</g>
<defs>
<clipPath id="clip0_299_35707">
<rect width="32" height="24" fill="white"/>
</clipPath>
</defs>
</svg>
