<svg width="32" height="24" viewBox="0 0 32 24" fill="none" xmlns="http://www.w3.org/2000/svg">
<g clip-path="url(#clip0_299_35709)">
<rect width="32" height="24" fill="white"/>
<path fill-rule="evenodd" clip-rule="evenodd" d="M0 0V24H32V0H0Z" fill="#2E42A5"/>
<mask id="mask0_299_35709" style="mask-type:luminance" maskUnits="userSpaceOnUse" x="0" y="0" width="32" height="24">
<path fill-rule="evenodd" clip-rule="evenodd" d="M0 0V24H32V0H0Z" fill="white"/>
</mask>
<g mask="url(#mask0_299_35709)">
<path fill-rule="evenodd" clip-rule="evenodd" d="M0 12V24H32V12H0Z" fill="#E31D1C"/>
<rect x="10" y="8" width="12" height="8" fill="white"/>
<mask id="mask1_299_35709" style="mask-type:luminance" maskUnits="userSpaceOnUse" x="10" y="8" width="12" height="8">
<rect x="10" y="8" width="12" height="8" fill="white"/>
</mask>
<g mask="url(#mask1_299_35709)">
<path fill-rule="evenodd" clip-rule="evenodd" d="M10 14.5771C10 14.5771 12.8803 13.8197 16 13.8659C19.1197 13.9122 22 14.7548 22 14.7548V15.9993H10V14.5771Z" fill="#279E19"/>
<path d="M16.0736 8.9018C16.0736 8.9018 15.1425 8.48242 14.4926 8.48242C13.8426 8.48242 13.4816 9.12253 13.4816 9.12253" stroke="#026A16" stroke-width="0.5"/>
<path d="M16.2805 9.32204C16.2805 9.32204 15.4237 9.01562 14.8257 9.01562C14.2276 9.01562 13.8954 9.48332 13.8954 9.48332" stroke="#026A16" stroke-width="0.5"/>
<path d="M16.2804 9.67751C16.2804 9.67751 15.6466 9.37109 15.2042 9.37109C14.7618 9.37109 14.516 9.83879 14.516 9.83879" stroke="#026A16" stroke-width="0.5"/>
<path d="M16.0199 10.033C16.0199 10.033 15.6283 9.72656 15.355 9.72656C15.0817 9.72656 14.9298 10.1943 14.9298 10.1943" stroke="#026A16" stroke-width="0.5"/>
<path d="M15.9864 10.2755C15.9864 10.2755 15.8298 10.082 15.7205 10.082C15.6113 10.082 15.5505 10.3773 15.5505 10.3773" stroke="#026A16" stroke-width="0.5"/>
<path d="M15.9263 8.9018C15.9263 8.9018 16.8574 8.48242 17.5073 8.48242C18.1573 8.48242 18.5183 9.12253 18.5183 9.12253" stroke="#026A16" stroke-width="0.5"/>
<path d="M15.7194 9.32204C15.7194 9.32204 16.5761 9.01562 17.1742 9.01562C17.7723 9.01562 18.1045 9.48332 18.1045 9.48332" stroke="#026A16" stroke-width="0.5"/>
<path d="M15.7195 9.67751C15.7195 9.67751 16.3533 9.37109 16.7957 9.37109C17.2381 9.37109 17.4839 9.83879 17.4839 9.83879" stroke="#026A16" stroke-width="0.5"/>
<path d="M15.98 10.033C15.98 10.033 16.3716 9.72656 16.6449 9.72656C16.9182 9.72656 17.0701 10.1943 17.0701 10.1943" stroke="#026A16" stroke-width="0.5"/>
<path d="M16.0135 10.2755C16.0135 10.2755 16.17 10.082 16.2793 10.082C16.3886 10.082 16.4493 10.3773 16.4493 10.3773" stroke="#026A16" stroke-width="0.5"/>
<path fill-rule="evenodd" clip-rule="evenodd" d="M15.8876 10.3984C15.8876 10.3984 15.7733 11.7358 15.7733 12.2801C15.7733 12.8244 15.8876 13.9989 15.8876 13.9989H16.1814C16.1814 13.9989 16.1814 12.7345 16.1814 12.2801C16.1814 11.8258 16.009 10.3984 16.009 10.3984H15.8876Z" fill="#FECA00"/>
<path fill-rule="evenodd" clip-rule="evenodd" d="M14.7321 11.918C14.7321 11.918 14.0079 12.3056 14.0079 13.4531L14.7321 14.8386H16.039V12.5569L14.7321 11.918Z" fill="#C51918"/>
<path fill-rule="evenodd" clip-rule="evenodd" d="M13.659 10.8262C13.659 10.8262 11.9681 11.3271 11.9681 13.1749L14.1588 13.3618C14.1588 13.3618 14.0391 12.2882 14.7132 11.7916L13.659 10.8262Z" fill="#0A328C"/>
<path d="M12.9609 10.1211L15.8614 12.7792" stroke="#FFD018" stroke-width="0.5"/>
<path d="M11.9536 10.7227L15.9991 13.3496" stroke="#FFD018" stroke-width="0.5"/>
<path d="M11.2572 11.7402L15.8168 13.8255" stroke="#FFD018" stroke-width="0.5"/>
<path fill-rule="evenodd" clip-rule="evenodd" d="M11.9799 13.1602L15.0055 13.4984L14.8352 13.9207H14.3555L14.6822 14.1593L15.4189 14.3317V13.9207H16.0641V14.7939H14.6822L14.1522 14.1593C14.1522 14.1593 13.707 14.5981 13.2726 14.5981C12.8381 14.5981 12.4098 14.4556 12.4098 13.977C12.4098 13.4984 12.4098 13.6441 12.4098 13.6441L11.9799 13.4984V13.1602Z" fill="#FECA00"/>
<path fill-rule="evenodd" clip-rule="evenodd" d="M16.8542 11.918C16.8542 11.918 17.5784 12.3056 17.5784 13.4531L16.8542 14.8386H15.5473V12.5569L16.8542 11.918Z" fill="#C51918"/>
<path fill-rule="evenodd" clip-rule="evenodd" d="M17.9274 10.8262C17.9274 10.8262 19.6182 11.3271 19.6182 13.1749L17.4276 13.3618C17.4276 13.3618 17.5472 12.2882 16.8731 11.7916L17.9274 10.8262Z" fill="#0A328C"/>
<path d="M18.6254 10.1211L15.7249 12.7792" stroke="#FFD018" stroke-width="0.5"/>
<path d="M19.6327 10.7227L15.5872 13.3496" stroke="#FFD018" stroke-width="0.5"/>
<path d="M20.3291 11.7402L15.7695 13.8255" stroke="#FFD018" stroke-width="0.5"/>
<path fill-rule="evenodd" clip-rule="evenodd" d="M19.6064 13.1602L16.5808 13.4984L16.7511 13.9207H17.2308L16.9041 14.1593L16.1674 14.3317V13.9207H15.5222V14.7939H16.9041L17.4341 14.1593C17.4341 14.1593 17.8793 14.5981 18.3137 14.5981C18.7482 14.5981 19.1765 14.4556 19.1765 13.977C19.1765 13.4984 19.1765 13.6441 19.1765 13.6441L19.6064 13.4984V13.1602Z" fill="#FECA00"/>
</g>
</g>
</g>
<defs>
<clipPath id="clip0_299_35709">
<rect width="32" height="24" fill="white"/>
</clipPath>
</defs>
</svg>
