<svg width="32" height="24" viewBox="0 0 32 24" fill="none" xmlns="http://www.w3.org/2000/svg">
<g clip-path="url(#clip0_299_35359)">
<rect width="32" height="24" fill="white"/>
<path fill-rule="evenodd" clip-rule="evenodd" d="M0 0V24H32V0H0Z" fill="#E31D1C"/>
<mask id="mask0_299_35359" style="mask-type:luminance" maskUnits="userSpaceOnUse" x="0" y="0" width="32" height="24">
<path fill-rule="evenodd" clip-rule="evenodd" d="M0 0V24H32V0H0Z" fill="white"/>
</mask>
<g mask="url(#mask0_299_35359)">
<path fill-rule="evenodd" clip-rule="evenodd" d="M6.09352 4.13925C6.08583 4.04673 6.19654 4.00187 6.25916 4.07041C6.70829 4.56207 7.89534 5.78604 8.58182 5.78604C9.44083 5.78604 12.8144 2.9434 13.8116 3.40647C14.8087 3.86954 16.8276 8.71117 16.8276 8.71117L15.512 10.3614L13.8116 9.43381L13.4902 5.78604C13.4902 5.78604 10.2171 7.46952 8.58182 6.85845L7.66254 7.63092C7.66254 7.63092 6.77725 5.87792 6.42864 5.34174C6.19797 4.98697 6.11992 4.45716 6.09352 4.13925Z" fill="#F7FCFF"/>
<path fill-rule="evenodd" clip-rule="evenodd" d="M8.26189 8.1229L7.70209 8.46207L7.80901 7.74371L7.35612 7.23496L7.98199 7.13015L8.26189 6.47656L8.54179 7.13015L9.16766 7.23496L8.71477 7.74371L8.82169 8.46207L8.26189 8.1229Z" fill="#FECA00"/>
<path fill-rule="evenodd" clip-rule="evenodd" d="M13.0126 3.79045C13.0126 3.59013 13.175 3.42773 13.3753 3.42773C13.5757 3.42773 13.7381 3.59013 13.7381 3.79045V5.50405C13.7381 5.70437 13.5757 5.86676 13.3753 5.86676C13.175 5.86676 13.0126 5.70437 13.0126 5.50405L13.0126 3.79045Z" fill="#FECA00"/>
<path fill-rule="evenodd" clip-rule="evenodd" d="M25.2202 5.10392C25.3027 5.14643 25.2821 5.26409 25.1908 5.28087C24.5358 5.40122 22.8688 5.75929 22.505 6.34146C22.0498 7.06994 22.6728 11.4373 21.7517 12.0375C20.8306 12.6378 15.6548 11.7842 15.6548 11.7842L14.9524 9.79398L16.6402 8.84351L19.904 10.504C19.904 10.504 20.2108 6.83618 21.5956 5.77316L21.4276 4.58422C21.4276 4.58422 23.3834 4.76241 24.0228 4.75089C24.4459 4.74327 24.9366 4.95785 25.2202 5.10392Z" fill="#F7FCFF"/>
<path fill-rule="evenodd" clip-rule="evenodd" d="M20.693 4.83172L20.702 4.17726L21.2546 4.6486L21.926 4.53413L21.6832 5.12043L22.0892 5.70415L21.3866 5.59517L20.966 6.0704L20.7746 5.41673L20.1087 5.12672L20.693 4.83172Z" fill="#FECA00"/>
<path fill-rule="evenodd" clip-rule="evenodd" d="M21.9142 11.2053C22.0938 11.3167 22.1527 11.5505 22.0474 11.7337C21.9343 11.9302 21.6785 11.9901 21.49 11.8642L19.9414 10.8299C19.8025 10.7371 19.7455 10.5609 19.8038 10.4043C19.8832 10.191 20.1382 10.1037 20.3317 10.2238L21.9142 11.2053Z" fill="#FECA00"/>
<path fill-rule="evenodd" clip-rule="evenodd" d="M14.8625 20.9834C14.7844 21.0336 14.6928 20.9569 14.724 20.8695C14.9472 20.2421 15.4706 18.6194 15.1484 18.0132C14.7451 17.2548 10.6514 15.6106 10.5921 14.5128C10.5328 13.4149 13.8599 9.35935 13.8599 9.35935L15.9347 9.74624L15.9139 11.6831L12.844 13.6794C12.844 13.6794 15.867 15.779 16.0952 17.5098L17.2089 17.9588C17.2089 17.9588 16.0767 19.5634 15.7669 20.123C15.562 20.4932 15.1308 20.8108 14.8625 20.9834Z" fill="#F7FCFF"/>
<path fill-rule="evenodd" clip-rule="evenodd" d="M17.3617 17.1987L17.924 17.5337L17.2395 17.7766L17.0029 18.4153L16.6165 17.9119L15.908 17.9716L16.3537 17.4176L16.1524 16.8158L16.8143 16.9768L17.3983 16.5452L17.3617 17.1987Z" fill="#FECA00"/>
<path fill-rule="evenodd" clip-rule="evenodd" d="M11.1034 14.9567C10.8803 15.0419 10.6322 14.9173 10.5673 14.6875C10.5103 14.4861 10.6157 14.2744 10.8107 14.1983L12.479 13.5473C12.6643 13.475 12.8749 13.545 12.98 13.714C13.1171 13.9346 13.0191 14.2255 12.7765 14.3181L11.1034 14.9567Z" fill="#FECA00"/>
<path d="M13.6626 9.76465C13.5381 9.72116 13.4716 9.58255 13.5141 9.45506C13.5565 9.32757 13.7559 9.11461 13.8804 9.1581L15.6162 9.76465C15.7057 9.79594 15.7687 9.87859 15.7766 9.97519L15.9318 11.879C15.9427 12.0133 15.7472 12.1219 15.6162 12.1331C15.4851 12.1443 15.37 12.0446 15.3591 11.9103L15.2154 10.2731L13.6626 9.76465Z" fill="#FECA00"/>
<path d="M16.6806 8.76761C16.7843 8.68485 16.9696 8.78077 17.0504 8.88705C17.1312 8.99334 17.1125 9.14659 17.0088 9.22934L15.8064 10.4618C15.7026 10.5445 15.4693 10.3831 15.3885 10.2768C15.3077 10.1705 15.2847 9.881 15.3885 9.79824L16.6806 8.76761Z" fill="#FECA00"/>
</g>
</g>
<defs>
<clipPath id="clip0_299_35359">
<rect width="32" height="24" fill="white"/>
</clipPath>
</defs>
</svg>
