<svg width="32" height="24" viewBox="0 0 32 24" fill="none" xmlns="http://www.w3.org/2000/svg">
<g clip-path="url(#clip0_299_35363)">
<rect width="32" height="24" fill="white"/>
<path fill-rule="evenodd" clip-rule="evenodd" d="M0 0V24H32V0H0Z" fill="#F7FCFF"/>
<mask id="mask0_299_35363" style="mask-type:luminance" maskUnits="userSpaceOnUse" x="0" y="0" width="32" height="24">
<path fill-rule="evenodd" clip-rule="evenodd" d="M0 0V24H32V0H0Z" fill="white"/>
</mask>
<g mask="url(#mask0_299_35363)">
<path d="M29.1799 21.0088C30.7854 21.1006 32.3398 21.8794 33.8332 23.291L32.3459 24.709C31.118 23.5482 29.9597 23.0001 28.8586 23C28.3266 23 28.1001 23.129 27.4865 23.709C26.5134 24.6289 25.858 24.9999 24.6271 25C23.3962 25 22.7408 24.6287 21.7678 23.709C21.1543 23.1291 20.9274 23.0001 20.3957 23C19.8637 23 19.6372 23.129 19.0236 23.709C18.0505 24.6289 17.3951 24.9999 16.1642 25C14.9333 25 14.2779 24.6287 13.3049 23.709C12.6915 23.1291 12.4645 23.0001 11.9328 23C11.4008 23 11.1733 23.129 10.5598 23.709C9.58677 24.6287 8.93128 25 7.70038 25C6.46979 24.9999 5.81483 24.6285 4.84198 23.709C4.22841 23.129 4.00096 23 3.46893 23C2.3679 23.0001 1.20949 23.5483 -0.0183716 24.709L-1.50568 23.291C0.0870762 21.7855 1.74935 21.0001 3.46893 21C4.69984 21 5.35532 21.3713 6.32831 22.291C6.9417 22.8708 7.1687 22.9999 7.70038 23C8.23241 23 8.45985 22.871 9.07343 22.291C10.0464 21.3713 10.7019 21 11.9328 21C13.1634 21.0001 13.8183 21.3715 14.7912 22.291C15.4048 22.871 15.6322 23 16.1642 23C16.696 22.9999 16.9229 22.8709 17.5363 22.291C18.5093 21.3713 19.1648 21 20.3957 21L20.6193 21.0049C21.7094 21.049 22.3426 21.4285 23.2551 22.291C23.8686 22.871 24.0951 23 24.6271 23C25.1589 22.9999 25.3858 22.8709 25.9992 22.291C26.9722 21.3713 27.6276 21 28.8586 21L29.1799 21.0088ZM29.1799 17.0088C30.7854 17.1006 32.3398 17.8794 33.8332 19.291L32.3459 20.709C31.118 19.5482 29.9597 19.0001 28.8586 19C28.3266 19 28.1001 19.129 27.4865 19.709C26.5134 20.6289 25.858 20.9999 24.6271 21C23.3962 21 22.7408 20.6287 21.7678 19.709C21.1543 19.1291 20.9274 19.0001 20.3957 19C19.8637 19 19.6372 19.129 19.0236 19.709C18.0505 20.6289 17.3951 20.9999 16.1642 21C14.9333 21 14.2779 20.6287 13.3049 19.709C12.6915 19.1291 12.4645 19.0001 11.9328 19C11.4008 19 11.1733 19.129 10.5598 19.709C9.58677 20.6287 8.93128 21 7.70038 21C6.46979 20.9999 5.81483 20.6285 4.84198 19.709C4.22841 19.129 4.00096 19 3.46893 19C2.3679 19.0001 1.20949 19.5483 -0.0183716 20.709L-1.50568 19.291C0.0870762 17.7855 1.74935 17.0001 3.46893 17C4.69984 17 5.35532 17.3713 6.32831 18.291C6.9417 18.8708 7.1687 18.9999 7.70038 19C8.23241 19 8.45985 18.871 9.07343 18.291C10.0464 17.3713 10.7019 17 11.9328 17C13.1634 17.0001 13.8183 17.3715 14.7912 18.291C15.4048 18.871 15.6322 19 16.1642 19C16.696 18.9999 16.9229 18.8709 17.5363 18.291C18.5093 17.3713 19.1648 17 20.3957 17L20.6193 17.0049C21.7094 17.049 22.3426 17.4285 23.2551 18.291C23.8686 18.871 24.0951 19 24.6271 19C25.1589 18.9999 25.3858 18.8709 25.9992 18.291C26.9722 17.3713 27.6276 17 28.8586 17L29.1799 17.0088ZM29.1799 13.0088C30.7854 13.1006 32.3398 13.8794 33.8332 15.291L32.3459 16.709C31.118 15.5482 29.9597 15.0001 28.8586 15C28.3266 15 28.1001 15.129 27.4865 15.709C26.5134 16.6289 25.858 16.9999 24.6271 17C23.3962 17 22.7408 16.6287 21.7678 15.709C21.1543 15.1291 20.9274 15.0001 20.3957 15C19.8637 15 19.6372 15.129 19.0236 15.709C18.0505 16.6289 17.3951 16.9999 16.1642 17C14.9333 17 14.2779 16.6287 13.3049 15.709C12.6915 15.1291 12.4645 15.0001 11.9328 15C11.4008 15 11.1733 15.129 10.5598 15.709C9.58677 16.6287 8.93128 17 7.70038 17C6.46979 16.9999 5.81483 16.6285 4.84198 15.709C4.22841 15.129 4.00096 15 3.46893 15C2.3679 15.0001 1.20949 15.5483 -0.0183716 16.709L-1.50568 15.291C0.0870762 13.7855 1.74935 13.0001 3.46893 13C4.69984 13 5.35532 13.3713 6.32831 14.291C6.9417 14.8708 7.1687 14.9999 7.70038 15C8.23241 15 8.45985 14.871 9.07343 14.291C10.0464 13.3713 10.7019 13 11.9328 13L12.1564 13.0049C13.2463 13.049 13.879 13.4288 14.7912 14.291C15.4048 14.871 15.6322 15 16.1642 15C16.696 14.9999 16.9229 14.8709 17.5363 14.291C18.5093 13.3713 19.1648 13 20.3957 13C21.6265 13.0001 22.2819 13.3711 23.2551 14.291C23.8686 14.871 24.0951 15 24.6271 15C25.1589 14.9999 25.3858 14.8709 25.9992 14.291C26.9722 13.3713 27.6276 13 28.8586 13L29.1799 13.0088ZM28.8586 9C30.5782 9.0001 32.2404 9.78548 33.8332 11.291L32.3459 12.709C31.118 11.5482 29.9597 11.0001 28.8586 11C28.3266 11 28.1001 11.129 27.4865 11.709C26.5134 12.6289 25.858 12.9999 24.6271 13C23.3962 13 22.7408 12.6287 21.7678 11.709C21.1543 11.1291 20.9274 11.0001 20.3957 11C19.8637 11 19.6372 11.129 19.0236 11.709C18.0505 12.6289 17.3951 12.9999 16.1642 13C14.9333 13 14.2779 12.6287 13.3049 11.709C12.6915 11.1291 12.4645 11.0001 11.9328 11C11.4008 11 11.1733 11.129 10.5598 11.709C9.58677 12.6287 8.93128 13 7.70038 13C6.46979 12.9999 5.81483 12.6285 4.84198 11.709C4.22841 11.129 4.00096 11 3.46893 11C2.3679 11.0001 1.20949 11.5483 -0.0183716 12.709L-1.50568 11.291C0.0870762 9.78547 1.74935 9.00014 3.46893 9C4.69984 9 5.35532 9.37133 6.32831 10.291C6.9417 10.8708 7.1687 10.9999 7.70038 11C8.23241 11 8.45985 10.871 9.07343 10.291C10.0464 9.37133 10.7019 9 11.9328 9C13.1634 9.00009 13.8183 9.37147 14.7912 10.291C15.4048 10.871 15.6322 11 16.1642 11C16.696 10.9999 16.9229 10.8709 17.5363 10.291C18.5093 9.3713 19.1648 9 20.3957 9C21.6265 9.00008 22.2819 9.37112 23.2551 10.291C23.8686 10.871 24.0951 11 24.6271 11C25.1589 10.9999 25.3858 10.8709 25.9992 10.291C26.9722 9.37128 27.6276 9 28.8586 9ZM28.8586 5C30.5782 5.0001 32.2404 5.78548 33.8332 7.29102L32.3459 8.70898C31.118 7.54825 29.9597 7.0001 28.8586 7C28.3266 7 28.1001 7.12898 27.4865 7.70898C26.5134 8.62888 25.858 8.99993 24.6271 9C23.3962 9 22.7408 8.62871 21.7678 7.70898C21.1543 7.12912 20.9274 7.00006 20.3957 7C19.8637 7 19.6372 7.12899 19.0236 7.70898C18.0505 8.62887 17.3951 8.99992 16.1642 9C14.9333 9 14.2779 8.62868 13.3049 7.70898C12.6915 7.12914 12.4645 7.00007 11.9328 7C11.4008 7 11.1733 7.12898 10.5598 7.70898C9.58677 8.62866 8.93128 9 7.70038 9C6.46979 8.9999 5.81483 8.62854 4.84198 7.70898C4.22841 7.12898 4.00096 7 3.46893 7C2.3679 7.00015 1.20949 7.54829 -0.0183716 8.70898L-1.50568 7.29102C0.0870762 5.78547 1.74935 5.00014 3.46893 5C4.69984 5 5.35532 5.37133 6.32831 6.29102C6.9417 6.87085 7.1687 6.99992 7.70038 7C8.23241 7 8.45985 6.87102 9.07343 6.29102C10.0464 5.37133 10.7019 5 11.9328 5C13.1634 5.00009 13.8183 5.37147 14.7912 6.29102C15.4048 6.87102 15.6322 7 16.1642 7C16.696 6.99993 16.9229 6.87087 17.5363 6.29102C18.5093 5.3713 19.1648 5 20.3957 5C21.6265 5.00008 22.2819 5.37112 23.2551 6.29102C23.8686 6.87102 24.0951 7 24.6271 7C25.1589 6.99994 25.3858 6.8709 25.9992 6.29102C26.9722 5.37128 27.6276 5 28.8586 5ZM29.1799 1.00879C30.7854 1.10056 32.3398 1.87943 33.8332 3.29102L32.3459 4.70898C31.118 3.54825 29.9597 3.0001 28.8586 3C28.3266 3 28.1001 3.12898 27.4865 3.70898C26.5134 4.62888 25.858 4.99993 24.6271 5C23.3962 5 22.7408 4.62871 21.7678 3.70898C21.1543 3.12912 20.9274 3.00006 20.3957 3C19.8637 3 19.6372 3.12899 19.0236 3.70898C18.0505 4.62887 17.3951 4.99992 16.1642 5C14.9333 5 14.2779 4.62868 13.3049 3.70898C12.6915 3.12914 12.4645 3.00007 11.9328 3C11.4008 3 11.1733 3.12898 10.5598 3.70898C9.58677 4.62866 8.93128 5 7.70038 5C6.46979 4.9999 5.81483 4.62854 4.84198 3.70898C4.22841 3.12898 4.00096 3 3.46893 3C2.3679 3.00015 1.20949 3.54829 -0.0183716 4.70898L-1.50568 3.29102C0.0870762 1.78547 1.74935 1.00014 3.46893 1C4.69984 1 5.35532 1.37133 6.32831 2.29102C6.9417 2.87085 7.1687 2.99992 7.70038 3C8.23241 3 8.45985 2.87102 9.07343 2.29102C10.0464 1.37133 10.7019 1 11.9328 1C13.1634 1.00009 13.8183 1.37147 14.7912 2.29102C15.4048 2.87102 15.6322 3 16.1642 3C16.696 2.99993 16.9229 2.87087 17.5363 2.29102C18.5093 1.3713 19.1648 1 20.3957 1C21.6265 1.00008 22.2819 1.37112 23.2551 2.29102C23.8686 2.87102 24.0951 3 24.6271 3C25.1589 2.99994 25.3858 2.8709 25.9992 2.29102C26.9722 1.37128 27.6276 1 28.8586 1L29.1799 1.00879Z" fill="#2E42A5"/>
<rect width="14" height="12" fill="#2E42A5"/>
<g clip-path="url(#clip1_299_35363)">
<rect width="14" height="10" fill="#2E42A5"/>
<path d="M-1.11444 9.88908L1.9663 11.2402L14.5143 1.24713L16.1394 -0.760729L12.845 -1.21233L7.72691 3.09399L3.6074 5.99544L-1.11444 9.88908Z" fill="#F7FCFF"/>
<path d="M-0.692688 10.835L0.876806 11.6191L15.5558 -0.947971H13.3521L-0.692688 10.835Z" fill="#F50100"/>
<path d="M15.1144 9.88908L12.0337 11.2402L-0.51434 1.24713L-2.13936 -0.760729L1.15505 -1.21233L6.27309 3.09399L10.3926 5.99544L15.1144 9.88908Z" fill="#F7FCFF"/>
<path d="M15.0093 10.5675L13.4398 11.3516L7.18937 5.97093L5.33624 5.36976L-2.29571 -0.754872H-0.0919542L7.5357 5.22439L9.56177 5.94525L15.0093 10.5675Z" fill="#F50100"/>
<path fill-rule="evenodd" clip-rule="evenodd" d="M7.76573 -0.445312H6.21018V4.22135H0V5.77691H6.21018V10.4436H7.76573V5.77691H14V4.22135H7.76573V-0.445312Z" fill="#F50100"/>
<path fill-rule="evenodd" clip-rule="evenodd" d="M5.04351 -0.445312H8.9324V3.05469H14V6.94358H8.9324L8.94444 10.4436H5.05556L5.04351 6.94358H0V3.05469H5.04351V-0.445312ZM6.21018 4.22135H0V5.77691H6.21018V10.4436H7.76573V5.77691H14V4.22135H7.76573V-0.445312H6.21018V4.22135Z" fill="#F7FCFF"/>
</g>
<rect x="20.4" y="9.37695" width="1" height="12.6214" rx="0.5" fill="#D86D00"/>
<mask id="path-12-outside-1_299_35363" maskUnits="userSpaceOnUse" x="14.5125" y="0.0566406" width="12" height="12" fill="black">
<rect fill="white" x="14.5125" y="0.0566406" width="12" height="12"/>
<path fill-rule="evenodd" clip-rule="evenodd" d="M20.4043 2.05664C21.2315 3.19114 21.5707 4.53183 21.6012 5.89584C22.5351 4.63035 24.0928 3.59655 24.8212 3.15445C24.1528 3.62188 23.8056 4.31487 23.415 5.09463C23.2233 5.47731 23.0211 5.88089 22.7654 6.28897C24.357 5.7172 25.9379 5.5704 25.9379 5.5704C24.8773 5.87135 23.8989 6.4858 22.9483 7.08285L22.9483 7.08286L22.9482 7.0829L22.9481 7.08297L22.948 7.08304C22.6012 7.30084 22.2581 7.51632 21.916 7.71341C24.9878 8.87039 25.4603 10.5436 25.4603 10.5436C25.0838 10.2112 24.2714 9.85547 22.7372 9.18374L22.7369 9.1836C22.443 9.05493 22.1227 8.91466 21.7738 8.76075C22.0029 9.60447 22.2809 10.2645 22.5462 10.8946L22.6251 11.0823C22.6251 11.0823 20.4995 10.5084 20.0957 8.86044C18.9033 9.81804 17.6148 10.3631 17.0104 10.5791C17.0104 10.5791 18.4497 9.01666 19.5067 7.9798C18.1188 7.82335 15.5125 7.69527 15.5125 7.69527L15.6977 7.6512C16.7457 7.40151 18.3672 7.01519 19.853 7.03542C18.2596 6.14259 17.2798 4.93399 16.9787 4.52782C17.2323 4.752 17.9387 5.0327 18.9026 5.41571C19.3094 5.57736 19.762 5.75723 20.2459 5.95878C20.338 4.27483 20.4043 2.05664 20.4043 2.05664ZM16.8792 4.38816C16.8892 4.43232 16.9231 4.47872 16.9787 4.52782C16.9126 4.43866 16.8792 4.38816 16.8792 4.38816ZM25.2195 2.92286C25.0747 2.99206 24.9426 3.06953 24.8212 3.15445C25.0679 3.00472 25.2195 2.92286 25.2195 2.92286ZM20.6896 7.01542C20.7515 6.98794 20.8201 6.97267 20.8922 6.97267C20.9301 6.97267 20.967 6.97689 21.0025 6.98488C21.0129 6.95533 21.0238 6.92585 21.0352 6.89642L20.704 6.91923L20.6896 7.01542Z"/>
</mask>
<path fill-rule="evenodd" clip-rule="evenodd" d="M20.4043 2.05664C21.2315 3.19114 21.5707 4.53183 21.6012 5.89584C22.5351 4.63035 24.0928 3.59655 24.8212 3.15445C24.1528 3.62188 23.8056 4.31487 23.415 5.09463C23.2233 5.47731 23.0211 5.88089 22.7654 6.28897C24.357 5.7172 25.9379 5.5704 25.9379 5.5704C24.8773 5.87135 23.8989 6.4858 22.9483 7.08285L22.9483 7.08286L22.9482 7.0829L22.9481 7.08297L22.948 7.08304C22.6012 7.30084 22.2581 7.51632 21.916 7.71341C24.9878 8.87039 25.4603 10.5436 25.4603 10.5436C25.0838 10.2112 24.2714 9.85547 22.7372 9.18374L22.7369 9.1836C22.443 9.05493 22.1227 8.91466 21.7738 8.76075C22.0029 9.60447 22.2809 10.2645 22.5462 10.8946L22.6251 11.0823C22.6251 11.0823 20.4995 10.5084 20.0957 8.86044C18.9033 9.81804 17.6148 10.3631 17.0104 10.5791C17.0104 10.5791 18.4497 9.01666 19.5067 7.9798C18.1188 7.82335 15.5125 7.69527 15.5125 7.69527L15.6977 7.6512C16.7457 7.40151 18.3672 7.01519 19.853 7.03542C18.2596 6.14259 17.2798 4.93399 16.9787 4.52782C17.2323 4.752 17.9387 5.0327 18.9026 5.41571C19.3094 5.57736 19.762 5.75723 20.2459 5.95878C20.338 4.27483 20.4043 2.05664 20.4043 2.05664ZM16.8792 4.38816C16.8892 4.43232 16.9231 4.47872 16.9787 4.52782C16.9126 4.43866 16.8792 4.38816 16.8792 4.38816ZM25.2195 2.92286C25.0747 2.99206 24.9426 3.06953 24.8212 3.15445C25.0679 3.00472 25.2195 2.92286 25.2195 2.92286ZM20.6896 7.01542C20.7515 6.98794 20.8201 6.97267 20.8922 6.97267C20.9301 6.97267 20.967 6.97689 21.0025 6.98488C21.0129 6.95533 21.0238 6.92585 21.0352 6.89642L20.704 6.91923L20.6896 7.01542Z" fill="#449A01"/>
<path d="M21.6012 5.89584L21.2513 5.90365L21.2742 6.92845L21.8828 6.10366L21.6012 5.89584ZM20.4043 2.05664L20.6871 1.85043L20.0849 1.02468L20.0544 2.04618L20.4043 2.05664ZM23.415 5.09463L23.1021 4.93787V4.93787L23.415 5.09463ZM22.7654 6.28897L22.4688 6.1031L21.9315 6.96044L22.8837 6.61836L22.7654 6.28897ZM25.9379 5.5704L26.0334 5.9071L25.9055 5.2219L25.9379 5.5704ZM22.9483 7.08285L22.7621 6.78645L22.7547 6.7911L22.7476 6.79611L22.9483 7.08285ZM22.9483 7.08286L23.1358 7.37837L23.1425 7.37413L23.149 7.36959L22.9483 7.08286ZM22.9482 7.0829L23.1356 7.37853L23.1357 7.37842L22.9482 7.0829ZM22.9481 7.08297L23.1339 7.37957L23.1355 7.37859L22.9481 7.08297ZM22.948 7.08304L22.7621 6.78644L22.7618 6.78665L22.948 7.08304ZM21.916 7.71341L21.7413 7.41015L21.0995 7.7799L21.7926 8.04095L21.916 7.71341ZM25.4603 10.5436L25.2287 10.806L26.1205 11.5932L25.7972 10.4485L25.4603 10.5436ZM22.7372 9.18374L22.8776 8.86313L22.8774 8.86304L22.7372 9.18374ZM22.7369 9.1836L22.5965 9.50421L22.5967 9.5043L22.7369 9.1836ZM21.7738 8.76075L21.9151 8.44053L21.2438 8.14432L21.4361 8.85247L21.7738 8.76075ZM22.5462 10.8946L22.8688 10.7589L22.8687 10.7588L22.5462 10.8946ZM22.6251 11.0823L22.5338 11.4202L23.2253 11.6069L22.9477 10.9466L22.6251 11.0823ZM20.0957 8.86044L20.4356 8.77714L20.3049 8.24354L19.8765 8.58754L20.0957 8.86044ZM17.0104 10.5791L16.753 10.3419L17.1282 10.9087L17.0104 10.5791ZM19.5067 7.9798L19.7518 8.22966L20.277 7.71442L19.5459 7.632L19.5067 7.9798ZM15.5125 7.69527L15.4315 7.35476L15.4953 8.04484L15.5125 7.69527ZM15.6977 7.6512L15.7787 7.99171L15.7789 7.99167L15.6977 7.6512ZM19.853 7.03542L19.8483 7.38539L20.0241 6.73008L19.853 7.03542ZM18.9026 5.41571L19.0318 5.09045H19.0318L18.9026 5.41571ZM20.2459 5.95878L20.1113 6.28187L20.5683 6.47224L20.5953 5.97789L20.2459 5.95878ZM16.8792 4.38816L17.1711 4.1951L16.5379 4.46605L16.8792 4.38816ZM25.2195 2.92286L25.3858 3.23082L25.0686 2.60706L25.2195 2.92286ZM20.6896 7.01542L20.3434 6.96375L20.2494 7.59366L20.8316 7.33534L20.6896 7.01542ZM21.0025 6.98488L20.9256 7.32633L21.2293 7.39472L21.3326 7.10113L21.0025 6.98488ZM21.0352 6.89642L21.3617 7.02238L21.5595 6.50948L21.0111 6.54725L21.0352 6.89642ZM20.704 6.91923L20.6799 6.57006L20.3993 6.58938L20.3578 6.86756L20.704 6.91923ZM21.6012 5.89584L21.9511 5.88803C21.9195 4.47222 21.5667 3.05672 20.6871 1.85043L20.4043 2.05664L20.1215 2.26285C20.8964 3.32556 21.222 4.59144 21.2513 5.90365L21.6012 5.89584ZM24.8212 3.15445L24.6396 2.85524C23.9066 3.30015 22.297 4.36344 21.3196 5.68802L21.6012 5.89584L21.8828 6.10366C22.7731 4.89726 24.279 3.89294 25.0028 3.45365L24.8212 3.15445ZM23.415 5.09463L23.7279 5.25139C24.126 4.45671 24.4381 3.84947 25.0218 3.44127L24.8212 3.15445L24.6206 2.86763C23.8675 3.3943 23.4852 4.17302 23.1021 4.93787L23.415 5.09463ZM22.7654 6.28897L23.062 6.47483C23.3279 6.05054 23.537 5.63249 23.7279 5.25139L23.415 5.09463L23.1021 4.93787C22.9096 5.32212 22.7144 5.71124 22.4688 6.1031L22.7654 6.28897ZM25.9379 5.5704C25.9055 5.2219 25.9055 5.2219 25.9054 5.22191C25.9054 5.22191 25.9053 5.22191 25.9053 5.22192C25.9052 5.22193 25.905 5.22194 25.9049 5.22196C25.9046 5.22199 25.9042 5.22203 25.9037 5.22207C25.9027 5.22217 25.9013 5.2223 25.8995 5.22247C25.896 5.22282 25.8909 5.22332 25.8844 5.22397C25.8714 5.22529 25.8526 5.22726 25.8283 5.22995C25.7798 5.23532 25.7095 5.24357 25.6205 5.25524C25.4425 5.27858 25.1894 5.31566 24.8858 5.37093C24.28 5.48121 23.4668 5.66508 22.6471 5.95958L22.7654 6.28897L22.8837 6.61836C23.6555 6.34108 24.4286 6.16566 25.0112 6.05961C25.3018 6.00671 25.5433 5.97135 25.7115 5.9493C25.7956 5.93827 25.8612 5.93059 25.9054 5.9257C25.9275 5.92325 25.9442 5.92151 25.9551 5.9204C25.9606 5.91984 25.9646 5.91944 25.9671 5.9192C25.9684 5.91907 25.9693 5.91899 25.9698 5.91894C25.9701 5.91891 25.9703 5.9189 25.9703 5.91889C25.9704 5.91889 25.9704 5.91889 25.9704 5.91889C25.9704 5.91889 25.9703 5.91889 25.9703 5.91889C25.9703 5.91889 25.9703 5.9189 25.9379 5.5704ZM22.9483 7.08285L23.1344 7.37924C24.0937 6.77675 25.0296 6.19197 26.0334 5.9071L25.9379 5.5704L25.8424 5.23369C24.7251 5.55073 23.7041 6.19484 22.7621 6.78645L22.9483 7.08285ZM22.9483 7.08286L23.149 7.36959L23.149 7.36958L22.9483 7.08285L22.7476 6.79611L22.7476 6.79612L22.9483 7.08286ZM22.9482 7.0829L23.1357 7.37842L23.1358 7.37837L22.9483 7.08286L22.7607 6.78734L22.7607 6.78739L22.9482 7.0829ZM22.9481 7.08297L23.1355 7.37859L23.1356 7.37853L22.9482 7.0829L22.7608 6.78728L22.7607 6.78734L22.9481 7.08297ZM22.948 7.08304L23.1338 7.37964L23.1339 7.37957L22.9481 7.08297L22.7623 6.78637L22.7621 6.78644L22.948 7.08304ZM21.916 7.71341L22.0907 8.01667C22.4396 7.81568 22.7884 7.59657 23.1341 7.37944L22.948 7.08304L22.7618 6.78665C22.414 7.00511 22.0766 7.21696 21.7413 7.41015L21.916 7.71341ZM25.4603 10.5436C25.7972 10.4485 25.7971 10.4482 25.797 10.4479C25.797 10.4478 25.7969 10.4476 25.7968 10.4474C25.7967 10.447 25.7966 10.4466 25.7965 10.4461C25.7962 10.4453 25.796 10.4443 25.7956 10.4432C25.795 10.4411 25.7942 10.4385 25.7933 10.4355C25.7915 10.4296 25.7891 10.4221 25.7861 10.4131C25.78 10.395 25.7714 10.3708 25.7596 10.3411C25.7362 10.2817 25.7004 10.2001 25.648 10.1007C25.5432 9.90194 25.3721 9.63303 25.1013 9.32939C24.5583 8.72065 23.6234 7.9825 22.0394 7.38588L21.916 7.71341L21.7926 8.04095C23.2804 8.6013 24.1176 9.27824 24.5789 9.79534C24.8102 10.0546 24.9492 10.2763 25.0289 10.4274C25.0688 10.503 25.094 10.5612 25.1084 10.5978C25.1156 10.6161 25.1201 10.629 25.1225 10.636C25.1237 10.6395 25.1243 10.6415 25.1244 10.642C25.1245 10.6422 25.1245 10.6421 25.1243 10.6415C25.1242 10.6412 25.1241 10.6409 25.124 10.6404C25.1239 10.6402 25.1238 10.6399 25.1238 10.6396C25.1237 10.6395 25.1237 10.6393 25.1236 10.6392C25.1236 10.639 25.1235 10.6387 25.4603 10.5436ZM22.7372 9.18374L22.5969 9.50436C23.3666 9.84138 23.9458 10.095 24.3801 10.3058C24.8204 10.5194 25.0793 10.6741 25.2287 10.806L25.4603 10.5436L25.692 10.2812C25.4648 10.0807 25.1292 9.89125 24.6857 9.67602C24.2361 9.45788 23.642 9.19783 22.8776 8.86313L22.7372 9.18374ZM22.7369 9.1836L22.5967 9.5043L22.5971 9.50445L22.7372 9.18374L22.8774 8.86304L22.8771 8.86289L22.7369 9.1836ZM21.7738 8.76075L21.6326 9.08097C21.9819 9.23511 22.3027 9.37556 22.5965 9.50421L22.7369 9.1836L22.8773 8.86298C22.5834 8.7343 22.2635 8.59422 21.9151 8.44053L21.7738 8.76075ZM22.5462 10.8946L22.8687 10.7588C22.6034 10.1286 22.3339 9.48781 22.1116 8.66903L21.7738 8.76075L21.4361 8.85247C21.672 9.72112 21.9583 10.4004 22.2236 11.0304L22.5462 10.8946ZM22.6251 11.0823L22.9477 10.9466L22.8688 10.7589L22.5462 10.8946L22.2235 11.0302L22.3024 11.2179L22.6251 11.0823ZM20.0957 8.86044L19.7558 8.94373C19.9901 9.89995 20.716 10.5196 21.3316 10.8894C21.6439 11.0769 21.9413 11.2085 22.1603 11.2933C22.2702 11.3358 22.3613 11.3669 22.426 11.3876C22.4583 11.398 22.4841 11.4058 22.5024 11.4112C22.5115 11.4139 22.5188 11.416 22.5241 11.4175C22.5267 11.4182 22.5289 11.4188 22.5305 11.4193C22.5313 11.4195 22.532 11.4197 22.5326 11.4198C22.5328 11.4199 22.5331 11.42 22.5333 11.42C22.5334 11.4201 22.5335 11.4201 22.5336 11.4201C22.5337 11.4201 22.5338 11.4202 22.6251 11.0823C22.7163 10.7444 22.7164 10.7444 22.7165 10.7444C22.7165 10.7444 22.7166 10.7445 22.7167 10.7445C22.7168 10.7445 22.7168 10.7445 22.7168 10.7445C22.7169 10.7445 22.7168 10.7445 22.7166 10.7444C22.7162 10.7443 22.7153 10.7441 22.7139 10.7437C22.7111 10.7429 22.7064 10.7416 22.6998 10.7396C22.6868 10.7358 22.6665 10.7297 22.6399 10.7211C22.5868 10.7041 22.5087 10.6775 22.413 10.6404C22.2209 10.5661 21.9616 10.4512 21.692 10.2893C21.1439 9.96008 20.6051 9.46884 20.4356 8.77714L20.0957 8.86044ZM17.0104 10.5791L17.1282 10.9087C17.7536 10.6852 19.0813 10.124 20.3148 9.13333L20.0957 8.86044L19.8765 8.58754C18.7253 9.51208 17.4761 10.041 16.8926 10.2495L17.0104 10.5791ZM19.5067 7.9798L19.2616 7.72994C18.7283 8.25308 18.1006 8.90674 17.6079 9.42778C17.3611 9.68869 17.1475 9.91707 16.9956 10.0803C16.9196 10.1619 16.8591 10.2272 16.8174 10.2722C16.7966 10.2947 16.7806 10.3121 16.7697 10.3239C16.7642 10.3298 16.7601 10.3343 16.7573 10.3373C16.7559 10.3388 16.7548 10.34 16.7541 10.3407C16.7537 10.3411 16.7534 10.3414 16.7533 10.3416C16.7532 10.3417 16.7531 10.3418 16.753 10.3419C16.753 10.3419 16.753 10.3419 16.753 10.3419C16.753 10.3419 16.753 10.3419 17.0104 10.5791C17.2678 10.8162 17.2678 10.8162 17.2678 10.8162C17.2678 10.8162 17.2678 10.8162 17.2679 10.8162C17.2679 10.8161 17.268 10.8161 17.268 10.816C17.2682 10.8158 17.2685 10.8155 17.2688 10.8152C17.2695 10.8144 17.2705 10.8133 17.2718 10.8118C17.2746 10.8089 17.2786 10.8045 17.284 10.7987C17.2947 10.7871 17.3105 10.7699 17.3312 10.7477C17.3724 10.7031 17.4325 10.6383 17.508 10.5572C17.6589 10.3951 17.8712 10.1681 18.1165 9.90874C18.6076 9.38936 19.2281 8.74338 19.7518 8.22966L19.5067 7.9798ZM15.5125 7.69527C15.4953 8.04484 15.4953 8.04484 15.4953 8.04484C15.4953 8.04485 15.4953 8.04485 15.4954 8.04485C15.4954 8.04485 15.4956 8.04486 15.4957 8.04487C15.496 8.04488 15.4965 8.0449 15.4971 8.04493C15.4983 8.04499 15.5001 8.04508 15.5026 8.04521C15.5075 8.04545 15.5148 8.04582 15.5245 8.0463C15.5438 8.04727 15.5723 8.04872 15.6092 8.05061C15.6828 8.05441 15.7897 8.06 15.9224 8.06721C16.1877 8.08162 16.5559 8.10247 16.9673 8.12818C17.7922 8.17975 18.783 8.25045 19.4675 8.3276L19.5067 7.9798L19.5459 7.632C18.8424 7.55271 17.8361 7.48113 17.0109 7.42955C16.5972 7.40368 16.2271 7.38273 15.9604 7.36824C15.827 7.36099 15.7194 7.35536 15.6451 7.35154C15.608 7.34963 15.5792 7.34817 15.5596 7.34718C15.5498 7.34669 15.5424 7.34632 15.5373 7.34607C15.5348 7.34594 15.5329 7.34585 15.5316 7.34579C15.531 7.34575 15.5305 7.34573 15.5302 7.34571C15.53 7.34571 15.5299 7.3457 15.5298 7.34569C15.5297 7.34569 15.5297 7.34569 15.5297 7.34569C15.5296 7.34569 15.5296 7.34569 15.5125 7.69527ZM15.6977 7.6512L15.6168 7.3107L15.4315 7.35476L15.5125 7.69527L15.5934 8.03577L15.7787 7.99171L15.6977 7.6512ZM19.853 7.03542L19.8578 6.68545C18.3212 6.66454 16.6576 7.06271 15.6166 7.31073L15.6977 7.6512L15.7789 7.99167C16.8339 7.74031 18.4131 7.36585 19.8483 7.38539L19.853 7.03542ZM16.9787 4.52782L16.6975 4.73625C17.0138 5.16291 18.0285 6.41431 19.6819 7.34075L19.853 7.03542L20.0241 6.73008C18.4907 5.87088 17.5458 4.70508 17.2598 4.31938L16.9787 4.52782ZM18.9026 5.41571L19.0318 5.09045C18.5475 4.89801 18.1374 4.73496 17.8164 4.59235C17.4824 4.44395 17.2911 4.33686 17.2104 4.26555L16.9787 4.52782L16.7469 4.79008C16.9199 4.94296 17.2087 5.08831 17.5322 5.23206C17.8688 5.38159 18.2937 5.5504 18.7733 5.74097L18.9026 5.41571ZM20.2459 5.95878L20.3804 5.63569C19.8936 5.43288 19.4384 5.25201 19.0318 5.09045L18.9026 5.41571L18.7733 5.74097C19.1803 5.90271 19.6305 6.08158 20.1113 6.28187L20.2459 5.95878ZM20.4043 2.05664C20.0544 2.04618 20.0544 2.04619 20.0544 2.0462C20.0544 2.04622 20.0544 2.04624 20.0544 2.04627C20.0544 2.04634 20.0544 2.04643 20.0544 2.04656C20.0544 2.04682 20.0544 2.04722 20.0544 2.04775C20.0543 2.0488 20.0543 2.05039 20.0542 2.05249C20.0541 2.05671 20.0539 2.063 20.0537 2.07129C20.0531 2.08788 20.0524 2.11245 20.0514 2.14434C20.0494 2.20812 20.0465 2.30117 20.0426 2.41811C20.035 2.65201 20.0239 2.98143 20.0098 3.36339C19.9818 4.12773 19.9423 5.10082 19.8964 5.93967L20.2459 5.95878L20.5953 5.97789C20.6416 5.13279 20.6812 4.15481 20.7094 3.38907C20.7234 3.00599 20.7346 2.67561 20.7423 2.44097C20.7461 2.32365 20.7491 2.23025 20.7511 2.16614C20.7521 2.13409 20.7528 2.10936 20.7533 2.09263C20.7536 2.08427 20.7538 2.0779 20.7539 2.07362C20.754 2.07147 20.754 2.06985 20.754 2.06876C20.7541 2.06822 20.7541 2.06781 20.7541 2.06753C20.7541 2.06739 20.7541 2.06728 20.7541 2.06721C20.7541 2.06718 20.7541 2.06715 20.7541 2.06713C20.7541 2.06711 20.7541 2.0671 20.4043 2.05664ZM16.8792 4.38816L16.5379 4.46605C16.5724 4.61721 16.6723 4.72414 16.7469 4.79008L16.9787 4.52782L17.2104 4.26555C17.1962 4.25298 17.1935 4.24835 17.1963 4.25225C17.1991 4.25611 17.2125 4.27573 17.2204 4.31028L16.8792 4.38816ZM16.9787 4.52782L17.2598 4.31938C17.2288 4.27754 17.2058 4.24528 17.191 4.22407C17.1836 4.21346 17.1782 4.20562 17.1749 4.20073C17.1732 4.19829 17.1721 4.19658 17.1715 4.19563C17.1711 4.19516 17.171 4.19488 17.1709 4.19479C17.1709 4.19474 17.1709 4.19474 17.1709 4.1948C17.1709 4.19482 17.1709 4.19486 17.171 4.19491C17.171 4.19494 17.171 4.19496 17.171 4.19499C17.171 4.19501 17.1711 4.19503 17.1711 4.19504C17.1711 4.19505 17.1711 4.19507 17.1711 4.19507C17.1711 4.19508 17.1711 4.1951 16.8792 4.38816C16.5872 4.58122 16.5872 4.58124 16.5872 4.58125C16.5873 4.58126 16.5873 4.58127 16.5873 4.58128C16.5873 4.5813 16.5873 4.58132 16.5873 4.58135C16.5873 4.58139 16.5874 4.58144 16.5874 4.58149C16.5875 4.58159 16.5875 4.5817 16.5876 4.58182C16.5878 4.58207 16.588 4.58237 16.5882 4.58271C16.5887 4.58341 16.5893 4.5843 16.59 4.58538C16.5914 4.58754 16.5934 4.59047 16.5959 4.59416C16.6009 4.60152 16.608 4.61188 16.6172 4.62504C16.6356 4.65137 16.6624 4.68894 16.6975 4.73625L16.9787 4.52782ZM25.2195 2.92286L25.0686 2.60706C24.9066 2.68447 24.7579 2.77161 24.6206 2.86763L24.8212 3.15445L25.0218 3.44127C25.1274 3.36745 25.2428 3.29965 25.3704 3.23866L25.2195 2.92286ZM24.8212 3.15445L25.0028 3.45365C25.1232 3.3806 25.22 3.32432 25.2862 3.28657C25.3193 3.2677 25.3447 3.25347 25.3616 3.24411C25.3701 3.23942 25.3764 3.23596 25.3805 3.23373C25.3825 3.23262 25.384 3.23182 25.3849 3.23133C25.3853 3.23109 25.3856 3.23093 25.3858 3.23084C25.3859 3.2308 25.3859 3.23077 25.3859 3.23077C25.3859 3.23077 25.3859 3.23077 25.3859 3.23078C25.3859 3.23079 25.3859 3.23079 25.3859 3.2308C25.3858 3.2308 25.3858 3.23081 25.3858 3.23081C25.3858 3.23081 25.3858 3.23082 25.2195 2.92286C25.0532 2.6149 25.0532 2.6149 25.0532 2.61491C25.0532 2.61491 25.0531 2.61492 25.0531 2.61493C25.0531 2.61494 25.0531 2.61495 25.0531 2.61497C25.053 2.615 25.0529 2.61503 25.0529 2.61507C25.0527 2.61514 25.0526 2.61524 25.0523 2.61536C25.0519 2.61559 25.0513 2.6159 25.0506 2.6163C25.0492 2.61708 25.0471 2.61819 25.0445 2.61961C25.0393 2.62244 25.0319 2.62654 25.0223 2.63187C25.003 2.64253 24.9752 2.65813 24.9395 2.67844C24.8683 2.71905 24.7659 2.77857 24.6396 2.85524L24.8212 3.15445ZM20.8922 6.97267V6.62267C20.7702 6.62267 20.6534 6.64857 20.5476 6.6955L20.6896 7.01542L20.8316 7.33534C20.8496 7.32731 20.8699 7.32267 20.8922 7.32267V6.97267ZM21.0025 6.98488L21.0794 6.64344C21.0189 6.6298 20.9561 6.62267 20.8922 6.62267V6.97267V7.32267C20.9041 7.32267 20.9152 7.32398 20.9256 7.32633L21.0025 6.98488ZM21.0025 6.98488L21.3326 7.10113C21.3419 7.0749 21.3516 7.04865 21.3617 7.02238L21.0352 6.89642L20.7086 6.77046C20.696 6.80304 20.684 6.83577 20.6724 6.86864L21.0025 6.98488ZM21.0352 6.89642L21.0111 6.54725L20.6799 6.57006L20.704 6.91923L20.728 7.2684L21.0592 7.2456L21.0352 6.89642ZM20.704 6.91923L20.3578 6.86756L20.3434 6.96375L20.6896 7.01542L21.0358 7.06709L21.0501 6.97091L20.704 6.91923Z" fill="white" mask="url(#path-12-outside-1_299_35363)"/>
<path fill-rule="evenodd" clip-rule="evenodd" d="M19.2432 14.9566C19.2432 14.9566 20.1011 14.5109 20.9521 14.6109C20.9521 14.6109 20.9513 14.612 20.9512 14.6139C21.5176 14.5478 22.0779 14.6621 22.6309 14.9566C23.2071 14.9568 23.7586 15.1845 24.2852 15.6393V15.8199L23.252 17.068C23.0455 17.7569 22.6773 17.793 22.3906 17.9078C22.2941 17.9457 20.9482 17.9908 20.9482 17.9908C20.9482 17.9908 20.9482 17.9893 20.9482 17.9869C18.9123 18.2693 18.6221 17.068 18.6221 17.068L17.5889 15.8199V15.6393C17.5987 15.6308 18.3841 14.9568 19.2432 14.9566Z" fill="#F50100"/>
<path fill-rule="evenodd" clip-rule="evenodd" d="M20.0371 13.627C20.3441 13.627 20.5932 13.71 20.7812 13.8779V13.7695H21.1913V13.832C21.368 13.7076 21.5897 13.6455 21.8544 13.6455C22.379 13.6455 22.6501 13.8251 22.7958 14.2891V14.2617C23.3756 14.2335 23.8153 14.3053 24.1171 14.4824C24.4597 14.6837 24.5168 15.1509 24.3163 15.8379L24.124 15.7559C24.2943 15.1721 24.2524 14.8364 24.0273 14.7041C23.7686 14.5522 23.3747 14.4847 22.8476 14.5059C22.8856 14.8099 22.7781 15.0846 22.5322 15.3145L22.4072 15.1191C22.627 14.9135 22.6949 14.6927 22.6249 14.4346C22.5151 14.0296 22.3225 13.8926 21.8544 13.8926C21.5636 13.8926 21.3442 13.9741 21.1913 14.1338V15.3711H20.996C21.0289 15.4092 21.0569 15.4587 21.0683 15.5176C21.0799 15.5777 21.0707 15.6345 21.0537 15.6826C21.0806 15.6756 21.1094 15.6709 21.1396 15.6709C21.2808 15.6709 21.3961 15.7536 21.3964 15.8555C21.3964 15.9576 21.281 16.041 21.1396 16.041C21.1046 16.041 21.0713 16.0356 21.041 16.0264C21.0515 16.2821 21.1656 16.4432 21.3339 16.4434C21.4576 16.4434 21.5453 16.3755 21.6083 16.2256L21.7831 15.8096L21.8017 16.2754C21.8083 16.4394 21.868 16.5049 22.0156 16.5049C22.1666 16.5047 22.2731 16.3855 22.3427 16.1172L22.3632 16.0342C22.3109 16.0692 22.2369 16.0874 22.1572 16.0762C22.0172 16.0565 21.9155 15.9585 21.9296 15.8574C21.9438 15.7563 22.0689 15.6903 22.2089 15.71C22.2447 15.715 22.278 15.7252 22.3076 15.7393C22.2976 15.7105 22.2908 15.6789 22.289 15.6455C22.2816 15.5043 22.3589 15.3852 22.4609 15.3799C22.5626 15.3749 22.6507 15.4851 22.6581 15.626C22.6615 15.6904 22.6461 15.7494 22.6201 15.7959C22.6503 15.7916 22.6826 15.7912 22.7158 15.7959C22.8557 15.8156 22.9575 15.9136 22.9433 16.0146C22.9288 16.1155 22.8038 16.1818 22.664 16.1621C22.6163 16.1554 22.5748 16.1362 22.539 16.1143L22.5419 16.1436C22.5647 16.4502 22.6343 16.5941 22.7372 16.6143C22.8774 16.6417 22.9842 16.6285 23.0585 16.5801L23.2089 16.4814V16.6494C23.2564 16.6555 23.3386 16.6444 23.4501 16.6152L23.4814 16.7949L23.8486 16.3789C23.8176 16.3903 23.7855 16.3942 23.7548 16.3848C23.7405 16.3804 23.7277 16.3728 23.7158 16.3643C23.7137 16.37 23.7128 16.3764 23.7099 16.3818C23.6619 16.4719 23.5212 16.4912 23.3964 16.4248C23.2718 16.3585 23.2101 16.2317 23.2578 16.1416C23.3057 16.0515 23.4455 16.0314 23.5703 16.0977C23.5979 16.1124 23.6215 16.1318 23.6425 16.1514C23.6448 16.13 23.6466 16.1079 23.6533 16.0859C23.6946 15.9507 23.8076 15.8647 23.9052 15.8945C24.0026 15.9245 24.048 16.0583 24.0068 16.1934C24.0051 16.1989 24.0009 16.2036 23.999 16.209L24.2372 15.9404L24.3076 16.0293L23.3681 17.0928C23.2311 17.3964 23.1621 17.5974 23.1621 17.6807C23.1621 17.8077 22.8874 17.8835 22.3515 17.9609C21.9315 18.0216 21.4356 18.0603 21.0302 18.0664V18.0693C21.0132 18.0693 20.9959 18.0675 20.9785 18.0674C20.9613 18.0675 20.9444 18.0693 20.9277 18.0693V18.0664C20.5223 18.0603 20.0263 18.0216 19.6064 17.9609C19.0706 17.8835 18.7958 17.8077 18.7958 17.6807C18.7958 17.6624 18.7908 17.6389 18.7841 17.6094C18.7358 17.5297 18.7018 17.4087 18.6777 17.2959C18.6525 17.2346 18.623 17.1664 18.5898 17.0928L18.3818 16.8574C18.3802 16.857 18.3785 16.8569 18.3769 16.8564V16.8516L18.0019 16.4268C17.9157 16.4259 17.8276 16.3477 17.7919 16.2314C17.7866 16.214 17.7857 16.1959 17.7831 16.1787L17.6513 16.0293L17.7206 15.9404L17.7968 16.0273C17.8165 15.9809 17.8494 15.9461 17.8935 15.9326C17.9911 15.9028 18.1041 15.9879 18.1455 16.123C18.1521 16.1448 18.1519 16.1672 18.1542 16.1885C18.1754 16.1687 18.2005 16.1506 18.2285 16.1357C18.3531 16.0696 18.493 16.0888 18.541 16.1787C18.5889 16.2689 18.5261 16.3955 18.4013 16.4619C18.3376 16.4958 18.2702 16.5069 18.2128 16.498L18.4023 16.7119L18.4199 16.6152C18.5314 16.6444 18.6136 16.6555 18.6611 16.6494V16.4814L18.8124 16.5801C18.8867 16.6283 18.9928 16.6416 19.1328 16.6143C19.2357 16.5941 19.3053 16.4502 19.3281 16.1436L19.3369 16.0293C19.3063 16.1067 19.2088 16.1641 19.0917 16.1641C18.9506 16.1639 18.8361 16.0814 18.8359 15.9795C18.8359 15.8775 18.9505 15.7941 19.0917 15.7939C19.135 15.7939 19.1751 15.8047 19.2109 15.8184C19.1923 15.787 19.1767 15.7511 19.1689 15.7109C19.142 15.5722 19.2015 15.4443 19.3017 15.4248C19.4019 15.4054 19.5052 15.5019 19.5322 15.6406C19.5438 15.7007 19.5355 15.7575 19.5185 15.8057C19.5453 15.7988 19.5744 15.7939 19.6044 15.7939C19.7456 15.7941 19.8603 15.8775 19.8603 15.9795C19.86 16.0813 19.7455 16.1639 19.6044 16.1641C19.5817 16.1641 19.56 16.1583 19.539 16.1543C19.6087 16.3968 19.7113 16.5049 19.8554 16.5049C20.0028 16.5048 20.0617 16.4393 20.0683 16.2754L20.0869 15.8096L20.2626 16.2256C20.3257 16.3753 20.4125 16.4434 20.5361 16.4434C20.7129 16.4433 20.831 16.2657 20.831 15.9873H20.9609C20.9136 15.9538 20.8837 15.9071 20.8837 15.8555C20.8838 15.8378 20.888 15.8209 20.8945 15.8047C20.8862 15.8038 20.8782 15.8021 20.8701 15.7998C20.878 15.8176 20.8837 15.8358 20.8837 15.8555C20.8837 15.9576 20.7693 16.041 20.6279 16.041C20.4866 16.041 20.372 15.9575 20.372 15.8555C20.3723 15.7536 20.4868 15.671 20.6279 15.6709C20.6716 15.6709 20.712 15.6814 20.748 15.6953C20.7292 15.6639 20.7129 15.6283 20.705 15.5879C20.6836 15.4779 20.7168 15.375 20.7812 15.3271V15.1973H20.7001V14.1143C20.5474 13.9546 20.3277 13.8731 20.0371 13.873C19.5688 13.873 19.3764 14.0108 19.2665 14.416C19.1966 14.6742 19.2642 14.8949 19.4843 15.1006L19.3583 15.2949C19.0849 15.0392 18.9822 14.7283 19.0615 14.3828C18.5311 14.3608 18.1347 14.4285 17.8749 14.5811C17.65 14.7134 17.6089 15.0493 17.7792 15.6328L17.5859 15.7139C17.3855 15.0272 17.4428 14.5607 17.7851 14.3594C18.087 14.182 18.5272 14.1094 19.1074 14.1377L19.1035 14.2402C19.2515 13.7981 19.5236 13.627 20.0371 13.627ZM20.9228 17.418C20.6548 17.4385 19.1776 17.5577 18.954 17.6836C18.9508 17.6854 18.9465 17.685 18.9433 17.6865C18.9764 17.7012 19.0215 17.7188 19.0781 17.7344C19.2098 17.7705 19.3972 17.8058 19.6191 17.8379C20.0528 17.9006 20.5684 17.9401 20.9785 17.9434C21.3887 17.9402 21.9047 17.9006 22.3388 17.8379C22.561 17.8058 22.7491 17.7705 22.8808 17.7344C22.9477 17.716 22.9994 17.6977 23.0331 17.6807C23.0451 17.6746 23.0545 17.6688 23.0605 17.6641C23.0618 17.6417 23.067 17.6161 23.0732 17.5869C23.0263 17.6751 22.9693 17.7268 22.8925 17.6836C22.6686 17.5575 21.1873 17.4382 20.9228 17.418ZM22.4003 16.5234C22.3199 16.6467 22.2173 16.7199 22.0947 16.7422C22.7543 16.8541 23.2177 17.0117 23.2177 17.0117C23.2172 17.0174 23.1994 17.1448 23.1689 17.2891C23.1999 17.2112 23.2379 17.1233 23.2822 17.0254L23.2919 17.0107L23.413 16.873C23.244 16.9094 23.1223 16.9087 23.0576 16.8457C22.9571 16.8809 22.8386 16.8838 22.704 16.8574C22.5605 16.8292 22.4605 16.7142 22.4003 16.5234ZM19.4697 16.5234C19.4094 16.7142 19.3097 16.8293 19.166 16.8574C19.0316 16.8837 18.9138 16.8807 18.8134 16.8457C18.7626 16.8955 18.6762 16.9051 18.5595 16.8906L18.6581 17.002C18.7692 16.966 19.1943 16.836 19.7636 16.7402C19.6462 16.7153 19.5474 16.6427 19.4697 16.5234ZM21.6581 16.5488C21.6065 16.6036 21.5464 16.6401 21.4804 16.6631C21.5882 16.6728 21.6937 16.6828 21.7958 16.6963C21.7381 16.6622 21.6914 16.6131 21.6581 16.5488ZM20.2119 16.5488C20.1797 16.6108 20.135 16.6585 20.08 16.6924C20.1785 16.6797 20.2801 16.6703 20.3837 16.6611C20.3202 16.6379 20.2619 16.602 20.2119 16.5488ZM20.9345 16.4258C20.8852 16.5179 20.8212 16.5906 20.7412 16.6357C20.7881 16.6341 20.8353 16.6344 20.8828 16.6338V16.6328H20.9648V16.6338C21.0205 16.6345 21.0758 16.6355 21.1308 16.6377C21.0497 16.5926 20.9843 16.519 20.9345 16.4258ZM19.3427 15.9404L19.3437 15.9248C19.3407 15.9242 19.3378 15.9237 19.3349 15.9229C19.3375 15.9287 19.3409 15.9343 19.3427 15.9404Z" fill="#FECA00"/>
<path d="M19.1327 14.0387L19.1309 14.1619C18.223 14.1428 17.7021 14.3023 17.5699 14.6201C17.4332 14.9487 17.4587 15.3481 17.6502 15.8226L17.5581 15.8765C17.3537 15.3702 17.3258 14.9316 17.4784 14.5649C17.6354 14.1875 18.1863 14.0188 19.1327 14.0387Z" fill="white"/>
<path d="M19.3084 15.1312L19.2559 15.237C19.0582 15.0949 18.9592 14.8525 18.9592 14.5183C18.9592 14.038 19.1648 13.7564 19.6195 13.5637C19.9097 13.4407 20.3062 13.4911 20.81 13.7109L20.7751 13.8268C20.2914 13.6157 19.9172 13.5681 19.6535 13.6799C19.2365 13.8567 19.0616 14.0962 19.0616 14.5183C19.0616 14.8115 19.1438 15.0129 19.3084 15.1312Z" fill="white"/>
<path d="M22.7061 14.1617L22.7079 14.2849C23.6159 14.2659 24.1367 14.4253 24.2689 14.7432C24.4056 15.0717 24.3802 15.4712 24.1887 15.9457L24.2808 15.9995C24.4851 15.4933 24.513 15.0547 24.3605 14.688C24.2035 14.3105 23.6525 14.1418 22.7061 14.1617Z" fill="white"/>
<path d="M22.3855 15.1566L22.438 15.2624C22.6357 15.1203 22.7347 14.8779 22.7347 14.5437C22.7347 14.0634 22.5291 13.7818 22.0744 13.589C21.7842 13.466 21.3877 13.5165 20.8839 13.7363L20.9188 13.8522C21.4025 13.6411 21.7767 13.5935 22.0404 13.7053C22.4575 13.8821 22.6323 14.1216 22.6323 14.5437C22.6323 14.8369 22.5501 15.0383 22.3855 15.1566Z" fill="white"/>
</g>
</g>
<defs>
<clipPath id="clip0_299_35363">
<rect width="32" height="24" fill="white"/>
</clipPath>
<clipPath id="clip1_299_35363">
<rect width="14" height="10" fill="white"/>
</clipPath>
</defs>
</svg>
