<svg width="32" height="24" viewBox="0 0 32 24" fill="none" xmlns="http://www.w3.org/2000/svg">
<g clip-path="url(#clip0_299_35367)">
<rect width="32" height="24" fill="white"/>
<path fill-rule="evenodd" clip-rule="evenodd" d="M0 0V24H32V0H0Z" fill="#F7FCFF"/>
<mask id="mask0_299_35367" style="mask-type:luminance" maskUnits="userSpaceOnUse" x="0" y="0" width="32" height="24">
<path fill-rule="evenodd" clip-rule="evenodd" d="M0 0V24H32V0H0Z" fill="white"/>
</mask>
<g mask="url(#mask0_299_35367)">
<path fill-rule="evenodd" clip-rule="evenodd" d="M0 0V8H32V0H0Z" fill="#5EAA22"/>
<path fill-rule="evenodd" clip-rule="evenodd" d="M0 16V24H32V16H0Z" fill="#E31D1C"/>
<path d="M1.17188 17.9844H1.18164V16.6875H1.54004V17.9912H1.5957V16.7842H1.9541V18.626H1.39258V18.6191H0.813477V17.7314H0.358398V17.9844H0.56543V18.6191H0V17.0977H0.813477V16.6875H1.17188V17.9844ZM5.17188 17.9844H5.18164V16.6875H5.54004V17.9912H5.5957V16.7842H5.9541V18.626H5.39258V18.6191H4.81348V17.7314H4.3584V17.9844H4.56543V18.6191H4V17.0977H4.81348V16.6875H5.17188V17.9844ZM9.24316 17.9844H9.25293V16.6875H9.61133V17.9912H9.66699V16.7842H10.0254V18.626H9.46387V18.6191H8.88477V17.7314H8.42969V17.9844H8.63672V18.6191H8.07129V17.0977H8.88477V16.6875H9.24316V17.9844ZM13.2432 17.9844H13.252V16.6875H13.6113V17.9912H13.666V16.7842H14.0254V18.626H13.4639V18.6191H12.8838V17.7314H12.4297V17.9844H12.6367V18.6191H12.0703V17.0977H12.8838V16.6875H13.2432V17.9844ZM17.2422 17.9844H17.252V16.6875H17.6104V17.9912H17.666V16.7842H18.0244V18.626H17.4639V18.6191H16.8838V17.7314H16.4287V17.9844H16.6357V18.6191H16.0703V17.0977H16.8838V16.6875H17.2422V17.9844ZM21.3135 17.9844H21.3232V16.6875H21.6816V17.9912H21.7373V16.7842H22.0957V18.626H21.5342V18.6191H20.9551V17.7314H20.5V17.9844H20.707V18.6191H20.1416V17.0977H20.9551V16.6875H21.3135V17.9844ZM25.3848 17.9844H25.3945V16.6875H25.7529V17.9912H25.8086V16.7842H26.167V18.626H25.6055V18.6191H25.0264V17.7314H24.5713V17.9844H24.7783V18.6191H24.2129V17.0977H25.0264V16.6875H25.3848V17.9844ZM29.4561 17.9844H29.4658V16.6875H29.8242V17.9912H29.8799V16.7842H30.2383V18.626H29.6768V18.6191H29.0977V17.7314H28.6426V17.9844H28.8496V18.6191H28.2842V17.0977H29.0977V16.6875H29.4561V17.9844ZM33.4561 17.9844H33.4648V16.6875H33.8242V17.9912H33.8799V16.7842H34.2383V18.626H33.6768V18.6191H33.0977V17.7314H32.6426V17.9844H32.8496V18.6191H32.2842V17.0977H33.0977V16.6875H33.4561V17.9844ZM37.6699 17.9844H37.6797V16.6875H38.0381V17.9912H38.0938V16.7842H38.4521V18.626H37.8906V18.6191H37.3115V17.7314H36.8564V17.9844H37.0635V18.6191H36.498V17.0977H37.3115V16.6875H37.6699V17.9844ZM3.18359 17.9912H3.5918V17.7129H3.37402V17.0791H3.9502V18.625H2.8252V17.7119H2.4248V18.3398H2.06641V17.0781H3.18359V17.9912ZM7.18359 17.9912H7.5918V17.7129H7.37305V17.0791H7.9502V18.625H6.8252V17.7119H6.4248V18.3398H6.06641V17.0781H7.18359V17.9912ZM11.2549 17.9912H11.6631V17.7129H11.4443V17.0791H12.0215V18.625H10.8965V17.7119H10.4961V18.3398H10.1377V17.0781H11.2549V17.9912ZM15.2549 17.9912H15.6631V17.7129H15.4443V17.0791H16.0215V18.625H14.8955V17.7119H14.4961V18.3398H14.1377V17.0781H15.2549V17.9912ZM19.2549 17.9912H19.6621V17.7129H19.4443V17.0791H20.0215V18.625H18.8955V17.7119H18.4961V18.3398H18.1367V17.0781H19.2549V17.9912ZM23.3252 17.9912H23.7334V17.7129H23.5156V17.0791H24.0928V18.625H22.9668V17.7119H22.5674V18.3398H22.208V17.0781H23.3252V17.9912ZM27.3965 17.9912H27.8047V17.7129H27.5859V17.0791H28.1631V18.625H27.0381V17.7119H26.6377V18.3398H26.2793V17.0781H27.3965V17.9912ZM31.4678 17.9912H31.876V17.7129H31.6572V17.0791H32.2344V18.625H31.1094V17.7119H30.709V18.3398H30.3506V17.0781H31.4678V17.9912ZM35.4678 17.9912H35.876V17.7129H35.6572V17.0791H36.2344V18.625H35.1094V17.7119H34.709V18.3398H34.3506V17.0781H35.4678V17.9912ZM39.6816 17.9912H40.0898V17.7129H39.8711V17.0791H40.4482V18.625H39.3232V17.7119H38.9229V18.3398H38.5645V17.0781H39.6816V17.9912ZM4.60059 17.0264H2.26953V16.3926H4.60059V17.0264ZM8.60059 17.0264H6.26953V16.3926H8.60059V17.0264ZM12.6719 17.0264H10.3408V16.3926H12.6719V17.0264ZM16.6709 17.0264H14.3408V16.3926H16.6709V17.0264ZM20.6709 17.0264H18.3408V16.3926H20.6709V17.0264ZM24.7422 17.0264H22.4111V16.3926H24.7422V17.0264ZM28.8135 17.0264H26.4824V16.3926H28.8135V17.0264ZM32.8848 17.0264H30.5537V16.3926H32.8848V17.0264ZM36.8848 17.0264H34.5537V16.3926H36.8848V17.0264ZM41.0986 17.0264H38.7676V16.3926H41.0986V17.0264Z" fill="#F7FCFF"/>
<path d="M-2.94421 6.98438H-2.93445V5.6875H-2.57605V6.99121H-2.52039V5.78418H-2.16199V7.62598H-2.72351V7.61914H-3.30261V6.73145H-3.75769V6.98438H-3.55066V7.61914H-4.11609V6.09766H-3.30261V5.6875H-2.94421V6.98438ZM1.05579 6.98438H1.06555V5.6875H1.42395V6.99121H1.47961V5.78418H1.83801V7.62598H1.27649V7.61914H0.697388V6.73145H0.24231V6.98438H0.449341V7.61914H-0.116089V6.09766H0.697388V5.6875H1.05579V6.98438ZM5.12708 6.98438H5.13684V5.6875H5.49524V6.99121H5.5509V5.78418H5.9093V7.62598H5.34778V7.61914H4.76868V6.73145H4.3136V6.98438H4.52063V7.61914H3.9552V6.09766H4.76868V5.6875H5.12708V6.98438ZM9.12708 6.98438H9.13586V5.6875H9.49524V6.99121H9.54993V5.78418H9.9093V7.62598H9.34778V7.61914H8.7677V6.73145H8.3136V6.98438H8.52063V7.61914H7.95422V6.09766H8.7677V5.6875H9.12708V6.98438ZM13.1261 6.98438H13.1359V5.6875H13.4943V6.99121H13.5499V5.78418H13.9083V7.62598H13.3478V7.61914H12.7677V6.73145H12.3126V6.98438H12.5197V7.61914H11.9542V6.09766H12.7677V5.6875H13.1261V6.98438ZM17.1974 6.98438H17.2072V5.6875H17.5656V6.99121H17.6212V5.78418H17.9796V7.62598H17.4181V7.61914H16.839V6.73145H16.3839V6.98438H16.5909V7.61914H16.0255V6.09766H16.839V5.6875H17.1974V6.98438ZM21.2687 6.98438H21.2784V5.6875H21.6368V6.99121H21.6925V5.78418H22.0509V7.62598H21.4894V7.61914H20.9103V6.73145H20.4552V6.98438H20.6622V7.61914H20.0968V6.09766H20.9103V5.6875H21.2687V6.98438ZM25.34 6.98438H25.3497V5.6875H25.7081V6.99121H25.7638V5.78418H26.1222V7.62598H25.5607V7.61914H24.9816V6.73145H24.5265V6.98438H24.7335V7.61914H24.1681V6.09766H24.9816V5.6875H25.34V6.98438ZM29.34 6.98438H29.3488V5.6875H29.7081V6.99121H29.7638V5.78418H30.1222V7.62598H29.5607V7.61914H28.9816V6.73145H28.5265V6.98438H28.7335V7.61914H28.1681V6.09766H28.9816V5.6875H29.34V6.98438ZM33.5538 6.98438H33.5636V5.6875H33.922V6.99121H33.9777V5.78418H34.3361V7.62598H33.7745V7.61914H33.1954V6.73145H32.7404V6.98438H32.9474V7.61914H32.382V6.09766H33.1954V5.6875H33.5538V6.98438ZM-0.932495 6.99121H-0.524292V6.71289H-0.742065V6.0791H-0.165894V7.625H-1.29089V6.71191H-1.69128V7.33984H-2.04968V6.07812H-0.932495V6.99121ZM3.0675 6.99121H3.47571V6.71289H3.25696V6.0791H3.83411V7.625H2.70911V6.71191H2.30872V7.33984H1.95032V6.07812H3.0675V6.99121ZM7.13879 6.99121H7.547V6.71289H7.32825V6.0791H7.9054V7.625H6.7804V6.71191H6.38V7.33984H6.02161V6.07812H7.13879V6.99121ZM11.1388 6.99121H11.547V6.71289H11.3282V6.0791H11.9054V7.625H10.7794V6.71191H10.38V7.33984H10.0216V6.07812H11.1388V6.99121ZM15.1388 6.99121H15.546V6.71289H15.3282V6.0791H15.9054V7.625H14.7794V6.71191H14.38V7.33984H14.0206V6.07812H15.1388V6.99121ZM19.2091 6.99121H19.6173V6.71289H19.3995V6.0791H19.9767V7.625H18.8507V6.71191H18.4513V7.33984H18.0919V6.07812H19.2091V6.99121ZM23.2804 6.99121H23.6886V6.71289H23.4698V6.0791H24.047V7.625H22.922V6.71191H22.5216V7.33984H22.1632V6.07812H23.2804V6.99121ZM27.3517 6.99121H27.7599V6.71289H27.5411V6.0791H28.1183V7.625H26.9933V6.71191H26.5929V7.33984H26.2345V6.07812H27.3517V6.99121ZM31.3517 6.99121H31.7599V6.71289H31.5411V6.0791H32.1183V7.625H30.9933V6.71191H30.5929V7.33984H30.2345V6.07812H31.3517V6.99121ZM35.5656 6.99121H35.9738V6.71289H35.755V6.0791H36.3322V7.625H35.2072V6.71191H34.8068V7.33984H34.4484V6.07812H35.5656V6.99121ZM0.484497 6.02637H-1.84656V5.39258H0.484497V6.02637ZM4.4845 6.02637H2.15344V5.39258H4.4845V6.02637ZM8.55579 6.02637H6.22473V5.39258H8.55579V6.02637ZM12.5548 6.02637H10.2247V5.39258H12.5548V6.02637ZM16.5548 6.02637H14.2247V5.39258H16.5548V6.02637ZM20.6261 6.02637H18.295V5.39258H20.6261V6.02637ZM24.6974 6.02637H22.3663V5.39258H24.6974V6.02637ZM28.7687 6.02637H26.4376V5.39258H28.7687V6.02637ZM32.7687 6.02637H30.4376V5.39258H32.7687V6.02637ZM36.9825 6.02637H34.6515V5.39258H36.9825V6.02637Z" fill="#F7FCFF"/>
<path d="M16.5355 8.81055C16.5355 8.81055 18.0124 10.4022 17.9193 12.1777C17.8638 13.2353 17.0489 14.3524 16.3998 15.084C16.7154 15.1544 17.1387 15.2405 17.7211 15.3555C17.7472 15.491 17.1424 15.3301 16.0385 15.4707C15.7793 15.7359 15.6006 15.8964 15.5961 15.9004C15.5961 15.9004 15.565 15.864 15.5209 15.8105C15.4785 15.862 15.4493 15.8982 15.4476 15.9004C15.4476 15.9004 15.2661 15.7398 15.0033 15.4707C13.9004 15.3305 13.2965 15.491 13.3226 15.3555C13.9045 15.2406 14.3274 15.1544 14.6429 15.084C13.9939 14.3524 13.1789 13.2352 13.1234 12.1777C13.0309 10.4132 14.489 8.83022 14.5072 8.81055C14.4977 8.82372 13.9711 9.56082 14.0804 11.6484C14.1183 12.371 14.4037 13.4452 14.7621 14.0801V8.9248H16.2621V14.125C16.6209 13.5321 16.8984 12.5241 16.9369 11.791C17.0473 9.68402 16.5355 8.81055 16.5355 8.81055ZM13.8988 8.84961C13.8988 8.84961 12.4868 9.60614 12.4867 11.7158C12.4867 13.8166 13.2138 14.7314 13.2201 14.7393C13.2201 14.7393 11.4567 13.5688 11.4564 11.791C11.4564 10.013 13.8988 8.84961 13.8988 8.84961ZM17.2543 8.84961C17.2543 8.84961 19.6936 9.91444 19.6937 11.6924C19.6937 13.4624 17.9486 14.728 17.933 14.7393C17.9448 14.7244 18.6654 13.8084 18.6654 11.7158C18.6653 9.60614 17.2543 8.84961 17.2543 8.84961ZM16.348 8.5498C16.3346 8.55606 15.8621 8.77532 15.4427 8.77539C15.0172 8.77539 14.6058 8.5498 14.6058 8.5498V8.25C14.6058 8.25 15.0337 8.47461 15.4711 8.47461C15.9012 8.47459 16.3339 8.25717 16.348 8.25V8.5498Z" fill="#E31D1C"/>
</g>
</g>
<defs>
<clipPath id="clip0_299_35367">
<rect width="32" height="24" fill="white"/>
</clipPath>
</defs>
</svg>
