<svg width="32" height="24" viewBox="0 0 32 24" fill="none" xmlns="http://www.w3.org/2000/svg">
<g clip-path="url(#clip0_299_35373)">
<rect width="32" height="24" fill="white"/>
<path fill-rule="evenodd" clip-rule="evenodd" d="M0 0H32V24H0V0Z" fill="#F7FCFF"/>
<path d="M-2.70178 1.24512L13.8363 11.2451L15.7465 12.4004L13.8363 13.5557L-2.70178 23.5557L-4.74963 24.7939V0.00683594L-2.70178 1.24512Z" fill="#F7FCFF" stroke="#E31D1C" stroke-width="2.7"/>
<path d="M34.9211 1.2334L17.7024 11.2334L15.6917 12.4004L17.7024 13.5674L34.9211 23.5674L36.9485 24.7451V0.0556641L34.9211 1.2334Z" fill="#F7FCFF" stroke="#E31D1C" stroke-width="2.7"/>
<path fill-rule="evenodd" clip-rule="evenodd" d="M13.6746 4.70381C13.6746 4.70381 12.816 8.50212 15.7807 9.96093C15.7807 9.96093 18.6269 8.4096 17.9877 4.70381C17.9877 4.70381 16.7653 4.29492 15.7934 4.29492C14.8214 4.29492 13.6746 4.70381 13.6746 4.70381Z" fill="#E31D1C"/>
<path fill-rule="evenodd" clip-rule="evenodd" d="M13.9825 5.49809C13.9825 5.49809 14.2996 5.35771 14.4565 5.49809C14.6135 5.63847 14.7421 5.48646 14.7421 5.40178C14.7421 5.3171 14.9913 5.0264 14.9913 5.26224C14.9913 5.49809 14.9137 5.63125 15.1328 5.63125C15.3519 5.63125 16.3384 5.30546 16.5749 5.40178C16.8115 5.49809 16.9925 5.47413 16.9323 5.33594C16.8722 5.19775 16.7177 5.11138 16.4201 5.18681C16.1225 5.26224 16.1927 5.33594 15.9355 5.33594C15.6783 5.33594 15.3921 5.26224 15.3921 5.26224C15.3921 5.26224 15.4725 5.13831 15.7661 5.22647C16.0597 5.31462 16.4648 5.1173 16.5749 5.1173C16.6851 5.1173 16.9882 5.11138 17.0183 5.18681C17.0483 5.26224 17.2314 5.33146 17.0918 5.40178C16.9523 5.47209 16.7222 5.51614 16.8805 5.60623C17.0388 5.69633 17.4029 5.67897 17.4204 5.77268C17.4379 5.86639 17.6105 6.00634 17.5412 6.00634C17.472 6.00634 17.3469 6.13832 17.2303 6.09813C17.1138 6.05795 17.1001 6.02266 17.2118 5.9901C17.3236 5.95755 17.3225 5.82064 17.2303 5.82064C17.1382 5.82064 17.1831 5.86861 16.9733 5.82064C16.7635 5.77268 16.4857 5.71936 16.5024 5.82064C16.5191 5.92193 16.6558 6.07741 16.4037 6.09813C16.1516 6.11885 16.0336 6.20205 15.9846 6.13505C15.9355 6.06806 15.7602 5.97878 15.8981 5.95016C16.0359 5.92153 16.1677 6.04746 16.2174 6.0269C16.267 6.00634 16.3796 5.99489 16.2853 5.90777C16.191 5.82064 16.0356 5.76935 16.1797 5.70414C16.3238 5.63893 16.2101 5.63759 15.9355 5.77268C15.6609 5.90777 15.5082 6.02257 15.2672 6.00634C15.0261 5.9901 14.9358 6.012 14.8583 5.9901C14.7809 5.96821 14.4035 6.23206 14.2948 6.16509C14.1862 6.09813 13.8354 6.07244 13.8985 5.9901C13.9617 5.90777 14.0465 5.86538 14.1409 5.90777C14.2353 5.95016 14.3292 5.99255 14.3928 5.95016C14.4565 5.90777 14.6404 5.76231 14.5942 5.73322C14.5479 5.70414 14.5927 5.60623 14.3307 5.60623C14.0688 5.60623 13.9768 5.71535 13.9146 5.6466C13.8524 5.57785 13.9825 5.49809 13.9825 5.49809Z" fill="#FFD100"/>
<path fill-rule="evenodd" clip-rule="evenodd" d="M14.2441 6.74698C14.2441 6.74698 14.5229 6.62357 14.6609 6.74698C14.7989 6.8704 14.9119 6.73676 14.9119 6.66231C14.9119 6.58786 15.1311 6.33229 15.1311 6.53964C15.1311 6.74698 15.0629 6.86405 15.2555 6.86405C15.448 6.86405 16.3153 6.57764 16.5233 6.66231C16.7313 6.74698 16.8904 6.72592 16.8375 6.60443C16.7847 6.48294 16.6488 6.40701 16.3872 6.47332C16.1255 6.53964 16.1873 6.60443 15.9612 6.60443C15.735 6.60443 15.4834 6.53964 15.4834 6.53964C15.4834 6.53964 15.5541 6.43068 15.8122 6.50818C16.0704 6.58568 16.4264 6.4122 16.5233 6.4122C16.6201 6.4122 16.8867 6.40701 16.9131 6.47332C16.9395 6.53964 17.1004 6.60049 16.9778 6.66231C16.8551 6.72413 16.6528 6.76285 16.792 6.84206C16.9312 6.92127 17.2512 6.906 17.2666 6.98839C17.282 7.07078 17.4337 7.19382 17.3729 7.19382C17.312 7.19382 17.202 7.30985 17.0995 7.27452C16.9971 7.23919 16.985 7.20817 17.0833 7.17955C17.1815 7.15092 17.1805 7.03056 17.0995 7.03056C17.0185 7.03056 17.058 7.07273 16.8735 7.03056C16.6891 6.98839 16.4449 6.94151 16.4596 7.03056C16.4743 7.11961 16.5944 7.2563 16.3728 7.27452C16.1512 7.29274 16.0474 7.36588 16.0043 7.30698C15.9612 7.24808 15.807 7.16959 15.9282 7.14443C16.0495 7.11926 16.1653 7.22997 16.209 7.21189C16.2526 7.19382 16.3516 7.18375 16.2687 7.10716C16.1858 7.03056 16.0492 6.98547 16.1759 6.92814C16.3025 6.87081 16.2026 6.86963 15.9612 6.98839C15.7198 7.10716 15.5855 7.20809 15.3736 7.19382C15.1616 7.17955 15.0823 7.1988 15.0141 7.17955C14.946 7.16029 14.6143 7.39226 14.5187 7.33339C14.4232 7.27452 14.1148 7.25193 14.1703 7.17955C14.2259 7.10716 14.3004 7.06989 14.3834 7.10716C14.4664 7.14443 14.5489 7.18169 14.6049 7.14443C14.6609 7.10716 14.8226 6.97927 14.7819 6.95371C14.7412 6.92814 14.7806 6.84206 14.5503 6.84206C14.3201 6.84206 14.2391 6.93799 14.1844 6.87755C14.1298 6.81711 14.2441 6.74698 14.2441 6.74698Z" fill="#FFD100"/>
<path fill-rule="evenodd" clip-rule="evenodd" d="M14.6142 8.0137C14.6142 8.0137 14.8256 7.92011 14.9302 8.0137C15.0349 8.10728 15.1206 8.00594 15.1206 7.94949C15.1206 7.89304 15.2868 7.69924 15.2868 7.85647C15.2868 8.0137 15.2351 8.10247 15.3811 8.10247C15.5271 8.10247 16.1848 7.88528 16.3425 7.94949C16.5002 8.0137 16.6209 7.99773 16.5808 7.9056C16.5407 7.81348 16.4377 7.7559 16.2393 7.80618C16.0409 7.85647 16.0877 7.9056 15.9162 7.9056C15.7448 7.9056 15.5539 7.85647 15.5539 7.85647C15.5539 7.85647 15.6075 7.77385 15.8033 7.83262C15.9991 7.89139 16.2691 7.75984 16.3425 7.75984C16.4159 7.75984 16.618 7.7559 16.6381 7.80618C16.6581 7.85647 16.7801 7.90261 16.6871 7.94949C16.5941 7.99637 16.4407 8.02574 16.5462 8.0858C16.6518 8.14586 16.8945 8.13428 16.9062 8.19676C16.9179 8.25924 17.0329 8.35253 16.9867 8.35253C16.9406 8.35253 16.8571 8.44052 16.7794 8.41373C16.7018 8.38694 16.6926 8.36341 16.7671 8.34171C16.8416 8.32001 16.8409 8.22874 16.7794 8.22874C16.718 8.22874 16.748 8.26071 16.6081 8.22874C16.4682 8.19676 16.2831 8.16121 16.2942 8.22874C16.3053 8.29626 16.3964 8.39991 16.2284 8.41373C16.0603 8.42754 15.9817 8.48301 15.9489 8.43834C15.9162 8.39368 15.7993 8.33416 15.8913 8.31508C15.9832 8.296 16.071 8.37995 16.1041 8.36624C16.1373 8.35253 16.2123 8.3449 16.1494 8.28682C16.0866 8.22874 15.983 8.19454 16.079 8.15107C16.1751 8.10759 16.0993 8.1067 15.9162 8.19676C15.7332 8.28682 15.6314 8.36335 15.4707 8.35253C15.31 8.34171 15.2498 8.35631 15.1981 8.34171C15.1465 8.32711 14.8949 8.50301 14.8225 8.45837C14.75 8.41373 14.5162 8.3966 14.5583 8.34171C14.6004 8.28682 14.6569 8.25856 14.7198 8.28682C14.7828 8.31508 14.8453 8.34334 14.8878 8.31508C14.9302 8.28682 15.0528 8.18985 15.022 8.17046C14.9912 8.15107 15.021 8.0858 14.8464 8.0858C14.6718 8.0858 14.6104 8.15854 14.569 8.11271C14.5275 8.06687 14.6142 8.0137 14.6142 8.0137Z" fill="#FFD100"/>
<g filter="url(#filter0_d_299_35373)">
<path fill-rule="evenodd" clip-rule="evenodd" d="M15.7943 2.00098C16.0503 2.25629 15.95 2.76716 15.9466 2.78418C16.4918 2.55682 16.4915 3.01367 16.4915 3.01367C16.4739 3.01696 15.9467 3.11728 15.9466 3.36328C15.9466 3.61352 16.0714 3.77246 16.3509 3.77246C16.4726 3.77243 16.5915 3.74087 16.6878 3.70801C16.6036 3.66081 16.5472 3.57941 16.5472 3.48633C16.5473 3.3402 16.6854 3.22168 16.8548 3.22168C17.024 3.22186 17.1614 3.34031 17.1614 3.48633C17.1614 3.5997 17.0783 3.69568 16.9622 3.7334C17.0292 3.82298 17.1586 3.93262 17.3939 3.93262C17.7919 3.93238 17.7395 3.27441 17.9603 3.27441C18.1814 3.27404 19.0935 2.78739 18.6819 3.01367C18.2734 3.23829 17.9662 4.70873 17.9603 4.7373C17.9603 4.7373 16.7469 4.31549 15.7933 4.31543C14.8454 4.3157 13.6415 4.73235 13.6273 4.7373C13.6217 4.71053 13.3144 3.23843 12.9056 3.01367C12.4934 2.78703 13.4065 3.27441 13.6273 3.27441C13.848 3.27443 13.7954 3.93262 14.1937 3.93262C14.4286 3.9326 14.5573 3.82291 14.6243 3.7334C14.5086 3.69553 14.4261 3.59949 14.4261 3.48633C14.4262 3.34023 14.5634 3.22174 14.7327 3.22168C14.9021 3.22168 15.0393 3.3402 15.0394 3.48633C15.0394 3.57961 14.9832 3.66086 14.8987 3.70801C14.9953 3.74098 15.1145 3.77246 15.2366 3.77246C15.5161 3.77244 15.6409 3.61351 15.6409 3.36328C15.6409 3.11308 15.095 3.01367 15.095 3.01367C15.095 3.01367 15.0957 2.55676 15.6409 2.78418C15.6377 2.76813 15.5366 2.25521 15.7943 2V2.00098Z" fill="#FECA00"/>
</g>
</g>
<defs>
<filter id="filter0_d_299_35373" x="12.8" y="2" width="5.98718" height="2.73828" filterUnits="userSpaceOnUse" color-interpolation-filters="sRGB">
<feFlood flood-opacity="0" result="BackgroundImageFix"/>
<feColorMatrix in="SourceAlpha" type="matrix" values="0 0 0 0 0 0 0 0 0 0 0 0 0 0 0 0 0 0 127 0" result="hardAlpha"/>
<feOffset/>
<feColorMatrix type="matrix" values="0 0 0 0 0.0313726 0 0 0 0 0.368627 0 0 0 0 0 0 0 0 0.28 0"/>
<feBlend mode="normal" in2="BackgroundImageFix" result="effect1_dropShadow_299_35373"/>
<feBlend mode="normal" in="SourceGraphic" in2="effect1_dropShadow_299_35373" result="shape"/>
</filter>
<clipPath id="clip0_299_35373">
<rect width="32" height="24" fill="white"/>
</clipPath>
</defs>
</svg>
