<svg width="32" height="24" viewBox="0 0 32 24" fill="none" xmlns="http://www.w3.org/2000/svg">
<g clip-path="url(#clip0_299_35433)">
<rect width="32" height="24" fill="white"/>
<path fill-rule="evenodd" clip-rule="evenodd" d="M0 0H32V24H0V0Z" fill="#0067C3"/>
<path fill-rule="evenodd" clip-rule="evenodd" d="M0 0V8H32V0H0Z" fill="#272727"/>
<path fill-rule="evenodd" clip-rule="evenodd" d="M0 16V24H32V16H0Z" fill="#4E8B1D"/>
<path d="M33 7V17H-1V7H33Z" fill="#E31D1C" stroke="#F7FCFF" stroke-width="2"/>
<ellipse cx="16" cy="12" rx="4" ry="8" fill="#AC2317"/>
<path d="M19.6234 4.03068C19.8518 3.61994 20.4658 3.17143 21.4653 2.68512C21.4997 2.66841 21.5412 2.66746 21.5765 2.68256C21.6362 2.70812 21.661 2.77133 21.6316 2.8236L11.274 21.4518L10.7347 21.221L19.8648 4.80045C19.4514 4.74138 19.3709 4.48478 19.6234 4.03068Z" fill="white"/>
<path d="M12.3655 4.03068C12.618 4.48478 12.5375 4.74138 12.1241 4.80045L21.2542 21.221L20.7149 21.4518L10.3574 2.8236C10.3279 2.77133 10.3527 2.70812 10.4125 2.68256C10.4478 2.66746 10.4893 2.66841 10.5236 2.68512C11.5232 3.17143 12.1372 3.61994 12.3655 4.03068Z" fill="white"/>
<path fill-rule="evenodd" clip-rule="evenodd" d="M19.3838 7.73828C19.7729 8.97221 20 10.4333 20 12C20 13.5664 19.7728 15.027 19.3838 16.2607C18.5083 15.0269 18 13.5666 18 12C18 10.4332 18.508 8.97228 19.3838 7.73828Z" fill="black"/>
<path fill-rule="evenodd" clip-rule="evenodd" d="M12.6152 7.73828C13.4912 8.97238 14 10.433 14 12C14 13.5668 13.491 15.0268 12.6152 16.2607C12.2263 15.027 12 13.5663 12 12C12 10.4334 12.2261 8.97215 12.6152 7.73828Z" fill="black"/>
<path d="M16.2405 12.7051C16.7883 13.0464 17.2004 14.5349 17.2004 16.3174C17.2003 18.099 16.788 19.585 16.2405 19.9268V12.7051ZM15.6399 19.8301C15.1536 19.3598 14.8002 17.9655 14.8 16.3174C14.8 14.6683 15.1532 13.2718 15.6399 12.8018V19.8301ZM16.2405 4.17969C16.7881 4.5215 17.2004 6.00898 17.2004 7.79102C17.2003 9.57265 16.788 11.0587 16.2405 11.4004V4.17969ZM15.6399 11.3037C15.1536 10.8334 14.8002 9.43913 14.8 7.79102C14.8 6.14192 15.1532 4.74542 15.6399 4.27539V11.3037Z" fill="#F7FCFF"/>
<path d="M16 11.4748C16.6628 11.4748 17.2 11.9461 17.2 12.5274C17.2 13.1088 16.6628 13.5801 16 13.5801C15.3373 13.5801 14.8 13.1088 14.8 12.5274C14.8 11.9461 15.3373 11.4748 16 11.4748Z" fill="#F7FCFF"/>
</g>
<defs>
<clipPath id="clip0_299_35433">
<rect width="32" height="24" fill="white"/>
</clipPath>
</defs>
</svg>
