<svg width="32" height="24" viewBox="0 0 32 24" fill="none" xmlns="http://www.w3.org/2000/svg">
<g clip-path="url(#clip0_299_35425)">
<rect width="32" height="24" fill="white"/>
<path fill-rule="evenodd" clip-rule="evenodd" d="M0 0V24H32V0H0Z" fill="#C51918"/>
<mask id="mask0_299_35425" style="mask-type:luminance" maskUnits="userSpaceOnUse" x="0" y="0" width="32" height="24">
<path fill-rule="evenodd" clip-rule="evenodd" d="M0 0V24H32V0H0Z" fill="white"/>
</mask>
<g mask="url(#mask0_299_35425)">
<path d="M16.3688 6.01367C16.5814 6.02713 16.7908 6.05103 16.9968 6.08594L17.8356 4.21387L17.737 6.25977C17.9394 6.32127 18.1372 6.39301 18.3298 6.47461L19.5817 4.84473L19.0095 6.81641C19.1908 6.9222 19.3664 7.03658 19.5349 7.16016L21.1345 5.85742L20.1169 7.64844C20.268 7.79191 20.4123 7.94221 20.5475 8.10059L22.4099 7.19824L21.0026 8.70898C21.1162 8.88255 21.22 9.0626 21.3151 9.24805L23.3395 8.79492L21.6179 9.94336C21.6875 10.1375 21.7473 10.3362 21.7966 10.5391L23.8727 10.5615L21.9274 11.2861C21.9496 11.489 21.9615 11.6948 21.9626 11.9033L23.9811 12.4014L21.9167 12.6621C21.8912 12.8687 21.8556 13.072 21.8093 13.2715L23.6579 14.2168L21.5905 13.999C21.5177 14.1934 21.4336 14.3822 21.3415 14.5664L22.9216 15.9102L20.9587 15.2246C20.8431 15.3962 20.7191 15.5614 20.5866 15.7197L21.8122 17.3887L20.0602 16.2715C19.9083 16.4121 19.7497 16.5455 19.5837 16.6699L20.3884 18.5732L18.944 17.0869C18.764 17.1889 18.5785 17.2819 18.3874 17.3652L18.7272 19.4014L17.6677 17.625C17.4694 17.6827 17.2674 17.7313 17.0612 17.7686L16.9186 19.8262L16.3005 17.8584C16.1951 17.8639 16.0889 17.8672 15.9821 17.8672C15.8796 17.8672 15.7777 17.8644 15.6765 17.8594L15.0602 19.8262L14.9167 17.7705C14.7099 17.7336 14.5071 17.6863 14.3083 17.6289L13.2516 19.4014L13.5886 17.3711C13.3964 17.2877 13.21 17.194 13.029 17.0918L11.5905 18.5732L12.3893 16.6777C12.2219 16.5528 12.062 16.4187 11.9089 16.2773L10.1667 17.3887L11.3845 15.7295C11.2499 15.5694 11.1237 15.4022 11.0065 15.2285L9.05634 15.9102L10.6257 14.5752C10.532 14.3887 10.4475 14.197 10.3737 14L8.32001 14.2168L10.1559 13.2773C10.1088 13.0756 10.0714 12.8702 10.0456 12.6611L7.99774 12.4014L9.99969 11.9072C10.0006 11.6957 10.0141 11.487 10.0368 11.2812L8.10614 10.5615L10.1667 10.5391C10.2166 10.3335 10.2774 10.1322 10.3483 9.93555L8.63934 8.79492L10.6491 9.24512C10.7454 9.0575 10.8513 8.87564 10.9665 8.7002L9.56805 7.19824L11.4206 8.0957C11.5574 7.93591 11.7023 7.78324 11.8552 7.63867L10.8434 5.85742L12.4362 7.1543C12.6061 7.03008 12.7835 6.91573 12.9665 6.80957L12.3962 4.84473L13.6432 6.46973C13.8374 6.38788 14.0369 6.31633 14.2409 6.25488L14.1432 4.21387L14.9802 6.08398C15.1861 6.04953 15.3955 6.02472 15.6081 6.01172L15.989 4L16.3688 6.01367ZM15.946 7.41699C13.4408 7.41701 11.4099 9.43121 11.4099 11.916C11.41 14.4007 13.4409 16.415 15.946 16.415C18.451 16.415 20.4819 14.4007 20.4821 11.916C20.4821 9.4312 18.4512 7.41699 15.946 7.41699ZM15.7516 11.9365C16.4082 12.7845 16.8612 13.9594 17.1218 15.2207C16.7632 15.3479 16.3775 15.418 15.9753 15.418C15.4675 15.418 14.986 15.3065 14.5524 15.1084C14.5673 13.9263 14.9667 12.8711 15.7516 11.9365ZM16.4255 11.5801C17.3329 12.6237 17.9034 13.5187 17.864 14.8496C17.8006 14.8915 17.7358 14.9311 17.6696 14.9688C17.4003 13.6422 16.8911 12.5961 16.1813 11.7598L16.3552 11.6299C16.3778 11.6128 16.402 11.5971 16.4255 11.5801ZM15.3923 11.5928C14.5563 12.5438 14.1012 13.617 14.0231 14.8066C13.92 14.735 13.8207 14.6584 13.7263 14.5762C14.0412 13.3195 14.563 12.2826 15.3132 11.5312C15.3403 11.5525 15.3676 11.5718 15.3923 11.5928ZM16.9352 11.3623C18.0541 11.9019 18.6832 13.183 18.7224 14.042C18.6248 14.1723 18.5178 14.2951 18.403 14.4102C18.3395 13.2312 17.8381 12.3317 16.9352 11.3623ZM14.8962 11.3574C14.1489 12.0839 13.5913 12.9117 13.2497 14.0684C13.2228 14.0332 13.1971 13.9972 13.1716 13.9609C13.2314 13.0937 13.7833 11.8672 14.8962 11.3574ZM19.1227 10.626C19.304 11.0439 19.405 11.5048 19.405 11.9893C19.4049 12.4849 19.2984 12.9554 19.1091 13.3809C18.8726 12.5341 18.3324 11.6758 17.1384 11.1533C17.6768 10.8895 18.3397 10.6817 19.1227 10.626ZM12.8171 10.6494C13.6041 10.738 14.2249 10.9298 14.6901 11.1514C13.5039 11.6553 13.039 12.4667 12.8044 13.2949C12.6385 12.8925 12.5466 12.4516 12.5466 11.9893C12.5466 11.514 12.6424 11.061 12.8171 10.6494ZM15.9753 8.55957C16.9327 8.55957 17.7984 8.95219 18.4206 9.58496C17.4416 9.69842 16.6113 9.94245 15.9372 10.3242C15.3363 9.97945 14.5234 9.74696 13.5016 9.61426C14.1256 8.96423 15.0031 8.5596 15.9753 8.55957Z" fill="#FFDC17"/>
</g>
</g>
<defs>
<clipPath id="clip0_299_35425">
<rect width="32" height="24" fill="white"/>
</clipPath>
</defs>
</svg>
