<svg width="32" height="24" viewBox="0 0 32 24" fill="none" xmlns="http://www.w3.org/2000/svg">
<g clip-path="url(#clip0_299_35429)">
<rect width="32" height="24" fill="white"/>
<path fill-rule="evenodd" clip-rule="evenodd" d="M0 0V24H32V0H0Z" fill="#E31D1C"/>
<mask id="mask0_299_35429" style="mask-type:luminance" maskUnits="userSpaceOnUse" x="0" y="0" width="32" height="24">
<path fill-rule="evenodd" clip-rule="evenodd" d="M0 0V24H32V0H0Z" fill="white"/>
</mask>
<g mask="url(#mask0_299_35429)">
<path d="M16.0512 8.18359C16.0497 8.18629 15.8396 8.57436 15.8823 9.10156C15.9091 9.4325 15.9695 9.76172 16.0102 9.96191C16.0268 9.96342 16.0434 9.96505 16.06 9.9668C16.1171 9.77083 16.2174 9.44936 16.3471 9.14551C16.5529 8.66345 17.1479 8.39258 17.1479 8.39258C17.1479 8.39258 16.854 8.72392 16.7768 9.24902C16.7296 9.57036 16.7142 9.89731 16.7084 10.1025C16.7218 10.1068 16.7352 10.1108 16.7485 10.1152C16.852 9.93814 17.0253 9.65618 17.2211 9.39746C17.5335 8.98509 18.163 8.86436 18.1791 8.86133C18.1659 8.87051 17.81 9.12074 17.6118 9.60254C17.4943 9.88814 17.4033 10.1854 17.3471 10.3838C17.3676 10.3955 17.3884 10.4068 17.4086 10.4189C17.5508 10.2692 17.7721 10.0458 18.0092 9.84766C18.4075 9.51489 19.0512 9.53951 19.0639 9.54004C19.0596 9.54172 18.6498 9.70416 18.3442 10.1348C18.1745 10.3738 18.026 10.6288 17.9262 10.8086C17.9477 10.8282 17.9697 10.8471 17.9907 10.8672C18.1628 10.7544 18.4133 10.5981 18.6723 10.4668C19.1398 10.2298 19.77 10.4053 19.77 10.4053C19.77 10.4053 19.3318 10.4705 18.935 10.8232C18.7321 11.0036 18.5428 11.2002 18.4067 11.3496C18.4254 11.3763 18.4435 11.4034 18.4614 11.4307C18.6531 11.3648 18.9152 11.282 19.1791 11.2217C19.6901 11.1048 20.2592 11.4268 20.2592 11.4268C20.2592 11.4268 19.8184 11.3846 19.3481 11.6309C19.1279 11.7462 18.9158 11.8779 18.7524 11.9854C18.7694 12.027 18.7859 12.0689 18.8012 12.1113C18.9965 12.0921 19.247 12.0727 19.4946 12.0732C20.0136 12.0745 20.4902 12.5082 20.4995 12.5166C20.4858 12.5121 20.0717 12.378 19.5668 12.5098C19.346 12.5674 19.1286 12.641 18.9526 12.7051C18.9606 12.7571 18.9665 12.8095 18.9721 12.8623C19.1578 12.8875 19.3838 12.9233 19.6039 12.9746C20.1107 13.0927 20.4794 13.624 20.4848 13.6318C20.4848 13.6318 20.1072 13.4009 19.5766 13.416C19.3664 13.422 19.1561 13.4411 18.9789 13.4619C18.9744 13.5197 18.9689 13.5769 18.9614 13.6338C19.1271 13.7008 19.3213 13.7837 19.5073 13.8789C19.9687 14.1153 20.1977 14.7165 20.2026 14.7295C20.1964 14.7232 19.8868 14.4123 19.3735 14.2998C19.1868 14.2589 18.9973 14.2302 18.8315 14.208C18.8105 14.2725 18.787 14.3358 18.7621 14.3984C18.8995 14.4958 19.0554 14.6102 19.2016 14.7334C19.5975 15.0672 19.6849 15.7037 19.687 15.7188C19.6811 15.7092 19.4496 15.3377 18.976 15.1133C18.8153 15.0371 18.6497 14.9706 18.5014 14.9141C18.4624 14.9767 18.4215 15.0379 18.3784 15.0977C18.4837 15.217 18.6002 15.3525 18.7065 15.4941C19.0167 15.9077 18.9591 16.5461 18.9575 16.5635C18.952 16.5475 18.8096 16.1374 18.4018 15.8145C18.2702 15.7103 18.1321 15.6134 18.0063 15.5283C17.9524 15.5808 17.8957 15.63 17.8383 15.6787C17.9089 15.8156 17.9853 15.9688 18.0512 16.125C18.2548 16.6079 18.0366 17.2236 18.0366 17.2236C18.0366 17.2236 18.0023 16.7817 17.6782 16.3613C17.5812 16.2356 17.477 16.1152 17.3803 16.0068C17.3106 16.0478 17.2393 16.0862 17.1664 16.1221C17.2025 16.2655 17.2394 16.4242 17.267 16.583C17.3557 17.0933 17.0133 17.6369 17.0053 17.6494C17.0074 17.6348 17.0675 17.2037 16.85 16.7295C16.7855 16.5887 16.7133 16.4511 16.645 16.3262C16.5658 16.3495 16.4853 16.3693 16.4037 16.3867C16.4064 16.5317 16.4074 16.6906 16.3989 16.8477C16.3703 17.3681 15.9088 17.8232 15.9037 17.8281C15.9075 17.8186 16.0652 17.4103 15.9594 16.8965C15.9281 16.7446 15.8895 16.5942 15.851 16.457C15.8037 16.459 15.7562 16.4609 15.7084 16.4609C15.6752 16.4609 15.6418 16.459 15.6088 16.458C15.576 16.6008 15.5385 16.757 15.4916 16.9092C15.3373 17.4101 14.7739 17.7412 14.7739 17.7412C14.7739 17.7412 15.0313 17.381 15.0532 16.8506C15.0596 16.6952 15.0583 16.5392 15.0541 16.3965C14.9732 16.3802 14.8936 16.3599 14.8149 16.3379C14.7503 16.471 14.6771 16.6164 14.5961 16.7559C14.335 17.2057 13.7196 17.4024 13.7104 17.4053C13.7161 17.4002 14.0436 17.1078 14.183 16.6006C14.2258 16.4448 14.2589 16.2861 14.2875 16.1416C14.216 16.1075 14.1462 16.0703 14.0776 16.0312C13.9824 16.1496 13.875 16.2788 13.7612 16.4004C13.4029 16.783 12.7514 16.834 12.7514 16.834C12.7514 16.834 13.1408 16.6232 13.393 16.1562C13.4744 16.0055 13.5461 15.8489 13.6088 15.708C13.5531 15.662 13.5002 15.613 13.4477 15.5635C13.3208 15.6607 13.1763 15.7676 13.0268 15.8643C12.5866 16.1488 11.9418 16.041 11.9418 16.041C11.9418 16.041 12.3712 15.9304 12.7289 15.5381C12.8514 15.4038 12.965 15.2612 13.0639 15.1338C13.0221 15.0775 12.982 15.0199 12.9438 14.9609C12.792 15.0305 12.6175 15.1076 12.4399 15.1719C11.947 15.3501 11.3432 15.0996 11.3432 15.0996C11.3459 15.0995 11.7876 15.0879 12.2231 14.7871C12.3853 14.675 12.5394 14.5511 12.6713 14.4424C12.6468 14.3833 12.624 14.3234 12.603 14.2627C12.4312 14.2989 12.2295 14.3389 12.0278 14.3633C11.5075 14.4258 10.976 14.0459 10.976 14.0459C10.976 14.0459 11.4103 14.1352 11.9037 13.9395C12.1038 13.8601 12.2978 13.7652 12.4594 13.6836C12.4516 13.6313 12.4461 13.5785 12.4409 13.5254C12.2553 13.5196 12.0306 13.508 11.81 13.4805C11.2899 13.4155 10.8657 12.918 10.8657 12.918C10.8657 12.918 11.2653 13.1096 11.7914 13.0391C12.0233 13.008 12.253 12.959 12.4379 12.916C12.4423 12.8668 12.448 12.818 12.4545 12.7695C12.2669 12.7211 12.0315 12.6552 11.8051 12.5723C11.3195 12.3942 11.0199 11.8273 11.0121 11.8125C11.0239 11.8218 11.3677 12.089 11.8871 12.1377C12.142 12.1616 12.3991 12.1656 12.5971 12.1641C12.6104 12.1251 12.6234 12.0861 12.6381 12.0479C12.4601 11.9564 12.2281 11.8306 12.0102 11.6885C11.5774 11.4061 11.4122 10.787 11.4077 10.7695C11.4144 10.7779 11.6894 11.118 12.187 11.2832C12.4515 11.371 12.7242 11.4363 12.9233 11.4795C12.9389 11.4547 12.9539 11.4296 12.9702 11.4053C12.8152 11.2712 12.6028 11.0781 12.4106 10.8711C12.054 10.487 12.0483 9.83398 12.0483 9.83398C12.0483 9.83398 12.2317 10.2373 12.6801 10.5215C12.9306 10.6802 13.1962 10.816 13.3813 10.9062C13.4004 10.8872 13.4213 10.8701 13.4409 10.8516C13.3183 10.6853 13.141 10.4345 12.9907 10.1729C12.7317 9.72199 12.8693 9.0911 12.8715 9.08105C12.8741 9.09343 12.9649 9.52033 13.3325 9.89258C13.554 10.1169 13.7977 10.3203 13.9584 10.4492C13.9766 10.4378 13.9947 10.4261 14.0131 10.415C13.9307 10.2261 13.8079 9.92893 13.7162 9.62695C13.5642 9.12543 13.8452 8.53613 13.8452 8.53613C13.8452 8.53613 13.8334 8.97875 14.1118 9.43066C14.2841 9.7104 14.4854 9.97335 14.6127 10.1338C14.6251 10.1295 14.6374 10.1253 14.6498 10.1211C14.6152 9.91968 14.5638 9.58767 14.5473 9.25879C14.5212 8.7354 14.937 8.23145 14.937 8.23145C14.937 8.23145 14.8182 8.65822 14.9789 9.16406C15.0796 9.48056 15.2127 9.78773 15.2973 9.97363C15.3135 9.97162 15.3298 9.96955 15.3461 9.96777C15.3575 9.76454 15.3823 9.42501 15.4409 9.09668C15.5328 8.58276 16.0474 8.18651 16.0512 8.18359Z" fill="#FFC84A"/>
<path fill-rule="evenodd" clip-rule="evenodd" d="M-0.792011 13.9219L1.82284 12.8608C2.20399 12.7061 2.63076 12.708 3.01053 12.866L6.64128 14.3769C7.05208 14.5479 7.51628 14.5356 7.91742 14.3431L10.846 12.9376C11.2661 12.736 11.7542 12.7324 12.1771 12.9278L15.2446 14.3449C15.6578 14.5358 16.1338 14.537 16.5479 14.3481L19.6867 12.9167C20.1007 12.7279 20.5765 12.729 20.9897 12.9198L24.0886 14.3504C24.4952 14.5381 24.963 14.5422 25.3729 14.3617L28.759 12.8708C29.1256 12.7093 29.5402 12.6949 29.9171 12.8304L32.9529 13.9219V23.9356H-0.880981L-0.792011 13.9219Z" fill="#F7FCFF"/>
<mask id="mask1_299_35429" style="mask-type:luminance" maskUnits="userSpaceOnUse" x="-1" y="12" width="34" height="12">
<path fill-rule="evenodd" clip-rule="evenodd" d="M-0.792011 13.9219L1.82284 12.8608C2.20399 12.7061 2.63076 12.708 3.01053 12.866L6.64128 14.3769C7.05208 14.5479 7.51628 14.5356 7.91742 14.3431L10.846 12.9376C11.2661 12.736 11.7542 12.7324 12.1771 12.9278L15.2446 14.3449C15.6578 14.5358 16.1338 14.537 16.5479 14.3481L19.6867 12.9167C20.1007 12.7279 20.5765 12.729 20.9897 12.9198L24.0886 14.3504C24.4952 14.5381 24.963 14.5422 25.3729 14.3617L28.759 12.8708C29.1256 12.7093 29.5402 12.6949 29.9171 12.8304L32.9529 13.9219V23.9356H-0.880981L-0.792011 13.9219Z" fill="white"/>
</mask>
<g mask="url(#mask1_299_35429)">
<path d="M-0.791992 16.2474L1.82285 15.1863C2.204 15.0316 2.63078 15.0335 3.01055 15.1915L6.6413 16.7024C7.05209 16.8734 7.5163 16.8611 7.91744 16.6686L10.846 15.2631C11.2661 15.0615 11.7542 15.0579 12.1771 15.2533L15.2446 16.6704C15.6578 16.8613 16.1338 16.8625 16.548 16.6736L19.6867 15.2422C20.1007 15.0534 20.5765 15.0545 20.9897 15.2453L24.0886 16.6759C24.4953 16.8636 24.963 16.8677 25.3729 16.6872L28.759 15.1962C29.1256 15.0348 29.5402 15.0204 29.9172 15.1559L32.953 16.2474" stroke="#015989" stroke-width="2"/>
<path d="M-0.791992 19.5756L1.82285 18.5144C2.204 18.3597 2.63078 18.3616 3.01055 18.5196L6.6413 20.0306C7.05209 20.2015 7.5163 20.1892 7.91744 19.9967L10.846 18.5912C11.2661 18.3897 11.7542 18.3861 12.1771 18.5815L15.2446 19.9985C15.6578 20.1894 16.1338 20.1906 16.548 20.0017L19.6867 18.5704C20.1007 18.3815 20.5765 18.3826 20.9897 18.5734L24.0886 20.004C24.4953 20.1917 24.963 20.1959 25.3729 20.0154L28.759 18.5244C29.1256 18.3629 29.5402 18.3485 29.9172 18.484L32.953 19.5756" stroke="#015989" stroke-width="2"/>
<path fill-rule="evenodd" clip-rule="evenodd" d="M-0.791992 22.2287L0.299673 21.7857C1.65668 21.2349 3.17613 21.2417 4.52822 21.8043L6.6413 22.6837C7.05209 22.8546 7.5163 22.8423 7.91744 22.6498L9.14795 22.0593C10.6434 21.3416 12.3812 21.3288 13.887 22.0245L15.2446 22.6517C15.6578 22.8426 16.1338 22.8437 16.548 22.6549L18.0169 21.985C19.491 21.3127 21.185 21.3167 22.656 21.9957L24.0886 22.6571C24.4953 22.8449 24.963 22.849 25.3729 22.6685L27.2971 21.8212C28.6023 21.2465 30.0784 21.1951 31.4204 21.6776L32.953 22.2287V25.5436H-0.608375L-0.791992 22.2287Z" fill="#015989"/>
</g>
<path fill-rule="evenodd" clip-rule="evenodd" d="M9.78003 3.41936C9.78003 3.41936 11.172 3.41936 11.6406 3.41936C12.1092 3.41936 13.1664 2.70283 13.7779 2.94167C14.3893 3.18051 15.4187 3.95162 15.4187 3.95162C15.4187 3.95162 17.1182 2.61011 18.1318 2.61011C19.1455 2.61011 20.9739 2.46094 20.9739 2.46094C20.9739 2.46094 20.5449 3.5744 19.3384 3.76301C18.1318 3.95162 16.6883 4.87535 16.6883 4.87535C16.6883 4.87535 18.3504 4.87535 18.6493 4.87535C18.9483 4.87535 19.3384 5.32614 19.3384 5.32614C19.3384 5.32614 18.5336 5.87298 18.1318 5.87298C17.7301 5.87298 17.2863 5.87298 17.2863 5.87298C17.2863 5.87298 16.4322 6.60595 15.377 6.45C14.3218 6.29405 13.4751 5.32614 13.4751 5.32614C13.4751 5.32614 12.5519 5.19381 12.5519 5.03458C12.5519 5.03458 12.4427 4.98435 12.3924 4.98573C12.102 4.99365 11.9084 5.04582 11.8118 5.03458C12.3427 4.82742 12.5519 4.64414 12.5519 4.64414C12.5519 4.64414 12.9173 4.30138 13.1962 4.30138C13.4751 4.30138 14.4065 4.87535 14.4065 4.87535L14.6289 4.64414L13.4751 3.76301C11.1217 4.0096 9.78003 3.41936 9.78003 3.41936Z" fill="#FFC84A"/>
</g>
</g>
<defs>
<clipPath id="clip0_299_35429">
<rect width="32" height="24" fill="white"/>
</clipPath>
</defs>
</svg>
