<svg width="32" height="24" viewBox="0 0 32 24" fill="none" xmlns="http://www.w3.org/2000/svg">
<g clip-path="url(#clip0_299_35437)">
<rect width="32" height="24" fill="white"/>
<path fill-rule="evenodd" clip-rule="evenodd" d="M0 0V24H32V0H0Z" fill="#3D58DB"/>
<mask id="mask0_299_35437" style="mask-type:luminance" maskUnits="userSpaceOnUse" x="0" y="0" width="32" height="24">
<path fill-rule="evenodd" clip-rule="evenodd" d="M0 0V24H32V0H0Z" fill="white"/>
</mask>
<g mask="url(#mask0_299_35437)">
<path d="M33 5V19H-1V5H33Z" fill="#C51918" stroke="#F7FCFF" stroke-width="2"/>
<path fill-rule="evenodd" clip-rule="evenodd" d="M10 17C12.7614 17 15 14.7614 15 12C15 9.23858 12.7614 7 10 7C7.23858 7 5 9.23858 5 12C5 14.7614 7.23858 17 10 17Z" fill="#F7FCFF"/>
<path fill-rule="evenodd" clip-rule="evenodd" d="M9.99509 13.8702L7.27876 15.7604L8.23704 12.5929L5.59998 10.5936L8.90856 10.5262L9.99509 7.40039L11.0816 10.5262L14.3902 10.5936L11.7531 12.5929L12.7114 15.7604L9.99509 13.8702Z" fill="#C51918"/>
</g>
</g>
<defs>
<clipPath id="clip0_299_35437">
<rect width="32" height="24" fill="white"/>
</clipPath>
</defs>
</svg>
