<svg width="32" height="24" viewBox="0 0 32 24" fill="none" xmlns="http://www.w3.org/2000/svg">
<g clip-path="url(#clip0_299_35439)">
<rect width="32" height="24" fill="white"/>
<path fill-rule="evenodd" clip-rule="evenodd" d="M0 0V24H32V0H0Z" fill="#F7FCFF"/>
<mask id="mask0_299_35439" style="mask-type:luminance" maskUnits="userSpaceOnUse" x="0" y="0" width="32" height="24">
<path fill-rule="evenodd" clip-rule="evenodd" d="M0 0V24H32V0H0Z" fill="white"/>
</mask>
<g mask="url(#mask0_299_35439)">
<path fill-rule="evenodd" clip-rule="evenodd" d="M16 18.2194C19.2027 18.2194 21.799 15.4621 21.799 12.0609C21.799 8.65961 19.2027 5.90234 16 5.90234C12.7972 5.90234 10.2009 8.65961 10.2009 12.0609C10.2009 15.4621 12.7972 18.2194 16 18.2194Z" fill="#3D58DB"/>
<mask id="mask1_299_35439" style="mask-type:luminance" maskUnits="userSpaceOnUse" x="10" y="5" width="12" height="14">
<path fill-rule="evenodd" clip-rule="evenodd" d="M16 18.2194C19.2027 18.2194 21.799 15.4621 21.799 12.0609C21.799 8.65961 19.2027 5.90234 16 5.90234C12.7972 5.90234 10.2009 8.65961 10.2009 12.0609C10.2009 15.4621 12.7972 18.2194 16 18.2194Z" fill="white"/>
</mask>
<g mask="url(#mask1_299_35439)">
<path fill-rule="evenodd" clip-rule="evenodd" d="M22.0019 12.5335C22.0019 12.5335 21.6764 9.62954 19.2657 9.47189C16.8551 9.31425 16.2051 11.6015 16.066 12.2074C15.9269 12.8134 15.5748 14.4299 13.0366 14.4299C10.4985 14.4299 10.2695 10.3195 10.2695 10.3195V5.47266H22.0019V12.5335Z" fill="#E31D1C"/>
</g>
<path d="M11.2251 5.5752L7.12549 10.4922L6.21045 9.66504L10.3101 4.74707L11.2251 5.5752ZM9.72314 4.21973L5.63525 9.09961L4.72021 8.27246L8.80811 3.3916L9.72314 4.21973ZM8.21436 2.87988L3.97412 7.83203L3.05908 7.00488L7.29932 2.05273L8.21436 2.87988Z" fill="#272727"/>
<path d="M24.2493 8.63965L25.8372 10.502L26.7522 9.67773L25.1643 7.81445L24.2493 8.63965ZM22.9954 3.83105L27.4143 9.21191L28.3293 8.3877L23.9104 3.00684L22.9954 3.83105ZM27.2698 5.95605L28.8577 7.81934L29.7727 6.99414L28.1848 5.13184L27.2698 5.95605ZM21.428 5.21289L23.0149 7.0752L23.9309 6.25098L22.343 4.38867L21.428 5.21289ZM24.4485 2.5293L26.0364 4.39258L26.9514 3.56836L25.3635 1.70508L24.4485 2.5293Z" fill="#272727"/>
<path d="M26.4093 20.2285L24.8087 22.0986L23.8859 21.2705L25.4865 19.4004L26.4093 20.2285ZM24.8898 18.8066L23.2189 20.8027L22.296 19.9756L23.9669 17.9785L24.8898 18.8066ZM23.3634 17.5352L21.7628 19.4043L20.84 18.5771L22.4406 16.707L23.3634 17.5352ZM28.9689 16.8613L27.3683 18.7314L26.4454 17.9033L28.046 16.0332L28.9689 16.8613ZM27.631 15.4785L25.9601 17.4756L25.0372 16.6484L26.7081 14.6514L27.631 15.4785ZM26.0548 14.2441L24.4542 16.1133L23.5314 15.2861L25.132 13.416L26.0548 14.2441Z" fill="#272727"/>
<path d="M3.39465 17.5156L7.50012 22.2598L8.41516 21.4336L4.30969 16.6904L3.39465 17.5156ZM7.3595 18.9834L9.08508 20.8789L10.0001 20.0537L8.27454 18.1582L7.3595 18.9834ZM6.40637 14.8896L10.4913 19.5703L11.4064 18.7451L7.32141 14.0645L6.40637 14.8896ZM4.96106 16.1523L6.45618 17.9062L7.37122 17.0811L5.8761 15.3271L4.96106 16.1523Z" fill="#272727"/>
</g>
</g>
<defs>
<clipPath id="clip0_299_35439">
<rect width="32" height="24" fill="white"/>
</clipPath>
</defs>
</svg>
