<svg width="32" height="24" viewBox="0 0 32 24" fill="none" xmlns="http://www.w3.org/2000/svg">
<g clip-path="url(#clip0_299_35487)">
<rect width="32" height="24" fill="white"/>
<g clip-path="url(#clip1_299_35487)">
<path fill-rule="evenodd" clip-rule="evenodd" d="M0 0V24H32V0H0Z" fill="#2E42A5"/>
<mask id="mask0_299_35487" style="mask-type:luminance" maskUnits="userSpaceOnUse" x="0" y="0" width="32" height="24">
<path fill-rule="evenodd" clip-rule="evenodd" d="M0 0V24H32V0H0Z" fill="white"/>
</mask>
<g mask="url(#mask0_299_35487)">
<path d="M-2.00427 12.9991L1.95668 14.7363L18.0899 1.88805L20.1792 -0.693481L15.9435 -1.27411L9.36317 4.26259L4.06667 7.99302L-2.00427 12.9991Z" fill="#F7FCFF"/>
<path d="M-1.46204 14.2165L0.555885 15.2246L19.4289 -0.933105H16.5955L-1.46204 14.2165Z" fill="#F50100"/>
<path d="M20.0043 12.9991L16.0433 14.7363L-0.0898743 1.88805L-2.17919 -0.693481L2.05648 -1.27411L8.63683 4.26259L13.9333 7.99302L20.0043 12.9991Z" fill="#F7FCFF"/>
<path d="M19.8691 13.8727L17.8512 14.8809L9.81489 7.9629L7.43229 7.18998L-2.3802 -0.684557H0.453194L10.2602 7.00307L12.8651 7.92989L19.8691 13.8727Z" fill="#F50100"/>
<mask id="path-7-outside-1_299_35487" maskUnits="userSpaceOnUse" x="-2" y="-2" width="22" height="18" fill="black">
<rect fill="white" x="-2" y="-2" width="22" height="18"/>
<path fill-rule="evenodd" clip-rule="evenodd" d="M9.98451 0H7.98451V6H0V8H7.98451V14H9.98451V8H18V6H9.98451V0Z"/>
</mask>
<path fill-rule="evenodd" clip-rule="evenodd" d="M9.98451 0H7.98451V6H0V8H7.98451V14H9.98451V8H18V6H9.98451V0Z" fill="#F50100"/>
<path d="M7.98451 0V-1.5H6.48451V0H7.98451ZM9.98451 0H11.4845V-1.5H9.98451V0ZM7.98451 6V7.5H9.48451V6H7.98451ZM0 6V4.5H-1.5V6H0ZM0 8H-1.5V9.5H0V8ZM7.98451 8H9.48451V6.5H7.98451V8ZM7.98451 14H6.48451V15.5H7.98451V14ZM9.98451 14V15.5H11.4845V14H9.98451ZM9.98451 8V6.5H8.48451V8H9.98451ZM18 8V9.5H19.5V8H18ZM18 6H19.5V4.5H18V6ZM9.98451 6H8.48451V7.5H9.98451V6ZM7.98451 0V1.5H9.98451V0V-1.5H7.98451V0ZM7.98451 6H9.48451V0H7.98451H6.48451V6H7.98451ZM0 6V7.5H7.98451V6V4.5H0V6ZM0 8H1.5V6H0H-1.5V8H0ZM7.98451 8V6.5H0V8V9.5H7.98451V8ZM7.98451 14H9.48451V8H7.98451H6.48451V14H7.98451ZM9.98451 14V12.5H7.98451V14V15.5H9.98451V14ZM9.98451 8H8.48451V14H9.98451H11.4845V8H9.98451ZM18 8V6.5H9.98451V8V9.5H18V8ZM18 6H16.5V8H18H19.5V6H18ZM9.98451 6V7.5H18V6V4.5H9.98451V6ZM9.98451 0H8.48451V6H9.98451H11.4845V0H9.98451Z" fill="#F7FCFF" mask="url(#path-7-outside-1_299_35487)"/>
<g clip-path="url(#clip2_299_35487)">
<path d="M28.86 11.0498V14.7217C28.86 17.0736 27.951 18.6318 27.0251 19.6016C26.5618 20.0868 26.0931 20.4247 25.7321 20.6416C25.5518 20.75 25.3983 20.8283 25.2858 20.8789C25.2298 20.9041 25.1844 20.9227 25.1511 20.9346C25.1343 20.9405 25.1207 20.9446 25.111 20.9473C25.0997 20.9503 25.0976 20.9502 25.1003 20.9502C25.1027 20.9502 25.1 20.9503 25.0886 20.9473C25.0784 20.9446 25.0643 20.9406 25.0466 20.9346C25.0113 20.9226 24.9629 20.9033 24.903 20.8779C24.7832 20.8272 24.619 20.7491 24.4255 20.6406C24.0383 20.4235 23.5349 20.085 23.0358 19.5996C22.0384 18.6294 21.0573 17.0723 21.0573 14.7217V11.0498H28.86Z" fill="white"/>
<path d="M28.86 11.0498V14.7217C28.86 17.0736 27.951 18.6318 27.0251 19.6016C26.5618 20.0868 26.0931 20.4247 25.7321 20.6416C25.5518 20.75 25.3983 20.8283 25.2858 20.8789C25.2298 20.9041 25.1844 20.9227 25.1511 20.9346C25.1343 20.9405 25.1207 20.9446 25.111 20.9473C25.0997 20.9503 25.0976 20.9502 25.1003 20.9502C25.1027 20.9502 25.1 20.9503 25.0886 20.9473C25.0784 20.9446 25.0643 20.9406 25.0466 20.9346C25.0113 20.9226 24.9629 20.9033 24.903 20.8779C24.7832 20.8272 24.619 20.7491 24.4255 20.6406C24.0383 20.4235 23.5349 20.085 23.0358 19.5996C22.0384 18.6294 21.0573 17.0723 21.0573 14.7217V11.0498H28.86Z" stroke="#0B50A0" stroke-width="0.1"/>
<path d="M28.86 11.0498V14.7217C28.86 17.0736 27.951 18.6318 27.0251 19.6016C26.5618 20.0868 26.0931 20.4247 25.7321 20.6416C25.5518 20.75 25.3983 20.8283 25.2858 20.8789C25.2298 20.9041 25.1844 20.9227 25.1511 20.9346C25.1343 20.9405 25.1207 20.9446 25.111 20.9473C25.0997 20.9503 25.0976 20.9502 25.1003 20.9502C25.1027 20.9502 25.1 20.9503 25.0886 20.9473C25.0784 20.9446 25.0643 20.9406 25.0466 20.9346C25.0113 20.9226 24.9629 20.9033 24.903 20.8779C24.7832 20.8272 24.619 20.7491 24.4255 20.6406C24.0383 20.4235 23.5349 20.085 23.0358 19.5996C22.0384 18.6294 21.0573 17.0723 21.0573 14.7217V11.0498H28.86Z" stroke="#F7FCFF" stroke-width="0.1"/>
<mask id="mask1_299_35487" style="mask-type:luminance" maskUnits="userSpaceOnUse" x="21" y="11" width="8" height="10">
<path d="M28.86 11.0498V14.7217C28.86 17.0736 27.951 18.6318 27.0251 19.6016C26.5618 20.0868 26.0931 20.4247 25.7321 20.6416C25.5518 20.75 25.3983 20.8283 25.2858 20.8789C25.2298 20.9041 25.1844 20.9227 25.1511 20.9346C25.1343 20.9405 25.1207 20.9446 25.111 20.9473C25.0997 20.9503 25.0976 20.9502 25.1003 20.9502C25.1027 20.9502 25.1 20.9503 25.0886 20.9473C25.0784 20.9446 25.0643 20.9406 25.0466 20.9346C25.0113 20.9226 24.9629 20.9033 24.903 20.8779C24.7832 20.8272 24.619 20.7491 24.4255 20.6406C24.0383 20.4235 23.5349 20.085 23.0358 19.5996C22.0384 18.6294 21.0573 17.0723 21.0573 14.7217V11.0498H28.86Z" fill="white"/>
<path d="M28.86 11.0498V14.7217C28.86 17.0736 27.951 18.6318 27.0251 19.6016C26.5618 20.0868 26.0931 20.4247 25.7321 20.6416C25.5518 20.75 25.3983 20.8283 25.2858 20.8789C25.2298 20.9041 25.1844 20.9227 25.1511 20.9346C25.1343 20.9405 25.1207 20.9446 25.111 20.9473C25.0997 20.9503 25.0976 20.9502 25.1003 20.9502C25.1027 20.9502 25.1 20.9503 25.0886 20.9473C25.0784 20.9446 25.0643 20.9406 25.0466 20.9346C25.0113 20.9226 24.9629 20.9033 24.903 20.8779C24.7832 20.8272 24.619 20.7491 24.4255 20.6406C24.0383 20.4235 23.5349 20.085 23.0358 19.5996C22.0384 18.6294 21.0573 17.0723 21.0573 14.7217V11.0498H28.86Z" stroke="white" stroke-width="0.1"/>
</mask>
<g mask="url(#mask1_299_35487)">
<rect x="20.5" y="10.5" width="9" height="3.4" fill="#F50100"/>
<path d="M24.512 14.5996C24.8 14.5996 25.376 14.2862 25.52 14.2138C26.048 13.9004 26.432 14.1897 26.744 14.3344C27.08 14.479 27.704 14.6478 28.088 14.3344C28.472 14.0209 28.688 14.045 28.952 14.045C29 13.6833 29 13.3217 29 12.9118V12.6224C28.664 12.5501 28.496 12.6465 28.136 12.96C27.776 13.2734 27.368 13.2011 26.84 13.0082C26.336 12.7912 25.832 12.4054 25.328 13.0082C25.184 13.177 24.848 13.4181 24.512 13.4181C24.152 13.4181 23.84 13.177 23.696 13.0082C23.168 12.4054 22.688 12.7912 22.184 13.0082C21.656 13.2011 21.224 13.2734 20.864 12.96C20.528 12.6465 20.36 12.5501 20 12.6224V12.9118C20 13.3217 20.024 13.6833 20.072 14.045C20.336 14.045 20.528 14.0209 20.912 14.3344C21.296 14.6478 21.944 14.479 22.256 14.3344C22.592 14.1897 22.976 13.9004 23.504 14.2138C23.648 14.2862 24.2 14.5996 24.512 14.5996H24.512Z" fill="#F50100"/>
<path fill-rule="evenodd" clip-rule="evenodd" d="M22.0837 12.049C22.0837 12.049 22.3006 12.059 22.5575 12.3242C22.8144 12.5893 23.7595 12.4206 23.7595 12.2606C23.7595 12.1007 23.186 12.0051 23.4064 11.7316C23.6267 11.4581 24 11.4576 24.3 11.6001C24.3861 11.6001 24.3765 12.5356 24.5729 12.4843C25.1948 12.3217 26.1978 11.9994 26.492 12.1376C26.8791 12.3196 27.1753 12.2743 27.0769 12.0133C26.9785 11.7523 26.7256 11.5891 26.2387 11.7316C25.7517 11.8741 25.8666 12.0133 25.4457 12.0133C25.0248 12.0133 24.3027 12.241 24.6234 11.7316C24.9108 11.2751 25.2536 11.2662 25.3844 11.4581C25.4513 11.5563 24.9054 11.7731 24.9054 11.8741C24.9054 12.0133 26.3118 11.6003 26.492 11.6003C26.6723 11.6003 27.1684 11.5891 27.2175 11.7316C27.2667 11.8741 27.5662 12.0048 27.3379 12.1376C27.1096 12.2705 26.7331 12.3537 26.9921 12.5238C27.2512 12.694 27.9076 12.7714 27.9363 12.9484C27.965 13.1254 28.2474 13.3898 28.1341 13.3898C28.0207 13.3898 27.816 13.6391 27.6253 13.5632C27.4346 13.4873 27.4122 13.4206 27.595 13.3591C27.7779 13.2976 27.7761 13.039 27.6253 13.039C27.4745 13.039 27.4873 13.0194 27.144 12.9288C26.8006 12.8382 26.3461 12.7375 26.3734 12.9288C26.4007 13.1202 26.6332 13.5308 26.2208 13.5699C25.8083 13.6091 25.6152 13.7662 25.5349 13.6397C25.4546 13.5131 25.1677 13.3445 25.3933 13.2904C25.619 13.2364 25.8346 13.4742 25.9159 13.4354C25.9972 13.3965 26.1724 13.258 26.0182 13.0934C25.8639 12.9288 25.5642 12.9233 25.8 12.8001C26.0358 12.6769 25.895 12.5831 25.4457 12.8382C24.9964 13.0934 24.7465 13.3102 24.352 13.2796C23.9575 13.2489 23.7805 13.3892 23.6537 13.3479C23.527 13.3065 22.9095 13.8049 22.7316 13.6784C22.5538 13.5519 21.9798 13.5034 22.0831 13.3479C22.1865 13.1924 22.3252 13.1123 22.4797 13.1924C22.6343 13.2724 22.7878 13.3525 22.892 13.2724C22.9962 13.1924 23.3264 12.8186 23.2507 12.7637C23.175 12.7088 22.9083 12.6147 22.4797 12.6147C22.0511 12.6147 22.0412 12.3299 21.9395 12.2001C21.8378 12.0702 22.0837 12.049 22.0837 12.049Z" fill="#FFD100"/>
<path d="M24.512 17C24.8 17 25.376 16.6865 25.52 16.6142C26.048 16.3007 26.432 16.5901 26.744 16.7348C27.08 16.8794 27.704 17.0482 28.088 16.7348C28.472 16.4213 28.688 16.4454 28.952 16.4454C29 16.0837 29 15.7221 29 15.3121V15.0228C28.664 14.9505 28.496 15.0469 28.136 15.3604C27.776 15.6738 27.368 15.6015 26.84 15.4086C26.336 15.1916 25.832 14.8058 25.328 15.4086C25.184 15.5774 24.848 15.8185 24.512 15.8185C24.152 15.8185 23.84 15.5774 23.696 15.4086C23.168 14.8058 22.688 15.1916 22.184 15.4086C21.656 15.6015 21.224 15.6738 20.864 15.3604C20.528 15.0469 20.36 14.9505 20 15.0228V15.3121C20 15.7221 20.024 16.0837 20.072 16.4454C20.336 16.4454 20.528 16.4213 20.912 16.7348C21.296 17.0482 21.944 16.8794 22.256 16.7348C22.592 16.5901 22.976 16.3007 23.504 16.6142C23.648 16.6865 24.2 17 24.512 17H24.512Z" fill="#0B50A0"/>
<path d="M24.512 19.3008C24.8 19.3008 25.376 18.9873 25.52 18.915C26.048 18.6015 26.432 18.8909 26.744 19.0355C27.08 19.1802 27.704 19.349 28.088 19.0355C28.472 18.7221 28.688 18.7462 28.952 18.7462C29 18.3845 29 18.0228 29 17.6129V17.3236C28.664 17.2512 28.496 17.3477 28.136 17.6611C27.776 17.9746 27.368 17.9023 26.84 17.7094C26.336 17.4924 25.832 17.1066 25.328 17.7094C25.184 17.8782 24.848 18.1193 24.512 18.1193C24.152 18.1193 23.84 17.8782 23.696 17.7094C23.168 17.1066 22.688 17.4924 22.184 17.7094C21.656 17.9023 21.224 17.9746 20.864 17.6611C20.528 17.3477 20.36 17.2512 20 17.3236V17.6129C20 18.0228 20.024 18.3845 20.072 18.7462C20.336 18.7462 20.528 18.7221 20.912 19.0355C21.296 19.349 21.944 19.1802 22.256 19.0355C22.592 18.8909 22.976 18.6015 23.504 18.915C23.648 18.9873 24.2 19.3008 24.512 19.3008H24.512Z" fill="#0B50A0"/>
<path d="M24.512 21.5996C24.8 21.5996 25.376 21.2862 25.52 21.2138C26.048 20.9004 26.432 21.1897 26.744 21.3344C27.08 21.479 27.704 21.6478 28.088 21.3344C28.472 21.0209 28.688 21.045 28.952 21.045C29 20.6833 29 20.3217 29 19.9118V19.6224C28.664 19.5501 28.496 19.6465 28.136 19.96C27.776 20.2734 27.368 20.2011 26.84 20.0082C26.336 19.7912 25.832 19.4054 25.328 20.0082C25.184 20.177 24.848 20.4181 24.512 20.4181C24.152 20.4181 23.84 20.177 23.696 20.0082C23.168 19.4054 22.688 19.7912 22.184 20.0082C21.656 20.2011 21.224 20.2734 20.864 19.96C20.528 19.6465 20.36 19.5501 20 19.6224V19.9118C20 20.3217 20.024 20.6833 20.072 21.045C20.336 21.045 20.528 21.0209 20.912 21.3344C21.296 21.6478 21.944 21.479 22.256 21.3344C22.592 21.1897 22.976 20.9004 23.504 21.2138C23.648 21.2862 24.2 21.5996 24.512 21.5996H24.512Z" fill="#0B50A0"/>
<path d="M25.248 17.7451L25.2734 17.8057H25.7676L25.4082 18.1855L25.3672 18.2285L25.3857 18.2861L25.5557 18.7939L25.082 18.5449L25.0332 18.5186L24.9844 18.5469L24.5674 18.793L24.6904 18.2773L24.7041 18.2207L24.6611 18.1807L24.2549 17.8057H24.8447L24.8691 17.7402L25.042 17.2686L25.248 17.7451Z" fill="#059334" stroke="#FFD100" stroke-width="0.2"/>
<path d="M23.248 15.7451L23.2734 15.8057H23.7676L23.4082 16.1855L23.3672 16.2285L23.3857 16.2861L23.5557 16.7939L23.082 16.5449L23.0332 16.5186L22.9844 16.5469L22.5674 16.793L22.6904 16.2773L22.7041 16.2207L22.6611 16.1807L22.2549 15.8057H22.8447L22.8691 15.7402L23.042 15.2686L23.248 15.7451Z" fill="#059334" stroke="#FFD100" stroke-width="0.2"/>
<path d="M27.248 15.7451L27.2734 15.8057H27.7676L27.4082 16.1855L27.3672 16.2285L27.3857 16.2861L27.5557 16.7939L27.082 16.5449L27.0332 16.5186L26.9844 16.5469L26.5674 16.793L26.6904 16.2773L26.7041 16.2207L26.6611 16.1807L26.2549 15.8057H26.8447L26.8691 15.7402L27.042 15.2686L27.248 15.7451Z" fill="#059334" stroke="#FFD100" stroke-width="0.2"/>
</g>
</g>
<path d="M20.3369 20.6332C20.4288 20.8298 21.0871 21.0878 21.8527 20.7561C22.3733 20.5226 22.7101 20.1908 23.0316 19.601C23.1235 19.4535 23.1694 19.2692 22.9551 19.1586C22.7867 19.0603 22.5111 18.9497 22.3886 18.8514C22.3273 18.8022 22.2661 18.7654 22.2202 18.7285C22.2508 18.7531 22.2814 18.7777 22.312 18.8145C22.6182 19.1094 22.2967 19.5395 21.9599 19.7976C21.7149 19.9819 21.2709 20.4366 20.6278 20.0065C20.49 19.9082 20.1685 20.3137 20.3369 20.6332L20.3369 20.6332Z" fill="#FFD100"/>
<path d="M29.6459 20.6332C29.5387 20.8298 28.8804 21.0878 28.1301 20.7561C27.6096 20.5226 27.2727 20.1908 26.9359 19.601C26.8593 19.4535 26.8134 19.2692 27.0277 19.1586C27.1961 19.0603 27.4717 18.9497 27.5942 18.8514C27.6555 18.8022 27.7014 18.7654 27.7627 18.7285C27.732 18.7531 27.7014 18.7777 27.6708 18.8145C27.3646 19.1094 27.6861 19.5395 28.0076 19.7976C28.2526 19.9819 28.7119 20.4366 29.355 20.0065C29.4928 19.9082 29.799 20.3137 29.6459 20.6332L29.6459 20.6332Z" fill="#FFD100"/>
<path d="M24.9915 21.6895C26.2164 21.6895 28.0996 21.2472 29.1102 19.6989C29.2786 19.4408 29.1102 19.3057 28.9111 19.2196C28.6968 19.1459 28.4365 18.9739 28.2987 18.8633C28.5436 19.0599 28.4977 19.1951 28.3293 19.4162C27.5484 20.4607 26.4767 20.9891 24.9915 20.9891C23.5063 20.9891 22.4346 20.4607 21.6537 19.4162C21.4853 19.1951 21.4393 19.0599 21.669 18.8633C21.5465 18.9739 21.2709 19.1459 21.0566 19.2196C20.8575 19.3057 20.6891 19.4408 20.8575 19.6989C21.8681 21.2472 23.7666 21.6895 24.9915 21.6895H24.9915Z" fill="#FFD100"/>
<path d="M22.1589 19.6137C22.1283 19.4908 21.9293 19.54 21.868 19.6874C21.7915 19.6014 21.7149 19.5154 21.6537 19.4171C21.4699 19.1959 21.4393 19.0484 21.6996 18.8395C21.8221 18.7412 22.0671 18.6306 22.2355 18.7535C22.5876 18.987 22.4039 19.3679 22.1589 19.6137L22.1589 19.6137Z" fill="#F50100"/>
<path d="M27.8087 19.6137C27.8393 19.4908 28.0537 19.54 28.1149 19.6874C28.1915 19.6014 28.268 19.5154 28.3293 19.4171C28.513 19.1959 28.5436 19.0484 28.268 18.8395C28.1609 18.7412 27.9159 18.6306 27.7322 18.7535C27.3953 18.987 27.5637 19.3679 27.8087 19.6137L27.8087 19.6137Z" fill="#F50100"/>
<path fill-rule="evenodd" clip-rule="evenodd" d="M27.417 6.29087C27.4363 6.34606 26.5914 6.96488 26.3281 7.66001C26.3293 7.66254 26.3299 7.66528 26.3311 7.66782C27.1421 6.99304 27.9872 6.72535 27.9873 6.81724C27.9864 6.9159 27.0472 7.37817 26.4854 8.25864C26.4908 8.30932 26.4951 8.3607 26.4971 8.41294C26.8465 8.09014 27.1875 7.96228 27.1875 8.00962C27.185 8.06676 26.7194 8.33918 26.4688 8.86118C26.3608 9.51483 25.9691 9.99985 25.5 9.99985C25.0414 9.99985 24.656 9.5365 24.5381 8.90513C24.2932 8.35466 23.8023 8.06831 23.7998 8.00962C23.7998 7.96174 24.1484 8.09362 24.502 8.42466C24.5036 8.37481 24.5069 8.32565 24.5117 8.2772C23.9513 7.38531 23.0009 6.91655 23 6.81724C23.0001 6.72506 23.8506 6.99509 24.6641 7.67466C24.4072 6.97408 23.5518 6.34701 23.5703 6.29087C23.5881 6.24197 24.3099 6.67513 24.8916 7.3104C24.9887 7.19847 25.0992 7.11212 25.2197 7.05942L24.7998 6.49985H26.2998L25.8516 7.09653C25.942 7.1476 26.0258 7.21758 26.1016 7.30357C26.6822 6.67185 27.3993 6.24213 27.417 6.29087Z" fill="#FFD100"/>
<path d="M23.424 9.36477C23.3037 9.20049 22.9771 9.12748 22.8396 9.27351C22.7881 9.31001 22.7193 9.31001 22.6678 9.32827C22.5818 9.32827 22.4721 9.37423 22.5065 9.55676C22.599 9.55676 22.599 9.60207 22.6506 9.60207C22.6849 9.58381 22.7743 9.91864 22.9462 9.90039C23.1353 9.90039 23.3037 9.98539 23.3381 10.0219C23.3897 10.0767 23.4584 10.2227 23.3725 10.2957C23.2521 10.4052 23.1662 10.6608 23.3725 10.8615C23.5959 11.0441 24.1631 11.3179 24.7991 10.7885C25.4179 10.2774 26.3804 10.5695 26.4491 10.752C26.5351 10.9346 26.5695 11.0441 26.5866 11.1353C26.6038 11.2084 27.0679 11.3179 27.1367 11.3726C27.2226 11.4274 27.3429 11.4091 27.3086 11.2449C27.2398 10.7338 26.9476 10.6608 26.9132 10.4235C27.0851 10.4417 27.2054 10.4417 27.2742 10.3687C27.3257 10.2957 27.3945 10.1679 27.4632 10.1314C27.5148 10.0949 27.5148 10.0584 27.4461 10.0767C27.3601 10.0949 27.3086 10.1314 27.1539 10.1132C26.7879 10.0709 26.8784 8.68629 25.6682 8.41694C24.9203 8.25049 23.9877 9.39191 23.7319 9.50491C23.7264 9.50737 23.7211 9.50934 23.7162 9.5108C23.5959 9.5108 23.4928 9.45604 23.424 9.36477Z" fill="#059334"/>
</g>
</g>
</g>
<defs>
<clipPath id="clip0_299_35487">
<rect width="32" height="24" fill="white"/>
</clipPath>
<clipPath id="clip1_299_35487">
<rect width="32" height="24" fill="white"/>
</clipPath>
<clipPath id="clip2_299_35487">
<rect width="8" height="10" fill="white" transform="translate(21 11)"/>
</clipPath>
</defs>
</svg>
