<svg width="32" height="24" viewBox="0 0 32 24" fill="none" xmlns="http://www.w3.org/2000/svg">
<g clip-path="url(#clip0_299_35489)">
<rect width="32" height="24" fill="white"/>
<path fill-rule="evenodd" clip-rule="evenodd" d="M0 0V24H32V0H0Z" fill="#4EC7EE"/>
<mask id="mask0_299_35489" style="mask-type:luminance" maskUnits="userSpaceOnUse" x="0" y="0" width="32" height="24">
<path fill-rule="evenodd" clip-rule="evenodd" d="M0 0V24H32V0H0Z" fill="white"/>
</mask>
<g mask="url(#mask0_299_35489)">
<path d="M4.08996 23.2382C4.0265 23.7082 4.32755 24.043 4.83258 24.2584C5.51149 24.5481 6.19653 24.2769 6.82667 23.5787L6.01006 22.8417C5.73015 23.1518 5.52787 23.2713 5.37173 23.2693C5.67746 23.0509 6.06917 22.7812 6.5463 22.4608L6.77531 22.1291C6.95925 21.3401 6.38731 20.9126 5.51507 20.9126C5.00131 20.9126 4.59057 21.0142 4.32997 21.2327C3.90184 21.5917 3.97514 22.1647 4.42568 22.4629C4.46142 22.4865 4.49769 22.5078 4.53445 22.5268C4.28171 22.7402 4.12745 22.9606 4.08996 23.2382Z" fill="#FFE402"/>
<path d="M4.56488 22.4961C4.56488 22.4961 4.68966 22.2195 4.62727 22.0756" stroke="#FFE402" stroke-width="1.1"/>
<path d="M8.5694 23.2382C8.63287 23.7082 8.33181 24.043 7.82679 24.2584C7.14787 24.5481 6.46283 24.2769 5.8327 23.5787L6.6493 22.8417C6.92922 23.1518 7.13149 23.2713 7.28763 23.2693C6.9819 23.0509 6.59019 22.7812 6.11306 22.4608L5.88405 22.1291C5.70012 21.3401 6.27205 20.9126 7.14429 20.9126C7.65805 20.9126 8.06879 21.0142 8.32939 21.2327C8.75752 21.5917 8.68423 22.1647 8.23368 22.4629C8.19795 22.4865 8.16167 22.5078 8.12491 22.5268C8.37765 22.7402 8.53191 22.9606 8.5694 23.2382Z" fill="#FFE402"/>
<path d="M8.59576 22.2703L7.5931 22.7227C7.45236 22.4107 7.41031 22.1273 7.52743 21.8572L8.53665 22.2948C8.57058 22.2165 8.57013 22.2134 8.59576 22.2703Z" fill="#FFE402"/>
<path d="M4.08996 0.763731C4.0265 0.293732 4.32755 -0.0410358 4.83258 -0.256493C5.51149 -0.546135 6.19653 -0.274912 6.82667 0.4233L6.01006 1.16029C5.73015 0.850134 5.52787 0.730638 5.37173 0.73267C5.67746 0.951089 6.06917 1.22073 6.5463 1.54115L6.77531 1.87288C6.95925 2.66187 6.38731 3.0894 5.51507 3.0894C5.00131 3.0894 4.59057 2.98774 4.32997 2.76924C3.90184 2.41026 3.97514 1.83721 4.42568 1.53908C4.46142 1.51543 4.49769 1.49415 4.53445 1.47518C4.28171 1.26174 4.12745 1.04139 4.08996 0.763731Z" fill="#FFE402"/>
<path d="M8.5694 0.763731C8.63287 0.293732 8.33181 -0.0410358 7.82679 -0.256493C7.14787 -0.546135 6.46283 -0.274912 5.8327 0.4233L6.6493 1.16029C6.92922 0.850134 7.13149 0.730638 7.28763 0.73267C6.9819 0.951089 6.59019 1.22073 6.11306 1.54115L5.88405 1.87288C5.70012 2.66187 6.27205 3.0894 7.14429 3.0894C7.65805 3.0894 8.06879 2.98774 8.32939 2.76924C8.75752 2.41026 8.68423 1.83721 8.23368 1.53908C8.19795 1.51543 8.16167 1.49415 8.12491 1.47518C8.37765 1.26174 8.53191 1.04139 8.5694 0.763731Z" fill="#FFE402"/>
<path fill-rule="evenodd" clip-rule="evenodd" d="M5.41482 21.7012C6.04285 21.7012 6.75076 21.3113 6.75076 20.6133C6.75072 20.1886 6.21093 19.3313 4.85134 17.4736C4.8031 17.4287 4.77667 17.4092 4.75564 17.4102C4.83771 17.364 4.98328 17.3076 5.17654 17.3076C5.24301 17.3077 5.32927 17.3417 5.41482 17.3848V18.1133H6.85427V17.5635C6.85427 16.9422 5.93605 16.2082 5.17654 16.208C4.51319 16.208 3.98046 16.5236 3.71072 16.9775C3.44416 17.4262 3.6482 17.8567 4.03103 18.1992C4.60062 18.9848 5.04269 19.6352 5.32009 20.0625C5.2182 20.0617 5.16216 20.0625 5.09353 20.0645C4.46267 20.0826 4.07021 20.2123 4.07009 20.8203C4.07009 21.491 4.72157 21.7012 5.41482 21.7012ZM5.03982 20.3291C5.07487 20.3114 5.1095 20.2891 5.06033 20.3701L5.03982 20.3291ZM5.15896 21.0449C4.97343 20.8813 4.92077 20.5956 5.05642 20.376C5.05758 20.3741 5.05925 20.3719 5.06033 20.3701L5.16091 20.5713C5.1411 20.5669 5.12209 20.5618 5.10427 20.5566C5.11773 20.5708 5.16965 20.6335 5.1697 20.8203C5.1697 20.9223 5.16555 20.9945 5.15896 21.0449ZM5.08474 20.5508C5.08673 20.5514 5.08955 20.5528 5.09255 20.5547L5.10427 20.5566C5.09774 20.5547 5.09092 20.5528 5.08474 20.5508ZM5.63943 20.584L5.64627 20.5908C5.64912 20.5966 5.65017 20.6041 5.65017 20.6133C5.65014 20.6091 5.64671 20.599 5.63943 20.584Z" fill="#FFE402"/>
<path fill-rule="evenodd" clip-rule="evenodd" d="M7.24448 21.7012C6.61646 21.7012 5.90854 21.3113 5.90854 20.6133C5.90858 20.1886 6.44837 19.3313 7.80796 17.4736C7.8562 17.4287 7.88263 17.4092 7.90366 17.4102C7.82159 17.364 7.67602 17.3076 7.48276 17.3076C7.41629 17.3077 7.33004 17.3417 7.24448 17.3848V18.1133H5.80503V17.5635C5.80503 16.9422 6.72325 16.2082 7.48276 16.208C8.14611 16.208 8.67884 16.5236 8.94858 16.9775C9.21514 17.4262 9.0111 17.8567 8.62827 18.1992C8.05869 18.9848 7.61661 19.6352 7.33921 20.0625C7.4411 20.0617 7.49714 20.0625 7.56577 20.0645C8.19664 20.0826 8.58909 20.2123 8.58921 20.8203C8.58921 21.491 7.93773 21.7012 7.24448 21.7012ZM7.61948 20.3291C7.58444 20.3114 7.5498 20.2891 7.59897 20.3701L7.61948 20.3291ZM7.50034 21.0449C7.68587 20.8813 7.73853 20.5956 7.60288 20.376C7.60172 20.3741 7.60005 20.3719 7.59897 20.3701L7.49839 20.5713C7.5182 20.5669 7.53721 20.5618 7.55503 20.5566C7.54157 20.5708 7.48965 20.6335 7.4896 20.8203C7.4896 20.9223 7.49375 20.9945 7.50034 21.0449ZM7.57456 20.5508C7.57257 20.5514 7.56976 20.5528 7.56675 20.5547L7.55503 20.5566C7.56156 20.5547 7.56839 20.5528 7.57456 20.5508ZM7.01987 20.584L7.01304 20.5908C7.01018 20.5966 7.00914 20.6041 7.00913 20.6133C7.00916 20.6091 7.01259 20.599 7.01987 20.584Z" fill="#FFE402"/>
<path fill-rule="evenodd" clip-rule="evenodd" d="M5.41482 11.7188C6.04285 11.7188 6.75076 12.1086 6.75076 12.8066C6.75072 13.2313 6.21093 14.0887 4.85134 15.9463C4.8031 15.9912 4.77667 16.0107 4.75564 16.0098C4.83771 16.0559 4.98328 16.1123 5.17654 16.1123C5.24301 16.1122 5.32927 16.0782 5.41482 16.0352V15.3066H6.85427V15.8564C6.85427 16.4778 5.93605 17.2117 5.17654 17.2119C4.51319 17.2119 3.98046 16.8964 3.71072 16.4424C3.44416 15.9937 3.6482 15.5633 4.03103 15.2207C4.60062 14.4351 5.04269 13.7847 5.32009 13.3574C5.2182 13.3583 5.16216 13.3574 5.09353 13.3555C4.46267 13.3373 4.07021 13.2076 4.07009 12.5996C4.07009 11.9289 4.72157 11.7188 5.41482 11.7188ZM5.03982 13.0908C5.07487 13.1085 5.1095 13.1309 5.06033 13.0498L5.03982 13.0908ZM5.15896 12.375C4.97343 12.5387 4.92077 12.8243 5.05642 13.0439C5.05758 13.0458 5.05925 13.048 5.06033 13.0498L5.16091 12.8486C5.1411 12.853 5.12209 12.8581 5.10427 12.8633C5.11773 12.8491 5.16965 12.7864 5.1697 12.5996C5.1697 12.4976 5.16555 12.4254 5.15896 12.375ZM5.08474 12.8691C5.08673 12.8685 5.08955 12.8671 5.09255 12.8652L5.10427 12.8633C5.09774 12.8652 5.09092 12.8672 5.08474 12.8691ZM5.63943 12.8359L5.64627 12.8291C5.64912 12.8233 5.65017 12.8158 5.65017 12.8066C5.65014 12.8108 5.64671 12.821 5.63943 12.8359Z" fill="#FFE402"/>
<path fill-rule="evenodd" clip-rule="evenodd" d="M7.24448 11.7188C6.61646 11.7188 5.90854 12.1086 5.90854 12.8066C5.90858 13.2313 6.44837 14.0887 7.80796 15.9463C7.8562 15.9912 7.88263 16.0107 7.90366 16.0098C7.82159 16.0559 7.67602 16.1123 7.48276 16.1123C7.41629 16.1122 7.33004 16.0782 7.24448 16.0352V15.3066H5.80503V15.8564C5.80503 16.4778 6.72325 17.2117 7.48276 17.2119C8.14611 17.2119 8.67884 16.8964 8.94858 16.4424C9.21514 15.9937 9.0111 15.5633 8.62827 15.2207C8.05869 14.4351 7.61661 13.7847 7.33921 13.3574C7.4411 13.3583 7.49714 13.3574 7.56577 13.3555C8.19664 13.3373 8.58909 13.2076 8.58921 12.5996C8.58921 11.9289 7.93773 11.7188 7.24448 11.7188ZM7.61948 13.0908C7.58444 13.1085 7.5498 13.1309 7.59897 13.0498L7.61948 13.0908ZM7.50034 12.375C7.68587 12.5387 7.73853 12.8243 7.60288 13.0439C7.60172 13.0458 7.60005 13.048 7.59897 13.0498L7.49839 12.8486C7.5182 12.853 7.53721 12.8581 7.55503 12.8633C7.54157 12.8491 7.48965 12.7864 7.4896 12.5996C7.4896 12.4976 7.49375 12.4254 7.50034 12.375ZM7.57456 12.8691C7.57257 12.8685 7.56976 12.8671 7.56675 12.8652L7.55503 12.8633C7.56156 12.8652 7.56839 12.8672 7.57456 12.8691ZM7.01987 12.8359L7.01304 12.8291C7.01018 12.8233 7.00914 12.8158 7.00913 12.8066C7.00916 12.8108 7.01259 12.821 7.01987 12.8359Z" fill="#FFE402"/>
<path fill-rule="evenodd" clip-rule="evenodd" d="M5.41482 12.2832C6.04285 12.2832 6.75076 11.8934 6.75076 11.1953C6.75072 10.7706 6.21093 9.91329 4.85134 8.05566C4.8031 8.01073 4.77667 7.99126 4.75564 7.99219C4.83771 7.94602 4.98328 7.88965 5.17654 7.88965C5.24301 7.88974 5.32927 7.92377 5.41482 7.9668V8.69531H6.85427V8.14551C6.85427 7.52419 5.93605 6.79022 5.17654 6.79004C4.51319 6.79004 3.98046 7.1056 3.71072 7.55957C3.44416 8.00821 3.6482 8.4387 4.03103 8.78125C4.60062 9.56681 5.04269 10.2172 5.32009 10.6445C5.2182 10.6437 5.16216 10.6445 5.09353 10.6465C4.46267 10.6647 4.07021 10.7943 4.07009 11.4023C4.07009 12.0731 4.72157 12.2832 5.41482 12.2832ZM5.03982 10.9111C5.07487 10.8935 5.1095 10.8711 5.06033 10.9521L5.03982 10.9111ZM5.15896 11.627C4.97343 11.4633 4.92077 11.1777 5.05642 10.958C5.05758 10.9561 5.05925 10.9539 5.06033 10.9521L5.16091 11.1533C5.1411 11.1489 5.12209 11.1438 5.10427 11.1387C5.11773 11.1528 5.16965 11.2155 5.1697 11.4023C5.1697 11.5043 5.16555 11.5765 5.15896 11.627ZM5.08474 11.1328C5.08673 11.1335 5.08955 11.1348 5.09255 11.1367L5.10427 11.1387C5.09774 11.1368 5.09092 11.1348 5.08474 11.1328ZM5.63943 11.166L5.64627 11.1729C5.64912 11.1787 5.65017 11.1861 5.65017 11.1953C5.65014 11.1911 5.64671 11.181 5.63943 11.166Z" fill="#FFE402"/>
<path fill-rule="evenodd" clip-rule="evenodd" d="M7.24448 12.2832C6.61646 12.2832 5.90854 11.8934 5.90854 11.1953C5.90858 10.7706 6.44837 9.91329 7.80796 8.05566C7.8562 8.01073 7.88263 7.99126 7.90366 7.99219C7.82159 7.94602 7.67602 7.88965 7.48276 7.88965C7.41629 7.88974 7.33004 7.92377 7.24448 7.9668V8.69531H5.80503V8.14551C5.80503 7.52419 6.72325 6.79022 7.48276 6.79004C8.14611 6.79004 8.67884 7.1056 8.94858 7.55957C9.21514 8.00821 9.0111 8.4387 8.62827 8.78125C8.05869 9.56681 7.61661 10.2172 7.33921 10.6445C7.4411 10.6437 7.49714 10.6445 7.56577 10.6465C8.19664 10.6647 8.58909 10.7943 8.58921 11.4023C8.58921 12.0731 7.93773 12.2832 7.24448 12.2832ZM7.61948 10.9111C7.58444 10.8935 7.5498 10.8711 7.59897 10.9521L7.61948 10.9111ZM7.50034 11.627C7.68587 11.4633 7.73853 11.1777 7.60288 10.958C7.60172 10.9561 7.60005 10.9539 7.59897 10.9521L7.49839 11.1533C7.5182 11.1489 7.53721 11.1438 7.55503 11.1387C7.54157 11.1528 7.48965 11.2155 7.4896 11.4023C7.4896 11.5043 7.49375 11.5765 7.50034 11.627ZM7.57456 11.1328C7.57257 11.1335 7.56976 11.1348 7.56675 11.1367L7.55503 11.1387C7.56156 11.1368 7.56839 11.1348 7.57456 11.1328ZM7.01987 11.166L7.01304 11.1729C7.01018 11.1787 7.00914 11.1861 7.00913 11.1953C7.00916 11.1911 7.01259 11.181 7.01987 11.166Z" fill="#FFE402"/>
<path fill-rule="evenodd" clip-rule="evenodd" d="M5.41482 2.30078C6.04285 2.30078 6.75076 2.69061 6.75076 3.38867C6.75072 3.81336 6.21093 4.6707 4.85134 6.52832C4.8031 6.57326 4.77667 6.59273 4.75564 6.5918C4.83771 6.63796 4.98328 6.69434 5.17654 6.69434C5.24301 6.69424 5.32927 6.66022 5.41482 6.61719V5.88867H6.85427V6.43848C6.85427 7.05979 5.93605 7.79377 5.17654 7.79395C4.51319 7.79395 3.98046 7.47838 3.71072 7.02441C3.44416 6.57578 3.6482 6.14528 4.03103 5.80273C4.60062 5.01717 5.04269 4.36676 5.32009 3.93945C5.2182 3.9403 5.16216 3.93948 5.09353 3.9375C4.46267 3.91933 4.07021 3.78966 4.07009 3.18164C4.07009 2.51092 4.72157 2.3008 5.41482 2.30078ZM5.03982 3.67285C5.07487 3.69053 5.1095 3.71289 5.06033 3.63184L5.03982 3.67285ZM5.15896 2.95703C4.97343 3.1207 4.92077 3.40631 5.05642 3.62598C5.05758 3.62785 5.05925 3.63006 5.06033 3.63184L5.16091 3.43066C5.1411 3.43508 5.12209 3.44014 5.10427 3.44531C5.11773 3.43118 5.16965 3.36847 5.1697 3.18164C5.1697 3.07965 5.16555 3.00748 5.15896 2.95703ZM5.08474 3.45117C5.08673 3.45053 5.08955 3.44918 5.09255 3.44727L5.10427 3.44531C5.09774 3.44721 5.09092 3.44918 5.08474 3.45117ZM5.63943 3.41797L5.64627 3.41113C5.64912 3.40531 5.65017 3.39785 5.65017 3.38867C5.65014 3.39286 5.64671 3.40299 5.63943 3.41797Z" fill="#FFE402"/>
<path fill-rule="evenodd" clip-rule="evenodd" d="M7.24448 2.30078C6.61646 2.30078 5.90854 2.69061 5.90854 3.38867C5.90858 3.81336 6.44837 4.6707 7.80796 6.52832C7.8562 6.57326 7.88263 6.59273 7.90366 6.5918C7.82159 6.63796 7.67602 6.69434 7.48276 6.69434C7.41629 6.69424 7.33004 6.66022 7.24448 6.61719V5.88867H5.80503V6.43848C5.80503 7.05979 6.72325 7.79377 7.48276 7.79395C8.14611 7.79395 8.67884 7.47838 8.94858 7.02441C9.21514 6.57578 9.0111 6.14528 8.62827 5.80273C8.05869 5.01717 7.61661 4.36676 7.33921 3.93945C7.4411 3.9403 7.49714 3.93948 7.56577 3.9375C8.19664 3.91933 8.58909 3.78966 8.58921 3.18164C8.58921 2.51092 7.93773 2.3008 7.24448 2.30078ZM7.61948 3.67285C7.58444 3.69053 7.5498 3.71289 7.59897 3.63184L7.61948 3.67285ZM7.50034 2.95703C7.68587 3.1207 7.73853 3.40631 7.60288 3.62598C7.60172 3.62785 7.60005 3.63006 7.59897 3.63184L7.49839 3.43066C7.5182 3.43508 7.53721 3.44014 7.55503 3.44531C7.54157 3.43118 7.48965 3.36847 7.4896 3.18164C7.4896 3.07965 7.49375 3.00748 7.50034 2.95703ZM7.57456 3.45117C7.57257 3.45053 7.56976 3.44918 7.56675 3.44727L7.55503 3.44531C7.56156 3.44721 7.56839 3.44918 7.57456 3.45117ZM7.01987 3.41797L7.01304 3.41113C7.01018 3.40531 7.00914 3.39785 7.00913 3.38867C7.00916 3.39286 7.01259 3.40299 7.01987 3.41797Z" fill="#FFE402"/>
<path d="M18.4359 12.5107C18.8168 12.5711 18.7894 12.9071 18.7884 12.918L18.1644 14.3662L17.9993 12.793C18.0011 12.7816 18.0552 12.4505 18.4359 12.5107ZM19.5335 12.5146C19.9153 12.4544 19.9925 12.7843 19.9944 12.793L19.848 14.3633L19.2044 12.918C19.2025 12.9062 19.1531 12.5749 19.5335 12.5146ZM16.8724 12.3037C16.8768 12.2945 17.0254 11.9919 17.3724 12.1611C17.7248 12.333 17.5901 12.6543 17.5901 12.6543L16.5706 13.8564L16.8724 12.3037ZM20.5989 12.1729C20.9514 12.001 21.1214 12.3037 21.1214 12.3037L21.4407 13.8477L20.4026 12.6543C20.4026 12.6543 20.2466 12.3447 20.5989 12.1729ZM15.9339 11.4854C15.9339 11.4854 16.1668 11.228 16.4534 11.4951C16.7402 11.7625 16.5179 12.0303 16.5179 12.0303L15.1917 12.8818L15.9339 11.4854ZM21.5218 11.5117C21.8084 11.2448 22.0599 11.4854 22.0599 11.4854L22.8167 12.8682L21.4749 12.0303C21.4749 12.0303 21.235 11.7791 21.5218 11.5117ZM19.0599 5.02051C20.9321 5.02051 22.4504 6.63199 22.4505 8.62012C22.4505 10.6083 20.9321 12.2207 19.0599 12.2207C17.1878 12.2205 15.6702 10.6082 15.6702 8.62012C15.6703 6.63213 17.1879 5.02074 19.0599 5.02051ZM15.2679 10.4092C15.2771 10.4038 15.5691 10.2371 15.762 10.5713C15.9581 10.9109 15.6673 11.1016 15.6673 11.1016L14.1497 11.5283L15.2679 10.4092ZM22.2191 10.5928C22.4107 10.2608 22.7116 10.4027 22.7249 10.4092L23.8538 11.5107L22.3255 11.1016C22.317 11.0967 22.0259 10.9273 22.2191 10.5928ZM14.9339 9.17285C14.9462 9.16997 15.2722 9.09784 15.3587 9.47266C15.4449 9.84694 15.1261 9.94738 15.1136 9.95117L13.5374 9.91602L14.9339 9.17285ZM23.0599 9.17285L24.4603 9.89648L22.8802 9.95117C22.8802 9.95117 22.5401 9.87809 22.6282 9.49609C22.7164 9.11403 23.0599 9.17285 23.0599 9.17285ZM14.9612 7.88574C14.9706 7.88634 15.3075 7.91033 15.2806 8.2959C15.2537 8.68077 14.9164 8.68266 14.9056 8.68262L13.4085 8.1875L14.9612 7.88574ZM24.5833 8.16797L23.0882 8.68262C23.0882 8.68262 22.7415 8.71147 22.7142 8.32031C22.6876 7.93807 23.0168 7.88781 23.0316 7.88574L24.5833 8.16797ZM22.931 7.40723C22.9213 7.41101 22.6075 7.53067 22.4691 7.1709C22.3285 6.80483 22.6448 6.66113 22.6448 6.66113L24.2112 6.47754L22.931 7.40723ZM15.348 6.66211C15.3535 6.66418 15.6726 6.78471 15.5335 7.14746C15.3954 7.50724 15.0729 7.41161 15.0618 7.4082L13.7747 6.49609L15.348 6.66211ZM22.4368 6.24414C22.4352 6.24548 22.1692 6.46493 21.9232 6.16113C21.677 5.85694 21.9332 5.62372 21.9339 5.62305L23.3665 4.96387L22.4368 6.24414ZM16.0589 5.62305C16.0589 5.62305 16.332 5.83785 16.0853 6.14258C15.8385 6.44708 15.556 6.24414 15.556 6.24414L14.6146 4.97949L16.0589 5.62305ZM21.6253 5.28418C21.6205 5.29134 21.4316 5.57186 21.1107 5.35547C20.7856 5.1362 20.9632 4.83691 20.9632 4.83691L22.1409 3.78906L21.6253 5.28418ZM17.0296 4.83789C17.0356 4.84674 17.2225 5.12603 16.9026 5.3418C16.5791 5.55986 16.3694 5.28663 16.3675 5.28418L15.8362 3.7998L17.0296 4.83789ZM20.5814 4.62109C20.5795 4.62736 20.4807 4.95304 20.1097 4.83984C19.7425 4.7276 19.8136 4.40127 19.8167 4.3877L20.636 3.04004L20.5814 4.62109ZM18.1761 4.3877C18.1798 4.3998 18.2749 4.71946 17.9075 4.83203C17.5326 4.94667 17.4114 4.62109 17.4114 4.62109L17.3382 3.0459L18.1761 4.3877ZM19.3958 4.3125C19.3958 4.3125 19.4009 4.65999 19.0091 4.66016C18.617 4.66016 18.597 4.3125 18.597 4.3125L18.9866 2.78516L19.3958 4.3125Z" fill="#FFE402"/>
<path d="M21.6186 16.1924C21.863 16.2551 22.0885 16.3077 22.2934 16.3496L22.4682 16.6426C22.6046 16.5778 22.7378 16.5111 22.8696 16.4463C23.179 16.4862 23.4112 16.4908 23.56 16.46C23.5721 16.4257 23.5743 16.4263 24.0756 16.5605C24.2042 17.4363 24.2041 17.436 24.0151 17.4619C23.9562 17.4939 23.9558 17.4945 23.9301 17.5049C23.8909 17.52 23.8907 17.52 23.8598 17.5303C23.784 17.5552 23.6488 17.5942 23.477 17.6406C23.067 17.7513 22.5371 17.8811 22.0092 17.998C20.4553 18.3425 19.249 18.5121 18.5952 18.4033L18.2973 18.3535L18.1791 18.0752C18.1485 18.003 17.6808 17.7653 16.8412 17.5283L16.2153 17.3516L16.9848 17.1152L15.8256 16.6592L15.2534 17.0801L12.6938 16.3574L15.2133 16.4102C15.3211 16.4571 15.4299 16.5033 15.5405 16.5469L15.8256 16.6592L16.1362 16.4307L16.9018 16.4463L17.1909 17.0215L17.6254 16.7012L17.2768 16.4531C17.5104 16.4572 17.7348 16.4604 17.9496 16.4619L17.6254 16.7012L17.8237 16.8428C18.177 16.7209 18.5201 16.5936 18.853 16.46C20.2163 16.4452 21.0334 16.3732 21.1547 16.2832L21.3657 16.127L21.6186 16.1924ZM17.8237 16.8428C17.5632 16.9326 17.2973 17.0201 17.0258 17.1035L16.9848 17.1152L19.7192 18.1934L18.8354 17.5635C18.8021 17.5638 18.7686 17.5652 18.7348 17.5654L18.7455 17.499L17.8237 16.8428ZM16.2153 17.3516L13.9291 18.0557L15.2534 17.0801L16.2153 17.3516ZM18.7455 17.499L18.8354 17.5635C18.9436 17.5626 19.0488 17.5623 19.1508 17.5605C19.1079 17.4818 19.0533 17.407 18.9868 17.3359C18.9058 17.3338 18.835 17.3282 18.7758 17.3184L18.7455 17.499ZM21.4116 17.002L21.3452 17.2578C21.4092 17.2743 21.4726 17.2904 21.5346 17.3057C21.6485 17.2649 21.7403 17.2187 21.81 17.167L21.6498 16.9512C21.5695 16.9687 21.49 16.9855 21.4116 17.002ZM22.4282 16.375C22.5504 16.3983 22.6648 16.4171 22.7709 16.4326L22.5561 16.5898L22.4282 16.375ZM15.4584 16.416L15.4223 16.4834L15.3237 16.4131L15.4584 16.416ZM20.0258 15.9453C19.6503 16.126 19.259 16.2969 18.853 16.46C18.5743 16.463 18.2727 16.4641 17.9496 16.4619L18.6528 15.9453H20.0258ZM17.2768 16.4531C17.1867 16.4516 17.0952 16.4512 17.0024 16.4492L16.9018 16.4463L16.7036 16.0527C16.7062 16.0519 16.7087 16.0506 16.7114 16.0498L17.2768 16.4531ZM27.9692 12.5918C27.1554 13.9027 25.4554 15.1747 22.8696 16.4463C22.8375 16.4422 22.8047 16.4375 22.7709 16.4326L27.8256 12.7461L27.4018 12.3525C27.9372 12.0769 28.2862 11.7157 28.4311 11.25L28.5541 10.8525L29.4575 10.1943L27.9692 12.5918ZM11.3344 12.2197V12.5107C11.3344 13.0312 11.7006 13.4247 12.3295 13.748L12.7739 13.2676C13.4236 14.0408 14.1984 14.6625 15.1 15.1367L14.4389 14.4316L16.6821 16.0293L16.1362 16.4307L15.4584 16.416L15.9438 15.5234C15.651 15.4081 15.3699 15.2787 15.1 15.1367L15.1459 15.1855L12.3403 13.7539C12.3367 13.7521 12.333 13.7499 12.3295 13.748L12.0336 14.0693L15.3237 16.4131L15.2133 16.4102C13.9173 15.8452 12.8212 15.0328 11.9321 13.9746L9.14984 10.6641L11.3344 12.2197ZM22.4282 16.375C22.3843 16.3666 22.3393 16.359 22.2934 16.3496L22.0532 15.9453H22.1733L22.4282 16.375ZM16.9526 15.8291C17.0419 15.85 17.1324 15.8676 17.2241 15.8828C17.0554 15.9389 16.8851 15.9964 16.7114 16.0498L16.6821 16.0293L16.9526 15.8291ZM22.7895 15.9453H22.1733L22.0737 15.7783L22.7895 15.9453ZM19.644 15.2148L18.6528 15.9453H17.9828C17.7218 15.9453 17.4688 15.9234 17.2241 15.8828C17.2926 15.86 17.3615 15.8396 17.4291 15.8164C17.5695 15.8587 17.7122 15.8979 17.8578 15.9316L17.8891 15.6494C18.3467 15.481 18.7835 15.3016 19.2006 15.1123L19.644 15.2148ZM21.934 15.7461L22.0532 15.9453H20.0258C20.3204 15.8036 20.6045 15.6545 20.8803 15.502L21.934 15.7461ZM13.3969 12.2256C14.2578 13.9637 15.4983 15.1347 17.1127 15.7119L16.9526 15.8291C15.4034 15.4673 14.1997 14.2569 13.3422 12.2529L13.3969 12.2256ZM17.8891 15.6494C17.7376 15.7052 17.5851 15.7629 17.4291 15.8164C17.3221 15.7842 17.2167 15.7491 17.1127 15.7119L17.9536 15.0928L17.8891 15.6494ZM26.5121 12.6865C25.633 13.6416 24.1275 14.636 21.9965 15.6484L22.0737 15.7783L21.934 15.7461L21.9077 15.7012L25.7885 12.8691L26.2768 12.752C26.3577 12.7323 26.4354 12.7079 26.5121 12.6865ZM24.7094 11.5889L24.6205 11.6729L24.9086 12.0508C24.7565 12.2618 24.5959 12.468 24.4262 12.6689L23.0971 13.5234L23.7934 13.3535C22.9815 14.1609 22.0104 14.8769 20.8803 15.502L19.644 15.2148L24.6469 11.5332L24.7094 11.5889ZM25.1557 10.4717L24.7739 10.1514C23.7457 12.2377 21.8928 13.8905 19.2006 15.1123L18.2319 14.8877L26.2817 8.96484L25.1557 10.4717ZM13.9057 10.5928C14.7338 13.0006 16.1255 14.4 18.1069 14.8594L18.2319 14.8877L17.9536 15.0928L17.9828 14.8457C16.1487 14.8457 14.7957 13.4853 13.9106 10.6094L13.4975 10.7432L13.4916 10.7256L13.9057 10.5928ZM12.1547 11.9951C12.2372 12.16 12.3315 12.3332 12.4389 12.5146C12.4439 12.5195 12.4548 12.5272 12.4702 12.54L12.3246 12.1758L12.6323 12.5039L12.5043 12.5693C12.527 12.5866 12.5563 12.6064 12.5922 12.6299L12.6987 12.5752L12.7641 12.6455L12.6889 12.6895C12.7092 12.7013 12.7312 12.7129 12.7543 12.7256L12.809 12.6934L14.4389 14.4316L12.645 13.1543L12.8403 12.7734C12.8092 12.7576 12.7813 12.7404 12.7543 12.7256L12.3608 12.9512L12.3032 12.9102L12.6889 12.6895C12.6521 12.668 12.6201 12.6481 12.5922 12.6299L12.5268 12.6631C12.4963 12.6133 12.4677 12.5632 12.4389 12.5146C12.4361 12.512 12.434 12.5107 12.434 12.5107H11.9448L12.0561 12.7344L11.9828 12.6816C11.947 12.6242 11.9135 12.5675 11.8803 12.5127L11.8217 12.5674L11.3344 12.2197V11.4082C11.4269 11.7006 11.607 12.0612 11.8803 12.5127L11.8842 12.5107H11.9448L11.3344 11.2822V11.2383L11.4096 11.2002L12.1547 11.9951ZM11.9828 12.6816C12.0535 12.7949 12.1292 12.9137 12.2104 13.0381L12.3608 12.9512L12.645 13.1543L12.5903 13.2637L12.1889 13.6396L11.4828 12.8867L11.8217 12.5674L11.9828 12.6816ZM26.35 12.46L25.7885 12.8691L23.7934 13.3535C24.0162 13.132 24.2275 12.9043 24.4262 12.6689L25.0659 12.2578L25.2836 12.5439C25.5954 12.3524 25.8801 12.16 26.1411 11.9727L26.35 12.46ZM12.3032 12.9102L12.1791 12.9814L12.0561 12.7344L12.3032 12.9102ZM12.3598 11.0029C12.36 11.0716 12.4411 11.2602 12.5961 11.5459L12.4291 11.0146L13.0424 12.249L13.02 12.2588C13.0281 12.2717 13.036 12.2848 13.0444 12.2979L13.062 12.2881L13.0727 12.3096L13.0561 12.3164C13.0688 12.3363 13.0811 12.3567 13.0942 12.377L13.103 12.3721L13.1635 12.4922L12.809 12.6934L12.7641 12.6455L13.1313 12.4365C13.1184 12.4168 13.1068 12.3964 13.0942 12.377L12.6987 12.5752L12.6323 12.5039L12.8637 12.3887C12.6263 11.8616 12.4456 11.4011 12.3188 11.0029H12.3598ZM27.4018 12.3525C27.147 12.4837 26.8494 12.5924 26.5121 12.6865C26.5475 12.6481 26.5804 12.6086 26.6137 12.5703L27.2182 12.1816L27.4018 12.3525ZM28.2036 11.5498L27.2182 12.1816L27.0346 12.0117C26.9197 12.1969 26.7778 12.3819 26.6137 12.5703L26.4448 12.6797L26.35 12.46L28.0102 11.249L28.2036 11.5498ZM12.4858 12.5791L12.5043 12.5693C12.4903 12.5586 12.4797 12.548 12.4702 12.54L12.4858 12.5791ZM26.3061 11.6045C26.2157 11.6313 26.1194 11.6578 26.017 11.6826L26.0756 11.8193L25.3715 12.4775L25.1586 12.1982L25.2914 12.1133L25.2924 12.1143C25.2939 12.1129 25.2948 12.1108 25.2963 12.1094L26.8022 11.1426L26.3061 11.6045ZM12.8637 12.3887L12.8647 12.3896L13.0561 12.3164C13.0521 12.3102 13.0483 12.304 13.0444 12.2979L12.8637 12.3887ZM12.9946 10.8877L12.8998 10.9189C12.9015 10.9248 12.904 10.9305 12.9057 10.9365L13.0014 10.9043L13.4731 12.0859L13.4487 12.0957L13.3559 12.1416C13.3643 12.1589 13.3728 12.1761 13.3813 12.1934L13.4985 12.1484L13.5073 12.1709L13.3969 12.2256C13.3916 12.2149 13.3866 12.2041 13.3813 12.1934L13.3246 12.2139C13.3302 12.227 13.3366 12.2398 13.3422 12.2529L13.103 12.3721L13.0727 12.3096L13.3246 12.2139C13.3181 12.1985 13.3106 12.1835 13.3041 12.168L13.062 12.2881L13.0424 12.249L13.2983 12.1533C13.1402 11.774 12.9935 11.367 12.8598 10.9326L12.8998 10.9189C12.8691 10.8095 12.853 10.7162 12.853 10.6396H12.312L12.4291 11.0146L12.2524 10.6592L12.3032 10.6396H12.312L12.1264 10.0459L12.5991 9.89746L12.9946 10.8877ZM12.8412 12.3281L13.02 12.2588C12.8436 11.9817 12.7022 11.7414 12.5961 11.5459L12.8412 12.3281ZM25.1586 12.1982L25.0659 12.2578L24.9086 12.0508C24.931 12.0198 24.954 11.9893 24.976 11.958L25.1586 12.1982ZM11.7534 9.65332V10.6396C11.7534 10.757 11.7678 10.8803 11.7934 11.0107L11.81 11.0029H11.8559L11.7924 10.8438L12.2211 10.6719C12.2486 10.7772 12.282 10.8873 12.3188 11.0029H11.8559L12.3246 12.1758L12.1547 11.9951C11.9716 11.6291 11.8508 11.303 11.7934 11.0107L11.4096 11.2002L11.3344 11.1201V11.2383L11.3168 11.2471L11.3344 11.2822V11.4082C11.2861 11.2554 11.2593 11.1219 11.2592 11.0029V8.65918L11.7534 9.65332ZM13.2983 12.1533C13.3003 12.1582 13.3021 12.1631 13.3041 12.168L13.3559 12.1416C13.3545 12.1387 13.3534 12.1357 13.352 12.1328L13.2983 12.1533ZM13.4916 10.7256L13.395 10.7578C13.3969 10.7636 13.3988 10.7695 13.4008 10.7754L13.4975 10.7432L13.8911 12L13.4985 12.1484L13.4731 12.0859L13.8676 11.9375C13.6659 11.4897 13.5106 11.1007 13.4008 10.7754L13.0014 10.9043L12.9946 10.8877L13.395 10.7578C13.2661 10.3727 13.2016 10.0782 13.2016 9.88184H12.6518L12.5991 9.89746L12.102 8.65137V6.2832L13.4916 10.7256ZM12.8657 10.9502C13.0099 11.3697 13.1738 11.7632 13.352 12.1328L13.4487 12.0957L13.4653 12.0879C13.1726 11.6104 12.9887 11.221 12.9057 10.9365L12.8657 10.9502ZM27.1928 9.71582C26.8676 10.4514 26.2343 11.2437 25.2963 12.1094L25.2914 12.1133L25.0307 11.8779C25.0499 11.8501 25.0685 11.8219 25.0873 11.7939L25.3598 12.0391L27.1274 9.6709L27.1928 9.71582ZM26.8969 11.374C26.6749 11.5723 26.4223 11.7707 26.1411 11.9727L26.0756 11.8193L26.3061 11.6045C26.5439 11.5339 26.7393 11.455 26.8969 11.374ZM25.0307 11.8779C25.0124 11.9045 24.9946 11.9316 24.976 11.958L24.7084 11.6064C24.7124 11.604 24.7162 11.6011 24.7202 11.5986L25.0307 11.8779ZM25.5434 11.0508C25.4028 11.3051 25.2502 11.5524 25.0873 11.7939L24.808 11.542C25.0773 11.3738 25.3229 11.2109 25.5434 11.0508ZM24.808 11.542C24.7787 11.5603 24.7501 11.5802 24.7202 11.5986L24.7094 11.5889L24.7836 11.5195L24.808 11.542ZM25.2758 10.5723C25.0637 10.8056 24.8219 11.0515 24.5463 11.3057L24.7299 11.4717L24.6469 11.5332L24.478 11.3809L25.1557 10.4717L25.2758 10.5723ZM24.7836 11.5195L24.7299 11.4717L25.2289 11.1045L24.7836 11.5195ZM28.5541 10.8525L28.0102 11.249L27.9067 11.0869L27.3813 10.9238C27.3329 11.079 27.1745 11.2314 26.8969 11.374C27.1757 11.125 27.4081 10.8791 27.5932 10.6338L28.8803 9.80762L28.5541 10.8525ZM27.9789 9.97656C27.8884 10.1953 27.7591 10.4139 27.5932 10.6338L26.8022 11.1426L27.8461 10.1689L27.1928 9.71582C27.2495 9.58768 27.2985 9.46171 27.3364 9.33691L27.4194 9.06152L28.9467 7.6377L27.9789 9.97656ZM25.5932 10.8379L25.2289 11.1045L25.5522 10.8037L25.5932 10.8379ZM27.2504 9.50684L27.1274 9.6709L26.9623 9.55664C26.7834 9.9889 26.3108 10.4935 25.5434 11.0508C25.6186 10.9148 25.6914 10.7773 25.7602 10.6377L25.7846 10.5859L27.0502 9.40527L27.2504 9.50684ZM26.5034 9.12891L25.7846 10.5859L25.5522 10.8037L25.2758 10.5723C25.8127 9.98154 26.1491 9.46103 26.2836 9.01758L26.5034 9.12891ZM12.2524 10.6592L12.2211 10.6719C12.2084 10.6231 12.1986 10.5749 12.1879 10.5283L12.2524 10.6592ZM12.102 8.65137V9.88184C12.102 10.0689 12.1319 10.2835 12.1879 10.5283L11.7534 9.65332V7.7793L12.102 8.65137ZM27.4194 9.06152L27.0502 9.40527L26.5034 9.12891L26.7573 8.61523L26.2817 8.96484L28.2485 6.33105L27.4194 9.06152Z" fill="#FFE402"/>
</g>
</g>
<defs>
<clipPath id="clip0_299_35489">
<rect width="32" height="24" fill="white"/>
</clipPath>
</defs>
</svg>
