<svg width="32" height="24" viewBox="0 0 32 24" fill="none" xmlns="http://www.w3.org/2000/svg">
<g clip-path="url(#clip0_299_35493)">
<rect width="32" height="24" fill="white"/>
<path d="M32 24H0V18H32V24ZM32 6H0V0H32V6Z" fill="#F50101"/>
<path fill-rule="evenodd" clip-rule="evenodd" d="M0 6H32V18H0V6Z" fill="#F7FCFF"/>
<path fill-rule="evenodd" clip-rule="evenodd" d="M21.5148 12.5131C21.5894 13.3805 18.3886 12.1533 18.3886 12.5005C18.3886 12.8478 21.8174 13.4576 21.8117 14.235C21.806 15.0124 17.746 14.0132 18.6564 14.3628C19.5669 14.7124 21.5217 15.5493 21.2995 16.0707C20.825 17.1843 17.6734 15.2982 17.4113 15.67C16.9883 16.2698 19.7369 17.6687 19.7137 17.8024C19.6689 18.0587 17.8364 17.3995 17.4113 17.9318C17.0672 17.8347 16.9081 17.3713 16.8012 17.3099L16.1249 8.58649C16.1249 8.58649 16.7322 16.7999 15.9563 17.0361C15.1803 17.2723 13.0249 17.9905 12.9622 17.6318C12.9388 17.4982 15.5575 16.2698 15.1344 15.67C14.8229 15.2281 11.6627 16.7954 11.4611 15.8878C10.5629 15.2404 14.3698 14.6801 14.3698 14.018C14.3698 13.3558 10.8872 14.8017 11.3038 13.88C11.7205 12.9582 14.5085 12.6282 14.5606 12.5005C14.6557 12.2671 11.4611 12.864 11.4611 12.5005C11.4611 11.8129 13.3732 11.6775 14.5606 11.0587C14.6307 10.3524 11.6802 11.7539 11.4611 11.1878C11.2419 10.6217 15.2322 9.15504 15.1344 9.04079C14.98 8.86035 11.7641 9.67452 12.2944 9.24697C13.3238 8.41717 15.3329 7.28879 15.7952 6.9878C15.7952 6.9878 15.8509 6.87424 15.9104 6.91278C15.97 6.87424 16.0356 6.83203 16.0356 6.83203C16.0356 6.83203 16.0356 7.54206 16.0257 6.9878C16.0158 6.43355 20.7353 8.8588 20.7889 9.47361C20.8513 10.1918 17.8728 8.93214 17.9428 9.63836C18.5483 10.0135 20.2704 10.7394 20.9819 11.0587C21.3046 11.2034 18.6041 10.7522 18.6611 10.9738C18.8065 11.5384 21.4371 11.6085 21.5148 12.5131Z" fill="#52AB0B"/>
</g>
<defs>
<clipPath id="clip0_299_35493">
<rect width="32" height="24" fill="white"/>
</clipPath>
</defs>
</svg>
