<svg width="32" height="24" viewBox="0 0 32 24" fill="none" xmlns="http://www.w3.org/2000/svg">
<g clip-path="url(#clip0_299_35497)">
<rect width="32" height="24" fill="white"/>
<path fill-rule="evenodd" clip-rule="evenodd" d="M0 0V24H32V0H0Z" fill="#E31D1C"/>
<mask id="mask0_299_35497" style="mask-type:luminance" maskUnits="userSpaceOnUse" x="0" y="0" width="32" height="24">
<path fill-rule="evenodd" clip-rule="evenodd" d="M0 0V24H32V0H0Z" fill="white"/>
</mask>
<g mask="url(#mask0_299_35497)">
<path fill-rule="evenodd" clip-rule="evenodd" d="M0 0V12H32V0H0Z" fill="#2E42A5"/>
<path fill-rule="evenodd" clip-rule="evenodd" d="M4.79846 11.054C4.79846 11.054 6.00513 11.8051 8.8013 11.8051C11.5975 11.8051 13.0817 11.054 13.0817 11.054C13.0817 11.054 10.8888 9.7793 8.92815 9.7793C6.96747 9.7793 4.79846 11.054 4.79846 11.054Z" fill="black"/>
<path d="M10.7664 3.2793C11.4681 3.1039 12.2824 3.01689 12.9236 3.57422C13.5528 4.12117 13.6594 4.96703 13.6326 5.61523C13.6188 5.94635 13.5696 6.24488 13.5242 6.45996C13.5014 6.56777 13.4792 6.65542 13.4626 6.7168C13.4544 6.74752 13.4471 6.77219 13.4421 6.78906C13.4397 6.79726 13.4377 6.80399 13.4363 6.80859C13.4356 6.8108 13.4357 6.81314 13.4353 6.81445L13.4343 6.81543V6.81641L13.3787 6.99121H4.72632L4.65405 6.86719V6.86621L4.65308 6.86426C4.65225 6.86282 4.65055 6.86084 4.64917 6.8584C4.64642 6.85355 4.64315 6.84648 4.63843 6.83789C4.6288 6.82039 4.61476 6.79546 4.59839 6.76367C4.56561 6.70003 4.52154 6.60867 4.47339 6.49707C4.37755 6.27492 4.2642 5.9648 4.2019 5.62207C4.13991 5.28083 4.12545 4.89131 4.24194 4.51953C4.36082 4.14039 4.61174 3.79444 5.05054 3.5459C5.89324 3.06864 6.65354 3.13431 7.31226 3.30762C7.63033 3.39132 7.94768 3.50643 8.21265 3.58984C8.49022 3.67722 8.72668 3.73535 8.94116 3.73535C9.15669 3.73532 9.42463 3.67327 9.74585 3.5791C10.0534 3.48895 10.4148 3.36718 10.7664 3.2793Z" fill="#FFD83D" stroke="black" stroke-width="0.5"/>
<path d="M8.97534 6.01758C10.6674 6.01759 11.9316 6.23498 12.7771 6.45508C13.1998 6.56512 13.5181 6.67565 13.7322 6.75977C13.8392 6.80181 13.92 6.83785 13.9753 6.86328C14.0029 6.87596 14.024 6.88627 14.0388 6.89355C14.0462 6.8972 14.0522 6.90021 14.0564 6.90234C14.0583 6.9033 14.0601 6.90366 14.0613 6.9043L14.0632 6.90527L14.0642 6.90625L14.2585 7.00879L14.1814 7.21484L12.9968 10.3828L12.9138 10.6035L12.6892 10.5342H12.6882C12.6875 10.534 12.6859 10.5337 12.6843 10.5332C12.6812 10.5322 12.676 10.5302 12.6697 10.5283C12.6566 10.5244 12.6368 10.5191 12.6111 10.5117C12.5587 10.4967 12.481 10.4743 12.3816 10.4482C12.1829 10.396 11.8974 10.3267 11.5525 10.2568C10.8607 10.1168 9.93566 9.97754 8.9939 9.97754C8.05199 9.97756 7.10996 10.1166 6.40015 10.2568C6.046 10.3268 5.75121 10.3969 5.54565 10.4492C5.4431 10.4753 5.36272 10.4966 5.30835 10.5117C5.28127 10.5192 5.26055 10.5254 5.24683 10.5293C5.23997 10.5313 5.23452 10.5332 5.2312 10.5342L5.22729 10.5352L5.00171 10.6025L4.92065 10.3809L3.76733 7.21289L3.69312 7.00781L3.88647 6.90625L3.88843 6.9043C3.88972 6.90363 3.8922 6.90341 3.89429 6.90234C3.89838 6.90026 3.90379 6.89706 3.91089 6.89355C3.92567 6.88626 3.94768 6.876 3.97534 6.86328C4.03065 6.83786 4.11166 6.80174 4.21851 6.75977C4.43257 6.67568 4.7502 6.56506 5.17261 6.45508C6.01819 6.23494 7.28296 6.01758 8.97534 6.01758Z" fill="#FFD83D" stroke="black" stroke-width="0.5"/>
<path d="M8.87354 2.07422C9.43325 2.07422 9.79639 2.62145 9.79639 3.16992C9.7962 3.71826 9.43311 4.26465 8.87354 4.26465C8.31418 4.26439 7.95185 3.71813 7.95166 3.16992C7.95166 2.62157 8.31404 2.07448 8.87354 2.07422Z" fill="#FFD83D" stroke="black" stroke-width="0.5"/>
<mask id="path-8-outside-1_299_35497" maskUnits="userSpaceOnUse" x="7.11755" y="-1" width="4" height="5" fill="black">
<rect fill="white" x="7.11755" y="-1" width="4" height="5"/>
<path fill-rule="evenodd" clip-rule="evenodd" d="M9.12596 0H8.62176L8.68666 0.922722L8.11755 0.845283V1.47925L8.6954 1.39965L8.62176 2.85283H9.12596L9.05131 1.39721L9.63016 1.47925V0.845283L9.0618 0.926866L9.12596 0Z"/>
</mask>
<path fill-rule="evenodd" clip-rule="evenodd" d="M9.12596 0H8.62176L8.68666 0.922722L8.11755 0.845283V1.47925L8.6954 1.39965L8.62176 2.85283H9.12596L9.05131 1.39721L9.63016 1.47925V0.845283L9.0618 0.926866L9.12596 0Z" fill="#FFD83D"/>
<path d="M8.62176 0V-0.5H8.08535L8.12299 0.0350833L8.62176 0ZM9.12596 0L9.62476 0.0345249L9.66176 -0.5H9.12596V0ZM8.68666 0.922722L8.61925 1.41816L9.22858 1.50107L9.18543 0.887638L8.68666 0.922722ZM8.11755 0.845283L8.18497 0.349849L7.61755 0.27264V0.845283H8.11755ZM8.11755 1.47925H7.61755V2.05284L8.18578 1.97457L8.11755 1.47925ZM8.6954 1.39965L9.19476 1.42496L9.22532 0.821939L8.62717 0.904328L8.6954 1.39965ZM8.62176 2.85283L8.1224 2.82752L8.09577 3.35283H8.62176V2.85283ZM9.12596 2.85283V3.35283H9.65225L9.6253 2.82722L9.12596 2.85283ZM9.05131 1.39721L9.12148 0.902154L8.52091 0.817036L8.55197 1.42281L9.05131 1.39721ZM9.63016 1.47925L9.56 1.9743L10.1302 2.05511V1.47925H9.63016ZM9.63016 0.845283H10.1302V0.268387L9.55912 0.350356L9.63016 0.845283ZM9.0618 0.926866L8.563 0.892341L8.52027 1.50972L9.13285 1.42179L9.0618 0.926866ZM8.62176 0V0.5H9.12596V0V-0.5H8.62176V0ZM8.68666 0.922722L9.18543 0.887638L9.12052 -0.0350833L8.62176 0L8.12299 0.0350833L8.18789 0.957805L8.68666 0.922722ZM8.11755 0.845283L8.05014 1.34072L8.61925 1.41816L8.68666 0.922722L8.75407 0.427287L8.18497 0.349849L8.11755 0.845283ZM8.11755 1.47925H8.61755V0.845283H8.11755H7.61755V1.47925H8.11755ZM8.6954 1.39965L8.62717 0.904328L8.04933 0.983922L8.11755 1.47925L8.18578 1.97457L8.76363 1.89497L8.6954 1.39965ZM8.62176 2.85283L9.12111 2.87814L9.19476 1.42496L8.6954 1.39965L8.19604 1.37434L8.1224 2.82752L8.62176 2.85283ZM9.12596 2.85283V2.35283H8.62176V2.85283V3.35283H9.12596V2.85283ZM9.05131 1.39721L8.55197 1.42281L8.62661 2.87844L9.12596 2.85283L9.6253 2.82722L9.55066 1.3716L9.05131 1.39721ZM9.63016 1.47925L9.70032 0.984193L9.12148 0.902154L9.05131 1.39721L8.98115 1.89226L9.56 1.9743L9.63016 1.47925ZM9.63016 0.845283H9.13016V1.47925H9.63016H10.1302V0.845283H9.63016ZM9.0618 0.926866L9.13285 1.42179L9.7012 1.34021L9.63016 0.845283L9.55912 0.350356L8.99076 0.431939L9.0618 0.926866ZM9.12596 0L8.62715 -0.0345249L8.563 0.892341L9.0618 0.926866L9.56061 0.961391L9.62476 0.0345249L9.12596 0Z" fill="black" mask="url(#path-8-outside-1_299_35497)"/>
</g>
</g>
<defs>
<clipPath id="clip0_299_35497">
<rect width="32" height="24" fill="white"/>
</clipPath>
</defs>
</svg>
