<svg width="32" height="24" viewBox="0 0 32 24" fill="none" xmlns="http://www.w3.org/2000/svg">
<g clip-path="url(#clip0_299_35499)">
<rect width="32" height="24" fill="white"/>
<path fill-rule="evenodd" clip-rule="evenodd" d="M0 0H32V24H0V0Z" fill="#FECA00"/>
<rect x="2" y="2" width="6" height="20" fill="#1F8A6E"/>
<rect x="8" y="2" width="6" height="20" fill="#F56800"/>
<rect x="14" y="2" width="16" height="20" fill="#B01D00"/>
<rect x="12" y="2" width="2" height="20" fill="#E8AA00"/>
<path d="M17.1003 6.17188C17.0998 6.17546 17.0183 6.67414 16.8601 7.42578C16.7024 8.17515 16.6826 11.5916 16.6824 11.6377C16.6934 11.6419 17.2302 11.848 17.2302 12.123C17.2302 12.4008 17.0183 12.5664 17.0183 12.5664L17.907 13.5391C17.9037 13.5359 17.7387 13.3738 18.0447 12.3369C18.3538 11.2898 19.2029 11.3156 19.5505 10.9756C19.8979 10.6359 19.3742 11.077 19.0847 11.0771C18.7953 11.0771 19.0842 10.9544 18.8962 10.8164C18.7091 10.6787 19.0842 10.6777 18.6638 10.8164C18.2435 10.9551 18.5633 10.6777 18.4792 10.5312C18.395 10.3848 18.2086 10.6776 17.907 10.8164C17.6054 10.9552 17.9199 10.6777 18.0447 10.5312C18.1695 10.3848 17.9199 10.5312 17.6345 10.5312C17.3491 10.5312 17.6339 10.0275 17.7351 9.74219C17.8361 9.45729 17.6346 9.65342 17.6345 9.24219C17.6345 8.83046 18.2087 9.24146 18.0447 9.11328C17.8807 8.98476 17.6345 8.38592 17.6345 8.17578C17.6345 7.96556 17.8546 7.73438 18.0447 7.73438C18.2348 7.73438 18.4792 8.03223 18.4792 8.03223C18.4881 8.03222 18.8006 8.03156 19.2029 7.97949C19.6105 7.92659 19.5505 7.73457 19.5505 7.42578C19.5506 7.11715 19.7705 7.42578 20.1169 7.42578C20.4634 7.42583 20.7781 7.58105 20.7781 7.58105C20.7781 7.58105 20.778 7.22949 21.0281 7.22949C21.2781 7.22956 21.4207 7.58105 21.4207 7.58105L21.7966 7.22949C21.7966 7.22949 22.3877 7.58105 22.6003 7.58105C22.8129 7.58073 23.0408 7.22949 23.0408 7.22949V7.73438C23.052 7.72018 23.5307 7.12665 24.8718 6.97168C26.229 6.81492 27.5301 8.31933 28.0125 8.49316C28.4873 8.66373 28.2 8.4982 28.1912 8.49316C28.1912 8.49316 28.0131 8.23633 28.325 8.23633C28.6367 8.23643 28.7859 8.49316 28.7859 8.49316C28.7864 8.50099 28.8159 9.01602 28.1912 9.11328C27.5614 9.21118 26.8953 8.38574 26.8953 8.38574C26.8953 8.38574 27.2158 8.85572 26.8953 8.6709C26.5818 8.49008 26.3706 8.49293 26.3611 8.49316C26.3611 8.49316 26.4208 7.94904 26.2546 8.38574C26.0895 8.81995 25.5381 8.85504 25.531 8.85547C25.5354 8.84801 25.7346 8.50686 25.8269 8.23633C25.8777 8.08702 25.6951 7.9958 25.5339 7.91992C25.4879 7.73923 25.385 7.6397 25.325 7.73438C25.2809 7.80436 25.3999 7.85684 25.5339 7.91992C25.5623 8.03123 25.5694 8.17371 25.531 8.32031C25.4299 8.7049 24.8718 8.6709 24.8718 8.6709C24.8718 8.6709 24.7273 8.53801 24.9568 8.17578C25.1843 7.81615 24.3848 7.58422 24.3738 7.58105C24.3751 7.59041 24.3991 7.76379 24.3738 7.97949C24.3478 8.19884 24.0305 8.03552 24.0242 8.03223C24.0242 8.03223 23.7395 7.76369 23.5144 8.03223C23.2894 8.30076 23.6511 8.6709 23.6511 8.6709C23.6511 8.6709 23.7073 8.49283 24.0242 8.38574C24.341 8.27877 24.5291 8.49316 24.5291 8.49316C24.5291 8.49316 24.4326 8.59513 24.2195 8.85547C24.0063 9.11589 24.3201 9.24219 24.3201 9.24219C24.3201 9.24219 24.7193 8.75076 24.7195 9.01562C24.7195 9.2809 24.872 9.24213 25.4216 9.40234C25.9648 9.56062 27.1868 9.24955 27.2156 9.24219C27.2156 9.24219 28.4693 9.32883 28.4695 10.126C28.4695 10.916 27.918 11.3084 27.908 11.3154C27.9146 11.3284 28.3249 12.1286 28.325 12.8291C28.325 13.5353 28.0132 14.0602 27.908 14.9463C27.8028 15.8324 28.134 15.77 28.325 15.9922C28.5152 16.2143 28.1339 16.4764 27.908 16.7256C27.6821 16.9747 27.8863 17.0838 28.0125 17.3408C28.1386 17.5982 28.2093 17.8926 28.0125 17.8926C27.8157 17.8923 27.531 17.7295 27.531 17.7295C27.531 17.7295 27.414 17.8926 27.2156 17.8926C27.0174 17.8923 26.8953 17.7295 26.8953 17.7295C26.8953 17.7295 26.8899 17.8925 26.6609 17.8926C26.4318 17.8926 26.3611 17.7295 26.3611 17.7295C26.3611 17.7295 25.9079 17.8926 25.6873 17.8926C25.4667 17.8926 25.4216 17.7295 25.4216 17.7295C25.4216 17.7295 25.4234 17.8924 25.1736 17.8926C24.9233 17.8926 24.8718 17.7295 24.8718 17.7295C24.8718 17.7295 24.72 17.8924 24.5291 17.8926C24.338 17.8926 24.2195 17.7295 24.2195 17.7295C24.2195 17.7295 24.2234 17.8925 24.0242 17.8926C23.8249 17.8926 23.8074 17.7675 23.8074 17.4795C23.8074 17.1937 24.8546 17.0857 24.8718 17.084C24.8718 17.084 25.1978 16.1697 24.7195 15.7695C24.2414 15.3694 24.1917 14.4085 24.0242 14.4082C23.8566 14.4082 23.1801 14.5563 22.7732 14.7031C22.3697 14.8487 21.4365 15.2999 21.4207 15.3076C21.4207 15.3076 21.0922 15.5538 21.0281 15.9365C20.9646 16.3155 21.5738 16.3279 21.5857 16.3281C21.4224 16.8814 20.7907 16.9786 20.7781 16.9805C20.9719 17.1364 20.7702 17.8315 20.5037 17.8926C20.2425 17.9524 20.1217 17.7747 20.1169 17.7676C20.1169 17.7676 19.9337 17.8926 19.7703 17.8926C19.6068 17.8926 19.3738 17.7295 19.3738 17.7295C19.3738 17.7295 19.3092 17.8925 19.0847 17.8926C18.8602 17.8926 18.8962 17.7295 18.8962 17.7295C18.8962 17.7295 18.8419 17.8003 18.5632 17.8926C18.2845 17.9849 18.4419 17.5277 18.4792 17.3408C18.5172 17.1541 19.0077 17.017 19.3093 17.084C19.611 17.1508 19.867 16.9088 19.9333 16.4756C19.9994 16.0423 19.5505 15.4121 19.5505 15.4121L18.9353 15.0674C18.9264 15.0775 18.5042 15.5537 18.2087 15.5537C17.9101 15.5537 17.2302 14.9463 17.2302 14.9463C17.2246 14.9515 17.0983 15.0674 17.0183 15.0674C16.9364 15.0669 16.7863 14.9075 16.8601 14.5566C16.9059 14.3393 16.8235 14.1547 16.7566 14.0439C16.7501 14.0322 16.7439 14.0199 16.7361 14.0078C16.7048 13.9612 16.6824 13.9336 16.6824 13.9336C16.7037 13.9583 16.7205 13.9839 16.7361 14.0078C16.7432 14.0185 16.7489 14.0312 16.7566 14.0439C16.869 14.2491 16.7763 14.4082 16.6277 14.4082C16.4541 14.4083 16.4934 14.5196 16.4207 14.7031C16.3482 14.8857 16.5777 15.302 16.5808 15.3076C16.5958 15.3077 16.9626 15.3123 16.9626 15.499C16.9623 15.689 16.7605 15.7022 16.6824 15.7695C16.6043 15.8371 16.647 15.8961 16.6824 15.9365C16.7179 15.9767 17.0097 16.1644 17.0183 16.1699H16.4207L16.1306 16.7256L15.8269 16.1699H15.2205C15.2205 16.1699 15.2206 16.1121 15.4685 15.9922C15.7166 15.8722 15.5876 15.8164 15.5876 15.8164C15.5818 15.8147 15.3633 15.7487 15.363 15.499C15.363 15.251 15.5786 15.3052 15.5876 15.3076C15.5897 15.3061 15.8269 15.1318 15.8269 14.7031C15.8269 14.2728 15.8265 14.4082 15.5876 14.4082C15.3491 14.4079 15.5881 13.9336 15.8269 13.9336C16.0656 13.9332 15.8265 12.8291 15.5876 12.8291C15.3489 12.8289 15.2205 12.4995 15.2205 12.123C15.2205 11.7464 15.8269 11.6377 15.8269 11.6377V8.38574C15.827 6.18254 17.0841 6.17192 17.1003 6.17188ZM26.1208 15.4043C26.1076 15.4174 25.7062 15.8169 25.9675 15.9062C26.2342 15.9968 26.6911 15.9555 26.4626 16.1787C26.2343 16.4019 26.0408 16.704 26.0408 16.9785C26.0408 17.253 26.0474 17.484 26.1208 17.3682C26.1947 17.2523 26.6848 17.1272 26.9099 16.9785C27.135 16.8297 27.0925 16.666 27.0925 16.3291C27.092 15.9921 26.1208 15.4043 26.1208 15.4043ZM22.9675 8.84961C22.9675 8.84961 22.9608 9.80904 22.863 9.8877C22.7652 9.96548 22.7123 10.0976 22.7878 10.1914C22.8633 10.2851 22.8979 10.5268 22.7878 10.5273C22.6773 10.5273 22.5067 10.6627 22.6472 10.8691C22.7874 11.0753 22.7833 11.1777 23.0427 11.1777C23.3024 11.1777 24.7413 11.2159 25.1619 11.0664C25.5824 10.9169 25.9861 11.0695 26.5662 10.9932C27.1462 10.9167 27.9497 10.4951 27.8435 10.1914C27.7374 9.88773 27.6011 9.50218 26.5662 9.75879C25.5303 10.0158 25.1463 10.157 24.7546 9.95801C24.3631 9.75911 23.8431 9.64164 23.7732 9.6416C23.7034 9.6416 23.7271 10.1437 23.5261 10.0156C23.3252 9.88758 23.0808 9.75506 23.1619 9.5332C23.2431 9.3112 23.3103 9.26425 23.3103 9.11426C23.3102 8.96634 22.9766 8.85265 22.9675 8.84961Z" fill="#FECA00"/>
<path fill-rule="evenodd" clip-rule="evenodd" d="M15.482 20.1687C15.6065 19.9393 15.482 20.6642 15.482 21.0183C15.4818 21.3724 15.0852 22.0622 14.8043 21.8679C14.5257 21.6753 14.1774 21.8646 14.1715 21.8679C14.1715 21.8679 14.1715 21.6919 14.1715 21.5065C14.1715 21.3212 13.8377 20.8547 14.3932 20.7478C14.9484 20.6409 15.3574 20.3979 15.482 20.1687ZM28.524 21.0183C28.524 20.6642 28.3996 19.9393 28.524 20.1687C28.6485 20.398 29.0584 20.6409 29.6139 20.7478C30.1691 20.8547 29.8356 21.3212 29.8356 21.5065V21.8679C29.8356 21.8679 29.4828 21.6735 29.2018 21.8679C28.9209 22.0614 28.5243 21.3722 28.524 21.0183ZM14.8043 2.12178C15.0853 1.92738 15.482 2.61735 15.482 2.97139C15.4821 3.32547 15.6063 4.04974 15.482 3.821C15.3576 3.59167 14.9487 3.3488 14.3932 3.24189C13.8376 3.135 14.1715 2.66752 14.1715 2.48213V2.12178C14.184 2.12857 14.5285 2.31209 14.8043 2.12178ZM28.524 2.97139C28.524 2.61737 28.9208 1.9275 29.2018 2.12178C29.4791 2.31364 29.8266 2.12668 29.8356 2.12178V2.48213C29.8356 2.6675 30.1693 3.13495 29.6139 3.24189C29.0583 3.34879 28.6485 3.59165 28.524 3.821C28.4001 4.04876 28.524 3.3253 28.524 2.97139Z" fill="#FECA00"/>
</g>
<defs>
<clipPath id="clip0_299_35499">
<rect width="32" height="24" fill="white"/>
</clipPath>
</defs>
</svg>
