<svg width="32" height="24" viewBox="0 0 32 24" fill="none" xmlns="http://www.w3.org/2000/svg">
<g clip-path="url(#clip0_299_35503)">
<rect width="32" height="24" fill="white"/>
<path fill-rule="evenodd" clip-rule="evenodd" d="M0 16H32V24H0V16Z" fill="#55BA07"/>
<path fill-rule="evenodd" clip-rule="evenodd" d="M0 8H32V16H0V8Z" fill="#F7FCFF"/>
<path fill-rule="evenodd" clip-rule="evenodd" d="M0 0H32V8H0V0Z" fill="#3D58DB"/>
<path d="M15.875 7.33398C16.1401 7.33399 16.3652 7.49953 16.4561 7.73242C17.2751 7.91375 17.8679 8.47115 17.8682 9.37695C17.8682 10.0354 17.5529 10.8344 17.0674 11.3838L19.5029 13.7734L20.1035 13.5752L21 14.9355C20.9775 14.9461 18.7202 16 15.9336 16C13.1477 16 11.0222 14.9466 11 14.9355L11.7627 13.7734L12.3799 13.9756L14.6387 11.4248C14.1322 10.8747 13.8008 10.0519 13.8008 9.37695C13.8011 8.44042 14.4354 7.8769 15.2979 7.71582C15.3926 7.49121 15.6159 7.33398 15.875 7.33398ZM15.5254 15.3027L15.6514 15.4971H16.6904L16.2871 15.0537L15.5254 15.3027ZM14.1201 15.2207L14.2197 15.4092L15.0889 15.4893L14.7354 15.0566L14.1201 15.2207ZM17.0283 15.2197L17.1592 15.4395L18.0449 15.3408L17.6982 14.999L17.0283 15.2197ZM12.8105 15.002L12.9043 15.1582L13.7168 15.3184L13.4238 14.8682L12.8105 15.002ZM18.3955 15.0938L18.5029 15.2588L19.249 15.0938L18.9609 14.7539L18.3955 15.0938ZM15.3682 15.0967L16.1602 14.8877L16.0625 14.707H15.0342L15.3682 15.0967ZM14.0166 15.0283L14.5723 14.8594L14.418 14.6553L13.7646 14.5732L14.0166 15.0283ZM11.8545 14.876L12.291 15.0273V14.7881L11.8545 14.876ZM16.6143 14.7207L16.8584 15.0195L17.5166 14.791L17.4346 14.6357L16.6143 14.7207ZM19.6348 14.7705V14.9326L20.1377 14.7705L19.9277 14.4805L19.6348 14.7705ZM17.9883 14.5771L18.2363 14.8828L18.8311 14.5771L18.666 14.4854L17.9883 14.5771ZM12.7363 14.8008L13.2891 14.6504L13.1797 14.4404L12.5127 14.2803L12.7363 14.8008ZM19.0645 14.3096L19.4238 14.6533L19.7734 14.3096L19.6631 14.1709L19.0645 14.3096ZM11.748 14.6494H12.2412L12.002 14.2969L11.748 14.6494ZM15.25 8.24023C14.7274 8.38045 14.4514 8.74212 14.4512 9.38086C14.4512 10.1111 14.8101 10.7966 15.25 11.1504V8.24023ZM16.5 11.1299C16.9274 10.7711 17.2715 10.0992 17.2715 9.38281C17.2713 8.76268 16.9995 8.40412 16.5 8.25488V11.1299Z" fill="#1D1D1D"/>
</g>
<defs>
<clipPath id="clip0_299_35503">
<rect width="32" height="24" fill="white"/>
</clipPath>
</defs>
</svg>
