<svg width="32" height="24" viewBox="0 0 32 24" fill="none" xmlns="http://www.w3.org/2000/svg">
<g clip-path="url(#clip0_299_35561)">
<rect width="32" height="24" fill="white"/>
<path fill-rule="evenodd" clip-rule="evenodd" d="M22 0H32V24H22V0Z" fill="#D9071E"/>
<path fill-rule="evenodd" clip-rule="evenodd" d="M0 0H12V24H0V0Z" fill="#3D58DB"/>
<path fill-rule="evenodd" clip-rule="evenodd" d="M10 0H22V24H10V0Z" fill="#FBCD17"/>
<path d="M15.0575 13.9531L11.5663 20.3428L10.5135 19.7666L14.0038 13.3779L15.0575 13.9531ZM21.7186 19.6133L20.6659 20.1885L17.1747 13.7998L18.2284 13.2246L21.7186 19.6133Z" fill="#FD1900"/>
<path d="M16.3387 16.0908C16.3387 16.0908 17.1415 18.1827 19.4999 19.8311C16.9889 20.5012 16.3402 21.8456 16.3387 21.8486C16.3383 20.7748 13.1725 19.8376 13.1503 19.8311C14.2319 19.1268 15.8143 15.9688 15.8143 15.9688L16.3387 16.0908ZM16.1219 2.84961C17.7763 2.84969 17.9696 3.63169 17.9696 4.25488C17.9694 4.87807 17.0169 6.21972 17.0165 6.7334C17.0165 7.24689 17.4035 8.24219 17.9696 8.24219C18.3677 8.24169 20.2769 7.4977 21.3817 7.05469V5.40723C21.6513 3.41877 22.9794 3.15625 22.9794 3.15625C23.0122 3.16826 24.578 3.74924 24.578 5.40723V20.3447C24.5642 20.327 23.5114 18.9709 22.9794 18.377C22.4439 17.7791 21.3819 16.1726 21.3817 14.9395V9.3877H11.3778V14.9395C11.3776 16.1723 10.3167 17.7788 9.78113 18.377C9.24881 18.9713 8.19416 20.3284 8.18152 20.3447V5.40723C8.18152 3.73166 9.78113 3.15625 9.78113 3.15625C9.81042 3.16229 11.1113 3.44118 11.3778 5.40723V8.02246L11.5458 7.47266C12.0838 7.86908 13.2583 8.61514 14.0477 8.24219C15.1004 7.74468 15.4637 6.31738 15.4637 6.31738C15.4618 6.28961 15.3613 4.87793 14.9335 4.87793C14.5016 4.87733 14.4676 2.84961 16.1219 2.84961ZM12.9764 15.332C13.7052 15.3323 14.2958 15.8918 14.2958 16.582C14.2958 17.2722 13.7053 17.8318 12.9764 17.832C12.2474 17.832 11.6561 17.2724 11.6561 16.582C11.6561 15.8917 12.2474 15.332 12.9764 15.332ZM19.4003 15.332C20.1291 15.3322 20.7196 15.8918 20.7196 16.582C20.7196 17.2723 20.1292 17.8319 19.4003 17.832C18.6713 17.832 18.08 17.2724 18.08 16.582C18.08 15.8917 18.6713 15.332 19.4003 15.332Z" fill="#A77B3B"/>
<path d="M25.1401 10.4062L26.058 10.803L22.3184 19.4549L21.4005 19.0582L25.1401 10.4062Z" fill="#FDFF00"/>
<path opacity="0.3" fill-rule="evenodd" clip-rule="evenodd" d="M11.04 7.83203H21.6V15.4709C21.6 15.4709 18.913 16.2803 16.32 17.6084C14.406 16.1885 11.04 15.4709 11.04 15.4709V7.83203Z" fill="#E1E5E8"/>
<mask id="mask0_299_35561" style="mask-type:luminance" maskUnits="userSpaceOnUse" x="11" y="7" width="11" height="11">
<path fill-rule="evenodd" clip-rule="evenodd" d="M11.04 7.83203H21.6V15.4709C21.6 15.4709 18.913 16.2803 16.32 17.6084C14.406 16.1885 11.04 15.4709 11.04 15.4709V7.83203Z" fill="white"/>
</mask>
<g mask="url(#mask0_299_35561)">
<rect x="11.04" y="12.832" width="10.56" height="5" fill="#3D58DB"/>
<rect x="11.04" y="7.83203" width="10.56" height="5" fill="#FD1900"/>
<path fill-rule="evenodd" clip-rule="evenodd" d="M15.7867 10.0802L14.9864 10.1464L15.448 9.52375L14.956 8.87891L15.7605 8.98248L16.0689 8.27141L16.4117 8.99764L17.212 8.93141L16.7505 9.55406L17.2424 10.1989L16.438 10.0953L16.1295 10.8064L15.7867 10.0802Z" fill="#FDFF00"/>
<path fill-rule="evenodd" clip-rule="evenodd" d="M14.3501 8.67102C14.3501 8.67102 12.2002 9.97902 12.9168 10.918C13.6335 11.8569 14.5356 11.9771 14.5356 11.9771C14.5356 11.9771 12.3364 15.2764 16.207 17.1613C20.351 15.3417 18.1717 11.9771 18.1717 11.9771C18.1717 11.9771 19.4473 11.6949 19.7027 10.6796C19.9581 9.66442 18.0353 8.5 18.0353 8.5C18.0353 8.5 19.235 10.2388 18.9611 10.6796C18.6872 11.1205 17.2201 11.5693 16.207 11.5693C15.1939 11.5693 13.6295 11.2849 13.3771 10.5145C13.1246 9.74418 14.3501 8.67102 14.3501 8.67102Z" fill="#FDFF00"/>
<path fill-rule="evenodd" clip-rule="evenodd" d="M12.36 11.998L13.68 12.8314L12.36 13.6647L11.04 12.8314L12.36 11.998Z" fill="#FDFF00"/>
<path fill-rule="evenodd" clip-rule="evenodd" d="M20.2801 11.998L21.6001 12.8314L20.2801 13.6647L18.9601 12.8314L20.2801 11.998Z" fill="#FDFF00"/>
<path fill-rule="evenodd" clip-rule="evenodd" d="M12.32 15.298C12.541 15.298 12.72 15.119 12.72 14.898C12.72 14.6771 12.541 14.498 12.32 14.498C12.0991 14.498 11.92 14.6771 11.92 14.898C11.92 15.119 12.0991 15.298 12.32 15.298Z" fill="#FDFF00"/>
<path fill-rule="evenodd" clip-rule="evenodd" d="M20.83 14.5419C20.4867 14.2639 19.9604 14.3447 19.6545 14.7224C19.3487 15.1001 19.3791 15.6317 19.7224 15.9097C19.909 16.0608 19.8117 15.4604 20.0941 15.0784C20.3314 14.7575 20.9868 14.6689 20.83 14.5419Z" fill="#FDFF00"/>
</g>
<path d="M9.55798 14.1523C9.56125 14.1755 9.76824 15.671 8.90955 15.9854C8.04738 16.3007 6.76925 15.1904 6.75916 15.1816H7.66541V14.834L8.16541 15.1816V14.834H8.80603L9.55798 14.1523ZM8.24841 12.4131C8.24841 12.4131 8.46543 13.9293 7.59998 14.2461C6.73438 14.5627 5.44958 13.4424 5.44958 13.4424H6.35681V13.0957L6.85583 13.4424V13.0957H7.49646L8.24841 12.4131ZM7.53552 10.498C7.53687 10.5063 7.77309 11.9598 6.78357 12.3662C5.791 12.7737 4.73669 11.5273 4.73669 11.5273H5.64294V11.1797L6.14294 11.5273V11.1797H6.78357L7.53552 10.498Z" fill="#048F02"/>
<path d="M13.9794 2.84375H14.5516V3.84375H13.9794V5.58789H12.9794V3.84375H12.5087V2.84375H12.9794V2.24805H13.9794V2.84375Z" fill="#FDFF00"/>
<path fill-rule="evenodd" clip-rule="evenodd" d="M15.1582 3.38477L12.842 3.98142L15.1582 4.7133V3.38477Z" fill="#DB4400"/>
</g>
<defs>
<clipPath id="clip0_299_35561">
<rect width="32" height="24" fill="white"/>
</clipPath>
</defs>
</svg>
