<svg width="32" height="24" viewBox="0 0 32 24" fill="none" xmlns="http://www.w3.org/2000/svg">
<g clip-path="url(#clip0_299_35563)">
<rect width="32" height="24" fill="white"/>
<path fill-rule="evenodd" clip-rule="evenodd" d="M0 0H32V24H0V0Z" fill="#E8AA00"/>
<path fill-rule="evenodd" clip-rule="evenodd" d="M4 4H28V20H4V4Z" fill="#C51918"/>
<mask id="mask0_299_35563" style="mask-type:luminance" maskUnits="userSpaceOnUse" x="4" y="4" width="24" height="16">
<path fill-rule="evenodd" clip-rule="evenodd" d="M4 4H28V20H4V4Z" fill="white"/>
</mask>
<g mask="url(#mask0_299_35563)">
<path fill-rule="evenodd" clip-rule="evenodd" d="M20.2308 15.7498C20.6386 15.7498 20.9692 15.411 20.9692 14.9931C20.9692 14.5751 20.6386 14.2363 20.2308 14.2363C19.8229 14.2363 19.4923 14.5751 19.4923 14.9931C19.4923 15.411 19.8229 15.7498 20.2308 15.7498Z" fill="#1E5E91"/>
<path fill-rule="evenodd" clip-rule="evenodd" d="M20.0784 6.17188C20.1028 6.20628 22.8454 10.0886 20.9172 12.3301C18.9827 14.5784 17.5609 13.9052 17.5569 13.9033L18.3518 14.6152L18.1262 14.8096H18.7883L18.5452 14.9727L18.7239 15.0508L18.9133 15.1338C18.9076 15.138 18.4056 15.5096 18.9133 15.5098C19.0825 15.5098 19.2731 15.4996 19.4631 15.5C19.5164 15.5001 19.2278 14.9186 19.2805 14.9209C19.3798 14.9256 19.6509 15.3438 19.7874 15.4355C19.8591 15.4836 20.3156 15.2639 20.3782 15.2939C20.5276 15.3694 20.4411 15.5427 20.4182 15.6787C20.4134 15.7272 21.0563 15.2625 21.0852 15.2939C21.1388 15.3629 21.2816 15.4565 20.5637 16.0098C20.5638 16.4334 20.6269 16.5292 20.4368 16.5293C20.2061 16.5293 19.6472 16.9367 19.2805 16.5293C18.9154 16.1233 18.3566 15.515 18.3518 15.5098V15.8105L17.6848 15.1338L17.5569 15.5098L16.6604 14.4805L16.4182 14.6152C16.4182 14.6152 17.2433 16.8929 17.6848 16.9092C18.1263 16.925 16.3305 17.771 15.9182 18.3398C15.856 18.4256 15.8083 18.2925 15.7717 18.0049C15.7351 18.2925 15.6885 18.4257 15.6262 18.3398C15.2139 17.771 13.4182 16.925 13.8596 16.9092C14.3011 16.8933 15.1262 14.6152 15.1262 14.6152L14.884 14.4805L13.9876 15.5098L13.8596 15.1338L13.1936 15.8105V15.5098C13.1936 15.5098 12.6306 16.1216 12.2639 16.5293C11.8972 16.9366 11.3383 16.5293 11.1077 16.5293C10.8773 16.5289 10.8001 16.206 11.1077 15.8105C11.4156 15.4148 12.1199 15.5098 12.6311 15.5098C13.142 15.5097 12.6311 15.1338 12.6311 15.1338L12.8206 15.0508L12.9993 14.9727L12.7561 14.8096H13.4182L13.1936 14.6152L13.9876 13.9033C13.9722 13.9106 12.5539 14.5693 10.6272 12.3301C8.69057 10.0786 11.467 6.17188 11.467 6.17188C11.4695 6.18542 11.8863 8.51049 13.4182 10.0762C13.4175 10.2656 12.9996 10.6072 12.8645 10.8525C12.7294 11.0981 13.1933 11.2383 13.4182 11.2383C13.643 11.2384 13.6438 11.9648 13.8596 11.6416C14.074 11.3205 13.6499 10.6175 13.6438 10.6074L14.3274 9.88672L14.5588 9.41992H14.3274V8.94043L14.1653 9.07324C14.1615 9.06408 13.9839 8.6446 13.6438 8.64453C13.3063 8.64453 13.1975 8.4552 13.1936 8.44824H13.6438C13.8692 8.44816 13.6077 8.14883 13.4182 7.99316C13.2286 7.8378 12.8206 8.14878 12.8206 7.85938C12.8209 7.57042 13.1934 7.69603 13.4182 7.53418C13.6431 7.37229 13.9877 7.53418 14.3274 7.53418H14.884C15.0817 7.53418 14.5764 7.84848 14.5588 7.85938L14.884 8.14941L15.3684 8.64453L15.1262 8.78809L15.6262 9.27344C15.6191 9.28515 15.4605 9.54867 15.6262 9.54883C15.6964 9.54883 15.7418 9.60707 15.7717 9.6748C15.8017 9.60689 15.8479 9.54883 15.9182 9.54883C16.0845 9.54882 15.9248 9.28421 15.9182 9.27344L16.4182 8.78809L16.176 8.64453L16.6604 8.14941L16.9866 7.85938C16.9866 7.85938 16.4593 7.53418 16.6604 7.53418H17.217C17.5567 7.53418 17.9013 7.37241 18.1262 7.53418C18.351 7.69603 18.7235 7.57042 18.7239 7.85938C18.7239 8.14882 18.3158 7.83763 18.1262 7.99316C17.9368 8.1488 17.6755 8.44804 17.9006 8.44824H18.3518C18.3518 8.44824 18.2445 8.64453 17.9006 8.64453C17.56 8.64472 17.3823 9.06577 17.3792 9.07324L17.217 8.94043V9.41992H16.9866L17.217 9.88672L17.9006 10.6074C17.893 10.6201 17.4709 11.3211 17.6848 11.6416C17.9006 11.9649 17.9016 11.2387 18.1262 11.2383C18.3511 11.2383 18.815 11.0981 18.6799 10.8525C18.5448 10.6072 18.1269 10.2656 18.1262 10.0762C19.6626 8.50591 20.0784 6.17188 20.0784 6.17188Z" fill="#F6C540"/>
<path fill-rule="evenodd" clip-rule="evenodd" d="M12.433 17.0297L11.5579 15.4955C11.5579 15.4955 10.4137 12.8574 10.4137 12.5371C10.4137 12.2168 9.95312 11.2683 9.95312 11.5436C9.95312 11.819 9.95312 12.5371 9.95312 12.5371L11.8836 16.8861V17.2288H12.1436L12.433 17.0297Z" fill="#F6C540"/>
<path d="M19.4419 14.9634L19.575 14.5215L21.2009 15.0113L21.0678 15.4532L19.4419 14.9634Z" fill="#F6C540"/>
<path d="M20.3078 14.1602L20.7475 14.3041L20.3179 15.6821L19.8783 15.5382L20.3078 14.1602Z" fill="#F6C540"/>
<path d="M20.7175 13.7109L20.6785 13.8643L20.8474 13.9062L20.8259 13.999L20.655 13.957L20.6121 14.1289L20.5173 14.1074L20.5603 13.9336L20.3894 13.8916L20.4109 13.7988L20.5837 13.8408L20.6228 13.6895L20.7175 13.7109Z" fill="#F6C540"/>
<path fill-rule="evenodd" clip-rule="evenodd" d="M15.9339 5.22266C16.0539 5.25878 16.1625 5.30081 16.2601 5.34668L16.264 5.30957C17.0358 5.38007 17.4368 5.70345 17.3939 6.27148C17.3583 6.74165 17.1199 6.98593 16.723 6.97949V7.33301C16.7055 7.33968 16.0729 7.58096 15.7542 7.58105C15.4311 7.58105 14.7845 7.33301 14.7845 7.33301V6.97461C14.458 6.93406 14.2627 6.69333 14.2308 6.27148C14.1879 5.70345 14.5888 5.38007 15.3607 5.30957L15.3636 5.34863C15.4624 5.30185 15.5727 5.25937 15.6947 5.22266L15.7425 5.38867H15.8861L15.9339 5.22266ZM16.72 5.69238C16.9251 5.95855 16.9334 6.29661 16.7347 6.69629C16.9794 6.70024 17.094 6.56246 17.1175 6.25098C17.1376 5.98433 17.0126 5.80069 16.72 5.69238ZM14.9095 5.69043C14.6134 5.79846 14.4869 5.98283 14.5072 6.25098C14.5275 6.51976 14.6162 6.65818 14.7972 6.68945C14.8124 6.68499 14.8412 6.67861 14.8792 6.66797C14.6946 6.27989 14.7081 5.95045 14.9095 5.69043ZM15.932 6.51367C16.1446 6.54158 16.4034 6.60738 16.5657 6.65137L16.473 6.60059C16.7492 6.07459 16.5884 5.7394 15.932 5.52148V6.51367ZM15.6546 5.53613C15.0359 5.75361 14.8866 6.0835 15.1527 6.59473C15.3154 6.55564 15.5038 6.51827 15.6546 6.50488V5.53613Z" fill="#F6C540"/>
<path fill-rule="evenodd" clip-rule="evenodd" d="M15.7539 5.5192C15.9323 5.5192 16.0769 5.37455 16.0769 5.19612C16.0769 5.01769 15.9323 4.87305 15.7539 4.87305C15.5754 4.87305 15.4308 5.01769 15.4308 5.19612C15.4308 5.37455 15.5754 5.5192 15.7539 5.5192Z" fill="#3D58DB"/>
<path d="M15.799 4.49811L15.7982 4.65632L15.9723 4.6562L15.9739 4.75141L15.7979 4.75201L15.7978 4.92917L15.7007 4.93124L15.7003 4.75219L15.5244 4.75278L15.5228 4.65757L15.7006 4.6565L15.7019 4.50018L15.799 4.49811Z" fill="#F6C540"/>
<path fill-rule="evenodd" clip-rule="evenodd" d="M13.9539 10.3592C13.9539 10.3592 15.0916 10.1445 15.7077 10.1445C16.2608 10.1445 17.4616 10.3592 17.4616 10.3592C17.4616 11.7193 17.8443 12.5519 17.4616 13.4808C17.0788 14.4098 16.1435 13.9632 15.7202 14.8522C15.1792 14.009 14.4486 14.4731 13.9539 13.2725C13.4592 12.0719 14.2546 11.5189 13.9539 10.3592Z" fill="#1E5E91"/>
<mask id="mask1_299_35563" style="mask-type:luminance" maskUnits="userSpaceOnUse" x="13" y="10" width="5" height="5">
<path fill-rule="evenodd" clip-rule="evenodd" d="M13.9539 10.3592C13.9539 10.3592 15.0916 10.1445 15.7077 10.1445C16.2608 10.1445 17.4616 10.3592 17.4616 10.3592C17.4616 11.7193 17.8443 12.5519 17.4616 13.4808C17.0788 14.4098 16.1435 13.9632 15.7202 14.8522C15.1792 14.009 14.4486 14.4731 13.9539 13.2725C13.4592 12.0719 14.2546 11.5189 13.9539 10.3592Z" fill="white"/>
</mask>
<g mask="url(#mask1_299_35563)">
<rect x="13.9539" y="13.1973" width="3.50769" height="1.7027" fill="#5EAA22"/>
<path fill-rule="evenodd" clip-rule="evenodd" d="M15.6952 10.7109C15.6952 10.7109 15.876 11.029 15.6952 11.4814C15.5145 11.9338 15.997 11.709 16.4471 11.709C16.8972 11.709 16.8369 11.6298 17.2577 12.2734C17.3693 12.4441 17.3627 12.5546 17.2958 12.6221C17.3037 12.7974 17.1156 12.9432 16.7635 13.0361L16.7176 12.8525C16.9024 12.8038 17.0134 12.7547 17.0663 12.7031C16.8025 12.7183 16.4471 12.59 16.4471 12.4229C16.4469 12.3426 16.358 12.2938 16.2206 12.2656V12.3057C16.2235 12.305 16.2414 12.2876 16.245 12.2764C16.2458 12.2833 16.2485 12.2989 16.2538 12.3223C16.2575 12.3388 16.2745 12.408 16.2762 12.415C16.3004 12.5142 16.3124 12.5923 16.3124 12.6777C16.3123 12.9164 16.1088 13.0563 15.7411 13.1104L15.7157 12.9238C16.0035 12.8815 16.1277 12.7951 16.1278 12.6777C16.1278 12.6107 16.1183 12.5463 16.0975 12.4609C16.0963 12.4559 16.0784 12.3843 16.0741 12.3652C16.0656 12.3278 16.0604 12.2994 16.0604 12.2725C16.0604 12.2625 16.064 12.2533 16.0653 12.2441C15.8296 12.2222 15.5234 12.2342 15.2626 12.249C15.2111 12.6959 14.9809 12.982 14.576 13.0898L14.5292 12.9072C14.847 12.8227 15.0255 12.6109 15.0741 12.2578C14.9532 12.2653 14.8529 12.2734 14.7899 12.2734C14.6065 12.2733 14.6254 12.1346 14.7147 11.9502C14.3701 11.926 14.2839 11.548 14.4169 10.8799L14.5975 10.918C14.4805 11.5061 14.5461 11.7637 14.7508 11.7637V11.8779C14.8196 11.7512 14.9116 11.6102 14.9911 11.4814C15.2076 11.1306 15.125 11.3137 14.9911 11.0293C14.858 10.7465 15.6832 10.7114 15.6952 10.7109ZM16.2118 11.2656C16.2118 10.9823 16.4955 10.9041 17.0018 10.9844L16.9735 11.1719C16.568 11.1076 16.3963 11.1545 16.3963 11.2656C16.3964 11.3878 16.5773 11.4643 16.9872 11.4609H17.0008L17.0145 11.4658C17.3293 11.5638 17.3293 11.7629 17.0184 11.875L16.9569 11.6963C16.9831 11.6868 17.0059 11.6776 17.0243 11.6689C17.01 11.663 16.9934 11.6566 16.9745 11.6504C16.4813 11.6522 16.2118 11.5354 16.2118 11.2656Z" fill="#F6C540"/>
</g>
</g>
</g>
<defs>
<clipPath id="clip0_299_35563">
<rect width="32" height="24" fill="white"/>
</clipPath>
</defs>
</svg>
