<svg width="32" height="24" viewBox="0 0 32 24" fill="none" xmlns="http://www.w3.org/2000/svg">
<g clip-path="url(#clip0_299_35621)">
<rect width="32" height="24" fill="white"/>
<path fill-rule="evenodd" clip-rule="evenodd" d="M10 0H22V24H10V0Z" fill="#4C67E8"/>
<path fill-rule="evenodd" clip-rule="evenodd" d="M22 0H32V24H22V0Z" fill="#C51918"/>
<path fill-rule="evenodd" clip-rule="evenodd" d="M0 0H12V24H0V0Z" fill="#C51918"/>
<path fill-rule="evenodd" clip-rule="evenodd" d="M5.95508 19.9998L4.23047 18.9315H7.89941L5.95508 19.9998ZM3.76953 19.9754H2V11.4041H3.76953V19.9754ZM10 19.9754H8.23047V11.4041H10V19.9754ZM7.8457 18.5594H4.23047V17.8885H7.8457V18.5594ZM6.07715 13.9383C7.09653 13.9384 7.92265 14.7387 7.92285 15.7264C7.92285 16.7142 7.09665 17.5153 6.07715 17.5155C5.05755 17.5155 4.23047 16.7143 4.23047 15.7264C4.23067 14.7386 5.05767 13.9383 6.07715 13.9383ZM7.8457 13.5653H4.23047V12.8944H7.8457V13.5653ZM5.95508 12.5457L4.23047 11.4783H7.89941L5.95508 12.5457ZM8.04297 9.21565C8.04297 9.21565 7.74642 11.0826 5.90625 11.0828C4.06574 11.0828 4.00293 9.21565 4.00293 9.21565C4.00293 9.21565 4.71572 10.3592 6.02344 10.3592C7.32239 10.3591 8.03357 9.23065 8.04297 9.21565ZM6.03809 7.2303C6.86651 7.2303 7.53809 7.88073 7.53809 8.68342C7.53803 9.48607 6.86648 10.1365 6.03809 10.1365C5.20986 10.1364 4.53814 9.48595 4.53809 8.68342C4.53809 7.88085 5.20983 7.2305 6.03809 7.2303ZM6.02734 4.31526C6.06748 4.41302 6.15649 4.49462 6.29785 4.63948C6.53634 4.88387 6.25962 5.89561 6.46484 5.89631C6.67048 5.89631 6.65527 4.97737 6.65527 4.97737L7.00098 5.89631C7.00098 5.89631 7.02702 6.88362 6.01367 6.88362C5.00054 6.88349 5.13379 5.89631 5.13379 5.89631L5.61426 4.85921V5.89631C5.61426 6.02977 5.7959 5.76255 5.7959 5.44124C5.79608 5.12467 6.00744 4.65332 6.01367 4.63948C6.01367 4.63948 6.02131 4.47545 6.02734 4.31526ZM6.01367 4.06428C6.03928 3.91454 6.035 4.11195 6.02734 4.31526C5.99977 4.2481 5.99506 4.17322 6.01367 4.06428Z" fill="#F8D000"/>
<path d="M6.35859 13.973L6.44107 13.6055C6.85355 14.0567 7.0404 14.31 6.95212 14.7234C6.85357 15.185 6.33548 15.699 5.73355 16.1225C5.36898 16.3791 5.14564 17.0714 5.32656 17.2916L5.15404 17.6055C4.75083 17.1148 5.0731 16.1891 5.62951 15.7975C6.14044 15.438 6.49725 15.0611 6.55949 14.7643C6.60001 14.5711 6.67556 14.3198 6.35859 13.973Z" fill="#C51918"/>
<path fill-rule="evenodd" clip-rule="evenodd" d="M6.5 17C6.77614 17 7 16.7761 7 16.5C7 16.2239 6.77614 16 6.5 16C6.22386 16 6 16.2239 6 16.5C6 16.7761 6.22386 17 6.5 17Z" fill="#C51918"/>
<path fill-rule="evenodd" clip-rule="evenodd" d="M5.37585 15.6504C5.652 15.6504 5.87585 15.4265 5.87585 15.1504C5.87585 14.8742 5.652 14.6504 5.37585 14.6504C5.09971 14.6504 4.87585 14.8742 4.87585 15.1504C4.87585 15.4265 5.09971 15.6504 5.37585 15.6504Z" fill="#C51918"/>
</g>
<defs>
<clipPath id="clip0_299_35621">
<rect width="32" height="24" fill="white"/>
</clipPath>
</defs>
</svg>
