<svg width="32" height="24" viewBox="0 0 32 24" fill="none" xmlns="http://www.w3.org/2000/svg">
<g clip-path="url(#clip0_299_35623)">
<rect width="32" height="24" fill="white"/>
<path fill-rule="evenodd" clip-rule="evenodd" d="M0 0V24H32V0H0Z" fill="#1C9975"/>
<mask id="mask0_299_35623" style="mask-type:luminance" maskUnits="userSpaceOnUse" x="0" y="0" width="32" height="24">
<path fill-rule="evenodd" clip-rule="evenodd" d="M0 0V24H32V0H0Z" fill="white"/>
</mask>
<g mask="url(#mask0_299_35623)">
<path fill-rule="evenodd" clip-rule="evenodd" d="M16.0216 6.85333L14.3879 7.83961L14.7605 5.91499L13.4 4.47461L15.2422 4.39673L16.0216 2.59961L16.801 4.39673H18.64L17.2827 5.91499L17.6913 7.83961L16.0216 6.85333Z" fill="#FECA00"/>
<path fill-rule="evenodd" clip-rule="evenodd" d="M11.3826 7.58329L10.3725 8.19312L10.6029 7.0031L9.76166 6.11248L10.9007 6.06432L11.3826 4.95312L11.8645 6.06432H13.0017L12.1624 7.0031L12.4151 8.19312L11.3826 7.58329Z" fill="#FECA00"/>
<path fill-rule="evenodd" clip-rule="evenodd" d="M20.581 7.58329L19.5708 8.19312L19.8012 7.0031L18.96 6.11248L20.0991 6.06432L20.581 4.95312L21.0629 6.06432H22.2L21.3607 7.0031L21.6134 8.19312L20.581 7.58329Z" fill="#FECA00"/>
<path fill-rule="evenodd" clip-rule="evenodd" d="M8.76648 9.61063L7.95585 10.1L8.14075 9.14504L7.4657 8.43034L8.37976 8.3917L8.76648 7.5L9.1532 8.3917H10.0657L9.3922 9.14504L9.59496 10.1L8.76648 9.61063Z" fill="#FECA00"/>
<path fill-rule="evenodd" clip-rule="evenodd" d="M23.5608 9.61063L22.7502 10.1L22.9351 9.14504L22.26 8.43034L23.1741 8.3917L23.5608 7.5L23.9475 8.3917H24.86L24.1865 9.14504L24.3893 10.1L23.5608 9.61063Z" fill="#FECA00"/>
<mask id="mask1_299_35623" style="mask-type:luminance" maskUnits="userSpaceOnUse" x="8" y="6" width="16" height="16">
<path fill-rule="evenodd" clip-rule="evenodd" d="M16 22C20.4183 22 24 18.4183 24 14C24 9.58172 20.4183 6 16 6C11.5817 6 8 9.58172 8 14C8 18.4183 11.5817 22 16 22Z" fill="white"/>
</mask>
<g mask="url(#mask1_299_35623)">
<path fill-rule="evenodd" clip-rule="evenodd" d="M12.6808 21.0645H19.3191V22.1368H12.6808V21.0645Z" fill="#F7FCFF"/>
<path fill-rule="evenodd" clip-rule="evenodd" d="M9.95746 19.4609H22.7234V20.4439H9.95746V19.4609Z" fill="#F7FCFF"/>
<path d="M12.6203 19.0212H8.71558V18.0212L12.6133 18.0212C13.994 18.0018 15.0029 17.6075 15.676 16.8488L16.0115 16.4707L16.3859 16.8102C17.285 17.6254 18.183 18.0212 19.0915 18.0212H23.3957V19.0212H19.0915C18.0478 19.0212 17.0402 18.6286 16.0767 17.8598C15.2234 18.6162 14.0648 19.0009 12.6203 19.0212Z" fill="#F7FCFF"/>
</g>
<path d="M16.0345 7.60742C16.0345 7.60742 17.8158 9.17016 17.8158 11.6123C17.8158 11.9893 17.7723 12.3459 17.7006 12.6797C18.1197 11.5508 18.1131 10.3351 17.6801 9.01953L18.3275 8.80664C18.8583 10.419 18.8062 11.9246 18.1752 13.3076C19.2507 12.4711 20.533 11.9686 22.016 11.8047L22.0902 12.4814C21.7046 12.5241 21.3352 12.5931 20.9808 12.6846C22.5601 12.6915 23.8041 13.3604 23.8041 13.3604C23.8041 13.3604 22.8299 15.5204 20.4945 16.2344C19.8566 16.4293 19.2407 16.4745 18.682 16.4434C19.0825 16.5794 19.4908 16.6475 19.9076 16.6475C21.0379 16.6474 22.0893 16.1859 23.0736 15.2471L23.5433 15.7393C22.4377 16.7939 21.2217 17.3291 19.9076 17.3291C18.8397 17.3291 17.4893 16.7002 16.4115 15.8633C16.2216 15.7732 16.1156 15.7109 16.1156 15.7109C16.1156 15.7109 16.1284 15.6908 16.1508 15.6523C16.1358 15.6397 16.1217 15.626 16.1068 15.6133C16.0934 15.6234 15.9899 15.6996 15.8109 15.8076C14.7205 16.8162 13.5284 17.329 12.2435 17.3291C10.9294 17.3291 9.71341 16.7938 8.60779 15.7393L9.07751 15.2471C10.0618 16.1858 11.1133 16.6475 12.2435 16.6475C12.25 16.6475 12.2566 16.6465 12.2631 16.6465C12.1472 16.6348 12.0293 16.6209 11.9105 16.6006C9.55075 16.1974 8.3271 13.4745 8.3158 13.4492C8.3158 13.4492 10.438 12.6667 12.601 13.2188C12.8406 13.2799 13.0696 13.3586 13.2885 13.4473C12.4089 12.9393 11.4065 12.595 10.3793 12.4814L10.4545 11.8047C11.6272 11.9343 12.7691 12.338 13.7621 12.9365C13.2815 11.6567 13.2834 10.2756 13.767 8.80664L14.4135 9.01953C13.9369 10.4671 13.9782 11.7934 14.5336 13.0166C14.4087 12.5836 14.3256 12.1123 14.3256 11.6123C14.3256 9.30388 16.0226 7.61925 16.0345 7.60742ZM15.1332 14.5957C15.223 14.6733 15.3079 14.7486 15.3861 14.8223C15.3258 14.7322 15.2634 14.636 15.2015 14.5332L15.1332 14.5957ZM16.7865 14.7539C16.7794 14.7642 16.7731 14.775 16.766 14.7852C16.775 14.7744 16.7842 14.7638 16.7933 14.7529C16.791 14.7531 16.7888 14.7538 16.7865 14.7539Z" fill="#F7FCFF"/>
</g>
</g>
<defs>
<clipPath id="clip0_299_35623">
<rect width="32" height="24" fill="white"/>
</clipPath>
</defs>
</svg>
