<svg width="32" height="24" viewBox="0 0 32 24" fill="none" xmlns="http://www.w3.org/2000/svg">
<g clip-path="url(#clip0_299_35625)">
<rect width="32" height="24" fill="white"/>
<path fill-rule="evenodd" clip-rule="evenodd" d="M0 0H34V24H0V0Z" fill="#2993EC"/>
<path d="M15.9999 2C21.4051 2 25.7868 6.29043 25.787 11.583C25.787 16.8757 21.4052 21.167 15.9999 21.167C10.5946 21.1669 6.21277 16.8757 6.21277 11.583C6.21295 6.29047 10.5947 2.00007 15.9999 2ZM15.9999 4.08301C11.7698 4.08307 8.34088 7.44106 8.3407 11.583C8.3407 15.7251 11.7697 19.0829 15.9999 19.083C20.2301 19.083 23.66 15.7251 23.66 11.583C23.6599 7.44102 20.23 4.08301 15.9999 4.08301Z" fill="#F1F9FF"/>
<path d="M16.0004 2.83398C20.9355 2.83417 24.9359 6.75161 24.9359 11.584C24.9359 16.4164 20.9355 20.3338 16.0004 20.334C11.0651 20.334 7.06384 16.4165 7.06384 11.584C7.06384 6.75149 11.0651 2.83398 16.0004 2.83398ZM16.0004 3.25098C11.3001 3.25098 7.48962 6.98161 7.48962 11.584C7.48962 16.1864 11.3001 19.917 16.0004 19.917C20.7005 19.9168 24.5111 16.1862 24.5111 11.584C24.5111 6.98173 20.7005 3.25116 16.0004 3.25098Z" fill="#E31D1C"/>
<path d="M6.08398 9.77051C6.28454 9.91538 6.58733 10.0235 6.99121 10.0947C7.39491 10.166 7.77168 10.3934 8.12109 10.7773C7.66523 10.7569 7.25564 10.7154 6.89258 10.6514C6.52955 10.5874 6.26001 10.2934 6.08398 9.77051ZM24.2539 9.93555C24.617 9.87153 24.9711 10.055 25.3154 10.4863C25.0774 10.4188 24.7564 10.42 24.3525 10.4912C23.9486 10.5624 23.5165 10.4778 23.0566 10.2363C23.4918 10.0997 23.891 9.99957 24.2539 9.93555ZM6.81055 7.66797C6.97335 7.85424 7.24363 8.02726 7.62109 8.1875C7.99856 8.34772 8.31418 8.65462 8.56836 9.10742C8.129 8.98497 7.73962 8.852 7.40039 8.70801C7.06104 8.56396 6.86441 8.21715 6.81055 7.66797ZM23.5889 8.03906C23.9282 7.89504 24.3137 7.9943 24.7461 8.33691C24.4991 8.32473 24.1868 8.39847 23.8096 8.55859C23.432 8.71886 22.9917 8.73337 22.4893 8.60156C22.8827 8.37045 23.2495 8.18311 23.5889 8.03906ZM8.02734 5.77441C8.14026 5.99444 8.3602 6.22793 8.6875 6.47461C9.01508 6.72146 9.24769 7.09564 9.38477 7.59668C8.98788 7.37148 8.64209 7.14765 8.34766 6.92578C8.05341 6.7039 7.94678 6.32016 8.02734 5.77441ZM22.4883 6.3457C22.7827 6.12395 23.1811 6.12655 23.6836 6.35449C23.4409 6.40234 23.1557 6.55006 22.8281 6.79688C22.5006 7.0437 22.0769 7.16354 21.5576 7.15723C21.8834 6.83788 22.1939 6.56752 22.4883 6.3457ZM9.63867 4.21777C9.69922 4.45763 9.86144 4.73473 10.125 5.04883C10.3886 5.36303 10.5309 5.77986 10.5518 6.29883C10.2158 5.99021 9.92932 5.69445 9.69238 5.41211C9.45545 5.12974 9.43743 4.73145 9.63867 4.21777ZM21.0244 4.94434C21.2614 4.66214 21.6506 4.57552 22.1914 4.68457C21.9657 4.78579 21.7206 4.99348 21.457 5.30762C21.1934 5.62183 20.8073 5.83465 20.2998 5.94531C20.5455 5.56075 20.7874 5.22676 21.0244 4.94434ZM11.5723 3.06641C11.5773 3.31373 11.6732 3.62002 11.8594 3.98535C12.0456 4.35082 12.0906 4.78939 11.9941 5.2998C11.7362 4.92354 11.5238 4.57058 11.3564 4.24219C11.1891 3.91377 11.2606 3.52164 11.5723 3.06641ZM20.3477 3.39648C20.1506 3.54596 19.9595 3.80375 19.7734 4.16895C19.5872 4.53434 19.2586 4.82784 18.7891 5.0498C18.9419 4.61987 19.1022 4.24058 19.2695 3.91211C19.4369 3.58371 19.7963 3.41198 20.3477 3.39648ZM13.7451 2.38379C13.6901 2.62502 13.7085 2.94604 13.8008 3.3457C13.8929 3.74514 13.8311 4.18072 13.6143 4.65234C13.455 4.22482 13.3329 3.8318 13.25 3.47266C13.1671 3.11343 13.3324 2.75019 13.7451 2.38379ZM18.2363 2.54785C18.0812 2.74055 17.9575 3.03693 17.8652 3.43652C17.7729 3.83601 17.5258 4.2004 17.124 4.5293C17.1683 4.07512 17.2315 3.66782 17.3145 3.30859C17.3975 2.94959 17.705 2.6962 18.2363 2.54785ZM16 2.20898C15.8921 2.43165 15.8379 2.74806 15.8379 3.1582C15.8379 3.56835 15.679 3.97867 15.3613 4.38965C15.3024 3.93731 15.2734 3.52677 15.2734 3.1582C15.2735 2.78955 15.5155 2.47315 16 2.20898Z" fill="#FDDA33"/>
<path fill-rule="evenodd" clip-rule="evenodd" d="M17.6272 5.75C17.9938 5.75025 18.2661 6.08912 18.1878 6.44727L17.8011 8.21484C17.7668 8.37114 17.67 8.49939 17.5413 8.5791C17.66 8.67051 17.7441 8.80611 17.763 8.96484L19.1507 20.6104C19.1761 20.824 19.0796 21.0338 18.8928 21.1406C18.3704 21.4392 17.2385 22 16.1067 22C14.9745 22 13.8418 21.4392 13.3196 21.1406C13.1328 21.0338 13.0373 20.824 13.0628 20.6104L14.4505 8.96484C14.4694 8.8063 14.5527 8.67051 14.6712 8.5791C14.5427 8.49936 14.4465 8.37094 14.4124 8.21484L14.0247 6.44727C13.9464 6.08906 14.2195 5.75006 14.5862 5.75H17.6272Z" fill="#A7A7A7"/>
<path d="M6.51928 12.0122C6.57086 11.8471 6.7493 11.7543 6.91785 11.8048C7.08639 11.8553 7.18122 12.03 7.12964 12.195C7.04041 12.4806 7.04041 12.9023 7.13885 13.4541C7.17661 13.6658 7.2215 13.8292 7.27672 13.9735C7.29871 14.0311 7.32146 14.0837 7.35185 14.149C7.33831 14.1199 7.41249 14.2775 7.43053 14.3183C7.52592 14.5342 7.5681 14.7234 7.5681 15.0006C7.5681 15.1732 7.42522 15.3131 7.24895 15.3131C7.07269 15.3131 6.92981 15.1732 6.92981 15.0006C6.92981 14.8112 6.90636 14.706 6.84471 14.5665C6.83018 14.5336 6.76089 14.3864 6.77098 14.4081C6.73497 14.3307 6.70676 14.2654 6.67896 14.1927C6.60968 14.0116 6.55453 13.8108 6.51007 13.5617C6.39587 12.9215 6.39587 12.4071 6.51928 12.0122Z" fill="#73BE4A"/>
<path fill-rule="evenodd" clip-rule="evenodd" d="M16.2128 16.1798L12.0983 18.9833L13.5498 14.2854L9.55537 11.3201L14.567 11.2201L16.2128 6.58398L17.8586 11.2201L22.8702 11.3201L18.8757 14.2854L20.3273 18.9833L16.2128 16.1798Z" fill="#F7FCFF"/>
<path d="M25.5595 12.4301C25.5079 12.2651 25.3294 12.1722 25.1609 12.2227C24.9923 12.2732 24.8975 12.448 24.9491 12.613C25.0383 12.8985 25.0383 13.3203 24.9399 13.8721C24.9021 14.0837 24.8572 14.2472 24.802 14.3915C24.78 14.449 24.7573 14.5017 24.7269 14.567C24.7404 14.5379 24.6662 14.6954 24.6482 14.7363C24.5528 14.9522 24.5106 15.1414 24.5106 15.4186C24.5106 15.5912 24.6535 15.7311 24.8298 15.7311C25.006 15.7311 25.1489 15.5912 25.1489 15.4186C25.1489 15.2291 25.1724 15.124 25.234 14.9844C25.2486 14.9516 25.3178 14.8044 25.3078 14.8261C25.3438 14.7487 25.372 14.6834 25.3998 14.6107C25.4691 14.4296 25.5242 14.2288 25.5687 13.9796C25.6829 13.3395 25.6829 12.825 25.5595 12.4301Z" fill="#73BE4A"/>
<path d="M16.0608 3.14844C16.0608 3.14844 17.2252 3.66717 16.7223 4.48393" stroke="#73BE4A" stroke-linecap="round" stroke-linejoin="round"/>
<path d="M16.9119 3.14844C16.9119 3.14844 18.0762 3.66717 17.5734 4.48393" stroke="#73BE4A" stroke-linecap="round" stroke-linejoin="round"/>
<path d="M9.2598 6.35718C9.34422 6.21106 9.52153 6.16706 9.65584 6.2589C9.79015 6.35075 9.83059 6.54366 9.74617 6.68978C9.5842 6.97013 9.49988 7.35478 9.49988 7.84797C9.49988 8.02056 9.37128 8.16047 9.21265 8.16047C9.05401 8.16047 8.92542 8.02056 8.92542 7.84797C8.92542 7.24523 9.03466 6.74688 9.2598 6.35718Z" fill="#73BE4A"/>
<path d="M8.80848 9.21258C8.80848 9.38517 8.67988 9.52508 8.52124 9.52508C8.36261 9.52508 8.23401 9.38517 8.23401 9.21258V8.32241C8.23401 7.69254 8.33281 7.19651 8.54113 6.83428C8.62528 6.68797 8.80251 6.64358 8.93699 6.73513C9.07147 6.82667 9.11227 7.01949 9.02813 7.1658C8.88527 7.4142 8.80848 7.79974 8.80848 8.32241V9.21258Z" fill="#73BE4A"/>
<path d="M23.4841 8.79656C23.4841 8.96915 23.6127 9.10906 23.7714 9.10906C23.93 9.10906 24.0586 8.96915 24.0586 8.79656V7.90639C24.0586 7.27653 23.9598 6.7805 23.7515 6.41827C23.6673 6.27196 23.4901 6.22756 23.3556 6.31911C23.2211 6.41066 23.1803 6.60348 23.2645 6.74979C23.4073 6.99818 23.4841 7.38373 23.4841 7.90639V8.79656Z" fill="#73BE4A"/>
<path d="M24.3352 10.2536C24.3352 10.4262 24.4638 10.5661 24.6224 10.5661C24.7811 10.5661 24.9097 10.4262 24.9097 10.2536V9.36343C24.9097 8.73356 24.8109 8.23753 24.6025 7.8753C24.5184 7.72899 24.3412 7.6846 24.2067 7.77614C24.0722 7.86769 24.0314 8.06051 24.1155 8.20682C24.2584 8.45521 24.3352 8.84076 24.3352 9.36343V10.2536Z" fill="#73BE4A"/>
</g>
<defs>
<clipPath id="clip0_299_35625">
<rect width="32" height="24" fill="white"/>
</clipPath>
</defs>
</svg>
