<svg width="32" height="24" viewBox="0 0 32 24" fill="none" xmlns="http://www.w3.org/2000/svg">
<g clip-path="url(#clip0_299_35633)">
<rect width="32" height="24" fill="white"/>
<path fill-rule="evenodd" clip-rule="evenodd" d="M0 0V24H32V0H0Z" fill="#2E42A5"/>
<g clip-path="url(#clip1_299_35633)">
<rect width="18" height="14" fill="#2E42A5"/>
<path d="M-2.00427 12.9991L1.95668 14.7363L18.0899 1.88805L20.1792 -0.693481L15.9435 -1.27411L9.36317 4.26259L4.06667 7.99302L-2.00427 12.9991Z" fill="#F7FCFF"/>
<path d="M-1.46204 14.2165L0.555885 15.2246L19.4289 -0.933105H16.5955L-1.46204 14.2165Z" fill="#F50100"/>
<path d="M20.0043 12.9991L16.0433 14.7363L-0.0898743 1.88805L-2.17919 -0.693481L2.05648 -1.27411L8.63683 4.26259L13.9333 7.99302L20.0043 12.9991Z" fill="#F7FCFF"/>
<path d="M19.8691 13.8727L17.8512 14.8809L9.81489 7.9629L7.43229 7.18998L-2.3802 -0.684557H0.453194L10.2602 7.00307L12.8651 7.92989L19.8691 13.8727Z" fill="#F50100"/>
<path fill-rule="evenodd" clip-rule="evenodd" d="M9.98451 0H7.98451V6H0V8H7.98451V14H9.98451V8H18V6H9.98451V0Z" fill="#F50100"/>
<path fill-rule="evenodd" clip-rule="evenodd" d="M6.48451 0H11.4845V4.5H18V9.5H11.4845L11.5 14H6.5L6.48451 9.5H0V4.5H6.48451V0ZM7.98451 6H0V8H7.98451V14H9.98451V8H18V6H9.98451V0H7.98451V6Z" fill="#F7FCFF"/>
</g>
</g>
<defs>
<clipPath id="clip0_299_35633">
<rect width="32" height="24" fill="white"/>
</clipPath>
<clipPath id="clip1_299_35633">
<rect width="18" height="14" fill="white"/>
</clipPath>
</defs>
</svg>
