<svg width="32" height="24" viewBox="0 0 32 24" fill="none" xmlns="http://www.w3.org/2000/svg">
<rect width="32" height="24" fill="white"/>
<mask id="path-1-inside-1_299_35679" fill="white">
<path d="M10 6.98047C10.4721 7.06056 10.832 7.47095 10.832 7.96582C10.832 7.97727 10.8305 7.98864 10.8301 8H14V12H10.7314C10.5931 12.2859 10.3233 12.4949 10 12.5498V16H6V12.5371C5.70493 12.467 5.46122 12.267 5.33203 12H2V8H5.2334C5.23301 7.98864 5.23145 7.97727 5.23145 7.96582C5.23145 7.49334 5.5595 7.09772 6 6.99316V4H10V6.98047Z"/>
</mask>
<path d="M10 6.98047C10.4721 7.06056 10.832 7.47095 10.832 7.96582C10.832 7.97727 10.8305 7.98864 10.8301 8H14V12H10.7314C10.5931 12.2859 10.3233 12.4949 10 12.5498V16H6V12.5371C5.70493 12.467 5.46122 12.267 5.33203 12H2V8H5.2334C5.23301 7.98864 5.23145 7.97727 5.23145 7.96582C5.23145 7.49334 5.5595 7.09772 6 6.99316V4H10V6.98047Z" fill="#A0A0A0"/>
<path d="M10 6.98047H9V7.8251L9.83273 7.96638L10 6.98047ZM10.832 7.96582L11.832 7.96607V7.96582H10.832ZM10.8301 8L9.83065 7.96614L9.79563 9H10.8301V8ZM14 8H15V7H14V8ZM14 12V13H15V12H14ZM10.7314 12V11H10.1043L9.83124 11.5645L10.7314 12ZM10 12.5498L9.83259 11.5639L9 11.7053V12.5498H10ZM10 16V17H11V16H10ZM6 16H5V17H6V16ZM6 12.5371H7V11.7468L6.23114 11.5642L6 12.5371ZM5.33203 12L6.23221 11.5645L5.95911 11H5.33203V12ZM2 12H1V13H2V12ZM2 8V7H1V8H2ZM5.2334 8V9H6.26785L6.23282 7.96614L5.2334 8ZM5.23145 7.96582H4.23145V7.96607L5.23145 7.96582ZM6 6.99316L6.23095 7.96613L7 7.78358V6.99316H6ZM6 4V3H5V4H6ZM10 4H11V3H10V4ZM10 6.98047L9.83273 7.96638L9.83203 7.96582H10.832H11.832C11.832 6.97372 11.1108 6.15463 10.1673 5.99456L10 6.98047ZM10.832 7.96582L9.83203 7.96557C9.83204 7.94601 9.8327 7.9304 9.83322 7.92079C9.83348 7.9159 9.83373 7.91203 9.8339 7.90962C9.83406 7.90729 9.83418 7.90577 9.83417 7.90593C9.83416 7.906 9.83415 7.90619 9.83409 7.90688C9.83405 7.9074 9.83396 7.90856 9.83387 7.9097C9.83369 7.91204 9.83338 7.91613 9.83303 7.92096C9.83236 7.93045 9.83132 7.94654 9.83065 7.96614L10.8301 8L11.8295 8.03386C11.829 8.04778 11.8283 8.0582 11.8281 8.06199C11.8279 8.06399 11.8278 8.06523 11.8279 8.06472C11.8279 8.06445 11.8279 8.06418 11.828 8.06328C11.828 8.06254 11.8281 8.06132 11.8282 8.05996C11.8286 8.05509 11.8295 8.04285 11.8303 8.02799C11.8312 8.01268 11.832 7.99135 11.832 7.96607L10.832 7.96582ZM10.8301 8V9H14V8V7H10.8301V8ZM14 8H13V12H14H15V8H14ZM14 12V11H10.7314V12V13H14V12ZM10.7314 12L9.83124 11.5645C9.83144 11.5641 9.8314 11.5643 9.83112 11.5645C9.8311 11.5646 9.83129 11.5644 9.83174 11.5642C9.83227 11.564 9.83266 11.5639 9.83259 11.5639L10 12.5498L10.1674 13.5357C10.8159 13.4256 11.3553 13.0068 11.6317 12.4355L10.7314 12ZM10 12.5498H9V16H10H11V12.5498H10ZM10 16V15H6V16V17H10V16ZM6 16H7V12.5371H6H5V16H6ZM6 12.5371L6.23114 11.5642C6.232 11.5644 6.2326 11.5648 6.23253 11.5648C6.2322 11.5645 6.23209 11.5642 6.23221 11.5645L5.33203 12L4.43185 12.4355C4.68989 12.9689 5.17677 13.3694 5.76886 13.51L6 12.5371ZM5.33203 12V11H2V12V13H5.33203V12ZM2 12H3V8H2H1V12H2ZM2 8V9H5.2334V8V7H2V8ZM5.2334 8L6.23282 7.96614C6.23216 7.94654 6.23111 7.93044 6.23044 7.92096C6.2301 7.91612 6.22978 7.91203 6.2296 7.9097C6.22951 7.90855 6.22942 7.9074 6.22938 7.90688C6.22933 7.90619 6.22931 7.90599 6.22931 7.90593C6.2293 7.90577 6.22941 7.90729 6.22958 7.90962C6.22974 7.91203 6.23 7.9159 6.23026 7.9208C6.23078 7.9304 6.23144 7.94602 6.23145 7.96557L5.23145 7.96582L4.23145 7.96607C4.23145 7.99135 4.23231 8.01268 4.23313 8.02799C4.23393 8.04285 4.23487 8.05509 4.23525 8.05996C4.23535 8.06132 4.23545 8.06255 4.23551 8.06328C4.23558 8.06418 4.2356 8.06445 4.23562 8.06473C4.23566 8.06524 4.23556 8.06399 4.23542 8.062C4.23515 8.0582 4.23444 8.04778 4.23397 8.03386L5.2334 8ZM5.23145 7.96582H6.23145L6.23095 7.96613L6 6.99316L5.76905 6.0202C4.88898 6.2291 4.23145 7.01858 4.23145 7.96582H5.23145ZM6 6.99316H7V4H6H5V6.99316H6ZM6 4V5H10V4V3H6V4ZM10 4H9V6.98047H10H11V4H10Z" fill="#FECA00" mask="url(#path-1-inside-1_299_35679)"/>
<path fill-rule="evenodd" clip-rule="evenodd" d="M16 0H32V24H16V0Z" fill="#E31D1C"/>
<mask id="mask0_299_35679" style="mask-type:luminance" maskUnits="userSpaceOnUse" x="16" y="0" width="16" height="24">
<path fill-rule="evenodd" clip-rule="evenodd" d="M16 0H32V24H16V0Z" fill="white"/>
</mask>
<g mask="url(#mask0_299_35679)">
</g>
</svg>
