<svg width="32" height="24" viewBox="0 0 32 24" fill="none" xmlns="http://www.w3.org/2000/svg">
<g clip-path="url(#clip0_299_35683)">
<rect width="32" height="24" fill="white"/>
<path fill-rule="evenodd" clip-rule="evenodd" d="M0 0H32V22C32 23.1046 31.1046 24 30 24H2C0.895431 24 0 23.1046 0 22V0Z" fill="#C51918"/>
<path fill-rule="evenodd" clip-rule="evenodd" d="M0 0H32V24H0V0Z" fill="#C51918"/>
<path fill-rule="evenodd" clip-rule="evenodd" d="M6 6H26V18H6V6Z" fill="#579D20"/>
<path d="M25 7V17H7V7H25Z" stroke="#B6EB9A" stroke-opacity="0.238111" stroke-width="2"/>
<mask id="mask0_299_35683" style="mask-type:luminance" maskUnits="userSpaceOnUse" x="6" y="6" width="20" height="12">
<path fill-rule="evenodd" clip-rule="evenodd" d="M6 6H26V18H6V6Z" fill="white"/>
<path d="M25 7V17H7V7H25Z" stroke="white" stroke-width="2"/>
</mask>
<g mask="url(#mask0_299_35683)">
<path fill-rule="evenodd" clip-rule="evenodd" d="M16.033 12.4634C16.016 15.5291 18.4294 17.1636 18.4294 17.1636C15.6755 17.487 13.8433 14.9904 13.8433 12.4933C13.8433 9.99614 16.3409 7.9334 18.4294 7.00195C18.4294 7.00195 16.05 9.39769 16.033 12.4634Z" fill="#F9FAFA"/>
</g>
</g>
<defs>
<clipPath id="clip0_299_35683">
<rect width="32" height="24" fill="white"/>
</clipPath>
</defs>
</svg>
