<svg width="32" height="24" viewBox="0 0 32 24" fill="none" xmlns="http://www.w3.org/2000/svg">
<g clip-path="url(#clip0_299_35685)">
<rect width="32" height="24" fill="white"/>
<path fill-rule="evenodd" clip-rule="evenodd" d="M0 0V24H32V0H0Z" fill="#E11C1B"/>
<mask id="mask0_299_35685" style="mask-type:luminance" maskUnits="userSpaceOnUse" x="0" y="0" width="32" height="24">
<path fill-rule="evenodd" clip-rule="evenodd" d="M0 0V24H32V0H0Z" fill="white"/>
</mask>
<g mask="url(#mask0_299_35685)">
<path fill-rule="evenodd" clip-rule="evenodd" d="M0 0V10H32V0H0Z" fill="#272727"/>
<path fill-rule="evenodd" clip-rule="evenodd" d="M0 16V24H32V16H0Z" fill="#5EAA22"/>
<path d="M4.00208 11.9443H3.99231L4.00208 11.9424V11.9443ZM28.2892 11.9443H28.2814V11.9424L28.2892 11.9443ZM4.72864 8.12598H4.62805L4.57532 8.10254L4.72864 8.12598ZM16.587 3.34375C16.8355 3.35401 17.0813 3.37475 17.3243 3.40137L18.3126 0.774414L18.2032 3.53418C18.4485 3.58186 18.6903 3.63631 18.9279 3.7002L20.4142 1.29199L19.7609 3.96289C19.9978 4.04871 20.2295 4.1434 20.4562 4.24512L22.3781 2.13672L21.2169 4.62793C21.4393 4.75188 21.6554 4.88318 21.8644 5.02246L24.1417 3.28027L22.5284 5.50879C22.729 5.67001 22.9219 5.83799 23.1056 6.01367L25.6486 4.6875L23.6534 6.58691C23.8236 6.78304 23.9825 6.98698 24.132 7.19629L26.8497 6.3125L24.5441 7.83789C24.5987 7.93268 24.6502 8.02904 24.7003 8.12598H22.7374C21.3832 6.24992 18.9101 4.99326 16.0822 4.99316C13.2541 4.99316 10.7804 6.2498 9.4259 8.12598H7.56067C7.61264 8.02572 7.6661 7.92612 7.72278 7.82812L5.43176 6.3125L8.13293 7.19043C8.28397 6.97926 8.44516 6.7739 8.61731 6.57617L6.63293 4.6875L9.16223 6.00684C9.34755 5.82991 9.54272 5.66124 9.74524 5.49902L8.13977 3.28027L10.4073 5.01562C10.6179 4.87567 10.8356 4.74355 11.0597 4.61914L9.90344 2.13672L11.8185 4.23926C12.0466 4.13725 12.2801 4.04295 12.5187 3.95703L11.8683 1.29199L13.3497 3.69531C13.5885 3.63149 13.8318 3.57773 14.0782 3.53027L13.9698 0.774414L14.9562 3.39941C15.1992 3.37322 15.445 3.35359 15.6935 3.34375L16.1407 0.599609L16.587 3.34375ZM16.1222 5.9502C18.3866 5.95024 20.3998 6.80326 21.6827 8.12598H10.5616C11.8446 6.80324 13.8577 5.9502 16.1222 5.9502ZM27.6534 8.12598H27.5529L27.7062 8.10254L27.6534 8.12598Z" fill="#E11C1B"/>
</g>
</g>
<defs>
<clipPath id="clip0_299_35685">
<rect width="32" height="24" fill="white"/>
</clipPath>
</defs>
</svg>
