<svg width="32" height="24" viewBox="0 0 32 24" fill="none" xmlns="http://www.w3.org/2000/svg">
<g clip-path="url(#clip0_299_35687)">
<rect width="32" height="24" fill="white"/>
<path fill-rule="evenodd" clip-rule="evenodd" d="M22 0H32V24H22V0Z" fill="#D9071E"/>
<path fill-rule="evenodd" clip-rule="evenodd" d="M0 0H12V24H0V0Z" fill="#006923"/>
<path fill-rule="evenodd" clip-rule="evenodd" d="M10 0H22V24H10V0Z" fill="white"/>
<path d="M14.0162 7.94629C13.9244 8.09915 13.8507 8.23227 13.7964 8.3418C13.9762 8.39489 14.1005 8.64878 14.2369 8.77441C14.6011 9.11008 14.5558 9.4846 14.0552 9.89062C13.9588 9.9693 14.182 10.1764 14.0953 10.4336C14.334 10.4469 14.5044 10.4832 14.6617 10.5762C15.1037 10.8376 15.0627 11.3144 14.7261 11.6826C14.4876 11.9436 14.1688 12.1552 13.8687 12.2637C13.3695 12.444 12.8355 12.3744 12.8355 11.7354C12.8354 11.7103 12.8194 11.6606 13.0552 11.6553C12.6751 11.6493 12.5188 10.605 12.5132 10.4863C12.5132 9.69183 12.1773 9.69141 12.1773 9.69141V9.26465H12.7574C13.0864 9.26465 12.995 9.66094 13.0992 9.89062C13.1244 9.84864 13.1656 11.204 13.3013 11.0898C13.3532 11.0495 13.7367 11.5331 13.7964 11.3213C13.8411 11.1615 13.5812 10.5321 13.5816 10.2646C13.5826 9.64354 13.7772 9.29036 13.7964 9.26465C13.713 9.23506 13.5889 8.90596 13.5328 8.9043C13.019 8.9043 12.9491 8.79665 13.0552 8.3418C13.112 8.09855 12.918 7.83258 13.1588 7.43164L14.0162 7.94629ZM13.9722 11.0244L13.983 11.0146C13.9845 11.0119 13.9862 11.0096 13.9879 11.0078C13.9828 11.0134 13.9775 11.0189 13.9722 11.0244Z" fill="#A8AC71"/>
<path fill-rule="evenodd" clip-rule="evenodd" d="M14.3841 7.91211C14.3841 7.91211 13.6973 8.44477 13.8258 9.01265C13.9542 9.58053 15.3077 9.01265 15.1441 8.46238C14.9805 7.91211 14.3841 7.91211 14.3841 7.91211Z" fill="#FCCA3D"/>
<path fill-rule="evenodd" clip-rule="evenodd" d="M19.2665 12.4025C19.2665 12.4025 20.1915 9.66118 18.7211 8.24214C17.2507 6.82311 15.5516 6.91806 15.5516 6.91806C15.5516 6.91806 15.0623 7.28161 15.5516 7.55887C16.0409 7.83612 15.8359 8.10197 15.8359 8.10197C15.8359 8.10197 15.0165 7.26993 14.4725 7.75603C13.9285 8.24214 14.9803 8.16816 14.869 8.53418C14.7576 8.9002 14.2859 10.5253 14.9752 11.3457C15.6645 12.1662 14.3235 11.9881 14.5963 11.9881C14.869 11.9881 15.8359 12.1791 15.8359 11.9881C15.8359 11.7971 16.1721 12.7306 16.4598 12.7306C16.7475 12.7306 16.9695 12.4025 16.9695 12.4025C16.9695 12.4025 17.3728 12.7306 17.6185 12.7306C17.8643 12.7306 18.7211 12.5159 18.7211 12.5159L17.1016 11.1514C17.1016 11.1514 17.1993 10.5495 16.9695 10.4192C16.7398 10.289 18.8113 11.5737 18.9735 11.9881C19.1357 12.4025 19.2665 12.4025 19.2665 12.4025Z" fill="#8F4620"/>
<path d="M11.0665 11.7256C11.0665 11.7256 11.2166 11.247 11.3774 11.2138C11.5166 11.185 11.8095 11.4432 11.8095 11.4432C12.3297 14.333 13.5877 15.4617 15.6749 15.4617C17.7867 15.4617 19.0667 14.6041 19.8136 11.9388C19.8136 11.9388 20.2106 11.5333 20.3507 11.5784C20.5033 11.6275 20.6944 12.1639 20.6944 12.1639C19.8375 15.2215 18.2186 16.5829 15.6749 16.5829C13.1067 16.5829 11.6638 15.0438 11.0665 11.7256Z" fill="#9FAB2F"/>
<path fill-rule="evenodd" clip-rule="evenodd" d="M13.3342 13.6562C13.3342 13.6562 16.3386 14.2936 17.5244 14.2936C18.7102 14.2936 16.4839 15.2614 15.6153 15.2614C15.2353 15.2614 14.7773 15.031 14.2412 14.5703C14.1452 14.4878 14.2382 14.303 13.9455 14.3005C13.5375 14.2969 13.0305 14.2012 13.079 14.1429C13.1251 14.0874 13.7189 14.0706 13.6616 14.01C13.5672 13.9099 13.3342 13.6562 13.3342 13.6562Z" fill="#2FC2DC"/>
<rect x="14.6667" y="14.0996" width="2" height="1.07143" rx="0.166667" fill="#F9AA51"/>
<path d="M12.1755 12.1358C12.1755 12.1358 12.1755 11.7607 12.4295 11.5615C12.7207 11.3331 12.9942 11.5615 12.9942 11.5615C14.0596 13.0801 15.6529 13.5797 17.8813 13.0583C17.8813 13.0583 18.5476 13.276 18.5811 13.419C18.6236 13.6006 18.1092 14.032 18.1092 14.032C15.5041 14.6415 13.4905 14.0101 12.1755 12.1358Z" fill="#259485"/>
<path fill-rule="evenodd" clip-rule="evenodd" d="M16.5913 12.3496C16.5913 12.3496 15.3777 12.9885 15.7822 12.9885C16.1868 12.9885 17.7701 13.3079 17.462 12.9885C17.1539 12.669 16.5913 12.3496 16.5913 12.3496Z" fill="#FCCA3D"/>
<path fill-rule="evenodd" clip-rule="evenodd" d="M15.1564 11.5879C15.1564 11.5879 14.9258 10.9219 14.4459 10.9219C13.966 10.9219 14.1015 11.4683 13.8707 11.4683C13.6399 11.4683 14.0857 11.8527 14.2844 11.8527C14.4831 11.8527 15.1564 11.5879 15.1564 11.5879Z" fill="#FCCA3D"/>
</g>
<defs>
<clipPath id="clip0_299_35687">
<rect width="32" height="24" fill="white"/>
</clipPath>
</defs>
</svg>
