<svg width="32" height="24" viewBox="0 0 32 24" fill="none" xmlns="http://www.w3.org/2000/svg">
<g clip-path="url(#clip0_299_35689)">
<rect width="32" height="24" fill="white"/>
<path fill-rule="evenodd" clip-rule="evenodd" d="M0 0H32V24H0V0Z" fill="#F7FCFF"/>
<rect x="0.0270996" y="5" width="32" height="2.9" fill="#E31D1C"/>
<rect x="0.0270996" y="10.1992" width="32" height="2.9" fill="#E31D1C"/>
<rect x="0.111694" y="15.1992" width="32" height="2.5" fill="#E31D1C"/>
<rect x="0.111694" y="20.1992" width="32" height="2.7" fill="#E31D1C"/>
<path fill-rule="evenodd" clip-rule="evenodd" d="M0 0H32V2.5H0V0Z" fill="#E31D1C"/>
<path fill-rule="evenodd" clip-rule="evenodd" d="M0 0H16V12H0V0Z" fill="#3D58DB"/>
<path fill-rule="evenodd" clip-rule="evenodd" d="M3.59351 6.20167C3.59351 7.57789 4.24173 8.8793 5.56048 8.8793C7.53906 8.8793 7.92399 8.45748 8.84724 7.87551C9.06552 8.36578 8.32926 10.4639 5.53348 10.4639C3.29722 10.4189 1.48999 8.62233 1.48999 6.20167C1.48999 3.42316 3.53357 1.92261 5.47736 1.9396C7.19338 1.9396 9.01341 2.91335 8.95764 4.15558C8.14909 3.36573 7.27115 3.36573 5.80966 3.36573C4.34818 3.36573 3.59351 4.82527 3.59351 6.20167Z" fill="#FECA00"/>
<path fill-rule="evenodd" clip-rule="evenodd" d="M11 7.30078L10.0729 8.65395L10.1183 7.01431L8.57295 7.56414L9.57342 6.26431L8 5.80078L9.57342 5.33726L8.57295 4.03743L10.1183 4.58726L10.0729 2.94761L11 4.30078L11.9271 2.94761L11.8817 4.58726L13.4271 4.03743L12.4266 5.33726L14 5.80078L12.4266 6.26431L13.4271 7.56414L11.8817 7.01431L11.9271 8.65395L11 7.30078Z" fill="#FECA00"/>
</g>
<defs>
<clipPath id="clip0_299_35689">
<rect width="32" height="24" fill="white"/>
</clipPath>
</defs>
</svg>
