<svg width="32" height="24" viewBox="0 0 32 24" fill="none" xmlns="http://www.w3.org/2000/svg">
<g clip-path="url(#clip0_299_35693)">
<rect width="32" height="24" fill="white"/>
<path fill-rule="evenodd" clip-rule="evenodd" d="M0 0V24H32V0H0Z" fill="#009933"/>
<mask id="mask0_299_35693" style="mask-type:luminance" maskUnits="userSpaceOnUse" x="0" y="0" width="32" height="24">
<path fill-rule="evenodd" clip-rule="evenodd" d="M0 0V24H32V0H0Z" fill="white"/>
</mask>
<g mask="url(#mask0_299_35693)">
<path fill-rule="evenodd" clip-rule="evenodd" d="M0 0V24L32 0H0Z" fill="#3195F9"/>
<path d="M33.26 -2.56055L35.6018 2.47949L35.9592 3.24902L35.2581 3.72754L0.426025 27.4365L-0.482178 28.0547L-1.01245 27.0928L-3.87866 21.9014L-4.323 21.0957L-3.55737 20.5859L31.7981 -2.9707L32.7688 -3.61719L33.26 -2.56055Z" fill="#E31D1C" stroke="#F7FCFF" stroke-width="2"/>
<path d="M7.83752 3.24414L9.76526 2.49316L9.01428 4.4209L11.0592 4.73438L9.44495 6.0293L11.0592 7.32324L9.01428 7.63672L9.76526 9.56445L7.83752 8.81348L7.52405 10.8584L6.2301 9.24414L4.93518 10.8584L4.6217 8.81348L2.69397 9.56445L3.44495 7.63672L1.40002 7.32324L3.01428 6.0293L1.40002 4.73438L3.44495 4.4209L2.69397 2.49316L4.6217 3.24414L4.93518 1.19922L6.2301 2.81348L7.52405 1.19922L7.83752 3.24414ZM6.2301 3.5293C4.84939 3.5293 3.7301 4.64858 3.7301 6.0293C3.73035 7.4098 4.84954 8.5293 6.2301 8.5293C7.61046 8.52905 8.72986 7.40965 8.7301 6.0293C8.7301 4.64873 7.61061 3.52954 6.2301 3.5293ZM6.2301 4.0293C7.33447 4.02954 8.2301 4.92488 8.2301 6.0293C8.22986 7.13351 7.33432 8.02905 6.2301 8.0293C5.12568 8.0293 4.23035 7.13366 4.2301 6.0293C4.2301 4.92473 5.12553 4.0293 6.2301 4.0293Z" fill="#FECA00"/>
</g>
</g>
<defs>
<clipPath id="clip0_299_35693">
<rect width="32" height="24" fill="white"/>
</clipPath>
</defs>
</svg>
