<svg width="32" height="24" viewBox="0 0 32 24" fill="none" xmlns="http://www.w3.org/2000/svg">
<g clip-path="url(#clip0_299_35743)">
<rect width="32" height="24" fill="white"/>
<path fill-rule="evenodd" clip-rule="evenodd" d="M22 0H32V24H22V0Z" fill="#409100"/>
<path fill-rule="evenodd" clip-rule="evenodd" d="M0 0H10V24H0V0Z" fill="#409100"/>
<path fill-rule="evenodd" clip-rule="evenodd" d="M10 0H22V24H10V0Z" fill="white"/>
<path d="M15.9922 1.80078C15.9959 1.81472 16.324 3.05869 16.3242 3.22754V4.11328C16.3239 4.58802 15.5681 4.73921 16.3242 4.73926C17.081 4.73926 17.0494 4.98134 16.5889 4.98145C16.1281 4.98145 16.7207 5.28603 17.5479 5.28613C18.3752 5.28613 16.8541 5.64355 16.3242 5.64355C15.7954 5.64364 16.8542 5.80951 17.5479 5.80957C18.2414 5.80957 16.8556 6.16384 16.5889 6.30762C16.4503 6.38249 16.795 6.37762 17.1572 6.35742C16.9658 6.41376 16.7751 6.47152 16.6309 6.51562C16.1093 6.67507 16.6311 6.51605 16.6895 6.70703C16.7406 6.87337 17.2717 6.54491 17.6865 6.31836C17.7786 6.31053 17.8379 6.30762 17.8379 6.30762C17.8421 6.31248 18.1807 6.70522 18.1807 6.94531C18.1803 7.09124 17.6955 7.13052 17.1953 7.17676C17.2273 7.14104 17.1215 7.16064 16.9629 7.2002C16.7166 7.22572 16.484 7.2567 16.3242 7.30859C16.1671 7.3597 16.1977 7.377 16.3301 7.38086C16.3155 7.38531 16.3016 7.3904 16.2881 7.39453C15.9286 7.50445 16.287 7.39447 16.3457 7.58496C16.3908 7.7325 16.6722 7.53406 16.9287 7.3584C17.274 7.33607 17.6538 7.30859 17.8379 7.30859C18.2832 7.30874 17.3915 7.52326 17.0498 7.52344C16.7083 7.52344 18.1806 7.70549 18.4521 7.86621C18.7226 8.02662 17.4388 7.86633 17.0498 7.86621C16.6613 7.86621 16.5886 8.18359 16.8545 8.18359H17.8379C18.2093 8.18406 18.5958 8.75128 18.4521 8.75195C18.3078 8.75195 17.6188 9.07128 16.8545 9.07129C16.0901 9.07129 17.8378 9.07211 18.1807 9.07129C18.5239 9.07047 19.501 9.07317 19.501 9.41113C19.5005 9.74854 19.0229 9.66277 18.5967 9.89355C18.1702 10.1248 19.8721 10.335 19.8721 10.335C19.8721 10.335 19.198 10.5449 18.8701 10.5449C18.5427 10.5451 19.0232 10.8545 19.8721 10.8545C20.7201 10.8546 20.1512 11.4499 20.1504 11.585C20.1504 11.7195 19.501 11.8118 19.0225 12.2295C18.5439 12.6472 19.7041 12.2295 20.1504 12.2295C20.5964 12.2295 20.7867 12.2486 20.6416 12.4648C20.4963 12.6813 19.198 13.0234 18.8701 13.0234H20.6416C21.132 13.0236 20.5038 13.411 19.8721 13.4111C19.2401 13.4111 19.0226 13.7666 18.8701 13.7666H20.1504C20.273 13.7664 20.4184 13.3977 20.5039 13.4111C21.0827 13.502 20.823 14.2312 20.5039 14.2314C20.1376 14.2314 19.0234 14.4767 19.1982 14.7246C19.3736 14.9726 19.7529 14.4766 20.6416 14.4766C21.5297 14.4766 20.7271 14.7245 20.5039 14.7246C20.2809 14.7246 19.3369 14.9049 19.0225 15.0605C18.709 15.2161 20.504 15.0605 21.2354 15.0605C21.9667 15.0606 19.5021 15.6834 18.5967 15.6836C17.692 15.6836 19.1969 15.9217 19.501 15.9219C19.8042 15.9219 20.8509 16.1289 21.6338 16.1289C22.4166 16.1289 20.8511 16.6445 20.1504 16.6445C19.4498 16.6445 18.8708 16.6076 19.1982 17.0176C19.5261 17.4278 21.3413 16.8211 21.9258 17.1611C22.5101 17.5011 19.4704 17.4189 18.8701 17.4189C18.2704 17.419 19.4708 17.6416 20.5039 17.6416C21.5368 17.6416 21.7763 17.627 21.7764 17.9443C21.7764 18.2617 18.9317 18.1046 18.5967 18.1045C18.2637 18.1045 18.2203 18.5212 17.8379 18.5215C17.4552 18.5215 17.5481 17.9465 17.0879 18.2646C16.6286 18.5824 17.5418 21.7795 17.5479 21.8008H15.0605V18.7715C15.0605 18.7715 14.2509 18.5184 12.6953 18.7715C11.1398 19.0245 10.6494 18.2646 10.6494 18.2646C10.6518 18.2627 10.6722 18.2462 10.8447 18.1045C11.0406 17.9436 11.9278 18.1045 12.4346 18.1045C12.9414 18.1045 13.6079 17.9443 14.207 17.9443C14.8058 17.9442 12.4345 17.1611 11.9277 17.6416C11.4209 18.1219 10 17.4185 10 17.0176C10.0007 16.6173 11.1244 17.0176 11.5801 17.0176C12.0349 17.017 11.1239 16.1291 10.6494 16.1289C10.1748 16.1289 11.1242 15.9219 11.5801 15.9219C12.0357 15.922 12.4347 16.1289 12.6953 16.1289C12.9559 16.1289 11.3874 15.4545 11.124 15.4541H12.4346C13.2895 15.4541 12.9145 15.6835 13.6074 15.6836C14.294 15.6836 13.9292 15.311 13.9219 15.3037C13.9219 15.3037 11.5799 15.0604 11.124 14.7246C10.6682 14.3888 12.695 14.7245 13.3867 14.7246C14.078 14.7246 11.9297 14.2318 11.5801 14.2314H13.1641C13.8939 14.2314 14.7744 14.7246 15.6631 14.7246C16.5517 14.7246 12.6953 13.7659 12.1143 13.4111C11.5341 13.0568 13.165 13.7666 13.9219 13.7666C14.678 13.7664 12.9142 13.0234 12.4346 13.0234C11.955 13.0234 11.496 12.8079 11.9277 12.6084C12.3599 12.4088 13.9215 13.0234 14.3877 13.0234C14.8539 13.0234 15.0606 13.4111 15.6631 13.4111C16.2655 13.4111 14.3873 12.6084 13.6074 12.6084C12.8281 12.6083 12.6955 12.2297 13.1641 12.2295C13.6332 12.2295 12.1143 11.585 12.1143 11.585C12.1082 11.5721 11.902 11.128 12.4346 11.1279H13.1641C13.4142 11.1279 12.9143 10.335 12.4346 10.335C11.9552 10.3349 12.3733 10.0958 13.1641 10.0957C13.9552 10.0957 14.2069 10.5448 15.0605 10.8545C15.9142 11.1642 15.2703 10.335 15.0605 10.335C14.8507 10.3349 12.6953 9.65918 12.6953 9.65918C12.7018 9.65165 12.911 9.40496 12.6953 9.07129C12.4774 8.73299 13.7559 9.07129 13.9219 9.07129C14.0885 9.07156 14.775 9.27086 15.415 9.41113C16.0541 9.551 13.2389 8.37695 12.9141 8.37695C12.5903 8.37682 13.6081 8.18359 14.207 8.18359C14.806 8.18362 14.7746 8.37695 15.415 8.37695C16.0547 8.37677 14.2065 7.69043 13.6074 7.69043C13.0092 7.69018 13.3626 7.09925 13.6074 7.09863C13.8523 7.09863 15.0606 7.30859 15.6631 7.30859C16.2655 7.30858 14.3878 6.94469 14.207 6.64453C14.0816 6.43583 14.4063 6.51586 14.915 6.58496C15.1742 6.72092 15.3901 6.81035 15.4219 6.70703C15.4321 6.6737 15.4579 6.65324 15.4883 6.6377C15.5458 6.64008 15.6041 6.64453 15.6631 6.64453C16.0187 6.64453 15.8565 6.59112 15.5156 6.52637C15.5046 6.52298 15.4927 6.51935 15.4805 6.51562C14.9588 6.35615 13.8308 6.01528 14.2529 6.22559C14.3354 6.26666 14.4273 6.31856 14.5234 6.37207C14.2398 6.3345 14.0016 6.30769 13.9219 6.30762C13.6365 6.30762 13.3503 6.08789 13.9219 6.08789H15.0605C14.7065 6.08789 14.2076 6.0874 14.207 5.80957C14.207 5.5313 15.0608 5.80957 15.415 5.80957C15.769 5.80957 15.8571 5.80906 15.6631 5.64355C15.469 5.47801 14.7743 5.4873 14.3877 5.4873C14.0011 5.4873 15.2075 5.28613 15.6631 5.28613C16.1186 5.28613 15.0605 5.2858 14.3877 4.98145C13.7148 4.67707 15.0606 4.98145 15.6631 4.98145C16.2655 4.98143 15.4148 4.5762 14.7744 4.57617C14.1341 4.57617 14.6716 4.35843 15.0605 4.11328C15.4495 3.86815 15.663 4.73905 15.6631 4.3584C15.6631 3.97716 15.4148 3.94763 15.6631 4.11328C15.9081 4.27654 15.669 3.69304 15.6631 3.67871C15.6631 3.67871 15.4148 3.5127 15.6631 3.5127C15.9112 3.51267 15.5835 3.22783 15.415 3.22754C15.2466 3.22754 15.8574 2.95508 15.8574 2.95508L15.9922 1.80078ZM15.752 15.8691C15.2913 15.8691 14.2952 15.8766 14.6875 16.0244C15.0806 16.1724 15.752 16.6292 15.752 16.249C15.752 15.8689 16.2121 15.8691 15.752 15.8691ZM16.6094 15.6182C16.1488 15.6182 16.609 15.6182 16.6094 15.998C16.6094 16.3783 17.2798 15.9214 17.6729 15.7734C18.0657 15.6255 17.0702 15.6182 16.6094 15.6182ZM15.502 14.8662C15.0411 14.8662 14.0455 14.8745 14.4385 15.0225C14.8314 15.1704 15.5014 15.6265 15.502 15.2471C15.502 14.8669 15.9627 14.8662 15.502 14.8662ZM16.6094 14.8662C16.1486 14.8662 16.6094 14.8669 16.6094 15.2471C16.6099 15.6264 17.2799 15.1705 17.6729 15.0225C18.0659 14.8745 17.0702 14.8662 16.6094 14.8662ZM15.54 14.1143C15.164 14.1143 14.3511 14.1187 14.6709 14.1963C14.9917 14.274 15.5398 14.5139 15.54 14.3145C15.54 14.1148 15.9159 14.1143 15.54 14.1143ZM18.2783 13.292C18.5992 13.2143 16.9475 13.6133 16.5713 13.6133C16.1956 13.6133 16.5713 13.6138 16.5713 13.8135C16.573 14.012 17.9574 13.3698 18.2783 13.292ZM17.8672 11.8799C17.089 11.8799 16.9422 12.1348 16.7295 12.1348L16.459 12.1855C16.3622 12.2774 16.2077 12.4609 16.5176 12.4609C16.9314 12.4606 18.6453 11.8799 17.8672 11.8799ZM17.8584 11.2383C18.2806 11.0279 17.1524 11.3689 16.6309 11.5283C16.1096 11.6877 16.6307 11.5282 16.6895 11.7188C16.7478 11.9097 17.4362 11.4487 17.8584 11.2383ZM15.4805 11.0273C14.9589 10.8679 13.8308 10.527 14.2529 10.7373C14.6751 10.9477 15.3635 11.4087 15.4219 11.2178C15.4803 11.0269 16.002 11.1868 15.4805 11.0273ZM17.8584 10.2354C18.2805 10.025 17.1525 10.3659 16.6309 10.5254C16.1093 10.6848 16.6311 10.5258 16.6895 10.7168C16.7482 10.9073 17.4363 10.4457 17.8584 10.2354ZM15.4805 10.0244C14.9589 9.86494 13.8308 9.52405 14.2529 9.73438C14.6748 9.9446 15.3627 10.4057 15.4219 10.2158C15.4803 10.0248 16.002 10.1839 15.4805 10.0244ZM17.8584 9.2334C18.2806 9.02306 17.1524 9.36398 16.6309 9.52344C16.1096 9.6828 16.6306 9.52335 16.6895 9.71387C16.7478 9.90481 17.4362 9.44381 17.8584 9.2334ZM15.4805 8.77148C14.9589 8.61202 13.8308 8.27112 14.2529 8.48145C14.6748 8.69165 15.3625 9.15255 15.4219 8.96289C15.4803 8.77191 16.002 8.93093 15.4805 8.77148ZM17.1426 8.47168C17.4259 8.30388 16.6479 8.53747 16.2881 8.64746C15.9286 8.75736 16.2869 8.64753 16.3457 8.83789C16.4041 9.02887 16.8584 8.63983 17.1426 8.47168Z" fill="#409100"/>
</g>
<defs>
<clipPath id="clip0_299_35743">
<rect width="32" height="24" fill="white"/>
</clipPath>
</defs>
</svg>
