<svg width="32" height="24" viewBox="0 0 32 24" fill="none" xmlns="http://www.w3.org/2000/svg">
<g clip-path="url(#clip0_299_35747)">
<rect width="32" height="24" fill="white"/>
<path fill-rule="evenodd" clip-rule="evenodd" d="M0 0V24H32V0H0Z" fill="#F7FCFF"/>
<mask id="mask0_299_35747" style="mask-type:luminance" maskUnits="userSpaceOnUse" x="0" y="0" width="32" height="24">
<path fill-rule="evenodd" clip-rule="evenodd" d="M0 0V24H32V0H0Z" fill="white"/>
</mask>
<g mask="url(#mask0_299_35747)">
<path fill-rule="evenodd" clip-rule="evenodd" d="M0 0V8H32V0H0Z" fill="#0080EC"/>
<path fill-rule="evenodd" clip-rule="evenodd" d="M0 16V24H32V16H0Z" fill="#0080EC"/>
<path d="M13.8389 13.6289C14.2903 14.2268 14.9816 14.6312 15.7715 14.6973V15.9932C14.4158 15.9168 13.2402 15.166 12.5762 14.0703L13.8389 13.6289ZM19.5127 13.9131C18.8788 15.0746 17.6864 15.8856 16.2959 15.9873V14.6924C17.0364 14.6119 17.6854 14.2322 18.124 13.6777L19.5127 13.9131ZM17.1514 8.16895C18.7992 8.66347 20 10.1912 20 12C20 12.0665 19.9983 12.1326 19.9951 12.1982L18.7041 12.0889C18.7051 12.0593 18.709 12.0298 18.709 12C18.709 10.7837 17.9075 9.75452 16.8037 9.41211L17.1514 8.16895ZM14.8857 9.53223C13.9516 9.95466 13.3001 10.8896 13.292 11.9795L12.0039 12.1709C12.0015 12.1142 12 12.0573 12 12C12 10.3018 13.0587 8.85183 14.5518 8.27148L14.8857 9.53223ZM16 8C16.1883 8 16.3734 8.0139 16.5547 8.03906L16.3564 9.31641C16.2397 9.30105 16.1209 9.29102 16 9.29102C15.824 9.29102 15.652 9.30875 15.4854 9.34082L15.3926 8.04492C15.5906 8.01476 15.7935 8 16 8Z" fill="#D0AB00"/>
<path fill-rule="evenodd" clip-rule="evenodd" d="M15.9748 8.94922L13.2379 13.68H18.7546L15.9748 8.94922Z" fill="#7CDFFF"/>
<mask id="mask1_299_35747" style="mask-type:luminance" maskUnits="userSpaceOnUse" x="13" y="8" width="6" height="6">
<path fill-rule="evenodd" clip-rule="evenodd" d="M15.9748 8.94922L13.2379 13.68H18.7546L15.9748 8.94922Z" fill="white"/>
</mask>
<g mask="url(#mask1_299_35747)">
<path d="M15.9997 10.3359C17.3201 10.3359 18.3911 11.4062 18.3913 12.7266C18.3913 14.047 17.3202 15.1182 15.9997 15.1182C14.6794 15.118 13.6091 14.0469 13.6091 12.7266C13.6092 11.4063 14.6795 10.3361 15.9997 10.3359Z" stroke="#E31D1C"/>
<path d="M15.9997 10.3359C17.3201 10.3359 18.3911 11.4062 18.3913 12.7266C18.3913 14.047 17.3202 15.1182 15.9997 15.1182C14.6794 15.118 13.6091 14.0469 13.6091 12.7266C13.6092 11.4063 14.6795 10.3361 15.9997 10.3359Z" stroke="#FFD018"/>
<path d="M15.9997 10.3359C17.3201 10.3359 18.3911 11.4062 18.3913 12.7266C18.3913 14.047 17.3202 15.1182 15.9997 15.1182C14.6794 15.118 13.6091 14.0469 13.6091 12.7266C13.6092 11.4063 14.6795 10.3361 15.9997 10.3359Z" stroke="#4EDD00"/>
<path d="M15.9997 10.3359C17.3201 10.3359 18.3911 11.4062 18.3913 12.7266C18.3913 14.047 17.3202 15.1182 15.9997 15.1182C14.6794 15.118 13.6091 14.0469 13.6091 12.7266C13.6092 11.4063 14.6795 10.3361 15.9997 10.3359Z" stroke="#3D58DB"/>
<rect x="13.0182" y="12.2168" width="6.25455" height="1.81818" fill="#3D58DB"/>
<path fill-rule="evenodd" clip-rule="evenodd" d="M13.4369 12.9909L14.6835 11.7513L15.066 12.3711L15.3333 11.6152L15.6301 12.1818L15.9419 11.7513L16.3453 12.1818L16.7151 11.6152L17.0313 12.1818L17.394 11.7513L18.2416 12.652L18.3941 12.9909L13.4369 13.2424V12.9909Z" fill="#97C923"/>
</g>
</g>
</g>
<defs>
<clipPath id="clip0_299_35747">
<rect width="32" height="24" fill="white"/>
</clipPath>
</defs>
</svg>
