<svg width="32" height="24" viewBox="0 0 32 24" fill="none" xmlns="http://www.w3.org/2000/svg">
<g clip-path="url(#clip0_299_35757)">
<rect width="32" height="24" fill="white"/>
<path fill-rule="evenodd" clip-rule="evenodd" d="M0 0V24H32V0H0Z" fill="#2E42A5"/>
<mask id="mask0_299_35757" style="mask-type:luminance" maskUnits="userSpaceOnUse" x="0" y="0" width="32" height="24">
<path fill-rule="evenodd" clip-rule="evenodd" d="M0 0V24H32V0H0Z" fill="white"/>
</mask>
<g mask="url(#mask0_299_35757)">
<path fill-rule="evenodd" clip-rule="evenodd" d="M0 16V24H32V16H0Z" fill="#FECA00"/>
<path d="M-2.26221 15.1284L4.08051 16.5957L17.6016 9.12478L19.0323 8.28815L31.8759 1.5725L34.9186 -0.548529L27.9589 -1.19039L16.7373 5.13962L8.62795 9.12478L-2.26221 15.1284Z" fill="white"/>
<path d="M-1.70496 16.0185L1.70999 17.1387L33.6489 -0.814344H28.854L-1.70496 16.0185Z" fill="#F50100"/>
<path d="M34.3707 14.7298L34.6226 16.2398L27.9194 16.5957L17.1133 10.2664L16.0944 10.6144L-4.08046 0.40967L4.24937 -1.19367L15.3853 4.95821L24.0968 9.16747L34.3707 14.7298Z" fill="white"/>
<path d="M34.3938 15.6357L30.9789 16.7559L17.3789 9.06924L13.3468 8.21043L-3.25893 -0.539047H1.53605L18.1325 8.00276L22.5409 9.03256L34.3938 15.6357Z" fill="#F50100"/>
<path d="M18.8779 4.75H17.6279V6H18.8779V4.75ZM33.25 4.75H34.5V3.5H33.25V4.75ZM33.25 11.25V12.5H34.5V11.25H33.25ZM18.8779 11.25V10H17.6279V11.25H18.8779ZM18.8779 19.25V20.5H20.1279V19.25H18.8779ZM13.1895 19.25H11.9395V20.5H13.1895V19.25ZM13.1895 11.25H14.4395V10H13.1895V11.25ZM-1.25 11.25H-2.5V12.5H-1.25V11.25ZM-1.25 4.75V3.5H-2.5V4.75H-1.25ZM13.1895 4.75V6H14.4395V4.75H13.1895ZM13.1895 -1.25V-2.5H11.9395V-1.25H13.1895ZM18.8779 -1.25H20.1279V-2.5H18.8779V-1.25ZM15.6895 11.25V10H14.4395V11.25H15.6895ZM15.6895 16.75H14.4395V18H15.6895V16.75ZM16.3779 16.75V18H17.6279V16.75H16.3779ZM16.3779 11.25H17.6279V10H16.3779V11.25ZM18.8779 8.75H17.6279V10H18.8779V8.75ZM30.75 8.75V10H32V8.75H30.75ZM30.75 7.25H32V6H30.75V7.25ZM18.8779 7.25V6H17.6279V7.25H18.8779ZM15.6895 8.75H14.4395V10H15.6895V8.75ZM16.3779 8.75V10H17.6279V8.75H16.3779ZM16.3779 7.25H17.6279V6H16.3779V7.25ZM15.6895 7.25V6H14.4395V7.25H15.6895ZM1.25 8.75H0V10H1.25V8.75ZM13.1895 8.75V10H14.4395V8.75H13.1895ZM13.1895 7.25H14.4395V6H13.1895V7.25ZM1.25 7.25V6H0V7.25H1.25ZM15.6895 4.75H14.4395V6H15.6895V4.75ZM16.3779 4.75V6H17.6279V4.75H16.3779ZM16.3779 1.25H17.6279V0H16.3779V1.25ZM15.6895 1.25V0H14.4395V1.25H15.6895ZM18.8779 4.75V6H33.25V4.75V3.5H18.8779V4.75ZM33.25 4.75H32V11.25H33.25H34.5V4.75H33.25ZM33.25 11.25V10H18.8779V11.25V12.5H33.25V11.25ZM18.8779 11.25H17.6279V19.25H18.8779H20.1279V11.25H18.8779ZM18.8779 19.25V18H13.1895V19.25V20.5H18.8779V19.25ZM13.1895 19.25H14.4395V11.25H13.1895H11.9395V19.25H13.1895ZM13.1895 11.25V10H-1.25V11.25V12.5H13.1895V11.25ZM-1.25 11.25H0V4.75H-1.25H-2.5V11.25H-1.25ZM-1.25 4.75V6H13.1895V4.75V3.5H-1.25V4.75ZM13.1895 4.75H14.4395V-1.25H13.1895H11.9395V4.75H13.1895ZM13.1895 -1.25V0H18.8779V-1.25V-2.5H13.1895V-1.25ZM18.8779 -1.25H17.6279V4.75H18.8779H20.1279V-1.25H18.8779ZM15.6895 11.25H14.4395V16.75H15.6895H16.9395V11.25H15.6895ZM15.6895 16.75V18H16.3779V16.75V15.5H15.6895V16.75ZM16.3779 16.75H17.6279V11.25H16.3779H15.1279V16.75H16.3779ZM16.3779 11.25V10H15.6895V11.25V12.5H16.3779V11.25ZM18.8779 8.75V10H30.75V8.75V7.5H18.8779V8.75ZM30.75 8.75H32V7.25H30.75H29.5V8.75H30.75ZM30.75 7.25V6H18.8779V7.25V8.5H30.75V7.25ZM18.8779 7.25H17.6279V8.75H18.8779H20.1279V7.25H18.8779ZM15.6895 8.75V10H16.3779V8.75V7.5H15.6895V8.75ZM16.3779 8.75H17.6279V7.25H16.3779H15.1279V8.75H16.3779ZM16.3779 7.25V6H15.6895V7.25V8.5H16.3779V7.25ZM15.6895 7.25H14.4395V8.75H15.6895H16.9395V7.25H15.6895ZM1.25 8.75V10H13.1895V8.75V7.5H1.25V8.75ZM13.1895 8.75H14.4395V7.25H13.1895H11.9395V8.75H13.1895ZM13.1895 7.25V6H1.25V7.25V8.5H13.1895V7.25ZM1.25 7.25H0V8.75H1.25H2.5V7.25H1.25ZM15.6895 4.75V6H16.3779V4.75V3.5H15.6895V4.75ZM16.3779 4.75H17.6279V1.25H16.3779H15.1279V4.75H16.3779ZM16.3779 1.25V0H15.6895V1.25V2.5H16.3779V1.25ZM15.6895 1.25H14.4395V4.75H15.6895H16.9395V1.25H15.6895Z" fill="white"/>
<path d="M17.6924 5.99902H34V9.99902H17.6924V19.333H14.3076V9.99902H0V5.99902H14.3076V-1.33398H17.6924V5.99902Z" fill="#F50100"/>
<path fill-rule="evenodd" clip-rule="evenodd" d="M16.05 10.5996C17.5688 10.5996 18.8 9.36839 18.8 7.84961C18.8 6.33083 17.5688 5.09961 16.05 5.09961C14.5313 5.09961 13.3 6.33083 13.3 7.84961C13.3 9.36839 14.5313 10.5996 16.05 10.5996Z" fill="#2E42A5"/>
<path fill-rule="evenodd" clip-rule="evenodd" d="M16.1 8.69091L14.8021 9.59405L15.26 8.08061L14 7.12535L15.5809 7.09313L16.1 5.59961L16.6191 7.09313L18.2 7.12535L16.94 8.08061L17.3979 9.59405L16.1 8.69091Z" fill="#FECA00"/>
<path fill-rule="evenodd" clip-rule="evenodd" d="M7.09998 8.57608L6.01842 9.3287L6.39998 8.0675L5.34998 7.27145L6.66735 7.2446L7.09998 6L7.5326 7.2446L8.84998 7.27145L7.79998 8.0675L8.18154 9.3287L7.09998 8.57608Z" fill="#FECA00"/>
<path fill-rule="evenodd" clip-rule="evenodd" d="M25.1 8.57608L24.0184 9.3287L24.4 8.0675L23.35 7.27145L24.6674 7.2446L25.1 6L25.5326 7.2446L26.85 7.27145L25.8 8.0675L26.1815 9.3287L25.1 8.57608Z" fill="#FECA00"/>
<path fill-rule="evenodd" clip-rule="evenodd" d="M16.1 3.7753L15.0184 4.52792L15.4 3.26672L14.35 2.47067L15.6674 2.44382L16.1 1.19922L16.5326 2.44382L17.85 2.47067L16.8 3.26672L17.1815 4.52792L16.1 3.7753Z" fill="#FECA00"/>
<path fill-rule="evenodd" clip-rule="evenodd" d="M16.1 14.3749L15.0184 15.1275L15.4 13.8663L14.35 13.0703L15.6674 13.0434L16.1 11.7988L16.5326 13.0434L17.85 13.0703L16.8 13.8663L17.1815 15.1275L16.1 14.3749Z" fill="#FECA00"/>
</g>
</g>
<defs>
<clipPath id="clip0_299_35757">
<rect width="32" height="24" fill="white"/>
</clipPath>
</defs>
</svg>
