<svg width="32" height="24" viewBox="0 0 32 24" fill="none" xmlns="http://www.w3.org/2000/svg">
<g clip-path="url(#clip0_299_35759)">
<rect width="32" height="24" fill="white"/>
<path fill-rule="evenodd" clip-rule="evenodd" d="M0 0V24H32V0H0Z" fill="#2E42A5"/>
<mask id="mask0_299_35759" style="mask-type:luminance" maskUnits="userSpaceOnUse" x="0" y="0" width="32" height="24">
<path fill-rule="evenodd" clip-rule="evenodd" d="M0 0V24H32V0H0Z" fill="white"/>
</mask>
<g mask="url(#mask0_299_35759)">
</g>
<g clip-path="url(#clip1_299_35759)">
<rect width="18" height="14" fill="#2E42A5"/>
<path d="M-2.00427 12.9991L1.95668 14.7363L18.0899 1.88805L20.1792 -0.693481L15.9435 -1.27411L9.36317 4.26259L4.06667 7.99302L-2.00427 12.9991Z" fill="#F7FCFF"/>
<path d="M-1.46204 14.2165L0.555885 15.2246L19.4289 -0.933105H16.5955L-1.46204 14.2165Z" fill="#F50100"/>
<path d="M20.0043 12.9991L16.0433 14.7363L-0.0898743 1.88805L-2.17919 -0.693481L2.05648 -1.27411L8.63683 4.26259L13.9333 7.99302L20.0043 12.9991Z" fill="#F7FCFF"/>
<path d="M19.8691 13.8727L17.8512 14.8809L9.81489 7.9629L7.43229 7.18998L-2.3802 -0.684557H0.453194L10.2602 7.00307L12.8651 7.92989L19.8691 13.8727Z" fill="#F50100"/>
<path fill-rule="evenodd" clip-rule="evenodd" d="M9.98451 0H7.98451V6H0V8H7.98451V14H9.98451V8H18V6H9.98451V0Z" fill="#F50100"/>
<path fill-rule="evenodd" clip-rule="evenodd" d="M6.48451 0H11.4845V4.5H18V9.5H11.4845L11.5 14H6.5L6.48451 9.5H0V4.5H6.48451V0ZM7.98451 6H0V8H7.98451V14H9.98451V8H18V6H9.98451V0H7.98451V6Z" fill="#F7FCFF"/>
</g>
<path fill-rule="evenodd" clip-rule="evenodd" d="M24.1 7.47141L23.8403 8.98543L25.2 8.27061L26.5597 8.98543L26.3 7.47141L27.4 6.39917L25.8798 6.17828L25.2 4.80078L24.5202 6.17828L23 6.39917L24.1 7.47141ZM20.1 13.0714L19.8403 14.5854L21.2 13.8706L22.5597 14.5854L22.3 13.0714L23.4 11.9992L21.8798 11.7783L21.2 10.4008L20.5202 11.7783L19 11.9992L20.1 13.0714ZM23.4266 19.4643L23.0898 21.4278L24.8532 20.5008L26.6165 21.4278L26.2798 19.4643L27.7063 18.0737L25.7348 17.7873L24.8532 16.0008L23.9715 17.7873L22 18.0737L23.4266 19.4643ZM26.8394 14.5808L27.0988 13.0684L26 11.9974L27.5185 11.7768L28.1976 10.4008L28.8766 11.7768L30.3951 11.9974L29.2963 13.0684L29.5557 14.5808L28.1976 13.8668L26.8394 14.5808Z" fill="#F50100"/>
<path d="M23.8403 8.98543L23.6432 8.95162L23.5747 9.35103L23.9334 9.16246L23.8403 8.98543ZM24.1 7.47141L24.2971 7.50522L24.3149 7.40159L24.2396 7.32819L24.1 7.47141ZM25.2 8.27061L25.2931 8.09358L25.2 8.04465L25.1069 8.09358L25.2 8.27061ZM26.5597 8.98543L26.4666 9.16246L26.8253 9.35103L26.7568 8.95162L26.5597 8.98543ZM26.3 7.47141L26.1604 7.32819L26.0851 7.40159L26.1029 7.50522L26.3 7.47141ZM27.4 6.39917L27.5396 6.54239L27.8298 6.25953L27.4288 6.20125L27.4 6.39917ZM25.8798 6.17828L25.7005 6.2668L25.747 6.36108L25.8511 6.3762L25.8798 6.17828ZM25.2 4.80078L25.3793 4.71227L25.2 4.34887L25.0207 4.71227L25.2 4.80078ZM24.5202 6.17828L24.5489 6.3762L24.653 6.36108L24.6995 6.2668L24.5202 6.17828ZM23 6.39917L22.9712 6.20125L22.5702 6.25953L22.8604 6.54239L23 6.39917ZM19.8403 14.5854L19.6432 14.5516L19.5747 14.951L19.9334 14.7625L19.8403 14.5854ZM20.1 13.0714L20.2971 13.1052L20.3149 13.0016L20.2396 12.9282L20.1 13.0714ZM21.2 13.8706L21.2931 13.6936L21.2 13.6447L21.1069 13.6936L21.2 13.8706ZM22.5597 14.5854L22.4666 14.7625L22.8253 14.951L22.7568 14.5516L22.5597 14.5854ZM22.3 13.0714L22.1604 12.9282L22.0851 13.0016L22.1029 13.1052L22.3 13.0714ZM23.4 11.9992L23.5396 12.1424L23.8298 11.8595L23.4288 11.8013L23.4 11.9992ZM21.8798 11.7783L21.7005 11.8668L21.747 11.9611L21.8511 11.9762L21.8798 11.7783ZM21.2 10.4008L21.3793 10.3123L21.2 9.94888L21.0207 10.3123L21.2 10.4008ZM20.5202 11.7783L20.5489 11.9762L20.653 11.9611L20.6995 11.8668L20.5202 11.7783ZM19 11.9992L18.9712 11.8013L18.5702 11.8595L18.8604 12.1424L19 11.9992ZM23.0898 21.4278L22.8927 21.394L22.8242 21.7934L23.1829 21.6049L23.0898 21.4278ZM23.4266 19.4643L23.6237 19.4981L23.6415 19.3945L23.5662 19.3211L23.4266 19.4643ZM24.8532 20.5008L24.9462 20.3238L24.8532 20.2748L24.7601 20.3238L24.8532 20.5008ZM26.6165 21.4278L26.5235 21.6049L26.8822 21.7934L26.8136 21.394L26.6165 21.4278ZM26.2798 19.4643L26.1402 19.3211L26.0649 19.3945L26.0826 19.4981L26.2798 19.4643ZM27.7063 18.0737L27.8459 18.217L28.1361 17.9341L27.7351 17.8758L27.7063 18.0737ZM25.7348 17.7873L25.5555 17.8758L25.602 17.9701L25.7061 17.9852L25.7348 17.7873ZM24.8532 16.0008L25.0325 15.9123L24.8532 15.5489L24.6738 15.9123L24.8532 16.0008ZM23.9715 17.7873L24.0003 17.9852L24.1043 17.9701L24.1508 17.8758L23.9715 17.7873ZM22 18.0737L21.9712 17.8758L21.5702 17.9341L21.8604 18.217L22 18.0737ZM27.0988 13.0684L27.2959 13.1023L27.3137 12.9986L27.2384 12.9252L27.0988 13.0684ZM26.8394 14.5808L26.6423 14.547L26.5738 14.9464L26.9325 14.7578L26.8394 14.5808ZM26 11.9974L25.9712 11.7995L25.5702 11.8578L25.8604 12.1406L26 11.9974ZM27.5185 11.7768L27.5472 11.9747L27.6513 11.9596L27.6978 11.8653L27.5185 11.7768ZM28.1976 10.4008L28.3769 10.3123L28.1976 9.94888L28.0182 10.3123L28.1976 10.4008ZM28.8766 11.7768L28.6973 11.8653L28.7438 11.9596L28.8479 11.9747L28.8766 11.7768ZM30.3951 11.9974L30.5347 12.1406L30.8249 11.8578L30.4239 11.7995L30.3951 11.9974ZM29.2963 13.0684L29.1567 12.9252L29.0814 12.9986L29.0992 13.1023L29.2963 13.0684ZM29.5557 14.5808L29.4627 14.7578L29.8213 14.9464L29.7528 14.547L29.5557 14.5808ZM28.1976 13.8668L28.2906 13.6897L28.1976 13.6408L28.1045 13.6897L28.1976 13.8668ZM23.8403 8.98543L24.0374 9.01924L24.2971 7.50522L24.1 7.47141L23.9029 7.4376L23.6432 8.95162L23.8403 8.98543ZM25.2 8.27061L25.1069 8.09358L23.7473 8.8084L23.8403 8.98543L23.9334 9.16246L25.2931 8.44763L25.2 8.27061ZM26.5597 8.98543L26.6527 8.8084L25.2931 8.09358L25.2 8.27061L25.1069 8.44763L26.4666 9.16246L26.5597 8.98543ZM26.3 7.47141L26.1029 7.50522L26.3626 9.01924L26.5597 8.98543L26.7568 8.95162L26.4971 7.4376L26.3 7.47141ZM27.4 6.39917L27.2604 6.25596L26.1604 7.32819L26.3 7.47141L26.4396 7.61463L27.5396 6.54239L27.4 6.39917ZM25.8798 6.17828L25.8511 6.3762L27.3712 6.5971L27.4 6.39917L27.4288 6.20125L25.9086 5.98036L25.8798 6.17828ZM25.2 4.80078L25.0207 4.88929L25.7005 6.2668L25.8798 6.17828L26.0592 6.08977L25.3793 4.71227L25.2 4.80078ZM24.5202 6.17828L24.6995 6.2668L25.3793 4.88929L25.2 4.80078L25.0207 4.71227L24.3408 6.08977L24.5202 6.17828ZM23 6.39917L23.0288 6.5971L24.5489 6.3762L24.5202 6.17828L24.4914 5.98036L22.9712 6.20125L23 6.39917ZM24.1 7.47141L24.2396 7.32819L23.1396 6.25596L23 6.39917L22.8604 6.54239L23.9604 7.61463L24.1 7.47141ZM19.8403 14.5854L20.0374 14.6192L20.2971 13.1052L20.1 13.0714L19.9029 13.0376L19.6432 14.5516L19.8403 14.5854ZM21.2 13.8706L21.1069 13.6936L19.7473 14.4084L19.8403 14.5854L19.9334 14.7625L21.2931 14.0476L21.2 13.8706ZM22.5597 14.5854L22.6527 14.4084L21.2931 13.6936L21.2 13.8706L21.1069 14.0476L22.4666 14.7625L22.5597 14.5854ZM22.3 13.0714L22.1029 13.1052L22.3626 14.6192L22.5597 14.5854L22.7568 14.5516L22.4971 13.0376L22.3 13.0714ZM23.4 11.9992L23.2604 11.856L22.1604 12.9282L22.3 13.0714L22.4396 13.2146L23.5396 12.1424L23.4 11.9992ZM21.8798 11.7783L21.8511 11.9762L23.3712 12.1971L23.4 11.9992L23.4288 11.8013L21.9086 11.5804L21.8798 11.7783ZM21.2 10.4008L21.0207 10.4893L21.7005 11.8668L21.8798 11.7783L22.0592 11.6898L21.3793 10.3123L21.2 10.4008ZM20.5202 11.7783L20.6995 11.8668L21.3793 10.4893L21.2 10.4008L21.0207 10.3123L20.3408 11.6898L20.5202 11.7783ZM19 11.9992L19.0288 12.1971L20.5489 11.9762L20.5202 11.7783L20.4914 11.5804L18.9712 11.8013L19 11.9992ZM20.1 13.0714L20.2396 12.9282L19.1396 11.856L19 11.9992L18.8604 12.1424L19.9604 13.2146L20.1 13.0714ZM23.0898 21.4278L23.2869 21.4617L23.6237 19.4981L23.4266 19.4643L23.2295 19.4305L22.8927 21.394L23.0898 21.4278ZM24.8532 20.5008L24.7601 20.3238L22.9967 21.2508L23.0898 21.4278L23.1829 21.6049L24.9462 20.6778L24.8532 20.5008ZM26.6165 21.4278L26.7096 21.2508L24.9462 20.3238L24.8532 20.5008L24.7601 20.6778L26.5235 21.6049L26.6165 21.4278ZM26.2798 19.4643L26.0826 19.4981L26.4194 21.4617L26.6165 21.4278L26.8136 21.394L26.4769 19.4305L26.2798 19.4643ZM27.7063 18.0737L27.5667 17.9305L26.1402 19.3211L26.2798 19.4643L26.4194 19.6075L27.8459 18.217L27.7063 18.0737ZM25.7348 17.7873L25.7061 17.9852L27.6776 18.2717L27.7063 18.0737L27.7351 17.8758L25.7636 17.5893L25.7348 17.7873ZM24.8532 16.0008L24.6738 16.0893L25.5555 17.8758L25.7348 17.7873L25.9142 17.6988L25.0325 15.9123L24.8532 16.0008ZM23.9715 17.7873L24.1508 17.8758L25.0325 16.0893L24.8532 16.0008L24.6738 15.9123L23.7921 17.6988L23.9715 17.7873ZM22 18.0737L22.0288 18.2717L24.0003 17.9852L23.9715 17.7873L23.9427 17.5893L21.9712 17.8758L22 18.0737ZM23.4266 19.4643L23.5662 19.3211L22.1396 17.9305L22 18.0737L21.8604 18.217L23.287 19.6075L23.4266 19.4643ZM27.0988 13.0684L26.9017 13.0346L26.6423 14.547L26.8394 14.5808L27.0365 14.6146L27.2959 13.1023L27.0988 13.0684ZM26 11.9974L25.8604 12.1406L26.9592 13.2117L27.0988 13.0684L27.2384 12.9252L26.1396 11.8542L26 11.9974ZM27.5185 11.7768L27.4897 11.5788L25.9712 11.7995L26 11.9974L26.0288 12.1953L27.5472 11.9747L27.5185 11.7768ZM28.1976 10.4008L28.0182 10.3123L27.3391 11.6882L27.5185 11.7768L27.6978 11.8653L28.3769 10.4893L28.1976 10.4008ZM28.8766 11.7768L29.056 11.6882L28.3769 10.3123L28.1976 10.4008L28.0182 10.4893L28.6973 11.8653L28.8766 11.7768ZM30.3951 11.9974L30.4239 11.7995L28.9054 11.5788L28.8766 11.7768L28.8479 11.9747L30.3664 12.1953L30.3951 11.9974ZM29.2963 13.0684L29.4359 13.2117L30.5347 12.1406L30.3951 11.9974L30.2555 11.8542L29.1567 12.9252L29.2963 13.0684ZM29.5557 14.5808L29.7528 14.547L29.4935 13.0346L29.2963 13.0684L29.0992 13.1023L29.3586 14.6146L29.5557 14.5808ZM28.1976 13.8668L28.1045 14.0438L29.4627 14.7578L29.5557 14.5808L29.6488 14.4038L28.2906 13.6897L28.1976 13.8668ZM26.8394 14.5808L26.9325 14.7578L28.2906 14.0438L28.1976 13.8668L28.1045 13.6897L26.7463 14.4038L26.8394 14.5808Z" fill="#F7FCFF"/>
</g>
<defs>
<clipPath id="clip0_299_35759">
<rect width="32" height="24" fill="white"/>
</clipPath>
<clipPath id="clip1_299_35759">
<rect width="18" height="14" fill="white"/>
</clipPath>
</defs>
</svg>
