<svg width="32" height="24" viewBox="0 0 32 24" fill="none" xmlns="http://www.w3.org/2000/svg">
<g clip-path="url(#clip0_299_35761)">
<rect width="32" height="24" fill="white"/>
<path fill-rule="evenodd" clip-rule="evenodd" d="M0 0V24H32V0H0Z" fill="#F50101"/>
<mask id="mask0_299_35761" style="mask-type:luminance" maskUnits="userSpaceOnUse" x="0" y="0" width="32" height="24">
<path fill-rule="evenodd" clip-rule="evenodd" d="M0 0V24H32V0H0Z" fill="white"/>
</mask>
<g mask="url(#mask0_299_35761)">
<path fill-rule="evenodd" clip-rule="evenodd" d="M0 0V8H32V0H0Z" fill="#F7FCFF"/>
<path fill-rule="evenodd" clip-rule="evenodd" d="M0 16V24H32V16H0Z" fill="#5EAA22"/>
<rect width="12" height="24" fill="#F50101"/>
<path fill-rule="evenodd" clip-rule="evenodd" d="M10.617 1.98523C10.6635 1.90639 10.7795 1.94114 10.7703 2.0321C10.6974 2.73479 10.4411 4.35816 9.575 6.1073C9.59095 6.08882 9.61411 6.07605 9.64043 6.07605H11.7488C11.7968 6.07607 11.8357 6.11593 11.8357 6.16394V7.48913C11.8357 7.53709 11.7968 7.57603 11.7488 7.57605H9.64043C9.59245 7.57605 9.55358 7.5371 9.55352 7.48913V6.79382H9.28691C9.23641 6.90983 9.148 7.00373 9.03887 7.06726C8.77864 7.48452 8.48323 7.90295 8.14043 8.30749C8.12608 8.3244 8.10994 8.34052 8.09551 8.3573C9.77551 10.1254 11.4184 11.3435 12.1473 11.8495C12.2262 11.9045 12.1765 12.0248 12.0838 11.9999C11.1863 11.753 9.1188 11.0624 7.2918 9.57019C7.04729 9.86756 6.69741 10.0897 6.19121 10.0897C6.17094 10.0897 6.15024 10.0888 6.12969 10.0887C4.335 11.312 2.45239 11.8656 1.7332 12.0438C1.64828 12.0643 1.59725 11.9621 1.66191 11.9032C2.06498 11.5395 2.9408 10.7476 3.86895 9.9071C2.94807 9.72763 2.21334 9.38181 2.2127 8.72644C2.2127 7.62575 5.24241 7.88585 5.69316 7.93054C5.49424 7.67364 5.3125 7.41213 5.14336 7.15124C4.90058 7.14813 4.693 7.00183 4.60234 6.79382H4.33574V7.48913C4.33554 7.53698 4.29671 7.57603 4.24883 7.57605H2.14043C2.09264 7.57592 2.05372 7.53691 2.05352 7.48913V6.16394C2.05352 6.116 2.09252 6.07619 2.14043 6.07605H4.24883C4.29683 6.07607 4.33574 6.11593 4.33574 6.16394V6.19617H4.58477C3.66731 4.44965 3.33258 2.81457 3.22149 2.07703C3.20746 1.98389 3.32734 1.94587 3.37481 2.02722C3.74255 2.6575 4.61274 4.06439 6.00371 5.87097L6.10332 5.06824C6.10639 5.06748 6.64989 4.93286 6.6502 4.49499V3.57898L5.74883 2.83386L6.94121 1.99988L8.07207 2.83386L7.24883 3.57898V4.49499C7.25765 4.5031 7.70494 4.91445 7.84649 5.06824V5.9823C9.34257 4.06592 10.2541 2.60168 10.617 1.98523ZM5.15117 6.07605C4.88105 6.07606 4.66191 6.2932 4.66191 6.56042C4.66206 6.82753 4.88114 7.04381 5.15117 7.04382C5.42113 7.04372 5.64028 6.82747 5.64043 6.56042C5.64043 6.29325 5.42123 6.07615 5.15117 6.07605ZM8.73809 6.07605C8.46795 6.07605 8.24883 6.29319 8.24883 6.56042C8.24884 6.82765 8.46796 7.04382 8.73809 7.04382C9.00817 7.04377 9.22733 6.82761 9.22734 6.56042C9.22734 6.29322 9.00818 6.0761 8.73809 6.07605ZM9.53008 6.19617H9.55352V6.16394C9.55352 6.15625 9.55554 6.14858 9.55742 6.14148C9.54835 6.15965 9.53929 6.17797 9.53008 6.19617Z" fill="#F7FCFF"/>
</g>
</g>
<defs>
<clipPath id="clip0_299_35761">
<rect width="32" height="24" fill="white"/>
</clipPath>
</defs>
</svg>
