<svg width="32" height="24" viewBox="0 0 32 24" fill="none" xmlns="http://www.w3.org/2000/svg">
<g clip-path="url(#clip0_299_35809)">
<rect width="32" height="24" fill="white"/>
<path fill-rule="evenodd" clip-rule="evenodd" d="M8 0H25V24H8V0Z" fill="#F7FCFF"/>
<path fill-rule="evenodd" clip-rule="evenodd" d="M24 0H32V24H24V0Z" fill="#F50101"/>
<path fill-rule="evenodd" clip-rule="evenodd" d="M0 0H8V24H0V0Z" fill="#F50101"/>
<path d="M15.7413 8.74466L15.7748 9.1066C14.7764 9.20758 14.2369 8.71973 14.2369 7.70719C14.2369 6.70248 14.7647 6.16843 15.757 6.16211L15.7591 6.52574C14.9551 6.53086 14.5848 6.90565 14.5848 7.70719C14.5848 8.50091 14.9435 8.82535 15.7413 8.74466Z" fill="#A2BB6A"/>
<path d="M16.1835 8.74466L16.15 9.1066C17.1485 9.20758 17.6879 8.71973 17.6879 7.70719C17.6879 6.70248 17.1601 6.16843 16.1678 6.16211L16.1657 6.52574C16.9697 6.53086 17.34 6.90565 17.34 7.70719C17.34 8.50091 16.9813 8.82535 16.1835 8.74466Z" fill="#A2BB6A"/>
<path fill-rule="evenodd" clip-rule="evenodd" d="M14.6072 16.5749C14.6072 16.3615 15.8099 16.3287 15.9363 16.5749C16.0625 16.8208 15.9363 16.7933 15.9363 17.1228C15.9364 17.4523 16.0156 17.9272 15.4451 17.9275C14.8739 17.9275 14.9916 17.6648 14.1961 17.6648H12.9061V17.1228C12.9125 17.1231 14.852 17.2253 15.1395 17.1228C15.4264 17.02 14.6079 16.7883 14.6072 16.5749ZM16.0926 16.5749C16.219 16.3287 17.4217 16.3615 17.4217 16.5749C17.421 16.7883 16.6025 17.02 16.8895 17.1228C17.1782 17.2254 19.1229 17.1228 19.1229 17.1228V17.6648C19.1229 17.6648 18.6273 17.6648 17.8318 17.6648C17.0367 17.6648 17.1549 17.9275 16.5838 17.9275C16.013 17.9273 16.0925 17.4523 16.0926 17.1228C16.0926 16.7933 15.9664 16.8209 16.0926 16.5749Z" fill="#E31D1C"/>
<path fill-rule="evenodd" clip-rule="evenodd" d="M16.407 17.1741C16.407 17.1741 17.926 17.0232 18.2695 16.4754C18.613 15.9276 19.1853 14.9925 19.3865 14.766C19.5877 14.5396 19.6007 15.0894 19.6007 15.0894C19.6007 15.0894 19.9326 15.5603 19.9326 14.9582C19.9326 14.3562 19.6965 14.7768 19.3865 13.871C19.0764 12.9652 18.902 12.0767 18.9892 11.9422C19.0764 11.8077 19.2829 12.0767 19.2829 11.9422C19.2829 11.8077 19.2829 11.5445 19.2829 11.5445L19.6007 11.9422L19.9326 11.8162C19.9326 11.8162 20.2059 12.4014 20.3742 12.5826C20.5425 12.7637 20.641 12.3399 20.5918 11.9422C20.5425 11.5445 19.9326 11.5445 19.9326 11.5445C19.9326 11.5445 19.1526 11.124 19.1526 10.9478C19.1526 10.7716 19.4898 10.8241 19.4898 10.8241L19.3865 10.2785C19.3865 10.2785 19.6652 10.6099 19.7989 10.4442C19.9326 10.2785 19.6007 9.98775 19.6007 9.98775H20.1299V9.73224L20.3742 9.86899L20.1299 9.31104C20.1299 9.31104 19.4133 9.41894 19.2829 9.31104C19.1526 9.20313 18.7422 8.78252 18.7422 8.78252V8.58285H18.5057L18.7422 8.18234V7.54457L19.6007 7.71572V7.24414C19.6007 7.24414 20.8093 7.8333 20.5918 8.30791C20.3742 8.78252 20.3742 9.31104 20.3742 9.31104V9.73224C20.3742 9.73224 20.4104 9.6033 20.5918 9.6033C20.7731 9.6033 20.9794 9.697 20.9794 9.98775C20.9794 10.2785 21.3487 9.86899 21.3487 9.86899V11.0786C21.3487 11.0786 21.4355 11.2094 21.6253 11.0786C21.8151 10.9478 21.7319 11.0498 21.1618 11.8162C20.5918 12.5826 20.7971 12.5846 20.9794 12.3969C21.1618 12.2091 21.9019 11.6753 21.6253 11.9422C21.3487 12.2091 21.3304 12.7683 21.6253 12.5826C21.9202 12.3969 21.8632 12.2647 21.8632 12.5826C21.8632 12.9004 21.3442 13.9823 21.1618 14.1517C20.9794 14.3212 20.8093 14.4254 20.5918 14.5957C20.3742 14.766 20.1299 14.9673 20.1299 15.0894C20.1299 15.2116 20.5918 14.9582 20.5918 14.9582L20.3742 15.7348H20.797C20.797 15.7348 20.4605 16.766 19.7989 16.766C19.1374 16.766 18.6387 16.766 18.5057 16.766C18.3728 16.766 17.7722 17.0493 17.7722 17.0493L17.3328 17.1741C17.3328 17.1741 18.0333 17.241 18.2695 17.4514C18.5057 17.6617 18.2695 17.8084 18.2695 17.8084C18.2695 17.8084 17.6212 17.7441 17.1372 17.5977C16.6532 17.4514 16.407 17.7287 16.407 17.4514C16.407 17.1741 16.407 17.1741 16.407 17.1741Z" fill="#00A854"/>
<path d="M20.7829 14.7266C20.8788 14.7267 20.9566 14.808 20.9567 14.9082C20.9567 15.0085 20.8788 15.0897 20.7829 15.0898C20.6868 15.0898 20.6091 15.0086 20.6091 14.9082C20.6092 14.8079 20.6869 14.7266 20.7829 14.7266ZM21.1306 14.3633C21.2265 14.3634 21.3044 14.4446 21.3044 14.5449C21.3043 14.6452 21.2265 14.7265 21.1306 14.7266C21.0346 14.7266 20.9568 14.6453 20.9567 14.5449C20.9567 14.4445 21.0345 14.3633 21.1306 14.3633ZM19.5651 14.1807C19.6612 14.1807 19.739 14.2629 19.739 14.3633C19.7388 14.4635 19.6611 14.5449 19.5651 14.5449C19.4692 14.5449 19.3915 14.4635 19.3913 14.3633C19.3913 14.2629 19.4691 14.1807 19.5651 14.1807ZM20.2604 11.999C20.3563 11.999 20.435 12.0805 20.4352 12.1807C20.4352 12.2811 20.3565 12.3633 20.2604 12.3633C20.1646 12.363 20.0866 12.2809 20.0866 12.1807C20.0868 12.0806 20.1647 11.9993 20.2604 11.999ZM20.9567 11.8174C21.0526 11.8175 21.1304 11.8988 21.1306 11.999C21.1306 12.0994 21.0527 12.1805 20.9567 12.1807C20.8607 12.1807 20.7829 12.0994 20.7829 11.999C20.783 11.8987 20.8608 11.8174 20.9567 11.8174ZM19.739 9.4541C19.835 9.4541 19.9128 9.53533 19.9128 9.63574C19.9127 9.73612 19.835 9.81738 19.739 9.81738C19.643 9.81729 19.5652 9.73606 19.5651 9.63574C19.5651 9.53539 19.643 9.4542 19.739 9.4541ZM20.7829 9.08984C20.8788 9.09001 20.9567 9.17215 20.9567 9.27246C20.9565 9.37257 20.8787 9.45393 20.7829 9.4541C20.687 9.4541 20.6093 9.37267 20.6091 9.27246C20.6091 9.17205 20.6868 9.08984 20.7829 9.08984ZM20.6091 8.72656C20.7049 8.72678 20.7828 8.808 20.7829 8.9082C20.7829 9.00849 20.7049 9.08963 20.6091 9.08984C20.513 9.08984 20.4352 9.00862 20.4352 8.9082C20.4353 8.80787 20.5131 8.72656 20.6091 8.72656Z" fill="#C51918"/>
<path fill-rule="evenodd" clip-rule="evenodd" d="M15.6855 16.8535C15.6855 16.8535 12.9219 16.3073 12.7707 15.2501C12.6196 14.1929 12.6217 13.0673 12.6217 13.0673L12.3654 13.7552C12.3654 13.7552 12.3525 12.8188 12.8781 12.1509C13.4038 11.4829 12.2211 12.5934 12.2211 12.5934C12.2211 12.5934 12.8199 11.6492 13.0692 11.5593C13.3186 11.4694 12.0675 12.1509 12.0675 12.1509C12.0675 12.1509 12.4259 11.3585 12.7045 11.1344C12.9831 10.9103 12.0675 11.5593 12.0675 11.5593C12.0675 11.5593 12.2746 10.7734 12.5224 10.586C12.7702 10.3985 11.7127 11.5593 11.7127 11.5593C11.7127 11.5593 12.2706 9.76364 12.5849 9.59606C12.8992 9.42849 12.0675 9.92529 12.0675 9.92529C12.0675 9.92529 12.5769 9.1573 13.0333 8.77552C13.4896 8.39374 12.2085 8.93832 12.3654 8.93832C12.3654 8.93832 12.8287 8.41515 13.0949 8.26748C13.361 8.11981 12.0675 8.77552 12.0675 8.77552C12.0675 8.77552 12.996 7.75085 13.2744 7.6C13.5527 7.44914 11.9079 8.41373 11.9079 8.41373C11.9079 8.41373 12.004 7.96692 12.0455 7.6476C12.0869 7.32828 11.2834 8.52274 11.3925 9.59606C11.5016 10.6694 10.9554 8.77552 10.9554 8.77552C10.9554 8.77552 10.7356 9.18668 11.2696 10.2636L10.6908 9.45255C10.6908 9.45255 10.77 10.1886 10.9554 10.586C11.1408 10.9833 10.4291 9.92529 10.4291 9.92529C10.4291 9.92529 10.2929 10.586 10.4291 10.586C10.4291 10.586 11.2418 11.6718 11.2719 11.9883C11.3021 12.3049 10.3592 10.858 10.233 10.858C10.1068 10.858 10.0369 11.3227 10.233 11.3227C10.4291 11.3227 10.8005 11.9883 10.8005 11.9883C10.8005 11.9883 10.3178 11.6395 10.2143 11.6188C10.1108 11.5982 10.2955 11.8258 10.4291 11.9883C10.4291 11.9883 10.0515 12.2962 10.0802 12.5295C10.1088 12.7627 11.1094 12.8121 11.5454 13.9193C11.5454 13.9193 10.6439 13.4426 10.4291 13.4426C10.2143 13.4426 10.775 13.9403 10.9554 14.1046C11.1358 14.2689 10.6774 13.9403 10.5532 14.1046C10.4291 14.2689 11.2397 14.9707 11.3925 14.9707C11.5454 14.9707 10.8005 14.9707 10.8005 14.9707C10.8005 14.9707 10.9985 15.2501 11.2719 15.2501C11.5454 15.2501 12.5224 15.6892 12.5224 15.8315C12.5224 15.9737 11.6982 15.6494 11.5454 15.6494C11.3925 15.6494 12.6215 16.8092 13.2744 16.8535C13.9273 16.8977 14.3399 17.073 14.6214 17.073C14.9029 17.073 15.1007 17.073 15.1007 17.073L13.7709 17.7506C13.7709 17.7506 13.6366 17.7506 14.2135 17.7506C14.7905 17.7506 15.2317 17.9109 15.4586 17.5794C15.6855 17.248 15.6855 16.8535 15.6855 16.8535Z" fill="#00A854"/>
<mask id="path-10-outside-1_299_35809" maskUnits="userSpaceOnUse" x="11.1769" y="6.88086" width="9" height="11" fill="black">
<rect fill="white" x="11.1769" y="6.88086" width="9" height="11"/>
<path fill-rule="evenodd" clip-rule="evenodd" d="M16.0867 8.9048C16.1134 8.88972 16.1282 8.88086 16.1282 8.88086V8.92799C16.3207 9.0342 16.8055 9.28308 17.1207 9.28308C17.5213 9.28308 18.066 8.88086 18.066 8.88086L18.9773 10.1676C18.9773 10.1676 18.3635 11.4539 18.8331 13.0257C19.3027 14.5975 18.8083 15.8095 16.72 15.9441C16.72 15.9441 16.3085 16.0222 16.1282 16.1469V16.262C16.1282 16.2333 16.1128 16.2061 16.0867 16.1805C16.0606 16.2061 16.0453 16.2333 16.0453 16.262V16.1469C15.865 16.0222 15.4535 15.9441 15.4535 15.9441C13.3652 15.8095 12.8707 14.5975 13.3403 13.0257C13.8099 11.4539 13.1962 10.1676 13.1962 10.1676L14.1075 8.88086C14.1075 8.88086 14.6521 9.28308 15.0528 9.28308C15.368 9.28308 15.8527 9.0342 16.0453 8.92799V8.88086C16.0453 8.88086 16.0601 8.88972 16.0867 8.9048Z"/>
</mask>
<path fill-rule="evenodd" clip-rule="evenodd" d="M16.0867 8.9048C16.1134 8.88972 16.1282 8.88086 16.1282 8.88086V8.92799C16.3207 9.0342 16.8055 9.28308 17.1207 9.28308C17.5213 9.28308 18.066 8.88086 18.066 8.88086L18.9773 10.1676C18.9773 10.1676 18.3635 11.4539 18.8331 13.0257C19.3027 14.5975 18.8083 15.8095 16.72 15.9441C16.72 15.9441 16.3085 16.0222 16.1282 16.1469V16.262C16.1282 16.2333 16.1128 16.2061 16.0867 16.1805C16.0606 16.2061 16.0453 16.2333 16.0453 16.262V16.1469C15.865 16.0222 15.4535 15.9441 15.4535 15.9441C13.3652 15.8095 12.8707 14.5975 13.3403 13.0257C13.8099 11.4539 13.1962 10.1676 13.1962 10.1676L14.1075 8.88086C14.1075 8.88086 14.6521 9.28308 15.0528 9.28308C15.368 9.28308 15.8527 9.0342 16.0453 8.92799V8.88086C16.0453 8.88086 16.0601 8.88972 16.0867 8.9048Z" fill="#E8AA00"/>
<path d="M16.1282 8.88086H17.1282V7.1205L15.6162 8.02191L16.1282 8.88086ZM16.0867 8.9048L15.5936 9.77477L16.0867 10.0543L16.5799 9.77477L16.0867 8.9048ZM16.1282 8.92799H15.1282V9.51837L15.6451 9.80357L16.1282 8.92799ZM18.066 8.88086L18.882 8.3029L18.2925 7.47044L17.4719 8.07645L18.066 8.88086ZM18.9773 10.1676L19.8798 10.5982L20.1325 10.0686L19.7933 9.58964L18.9773 10.1676ZM18.8331 13.0257L17.875 13.312V13.312L18.8331 13.0257ZM16.72 15.9441L16.6557 14.9461L16.594 14.9501L16.5333 14.9616L16.72 15.9441ZM16.1282 16.1469L15.5596 15.3242L15.1282 15.6224V16.1469H16.1282ZM16.0867 16.1805L16.787 15.4666L16.0867 14.7798L15.3865 15.4666L16.0867 16.1805ZM16.0453 16.1469H17.0453V15.6224L16.6138 15.3242L16.0453 16.1469ZM15.4535 15.9441L15.6402 14.9616L15.5795 14.9501L15.5178 14.9461L15.4535 15.9441ZM13.1962 10.1676L12.3802 9.58964L12.041 10.0686L12.2937 10.5982L13.1962 10.1676ZM14.1075 8.88086L14.7016 8.07645L13.881 7.47044L13.2914 8.3029L14.1075 8.88086ZM16.0453 8.92799L16.5283 9.80357L17.0453 9.51837V8.92799H16.0453ZM16.0453 8.88086L16.5573 8.02191L15.0453 7.1205V8.88086H16.0453ZM16.1282 8.88086C15.6162 8.02191 15.6162 8.0219 15.6162 8.02189C15.6162 8.02189 15.6162 8.02188 15.6162 8.02187C15.6162 8.02186 15.6163 8.02185 15.6163 8.02183C15.6163 8.02181 15.6164 8.02178 15.6164 8.02176C15.6165 8.02171 15.6166 8.02167 15.6166 8.02162C15.6168 8.02154 15.6169 8.02146 15.617 8.02139C15.6173 8.02125 15.6174 8.02114 15.6176 8.02106C15.6178 8.02091 15.6179 8.02089 15.6177 8.02099C15.6174 8.02118 15.6162 8.02187 15.6143 8.023C15.6104 8.02528 15.6034 8.02933 15.5936 8.03484L16.0867 8.9048L16.5799 9.77477C16.5967 9.76519 16.6105 9.75727 16.6207 9.75134C16.6257 9.74838 16.63 9.74591 16.6332 9.74397C16.6349 9.74301 16.6363 9.74217 16.6375 9.74148C16.6381 9.74113 16.6386 9.74081 16.6391 9.74054C16.6393 9.7404 16.6395 9.74027 16.6397 9.74015C16.6398 9.74009 16.6399 9.74003 16.64 9.73997C16.64 9.73994 16.6401 9.73992 16.6401 9.73989C16.6402 9.73987 16.6402 9.73986 16.6402 9.73985C16.6402 9.73984 16.6402 9.73983 16.6402 9.73983C16.6403 9.73982 16.6403 9.73981 16.1282 8.88086ZM16.1282 8.92799H17.1282V8.88086H16.1282H15.1282V8.92799H16.1282ZM16.1282 8.92799L15.6451 9.80357C15.7586 9.86618 15.9654 9.97508 16.2 10.071C16.4027 10.1539 16.756 10.2831 17.1207 10.2831V9.28308V8.28308C17.1625 8.28308 17.1667 8.2896 17.1198 8.27695C17.079 8.26596 17.0238 8.24711 16.9569 8.21975C16.8222 8.16466 16.6903 8.09601 16.6113 8.0524L16.1282 8.92799ZM17.1207 9.28308V10.2831C17.5885 10.2831 18.0148 10.072 18.2187 9.96191C18.3434 9.89455 18.4494 9.82837 18.5242 9.77914C18.5621 9.75421 18.5932 9.73282 18.6162 9.71674C18.6276 9.70868 18.6372 9.70189 18.6445 9.69659C18.6482 9.69393 18.6513 9.69165 18.6539 9.68975C18.6552 9.68881 18.6564 9.68796 18.6574 9.68721C18.6579 9.68683 18.6584 9.68649 18.6588 9.68616C18.659 9.686 18.6593 9.68584 18.6595 9.6857C18.6596 9.68562 18.6597 9.68551 18.6598 9.68548C18.6599 9.68537 18.66 9.68527 18.066 8.88086C17.4719 8.07645 17.472 8.07635 17.4722 8.07625C17.4722 8.07622 17.4723 8.07612 17.4724 8.07606C17.4726 8.07594 17.4727 8.07582 17.4729 8.0757C17.4732 8.07548 17.4735 8.07527 17.4737 8.07509C17.4742 8.07473 17.4746 8.07446 17.4749 8.07427C17.4754 8.0739 17.4754 8.07387 17.475 8.07417C17.4742 8.07476 17.4716 8.07661 17.4674 8.07955C17.459 8.08546 17.4444 8.0955 17.425 8.10828C17.3852 8.13446 17.33 8.16883 17.2685 8.20203C17.205 8.2363 17.149 8.26166 17.1061 8.27669C17.0561 8.29426 17.0656 8.28308 17.1207 8.28308V9.28308ZM18.066 8.88086L17.2499 9.45881L18.1612 10.7456L18.9773 10.1676L19.7933 9.58964L18.882 8.3029L18.066 8.88086ZM18.9773 10.1676C18.0747 9.73698 18.0746 9.73732 18.0744 9.73767C18.0743 9.7378 18.0742 9.73815 18.074 9.7384C18.0738 9.73889 18.0736 9.73941 18.0733 9.73995C18.0728 9.74102 18.0723 9.74218 18.0717 9.74342C18.0705 9.74589 18.0692 9.7487 18.0678 9.75183C18.0649 9.7581 18.0614 9.76567 18.0575 9.77452C18.0495 9.79222 18.0396 9.81505 18.0281 9.84276C18.0052 9.89813 17.9758 9.97333 17.9436 10.0663C17.8795 10.2517 17.8032 10.511 17.7454 10.8273C17.6301 11.4578 17.584 12.3381 17.875 13.312L18.8331 13.0257L19.7913 12.7394C19.6126 12.1415 19.6386 11.5927 19.7128 11.1871C19.7497 10.9854 19.7975 10.8249 19.8338 10.72C19.8518 10.6678 19.8667 10.6302 19.8755 10.6091C19.8798 10.5986 19.8826 10.5922 19.8835 10.5903C19.8839 10.5894 19.8839 10.5895 19.8833 10.5908C19.883 10.5915 19.8825 10.5924 19.882 10.5937C19.8817 10.5943 19.8813 10.595 19.881 10.5957C19.8808 10.5961 19.8806 10.5965 19.8804 10.5969C19.8803 10.5971 19.8802 10.5974 19.8801 10.5975C19.8799 10.5979 19.8798 10.5982 18.9773 10.1676ZM18.8331 13.0257L17.875 13.312C18.0725 13.9732 17.9937 14.3261 17.8902 14.49C17.8039 14.6267 17.5346 14.8895 16.6557 14.9461L16.72 15.9441L16.7843 16.942C17.9936 16.8641 19.0157 16.4536 19.5813 15.5577C20.1298 14.689 20.0633 13.6501 19.7913 12.7394L18.8331 13.0257ZM16.72 15.9441C16.5333 14.9616 16.5332 14.9617 16.5331 14.9617C16.533 14.9617 16.5329 14.9617 16.5329 14.9617C16.5327 14.9617 16.5326 14.9618 16.5324 14.9618C16.5321 14.9619 16.5317 14.9619 16.5313 14.962C16.5306 14.9622 16.5297 14.9623 16.5288 14.9625C16.5269 14.9629 16.5245 14.9633 16.5218 14.9639C16.5164 14.9649 16.5093 14.9663 16.5009 14.9681C16.4841 14.9715 16.4614 14.9763 16.4342 14.9824C16.3805 14.9945 16.3057 15.0123 16.222 15.0358C16.0966 15.0709 15.8012 15.1572 15.5596 15.3242L16.1282 16.1469L16.6968 16.9695C16.6492 17.0024 16.6264 17.0073 16.6591 16.9946C16.6829 16.9854 16.7181 16.9738 16.7614 16.9617C16.8031 16.95 16.8425 16.9405 16.8716 16.934C16.8857 16.9308 16.8966 16.9286 16.903 16.9272C16.9061 16.9266 16.9081 16.9262 16.9088 16.9261C16.9091 16.926 16.9091 16.926 16.9088 16.9261C16.9086 16.9261 16.9083 16.9262 16.908 16.9262C16.9078 16.9263 16.9076 16.9263 16.9074 16.9263C16.9073 16.9264 16.9072 16.9264 16.907 16.9264C16.907 16.9264 16.9069 16.9264 16.9068 16.9264C16.9067 16.9265 16.9066 16.9265 16.72 15.9441ZM16.1282 16.262H17.1282V16.1469H16.1282H15.1282V16.262H16.1282ZM16.0867 16.1805L15.3865 16.8944C15.3165 16.8258 15.1282 16.6114 15.1282 16.262H16.1282H17.1282C17.1282 15.8552 16.9091 15.5864 16.787 15.4666L16.0867 16.1805ZM16.0867 16.1805L15.3865 15.4666C15.2643 15.5864 15.0453 15.8552 15.0453 16.262H16.0453H17.0453C17.0453 16.6114 16.8569 16.8258 16.787 16.8944L16.0867 16.1805ZM16.0453 16.262H17.0453V16.1469H16.0453H15.0453V16.262H16.0453ZM15.4535 15.9441C15.2668 16.9265 15.2667 16.9265 15.2666 16.9264C15.2666 16.9264 15.2665 16.9264 15.2664 16.9264C15.2663 16.9264 15.2662 16.9264 15.2661 16.9263C15.2659 16.9263 15.2657 16.9263 15.2655 16.9262C15.2651 16.9262 15.2649 16.9261 15.2647 16.9261C15.2643 16.926 15.2643 16.926 15.2647 16.9261C15.2653 16.9262 15.2673 16.9266 15.2705 16.9272C15.2769 16.9286 15.2877 16.9308 15.3019 16.934C15.331 16.9405 15.3704 16.95 15.4121 16.9617C15.4554 16.9738 15.4906 16.9854 15.5144 16.9946C15.547 17.0073 15.5243 17.0024 15.4767 16.9695L16.0453 16.1469L16.6138 15.3242C16.3722 15.1572 16.0769 15.0709 15.9515 15.0358C15.8677 15.0123 15.793 14.9945 15.7393 14.9824C15.7121 14.9763 15.6894 14.9715 15.6726 14.9681C15.6641 14.9663 15.6571 14.9649 15.6517 14.9639C15.649 14.9633 15.6466 14.9629 15.6447 14.9625C15.6437 14.9623 15.6429 14.9622 15.6421 14.962C15.6418 14.9619 15.6414 14.9619 15.6411 14.9618C15.6409 14.9618 15.6408 14.9617 15.6406 14.9617C15.6405 14.9617 15.6404 14.9617 15.6404 14.9617C15.6403 14.9617 15.6402 14.9616 15.4535 15.9441ZM13.3403 13.0257L12.3822 12.7394C12.1101 13.6501 12.0437 14.689 12.5921 15.5577C13.1577 16.4536 14.1799 16.8641 15.3892 16.942L15.4535 15.9441L15.5178 14.9461C14.6388 14.8895 14.3696 14.6267 14.2833 14.49C14.1798 14.3261 14.101 13.9732 14.2985 13.312L13.3403 13.0257ZM13.1962 10.1676C12.2937 10.5982 12.2935 10.5979 12.2934 10.5975C12.2933 10.5974 12.2932 10.5971 12.2931 10.5969C12.2929 10.5965 12.2927 10.5961 12.2925 10.5957C12.2921 10.595 12.2918 10.5943 12.2915 10.5937C12.291 10.5924 12.2905 10.5915 12.2902 10.5908C12.2896 10.5895 12.2895 10.5894 12.29 10.5903C12.2908 10.5922 12.2936 10.5986 12.298 10.6091C12.3068 10.6302 12.3217 10.6678 12.3397 10.72C12.376 10.8249 12.4238 10.9854 12.4607 11.1871C12.5349 11.5927 12.5608 12.1415 12.3822 12.7394L13.3403 13.0257L14.2985 13.312C14.5895 12.3381 14.5434 11.4578 14.4281 10.8273C14.3702 10.511 14.294 10.2517 14.2299 10.0663C14.1977 9.97333 14.1683 9.89813 14.1454 9.84276C14.1339 9.81505 14.1239 9.79222 14.116 9.77452C14.1121 9.76567 14.1086 9.7581 14.1057 9.75183C14.1043 9.7487 14.103 9.74589 14.1018 9.74342C14.1012 9.74218 14.1007 9.74102 14.1002 9.73995C14.0999 9.73941 14.0997 9.73889 14.0994 9.7384C14.0993 9.73815 14.0991 9.7378 14.0991 9.73767C14.0989 9.73732 14.0988 9.73698 13.1962 10.1676ZM14.1075 8.88086L13.2914 8.3029L12.3802 9.58964L13.1962 10.1676L14.0123 10.7456L14.9236 9.45881L14.1075 8.88086ZM15.0528 9.28308V8.28308C15.1078 8.28308 15.1174 8.29426 15.0673 8.27669C15.0245 8.26166 14.9685 8.2363 14.905 8.20203C14.8435 8.16883 14.7883 8.13446 14.7485 8.10828C14.729 8.0955 14.7145 8.08546 14.7061 8.07955C14.7019 8.07661 14.6993 8.07476 14.6985 8.07417C14.6981 8.07387 14.6981 8.0739 14.6986 8.07427C14.6989 8.07446 14.6993 8.07473 14.6997 8.07509C14.7 8.07527 14.7003 8.07548 14.7006 8.0757C14.7007 8.07582 14.7009 8.07594 14.7011 8.07606C14.7011 8.07612 14.7013 8.07622 14.7013 8.07625C14.7015 8.07635 14.7016 8.07645 14.1075 8.88086C13.5134 9.68527 13.5136 9.68537 13.5137 9.68548C13.5138 9.68551 13.5139 9.68562 13.514 9.6857C13.5142 9.68584 13.5144 9.686 13.5146 9.68616C13.5151 9.68649 13.5156 9.68683 13.5161 9.68721C13.5171 9.68796 13.5183 9.68881 13.5195 9.68975C13.5221 9.69165 13.5253 9.69393 13.529 9.69658C13.5363 9.70189 13.5458 9.70868 13.5573 9.71674C13.5803 9.73282 13.6114 9.75421 13.6493 9.77914C13.7241 9.82837 13.8301 9.89455 13.9548 9.96191C14.1587 10.072 14.5849 10.2831 15.0528 10.2831V9.28308ZM16.0453 8.92799L15.5622 8.0524C15.4832 8.09601 15.3513 8.16466 15.2166 8.21975C15.1497 8.24711 15.0945 8.26596 15.0537 8.27695C15.0068 8.2896 15.011 8.28308 15.0528 8.28308V9.28308V10.2831C15.4175 10.2831 15.7708 10.1539 15.9735 10.071C16.2081 9.97508 16.4149 9.86618 16.5283 9.80357L16.0453 8.92799ZM16.0453 8.92799H17.0453V8.88086H16.0453H15.0453V8.92799H16.0453ZM16.0453 8.88086C15.5332 9.73981 15.5332 9.73982 15.5332 9.73983C15.5332 9.73983 15.5333 9.73984 15.5333 9.73985C15.5333 9.73986 15.5333 9.73987 15.5333 9.73989C15.5334 9.73992 15.5334 9.73994 15.5335 9.73997C15.5336 9.74003 15.5337 9.74009 15.5338 9.74015C15.534 9.74027 15.5342 9.7404 15.5344 9.74054C15.5349 9.74081 15.5354 9.74113 15.536 9.74148C15.5372 9.74217 15.5386 9.74301 15.5402 9.74397C15.5435 9.74591 15.5477 9.74838 15.5528 9.75134C15.563 9.75727 15.5767 9.76519 15.5936 9.77477L16.0867 8.9048L16.5799 8.03484C16.5701 8.02933 16.5631 8.02528 16.5592 8.023C16.5573 8.02187 16.5561 8.02118 16.5558 8.02099C16.5556 8.02089 16.5556 8.02091 16.5559 8.02106C16.556 8.02114 16.5562 8.02125 16.5565 8.02139C16.5566 8.02146 16.5567 8.02154 16.5568 8.02162C16.5569 8.02167 16.557 8.02171 16.5571 8.02176C16.5571 8.02178 16.5572 8.02181 16.5572 8.02183C16.5572 8.02185 16.5572 8.02186 16.5573 8.02187C16.5573 8.02188 16.5573 8.02189 16.5573 8.02189C16.5573 8.0219 16.5573 8.02191 16.0453 8.88086Z" fill="#E8AA00" mask="url(#path-10-outside-1_299_35809)"/>
<mask id="mask0_299_35809" style="mask-type:luminance" maskUnits="userSpaceOnUse" x="12" y="7" width="9" height="11">
<mask id="path-12-outside-2_299_35809" maskUnits="userSpaceOnUse" x="11.1769" y="6.88086" width="9" height="11" fill="black">
<rect fill="white" x="11.1769" y="6.88086" width="9" height="11"/>
<path fill-rule="evenodd" clip-rule="evenodd" d="M16.0867 8.9048C16.1134 8.88972 16.1282 8.88086 16.1282 8.88086V8.92799C16.3207 9.0342 16.8055 9.28308 17.1207 9.28308C17.5213 9.28308 18.066 8.88086 18.066 8.88086L18.9773 10.1676C18.9773 10.1676 18.3635 11.4539 18.8331 13.0257C19.3027 14.5975 18.8083 15.8095 16.72 15.9441C16.72 15.9441 16.3085 16.0222 16.1282 16.1469V16.262C16.1282 16.2333 16.1128 16.2061 16.0867 16.1805C16.0606 16.2061 16.0453 16.2333 16.0453 16.262V16.1469C15.865 16.0222 15.4535 15.9441 15.4535 15.9441C13.3652 15.8095 12.8707 14.5975 13.3403 13.0257C13.8099 11.4539 13.1962 10.1676 13.1962 10.1676L14.1075 8.88086C14.1075 8.88086 14.6521 9.28308 15.0528 9.28308C15.368 9.28308 15.8527 9.0342 16.0453 8.92799V8.88086C16.0453 8.88086 16.0601 8.88972 16.0867 8.9048Z"/>
</mask>
<path fill-rule="evenodd" clip-rule="evenodd" d="M16.0867 8.9048C16.1134 8.88972 16.1282 8.88086 16.1282 8.88086V8.92799C16.3207 9.0342 16.8055 9.28308 17.1207 9.28308C17.5213 9.28308 18.066 8.88086 18.066 8.88086L18.9773 10.1676C18.9773 10.1676 18.3635 11.4539 18.8331 13.0257C19.3027 14.5975 18.8083 15.8095 16.72 15.9441C16.72 15.9441 16.3085 16.0222 16.1282 16.1469V16.262C16.1282 16.2333 16.1128 16.2061 16.0867 16.1805C16.0606 16.2061 16.0453 16.2333 16.0453 16.262V16.1469C15.865 16.0222 15.4535 15.9441 15.4535 15.9441C13.3652 15.8095 12.8707 14.5975 13.3403 13.0257C13.8099 11.4539 13.1962 10.1676 13.1962 10.1676L14.1075 8.88086C14.1075 8.88086 14.6521 9.28308 15.0528 9.28308C15.368 9.28308 15.8527 9.0342 16.0453 8.92799V8.88086C16.0453 8.88086 16.0601 8.88972 16.0867 8.9048Z" fill="white"/>
<path d="M16.1282 8.88086H17.1282V7.1205L15.6162 8.02191L16.1282 8.88086ZM16.0867 8.9048L15.5936 9.77477L16.0867 10.0543L16.5799 9.77477L16.0867 8.9048ZM16.1282 8.92799H15.1282V9.51837L15.6451 9.80357L16.1282 8.92799ZM18.066 8.88086L18.882 8.3029L18.2925 7.47044L17.4719 8.07645L18.066 8.88086ZM18.9773 10.1676L19.8798 10.5982L20.1325 10.0686L19.7933 9.58964L18.9773 10.1676ZM18.8331 13.0257L17.875 13.312V13.312L18.8331 13.0257ZM16.72 15.9441L16.6557 14.9461L16.594 14.9501L16.5333 14.9616L16.72 15.9441ZM16.1282 16.1469L15.5596 15.3242L15.1282 15.6224V16.1469H16.1282ZM16.0867 16.1805L16.787 15.4666L16.0867 14.7798L15.3865 15.4666L16.0867 16.1805ZM16.0453 16.1469H17.0453V15.6224L16.6138 15.3242L16.0453 16.1469ZM15.4535 15.9441L15.6402 14.9616L15.5795 14.9501L15.5178 14.9461L15.4535 15.9441ZM13.1962 10.1676L12.3802 9.58964L12.041 10.0686L12.2937 10.5982L13.1962 10.1676ZM14.1075 8.88086L14.7016 8.07645L13.881 7.47044L13.2914 8.3029L14.1075 8.88086ZM16.0453 8.92799L16.5283 9.80357L17.0453 9.51837V8.92799H16.0453ZM16.0453 8.88086L16.5573 8.02191L15.0453 7.1205V8.88086H16.0453ZM16.1282 8.88086C15.6162 8.02191 15.6162 8.0219 15.6162 8.02189C15.6162 8.02189 15.6162 8.02188 15.6162 8.02187C15.6162 8.02186 15.6163 8.02185 15.6163 8.02183C15.6163 8.02181 15.6164 8.02178 15.6164 8.02176C15.6165 8.02171 15.6166 8.02167 15.6166 8.02162C15.6168 8.02154 15.6169 8.02146 15.617 8.02139C15.6173 8.02125 15.6174 8.02114 15.6176 8.02106C15.6178 8.02091 15.6179 8.02089 15.6177 8.02099C15.6174 8.02118 15.6162 8.02187 15.6143 8.023C15.6104 8.02528 15.6034 8.02933 15.5936 8.03484L16.0867 8.9048L16.5799 9.77477C16.5967 9.76519 16.6105 9.75727 16.6207 9.75134C16.6257 9.74838 16.63 9.74591 16.6332 9.74397C16.6349 9.74301 16.6363 9.74217 16.6375 9.74148C16.6381 9.74113 16.6386 9.74081 16.6391 9.74054C16.6393 9.7404 16.6395 9.74027 16.6397 9.74015C16.6398 9.74009 16.6399 9.74003 16.64 9.73997C16.64 9.73994 16.6401 9.73992 16.6401 9.73989C16.6402 9.73987 16.6402 9.73986 16.6402 9.73985C16.6402 9.73984 16.6402 9.73983 16.6402 9.73983C16.6403 9.73982 16.6403 9.73981 16.1282 8.88086ZM16.1282 8.92799H17.1282V8.88086H16.1282H15.1282V8.92799H16.1282ZM16.1282 8.92799L15.6451 9.80357C15.7586 9.86618 15.9654 9.97508 16.2 10.071C16.4027 10.1539 16.756 10.2831 17.1207 10.2831V9.28308V8.28308C17.1625 8.28308 17.1667 8.2896 17.1198 8.27695C17.079 8.26596 17.0238 8.24711 16.9569 8.21975C16.8222 8.16466 16.6903 8.09601 16.6113 8.0524L16.1282 8.92799ZM17.1207 9.28308V10.2831C17.5885 10.2831 18.0148 10.072 18.2187 9.96191C18.3434 9.89455 18.4494 9.82837 18.5242 9.77914C18.5621 9.75421 18.5932 9.73282 18.6162 9.71674C18.6276 9.70868 18.6372 9.70189 18.6445 9.69659C18.6482 9.69393 18.6513 9.69165 18.6539 9.68975C18.6552 9.68881 18.6564 9.68796 18.6574 9.68721C18.6579 9.68683 18.6584 9.68649 18.6588 9.68616C18.659 9.686 18.6593 9.68584 18.6595 9.6857C18.6596 9.68562 18.6597 9.68551 18.6598 9.68548C18.6599 9.68537 18.66 9.68527 18.066 8.88086C17.4719 8.07645 17.472 8.07635 17.4722 8.07625C17.4722 8.07622 17.4723 8.07612 17.4724 8.07606C17.4726 8.07594 17.4727 8.07582 17.4729 8.0757C17.4732 8.07548 17.4735 8.07527 17.4737 8.07509C17.4742 8.07473 17.4746 8.07446 17.4749 8.07427C17.4754 8.0739 17.4754 8.07387 17.475 8.07417C17.4742 8.07476 17.4716 8.07661 17.4674 8.07955C17.459 8.08546 17.4444 8.0955 17.425 8.10828C17.3852 8.13446 17.33 8.16883 17.2685 8.20203C17.205 8.2363 17.149 8.26166 17.1061 8.27669C17.0561 8.29426 17.0656 8.28308 17.1207 8.28308V9.28308ZM18.066 8.88086L17.2499 9.45881L18.1612 10.7456L18.9773 10.1676L19.7933 9.58964L18.882 8.3029L18.066 8.88086ZM18.9773 10.1676C18.0747 9.73698 18.0746 9.73732 18.0744 9.73767C18.0743 9.7378 18.0742 9.73815 18.074 9.7384C18.0738 9.73889 18.0736 9.73941 18.0733 9.73995C18.0728 9.74102 18.0723 9.74218 18.0717 9.74342C18.0705 9.74589 18.0692 9.7487 18.0678 9.75183C18.0649 9.7581 18.0614 9.76567 18.0575 9.77452C18.0495 9.79222 18.0396 9.81505 18.0281 9.84276C18.0052 9.89813 17.9758 9.97333 17.9436 10.0663C17.8795 10.2517 17.8032 10.511 17.7454 10.8273C17.6301 11.4578 17.584 12.3381 17.875 13.312L18.8331 13.0257L19.7913 12.7394C19.6126 12.1415 19.6386 11.5927 19.7128 11.1871C19.7497 10.9854 19.7975 10.8249 19.8338 10.72C19.8518 10.6678 19.8667 10.6302 19.8755 10.6091C19.8798 10.5986 19.8826 10.5922 19.8835 10.5903C19.8839 10.5894 19.8839 10.5895 19.8833 10.5908C19.883 10.5915 19.8825 10.5924 19.882 10.5937C19.8817 10.5943 19.8813 10.595 19.881 10.5957C19.8808 10.5961 19.8806 10.5965 19.8804 10.5969C19.8803 10.5971 19.8802 10.5974 19.8801 10.5975C19.8799 10.5979 19.8798 10.5982 18.9773 10.1676ZM18.8331 13.0257L17.875 13.312C18.0725 13.9732 17.9937 14.3261 17.8902 14.49C17.8039 14.6267 17.5346 14.8895 16.6557 14.9461L16.72 15.9441L16.7843 16.942C17.9936 16.8641 19.0157 16.4536 19.5813 15.5577C20.1298 14.689 20.0633 13.6501 19.7913 12.7394L18.8331 13.0257ZM16.72 15.9441C16.5333 14.9616 16.5332 14.9617 16.5331 14.9617C16.533 14.9617 16.5329 14.9617 16.5329 14.9617C16.5327 14.9617 16.5326 14.9618 16.5324 14.9618C16.5321 14.9619 16.5317 14.9619 16.5313 14.962C16.5306 14.9622 16.5297 14.9623 16.5288 14.9625C16.5269 14.9629 16.5245 14.9633 16.5218 14.9639C16.5164 14.9649 16.5093 14.9663 16.5009 14.9681C16.4841 14.9715 16.4614 14.9763 16.4342 14.9824C16.3805 14.9945 16.3057 15.0123 16.222 15.0358C16.0966 15.0709 15.8012 15.1572 15.5596 15.3242L16.1282 16.1469L16.6968 16.9695C16.6492 17.0024 16.6264 17.0073 16.6591 16.9946C16.6829 16.9854 16.7181 16.9738 16.7614 16.9617C16.8031 16.95 16.8425 16.9405 16.8716 16.934C16.8857 16.9308 16.8966 16.9286 16.903 16.9272C16.9061 16.9266 16.9081 16.9262 16.9088 16.9261C16.9091 16.926 16.9091 16.926 16.9088 16.9261C16.9086 16.9261 16.9083 16.9262 16.908 16.9262C16.9078 16.9263 16.9076 16.9263 16.9074 16.9263C16.9073 16.9264 16.9072 16.9264 16.907 16.9264C16.907 16.9264 16.9069 16.9264 16.9068 16.9264C16.9067 16.9265 16.9066 16.9265 16.72 15.9441ZM16.1282 16.262H17.1282V16.1469H16.1282H15.1282V16.262H16.1282ZM16.0867 16.1805L15.3865 16.8944C15.3165 16.8258 15.1282 16.6114 15.1282 16.262H16.1282H17.1282C17.1282 15.8552 16.9091 15.5864 16.787 15.4666L16.0867 16.1805ZM16.0867 16.1805L15.3865 15.4666C15.2643 15.5864 15.0453 15.8552 15.0453 16.262H16.0453H17.0453C17.0453 16.6114 16.8569 16.8258 16.787 16.8944L16.0867 16.1805ZM16.0453 16.262H17.0453V16.1469H16.0453H15.0453V16.262H16.0453ZM15.4535 15.9441C15.2668 16.9265 15.2667 16.9265 15.2666 16.9264C15.2666 16.9264 15.2665 16.9264 15.2664 16.9264C15.2663 16.9264 15.2662 16.9264 15.2661 16.9263C15.2659 16.9263 15.2657 16.9263 15.2655 16.9262C15.2651 16.9262 15.2649 16.9261 15.2647 16.9261C15.2643 16.926 15.2643 16.926 15.2647 16.9261C15.2653 16.9262 15.2673 16.9266 15.2705 16.9272C15.2769 16.9286 15.2877 16.9308 15.3019 16.934C15.331 16.9405 15.3704 16.95 15.4121 16.9617C15.4554 16.9738 15.4906 16.9854 15.5144 16.9946C15.547 17.0073 15.5243 17.0024 15.4767 16.9695L16.0453 16.1469L16.6138 15.3242C16.3722 15.1572 16.0769 15.0709 15.9515 15.0358C15.8677 15.0123 15.793 14.9945 15.7393 14.9824C15.7121 14.9763 15.6894 14.9715 15.6726 14.9681C15.6641 14.9663 15.6571 14.9649 15.6517 14.9639C15.649 14.9633 15.6466 14.9629 15.6447 14.9625C15.6437 14.9623 15.6429 14.9622 15.6421 14.962C15.6418 14.9619 15.6414 14.9619 15.6411 14.9618C15.6409 14.9618 15.6408 14.9617 15.6406 14.9617C15.6405 14.9617 15.6404 14.9617 15.6404 14.9617C15.6403 14.9617 15.6402 14.9616 15.4535 15.9441ZM13.3403 13.0257L12.3822 12.7394C12.1101 13.6501 12.0437 14.689 12.5921 15.5577C13.1577 16.4536 14.1799 16.8641 15.3892 16.942L15.4535 15.9441L15.5178 14.9461C14.6388 14.8895 14.3696 14.6267 14.2833 14.49C14.1798 14.3261 14.101 13.9732 14.2985 13.312L13.3403 13.0257ZM13.1962 10.1676C12.2937 10.5982 12.2935 10.5979 12.2934 10.5975C12.2933 10.5974 12.2932 10.5971 12.2931 10.5969C12.2929 10.5965 12.2927 10.5961 12.2925 10.5957C12.2921 10.595 12.2918 10.5943 12.2915 10.5937C12.291 10.5924 12.2905 10.5915 12.2902 10.5908C12.2896 10.5895 12.2895 10.5894 12.29 10.5903C12.2908 10.5922 12.2936 10.5986 12.298 10.6091C12.3068 10.6302 12.3217 10.6678 12.3397 10.72C12.376 10.8249 12.4238 10.9854 12.4607 11.1871C12.5349 11.5927 12.5608 12.1415 12.3822 12.7394L13.3403 13.0257L14.2985 13.312C14.5895 12.3381 14.5434 11.4578 14.4281 10.8273C14.3702 10.511 14.294 10.2517 14.2299 10.0663C14.1977 9.97333 14.1683 9.89813 14.1454 9.84276C14.1339 9.81505 14.1239 9.79222 14.116 9.77452C14.1121 9.76567 14.1086 9.7581 14.1057 9.75183C14.1043 9.7487 14.103 9.74589 14.1018 9.74342C14.1012 9.74218 14.1007 9.74102 14.1002 9.73995C14.0999 9.73941 14.0997 9.73889 14.0994 9.7384C14.0993 9.73815 14.0991 9.7378 14.0991 9.73767C14.0989 9.73732 14.0988 9.73698 13.1962 10.1676ZM14.1075 8.88086L13.2914 8.3029L12.3802 9.58964L13.1962 10.1676L14.0123 10.7456L14.9236 9.45881L14.1075 8.88086ZM15.0528 9.28308V8.28308C15.1078 8.28308 15.1174 8.29426 15.0673 8.27669C15.0245 8.26166 14.9685 8.2363 14.905 8.20203C14.8435 8.16883 14.7883 8.13446 14.7485 8.10828C14.729 8.0955 14.7145 8.08546 14.7061 8.07955C14.7019 8.07661 14.6993 8.07476 14.6985 8.07417C14.6981 8.07387 14.6981 8.0739 14.6986 8.07427C14.6989 8.07446 14.6993 8.07473 14.6997 8.07509C14.7 8.07527 14.7003 8.07548 14.7006 8.0757C14.7007 8.07582 14.7009 8.07594 14.7011 8.07606C14.7011 8.07612 14.7013 8.07622 14.7013 8.07625C14.7015 8.07635 14.7016 8.07645 14.1075 8.88086C13.5134 9.68527 13.5136 9.68537 13.5137 9.68548C13.5138 9.68551 13.5139 9.68562 13.514 9.6857C13.5142 9.68584 13.5144 9.686 13.5146 9.68616C13.5151 9.68649 13.5156 9.68683 13.5161 9.68721C13.5171 9.68796 13.5183 9.68881 13.5195 9.68975C13.5221 9.69165 13.5253 9.69393 13.529 9.69658C13.5363 9.70189 13.5458 9.70868 13.5573 9.71674C13.5803 9.73282 13.6114 9.75421 13.6493 9.77914C13.7241 9.82837 13.8301 9.89455 13.9548 9.96191C14.1587 10.072 14.5849 10.2831 15.0528 10.2831V9.28308ZM16.0453 8.92799L15.5622 8.0524C15.4832 8.09601 15.3513 8.16466 15.2166 8.21975C15.1497 8.24711 15.0945 8.26596 15.0537 8.27695C15.0068 8.2896 15.011 8.28308 15.0528 8.28308V9.28308V10.2831C15.4175 10.2831 15.7708 10.1539 15.9735 10.071C16.2081 9.97508 16.4149 9.86618 16.5283 9.80357L16.0453 8.92799ZM16.0453 8.92799H17.0453V8.88086H16.0453H15.0453V8.92799H16.0453ZM16.0453 8.88086C15.5332 9.73981 15.5332 9.73982 15.5332 9.73983C15.5332 9.73983 15.5333 9.73984 15.5333 9.73985C15.5333 9.73986 15.5333 9.73987 15.5333 9.73989C15.5334 9.73992 15.5334 9.73994 15.5335 9.73997C15.5336 9.74003 15.5337 9.74009 15.5338 9.74015C15.534 9.74027 15.5342 9.7404 15.5344 9.74054C15.5349 9.74081 15.5354 9.74113 15.536 9.74148C15.5372 9.74217 15.5386 9.74301 15.5402 9.74397C15.5435 9.74591 15.5477 9.74838 15.5528 9.75134C15.563 9.75727 15.5767 9.76519 15.5936 9.77477L16.0867 8.9048L16.5799 8.03484C16.5701 8.02933 16.5631 8.02528 16.5592 8.023C16.5573 8.02187 16.5561 8.02118 16.5558 8.02099C16.5556 8.02089 16.5556 8.02091 16.5559 8.02106C16.556 8.02114 16.5562 8.02125 16.5565 8.02139C16.5566 8.02146 16.5567 8.02154 16.5568 8.02162C16.5569 8.02167 16.557 8.02171 16.5571 8.02176C16.5571 8.02178 16.5572 8.02181 16.5572 8.02183C16.5572 8.02185 16.5572 8.02186 16.5573 8.02187C16.5573 8.02188 16.5573 8.02189 16.5573 8.02189C16.5573 8.0219 16.5573 8.02191 16.0453 8.88086Z" fill="white" mask="url(#path-12-outside-2_299_35809)"/>
</mask>
<g mask="url(#mask0_299_35809)">
<rect x="13.3043" y="8.72656" width="2.78261" height="3.81818" fill="#67BAFF"/>
<rect x="16.0869" y="8.72656" width="2.78261" height="3.81818" fill="white"/>
<rect x="12.9565" y="12.9082" width="6.95652" height="4.36364" fill="#C51918"/>
<path d="M17.4347 12.2749H17.0869V9.66016H17.4347V12.2749Z" fill="#C9A951"/>
<path d="M17.2938 11.0852L17.1242 11.3889L16.5239 11.0537L16.6934 10.75L17.2938 11.0852Z" fill="#C9A951"/>
<path d="M17.2938 10.3567L17.1242 10.6604L16.5239 10.3252L16.6934 10.0215L17.2938 10.3567Z" fill="#C9A951"/>
<path d="M17.2195 11.0852L17.3891 11.3889L17.9894 11.0537L17.8199 10.75L17.2195 11.0852Z" fill="#C9A951"/>
<path d="M17.2195 10.3567L17.3891 10.6604L17.9894 10.3252L17.8199 10.0215L17.2195 10.3567Z" fill="#C9A951"/>
<path fill-rule="evenodd" clip-rule="evenodd" d="M17.7291 13.7044C17.7291 13.7044 17.9711 13.4277 17.9711 13.566C17.9711 13.7044 17.9711 13.937 17.8501 13.937C17.7291 13.937 17.1655 13.8263 16.9508 13.566C16.7361 13.3058 16.2819 12.8526 15.6972 12.9593C15.1125 13.066 14.4191 13.824 14.2481 13.824C14.0772 13.824 13.7026 14.4082 13.9754 14.8645C14.2481 15.3207 14.7122 15.1792 14.7122 15.3115C14.7122 15.4439 14.8282 15.4591 15.2627 15.4591C15.6972 15.4591 15.8561 15.6124 16.2323 15.6124C16.6085 15.6124 16.1081 15.6067 16.714 15.4591C17.3198 15.3115 17.7787 14.8645 17.4257 14.8645C17.0726 14.8645 16.9586 14.8645 16.714 14.8645C16.4694 14.8645 15.925 15.0407 15.925 14.8645C15.925 14.6882 16.0459 14.3108 16.3799 14.4995C16.714 14.6882 17.6422 14.8321 17.9711 14.4995C18.3 14.1669 18.415 13.9664 18.3575 13.566C18.3 13.1657 17.8501 13.2809 17.8501 13.2809L17.7291 13.7044Z" fill="#FBCD17"/>
<path fill-rule="evenodd" clip-rule="evenodd" d="M15.3761 9.56836C15.1664 9.75174 15.3017 10.4219 14.9581 10.4219C14.6146 10.4219 14.1311 9.92008 14.0094 10.2512C13.8876 10.5824 14.0094 10.4711 14.0094 10.7531C14.0094 11.0352 13.7178 11.8189 13.8636 11.9514C14.0094 12.0838 14.1588 12.4329 14.1329 12.2695C14.107 12.1061 13.9968 11.8661 14.0427 11.6054C13.9983 11.3361 14.2884 11.0771 14.2884 11.0771C14.2884 11.0771 14.2569 11.3567 14.2341 11.4609C14.2341 11.4609 14.1384 11.6713 14.1773 11.8111C14.1773 11.8111 14.2755 12.205 14.316 12.2322C14.316 12.2322 14.3423 11.2995 14.3722 11.1458C14.4021 10.9921 14.6153 11.3192 14.6863 11.2821C14.6863 11.2821 14.7106 11.9199 14.6737 11.9959C14.6737 11.9959 14.599 12.1468 14.6268 12.195C14.6268 12.195 14.6961 12.3696 14.7553 12.3187C14.7553 12.3187 14.7574 12.3151 14.7874 12.1451C14.7874 12.1451 14.7525 12.0425 14.8071 11.8088C14.8071 11.8088 14.8645 11.2943 14.8883 11.406C14.8883 11.406 14.8776 11.6489 14.905 11.7741C14.905 11.7741 14.9488 12.0849 14.9576 12.1191C14.9576 12.1191 15.1675 12.418 15.1731 12.2918C15.1731 12.2918 14.9719 12.0518 15.015 11.8693C15.015 11.8693 14.8998 11.352 15.0606 11.2367C15.0606 11.2367 15.4872 11.0394 15.5128 10.7016C15.5128 10.7016 15.5746 10.3166 15.5857 10.1402C15.5857 10.1402 15.4922 10.0883 15.6856 9.99718C15.6856 9.99718 15.997 9.87765 15.803 9.71145" fill="#D18219"/>
</g>
</g>
<defs>
<clipPath id="clip0_299_35809">
<rect width="32" height="24" fill="white"/>
</clipPath>
</defs>
</svg>
