<svg width="32" height="24" viewBox="0 0 32 24" fill="none" xmlns="http://www.w3.org/2000/svg">
<g clip-path="url(#clip0_299_35811)">
<rect width="32" height="24" fill="white"/>
<path fill-rule="evenodd" clip-rule="evenodd" d="M0 0V24H32V0H0Z" fill="#F7FCFF"/>
<mask id="mask0_299_35811" style="mask-type:luminance" maskUnits="userSpaceOnUse" x="0" y="0" width="32" height="24">
<path fill-rule="evenodd" clip-rule="evenodd" d="M0 0V24H32V0H0Z" fill="white"/>
</mask>
<g mask="url(#mask0_299_35811)">
<path fill-rule="evenodd" clip-rule="evenodd" d="M0 0V6H32V0H0Z" fill="#BF2714"/>
<path fill-rule="evenodd" clip-rule="evenodd" d="M0 18V24H32V18H0Z" fill="#BF2714"/>
<mask id="mask1_299_35811" style="mask-type:luminance" maskUnits="userSpaceOnUse" x="10" y="6" width="12" height="12">
<path fill-rule="evenodd" clip-rule="evenodd" d="M16 18C19.3137 18 22 15.3137 22 12C22 8.68629 19.3137 6 16 6C12.6863 6 10 8.68629 10 12C10 15.3137 12.6863 18 16 18Z" fill="white"/>
</mask>
<g mask="url(#mask1_299_35811)">
<path fill-rule="evenodd" clip-rule="evenodd" d="M10.5486 13.7654C10.4939 13.5939 10.6791 13.4451 10.8348 13.5354L11.2085 13.7523C11.2642 13.7846 11.3322 13.7876 11.3906 13.7603L12.3131 13.3283C12.3777 13.2981 12.4537 13.3052 12.5116 13.347L13.5081 14.0662L14.8856 13.3246C14.9386 13.296 15.0019 13.2933 15.0572 13.3173L16.0946 13.768C16.1471 13.7908 16.2068 13.7896 16.2583 13.7648L17.189 13.3168C17.2387 13.2929 17.2961 13.2909 17.3473 13.3114L18.4988 13.7713C18.5506 13.792 18.6089 13.7897 18.659 13.765L19.5509 13.3237C19.6073 13.2958 19.6736 13.2966 19.7294 13.3258L20.5475 13.7542C20.6067 13.7852 20.6776 13.784 20.7357 13.7511L21.1611 13.51C21.3128 13.4241 21.493 13.5633 21.4482 13.7317L21.3594 14.0662H10.6447L10.5486 13.7654Z" fill="#5277B9"/>
<path fill-rule="evenodd" clip-rule="evenodd" d="M10.5449 14.9506C10.4917 14.7781 10.6796 14.6311 10.8343 14.7241L11.1742 14.9286C11.2312 14.9629 11.3017 14.9661 11.3615 14.937L12.2388 14.5113C12.305 14.4792 12.3836 14.4867 12.4425 14.5308L13.3984 15.2459L14.7221 14.5072C14.7765 14.4769 14.842 14.4741 14.8987 14.4996L15.8885 14.9453C15.9423 14.9695 16.0042 14.9683 16.0571 14.9419L16.9447 14.499C16.9957 14.4736 17.0552 14.4715 17.1078 14.4933L18.208 14.9488C18.2613 14.9709 18.3216 14.9684 18.373 14.9421L19.2227 14.5063C19.2805 14.4767 19.3492 14.4775 19.4063 14.5085L20.1839 14.9306C20.2445 14.9635 20.3179 14.9622 20.3774 14.9273L20.7675 14.6983C20.9183 14.6097 21.1011 14.7473 21.0577 14.9168L20.9733 15.2459H10.6358L10.5449 14.9506Z" fill="#5277B9"/>
<path fill-rule="evenodd" clip-rule="evenodd" d="M10.7416 15.7377C10.6884 15.5652 10.8763 15.4182 11.031 15.5112L11.371 15.7157C11.428 15.75 11.4984 15.7532 11.5582 15.7241L12.4355 15.2984C12.5017 15.2663 12.5803 15.2738 12.6392 15.3179L13.5952 16.033L14.9188 15.2943C14.9732 15.264 15.0387 15.2612 15.0954 15.2867L16.0852 15.7324C16.1391 15.7566 16.2009 15.7554 16.2538 15.729L17.1415 15.2861C17.1924 15.2607 17.2519 15.2586 17.3045 15.2804L18.4047 15.7359C18.458 15.758 18.5184 15.7555 18.5697 15.7292L19.4194 15.2935C19.4772 15.2638 19.5459 15.2646 19.603 15.2956L20.3807 15.7177C20.4413 15.7506 20.5147 15.7493 20.5741 15.7144L20.9642 15.4854C21.1151 15.3968 21.2978 15.5344 21.2544 15.7039L21.17 16.033H10.8325L10.7416 15.7377Z" fill="#5277B9"/>
<path fill-rule="evenodd" clip-rule="evenodd" d="M11.9219 16.5248C11.8688 16.3523 12.0566 16.2053 12.2113 16.2984L12.5513 16.5028C12.6083 16.5371 12.6788 16.5403 12.7386 16.5112L13.6158 16.0855C13.682 16.0534 13.7606 16.0609 13.8196 16.105L14.7755 16.8201L16.0992 16.0814C16.1535 16.0511 16.219 16.0483 16.2758 16.0738L17.2656 16.5195C17.3194 16.5437 17.3813 16.5425 17.4342 16.5161L18.3218 16.0732C18.3728 16.0478 18.4323 16.0457 18.4849 16.0675L19.5851 16.523C19.6384 16.5451 19.6987 16.5426 19.7501 16.5163L20.5998 16.0806C20.6576 16.0509 20.7263 16.0517 20.7834 16.0827L21.561 16.5048C21.6216 16.5377 21.695 16.5365 21.7545 16.5015L22.1446 16.2725C22.2954 16.1839 22.4782 16.3215 22.4347 16.491L22.3503 16.8201H12.0129L11.9219 16.5248Z" fill="#5277B9"/>
<path fill-rule="evenodd" clip-rule="evenodd" d="M10.3481 17.5092C10.295 17.3367 10.4829 17.1897 10.6375 17.2827L10.9775 17.4872C11.0345 17.5215 11.105 17.5247 11.1648 17.4956L12.042 17.0699C12.1082 17.0378 12.1868 17.0453 12.2458 17.0893L13.2017 17.8045L14.5254 17.0658C14.5797 17.0355 14.6453 17.0326 14.702 17.0582L15.6918 17.5039C15.7456 17.5281 15.8075 17.5269 15.8604 17.5005L16.748 17.0576C16.799 17.0322 16.8585 17.0301 16.9111 17.0519L18.0113 17.5074C18.0646 17.5294 18.1249 17.527 18.1763 17.5007L19.026 17.0649C19.0838 17.0353 19.1525 17.0361 19.2096 17.0671L19.9872 17.4892C20.0478 17.5221 20.1212 17.5208 20.1807 17.4859L20.5708 17.2569C20.7216 17.1683 20.9044 17.3059 20.8609 17.4754L20.7766 17.8045H10.4391L10.3481 17.5092Z" fill="#5277B9"/>
<path d="M14.4225 14.1374V15.1374C13.5782 15.1374 12.9808 14.6189 12.6903 13.6983L12.6672 13.5479V9.44531H13.6672V13.4675C13.8338 13.9479 14.0681 14.1374 14.4225 14.1374Z" fill="#FF0000"/>
<path d="M17.1918 14.1374V15.1374C18.0361 15.1374 18.6335 14.6189 18.9239 13.6983L18.9471 13.5479V9.44531H17.9471V13.4675C17.7805 13.9479 17.5461 14.1374 17.1918 14.1374Z" fill="#FF0000"/>
<path fill-rule="evenodd" clip-rule="evenodd" d="M16.7247 6.90784C16.7247 6.90784 15.0658 6.47406 15.0658 7.57401C15.0658 8.67395 15.0658 11.0362 15.0658 11.0362L16.9998 11.6105V8.78069C16.9998 8.78069 16.0328 8.18983 16.0328 7.72776C16.0328 7.26569 16.7247 6.90784 16.7247 6.90784Z" fill="#FF0000"/>
<path d="M13.9337 12.8899L14.5643 12.084" stroke="black"/>
<path d="M14.5088 12.8635L13.9045 12.0527" stroke="black"/>
<path d="M14.8386 12.8899L15.4693 12.084" stroke="black"/>
<path d="M15.4137 12.8635L14.8094 12.0527" stroke="black"/>
<path d="M15.7042 12.8899L16.3349 12.084" stroke="black"/>
<path d="M16.2793 12.8635L15.675 12.0527" stroke="black"/>
<path d="M16.6091 12.8899L17.2398 12.084" stroke="black"/>
<path d="M17.1842 12.8635L16.5799 12.0527" stroke="black"/>
<path d="M17.514 12.8899L18.1447 12.084" stroke="black"/>
<path d="M18.0891 12.8635L17.4848 12.0527" stroke="black"/>
<path d="M12.5701 12.0352V13.1592H10.4832L10.2381 11.9189L12.5701 12.0352ZM21.6346 13.1592H19.5486V12.0352L21.8807 11.9189L21.6346 13.1592ZM12.6082 10.8516V11.7266L10.5399 11.5146V10.0557L12.6082 10.8516ZM21.5789 11.5146L19.5096 11.7266V10.8516L21.5789 10.0557V11.5146ZM14.6395 11.1211L14.5447 11.4902L13.7674 11.1211V10.4209L14.6395 11.1211ZM18.3514 11.1211L17.574 11.4902L17.4793 11.1211L18.3514 10.4209V11.1211ZM14.6668 10.0459V10.7822L13.7957 10.0459V9.09082H12.8543L11.992 8.17676L12.8543 7.14844L14.6668 10.0459ZM20.1258 8.17676L19.2635 9.09082H18.3231V10.0459L17.451 10.7822V10.0459L19.2635 7.14844L20.1258 8.17676ZM12.6522 9.38477L12.5291 10.5479L10.9568 9.79492L11.3426 8.26562L12.6522 9.38477ZM21.1619 9.79492L19.5897 10.5479L19.4666 9.38477L20.7762 8.26562L21.1619 9.79492ZM14.7986 7.0957L14.6512 9.43359L13.4539 7.0957L14.6512 6.63477L14.7986 7.0957ZM18.6639 7.0957L17.4676 9.43359L17.3201 7.0957L17.4676 6.63477L18.6639 7.0957Z" fill="#FA8F21"/>
</g>
</g>
</g>
<defs>
<clipPath id="clip0_299_35811">
<rect width="32" height="24" fill="white"/>
</clipPath>
</defs>
</svg>
