<svg width="32" height="24" viewBox="0 0 32 24" fill="none" xmlns="http://www.w3.org/2000/svg">
<g clip-path="url(#clip0_299_35815)">
<rect width="32" height="24" fill="white"/>
<path fill-rule="evenodd" clip-rule="evenodd" d="M0 0V24H32V0H0Z" fill="#BF2714"/>
<mask id="mask0_299_35815" style="mask-type:luminance" maskUnits="userSpaceOnUse" x="0" y="0" width="32" height="24">
<path fill-rule="evenodd" clip-rule="evenodd" d="M0 0V24H32V0H0Z" fill="white"/>
</mask>
<g mask="url(#mask0_299_35815)">
<path fill-rule="evenodd" clip-rule="evenodd" d="M0 -2V12H32V-2H0Z" fill="#3D58DB"/>
</g>
<path fill-rule="evenodd" clip-rule="evenodd" d="M0 0V24L18 12L0 0Z" fill="#F7FCFF"/>
<mask id="mask1_299_35815" style="mask-type:luminance" maskUnits="userSpaceOnUse" x="0" y="0" width="18" height="24">
<path fill-rule="evenodd" clip-rule="evenodd" d="M0 0V24L18 12L0 0Z" fill="white"/>
</mask>
<g mask="url(#mask1_299_35815)">
<path fill-rule="evenodd" clip-rule="evenodd" d="M13.605 10.9205L14.8809 11.4125L15.64 10.5192L15.6601 11.714L16.8344 12.0959L15.5984 12.5154L15.6799 13.6133L14.8658 12.7723L13.5862 13.0157L14.3417 12.0471L13.605 10.9205Z" fill="#FECA00"/>
<path fill-rule="evenodd" clip-rule="evenodd" d="M1.60508 16.9205L2.77785 17.439L3.64007 16.5192L3.55709 17.7404L4.83447 18.0959L3.49535 18.5419L3.67992 19.6133L2.74756 18.8478L1.58622 19.0157L2.2386 18.0736L1.60508 16.9205Z" fill="#FECA00"/>
<path fill-rule="evenodd" clip-rule="evenodd" d="M1.60508 4.9205L2.90284 5.39872L3.64007 4.5192L3.68208 5.70016L4.83447 6.0959L3.62034 6.50164L3.67992 7.61334L2.87255 6.80747L1.58622 7.01572L2.36359 6.03327L1.60508 4.9205Z" fill="#FECA00"/>
<path fill-rule="evenodd" clip-rule="evenodd" d="M8.12152 14.5332C9.50223 14.5332 10.6215 13.4139 10.6215 12.0332C10.6215 10.6525 9.50223 9.5332 8.12152 9.5332C6.74081 9.5332 5.62152 10.6525 5.62152 12.0332C5.62152 13.4139 6.74081 14.5332 8.12152 14.5332Z" fill="#FECA00"/>
<path fill-rule="evenodd" clip-rule="evenodd" d="M8.26714 13.777C8.36416 13.7932 8.43966 13.8706 8.4525 13.9681L8.55104 15.6529C8.57854 15.8617 8.4313 16.0538 8.22251 16.0813C8.20395 16.0837 8.18521 16.0845 8.1665 16.0842C7.95593 16.0805 7.78764 15.9063 7.79132 15.6957C7.79167 15.6772 7.7941 15.6587 7.79715 15.6404L8.00956 13.9606C8.02996 13.8388 8.14527 13.7566 8.26714 13.777ZM6.61447 13.2199C6.71508 13.1482 6.85527 13.1715 6.92702 13.2721C6.98407 13.3522 6.98199 13.46 6.92213 13.5381L5.82106 14.8786C5.69288 15.0456 5.45358 15.0769 5.28653 14.9489C5.27163 14.9375 5.25716 14.9252 5.2441 14.9117C5.09782 14.7602 5.102 14.5182 5.25346 14.3719C5.26703 14.3588 5.28173 14.3468 5.2971 14.3358L6.61447 13.2199ZM7.79724 13.9311C7.86313 13.9491 7.89775 14.0107 7.8815 14.0701L7.69196 14.7647C7.67011 14.8446 7.59004 14.8942 7.50879 14.8781C7.50336 14.8771 7.49769 14.8758 7.49244 14.8741C7.42497 14.8513 7.3884 14.7783 7.41086 14.7107L7.64326 14.0192C7.6649 13.9553 7.73114 13.9173 7.79724 13.9311ZM8.63965 14.0076C8.71275 13.9948 8.77733 14.0343 8.79676 14.0989L9.00438 14.7977C9.0247 14.8661 8.98607 14.9386 8.91772 14.959C8.91241 14.9606 8.90628 14.9619 8.90081 14.9628C8.81921 14.9757 8.74125 14.9231 8.72224 14.8426L8.55685 14.1418C8.54267 14.0818 8.57966 14.0219 8.63965 14.0076ZM9.57132 13.1859C9.6514 13.1287 9.76018 13.1309 9.83822 13.1908L11.1338 14.3191C11.3008 14.4473 11.3323 14.6866 11.2041 14.8536C11.1926 14.8685 11.1803 14.883 11.1668 14.8961C11.0153 15.0422 10.7734 15.0372 10.6272 14.8857C10.6142 14.8723 10.6019 14.8583 10.591 14.8431L9.51918 13.4974C9.44785 13.397 9.47111 13.2576 9.57132 13.1859ZM7.02743 13.6981C7.08827 13.7407 7.10586 13.8152 7.07383 13.8747L6.72648 14.5161C6.6924 14.5786 6.61329 14.6014 6.5506 14.5674C6.54586 14.5648 6.54091 14.5617 6.53653 14.5586C6.46977 14.5101 6.45138 14.4184 6.49447 14.3481L6.87317 13.7343C6.90562 13.682 6.97499 13.6658 7.02743 13.6981ZM9.34857 13.6275C9.40782 13.5935 9.47584 13.6124 9.50642 13.6659L9.86401 14.292C9.9048 14.3639 9.8829 14.4549 9.81416 14.5009C9.80957 14.504 9.80479 14.5073 9.79984 14.5097C9.73602 14.5413 9.65853 14.5153 9.62672 14.4516L9.30234 13.7985C9.27235 13.7379 9.29199 13.6644 9.34857 13.6275ZM6.31351 13.0021C6.37408 12.972 6.44843 12.9927 6.48543 13.0494C6.51907 13.1086 6.50038 13.1767 6.44698 13.2072L5.82097 13.5638C5.74914 13.6048 5.65815 13.5835 5.61196 13.515C5.60893 13.5104 5.60561 13.5055 5.60317 13.5006C5.57137 13.4367 5.59743 13.3584 5.66136 13.3265L6.31351 13.0021ZM10.1748 13.0391L10.8152 13.3864C10.8779 13.4203 10.9013 13.4987 10.8676 13.5614C10.8651 13.5661 10.8619 13.5711 10.8588 13.5755C10.8103 13.6427 10.7178 13.661 10.6474 13.6174L10.0346 13.2388C9.98214 13.2064 9.96589 13.138 9.9983 13.0855C10.041 13.0246 10.1153 13.0069 10.1748 13.0391ZM5.97112 12.2567C6.03097 12.2426 6.09092 12.2798 6.10531 12.3395C6.11823 12.4127 6.07787 12.4782 6.01301 12.4975L5.31518 12.7052C5.24675 12.7255 5.17425 12.686 5.15391 12.6176C5.15237 12.6123 5.151 12.607 5.15013 12.6016C5.13689 12.5198 5.18967 12.4421 5.2703 12.423L5.97112 12.2567ZM4.47865 11.5366L6.15224 11.7104C6.27412 11.7308 6.3563 11.8461 6.3359 11.968C6.3195 12.0647 6.2421 12.1394 6.14483 12.1523L4.4651 12.2904C4.25653 12.3177 4.06536 12.1714 4.03768 11.9629C4.03522 11.9442 4.03448 11.9248 4.03481 11.9059C4.03857 11.6954 4.21173 11.528 4.42222 11.5316C4.44108 11.532 4.46004 11.5334 4.47865 11.5366ZM11.0648 12.421C11.1448 12.4429 11.1944 12.5229 11.1783 12.6042C11.1772 12.6096 11.176 12.6153 11.1742 12.6205C11.1514 12.6881 11.0776 12.7237 11.01 12.7011L10.3194 12.4697C10.2552 12.4482 10.2174 12.3819 10.2313 12.3157C10.2492 12.2498 10.3108 12.2152 10.3703 12.2315L11.0648 12.421ZM11.9366 11.5314C12.1454 11.5039 12.3375 11.6511 12.365 11.8599C12.3674 11.8785 12.3682 11.8972 12.3679 11.9159C12.3642 12.1265 12.19 12.2948 11.9794 12.2911C11.9609 12.2908 11.9424 12.2883 11.9241 12.2853L10.2598 12.1033C10.1381 12.0829 10.056 11.9675 10.0762 11.8457C10.0924 11.7489 10.17 11.6734 10.2673 11.6604L11.9366 11.5314ZM5.40214 11.1117L6.09276 11.343C6.15687 11.3645 6.1947 11.4308 6.18087 11.497C6.16304 11.563 6.10217 11.5984 6.04275 11.5823L5.34732 11.3917C5.26758 11.3697 5.21778 11.2897 5.23384 11.2086C5.23489 11.2033 5.23713 11.1983 5.23883 11.1932C5.26154 11.1256 5.33446 11.089 5.40214 11.1117ZM11.0979 11.1086C11.1662 11.0883 11.2379 11.1269 11.2582 11.1952C11.2598 11.2004 11.2611 11.2058 11.262 11.2111C11.2752 11.2928 11.2233 11.3716 11.1428 11.3907L10.441 11.556C10.3811 11.5701 10.3211 11.5331 10.3068 11.4732C10.2939 11.4 10.3342 11.3355 10.3991 11.3162L11.0979 11.1086ZM5.7648 10.1953L6.37758 10.5739C6.43004 10.6063 6.44621 10.6747 6.41385 10.7272C6.37125 10.788 6.29775 10.8057 6.2383 10.7737L5.59691 10.4263C5.53433 10.3922 5.51154 10.3141 5.54551 10.2514C5.54814 10.2466 5.55109 10.2418 5.55432 10.2373C5.60279 10.1703 5.69436 10.1519 5.7648 10.1953ZM5.11802 8.94497C5.26951 8.79867 5.51048 8.80276 5.65677 8.95425C5.66973 8.96769 5.68209 8.98173 5.69294 8.99692L6.89297 10.3153C6.96458 10.4158 6.94117 10.5551 6.84083 10.6269C6.76086 10.6839 6.65285 10.6826 6.57483 10.6229L5.15019 9.52088C4.98338 9.39262 4.95177 9.15333 5.07988 8.98635C5.09133 8.97145 5.1045 8.95802 5.11802 8.94497ZM10.5912 10.2489C10.6631 10.2078 10.755 10.23 10.8011 10.2988C10.8041 10.3033 10.8065 10.3082 10.8089 10.313C10.8406 10.3769 10.8147 10.4544 10.7508 10.4862L10.0986 10.8106C10.0382 10.8407 9.96468 10.8208 9.92762 10.7644C9.89357 10.7051 9.91165 10.6361 9.96517 10.6055L10.5912 10.2489ZM10.6081 9.04106C10.7363 8.87397 10.9755 8.84256 11.1426 8.97075C11.1575 8.98217 11.172 8.99451 11.185 9.00798C11.3311 9.15949 11.3262 9.40045 11.1748 9.54667C11.1613 9.55965 11.1473 9.57197 11.1321 9.58284L9.79768 10.5928C9.69707 10.6646 9.55688 10.6412 9.48513 10.5406C9.42831 10.4606 9.43024 10.3526 9.49002 10.2747L10.6081 9.04106ZM6.61231 9.30301C6.67621 9.27132 6.75359 9.29822 6.78537 9.3621L7.11078 10.0143C7.1407 10.0748 7.12013 10.1483 7.06358 10.1853C7.0043 10.2192 6.93627 10.2004 6.90573 10.1468L6.54904 9.52178C6.50799 9.44982 6.52915 9.3579 6.59799 9.31179C6.60259 9.30871 6.60735 9.30547 6.61231 9.30301ZM9.86155 9.24534C9.86641 9.24797 9.87114 9.25093 9.87562 9.25416C9.94279 9.30264 9.96115 9.39513 9.91761 9.46561L9.53898 10.0784C9.50655 10.1309 9.4372 10.147 9.38472 10.1146C9.32402 10.0719 9.30712 9.99753 9.3393 9.93814L9.68657 9.29772C9.72059 9.23494 9.79878 9.21133 9.86155 9.24534ZM8.2107 7.80832C8.42123 7.81201 8.58862 7.9852 8.58498 8.19573C8.58465 8.2146 8.58317 8.23355 8.58005 8.25216L8.40252 9.85305C8.38192 9.97469 8.26667 10.0571 8.14494 10.0367C8.04802 10.0204 7.97346 9.94212 7.96062 9.84467L7.82623 8.23861C7.79891 8.02992 7.946 7.83875 8.1547 7.81126C8.17327 7.80884 8.19198 7.808 8.2107 7.80832ZM8.91971 8.93866C8.9874 8.96137 9.02394 9.03526 9.00122 9.10295L8.76889 9.7935C8.74736 9.85744 8.68193 9.89534 8.61589 9.88168C8.54984 9.86382 8.51438 9.80209 8.53066 9.74258L8.72116 9.04812C8.74298 8.96834 8.82222 8.91874 8.90336 8.93458C8.90873 8.93564 8.91451 8.93692 8.91971 8.93866ZM7.51127 8.85094C7.59297 8.83776 7.6708 8.88962 7.68991 8.97014L7.85621 9.67192C7.87002 9.73178 7.83228 9.79191 7.77243 9.80606C7.69935 9.81877 7.63466 9.77853 7.61539 9.71382L7.40777 9.01502C7.3875 8.94661 7.42693 8.87505 7.49534 8.85472C7.50057 8.85318 7.50589 8.85181 7.51127 8.85094Z" fill="#FECA00"/>
</g>
</g>
<defs>
<clipPath id="clip0_299_35815">
<rect width="32" height="24" fill="white"/>
</clipPath>
</defs>
</svg>
