<svg width="32" height="24" viewBox="0 0 32 24" fill="none" xmlns="http://www.w3.org/2000/svg">
<g clip-path="url(#clip0_299_35817)">
<rect width="32" height="24" fill="white"/>
<path fill-rule="evenodd" clip-rule="evenodd" d="M8 0H32V24H8V0Z" fill="#2F8D00"/>
<path fill-rule="evenodd" clip-rule="evenodd" d="M0 0H8V24H0V0Z" fill="#F7FCFF"/>
<path fill-rule="evenodd" clip-rule="evenodd" d="M12.5839 16.6451C7.90347 13.2617 10.8074 6.51544 12.6564 6.24639C12.6496 6.26733 10.8815 11.7239 14.4193 14.0943C17.9639 16.469 22.4295 15.3041 22.4295 15.3041C21.7482 16.7751 17.2642 20.0284 12.5839 16.6451ZM18.9513 8.21165L21.1265 7.2159L19.9629 9.39177L22.1471 11.0207L19.3587 10.8329L17.9417 12.9156L17.6041 10.4704L15.1023 10.025L17.4736 8.86489L17.3361 6.69316L18.9513 8.21165Z" fill="#F1F9FF"/>
</g>
<defs>
<clipPath id="clip0_299_35817">
<rect width="32" height="24" fill="white"/>
</clipPath>
</defs>
</svg>
