<svg width="32" height="24" viewBox="0 0 32 24" fill="none" xmlns="http://www.w3.org/2000/svg">
<g clip-path="url(#clip0_299_35825)">
<rect width="32" height="24" fill="white"/>
<path fill-rule="evenodd" clip-rule="evenodd" d="M0 0V24H32V0H0Z" fill="#2E42A5"/>
<mask id="mask0_299_35825" style="mask-type:luminance" maskUnits="userSpaceOnUse" x="0" y="0" width="32" height="24">
<path fill-rule="evenodd" clip-rule="evenodd" d="M0 0V24H32V0H0Z" fill="white"/>
</mask>
<g mask="url(#mask0_299_35825)">
</g>
<g clip-path="url(#clip1_299_35825)">
<rect width="18" height="14" fill="#2E42A5"/>
<path d="M-2.00427 12.9991L1.95668 14.7363L18.0899 1.88805L20.1792 -0.693481L15.9435 -1.27411L9.36317 4.26259L4.06667 7.99302L-2.00427 12.9991Z" fill="#F7FCFF"/>
<path d="M-1.46204 14.2165L0.555885 15.2246L19.4289 -0.933105H16.5955L-1.46204 14.2165Z" fill="#F50100"/>
<path d="M20.0043 12.9991L16.0433 14.7363L-0.0898743 1.88805L-2.17919 -0.693481L2.05648 -1.27411L8.63683 4.26259L13.9333 7.99302L20.0043 12.9991Z" fill="#F7FCFF"/>
<path d="M19.8691 13.8727L17.8512 14.8809L9.81489 7.9629L7.43229 7.18998L-2.3802 -0.684557H0.453194L10.2602 7.00307L12.8651 7.92989L19.8691 13.8727Z" fill="#F50100"/>
<path fill-rule="evenodd" clip-rule="evenodd" d="M9.98451 0H7.98451V6H0V8H7.98451V14H9.98451V8H18V6H9.98451V0Z" fill="#F50100"/>
<path fill-rule="evenodd" clip-rule="evenodd" d="M6.48451 0H11.4845V4.5H18V9.5H11.4845L11.5 14H6.5L6.48451 9.5H0V4.5H6.48451V0ZM7.98451 6H0V8H7.98451V14H9.98451V8H18V6H9.98451V0H7.98451V6Z" fill="#F7FCFF"/>
</g>
<path fill-rule="evenodd" clip-rule="evenodd" d="M20.6161 10.7561C20.6161 10.7561 20.7148 11.8508 20.4983 12.471C20.2819 13.0913 20.1718 13.4514 20.1718 13.0549C20.1718 12.6584 20.0198 12.3442 19.8975 12.3442C19.7753 12.3442 19.8718 12.7374 19.7489 12.7374C19.626 12.7374 19.2027 12.805 19.2027 12.5746C19.2027 12.3442 19.147 13.1927 19.4217 13.2685C19.6964 13.3444 19.2883 13.5799 19.1061 13.507C19.1061 13.507 19.8555 13.7505 20.1494 13.9581C20.1494 13.9581 21.0304 15.058 21.8545 14.9238C21.8545 14.9238 20.7324 14.5365 20.9301 13.7964C21.1278 13.0563 21.8545 12.9493 21.8545 12.9493C21.8545 12.9493 22.1955 13.0633 22.1852 13.3621C22.175 13.6608 22.4346 13.2685 22.4346 13.2685C22.4346 13.2685 22.4764 12.8911 22.4303 12.799C22.3842 12.7069 23.2114 12.5286 23.2635 12.1399C23.2635 12.1399 22.4184 12.1786 22.3604 12.0787C22.3024 11.9789 22.6219 11.8223 22.522 11.6277C22.422 11.4331 20.9301 12.7374 20.9301 12.7374C20.9301 12.7374 21.4453 11.8496 21.4453 11.3729C21.4453 10.8961 21.3144 10.5703 20.9301 10.5703C20.5458 10.5703 20.6161 10.7561 20.6161 10.7561Z" fill="#5EAA22"/>
<path fill-rule="evenodd" clip-rule="evenodd" d="M28.3835 11.0165C28.3825 11.0181 28.3846 11.0196 28.386 11.0182C28.4415 10.9635 28.7838 10.6487 29.0707 10.8978C29.3839 11.1696 28.9128 11.4346 28.9128 11.4346C28.9128 11.4346 29.133 11.6481 29.3848 11.6481C29.6366 11.6481 29.6984 11.4346 29.6984 11.4346C29.6984 11.4346 29.7176 11.9098 30.5389 12.0898C30.5389 12.0898 30.8319 11.6691 30.5389 11.4388C30.5389 11.4388 30.885 11.367 30.8599 11.0866C30.8599 11.0866 30.5753 11.1836 30.3724 10.9608C30.1695 10.738 29.774 10.6352 29.4864 10.6866C28.7566 10.4234 28.428 10.939 28.3835 11.0165Z" fill="#5EAA22"/>
<path fill-rule="evenodd" clip-rule="evenodd" d="M23.4037 13.4141C23.4037 13.4141 24.2529 15.0114 23.7221 15.3424C23.1913 15.6734 26.2459 15.4379 26.5337 15.3424C26.8215 15.2469 26.4756 14.7432 26.1564 14.6034C25.8372 14.4636 24.525 13.9984 24.176 13.6475C23.8269 13.2967 24.0401 13.1722 24.3212 12.8259C24.6024 12.4795 25.6432 12.341 25.6432 12.0173C25.6432 11.6936 26.3034 10.3586 26.7648 10.2579C27.2262 10.1571 26.977 9.99851 26.8709 9.99851C26.7648 9.99851 26.1269 10.656 25.885 10.5374C25.6432 10.4188 25.6136 10.4271 25.885 10.1404C26.1564 9.85362 26.3607 9.52358 26.0019 9.76104C25.6432 9.99851 25.0517 10.3743 24.7673 10.3743C24.483 10.3743 23.4708 10.2461 23.5965 10.5374C23.7221 10.8287 23.7754 11.3342 24.3212 11.6758C24.867 12.0173 24.6298 12.2673 24.176 12.5964C23.7221 12.9255 23.4037 13.4141 23.4037 13.4141Z" fill="#96877D"/>
<path d="M29.0386 11.3027L27.4204 14.5481C27.4204 14.5481 27.3733 15.4648 28.5301 14.8539C29.687 14.2431 29.6414 13.8098 29.975 13.8098C30.3085 13.8098 30.4145 13.6246 30.4145 13.6246L30.1923 13.4499C30.1923 13.4499 30.1666 13.1312 30.3073 13.0597C30.3073 13.0597 30.0312 12.9076 29.9918 13.0345C29.9523 13.1615 29.7577 12.7689 29.8678 12.7689C29.8678 12.7689 29.6244 13.1631 29.573 13.3169C29.573 13.3169 29.2208 13.1736 29.2377 12.5101C29.2545 11.8466 29.0386 11.3027 29.0386 11.3027Z" fill="#FFD018"/>
<path d="M21.3364 10.7878C21.3364 10.7878 20.5124 10.9796 20.6013 11.1792C20.6901 11.3789 20.8211 11.1739 20.4176 11.4144C20.4176 11.4144 19.7089 11.9624 19.5545 11.903C19.4 11.8436 19.6639 12.041 19.6639 11.4144C19.6639 10.7878 19.2523 11.2979 19.6639 10.8796C20.0754 10.4613 20.2197 10.7878 20.4176 10.5471C20.6156 10.3064 20.4376 10.4344 20.9745 10.4344C21.5114 10.4344 21.3364 10.7878 21.3364 10.7878Z" fill="#FFD018"/>
<path d="M23.8506 14.0137C23.8506 14.0137 21.5436 15.8267 21.0825 15.962C20.6214 16.0973 22.0308 15.9248 22.3752 15.6854C22.7195 15.4461 23.8506 14.0137 23.8506 14.0137Z" fill="#FFD018"/>
<path fill-rule="evenodd" clip-rule="evenodd" d="M28.4246 17.1936C28.4246 17.1936 28.646 18.622 28.0679 18.4814C27.4899 18.3408 27.2499 18.2681 27.2499 18.2681C27.2499 18.2681 27.462 18.9334 27.765 18.9334C27.765 18.9334 28.2812 19.9395 28.0826 20.2571C28.0826 20.2571 28.9718 19.5357 28.828 18.9621C28.6843 18.3886 29.0579 19.0565 29.0579 19.0565C29.0579 19.0565 29.3851 19.2145 29.6217 19.0381C29.8582 18.8616 29.6187 18.94 29.3821 18.6041C29.1456 18.2681 29.204 17.3246 28.4845 16.8356C27.765 16.3466 27.5975 16.3622 27.5975 16.3622C27.5975 16.3622 27.0676 15.4958 27.3851 15.5531C27.3851 15.5531 29.6602 16.333 29.7193 16.5329C29.7784 16.7328 30.3818 16.6962 30.0801 16.1247C29.7784 15.5531 28.1521 15.2087 27.9585 15.0475C27.765 14.8863 27.9451 14.275 27.5975 14.1418C27.2499 14.0086 26.3003 13.0636 26.3009 12.6082C26.3015 12.1528 25.8546 11.9384 25.4661 11.9384C25.0776 11.9384 24.346 11.8262 24.037 11.8262C23.7279 11.8262 23.4398 12.3432 23.7384 12.3432C24.037 12.3432 23.7819 13.3112 23.282 13.5227C22.782 13.7342 22.3955 14.0383 21.8246 14.0383C21.2537 14.0383 22.6328 14.5305 22.8526 14.3362C23.0724 14.1418 23.0003 13.8521 23.7384 13.5227C24.4765 13.1933 25.181 12.9982 25.0918 13.2605C25.0026 13.5227 25.2302 13.9613 25.5779 13.8026C25.9257 13.6438 26.0372 13.2428 26.0372 13.5227C26.0372 13.8026 26.5704 15.2401 26.9777 15.8011C27.3851 16.3622 28.4246 17.1936 28.4246 17.1936Z" fill="#5EAA22"/>
<path d="M23.5712 11.9453C23.5712 11.9453 23.3007 12.3763 23.5712 12.3763C23.8417 12.3763 24.2767 12.3763 24.0117 12.1608C23.7466 11.9453 23.5712 11.9453 23.5712 11.9453Z" fill="#FFD018"/>
<path d="M24.475 11.9342C24.475 11.9342 24.4763 12.2208 24.6637 12.2208C24.8512 12.2208 25.018 12.5073 25.018 12.2208C25.018 11.9342 25.2786 12.0293 24.8768 11.9342C24.475 11.8392 24.475 11.9342 24.475 11.9342Z" fill="#FFD018"/>
<path d="M25.6296 12C25.6296 12 25.4489 12.1361 25.5392 12.3788C25.6296 12.6215 25.834 13.1018 25.5392 13.1018C25.2445 13.1018 25.0019 13.275 25.2322 13.275C25.4625 13.275 25.8721 13.4482 25.8721 13.275C25.8721 13.1018 26.0388 13.5605 26.0388 13.275C26.0388 12.9895 26.0388 12.853 26.0388 12.6856C26.0388 12.5181 26.2055 12.4699 26.0388 12.235C25.8721 12 25.6296 12 25.6296 12Z" fill="#FFD018"/>
<path d="M26.0471 13.6719C26.0471 13.6719 26.4238 14.8573 26.6286 15.0102C26.8334 15.163 26.9253 16.4504 27.0152 16.5903C27.1051 16.7303 28.3299 17.4368 28.3299 17.8159C28.3299 18.195 28.707 17.5246 28.5184 17.1492C28.3299 16.7737 27.7362 15.9744 27.3092 15.8001C26.8822 15.6258 26.9363 15.2037 26.8466 14.9071C26.7568 14.6104 27.3778 15.1468 26.8466 14.4739C26.3153 13.801 26.3294 14.1621 26.479 14.1621C26.6286 14.1621 26.7782 14.0826 26.6286 13.978C26.479 13.8735 26.0471 13.6719 26.0471 13.6719Z" fill="#FFD018"/>
<path d="M22.0541 16.1172C22.0541 16.1172 20.8307 18.2778 20.6124 18.3894C20.3941 18.5011 20.2313 18.5238 20.1198 18.3894C20.0082 18.2551 19.9967 18.7499 20.1198 18.8854C20.2428 19.0208 20.6124 19.0208 20.8175 18.7803C20.8175 18.7803 20.8499 19.3881 21.1695 19.8463C21.489 20.3046 21.6221 20.1781 21.6221 20.4372C21.6221 20.6964 21.6976 21.0395 21.7951 21.0395C21.8927 21.0395 21.9682 21.8551 21.7951 21.8551C21.6221 21.8551 22.1961 21.9221 22.4464 21.7181C22.6966 21.5141 22.8036 21.3587 22.7501 21.3587C22.6966 21.3587 22.0541 21.0205 22.0541 20.7812C22.0541 20.5419 21.6221 20.3545 21.6221 19.9993C21.6221 19.6441 21.3976 19.2217 21.3976 19.0536C21.3976 18.8854 21.5896 19.1185 21.7951 18.9592C22.0007 18.7999 22.0541 18.3894 22.0541 18.3894C22.0541 18.3894 21.7303 18.6066 21.6221 18.498C21.5138 18.3894 21.1732 18.1751 21.3976 17.8073C21.6221 17.4394 22.0541 16.1172 22.0541 16.1172Z" fill="#FFD018"/>
<path fill-rule="evenodd" clip-rule="evenodd" d="M24.1743 9.30273C24.1743 9.30273 23.7362 9.49758 23.8822 9.78709C24.0282 10.0766 24.0807 10.2048 24.1743 10.1407C24.2678 10.0766 24.9241 9.95541 24.7771 9.62907C24.6301 9.30273 24.3221 9.30273 24.3221 9.30273H24.1743Z" fill="#5EAA22"/>
<path d="M25.694 9.1456C25.694 9.1456 25.1154 8.88956 25.3082 9.1456C25.5011 9.40164 25.7478 9.53662 25.9254 9.53662C26.1029 9.53662 26.4717 9.48369 26.2873 9.3804C26.1029 9.2771 25.694 9.1456 25.694 9.1456Z" fill="#FFD018"/>
<path fill-rule="evenodd" clip-rule="evenodd" d="M19.9814 15.8009C19.9843 15.7853 19.9657 15.7744 19.9542 15.7854C19.8334 15.9007 19.4727 16.2836 19.6261 16.6167C19.809 17.0142 19.992 17.1522 19.992 17.1522C19.992 17.1522 20.1034 17.7608 20.3338 17.9264C20.3338 17.9264 20.6431 17.9106 20.6584 17.4369C20.6584 17.4369 21.1838 17.2828 21.3382 17.6108C21.3382 17.6108 21.2363 17.6477 21.2363 17.9264C21.2363 18.2052 21.474 18.5071 21.474 18.5071C21.474 18.5071 21.5829 17.5458 22.072 16.9259C22.5612 16.3061 22.7012 16.1838 22.7012 16.1838V15.4863C22.7012 15.4863 21.6891 16.311 21.474 16.9967C21.474 16.9967 20.9643 17.0137 20.7572 16.9259C20.5502 16.8381 21.0159 16.6941 20.7572 16.3821C20.4986 16.07 20.6171 16.8214 20.3338 16.6167C19.8906 16.4935 19.9507 15.9667 19.9814 15.8009Z" fill="#5EAA22"/>
<path fill-rule="evenodd" clip-rule="evenodd" d="M22.1868 15.1953L27.3714 15.1953V18.363C27.3714 18.363 26.9488 20.9512 24.6909 22.2264C24.6909 22.2264 22.5038 20.9337 22.1868 18.363V15.1953Z" fill="#5EAA22"/>
<mask id="mask1_299_35825" style="mask-type:luminance" maskUnits="userSpaceOnUse" x="22" y="15" width="6" height="8">
<path fill-rule="evenodd" clip-rule="evenodd" d="M22.1868 15.1953L27.3714 15.1953V18.363C27.3714 18.363 26.9488 20.9512 24.6909 22.2264C24.6909 22.2264 22.5038 20.9337 22.1868 18.363V15.1953Z" fill="white"/>
</mask>
<g mask="url(#mask1_299_35825)">
<path fill-rule="evenodd" clip-rule="evenodd" d="M24.6517 15.0234L22.3865 19.7241L25.4584 16.9345L27.5727 20.4388V15.0234L25.4584 16.7566L24.6517 15.0234Z" fill="#58A5FF"/>
<path d="M24.5802 18.4132C24.5802 18.3198 24.6559 18.2441 24.7492 18.2441C24.8426 18.2441 24.9182 18.3198 24.9182 18.4132V21.4315C24.9182 21.5248 24.8426 21.6005 24.7492 21.6005C24.6559 21.6005 24.5802 21.5248 24.5802 21.4315L24.5802 18.4132Z" fill="#FFD018"/>
<path d="M23.9925 19.1583C23.9008 19.1583 23.8264 19.0839 23.8264 18.9922C23.8264 18.9005 23.9008 18.8262 23.9925 18.8262H25.5197C25.6114 18.8262 25.6857 18.9005 25.6857 18.9922C25.6857 19.0839 25.6114 19.1583 25.5197 19.1583H23.9925Z" fill="#FFD018"/>
<path d="M24.8159 21.4888L24.685 21.5951C24.4922 21.3609 24.3164 21.2483 24.1611 21.2483C23.9323 21.2483 23.7462 21.0574 23.5945 20.6954L23.7505 20.6309C23.8789 20.9371 24.0185 21.0804 24.1611 21.0804C24.377 21.0804 24.5942 21.2195 24.8159 21.4888Z" fill="#FFD018"/>
<path fill-rule="evenodd" clip-rule="evenodd" d="M23.4434 20.1197C23.4424 20.1187 23.4407 20.1195 23.4407 20.1209V20.9369C23.4407 20.9381 23.4418 20.9388 23.4429 20.9384L24.0567 20.6857C24.0578 20.6853 24.058 20.6838 24.0571 20.683L23.4434 20.1197Z" fill="#FFD018"/>
<path d="M24.677 21.4888L24.8079 21.5951C25.0007 21.3609 25.1765 21.2483 25.3319 21.2483C25.5607 21.2483 25.7467 21.0574 25.8984 20.6954L25.7424 20.6309C25.6141 20.9371 25.4744 21.0804 25.3319 21.0804C25.1159 21.0804 24.8988 21.2195 24.677 21.4888Z" fill="#FFD018"/>
<path fill-rule="evenodd" clip-rule="evenodd" d="M26.0495 20.1197C26.0506 20.1187 26.0522 20.1195 26.0522 20.1209V20.9369C26.0522 20.9381 26.0511 20.9388 26.05 20.9384L25.4363 20.6857C25.4352 20.6853 25.4349 20.6838 25.4358 20.683L26.0495 20.1197Z" fill="#FFD018"/>
<rect x="24.4084" y="17.0586" width="0.676056" height="1.00733" fill="white"/>
</g>
</g>
<defs>
<clipPath id="clip0_299_35825">
<rect width="32" height="24" fill="white"/>
</clipPath>
<clipPath id="clip1_299_35825">
<rect width="18" height="14" fill="white"/>
</clipPath>
</defs>
</svg>
