<svg width="32" height="24" viewBox="0 0 32 24" fill="none" xmlns="http://www.w3.org/2000/svg">
<g clip-path="url(#clip0_299_35775)">
<rect width="32" height="24" fill="white"/>
<path fill-rule="evenodd" clip-rule="evenodd" d="M8 0H32V24H8V0Z" fill="#EF0000"/>
<path fill-rule="evenodd" clip-rule="evenodd" d="M0 0H12V24H0V0Z" fill="#2F8D00"/>
<mask id="mask0_299_35775" style="mask-type:luminance" maskUnits="userSpaceOnUse" x="4" y="4" width="16" height="16">
<path fill-rule="evenodd" clip-rule="evenodd" d="M11.9047 19.8078C7.64423 19.8078 4.19043 16.3124 4.19043 12.0006C4.19043 7.68878 7.64423 4.19336 11.9047 4.19336C16.1652 4.19336 19.619 7.68878 19.619 12.0006C19.619 16.3124 16.1652 19.8078 11.9047 19.8078Z" fill="white"/>
</mask>
<g mask="url(#mask0_299_35775)">
<path fill-rule="evenodd" clip-rule="evenodd" d="M11.4285 4H12.4285V6.6988H11.4285V4Z" fill="#FFE017"/>
<path fill-rule="evenodd" clip-rule="evenodd" d="M11.4285 17.4941H12.4285V20.0002H11.4285V17.4941Z" fill="#FFE017"/>
<path d="M4.31437 12.404L4.03479 11.6867C7.11998 10.4551 9.44854 9.66074 11.0285 9.30277C13.3466 8.77756 15.8937 8.38897 18.6699 8.13672L18.738 8.90471C15.9937 9.15408 13.4793 9.53768 11.195 10.0552C9.66202 10.4025 7.3658 11.1858 4.31437 12.404Z" fill="#FFE017"/>
<path d="M19.1408 7.66506L18.914 8.40117C16.5822 7.66505 14.6828 7.34864 13.2228 7.44664L13.1724 6.67725C14.74 6.57202 16.7271 6.90305 19.1408 7.66506Z" fill="#FFE017"/>
<path d="M19.9476 11.7813L19.5166 12.4171C18.3279 11.5919 16.8635 11.1773 15.1133 11.1773V10.4062C17.0107 10.4062 18.6254 10.8633 19.9476 11.7813Z" fill="#FFE017"/>
<path d="M19.302 12.0117L19.499 12.7566C16.9364 13.4507 14.5304 13.8445 12.281 13.9373C10.016 14.0307 7.37616 13.6354 4.35913 12.7546L4.57031 12.0137C7.51401 12.8732 10.0747 13.2565 12.25 13.1668C14.4408 13.0765 16.7915 12.6917 19.302 12.0117Z" fill="#FFE017"/>
<path d="M19.0117 15.6367L17.8073 16.8714C15.5186 14.5848 13.5037 12.9499 11.775 11.9675C10.0166 10.9683 7.72366 9.95376 4.89954 8.92786L5.47868 7.29492C8.38609 8.35108 10.7634 9.40297 12.6142 10.4547C14.4946 11.5232 16.623 13.2502 19.0117 15.6367Z" fill="#FFE017"/>
<path d="M5.4583 16.3367L5.00244 15.7188C5.0661 15.6707 5.17969 15.5905 5.33619 15.4888C5.59459 15.3209 5.88153 15.1534 6.19025 14.9967C7.04055 14.5654 7.89349 14.2961 8.70701 14.2713C8.74679 14.2701 8.78641 14.2695 8.82586 14.2695V15.0406C8.79408 15.0406 8.76209 15.0411 8.72989 15.0421C8.04432 15.0629 7.29145 15.3006 6.53166 15.6861C6.24846 15.8297 5.98459 15.9839 5.74777 16.1377C5.66534 16.1913 5.59241 16.2408 5.52991 16.2849C5.49348 16.3107 5.4693 16.3284 5.4583 16.3367Z" fill="#FFE017"/>
<path d="M5.81213 16.604L6.004 15.8578C8.54412 16.5267 10.5024 16.8601 11.8691 16.8601C13.2307 16.8601 15.2573 16.4669 17.9357 15.6777L18.1487 16.4181C15.4069 17.2259 13.3181 17.6312 11.8691 17.6312C10.4252 17.6312 8.40948 17.288 5.81213 16.604Z" fill="#FFE017"/>
<path d="M4.82239 9.69482L6.02946 8.46289L7.79679 10.2365L6.58971 11.4685L4.82239 9.69482Z" fill="#FFE017"/>
<path d="M14.8359 15.8491L15.7338 14.3711L18.5374 16.1155L17.6396 17.5935L14.8359 15.8491Z" fill="#FFE017"/>
</g>
<path d="M11.9043 4.19336C16.1648 4.19336 19.6191 7.68916 19.6191 12.001C19.6189 16.3126 16.1647 19.8076 11.9043 19.8076C7.64413 19.8074 4.19064 16.3125 4.19043 12.001C4.19043 7.6893 7.64401 4.19359 11.9043 4.19336ZM12 5.34961C8.3182 5.34961 5.33316 8.37056 5.33301 12.0967C5.33301 15.8229 8.3181 18.8438 12 18.8438C15.6819 18.8437 18.667 15.8229 18.667 12.0967C18.6668 8.37057 15.6818 5.34963 12 5.34961Z" fill="#F9E813"/>
<path d="M7.65662 7.18555V13.4463C8.06875 15.9243 9.45721 17.1634 11.822 17.1634C14.1868 17.1634 15.5753 15.9243 15.9874 13.4463V7.18555H7.65662Z" fill="white"/>
<path d="M7.08521 6.60742H16.5588V13.4948L16.5509 13.5424C16.0933 16.2941 14.4709 17.7419 11.822 17.7419C9.17313 17.7419 7.55077 16.2941 7.09313 13.5424L7.08521 13.4948V6.60742Z" fill="#C51918"/>
<path d="M9.2522 8.71094H14.3919V13.1518C14.3919 13.1518 14.0105 15.4451 11.8221 15.4451C9.6336 15.4451 9.2522 13.1518 9.2522 13.1518V8.71094Z" fill="#F7FCFF"/>
<path fill-rule="evenodd" clip-rule="evenodd" d="M8 7.08398H8.72289V7.56591H8V7.08398Z" fill="#F9E813"/>
<path fill-rule="evenodd" clip-rule="evenodd" d="M7.61902 7.27734H8.95235V7.51831H7.61902V7.27734Z" fill="#060101"/>
<path fill-rule="evenodd" clip-rule="evenodd" d="M7.61902 7.46875H8.34191V7.70971H7.61902V7.46875Z" fill="#F9E813"/>
<path fill-rule="evenodd" clip-rule="evenodd" d="M8.38098 7.46875H9.10387V7.70971H8.38098V7.46875Z" fill="#F9E813"/>
<path fill-rule="evenodd" clip-rule="evenodd" d="M7.61902 8.04688H8.10095V8.76977H7.61902V8.04688Z" fill="#F9E813"/>
<path fill-rule="evenodd" clip-rule="evenodd" d="M8.57141 8.04688H9.05334V8.76977H8.57141V8.04688Z" fill="#F9E813"/>
<path fill-rule="evenodd" clip-rule="evenodd" d="M8.19043 8.04688H8.43139V8.76977H8.19043V8.04688Z" fill="#F9E813"/>
<path fill-rule="evenodd" clip-rule="evenodd" d="M7.61902 7.85547H8.95235V8.09643H7.61902V7.85547Z" fill="#060101"/>
<path fill-rule="evenodd" clip-rule="evenodd" d="M7.61902 8.43359H8.95235V8.67456H7.61902V8.43359Z" fill="#060101"/>
<path fill-rule="evenodd" clip-rule="evenodd" d="M7.80945 7.66211H8.05041V7.90307H7.80945V7.66211Z" fill="#F9E813"/>
<path fill-rule="evenodd" clip-rule="evenodd" d="M8.57141 7.66211H8.81237V7.90307H8.57141V7.66211Z" fill="#F9E813"/>
<path fill-rule="evenodd" clip-rule="evenodd" d="M8.19043 7.46875H8.43139V7.95068H8.19043V7.46875Z" fill="#F9E813"/>
<path fill-rule="evenodd" clip-rule="evenodd" d="M11.619 7.08398H12.3419V7.56591H11.619V7.08398Z" fill="#F9E813"/>
<path fill-rule="evenodd" clip-rule="evenodd" d="M11.238 7.27734H12.5714V7.51831H11.238V7.27734Z" fill="#060101"/>
<path fill-rule="evenodd" clip-rule="evenodd" d="M11.238 7.46875H11.9609V7.70971H11.238V7.46875Z" fill="#F9E813"/>
<path fill-rule="evenodd" clip-rule="evenodd" d="M12 7.46875H12.7229V7.70971H12V7.46875Z" fill="#F9E813"/>
<path fill-rule="evenodd" clip-rule="evenodd" d="M11.238 8.04688H11.72V8.76977H11.238V8.04688Z" fill="#F9E813"/>
<path fill-rule="evenodd" clip-rule="evenodd" d="M12.1904 8.04688H12.6724V8.76977H12.1904V8.04688Z" fill="#F9E813"/>
<path fill-rule="evenodd" clip-rule="evenodd" d="M11.8094 8.04688H12.0504V8.76977H11.8094V8.04688Z" fill="#F9E813"/>
<path fill-rule="evenodd" clip-rule="evenodd" d="M11.238 7.85547H12.5714V8.09643H11.238V7.85547Z" fill="#060101"/>
<path fill-rule="evenodd" clip-rule="evenodd" d="M11.238 8.43359H12.5714V8.67456H11.238V8.43359Z" fill="#060101"/>
<path fill-rule="evenodd" clip-rule="evenodd" d="M11.4285 7.66211H11.6694V7.90307H11.4285V7.66211Z" fill="#F9E813"/>
<path fill-rule="evenodd" clip-rule="evenodd" d="M12.1904 7.66211H12.4314V7.90307H12.1904V7.66211Z" fill="#F9E813"/>
<path fill-rule="evenodd" clip-rule="evenodd" d="M11.8094 7.46875H12.0504V7.95068H11.8094V7.46875Z" fill="#F9E813"/>
<path fill-rule="evenodd" clip-rule="evenodd" d="M15.0476 7.08398H15.7705V7.56591H15.0476V7.08398Z" fill="#F9E813"/>
<path fill-rule="evenodd" clip-rule="evenodd" d="M14.6666 7.27734H16V7.51831H14.6666V7.27734Z" fill="#060101"/>
<path fill-rule="evenodd" clip-rule="evenodd" d="M14.6666 7.46875H15.3895V7.70971H14.6666V7.46875Z" fill="#F9E813"/>
<path fill-rule="evenodd" clip-rule="evenodd" d="M15.4286 7.46875H16.1515V7.70971H15.4286V7.46875Z" fill="#F9E813"/>
<path fill-rule="evenodd" clip-rule="evenodd" d="M14.6666 8.04688H15.1486V8.76977H14.6666V8.04688Z" fill="#F9E813"/>
<path fill-rule="evenodd" clip-rule="evenodd" d="M15.619 8.04688H16.1009V8.76977H15.619V8.04688Z" fill="#F9E813"/>
<path fill-rule="evenodd" clip-rule="evenodd" d="M15.238 8.04688H15.479V8.76977H15.238V8.04688Z" fill="#F9E813"/>
<path fill-rule="evenodd" clip-rule="evenodd" d="M14.6666 7.85547H16V8.09643H14.6666V7.85547Z" fill="#060101"/>
<path fill-rule="evenodd" clip-rule="evenodd" d="M14.6666 8.43359H16V8.67456H14.6666V8.43359Z" fill="#060101"/>
<path fill-rule="evenodd" clip-rule="evenodd" d="M14.8571 7.66211H15.098V7.90307H14.8571V7.66211Z" fill="#F9E813"/>
<path fill-rule="evenodd" clip-rule="evenodd" d="M15.619 7.66211H15.86V7.90307H15.619V7.66211Z" fill="#F9E813"/>
<path fill-rule="evenodd" clip-rule="evenodd" d="M15.238 7.46875H15.479V7.95068H15.238V7.46875Z" fill="#F9E813"/>
<path fill-rule="evenodd" clip-rule="evenodd" d="M15.0476 10.5547H15.7705V11.0366H15.0476V10.5547Z" fill="#F9E813"/>
<path fill-rule="evenodd" clip-rule="evenodd" d="M14.6666 10.748H16V10.989H14.6666V10.748Z" fill="#060101"/>
<path fill-rule="evenodd" clip-rule="evenodd" d="M14.6666 10.9395H15.3895V11.1804H14.6666V10.9395Z" fill="#F9E813"/>
<path fill-rule="evenodd" clip-rule="evenodd" d="M15.4286 10.9395H16.1515V11.1804H15.4286V10.9395Z" fill="#F9E813"/>
<path fill-rule="evenodd" clip-rule="evenodd" d="M14.6666 11.5176H15.1486V12.2405H14.6666V11.5176Z" fill="#F9E813"/>
<path fill-rule="evenodd" clip-rule="evenodd" d="M15.619 11.5176H16.1009V12.2405H15.619V11.5176Z" fill="#F9E813"/>
<path fill-rule="evenodd" clip-rule="evenodd" d="M15.238 11.5176H15.479V12.2405H15.238V11.5176Z" fill="#F9E813"/>
<path fill-rule="evenodd" clip-rule="evenodd" d="M14.6666 11.3262H16V11.5671H14.6666V11.3262Z" fill="#060101"/>
<path fill-rule="evenodd" clip-rule="evenodd" d="M14.6666 11.9043H16V12.1453H14.6666V11.9043Z" fill="#060101"/>
<path fill-rule="evenodd" clip-rule="evenodd" d="M14.8571 11.1328H15.098V11.3738H14.8571V11.1328Z" fill="#F9E813"/>
<path fill-rule="evenodd" clip-rule="evenodd" d="M15.619 11.1328H15.86V11.3738H15.619V11.1328Z" fill="#F9E813"/>
<path fill-rule="evenodd" clip-rule="evenodd" d="M15.238 10.9395H15.479V11.4214H15.238V10.9395Z" fill="#F9E813"/>
<path fill-rule="evenodd" clip-rule="evenodd" d="M8 10.5547H8.72289V11.0366H8V10.5547Z" fill="#F9E813"/>
<path fill-rule="evenodd" clip-rule="evenodd" d="M7.61902 10.748H8.95235V10.989H7.61902V10.748Z" fill="#060101"/>
<path fill-rule="evenodd" clip-rule="evenodd" d="M7.61902 10.9395H8.34191V11.1804H7.61902V10.9395Z" fill="#F9E813"/>
<path fill-rule="evenodd" clip-rule="evenodd" d="M8.38098 10.9395H9.10387V11.1804H8.38098V10.9395Z" fill="#F9E813"/>
<path fill-rule="evenodd" clip-rule="evenodd" d="M7.61902 11.5176H8.10095V12.2405H7.61902V11.5176Z" fill="#F9E813"/>
<path fill-rule="evenodd" clip-rule="evenodd" d="M8.57141 11.5176H9.05334V12.2405H8.57141V11.5176Z" fill="#F9E813"/>
<path fill-rule="evenodd" clip-rule="evenodd" d="M8.19043 11.5176H8.43139V12.2405H8.19043V11.5176Z" fill="#F9E813"/>
<path fill-rule="evenodd" clip-rule="evenodd" d="M7.61902 11.3262H8.95235V11.5671H7.61902V11.3262Z" fill="#060101"/>
<path fill-rule="evenodd" clip-rule="evenodd" d="M7.61902 11.9043H8.95235V12.1453H7.61902V11.9043Z" fill="#060101"/>
<path fill-rule="evenodd" clip-rule="evenodd" d="M7.80945 11.1328H8.05041V11.3738H7.80945V11.1328Z" fill="#F9E813"/>
<path fill-rule="evenodd" clip-rule="evenodd" d="M8.57141 11.1328H8.81237V11.3738H8.57141V11.1328Z" fill="#F9E813"/>
<path fill-rule="evenodd" clip-rule="evenodd" d="M8.19043 10.9395H8.43139V11.4214H8.19043V10.9395Z" fill="#F9E813"/>
<path fill-rule="evenodd" clip-rule="evenodd" d="M8.46375 14.9023L8.92841 14.3486L9.29759 14.6584L8.83292 15.2121L8.46375 14.9023Z" fill="#F9E813"/>
<path fill-rule="evenodd" clip-rule="evenodd" d="M8.36658 15.3184L9.22363 14.297L9.40822 14.4519L8.55117 15.4732L8.36658 15.3184Z" fill="#060101"/>
<path fill-rule="evenodd" clip-rule="evenodd" d="M8.51416 15.4434L8.97883 14.8896L9.16341 15.0445L8.69875 15.5982L8.51416 15.4434Z" fill="#F9E813"/>
<path fill-rule="evenodd" clip-rule="evenodd" d="M9.00391 14.8594L9.46857 14.3056L9.65316 14.4605L9.1885 15.0143L9.00391 14.8594Z" fill="#F9E813"/>
<path fill-rule="evenodd" clip-rule="evenodd" d="M8.95715 15.8145L9.26693 15.4453L9.8207 15.9099L9.51092 16.2791L8.95715 15.8145Z" fill="#F9E813"/>
<path fill-rule="evenodd" clip-rule="evenodd" d="M9.56934 15.084L9.87911 14.7148L10.4329 15.1795L10.1231 15.5487L9.56934 15.084Z" fill="#F9E813"/>
<path fill-rule="evenodd" clip-rule="evenodd" d="M9.32446 15.377L9.47935 15.1924L10.0331 15.657L9.87823 15.8416L9.32446 15.377Z" fill="#F9E813"/>
<path fill-rule="evenodd" clip-rule="evenodd" d="M8.80957 15.6914L9.66662 14.67L9.85121 14.8249L8.99416 15.8463L8.80957 15.6914Z" fill="#060101"/>
<path fill-rule="evenodd" clip-rule="evenodd" d="M9.25256 16.0625L10.1096 15.0411L10.2942 15.196L9.43715 16.2174L9.25256 16.0625Z" fill="#060101"/>
<path fill-rule="evenodd" clip-rule="evenodd" d="M8.7843 15.4199L8.93919 15.2353L9.12378 15.3902L8.96889 15.5748L8.7843 15.4199Z" fill="#F9E813"/>
<path fill-rule="evenodd" clip-rule="evenodd" d="M9.27405 14.8379L9.42894 14.6533L9.61353 14.8082L9.45864 14.9928L9.27405 14.8379Z" fill="#F9E813"/>
<path fill-rule="evenodd" clip-rule="evenodd" d="M8.88147 15.0059L9.03636 14.8213L9.40554 15.131L9.25065 15.3156L8.88147 15.0059Z" fill="#F9E813"/>
<path fill-rule="evenodd" clip-rule="evenodd" d="M14.9784 14.4668L15.4431 15.0206L15.0739 15.3303L14.6092 14.7766L14.9784 14.4668Z" fill="#F9E813"/>
<path fill-rule="evenodd" clip-rule="evenodd" d="M14.5858 14.2988L15.4429 15.3202L15.2583 15.4751L14.4012 14.4537L14.5858 14.2988Z" fill="#060101"/>
<path fill-rule="evenodd" clip-rule="evenodd" d="M14.4381 14.4219L14.9028 14.9756L14.7182 15.1305L14.2535 14.5768L14.4381 14.4219Z" fill="#F9E813"/>
<path fill-rule="evenodd" clip-rule="evenodd" d="M14.9279 15.0059L15.3925 15.5596L15.2079 15.7145L14.7433 15.1607L14.9279 15.0059Z" fill="#F9E813"/>
<path fill-rule="evenodd" clip-rule="evenodd" d="M13.9951 14.793L14.3049 15.1621L13.7511 15.6268L13.4414 15.2576L13.9951 14.793Z" fill="#F9E813"/>
<path fill-rule="evenodd" clip-rule="evenodd" d="M14.6073 15.5234L14.9171 15.8926L14.3633 16.3573L14.0535 15.9881L14.6073 15.5234Z" fill="#F9E813"/>
<path fill-rule="evenodd" clip-rule="evenodd" d="M14.3624 15.2324L14.5173 15.417L13.9635 15.8817L13.8087 15.6971L14.3624 15.2324Z" fill="#F9E813"/>
<path fill-rule="evenodd" clip-rule="evenodd" d="M14.1428 14.6699L14.9999 15.6913L14.8153 15.8462L13.9582 14.8248L14.1428 14.6699Z" fill="#060101"/>
<path fill-rule="evenodd" clip-rule="evenodd" d="M13.6998 15.041L14.5569 16.0624L14.3723 16.2173L13.5152 15.1959L13.6998 15.041Z" fill="#060101"/>
<path fill-rule="evenodd" clip-rule="evenodd" d="M14.413 14.6914L14.5679 14.876L14.3833 15.0309L14.2284 14.8463L14.413 14.6914Z" fill="#F9E813"/>
<path fill-rule="evenodd" clip-rule="evenodd" d="M14.9027 15.2754L15.0576 15.46L14.873 15.6149L14.7181 15.4303L14.9027 15.2754Z" fill="#F9E813"/>
<path fill-rule="evenodd" clip-rule="evenodd" d="M14.8054 14.8594L14.9603 15.044L14.5911 15.3537L14.4362 15.1692L14.8054 14.8594Z" fill="#F9E813"/>
<path d="M12.5583 10.167C12.555 10.1833 12.4508 10.6631 11.8982 10.6631C11.3455 10.6631 11.2414 10.1833 11.238 10.167V9.20508H12.5583V10.167ZM11.6189 10.1689C11.5139 10.169 11.4287 10.2551 11.4285 10.3613C11.4285 10.4678 11.5137 10.5546 11.6189 10.5547C11.7241 10.5547 11.8093 10.4678 11.8093 10.3613C11.8091 10.255 11.724 10.1689 11.6189 10.1689ZM12.1902 10.1689C12.0852 10.1691 12 10.2551 11.9998 10.3613C11.9998 10.4677 12.0851 10.5546 12.1902 10.5547C12.2954 10.5547 12.3806 10.4678 12.3806 10.3613C12.3804 10.255 12.2953 10.1689 12.1902 10.1689ZM11.905 9.7832C11.7998 9.7832 11.7146 9.8701 11.7146 9.97656C11.7148 10.0828 11.8 10.1689 11.905 10.1689C12.0099 10.1688 12.0952 10.0827 12.0955 9.97656C12.0955 9.87021 12.0101 9.78338 11.905 9.7832ZM11.6189 9.39746C11.5137 9.39751 11.4285 9.48439 11.4285 9.59082C11.4286 9.69716 11.5138 9.78315 11.6189 9.7832C11.724 9.7832 11.8092 9.69719 11.8093 9.59082C11.8093 9.48436 11.7241 9.39746 11.6189 9.39746ZM12.1902 9.39746C12.0851 9.39759 11.9998 9.48443 11.9998 9.59082C11.9999 9.69711 12.0852 9.78308 12.1902 9.7832C12.2953 9.7832 12.3805 9.69719 12.3806 9.59082C12.3806 9.48436 12.2954 9.39746 12.1902 9.39746Z" fill="#013399"/>
<path d="M12.5583 12.2881C12.555 12.3044 12.4508 12.7842 11.8982 12.7842C11.3455 12.7842 11.2414 12.3044 11.238 12.2881V11.3262H12.5583V12.2881ZM11.6189 12.29C11.5139 12.2901 11.4287 12.3762 11.4285 12.4824C11.4285 12.5889 11.5137 12.6757 11.6189 12.6758C11.7241 12.6758 11.8093 12.5889 11.8093 12.4824C11.8091 12.3761 11.724 12.29 11.6189 12.29ZM12.1902 12.29C12.0852 12.2902 12 12.3762 11.9998 12.4824C11.9998 12.5888 12.0851 12.6757 12.1902 12.6758C12.2954 12.6758 12.3806 12.5889 12.3806 12.4824C12.3804 12.3761 12.2953 12.29 12.1902 12.29ZM11.905 11.9043C11.7998 11.9043 11.7146 11.9912 11.7146 12.0977C11.7148 12.2039 11.8 12.29 11.905 12.29C12.0099 12.2899 12.0952 12.2038 12.0955 12.0977C12.0955 11.9913 12.0101 11.9045 11.905 11.9043ZM11.6189 11.5186C11.5137 11.5186 11.4285 11.6055 11.4285 11.7119C11.4286 11.8183 11.5138 11.9042 11.6189 11.9043C11.724 11.9043 11.8092 11.8183 11.8093 11.7119C11.8093 11.6054 11.7241 11.5186 11.6189 11.5186ZM12.1902 11.5186C12.0851 11.5187 11.9998 11.6055 11.9998 11.7119C11.9999 11.8182 12.0852 11.9042 12.1902 11.9043C12.2953 11.9043 12.3805 11.8183 12.3806 11.7119C12.3806 11.6054 12.2954 11.5186 12.1902 11.5186Z" fill="#013399"/>
<path d="M14.2726 12.2881C14.2692 12.3044 14.165 12.7842 13.6124 12.7842C13.0598 12.7842 12.9556 12.3044 12.9523 12.2881V11.3262H14.2726V12.2881ZM13.3331 12.29C13.2281 12.2901 13.1429 12.3762 13.1427 12.4824C13.1427 12.5889 13.228 12.6757 13.3331 12.6758C13.4383 12.6758 13.5236 12.5889 13.5236 12.4824C13.5234 12.3761 13.4382 12.29 13.3331 12.29ZM13.9044 12.29C13.7995 12.2902 13.7142 12.3762 13.714 12.4824C13.714 12.5888 13.7993 12.6757 13.9044 12.6758C14.0096 12.6758 14.0948 12.5889 14.0948 12.4824C14.0946 12.3761 14.0095 12.29 13.9044 12.29ZM13.6193 11.9043C13.5141 11.9043 13.4288 11.9912 13.4288 12.0977C13.429 12.2039 13.5142 12.29 13.6193 12.29C13.7242 12.2899 13.8095 12.2038 13.8097 12.0977C13.8097 11.9913 13.7243 11.9045 13.6193 11.9043ZM13.3331 11.5186C13.228 11.5186 13.1427 11.6055 13.1427 11.7119C13.1428 11.8183 13.228 11.9042 13.3331 11.9043C13.4383 11.9043 13.5235 11.8183 13.5236 11.7119C13.5236 11.6054 13.4383 11.5186 13.3331 11.5186ZM13.9044 11.5186C13.7993 11.5187 13.714 11.6055 13.714 11.7119C13.7141 11.8182 13.7994 11.9042 13.9044 11.9043C14.0096 11.9043 14.0947 11.8183 14.0948 11.7119C14.0948 11.6054 14.0096 11.5186 13.9044 11.5186Z" fill="#013399"/>
<path d="M10.8441 12.2881C10.8407 12.3044 10.7366 12.7842 10.184 12.7842C9.63131 12.7842 9.52717 12.3044 9.5238 12.2881V11.3262H10.8441V12.2881ZM9.90466 12.29C9.79963 12.2901 9.71443 12.3762 9.71423 12.4824C9.71423 12.5889 9.79951 12.6757 9.90466 12.6758C10.0099 12.6758 10.0951 12.5889 10.0951 12.4824C10.0949 12.3761 10.0097 12.29 9.90466 12.29ZM10.476 12.29C10.371 12.2902 10.2857 12.3762 10.2855 12.4824C10.2855 12.5888 10.3709 12.6757 10.476 12.6758C10.5811 12.6758 10.6664 12.5889 10.6664 12.4824C10.6662 12.3761 10.581 12.29 10.476 12.29ZM10.1908 11.9043C10.0856 11.9043 10.0004 11.9912 10.0004 12.0977C10.0006 12.2039 10.0857 12.29 10.1908 12.29C10.2957 12.2899 10.381 12.2038 10.3812 12.0977C10.3812 11.9913 10.2958 11.9045 10.1908 11.9043ZM9.90466 11.5186C9.79951 11.5186 9.71423 11.6055 9.71423 11.7119C9.71434 11.8183 9.79957 11.9042 9.90466 11.9043C10.0098 11.9043 10.095 11.8183 10.0951 11.7119C10.0951 11.6054 10.0099 11.5186 9.90466 11.5186ZM10.476 11.5186C10.3709 11.5187 10.2855 11.6055 10.2855 11.7119C10.2856 11.8182 10.3709 11.9042 10.476 11.9043C10.5811 11.9043 10.6663 11.8183 10.6664 11.7119C10.6664 11.6054 10.5811 11.5186 10.476 11.5186Z" fill="#013399"/>
<path d="M12.5583 14.4072C12.555 14.4236 12.4508 14.9033 11.8982 14.9033C11.3455 14.9033 11.2414 14.4235 11.238 14.4072V13.4453H12.5583V14.4072ZM11.6189 14.4092C11.5139 14.4092 11.4287 14.4953 11.4285 14.6016C11.4285 14.708 11.5137 14.7949 11.6189 14.7949C11.7241 14.7949 11.8093 14.708 11.8093 14.6016C11.8091 14.4953 11.724 14.4092 11.6189 14.4092ZM12.1902 14.4092C12.0852 14.4093 12 14.4953 11.9998 14.6016C11.9998 14.7079 12.0851 14.7948 12.1902 14.7949C12.2954 14.7949 12.3806 14.708 12.3806 14.6016C12.3804 14.4953 12.2953 14.4092 12.1902 14.4092ZM11.905 14.0234C11.7998 14.0234 11.7146 14.1103 11.7146 14.2168C11.7148 14.3231 11.8 14.4092 11.905 14.4092C12.0099 14.409 12.0952 14.323 12.0955 14.2168C12.0955 14.1104 12.0101 14.0236 11.905 14.0234ZM11.6189 13.6377C11.5137 13.6377 11.4285 13.7246 11.4285 13.8311C11.4286 13.9374 11.5138 14.0234 11.6189 14.0234C11.724 14.0234 11.8092 13.9374 11.8093 13.8311C11.8093 13.7246 11.7241 13.6377 11.6189 13.6377ZM12.1902 13.6377C12.0851 13.6378 11.9998 13.7247 11.9998 13.8311C11.9999 13.9373 12.0852 14.0233 12.1902 14.0234C12.2953 14.0234 12.3805 13.9374 12.3806 13.8311C12.3806 13.7246 12.2954 13.6377 12.1902 13.6377Z" fill="#013399"/>
</g>
<defs>
<clipPath id="clip0_299_35775">
<rect width="32" height="24" fill="white"/>
</clipPath>
</defs>
</svg>
