<svg width="32" height="24" viewBox="0 0 32 24" fill="none" xmlns="http://www.w3.org/2000/svg">
<g clip-path="url(#clip0_299_35779)">
<rect width="32" height="24" fill="white"/>
<path fill-rule="evenodd" clip-rule="evenodd" d="M0 0V24H32V0H0Z" fill="#F7FCFF"/>
<mask id="mask0_299_35779" style="mask-type:luminance" maskUnits="userSpaceOnUse" x="0" y="0" width="32" height="24">
<path fill-rule="evenodd" clip-rule="evenodd" d="M0 0V24H32V0H0Z" fill="white"/>
</mask>
<g mask="url(#mask0_299_35779)">
<path d="M16 8.1748C18.1125 8.1748 19.8252 9.88751 19.8252 12C19.8252 14.1125 18.1125 15.8252 16 15.8252C13.8875 15.8252 12.1748 14.1125 12.1748 12C12.1748 9.88751 13.8875 8.1748 16 8.1748Z" stroke="#272727" stroke-width="0.35"/>
<path d="M16 9C16.7712 9 17.4744 9.29134 18.0059 9.76953C18.6161 10.3187 19 11.1144 19 12C19 13.6569 17.6569 15 16 15C14.3431 15 13 13.6569 13 12C13 10.9919 13.4972 10.0996 14.2598 9.55566C14.7505 9.20566 15.3513 9 16 9ZM16 9.34961C15.4305 9.34961 14.9027 9.52926 14.4707 9.83496C13.7925 10.3149 13.3496 11.1059 13.3496 12C13.3496 13.4636 14.5364 14.6504 16 14.6504C17.4636 14.6504 18.6504 13.4636 18.6504 12C18.6504 11.2439 18.3332 10.5619 17.8252 10.0791C17.35 9.62751 16.7073 9.34961 16 9.34961Z" fill="#272727"/>
<path fill-rule="evenodd" clip-rule="evenodd" d="M0 0V8H32V0H0Z" fill="#F05234"/>
<path fill-rule="evenodd" clip-rule="evenodd" d="M0 16V24H32V16H0Z" fill="#3D58DB"/>
<path d="M14.6167 10.0029L14.9013 10.414C14.2414 10.8708 13.9427 11.4072 14.1866 12.3173C14.4281 13.2186 14.9947 13.666 15.9377 13.6988L15.9204 14.1985C14.7583 14.1581 13.9733 13.6819 13.6747 12.5675C13.3785 11.4618 13.7749 10.5856 14.6167 10.0029Z" fill="#73BE4A"/>
<path fill-rule="evenodd" clip-rule="evenodd" d="M16 12.3142L15.1183 12.9127L15.4151 11.8893L14.5734 11.2357L15.6385 11.2017L16 10.1992L16.3615 11.2017L17.4266 11.2357L16.5849 11.8893L16.8817 12.9127L16 12.3142Z" fill="#FBCD17"/>
<path d="M17.1677 10.176C17.1677 10.176 18.2939 10.9557 17.8888 12.4675C17.4837 13.9793 15.9048 14.0341 15.9048 14.0341" stroke="#73BE4A" stroke-width="0.5"/>
<path d="M14.5641 9.04297L15.0309 9.76119L14.5641 9.04297Z" fill="#F7FCFF"/>
</g>
</g>
<defs>
<clipPath id="clip0_299_35779">
<rect width="32" height="24" fill="white"/>
</clipPath>
</defs>
</svg>
