<svg width="32" height="24" viewBox="0 0 32 24" fill="none" xmlns="http://www.w3.org/2000/svg">
<g clip-path="url(#clip0_299_35831)">
<rect width="32" height="24" fill="white"/>
<path fill-rule="evenodd" clip-rule="evenodd" d="M0 0V24H32V0H0Z" fill="#4857A1"/>
<mask id="mask0_299_35831" style="mask-type:luminance" maskUnits="userSpaceOnUse" x="0" y="0" width="32" height="24">
<path fill-rule="evenodd" clip-rule="evenodd" d="M0 0V24H32V0H0Z" fill="white"/>
</mask>
<g mask="url(#mask0_299_35831)">
<path fill-rule="evenodd" clip-rule="evenodd" d="M0 0V8H32V0H0Z" fill="#C51918"/>
<path fill-rule="evenodd" clip-rule="evenodd" d="M0 16V24H32V16H0Z" fill="#F7FCFF"/>
<path fill-rule="evenodd" clip-rule="evenodd" d="M11.6533 3.4375V3.43555C12.9733 3.55528 15.0135 4.2382 15.3936 4.96387C15.5623 5.28626 15.3444 5.55378 15.1153 5.94238C14.6723 6.69384 14.4187 7.29101 13.9698 7.5625L13.9776 8.7666L8.08206 8.71582L8.07424 7.5C7.6816 7.20528 7.43384 6.64014 7.02249 5.94238C6.79339 5.55379 6.57457 5.28622 6.74319 4.96387C7.02856 4.41863 8.32102 3.88825 9.50588 3.60742C9.73994 3.52412 9.98498 3.44657 10.2276 3.37207L10.335 3.4502C10.4286 3.43741 10.5194 3.42685 10.6065 3.41895L10.7422 3.72168H11.2227C11.2227 3.72168 11.5127 4.58264 11.5127 5.06055C11.5127 5.53843 11.2227 5.93359 11.2227 5.93359V6.26367C11.2734 6.2679 11.3265 6.27429 11.3819 6.28027C11.3822 6.25128 11.3842 6.22075 11.3897 6.18945C11.4174 6.0321 11.5034 5.91533 11.5821 5.92871C11.6608 5.9426 11.7026 6.08169 11.6748 6.23926C11.6702 6.26554 11.6609 6.2899 11.6533 6.31348C11.9652 6.35579 12.3152 6.41366 12.6465 6.47461C13.0972 5.60107 13.9024 4.76474 13.4727 4.33301C13.4135 4.27358 13.3055 4.21911 13.167 4.16797C12.7146 4.05555 12.2217 3.96919 11.7432 3.92578L11.7285 3.84668C11.6331 3.83117 11.5415 3.81612 11.4561 3.80273L11.3428 3.34961C11.4386 3.37905 11.5436 3.40645 11.6533 3.4375ZM14.2168 4.50586C14.5407 5.11271 13.8319 5.71119 13.3028 6.60547C13.354 6.61579 13.4034 6.62517 13.4502 6.63477C13.4485 6.58862 13.4524 6.53615 13.4668 6.48242C13.5083 6.328 13.6044 6.21954 13.6817 6.24023C13.7589 6.26105 13.7875 6.40308 13.7461 6.55762C13.7333 6.60551 13.7136 6.64799 13.6924 6.68457C13.862 6.72027 13.9658 6.74023 13.9658 6.74023V6.90723C14.5489 6.45631 14.9638 5.46409 15.001 5.1377C15.0235 4.9401 14.7092 4.71213 14.2168 4.50586ZM8.07522 4.47656C7.50084 4.6988 7.11434 4.94103 7.13674 5.1377C7.17195 5.44648 7.54357 6.35318 8.07717 6.83203C8.11783 6.8207 8.32411 6.76475 8.61331 6.69043C8.59069 6.65538 8.56885 6.61476 8.55374 6.56836C8.50434 6.41634 8.52574 6.2731 8.60159 6.24805C8.67771 6.22331 8.77966 6.32627 8.82913 6.47852C8.84649 6.53196 8.85201 6.58433 8.85256 6.63086C8.89144 6.62118 8.93121 6.61147 8.97171 6.60156C8.43467 5.69615 7.71434 5.09197 8.07522 4.47656ZM10.5078 3.87793C10.1297 3.92569 9.73078 4.00104 9.34475 4.09277C9.09501 4.16355 8.89615 4.2435 8.80667 4.33301C8.38104 4.76062 9.16523 5.58572 9.61819 6.4502C9.83215 6.40386 10.0474 6.36219 10.2481 6.32812C10.2393 6.29683 10.2317 6.26262 10.2285 6.22656C10.2147 6.06724 10.268 5.93275 10.3477 5.92578C10.4274 5.91901 10.5037 6.0428 10.5176 6.20215C10.5202 6.23157 10.5174 6.26002 10.5157 6.28711C10.574 6.27926 10.6301 6.27201 10.6836 6.2666V5.89844C10.6824 5.89707 10.4325 5.61659 10.3936 5.03418C10.3657 4.61535 10.4566 4.12316 10.5078 3.87793Z" fill="#F6C540"/>
<path d="M8.24683 7.94141C8.36671 7.94161 8.46362 8.03925 8.46362 8.15918C8.46352 8.27903 8.36665 8.37577 8.24683 8.37598C8.12683 8.37598 8.02915 8.27916 8.02905 8.15918C8.02905 8.03912 8.12676 7.94141 8.24683 7.94141ZM14.0437 7.94141C14.1637 7.94149 14.2605 8.03917 14.2605 8.15918C14.2604 8.27911 14.1636 8.37589 14.0437 8.37598C13.9237 8.37598 13.826 8.27916 13.8259 8.15918C13.8259 8.03912 13.9236 7.94141 14.0437 7.94141ZM10.9998 7.65137C11.2798 7.65137 11.5074 7.78141 11.5076 7.94141C11.5076 8.10149 11.2799 8.23145 10.9998 8.23145C10.7198 8.23135 10.4929 8.10143 10.4929 7.94141C10.4931 7.78147 10.7199 7.65146 10.9998 7.65137ZM10.9998 2.86914C11.3599 2.86914 11.6521 3.15438 11.6521 3.50586C11.6519 3.85719 11.3598 4.1416 10.9998 4.1416C10.6398 4.14144 10.3476 3.85709 10.3474 3.50586C10.3474 3.15448 10.6397 2.8693 10.9998 2.86914Z" fill="#2E42A5"/>
<path d="M9.55078 7.79688C9.75088 7.79688 9.91309 7.89459 9.91309 8.01465C9.91274 8.13453 9.75067 8.23145 9.55078 8.23145C9.3509 8.23144 9.18882 8.13453 9.18848 8.01465C9.18848 7.89459 9.35068 7.79688 9.55078 7.79688ZM12.5947 7.79688C12.7946 7.79702 12.957 7.89468 12.957 8.01465C12.9567 8.13444 12.7944 8.2313 12.5947 8.23145C12.3948 8.23145 12.2328 8.13453 12.2324 8.01465C12.2324 7.89459 12.3946 7.79688 12.5947 7.79688Z" fill="#C5363C"/>
<path fill-rule="evenodd" clip-rule="evenodd" d="M8.16721 6.3916C8.24329 6.3673 8.34438 6.47103 8.39377 6.62305C8.44311 6.77518 8.42199 6.91864 8.34592 6.94336C8.26981 6.9679 8.16781 6.86406 8.11838 6.71191C8.06902 6.55976 8.09113 6.41632 8.16721 6.3916ZM13.8352 6.59277C13.92 6.4571 14.0437 6.38143 14.1115 6.42383C14.1791 6.46644 14.165 6.6105 14.0803 6.74609C13.9955 6.88185 13.8718 6.95745 13.8039 6.91504C13.7363 6.87243 13.7504 6.72837 13.8352 6.59277ZM12.0871 5.91211C12.1671 5.91227 12.2317 6.04217 12.2317 6.20215C12.2316 6.36205 12.1671 6.49203 12.0871 6.49219C12.0071 6.49219 11.9417 6.36215 11.9416 6.20215C11.9416 6.04207 12.0071 5.91211 12.0871 5.91211ZM9.82346 5.92676C9.89958 5.90202 10.0015 6.00498 10.051 6.15723C10.1004 6.30945 10.0783 6.45281 10.0022 6.47754C9.92616 6.50176 9.82504 6.39883 9.77561 6.24707C9.72618 6.09494 9.74747 5.95165 9.82346 5.92676Z" fill="#F7FCFF"/>
<path d="M7.16626 5.81348C7.29838 5.81709 7.40454 5.9256 7.40454 6.05859C7.40439 6.19373 7.2946 6.30371 7.15942 6.30371C7.02426 6.3037 6.91446 6.19372 6.91431 6.05859C6.91431 5.98107 6.95086 5.91207 7.00708 5.86719C7.00956 5.86726 7.01239 5.86816 7.01489 5.86816C7.07258 5.86808 7.12445 5.84692 7.16626 5.81348ZM15.1233 5.81348C15.1652 5.8471 15.2177 5.86816 15.2756 5.86816C15.2779 5.86816 15.2802 5.86725 15.2825 5.86719C15.3388 5.91206 15.3752 5.98097 15.3752 6.05859C15.3751 6.19373 15.2653 6.30371 15.1301 6.30371C14.9951 6.30353 14.8861 6.19362 14.886 6.05859C14.886 5.92572 14.9913 5.81727 15.1233 5.81348ZM7.15942 6.01367C7.13462 6.01368 7.1145 6.03379 7.1145 6.05859C7.11466 6.08327 7.13472 6.1035 7.15942 6.10352C7.18414 6.10352 7.20419 6.08327 7.20435 6.05859C7.20435 6.03378 7.18424 6.01367 7.15942 6.01367ZM15.1301 6.01367C15.1055 6.01385 15.0852 6.03389 15.0852 6.05859C15.0854 6.08316 15.1056 6.10334 15.1301 6.10352C15.1548 6.10352 15.1749 6.08327 15.175 6.05859C15.175 6.03378 15.1549 6.01367 15.1301 6.01367ZM8.84399 5.39551C8.93446 5.43138 8.99809 5.51985 8.99829 5.62305C8.99829 5.75832 8.88844 5.86816 8.75317 5.86816C8.61812 5.86791 8.50903 5.75816 8.50903 5.62305C8.50907 5.60136 8.51249 5.58056 8.51782 5.56055C8.54596 5.57183 8.57647 5.57811 8.60864 5.57812C8.72239 5.57812 8.81644 5.50062 8.84399 5.39551ZM13.4456 5.39551C13.4731 5.50057 13.5672 5.578 13.6809 5.57812C13.713 5.57812 13.7436 5.57176 13.7717 5.56055C13.7771 5.58059 13.7815 5.60133 13.7815 5.62305C13.7815 5.75828 13.6716 5.8681 13.5364 5.86816C13.4011 5.86816 13.2913 5.75832 13.2913 5.62305C13.2915 5.51997 13.3552 5.43146 13.4456 5.39551ZM7.10474 5.39551C7.19526 5.43136 7.25884 5.51981 7.25903 5.62305C7.25903 5.70049 7.22237 5.76859 7.16626 5.81348C7.164 5.81341 7.1617 5.81348 7.15942 5.81348C7.10169 5.81348 7.04895 5.83377 7.00708 5.86719C6.87527 5.86324 6.76978 5.75582 6.76978 5.62305C6.76982 5.60137 6.77324 5.58055 6.77856 5.56055C6.8067 5.57185 6.83722 5.5781 6.86938 5.57812C6.98312 5.57812 7.07717 5.5006 7.10474 5.39551ZM15.1838 5.39551C15.2113 5.50072 15.3064 5.57806 15.4202 5.57812C15.452 5.57812 15.4821 5.57158 15.51 5.56055C15.5154 5.58066 15.5207 5.60125 15.5208 5.62305C15.5208 5.75594 15.4144 5.86342 15.2825 5.86719C15.2406 5.83387 15.1878 5.81348 15.1301 5.81348C15.1278 5.81348 15.1256 5.81341 15.1233 5.81348C15.0673 5.76859 15.0305 5.70039 15.0305 5.62305C15.0307 5.52025 15.0939 5.43165 15.1838 5.39551ZM7.01489 5.57812C6.99024 5.57812 6.97023 5.59845 6.96997 5.62305C6.96997 5.64786 6.99008 5.66797 7.01489 5.66797C7.03953 5.66777 7.05981 5.64773 7.05981 5.62305C7.05956 5.59857 7.03938 5.57832 7.01489 5.57812ZM8.75317 5.57812C8.72873 5.57838 8.7085 5.59861 8.70825 5.62305C8.70825 5.6477 8.72858 5.66771 8.75317 5.66797C8.77799 5.66797 8.7981 5.64786 8.7981 5.62305C8.79784 5.59846 8.77783 5.57812 8.75317 5.57812ZM13.5364 5.57812C13.5117 5.57812 13.4917 5.59845 13.4915 5.62305C13.4915 5.64786 13.5116 5.66797 13.5364 5.66797C13.5611 5.6679 13.5813 5.64782 13.5813 5.62305C13.581 5.59849 13.561 5.57819 13.5364 5.57812ZM15.2756 5.57812C15.251 5.57812 15.231 5.59845 15.2307 5.62305C15.2307 5.64786 15.2508 5.66797 15.2756 5.66797C15.3003 5.66783 15.3206 5.64778 15.3206 5.62305C15.3203 5.59853 15.3002 5.57826 15.2756 5.57812ZM13.5901 5.10645C13.6178 5.21127 13.7129 5.28906 13.8264 5.28906C13.8583 5.28902 13.8883 5.28162 13.9163 5.27051C13.9217 5.29078 13.926 5.312 13.926 5.33398C13.9259 5.43703 13.8619 5.52451 13.7717 5.56055C13.7438 5.45599 13.6497 5.37896 13.5364 5.37891C13.5044 5.37891 13.4736 5.38436 13.4456 5.39551C13.4404 5.37575 13.4358 5.35536 13.4358 5.33398C13.4358 5.23094 13.5 5.14261 13.5901 5.10645ZM6.96021 5.10645C7.05055 5.1425 7.1145 5.23078 7.1145 5.33398C7.11447 5.3554 7.10993 5.37571 7.10474 5.39551C7.07695 5.3845 7.04659 5.37895 7.01489 5.37891C6.90147 5.37891 6.80642 5.4559 6.77856 5.56055C6.68857 5.52441 6.6244 5.43687 6.62427 5.33398C6.62427 5.31213 6.62769 5.29067 6.63306 5.27051C6.6614 5.28197 6.6924 5.28906 6.72485 5.28906C6.83827 5.28898 6.93244 5.21115 6.96021 5.10645ZM8.69849 5.10645C8.78922 5.14232 8.85376 5.2305 8.85376 5.33398C8.85373 5.35539 8.84918 5.37572 8.84399 5.39551C8.81607 5.38443 8.78504 5.37891 8.75317 5.37891C8.63997 5.37912 8.54565 5.45606 8.51782 5.56055C8.42777 5.52443 8.36366 5.43692 8.36353 5.33398C8.36353 5.31212 8.36694 5.29068 8.37231 5.27051C8.40063 5.28195 8.43169 5.28906 8.46411 5.28906C8.5774 5.28892 8.67066 5.211 8.69849 5.10645ZM15.3293 5.10645C15.3571 5.21125 15.4521 5.28906 15.5657 5.28906C15.5975 5.28901 15.6276 5.28163 15.6555 5.27051C15.6609 5.29077 15.6653 5.31201 15.6653 5.33398C15.6652 5.43731 15.6006 5.5247 15.51 5.56055C15.4821 5.45614 15.3888 5.37902 15.2756 5.37891C15.2434 5.37891 15.212 5.38417 15.1838 5.39551C15.1787 5.37581 15.1751 5.35529 15.175 5.33398C15.175 5.23089 15.2392 5.14258 15.3293 5.10645ZM6.86938 5.28906C6.84467 5.28917 6.82446 5.30924 6.82446 5.33398C6.82463 5.35858 6.84477 5.3788 6.86938 5.37891C6.89409 5.37891 6.91414 5.35865 6.91431 5.33398C6.91431 5.30917 6.8942 5.28906 6.86938 5.28906ZM8.60864 5.28906C8.58387 5.28911 8.56372 5.3092 8.56372 5.33398C8.56389 5.35863 8.58397 5.37886 8.60864 5.37891C8.63335 5.37891 8.65339 5.35865 8.65356 5.33398C8.65356 5.30917 8.63346 5.28906 8.60864 5.28906ZM13.6809 5.28906C13.6562 5.28921 13.636 5.30926 13.636 5.33398C13.6362 5.35856 13.6563 5.37876 13.6809 5.37891C13.7056 5.37891 13.7257 5.35865 13.7258 5.33398C13.7258 5.30917 13.7057 5.28906 13.6809 5.28906ZM15.4202 5.28906C15.3954 5.28914 15.3752 5.30922 15.3752 5.33398C15.3754 5.3586 15.3955 5.37883 15.4202 5.37891C15.4449 5.37891 15.4649 5.35865 15.4651 5.33398C15.4651 5.30917 15.445 5.28906 15.4202 5.28906ZM6.72485 4.79883C6.7419 4.79884 6.75859 4.80038 6.77466 4.80371C6.79436 4.89918 6.86956 4.97458 6.96509 4.99414C6.96838 5.01015 6.96997 5.02696 6.96997 5.04395C6.96996 5.06566 6.96552 5.0864 6.96021 5.10645C6.93214 5.09524 6.90145 5.08887 6.86938 5.08887C6.75606 5.08896 6.66091 5.16593 6.63306 5.27051C6.5433 5.2342 6.47979 5.1467 6.47974 5.04395C6.47974 4.90868 6.58958 4.79883 6.72485 4.79883ZM8.47095 4.79883C8.60291 4.80261 8.70825 4.91107 8.70825 5.04395C8.70824 5.06574 8.70384 5.08633 8.69849 5.10645C8.67062 5.09543 8.64042 5.08887 8.60864 5.08887C8.49527 5.0889 8.40019 5.16591 8.37231 5.27051C8.2825 5.23423 8.21905 5.14674 8.21899 5.04395C8.21899 4.96629 8.25539 4.89741 8.31177 4.85254C8.31405 4.8526 8.3163 4.85351 8.3186 4.85352C8.37656 4.85352 8.429 4.83248 8.47095 4.79883ZM13.8186 4.79883C13.8606 4.83257 13.9129 4.85349 13.9709 4.85352C13.9729 4.85352 13.9749 4.85258 13.9768 4.85254C14.0337 4.89739 14.0706 4.96591 14.0706 5.04395C14.0705 5.14718 14.0067 5.23452 13.9163 5.27051C13.8883 5.16606 13.7942 5.08887 13.6809 5.08887C13.6488 5.0889 13.6182 5.09517 13.5901 5.10645C13.5848 5.08643 13.5813 5.06562 13.5813 5.04395C13.5813 4.91119 13.6868 4.80279 13.8186 4.79883ZM15.2756 4.50879C15.4108 4.50892 15.5207 4.61874 15.5208 4.75391C15.5208 4.77098 15.5182 4.78762 15.5149 4.80371H15.5159C15.5318 4.80045 15.5488 4.79883 15.5657 4.79883C15.7007 4.79906 15.8098 4.90882 15.8098 5.04395C15.8098 5.14714 15.7459 5.23449 15.6555 5.27051C15.6275 5.16604 15.5335 5.08887 15.4202 5.08887C15.388 5.08889 15.3575 5.09518 15.3293 5.10645C15.324 5.08642 15.3206 5.06563 15.3206 5.04395C15.3206 5.02659 15.322 5.0095 15.3254 4.99316C15.4205 4.97338 15.4942 4.89879 15.5139 4.80371C15.4196 4.82379 15.3453 4.89872 15.3254 4.99316C15.3093 4.99652 15.2927 4.99901 15.2756 4.99902C15.1413 4.99902 15.0321 4.89078 15.0305 4.75684C15.1442 4.73564 15.2307 4.63644 15.2307 4.5166C15.2307 4.51529 15.2298 4.514 15.2297 4.5127C15.2445 4.50992 15.2601 4.50879 15.2756 4.50879ZM6.72485 4.99902C6.70004 4.99902 6.67993 5.01913 6.67993 5.04395C6.68 5.0687 6.70009 5.08887 6.72485 5.08887C6.74954 5.08877 6.7697 5.06863 6.76978 5.04395C6.76978 5.0192 6.74958 4.99913 6.72485 4.99902ZM8.46411 4.99902C8.4393 4.99902 8.41919 5.01913 8.41919 5.04395C8.41926 5.0687 8.43934 5.08887 8.46411 5.08887C8.48873 5.0887 8.50896 5.06859 8.50903 5.04395C8.50903 5.01924 8.48878 4.99919 8.46411 4.99902ZM13.8264 4.99902C13.8016 4.99902 13.7815 5.01913 13.7815 5.04395C13.7816 5.0687 13.8016 5.08887 13.8264 5.08887C13.851 5.08871 13.8713 5.0686 13.8713 5.04395C13.8713 5.01923 13.8511 4.99919 13.8264 4.99902ZM15.5657 4.99902C15.5409 4.99902 15.5208 5.01913 15.5208 5.04395C15.5208 5.0687 15.5409 5.08887 15.5657 5.08887C15.5902 5.08864 15.6105 5.06855 15.6106 5.04395C15.6106 5.01928 15.5903 4.99925 15.5657 4.99902ZM7.05981 4.5127C7.05979 4.514 7.05982 4.5153 7.05981 4.5166C7.05981 4.63599 7.145 4.73513 7.25806 4.75684C7.25651 4.89065 7.14902 4.99882 7.01489 4.99902C6.99798 4.99902 6.98104 4.99741 6.96509 4.99414C6.94549 4.89876 6.86998 4.82346 6.77466 4.80371C6.77134 4.78764 6.76978 4.77095 6.76978 4.75391C6.7698 4.61866 6.87964 4.50879 7.01489 4.50879C7.03021 4.50881 7.04528 4.50998 7.05981 4.5127ZM8.51489 4.46387C8.5451 4.5046 8.56372 4.55477 8.56372 4.60938C8.56361 4.68655 8.52681 4.75401 8.47095 4.79883C8.46868 4.79876 8.4664 4.79883 8.46411 4.79883C8.4065 4.79883 8.35359 4.81925 8.31177 4.85254C8.17991 4.84877 8.07367 4.7421 8.07349 4.60938C8.07349 4.55509 8.09145 4.50447 8.12134 4.46387C8.16586 4.52455 8.23759 4.56437 8.3186 4.56445C8.3994 4.56445 8.47028 4.5242 8.51489 4.46387ZM14.1672 4.46387C14.1974 4.50458 14.2161 4.5548 14.2161 4.60938C14.2159 4.74255 14.1093 4.84946 13.9768 4.85254C13.9352 4.8197 13.8835 4.7989 13.8264 4.79883C13.8239 4.79883 13.8211 4.79875 13.8186 4.79883C13.7629 4.754 13.7259 4.68645 13.7258 4.60938C13.7258 4.55505 13.7438 4.50449 13.7737 4.46387C13.8182 4.52454 13.8899 4.56442 13.9709 4.56445C14.0518 4.56445 14.1226 4.52425 14.1672 4.46387ZM7.01489 4.70898C6.9901 4.70898 6.97 4.72912 6.96997 4.75391C6.96997 4.77872 6.99008 4.79883 7.01489 4.79883C7.03953 4.79863 7.05981 4.77859 7.05981 4.75391C7.05979 4.72924 7.03952 4.70918 7.01489 4.70898ZM15.2756 4.70898C15.2508 4.70898 15.2307 4.72912 15.2307 4.75391C15.2307 4.77872 15.2508 4.79883 15.2756 4.79883C15.3003 4.7987 15.3206 4.77864 15.3206 4.75391C15.3205 4.7292 15.3003 4.70912 15.2756 4.70898ZM7.35376 4.27734C7.3514 4.29098 7.34888 4.30502 7.34888 4.31934C7.34895 4.43736 7.43301 4.53548 7.54419 4.55859C7.52433 4.67393 7.42496 4.76172 7.30396 4.76172C7.28822 4.76169 7.27296 4.7597 7.25806 4.75684L7.25903 4.75391C7.25901 4.6341 7.17347 4.5339 7.05981 4.5127C7.06212 4.37956 7.17032 4.27268 7.30396 4.27246C7.32089 4.27246 7.33779 4.27407 7.35376 4.27734ZM14.9856 4.27246C15.1194 4.27249 15.2274 4.37944 15.2297 4.5127C15.1162 4.53404 15.0305 4.63422 15.0305 4.75391V4.75684C15.0159 4.75956 15.001 4.76171 14.9856 4.76172C14.8648 4.76172 14.7645 4.67455 14.7444 4.55957C14.8563 4.53702 14.9406 4.43788 14.9407 4.31934C14.9407 4.30467 14.9383 4.29033 14.9358 4.27637C14.9518 4.27307 14.9686 4.27246 14.9856 4.27246ZM8.3186 4.56445C8.29391 4.5646 8.27368 4.58465 8.27368 4.60938C8.27387 4.63394 8.29403 4.65416 8.3186 4.6543C8.3433 4.6543 8.36334 4.63403 8.36353 4.60938C8.36353 4.58456 8.34342 4.56445 8.3186 4.56445ZM13.9709 4.56445C13.9462 4.5645 13.926 4.58459 13.926 4.60938C13.9262 4.634 13.9463 4.65425 13.9709 4.6543C13.9956 4.6543 14.0157 4.63403 14.0159 4.60938C14.0159 4.58456 13.9958 4.56445 13.9709 4.56445ZM7.59399 4.07422C7.6338 4.07422 7.67112 4.08472 7.70435 4.10156C7.69668 4.1253 7.69165 4.15047 7.69165 4.17676C7.69172 4.27175 7.74634 4.35299 7.82544 4.39355C7.79375 4.49212 7.70309 4.56445 7.59399 4.56445C7.5769 4.56444 7.56029 4.56194 7.54419 4.55859C7.54653 4.54499 7.54907 4.53087 7.54907 4.5166C7.54888 4.39845 7.4652 4.30019 7.35376 4.27734C7.37366 4.16215 7.47314 4.07433 7.59399 4.07422ZM14.6956 4.07422C14.8165 4.07422 14.9159 4.16211 14.9358 4.27734C14.8245 4.30032 14.7407 4.39857 14.7405 4.5166C14.7405 4.53112 14.742 4.54574 14.7444 4.55957C14.7287 4.56274 14.7122 4.56445 14.6956 4.56445C14.5864 4.5644 14.4947 4.49229 14.4631 4.39355C14.5428 4.35318 14.5978 4.27218 14.5979 4.17676C14.5979 4.15043 14.5929 4.12533 14.5852 4.10156C14.6185 4.08464 14.6557 4.07424 14.6956 4.07422ZM7.30396 4.47168C7.27947 4.4719 7.25925 4.49211 7.25903 4.5166C7.25903 4.54127 7.27934 4.5613 7.30396 4.56152C7.32877 4.56152 7.34888 4.54141 7.34888 4.5166C7.34866 4.49198 7.32863 4.47168 7.30396 4.47168ZM14.9856 4.47168C14.9609 4.47168 14.9409 4.49198 14.9407 4.5166C14.9407 4.54141 14.9608 4.56152 14.9856 4.56152C15.0104 4.56149 15.0305 4.54139 15.0305 4.5166C15.0303 4.492 15.0102 4.47171 14.9856 4.47168ZM8.17407 4.12207C8.1781 4.13968 8.18188 4.15792 8.18188 4.17676C8.18187 4.19391 8.17842 4.2104 8.17505 4.22656C8.21546 4.25608 8.26475 4.27436 8.3186 4.27441C8.39946 4.27441 8.47029 4.23423 8.51489 4.17383C8.54516 4.21458 8.56372 4.26468 8.56372 4.31934C8.56369 4.37374 8.54494 4.42323 8.51489 4.46387C8.47027 4.4037 8.39927 4.36426 8.3186 4.36426C8.23773 4.36434 8.16588 4.40336 8.12134 4.46387C8.10177 4.4372 8.08782 4.40639 8.08032 4.37305C8.1282 4.33793 8.1625 4.28676 8.17505 4.22656C8.15479 4.21177 8.13719 4.19403 8.12231 4.17383C8.13694 4.15409 8.15428 4.13663 8.17407 4.12207ZM14.1145 4.12207C14.1344 4.1366 14.1515 4.15406 14.1663 4.17383C14.1513 4.19405 14.1339 4.2118 14.1135 4.22656C14.126 4.28697 14.1612 4.33886 14.2092 4.37402C14.2016 4.40725 14.1868 4.43732 14.1672 4.46387C14.1226 4.40366 14.0516 4.36426 13.9709 4.36426C13.89 4.36429 13.8183 4.40336 13.7737 4.46387C13.7439 4.42334 13.7259 4.37346 13.7258 4.31934C13.7258 4.26475 13.7445 4.21455 13.7747 4.17383C13.8192 4.23431 13.8901 4.27438 13.9709 4.27441C14.0245 4.27441 14.0732 4.25574 14.1135 4.22656C14.1102 4.21049 14.1087 4.19382 14.1086 4.17676C14.1086 4.15803 14.1105 4.1396 14.1145 4.12207ZM7.93677 3.93164C7.99016 3.9317 8.03913 3.94946 8.07935 3.97852C8.07589 3.99491 8.07349 4.01188 8.07349 4.0293C8.07349 4.0836 8.09241 4.13322 8.12231 4.17383C8.09216 4.21453 8.07349 4.26479 8.07349 4.31934C8.0735 4.33782 8.07643 4.35573 8.08032 4.37305C8.03985 4.40273 7.99079 4.42181 7.93677 4.42188C7.89657 4.42188 7.85891 4.41072 7.82544 4.39355C7.83302 4.36996 7.83909 4.34545 7.83911 4.31934C7.83911 4.22387 7.78404 4.14197 7.70435 4.10156C7.73612 4.00315 7.82778 3.93164 7.93677 3.93164ZM14.3538 3.93164C14.4626 3.93179 14.5534 4.00331 14.5852 4.10156C14.5057 4.14202 14.4504 4.22398 14.4504 4.31934C14.4505 4.34531 14.4556 4.37007 14.4631 4.39355C14.43 4.41033 14.3934 4.42182 14.3538 4.42188C14.2997 4.42188 14.2497 4.40365 14.2092 4.37402C14.2133 4.3564 14.2161 4.33818 14.2161 4.31934C14.2161 4.2645 14.1967 4.21465 14.1663 4.17383C14.1965 4.1331 14.2161 4.08389 14.2161 4.0293C14.2161 4.01152 14.2138 3.99424 14.2102 3.97754C14.2505 3.94853 14.3004 3.93164 14.3538 3.93164ZM7.59399 4.27441C7.56929 4.27454 7.54907 4.2946 7.54907 4.31934C7.54916 4.344 7.56934 4.36413 7.59399 4.36426C7.61875 4.36426 7.63883 4.34407 7.63892 4.31934C7.63892 4.29452 7.61881 4.27441 7.59399 4.27441ZM8.3186 4.27441C8.29391 4.27456 8.27368 4.29461 8.27368 4.31934C8.27377 4.34399 8.29396 4.36412 8.3186 4.36426C8.34336 4.36426 8.36344 4.34407 8.36353 4.31934C8.36353 4.29452 8.34342 4.27441 8.3186 4.27441ZM13.9709 4.27441C13.9462 4.27446 13.926 4.29455 13.926 4.31934C13.9261 4.34404 13.9462 4.36421 13.9709 4.36426C13.9957 4.36426 14.0158 4.34407 14.0159 4.31934C14.0159 4.29452 13.9958 4.27441 13.9709 4.27441ZM14.6956 4.27441C14.6708 4.27448 14.6506 4.29456 14.6506 4.31934C14.6507 4.34403 14.6709 4.36419 14.6956 4.36426C14.7203 4.36426 14.7404 4.34407 14.7405 4.31934C14.7405 4.29452 14.7204 4.27441 14.6956 4.27441ZM7.93677 4.13184C7.91195 4.13184 7.89185 4.15194 7.89185 4.17676C7.89194 4.20149 7.91201 4.22168 7.93677 4.22168C7.96139 4.22153 7.9816 4.2014 7.98169 4.17676C7.98169 4.15204 7.96145 4.13199 7.93677 4.13184ZM14.3538 4.13184C14.3289 4.13184 14.3088 4.15194 14.3088 4.17676C14.3089 4.20149 14.329 4.22168 14.3538 4.22168C14.3784 4.2215 14.3986 4.20138 14.3987 4.17676C14.3987 4.15206 14.3784 4.13202 14.3538 4.13184ZM8.3186 3.78418C8.39768 3.78418 8.46718 3.8227 8.51196 3.88086C8.51038 3.89206 8.50905 3.9034 8.50903 3.91504C8.50903 3.97098 8.52825 4.02224 8.55981 4.06348C8.55403 4.10463 8.53848 4.14189 8.51489 4.17383C8.47026 4.11373 8.39921 4.07422 8.3186 4.07422C8.26443 4.07428 8.2146 4.09225 8.17407 4.12207C8.16062 4.06321 8.12673 4.01276 8.07935 3.97852C8.10273 3.86772 8.20088 3.7843 8.3186 3.78418ZM13.9709 3.78418C14.0884 3.78418 14.1864 3.86717 14.2102 3.97754C14.1626 4.01184 14.1279 4.063 14.1145 4.12207C14.0741 4.09258 14.0248 4.07422 13.9709 4.07422C13.8903 4.07425 13.8193 4.11366 13.7747 4.17383C13.7513 4.14213 13.7346 4.10524 13.7288 4.06445C13.7609 4.02301 13.7815 3.97155 13.7815 3.91504C13.7815 3.90305 13.7793 3.89141 13.7776 3.87988C13.8224 3.822 13.8921 3.78421 13.9709 3.78418ZM8.75317 3.6709C8.83163 3.6709 8.90073 3.70825 8.94556 3.76562C8.95048 3.81187 8.96835 3.85377 8.99536 3.88867C8.99631 3.8974 8.99828 3.90606 8.99829 3.91504C8.99829 4.05031 8.88844 4.16016 8.75317 4.16016C8.67404 4.16001 8.60449 4.12184 8.55981 4.06348C8.56139 4.05224 8.56372 4.04097 8.56372 4.0293C8.56372 3.97311 8.54378 3.92218 8.51196 3.88086C8.52875 3.76213 8.62986 3.67113 8.75317 3.6709ZM13.5364 3.6709C13.6595 3.67096 13.7603 3.76153 13.7776 3.87988C13.7456 3.92128 13.7258 3.97291 13.7258 4.0293C13.7258 4.04123 13.7271 4.05297 13.7288 4.06445C13.684 4.12218 13.6151 4.16012 13.5364 4.16016C13.4011 4.16016 13.2913 4.05031 13.2913 3.91504C13.2913 3.90611 13.2923 3.89735 13.2932 3.88867C13.3205 3.85368 13.338 3.8121 13.343 3.76562C13.3878 3.70788 13.4576 3.6709 13.5364 3.6709ZM8.3186 3.98438C8.29392 3.98452 8.27369 4.00458 8.27368 4.0293C8.27368 4.05402 8.29391 4.07408 8.3186 4.07422C8.34342 4.07422 8.36353 4.05411 8.36353 4.0293C8.36351 4.00449 8.34341 3.98438 8.3186 3.98438ZM13.9709 3.98438C13.9462 3.98443 13.926 4.00453 13.926 4.0293C13.926 4.05408 13.9462 4.07417 13.9709 4.07422C13.9958 4.07422 14.0159 4.05411 14.0159 4.0293C14.0159 4.00449 13.9958 3.98438 13.9709 3.98438ZM9.18872 3.49414C9.24752 3.49421 9.30083 3.51618 9.34302 3.55078C9.31857 3.58889 9.30493 3.63496 9.30493 3.68359C9.30504 3.75919 9.33987 3.82624 9.3938 3.87109C9.35029 3.93883 9.27519 3.98428 9.18872 3.98438C9.10986 3.98438 9.04016 3.94655 8.99536 3.88867C8.9903 3.84228 8.97283 3.80054 8.94556 3.76562C8.94464 3.75701 8.9436 3.74812 8.9436 3.73926C8.94372 3.60408 9.05352 3.49414 9.18872 3.49414ZM13.1018 3.49414C13.2369 3.49432 13.3458 3.60419 13.3459 3.73926C13.3459 3.74817 13.3439 3.75696 13.343 3.76562C13.316 3.80045 13.2982 3.84251 13.2932 3.88867C13.2485 3.9461 13.1802 3.98427 13.1018 3.98438C13.0149 3.98438 12.9392 3.93841 12.8958 3.87012C12.9495 3.82526 12.9845 3.75906 12.9846 3.68359C12.9846 3.6347 12.9702 3.58902 12.9456 3.55078C12.9879 3.51573 13.0425 3.49414 13.1018 3.49414ZM8.75317 3.87012C8.72868 3.87037 8.70841 3.89052 8.70825 3.91504C8.70825 3.93969 8.72858 3.9597 8.75317 3.95996C8.77799 3.95996 8.7981 3.93985 8.7981 3.91504C8.79793 3.89037 8.77788 3.87012 8.75317 3.87012ZM13.5364 3.87012C13.5117 3.87012 13.4916 3.89037 13.4915 3.91504C13.4915 3.93985 13.5116 3.95996 13.5364 3.95996C13.5611 3.9599 13.5813 3.93981 13.5813 3.91504C13.5811 3.8904 13.561 3.87018 13.5364 3.87012ZM9.55005 3.43848C9.60399 3.43851 9.65315 3.45675 9.6936 3.48633C9.67747 3.51899 9.66821 3.55583 9.66821 3.59473C9.66827 3.67538 9.70761 3.74643 9.76782 3.79102C9.72781 3.87175 9.64625 3.92768 9.55005 3.92773C9.49053 3.92773 9.43624 3.9064 9.3938 3.87109C9.41829 3.83296 9.43384 3.78794 9.43384 3.73926C9.43377 3.66299 9.39773 3.59566 9.34302 3.55078C9.38656 3.4829 9.46342 3.43848 9.55005 3.43848ZM12.7405 3.43848C12.8267 3.43864 12.902 3.48337 12.9456 3.55078C12.8913 3.59567 12.8568 3.66336 12.8567 3.73926C12.8567 3.78758 12.8716 3.83216 12.8958 3.87012C12.8534 3.90546 12.7999 3.92762 12.7405 3.92773C12.644 3.92773 12.5607 3.87208 12.5208 3.79102C12.5815 3.74648 12.6213 3.67577 12.6213 3.59473C12.6213 3.55531 12.6115 3.51834 12.595 3.48535C12.6355 3.45557 12.6863 3.43848 12.7405 3.43848ZM9.91333 3.34961C10.0485 3.34975 10.1584 3.45954 10.1584 3.59473C10.1583 3.72982 10.0484 3.8397 9.91333 3.83984C9.8588 3.83984 9.80852 3.82115 9.76782 3.79102C9.78399 3.75839 9.79511 3.72246 9.79517 3.68359C9.79517 3.60232 9.75454 3.53088 9.6936 3.48633C9.73358 3.4054 9.81696 3.34961 9.91333 3.34961ZM12.3772 3.34961C12.4729 3.34975 12.5548 3.40524 12.595 3.48535C12.5343 3.52993 12.4954 3.6025 12.4954 3.68359C12.4954 3.72225 12.5047 3.75852 12.5208 3.79102C12.4803 3.8207 12.4312 3.83977 12.3772 3.83984C12.242 3.83984 12.1322 3.72991 12.1321 3.59473C12.1321 3.45946 12.2419 3.34961 12.3772 3.34961ZM9.18872 3.69434C9.16398 3.69434 9.14391 3.71454 9.1438 3.73926C9.1438 3.76407 9.16391 3.78418 9.18872 3.78418C9.2134 3.78402 9.23364 3.76397 9.23364 3.73926C9.23353 3.71464 9.21333 3.69449 9.18872 3.69434ZM13.1018 3.69434C13.0771 3.69434 13.057 3.71454 13.0569 3.73926C13.0569 3.76407 13.077 3.78418 13.1018 3.78418C13.1265 3.784 13.1467 3.76396 13.1467 3.73926C13.1466 3.71465 13.1264 3.69451 13.1018 3.69434ZM9.55005 3.63867C9.52524 3.63867 9.50513 3.65878 9.50513 3.68359C9.50533 3.70824 9.52536 3.72852 9.55005 3.72852C9.57467 3.72844 9.59477 3.70819 9.59497 3.68359C9.59497 3.65883 9.57479 3.63875 9.55005 3.63867ZM12.7405 3.63867C12.7157 3.63867 12.6956 3.65878 12.6956 3.68359C12.6958 3.70824 12.7158 3.72852 12.7405 3.72852C12.765 3.72827 12.7852 3.70808 12.7854 3.68359C12.7854 3.65894 12.7651 3.63893 12.7405 3.63867ZM9.91333 3.5498C9.88852 3.5498 9.86841 3.56991 9.86841 3.59473C9.86851 3.61945 9.88858 3.63965 9.91333 3.63965C9.93796 3.63951 9.95815 3.61937 9.95825 3.59473C9.95825 3.57 9.93802 3.54995 9.91333 3.5498ZM12.3772 3.5498C12.3524 3.5498 12.3323 3.56991 12.3323 3.59473C12.3324 3.61945 12.3524 3.63965 12.3772 3.63965C12.4018 3.63946 12.422 3.61933 12.4221 3.59473C12.4221 3.57003 12.4018 3.55 12.3772 3.5498Z" fill="white"/>
<path d="M11.1019 2.15481L11.1012 2.51127L11.4878 2.51151L11.4919 2.72587L11.1013 2.72562L11.1023 3.12495L10.8877 3.12813L10.887 2.72572L10.4955 2.72571L10.4901 2.51065L10.8866 2.51042L10.8864 2.15823L11.1019 2.15481Z" fill="#F6C540"/>
<path fill-rule="evenodd" clip-rule="evenodd" d="M5.78479 8.73438H16.1848V17.5678C16.1848 17.5678 15.8703 21.968 10.9848 21.968C6.09929 21.968 5.78479 17.5678 5.78479 17.5678V8.73438Z" fill="#C51918"/>
<path fill-rule="evenodd" clip-rule="evenodd" d="M8.92366 9.04102C8.8283 9.04102 8.68149 9.10951 8.4869 9.18707C8.29231 9.26462 8.08796 9.43208 8.28743 9.59979C8.4869 9.76751 8.77246 10.1356 8.77246 9.99799C8.77246 9.86036 9.11358 9.72691 9.11358 9.79363C9.11358 9.86036 9.00798 9.99799 9.28501 9.99799C9.56203 9.99799 9.70476 10.0798 9.40917 10.0798C9.11358 10.0798 9.08147 10.2151 8.88936 10.2151C8.69726 10.2151 8.28743 10.0788 8.28743 9.99799C8.28743 9.91716 8.52477 10.3954 8.77246 10.3954C9.02015 10.3954 9.16084 10.628 9.28501 10.5117C9.40917 10.3954 9.39448 10.3954 9.59507 10.3954C9.79567 10.3954 9.72246 9.92553 9.72246 9.92553C9.72246 9.92553 9.01902 9.04102 8.92366 9.04102Z" fill="#E8AA00"/>
<path fill-rule="evenodd" clip-rule="evenodd" d="M12.9371 9.04102C13.0324 9.04102 13.1792 9.10951 13.3738 9.18707C13.5684 9.26462 13.7728 9.43208 13.5733 9.59979C13.3738 9.76751 13.0883 10.1356 13.0883 9.99799C13.0883 9.86036 12.7471 9.72691 12.7471 9.79363C12.7471 9.86036 12.8527 9.99799 12.5757 9.99799C12.2987 9.99799 12.156 10.0798 12.4515 10.0798C12.7471 10.0798 12.7793 10.2151 12.9714 10.2151C13.1635 10.2151 13.5733 10.0788 13.5733 9.99799C13.5733 9.91716 13.3359 10.3954 13.0883 10.3954C12.8406 10.3954 12.6999 10.628 12.5757 10.5117C12.4515 10.3954 12.4662 10.3954 12.2656 10.3954C12.065 10.3954 12.1383 9.92553 12.1383 9.92553C12.1383 9.92553 12.8417 9.04102 12.9371 9.04102Z" fill="#E8AA00"/>
<path fill-rule="evenodd" clip-rule="evenodd" d="M12.6188 9.01668C12.8834 9.01667 12.9916 8.99588 12.8834 9.1407C12.7751 9.28565 12.3216 9.70327 12.2194 10.0011C12.1173 10.2987 12.1856 10.2535 12.0856 10.5059C11.9853 10.7589 11.6758 11.0237 11.985 11.3575C12.2942 11.6913 12.5914 12.1934 12.7125 12.1934H12.8834C12.8834 12.1934 14.4109 10.466 14.2115 10.0011C14.0121 9.53649 13.4976 9.14102 13.8541 9.1407C14.2115 9.1407 15.6371 10.0442 15.6373 12.0811C15.6373 14.1181 15.5053 15.2772 15.1998 16.0889C14.8944 16.9004 15.4465 17.6777 15.4469 18.0401C15.4469 18.4023 14.8854 18.0853 14.8854 17.8585C14.8853 17.632 14.5457 18.5915 14.5455 18.3165C14.5455 18.0409 14.2607 17.7374 14.2604 17.5665C14.2604 17.3956 13.8541 17.6264 13.8541 17.3507C13.8539 17.0756 13.5709 17.3834 13.5709 16.6339C13.5708 15.9703 13.3157 17.0329 13.2233 16.6339C13.2117 16.5874 12.9623 16.1898 12.8981 16.0255C12.8932 16.0068 12.8877 15.9884 12.8834 15.9698C12.8835 15.982 12.8886 16.0013 12.8981 16.0255C13.0038 16.4295 13.2498 16.8485 13.4069 17.0489C13.5713 17.2587 13.8541 17.7139 13.8541 17.7139C13.8418 17.7207 13.5859 17.8575 13.4069 17.7139C13.2234 17.5666 13.3459 17.9305 13.2233 17.9307C13.1633 17.9307 13.1093 17.9475 13.0699 17.9483C13.037 17.8647 13.0036 17.808 13.0035 17.8585C13.0035 17.9326 13.0287 17.9491 13.0699 17.9483C13.1314 18.1043 13.1883 18.3547 13.0035 18.1876C12.7197 17.9308 12.6188 18.0034 12.6188 17.8585C12.6187 17.7138 12.5183 17.9305 12.399 17.9307C12.2797 17.9307 12.3182 17.653 12.2194 17.3507C12.1206 17.0485 12.085 16.8714 11.985 17.2188C11.8849 17.566 11.6041 17.6743 11.6959 17.9307C11.7883 18.1876 11.9849 18.5926 11.985 18.8927C11.985 19.1927 12.5788 19.7299 12.399 19.8731C12.2195 20.0164 12.4369 20.4977 12.6188 20.7452C12.8007 20.9926 12.7704 21.295 12.4948 21.295C12.2191 21.295 12.1736 21.4776 11.985 21.4776C11.7965 21.4775 11.6959 21.3848 11.6959 21.3848C11.6919 21.3908 11.5764 21.5606 11.3864 21.5606C11.1946 21.5605 11.1546 21.3876 11.1539 21.3848L10.7135 21.5606V20.8126L10.7028 21.5606L10.5592 21.3848C10.5592 21.3848 10.5192 21.5606 10.3258 21.5606C10.1326 21.5604 10.0162 21.3848 10.0162 21.3848C10.0162 21.3848 9.91581 21.4776 9.72717 21.4776C9.53888 21.4774 9.49346 21.2952 9.21838 21.295C8.94275 21.295 8.91243 20.9926 9.09436 20.7452C9.27611 20.4978 9.4931 20.0166 9.31409 19.8731C9.13435 19.7299 9.72717 19.1927 9.72717 18.8927C9.72723 18.5926 9.92389 18.1876 10.0162 17.9307C10.1083 17.6741 9.82725 17.5662 9.72717 17.2188C9.62713 16.8714 9.59253 17.0485 9.49377 17.3507C9.395 17.6528 9.43315 17.9303 9.31409 17.9307C9.19472 17.9307 9.0944 17.7137 9.09436 17.8585C9.09436 18.0033 8.99327 17.9311 8.70959 18.1876C8.52502 18.3545 8.57986 18.1043 8.64124 17.9483C8.68334 17.9496 8.70959 17.9335 8.70959 17.8585C8.70956 17.8079 8.67426 17.8644 8.64124 17.9483C8.60209 17.9471 8.54898 17.9308 8.48987 17.9307C8.36702 17.9307 8.48975 17.5666 8.30627 17.7139C8.12452 17.86 7.863 17.7167 7.85803 17.7139C7.85803 17.7139 8.14187 17.2586 8.30627 17.0489C8.45013 16.8654 8.66868 16.4987 8.78577 16.128L8.81506 16.0225C8.75257 16.185 8.50188 16.5866 8.48987 16.6339C8.39741 17.0329 8.14134 15.9703 8.14124 16.6339C8.14124 17.3834 7.85828 17.0756 7.85803 17.3507C7.85803 17.6264 7.45276 17.3956 7.45276 17.5665C7.45246 17.7374 7.16663 18.0409 7.16663 18.3165C7.16647 18.5743 6.86803 17.7469 6.83069 17.8292L6.82092 17.9024C6.75878 18.1228 6.26624 18.3795 6.26624 18.0401C6.26667 17.6777 6.8187 16.9004 6.51331 16.0889C6.20782 15.2772 6.07581 14.1183 6.07581 12.0811C6.07603 10.0444 7.50051 9.14083 7.85803 9.1407C8.21541 9.1407 7.70004 9.53623 7.50061 10.0011C7.30125 10.466 8.82971 12.1934 8.82971 12.1934H9.00061C9.12192 12.1926 9.41833 11.691 9.72717 11.3575C10.0364 11.0237 9.72781 10.7589 9.62756 10.5059C9.52747 10.2533 9.59581 10.2988 9.49377 10.0011C9.39162 9.70334 8.93822 9.28578 8.82971 9.1407C8.72133 8.99571 8.82947 9.01668 9.09436 9.01668C9.35932 9.01675 9.86503 9.14126 10.0162 9.28621C10.1674 9.4311 10.3262 9.46199 10.5592 9.46199C10.7922 9.462 10.6484 9.61871 10.4362 9.72469C10.6668 9.76878 10.7677 10.1567 10.8141 10.4971C10.8998 10.1568 11.0456 9.76914 11.276 9.72469C11.064 9.61871 10.921 9.46199 11.1539 9.46199C11.3865 9.46195 11.5449 9.43079 11.6959 9.28621C11.8472 9.14121 12.3539 9.01668 12.6188 9.01668Z" fill="#F7FCFF"/>
<path fill-rule="evenodd" clip-rule="evenodd" d="M8.54546 20.7812L8.73101 18.9268C8.82565 19.0194 8.92046 19.1299 8.92046 19.2002C8.92045 19.3405 8.79299 19.5908 8.79253 19.6699C8.79253 19.7486 8.90696 19.3573 9.09624 19.5137C9.28552 19.67 9.273 19.9055 9.273 20.041C9.273 20.1761 9.27184 19.8821 9.09624 19.8818C8.92031 19.8818 8.79253 20.041 8.79253 20.041V20.3125C8.79253 20.3125 8.8156 20.5371 8.92046 20.4248C9.02486 20.3137 9.04701 20.5629 8.92046 20.5635C8.79329 20.5635 8.65848 20.8281 8.54155 20.8281L8.54351 20.8037C8.42945 20.7971 8.35737 20.5635 8.23198 20.5635C8.10534 20.563 8.12754 20.3136 8.23198 20.4248C8.33684 20.5371 8.35991 20.3125 8.35991 20.3125V20.041C8.35991 20.041 8.23213 19.8818 8.0562 19.8818C7.88053 19.8821 7.87944 20.1762 7.87944 20.041C7.87944 19.9055 7.86692 19.67 8.0562 19.5137C8.24545 19.3574 8.35991 19.7486 8.35991 19.6699C8.3593 19.5908 8.18927 19.3444 8.18901 19.2041C8.18901 19.1338 8.27881 19.017 8.3687 18.918L8.54546 20.7812Z" fill="#E8AA00"/>
<path fill-rule="evenodd" clip-rule="evenodd" d="M13.3281 20.7812L13.5136 18.9268C13.6082 19.0194 13.7031 19.1299 13.7031 19.2002C13.703 19.3405 13.5756 19.5908 13.5751 19.6699C13.5751 19.7486 13.6896 19.3573 13.8788 19.5137C14.0681 19.67 14.0556 19.9055 14.0556 20.041C14.0556 20.1761 14.0544 19.8821 13.8788 19.8818C13.7029 19.8818 13.5751 20.041 13.5751 20.041V20.3125C13.5751 20.3125 13.5982 20.5371 13.7031 20.4248C13.8075 20.3137 13.8296 20.5629 13.7031 20.5635C13.5759 20.5635 13.4411 20.8281 13.3241 20.8281L13.3261 20.8037C13.212 20.7971 13.14 20.5635 13.0146 20.5635C12.8879 20.563 12.9101 20.3136 13.0146 20.4248C13.1194 20.5371 13.1425 20.3125 13.1425 20.3125V20.041C13.1425 20.041 13.0147 19.8818 12.8388 19.8818C12.6631 19.8821 12.662 20.1762 12.662 20.041C12.662 19.9055 12.6495 19.67 12.8388 19.5137C13.028 19.3574 13.1425 19.7486 13.1425 19.6699C13.1419 19.5908 12.9719 19.3444 12.9716 19.2041C12.9716 19.1338 13.0614 19.017 13.1513 18.918L13.3281 20.7812Z" fill="#E8AA00"/>
<path fill-rule="evenodd" clip-rule="evenodd" d="M8.21627 17.7501C8.2264 17.7396 8.48448 17.4761 8.48483 17.6768C8.48483 17.8823 8.21598 18.1885 8.30319 18.1885H8.74655C9.11245 18.1885 8.68269 18.3601 8.48483 18.4366C8.28705 18.513 8.21597 18.5089 8.01998 18.5938C7.82395 18.6788 7.73962 19.2384 7.83053 19.418C7.921 19.597 7.73973 19.5216 7.66452 19.418C7.58938 19.3143 7.5505 19.6535 7.41256 19.8213C7.27464 19.989 7.29926 19.7893 7.29928 19.418C7.29928 19.0464 7.41325 19.2378 7.55123 19.127C7.68888 19.0164 7.66462 18.9771 7.73971 18.7598C7.8146 18.5427 7.4129 18.886 7.29928 19.0489C7.18577 19.2117 7.12912 19.137 6.93014 19.2383C6.73115 19.3397 6.93014 18.9677 6.93014 18.7598C6.93027 18.5524 7.1289 18.7597 7.29928 18.7598C7.46968 18.7598 7.55344 18.6842 7.66452 18.5938C7.77559 18.5034 7.41326 18.5709 7.12936 18.5938C6.84552 18.6167 7.01638 18.571 6.70748 18.4366C6.39801 18.3021 6.90645 18.3601 7.12936 18.4366C7.35199 18.5126 7.51039 18.3595 7.83053 18.3594C8.15101 18.3594 8.21627 17.7501 8.21627 17.7501ZM13.3911 17.6768C13.3914 17.4732 13.6575 17.7468 13.6606 17.7501C13.6606 17.7501 13.7251 18.3591 14.0454 18.3594C14.3658 18.3594 14.5246 18.513 14.7475 18.4366C14.9705 18.3602 15.4787 18.3021 15.1694 18.4366C14.86 18.5711 15.0313 18.6167 14.7475 18.5938C14.4637 18.5709 14.1007 18.5035 14.2114 18.5938C14.3225 18.6842 14.4064 18.7597 14.5766 18.7598C14.747 18.7598 14.9466 18.5523 14.9467 18.7598C14.9467 18.9675 15.145 19.3389 14.9467 19.2383C14.7478 19.137 14.6901 19.2117 14.5766 19.0489C14.4628 18.886 14.0615 18.543 14.1362 18.7598C14.2113 18.9773 14.1877 19.0162 14.3256 19.127C14.4636 19.2377 14.5766 19.0465 14.5766 19.418C14.5766 19.7893 14.6013 19.989 14.4633 19.8213C14.3255 19.6535 14.2865 19.3143 14.2114 19.418C14.1361 19.5215 13.9552 19.5967 14.0454 19.418C14.1363 19.2384 14.052 18.6788 13.8559 18.5938C13.6602 18.509 13.5888 18.513 13.3911 18.4366C13.1931 18.3601 12.7636 18.1885 13.1294 18.1885H13.5727C13.6599 18.1885 13.3911 17.8823 13.3911 17.6768Z" fill="#E8AA00"/>
<path fill-rule="evenodd" clip-rule="evenodd" d="M9.04712 12.3418H12.9226V15.8761C12.9226 15.8761 12.5066 17.6366 10.9849 17.6366C9.46316 17.6366 9.04712 15.8761 9.04712 15.8761V12.3418Z" fill="#C51918"/>
<path d="M11.5074 14.3203H12.9567V15.0449H11.5074V17.6533H10.4928V15.0449H9.04358V14.3203H10.4928V12.291H11.5074V14.3203Z" fill="#F7FCFF"/>
<path fill-rule="evenodd" clip-rule="evenodd" d="M9.71719 15.335C10.0696 15.335 10.2426 15.3804 10.2426 15.5479V15.9404C10.2425 15.9619 10.233 15.9828 10.2162 15.998L10.2064 16.0059C10.228 16.0208 10.2426 16.0448 10.2426 16.0713V16.4629C10.2426 16.4852 10.2322 16.507 10.2143 16.5225C10.0976 16.6229 9.98011 16.6758 9.86172 16.6758C9.55468 16.6757 9.34304 16.5355 9.33633 16.335C9.34002 16.2185 9.34462 16.1858 9.3793 16.1465C9.42671 16.0929 9.48781 16.0903 9.57461 16.1162C9.72194 16.0853 9.81074 16.1758 9.80703 16.334C9.80595 16.379 9.76513 16.4149 9.71524 16.4141C9.66534 16.4131 9.62547 16.376 9.62637 16.3311C9.62799 16.264 9.63389 16.2693 9.60196 16.2793C9.58175 16.2856 9.55943 16.2852 9.53946 16.2783C9.53256 16.2759 9.52652 16.2732 9.5209 16.2715C9.51998 16.2856 9.5189 16.3068 9.51797 16.335C9.52136 16.431 9.64358 16.5127 9.86172 16.5127C9.92001 16.5127 9.9865 16.4848 10.0609 16.4268V16.1523H10.0072C9.92653 16.1523 9.88571 16.0642 9.94278 16.0127L10.0609 15.9062V15.5479C10.0609 15.5249 9.96098 15.499 9.71719 15.499C9.58367 15.499 9.52587 15.5246 9.51504 15.5664C9.50375 15.7157 9.51709 15.7399 9.54043 15.7324C9.55985 15.726 9.58139 15.7264 9.60098 15.7324C9.6228 15.7391 9.64213 15.7442 9.65762 15.748C9.6609 15.7455 9.6646 15.7424 9.66836 15.7402C9.71039 15.7162 9.76641 15.7278 9.79336 15.7656C9.84435 15.8378 9.79768 15.9199 9.70059 15.9199C9.66878 15.9199 9.6274 15.9115 9.57168 15.8955C9.39021 15.9378 9.31587 15.7897 9.33633 15.542C9.37281 15.3969 9.50942 15.335 9.71719 15.335ZM12.3227 15.335C12.5304 15.335 12.6661 15.3969 12.7025 15.542C12.723 15.7897 12.6496 15.9378 12.4682 15.8955C12.4121 15.9116 12.3702 15.9199 12.3383 15.9199C12.2413 15.9198 12.1953 15.8377 12.2465 15.7656C12.2735 15.7277 12.3294 15.716 12.3715 15.7402C12.3753 15.7424 12.3789 15.7455 12.3822 15.748C12.3976 15.7442 12.4163 15.739 12.4379 15.7324C12.4574 15.7265 12.4791 15.7261 12.4984 15.7324C12.522 15.7402 12.5352 15.7163 12.5238 15.5664C12.513 15.5247 12.456 15.499 12.3227 15.499C12.0787 15.499 11.9779 15.5249 11.9779 15.5479V15.9062L12.0971 16.0127C12.1541 16.0642 12.1133 16.1523 12.0326 16.1523H11.9779V16.4268C12.0522 16.4847 12.119 16.5126 12.1772 16.5127C12.3954 16.5127 12.5185 16.431 12.5219 16.335C12.5209 16.3068 12.5199 16.2856 12.5189 16.2715C12.5134 16.2732 12.5072 16.276 12.5004 16.2783C12.4805 16.2852 12.458 16.2855 12.4379 16.2793C12.4059 16.2692 12.4119 16.264 12.4135 16.3311C12.4144 16.376 12.3745 16.413 12.3246 16.4141C12.2746 16.415 12.2329 16.3791 12.2318 16.334C12.2281 16.1759 12.317 16.0853 12.4643 16.1162C12.5512 16.0901 12.6121 16.0929 12.6596 16.1465C12.6944 16.1859 12.6988 16.2182 12.7025 16.335C12.6958 16.5356 12.4843 16.6758 12.1772 16.6758C12.059 16.6756 11.9421 16.6227 11.8256 16.5225C11.8077 16.507 11.7973 16.4852 11.7973 16.4629V16.0713C11.7973 16.0449 11.8109 16.0208 11.8324 16.0059L11.8236 15.998C11.8067 15.9828 11.7973 15.962 11.7973 15.9404V15.5479C11.7973 15.3803 11.9701 15.335 12.3227 15.335ZM9.71719 12.7266C10.0696 12.7266 10.2426 12.772 10.2426 12.9395V13.3311C10.2426 13.3527 10.2332 13.3743 10.2162 13.3896L10.2064 13.3975C10.2279 13.4123 10.2425 13.4356 10.2426 13.4619V13.8545C10.2426 13.8768 10.2322 13.8986 10.2143 13.9141C10.0976 14.0144 9.98006 14.0674 9.86172 14.0674C9.55482 14.0673 9.34322 13.927 9.33633 13.7266C9.34001 13.6102 9.34476 13.5773 9.3793 13.5381C9.42667 13.4846 9.48791 13.4809 9.57461 13.5068C9.72203 13.4759 9.81086 13.5672 9.80703 13.7256C9.80595 13.7706 9.76513 13.8065 9.71524 13.8057C9.66522 13.8047 9.62528 13.7668 9.62637 13.7217C9.628 13.6552 9.63361 13.6599 9.60196 13.6699C9.58175 13.6763 9.55943 13.6759 9.53946 13.6689C9.53267 13.6666 9.52644 13.6648 9.5209 13.6631C9.51998 13.6772 9.5189 13.6984 9.51797 13.7266C9.52161 13.8225 9.64381 13.9033 9.86172 13.9033C9.92 13.9033 9.98652 13.8764 10.0609 13.8184V13.5439H10.0072C9.92653 13.5439 9.88571 13.4558 9.94278 13.4043L10.0609 13.2979V12.9395C10.0609 12.9165 9.96098 12.8897 9.71719 12.8896C9.58367 12.8896 9.52587 12.9162 9.51504 12.958C9.5038 13.1068 9.51716 13.1314 9.54043 13.124C9.5598 13.1176 9.58144 13.1171 9.60098 13.123C9.62281 13.1297 9.64213 13.1348 9.65762 13.1387C9.66081 13.1362 9.66472 13.1339 9.66836 13.1318C9.71039 13.1077 9.76637 13.1184 9.79336 13.1562C9.84481 13.2285 9.79787 13.3105 9.70059 13.3105C9.66875 13.3105 9.62749 13.3021 9.57168 13.2861C9.39013 13.3284 9.31577 13.1805 9.33633 12.9326C9.3729 12.7877 9.50954 12.7266 9.71719 12.7266ZM12.3227 12.7266C12.5302 12.7266 12.6659 12.7878 12.7025 12.9326C12.7231 13.1804 12.6496 13.3283 12.4682 13.2861C12.4121 13.3022 12.3702 13.3105 12.3383 13.3105C12.2413 13.3103 12.1951 13.2284 12.2465 13.1562C12.2736 13.1185 12.3295 13.1076 12.3715 13.1318C12.3752 13.134 12.379 13.1362 12.3822 13.1387C12.3977 13.1348 12.4171 13.1297 12.4389 13.123C12.4582 13.1172 12.4793 13.1177 12.4984 13.124C12.5219 13.1317 12.5351 13.1075 12.5238 12.958C12.513 12.9162 12.4561 12.8897 12.3227 12.8896C12.0787 12.8896 11.9789 12.9165 11.9789 12.9395V13.2979L12.0971 13.4043C12.1539 13.4558 12.1132 13.5439 12.0326 13.5439H11.9789V13.8184C12.0532 13.8762 12.1199 13.9033 12.1781 13.9033C12.3958 13.9032 12.5183 13.8224 12.5219 13.7266C12.5209 13.6984 12.5199 13.6772 12.5189 13.6631C12.5135 13.6648 12.5071 13.6666 12.5004 13.6689C12.4805 13.6759 12.4581 13.6762 12.4379 13.6699C12.4059 13.6599 12.4118 13.655 12.4135 13.7217C12.4146 13.7668 12.3746 13.8046 12.3246 13.8057C12.2746 13.8066 12.2329 13.7707 12.2318 13.7256C12.228 13.5674 12.317 13.476 12.4643 13.5068C12.5512 13.4808 12.6121 13.4845 12.6596 13.5381C12.6944 13.5774 12.6989 13.6099 12.7025 13.7266C12.6956 13.9269 12.4848 14.0672 12.1781 14.0674C12.0599 14.0674 11.9422 14.0143 11.8256 13.9141C11.8077 13.8986 11.7973 13.8768 11.7973 13.8545V13.4619C11.7974 13.4357 11.8111 13.4123 11.8324 13.3975L11.8236 13.3896C11.8066 13.3743 11.7973 13.3527 11.7973 13.3311V12.9395C11.7973 12.7719 11.9701 12.7266 12.3227 12.7266Z" fill="#F7FCFF"/>
</g>
</g>
<defs>
<clipPath id="clip0_299_35831">
<rect width="32" height="24" fill="white"/>
</clipPath>
</defs>
</svg>
