<svg width="32" height="24" viewBox="0 0 32 24" fill="none" xmlns="http://www.w3.org/2000/svg">
<g clip-path="url(#clip0_299_35655)">
<rect width="32" height="24" fill="white"/>
<path fill-rule="evenodd" clip-rule="evenodd" d="M0 0V24H32V0H0Z" fill="#FECA00"/>
<mask id="mask0_299_35655" style="mask-type:luminance" maskUnits="userSpaceOnUse" x="0" y="0" width="32" height="24">
<path fill-rule="evenodd" clip-rule="evenodd" d="M0 0V24H32V0H0Z" fill="white"/>
</mask>
<g mask="url(#mask0_299_35655)">
<path fill-rule="evenodd" clip-rule="evenodd" d="M0 0V14H32V0H0Z" fill="#3CA5D9"/>
<path fill-rule="evenodd" clip-rule="evenodd" d="M0 18V24H32V18H0Z" fill="#5A962A"/>
<path d="M24.3547 4.01758C24.419 4.02347 24.4828 4.03019 24.5461 4.03906L25.3743 2.16016L25.26 4.20801C25.3206 4.2283 25.3804 4.25038 25.4397 4.27344L26.6838 2.63184L26.095 4.59961C26.149 4.6331 26.2019 4.66816 26.2542 4.7041L27.8489 3.38965L26.8167 5.1709C26.8611 5.21539 26.9043 5.26109 26.9465 5.30762L28.8059 4.39258L27.386 5.89062C27.4189 5.94409 27.4503 5.99861 27.4807 6.05371L29.5032 5.58691L27.7708 6.72168C27.7902 6.78095 27.8079 6.8409 27.8245 6.90137L29.9026 6.9082L27.9495 7.61816C27.9544 7.67966 27.9582 7.74145 27.9602 7.80371L29.9836 8.28516L27.9182 8.53027C27.9088 8.59167 27.8973 8.65247 27.885 8.71289L29.7424 9.64355L27.6721 9.41016C27.6486 9.46746 27.624 9.52415 27.5979 9.58008L29.1897 10.9102L27.2278 10.21C27.1918 10.26 27.1547 10.3092 27.1165 10.3574L28.3567 12.0166L26.6086 10.8867C26.5626 10.9267 26.5159 10.966 26.468 11.0039L27.2893 12.9023L25.8518 11.4053C25.7975 11.4339 25.7425 11.4612 25.6868 11.4873L26.0432 13.5215L24.9944 11.7373C24.935 11.7527 24.8751 11.7666 24.8147 11.7793L24.6868 13.8398L24.0813 11.8643C24.0483 11.8651 24.0149 11.8672 23.9817 11.8672C23.9533 11.8672 23.925 11.8648 23.8967 11.8643L23.2922 13.8398L23.1643 11.7832C23.1029 11.7705 23.042 11.7566 22.9817 11.7412L21.9358 13.5215L22.2893 11.4932C22.2325 11.4668 22.1766 11.4391 22.1213 11.4102L20.6897 12.9023L21.5061 11.0127C21.4566 10.9738 21.4081 10.9337 21.3606 10.8926L19.6213 12.0166L20.8538 10.3662C20.814 10.3164 20.7758 10.2655 20.7385 10.2139L18.7883 10.9102L20.3694 9.58887C20.342 9.53067 20.3158 9.47181 20.2913 9.41211L18.2366 9.64355L20.0793 8.71973C20.0664 8.65679 20.055 8.59329 20.0452 8.5293L17.9944 8.28516L20.0032 7.80762C20.0052 7.74241 20.0087 7.67765 20.0139 7.61328L18.0754 6.9082L20.1389 6.90137C20.1563 6.83821 20.1752 6.77572 20.1956 6.71387L18.4749 5.58691L20.4846 6.05078C20.5162 5.99365 20.5489 5.9372 20.5833 5.88184L19.1721 4.39258L21.0208 5.30371C21.0646 5.25554 21.1093 5.20808 21.1555 5.16211L20.1292 3.38965L21.717 4.69824C21.7706 4.66162 21.8248 4.62585 21.8801 4.5918L21.2942 2.63184L22.5344 4.26855C22.5949 4.24523 22.6561 4.22357 22.718 4.20312L22.6047 2.16016L23.4299 4.03809C23.4936 4.02936 23.5577 4.02232 23.6223 4.0166L23.9895 2L24.3547 4.01758ZM23.9456 5.41699C22.5452 5.41725 21.4104 6.53593 21.4104 7.91602C21.4106 9.29595 22.5453 10.4148 23.9456 10.415C25.346 10.415 26.4815 9.29611 26.4817 7.91602C26.4817 6.53577 25.3462 5.41699 23.9456 5.41699ZM23.9758 6.55957C24.765 6.55979 25.4045 7.20005 25.4045 7.98926C25.4043 8.77828 24.7648 9.41775 23.9758 9.41797C23.1866 9.41797 22.5464 8.77841 22.5461 7.98926C22.5461 7.19991 23.1865 6.55957 23.9758 6.55957Z" fill="#FFDC17"/>
</g>
</g>
<defs>
<clipPath id="clip0_299_35655">
<rect width="32" height="24" fill="white"/>
</clipPath>
</defs>
</svg>
