<svg width="32" height="24" viewBox="0 0 32 24" fill="none" xmlns="http://www.w3.org/2000/svg">
<g clip-path="url(#clip0_299_35527)">
<rect width="32" height="24" fill="white"/>
<path fill-rule="evenodd" clip-rule="evenodd" d="M0 0V24H32V0H0Z" fill="#3D58DB"/>
<mask id="mask0_299_35527" style="mask-type:luminance" maskUnits="userSpaceOnUse" x="0" y="0" width="32" height="24">
<path fill-rule="evenodd" clip-rule="evenodd" d="M0 0V24H32V0H0Z" fill="white"/>
</mask>
<g mask="url(#mask0_299_35527)">
<path fill-rule="evenodd" clip-rule="evenodd" d="M0 24H32V0L0 24Z" fill="#579D20"/>
<path d="M-0.781945 24.7445L-2.58569 22.2484L33.6752 -1.95508L35.479 0.54101L-0.781945 24.7445Z" fill="#FECA00"/>
<path d="M5.58997 3.83594H6.94348L5.94446 4.92676L6.44446 6.45117L5.01672 5.60156L3.65344 6.54688L4.08899 4.92676L3.08801 3.89258L4.44348 3.83594L5.01672 2.23438L5.58997 3.83594ZM11.2482 3.83594H12.6017L11.6027 4.92676L12.1027 6.45117L10.6749 5.60156L9.31165 6.54688L9.74719 4.92676L8.74622 3.89258L10.1017 3.83594L10.6749 2.23438L11.2482 3.83594Z" fill="#F7FCFF"/>
<path d="M5.58997 9.83691H6.94348L5.94446 10.9268L6.44446 12.4512L5.01672 11.6016L3.65344 12.5469L4.08899 10.9268L3.08801 9.89258L4.44348 9.83691L5.01672 8.23438L5.58997 9.83691ZM11.2482 9.83691H12.6017L11.6027 10.9268L12.1027 12.4512L10.6749 11.6016L9.31165 12.5469L9.74719 10.9268L8.74622 9.89258L10.1017 9.83691L10.6749 8.23438L11.2482 9.83691ZM8.58508 6.74414H9.9386L8.93958 7.83496L9.43958 9.35938L8.01184 8.50977L6.64758 9.45508L7.08411 7.83496L6.08313 6.80078L7.4386 6.74414L8.01184 5.14258L8.58508 6.74414Z" fill="#F7FCFF"/>
</g>
</g>
<defs>
<clipPath id="clip0_299_35527">
<rect width="32" height="24" fill="white"/>
</clipPath>
</defs>
</svg>
