<svg width="32" height="24" viewBox="0 0 32 24" fill="none" xmlns="http://www.w3.org/2000/svg">
<g clip-path="url(#clip0_299_35635)">
<rect width="32" height="24" fill="white"/>
<path fill-rule="evenodd" clip-rule="evenodd" d="M0 0V24H32V0H0Z" fill="#F7FCFF"/>
<mask id="mask0_299_35635" style="mask-type:luminance" maskUnits="userSpaceOnUse" x="0" y="0" width="32" height="24">
<path fill-rule="evenodd" clip-rule="evenodd" d="M0 0V24H32V0H0Z" fill="white"/>
</mask>
<g mask="url(#mask0_299_35635)">
<path fill-rule="evenodd" clip-rule="evenodd" d="M0 0V12H32V0H0Z" fill="#E31D1C"/>
<path fill-rule="evenodd" clip-rule="evenodd" d="M3.85095 6.37334C3.85122 2.15821 7.49524 1.84697 8.86853 2.19463C8.86853 2.19463 6.04264 3.29461 6.04236 6.37334C6.04236 9.45241 8.86853 10.5892 8.86853 10.5892C7.44013 11.3842 3.85095 10.5889 3.85095 6.37334ZM10.7894 8.37236H11.7025L11.0287 9.12529L11.2318 10.0804L10.4027 9.59111L9.59216 10.0804L9.77771 9.12529L9.10193 8.41045L10.016 8.37236L10.4027 7.48076L10.7894 8.37236ZM13.7357 8.31767H14.6488L13.975 9.0706L14.1781 10.0257L13.349 9.53642L12.5385 10.0257L12.724 9.0706L12.0482 8.35576L12.9623 8.31767L13.349 7.42607L13.7357 8.31767ZM9.75623 6.00322H10.6693L9.99548 6.75713L10.1986 7.7122L9.36951 7.22197L8.55896 7.7122L8.74451 6.75713L8.06873 6.04228L8.98279 6.00322L9.36951 5.11162L9.75623 6.00322ZM15.1146 5.95927H16.0277L15.3539 6.71318L15.557 7.66826L14.7279 7.179L13.9174 7.66826L14.1029 6.71318L13.4271 5.99834L14.3412 5.95927L14.7279 5.06767L15.1146 5.95927ZM12.4847 4.06181H13.3969L12.723 4.81474L12.9261 5.76982L12.098 5.28056L11.2875 5.76982L11.472 4.81474L10.7972 4.0999L11.7113 4.06181L12.098 3.16923L12.4847 4.06181Z" fill="#F1F9FF"/>
</g>
</g>
<defs>
<clipPath id="clip0_299_35635">
<rect width="32" height="24" fill="white"/>
</clipPath>
</defs>
</svg>
