<svg width="32" height="24" viewBox="0 0 32 24" fill="none" xmlns="http://www.w3.org/2000/svg">
<g clip-path="url(#clip0_299_35639)">
<rect width="32" height="24" fill="white"/>
<path fill-rule="evenodd" clip-rule="evenodd" d="M0 0V24H32V0H0Z" fill="#2E42A5"/>
<mask id="mask0_299_35639" style="mask-type:luminance" maskUnits="userSpaceOnUse" x="0" y="0" width="32" height="24">
<path fill-rule="evenodd" clip-rule="evenodd" d="M0 0V24H32V0H0Z" fill="white"/>
</mask>
<g mask="url(#mask0_299_35639)">
<path fill-rule="evenodd" clip-rule="evenodd" d="M0 0V8H32V0H0Z" fill="#F7FCFF"/>
<path fill-rule="evenodd" clip-rule="evenodd" d="M0 16V24H32V16H0Z" fill="#C51918"/>
<path fill-rule="evenodd" clip-rule="evenodd" d="M13.7402 5.0369C13.7402 5.0369 11.6355 4.04297 9.0177 4.04297C6.3999 4.04297 4.29517 5.0369 4.29517 5.0369C4.29517 5.0369 4.52939 9.03162 4.89959 11.1478C5.05766 12.0514 5.81739 13.3692 6.5052 13.993C7.28916 14.7039 9.0177 15.5462 9.0177 15.5462C9.51791 15.2015 10.4532 15.0465 11.6486 13.993C12.844 12.9394 13.1412 11.1478 13.1412 11.1478L13.7402 5.0369Z" fill="#2E42A5"/>
<path d="M13.462 4.90625L14.3386 5.34397L13.7368 11.3666C13.5261 12.6413 12.9988 13.6465 12.1555 14.3897C11.698 14.7928 11.2515 15.094 10.7728 15.3443C10.5026 15.4856 9.37222 16.0679 9.38206 16.0631C9.26881 16.1177 9.18293 16.1655 9.11317 16.2136L9.00384 16.2889L8.88581 16.2314C7.71505 15.6609 6.62274 14.8932 6.07993 14.4009C5.33895 13.729 4.55766 12.3539 4.3911 11.4017C4.14205 9.97809 3.9187 8.01718 3.76196 5.34397L4.54936 4.93204C4.70492 7.58511 4.89271 9.70003 5.13726 11.098C5.28195 11.9251 6.0024 13.1931 6.65963 13.7891C7.14536 14.2296 7.9279 14.718 9.00384 15.2492C9.06802 15.2116 9.13915 15.1744 9.22051 15.1352C9.22281 15.1341 9.95472 14.809 10.2091 14.676C10.6552 14.4428 11.0699 14.163 11.4969 13.7867C12.2455 13.127 12.7127 12.2385 12.9016 11.1098L13.462 4.90625Z" fill="#C51918"/>
<path d="M10.1505 13.0029C10.2386 12.9955 10.3217 13.0138 10.4181 13.0664C10.6808 13.2099 10.9836 13.296 11.2589 13.3096C11.1941 13.3932 11.1306 13.4739 11.0656 13.5469C10.3108 14.3941 8.98059 14.7959 8.98059 14.7959C8.96137 14.7884 7.85632 14.3572 6.96106 13.4844C6.94061 13.4644 6.92154 13.4425 6.90149 13.4219C7.14117 13.4292 7.3163 13.3688 7.42786 13.2256C7.49424 13.1405 7.69445 13.0559 7.92395 13.0205C8.03099 13.004 8.13347 13.0003 8.21106 13.0088C8.24503 13.0125 8.27203 13.0187 8.28918 13.0254C8.48266 13.3171 8.9792 13.4712 9.44641 13.2764L9.38879 13.2871C9.54989 13.2323 9.83655 13.1006 9.86145 13.0898C9.98677 13.0356 10.0725 13.0096 10.1505 13.0029ZM10.3956 12.2969C10.5047 12.2888 10.608 12.3087 10.7247 12.3643C11.0425 12.5156 11.4116 12.6036 11.7374 12.6064C11.6676 12.7194 11.5952 12.8313 11.5216 12.9404C11.2677 12.9979 10.8771 12.9232 10.5616 12.751C10.4137 12.6702 10.2725 12.6388 10.1251 12.6514C10.0087 12.6613 9.89573 12.6958 9.74329 12.7617C9.7133 12.7747 9.42851 12.9057 9.33118 12.9463L9.38879 12.9346C8.99249 13.0874 8.64524 12.9751 8.54602 12.8115C8.36922 12.5195 7.44246 12.6624 7.18176 12.9971C7.11194 13.0858 6.90281 13.1007 6.55774 13.0146C6.47646 12.905 6.39944 12.792 6.32727 12.6777C6.77673 12.7597 7.08135 12.7183 7.2511 12.5283C7.33128 12.4386 7.56939 12.3518 7.83997 12.3154C7.96604 12.2985 8.08704 12.2939 8.17981 12.3027C8.2224 12.3068 8.25729 12.3143 8.2804 12.3223C8.28794 12.3249 8.28713 12.3235 8.27747 12.3096C8.48368 12.6061 9.04563 12.7651 9.57629 12.5723L9.52551 12.582C9.6945 12.5301 10.0237 12.3977 10.0529 12.3867C10.1998 12.3313 10.3011 12.3039 10.3956 12.2969ZM10.1398 10.0977L10.838 9.34082L12.5929 11.0254C12.5929 11.0254 12.3282 11.5943 11.9591 12.2373C11.6568 12.2892 11.2135 12.2123 10.8536 12.041C10.69 11.9631 10.5352 11.9334 10.3741 11.9453C10.2456 11.9549 10.1191 11.9889 9.94739 12.0537C9.91288 12.0668 9.58694 12.1965 9.47473 12.2373L9.52551 12.2285C9.06948 12.3847 8.653 12.2666 8.5343 12.0957C8.34192 11.8186 7.31041 11.9579 7.02063 12.2822C6.92024 12.3941 6.6037 12.3992 6.08606 12.2627C5.73379 11.6077 5.54211 11.0254 5.54211 11.0254L7.26575 9.34082L8.00989 10.0977L8.98059 8.44531L10.1398 10.0977Z" fill="white"/>
<path fill-rule="evenodd" clip-rule="evenodd" d="M7.14685 5.88726H6.44373L6.98907 5.37638L6.44373 4.83653H7.14685L7.44373 4.3125L7.7418 4.83653H8.44373L7.92565 5.34396L8.38567 5.88726H7.7418L7.44373 6.44026L7.14685 5.88726Z" fill="#FECA00"/>
<path fill-rule="evenodd" clip-rule="evenodd" d="M10.4606 5.88726H9.75745L10.3028 5.37638L9.75745 4.83653H10.4606L10.7574 4.3125L11.0555 4.83653H11.7574L11.2394 5.34396L11.6994 5.88726H11.0555L10.7574 6.44026L10.4606 5.88726Z" fill="#FECA00"/>
<path fill-rule="evenodd" clip-rule="evenodd" d="M8.59997 7.5689H7.89685L8.44219 7.05802L7.89685 6.51817H8.59997L8.89685 5.99414L9.19493 6.51817H9.89685L9.37878 7.0256L9.8388 7.5689H9.19493L8.89685 8.1219L8.59997 7.5689Z" fill="#FECA00"/>
</g>
</g>
<defs>
<clipPath id="clip0_299_35639">
<rect width="32" height="24" fill="white"/>
</clipPath>
</defs>
</svg>
