<svg width="32" height="24" viewBox="0 0 32 24" fill="none" xmlns="http://www.w3.org/2000/svg">
<g clip-path="url(#clip0_299_35719)">
<rect width="32" height="24" fill="white"/>
<path fill-rule="evenodd" clip-rule="evenodd" d="M0 0V24H32V0H0Z" fill="#3D58DB"/>
<mask id="mask0_299_35719" style="mask-type:luminance" maskUnits="userSpaceOnUse" x="0" y="0" width="32" height="24">
<path fill-rule="evenodd" clip-rule="evenodd" d="M0 0V24H32V0H0Z" fill="white"/>
</mask>
<g mask="url(#mask0_299_35719)">
<path fill-rule="evenodd" clip-rule="evenodd" d="M0 0V8H32V0H0Z" fill="#F7FCFF"/>
<path fill-rule="evenodd" clip-rule="evenodd" d="M0 16V24H32V16H0Z" fill="#E31D1C"/>
<path d="M16.0533 5.53125L16.1012 5.97852V5.98242C16.1015 5.98499 16.1026 5.98919 16.1031 5.99414C16.1042 6.004 16.1051 6.01844 16.1071 6.03711C16.111 6.07523 16.1165 6.13136 16.1237 6.20312C16.138 6.34664 16.1589 6.55343 16.1823 6.80762C16.2288 7.31581 16.2876 8.01439 16.3385 8.77441C16.4389 10.2742 16.5118 12.079 16.3688 13.1104C16.0853 15.1541 14.8564 18.4626 11.1823 20.1055L10.9811 20.1953L10.7799 20.1084C6.91158 18.4375 5.91157 14.7499 5.69299 13.1074C5.581 12.2656 5.62343 10.4634 5.68811 8.92383C5.72092 8.14279 5.76046 7.41169 5.79163 6.87598C5.80721 6.60812 5.82103 6.3887 5.83069 6.23633C5.83552 6.16013 5.83878 6.10008 5.84143 6.05957C5.84275 6.03949 5.84464 6.0241 5.84534 6.01367C5.84568 6.00858 5.84516 6.00463 5.84534 6.00195C5.84542 6.00078 5.84627 5.9997 5.84631 5.99902V5.99805L5.87756 5.53125H16.0533Z" fill="#E31D1C" stroke="white"/>
<mask id="mask1_299_35719" style="mask-type:luminance" maskUnits="userSpaceOnUse" x="5" y="5" width="12" height="16">
<path d="M16.0533 5.53125L16.1012 5.97852V5.98242C16.1015 5.98499 16.1026 5.98919 16.1031 5.99414C16.1042 6.004 16.1051 6.01844 16.1071 6.03711C16.111 6.07523 16.1165 6.13136 16.1237 6.20312C16.138 6.34664 16.1589 6.55343 16.1823 6.80762C16.2288 7.31581 16.2876 8.01439 16.3385 8.77441C16.4389 10.2742 16.5118 12.079 16.3688 13.1104C16.0853 15.1541 14.8564 18.4626 11.1823 20.1055L10.9811 20.1953L10.7799 20.1084C6.91158 18.4375 5.91157 14.7499 5.69299 13.1074C5.581 12.2656 5.62343 10.4634 5.68811 8.92383C5.72092 8.14279 5.76046 7.41169 5.79163 6.87598C5.80721 6.60812 5.82103 6.3887 5.83069 6.23633C5.83552 6.16013 5.83878 6.10008 5.84143 6.05957C5.84275 6.03949 5.84464 6.0241 5.84534 6.01367C5.84568 6.00858 5.84516 6.00463 5.84534 6.00195C5.84542 6.00078 5.84627 5.9997 5.84631 5.99902V5.99805L5.87756 5.53125H16.0533Z" fill="white" stroke="white"/>
</mask>
<g mask="url(#mask1_299_35719)">
<path fill-rule="evenodd" clip-rule="evenodd" d="M10.2571 6.58984C10.2571 6.58984 10.4636 6.90446 10.556 7.38555C10.6485 7.86663 10.6644 8.70955 10.6644 8.70955L8.70555 8.46836V9.95365L10.7082 9.69861L10.6756 11.1083C10.6756 11.1083 10.0765 11.1705 9.58514 11.1083C9.09376 11.0462 8.12573 10.786 8.12573 10.786V12.4864C8.12573 12.4864 9.10923 12.1718 9.58514 12.0996C10.061 12.0274 10.6756 12.0996 10.6756 12.0996V14.1879H11.4887V12.0996C11.4887 12.0996 12.3774 12.0223 12.9076 12.106C13.4378 12.1896 13.9407 12.4864 13.9407 12.4864V10.786C13.9407 10.786 13.4312 11.0399 12.9506 11.103C12.4701 11.1662 11.4887 11.1083 11.4887 11.1083L11.5212 9.69861C11.5212 9.69861 12.1865 9.62974 12.5597 9.6804C12.9329 9.73106 13.4 9.95365 13.4 9.95365V8.46836C13.4 8.46836 12.9447 8.71611 12.5865 8.76105C12.2283 8.80599 11.4775 8.70955 11.4775 8.70955C11.4775 8.70955 11.4908 7.83968 11.5678 7.41612C11.6448 6.99256 11.8629 6.58984 11.8629 6.58984H10.2571Z" fill="#F7FCFF"/>
<path fill-rule="evenodd" clip-rule="evenodd" d="M6.89734 16.2452C6.89734 16.2452 7.33683 15.302 8.05197 15.1226C8.7671 14.9433 9.51698 15.6839 9.51698 15.6839C9.51698 15.6839 9.97488 14.1875 11.091 14.1875C12.2071 14.1875 12.5988 15.6839 12.5988 15.6839C12.5988 15.6839 13.075 15.1226 13.7598 15.1226C14.4445 15.1226 15.079 16.2452 15.079 16.2452C15.079 16.2452 13.0336 19.9587 10.9882 19.9587C8.94275 19.9587 6.89734 16.2452 6.89734 16.2452Z" fill="#2E42A5"/>
</g>
</g>
</g>
<defs>
<clipPath id="clip0_299_35719">
<rect width="32" height="24" fill="white"/>
</clipPath>
</defs>
</svg>
