<svg width="32" height="24" viewBox="0 0 32 24" fill="none" xmlns="http://www.w3.org/2000/svg">
<g clip-path="url(#clip0_299_35591)">
<rect width="32" height="24" fill="white"/>
<path fill-rule="evenodd" clip-rule="evenodd" d="M0 0V24H32V0H0Z" fill="#F7FCFF"/>
<mask id="mask0_299_35591" style="mask-type:luminance" maskUnits="userSpaceOnUse" x="0" y="0" width="32" height="24">
<path fill-rule="evenodd" clip-rule="evenodd" d="M0 0V24H32V0H0Z" fill="white"/>
</mask>
<g mask="url(#mask0_299_35591)">
<path fill-rule="evenodd" clip-rule="evenodd" d="M0 12V24H32V12H0Z" fill="#56C6F5"/>
<path d="M8.54834 15.8164C8.54834 15.8164 11.0312 15.4924 11.7046 15.8164C12.366 16.1349 12.7283 16.5652 12.7407 16.5801C12.7261 16.5936 11.3268 17.8919 10.6772 17.3418C10.0245 16.7892 9.07717 16.7359 8.75049 16.7627C8.4254 16.7894 9.64333 16.3127 9.65381 16.3086L8.54834 15.8164ZM11.2075 12.2002C11.2075 12.2002 11.3029 12.8589 11.8423 13.2998C12.3815 13.7409 12.022 15.6328 12.022 15.6328C12.022 15.6328 11.6866 15.384 11.2075 14.8408C10.7284 14.2976 11.2075 12.2002 11.2075 12.2002ZM8.46436 14.2334C7.97699 14.2334 9.78727 13.7198 10.6772 14.5332C11.5672 15.3466 11.3198 15.1221 11.3198 15.1221C11.2973 15.1304 10.1952 15.5348 9.84619 15.1221C9.49407 14.7046 8.9516 14.2337 8.46436 14.2334ZM8.00439 11.7861C8.01606 11.796 8.47424 12.1793 9.07178 12.1758C9.67471 12.1729 10.6006 13.6446 10.6079 13.6562C10.6079 13.6562 10.2469 13.6757 9.6167 13.5762C8.99168 13.477 8.02044 11.8137 8.00439 11.7861ZM11.3345 9.80566C11.3345 9.80566 11.3554 11.7477 10.9575 12.1865C10.5651 12.6194 10.3071 12.8086 10.3003 12.8135C10.3003 12.8116 10.3028 12.648 10.3188 12.4121C10.221 12.3911 9.92981 12.322 9.48877 12.1455C8.94361 11.927 8.1213 10.2021 8.10693 10.1719C8.11872 10.1853 8.51284 10.6287 9.03467 10.7471C9.50189 10.8535 10.1709 12.0744 10.3228 12.3613C10.3623 11.8205 10.4691 10.9593 10.7534 10.7305C11.1769 10.3901 11.3345 9.80566 11.3345 9.80566ZM12.0972 6.75195C12.0906 6.75985 11.7963 7.11608 11.7007 7.56641C12.0671 7.27195 12.3882 7.05176 12.3882 7.05176C12.3882 7.05176 12.0002 7.51646 11.9644 8.05859C11.9282 8.59497 10.5479 9.60229 10.5181 9.62402C10.5183 9.61312 10.5242 9.40814 10.5913 9.03906C10.4264 9.17371 10.2951 9.27273 10.2466 9.30859C10.2218 9.5557 10.1533 9.8424 10.0767 10.1045C10.1852 10.7289 10.1591 11.5271 10.1587 11.54C10.1587 11.54 9.90901 11.338 9.53467 10.8789C9.16053 10.4195 9.28271 8.48242 9.28271 8.48242C9.28271 8.48242 9.35019 8.78868 9.53857 9.0957C9.71865 8.43599 10.0249 7.73633 10.0249 7.73633C10.0249 7.73633 9.94185 8.3357 10.1987 8.81445C10.2301 8.87302 10.2474 8.94863 10.2544 9.03613C10.2736 8.88667 10.3057 8.68114 10.3638 8.42578C10.4945 7.85171 12.0775 6.76546 12.0972 6.75195Z" fill="#006923"/>
<path fill-rule="evenodd" clip-rule="evenodd" d="M19.2134 16.1955C19.2134 16.1955 18.6521 15.2521 19.2134 14.7964C19.7748 14.3406 19.997 14.6438 19.997 14.1198C19.997 13.5958 20.0538 13.7518 20.3296 13.4917C20.6054 13.2316 20.41 12.5997 20.7794 12.9156C21.1488 13.2316 21.2178 12.6258 21.2178 13.8842C21.2178 15.1427 21.2178 12.7428 21.2178 12.036C21.2178 11.3292 20.7794 11.4965 20.7794 11.0225C20.7794 10.5484 20.341 9.84048 20.7794 9.84048C21.2178 9.84048 21.4755 10.3672 21.4755 10.3672C21.4755 10.3672 21.9062 11.1014 21.9062 10.3672C21.9062 9.63305 21.1393 9.85131 20.7794 9.04117C20.4195 8.23103 20.4763 9.13203 19.997 8.08811C19.5176 7.0442 18.9468 6.71293 19.4719 6.71293C19.997 6.71293 19.8798 6.71293 20.3296 6.71293C20.7794 6.71293 21.4755 6.33931 21.4755 6.71293C21.4755 7.08655 21.4755 6.91534 21.4755 7.50173C21.4755 8.08811 21.9062 8.08811 21.9062 8.08811C21.9062 8.08811 22.1404 6.91534 22.4346 7.50173C22.7287 8.08811 22.5284 9.04117 22.7437 9.04117C22.959 9.04117 22.7808 8.05626 23.251 8.81063C23.7211 9.56499 23.251 10.0762 23.251 10.3672C23.251 10.6582 22.7437 11.3712 22.7437 11.3712C22.7437 11.3712 22.8428 11.7199 23.251 11.3712C23.6591 11.0225 24.0464 10.6737 24.0464 11.0225C24.0464 11.3712 24.8418 11.4795 24.0464 12.036C23.251 12.5925 23.7582 13.1496 23.251 13.1496C22.7437 13.1496 22.1461 13.8842 21.9062 13.8842C21.6663 13.8842 20.7693 14.4467 21.2178 14.4467C21.6663 14.4467 22.1254 13.3218 22.4346 13.8842C22.7437 14.4467 22.7397 13.7929 22.9953 14.1198C23.251 14.4467 23.5066 16.2204 23.251 15.5084C22.9953 14.7964 22.5946 14.7964 21.9062 14.7964C21.2178 14.7964 19.8798 14.8478 20.3296 15.1781C20.7794 15.5084 21.2846 14.8478 21.4755 15.1781C21.6663 15.5084 21.6108 15.8387 21.9062 15.5084C22.2016 15.1781 22.4921 15.5084 22.7437 15.5084C22.9953 15.5084 22.4921 15.8781 22.7437 16.1955C22.9953 16.5129 23.556 16.9356 22.9953 16.9356C22.4346 16.9356 22.1461 16.4873 21.9062 16.9356C21.6663 17.3839 21.6562 18.1626 21.2178 17.5491C20.7794 16.9356 19.997 17.247 19.997 16.9356C19.997 16.6242 20.1681 16.574 19.6908 16.574C19.2134 16.574 19.2134 16.1955 19.2134 16.1955Z" fill="#009933"/>
<path d="M12.7579 16.2988C12.8914 16.2988 12.9999 16.4109 13.0001 16.5488C13.0001 16.6869 12.8916 16.7988 12.7579 16.7988C12.6244 16.7987 12.5157 16.6868 12.5157 16.5488C12.516 16.411 12.6245 16.2989 12.7579 16.2988ZM19.1456 15.999C19.279 15.9993 19.3867 16.1112 19.3868 16.249C19.3868 16.3869 19.279 16.4988 19.1456 16.499C19.012 16.499 18.9034 16.3871 18.9034 16.249C18.9035 16.111 19.0121 15.999 19.1456 15.999ZM12.6613 15.5996C12.7949 15.5996 12.9034 15.7115 12.9034 15.8496C12.9032 15.9875 12.7947 16.0996 12.6613 16.0996C12.5278 16.0996 12.4193 15.9875 12.4191 15.8496C12.4191 15.7116 12.5277 15.5996 12.6613 15.5996ZM21.1779 13.7988C21.3112 13.7991 21.4189 13.9111 21.4191 14.0488C21.4191 14.1868 21.3113 14.2986 21.1779 14.2988C21.0442 14.2988 20.9357 14.1869 20.9357 14.0488C20.9359 13.9109 21.0444 13.7988 21.1779 13.7988ZM10.7257 13.0996C10.8593 13.0996 10.9679 13.2115 10.9679 13.3496C10.9677 13.4875 10.8592 13.5996 10.7257 13.5996C10.5923 13.5995 10.4837 13.4875 10.4835 13.3496C10.4835 13.2116 10.5921 13.0997 10.7257 13.0996ZM21.9513 11.7988C22.0848 11.7988 22.1933 11.9109 22.1935 12.0488C22.1935 12.1869 22.0849 12.2988 21.9513 12.2988C21.8178 12.2986 21.7101 12.1868 21.7101 12.0488C21.7103 11.9111 21.818 11.799 21.9513 11.7988ZM10.339 10.7988C10.4724 10.799 10.58 10.911 10.5802 11.0488C10.5802 11.1868 10.4725 11.2987 10.339 11.2988C10.2054 11.2988 10.0968 11.1869 10.0968 11.0488C10.097 10.9109 10.2055 10.7988 10.339 10.7988ZM10.339 9.49902C10.4724 9.49916 10.5801 9.61113 10.5802 9.74902C10.5802 9.88701 10.4725 9.99888 10.339 9.99902C10.2054 9.99902 10.0968 9.88709 10.0968 9.74902C10.0969 9.61104 10.2054 9.49902 10.339 9.49902ZM21.2745 9.19922C21.408 9.19939 21.5157 9.31126 21.5157 9.44922C21.5157 9.58718 21.408 9.69904 21.2745 9.69922C21.1409 9.69922 21.0323 9.58729 21.0323 9.44922C21.0323 9.31115 21.1409 9.19922 21.2745 9.19922Z" fill="#C51918"/>
<path fill-rule="evenodd" clip-rule="evenodd" d="M18.0378 19.8196C18.0378 19.6148 14.9373 17.478 14.1051 17.0067C13.2729 16.5354 9.20906 13.9413 10.3157 10H10.1483C10.1483 10 9.39933 14.8565 14.5594 17.8752C16.9088 19.4513 17.0258 19.8196 17.0258 19.8196C17.0258 19.8196 18.0378 20.0245 18.0378 19.8196Z" fill="#FECA00"/>
<path fill-rule="evenodd" clip-rule="evenodd" d="M13.9244 19.8196C13.9244 19.6148 17.0249 17.478 17.8571 17.0067C18.6893 16.5354 22.7531 13.9413 21.6464 10H21.8139C21.8139 10 22.5628 14.8565 17.4028 17.8752C15.0533 19.4513 14.9364 19.8196 14.9364 19.8196C14.9364 19.8196 13.9244 20.0245 13.9244 19.8196Z" fill="#FECA00"/>
<path fill-rule="evenodd" clip-rule="evenodd" d="M16.0484 16.8849C18.213 16.8849 19.9677 14.083 19.9677 11.3492C19.9677 8.61541 18.213 7.19922 16.0484 7.19922C13.8838 7.19922 12.129 8.61541 12.129 11.3492C12.129 14.083 13.8838 16.8849 16.0484 16.8849Z" fill="#56C6F5"/>
<path fill-rule="evenodd" clip-rule="evenodd" d="M13.6734 9.53914C13.6735 8.70337 14.3129 9.00679 14.6148 9.00691C14.9148 9.00691 14.3201 9.53287 14.313 9.53914C14.313 9.53914 14.313 10.0182 14.313 10.3829C14.313 10.4395 14.319 10.5514 14.3247 10.7003H14.4488C14.5038 10.7005 14.5484 10.7458 14.5484 10.8009C14.5482 10.8558 14.5037 10.9003 14.4488 10.9005H14.3316C14.3442 11.199 14.3609 11.5819 14.3794 11.9591L14.4302 11.9552C14.4892 11.9501 14.5411 11.9939 14.5464 12.0528L14.5542 12.1378C14.5594 12.1967 14.5155 12.2486 14.4566 12.254L14.3951 12.2589C14.4264 12.8874 14.4545 13.4285 14.4546 13.4317C14.451 13.4319 13.5367 13.4836 13.5367 13.3487C13.5367 13.2928 13.5616 12.8435 13.5884 12.3302L13.5132 12.337C13.4543 12.342 13.4024 12.2982 13.397 12.2393L13.3892 12.1544C13.384 12.0952 13.4287 12.0433 13.4878 12.0382L13.604 12.0274C13.6273 11.5877 13.6493 11.1478 13.6626 10.9005H13.5835C13.5286 10.9003 13.4841 10.8558 13.4839 10.8009C13.4839 10.7457 13.5285 10.7004 13.5835 10.7003H13.6734V9.53914Z" fill="white"/>
<path fill-rule="evenodd" clip-rule="evenodd" d="M13.871 11H14.1936V11.4301H13.871V11Z" fill="black"/>
<path fill-rule="evenodd" clip-rule="evenodd" d="M13.7742 12.5H14.3118V13.5H13.7742V12.5Z" fill="black"/>
<path fill-rule="evenodd" clip-rule="evenodd" d="M15.7056 9.53914C15.7058 8.70337 16.3452 9.00679 16.647 9.00691C16.947 9.00691 16.3524 9.53287 16.3453 9.53914C16.3453 9.53914 16.3453 10.0182 16.3453 10.3829C16.3453 10.4395 16.3513 10.5514 16.357 10.7003H16.481C16.536 10.7005 16.5806 10.7458 16.5806 10.8009C16.5804 10.8558 16.5359 10.9003 16.481 10.9005H16.3638C16.3765 11.199 16.3931 11.5819 16.4117 11.9591L16.4624 11.9552C16.5214 11.9501 16.5733 11.9939 16.5787 12.0528L16.5865 12.1378C16.5916 12.1967 16.5477 12.2486 16.4888 12.254L16.4273 12.2589C16.4587 12.8874 16.4867 13.4285 16.4869 13.4317C16.4833 13.4319 15.5689 13.4836 15.5689 13.3487C15.5689 13.2928 15.5938 12.8435 15.6206 12.3302L15.5455 12.337C15.4866 12.342 15.4346 12.2982 15.4292 12.2393L15.4214 12.1544C15.4163 12.0952 15.4609 12.0433 15.5201 12.0382L15.6363 12.0274C15.6595 11.5877 15.6815 11.1478 15.6949 10.9005H15.6158C15.5608 10.9003 15.5163 10.8558 15.5162 10.8009C15.5162 10.7457 15.5607 10.7004 15.6158 10.7003H15.7056V9.53914Z" fill="white"/>
<path fill-rule="evenodd" clip-rule="evenodd" d="M15.9032 11H16.2258V11.4301H15.9032V11Z" fill="black"/>
<path fill-rule="evenodd" clip-rule="evenodd" d="M15.8064 12.5H16.344V13.5H15.8064V12.5Z" fill="black"/>
<path fill-rule="evenodd" clip-rule="evenodd" d="M17.6412 9.53914C17.6413 8.70337 18.2807 9.00679 18.5826 9.00691C18.8826 9.00691 18.2879 9.53287 18.2808 9.53914C18.2808 9.53914 18.2808 10.0182 18.2808 10.3829C18.2808 10.4395 18.2868 10.5514 18.2925 10.7003H18.4165C18.4716 10.7005 18.5162 10.7458 18.5162 10.8009C18.516 10.8558 18.4715 10.9003 18.4165 10.9005H18.2994C18.312 11.199 18.3287 11.5819 18.3472 11.9591L18.398 11.9552C18.457 11.9501 18.5089 11.9939 18.5142 12.0528L18.522 12.1378C18.5271 12.1967 18.4833 12.2486 18.4244 12.254L18.3628 12.2589C18.3942 12.8874 18.4222 13.4285 18.4224 13.4317C18.4188 13.4319 17.5044 13.4836 17.5044 13.3487C17.5045 13.2928 17.5293 12.8435 17.5562 12.3302L17.481 12.337C17.4221 12.342 17.3702 12.2982 17.3648 12.2393L17.357 12.1544C17.3518 12.0952 17.3964 12.0433 17.4556 12.0382L17.5718 12.0274C17.595 11.5877 17.6171 11.1478 17.6304 10.9005H17.5513C17.4963 10.9003 17.4519 10.8558 17.4517 10.8009C17.4517 10.7457 17.4962 10.7004 17.5513 10.7003H17.6412V9.53914Z" fill="white"/>
<path fill-rule="evenodd" clip-rule="evenodd" d="M17.8387 11H18.1613V11.4301H17.8387V11Z" fill="black"/>
<path fill-rule="evenodd" clip-rule="evenodd" d="M17.7419 12.5H18.2796V13.5H17.7419V12.5Z" fill="black"/>
<path fill-rule="evenodd" clip-rule="evenodd" d="M18.5161 6.40039H13.3871V7.16603L13.3527 7.1691C13.3527 7.1691 10.8398 9.12183 11.5372 12.047C12.2346 14.9722 15.0048 17.1415 15.0048 17.1415L15.1444 16.6367C15.1444 16.6367 12.5048 13.0475 12.5048 11.6134C12.5048 10.1792 13.0028 8.83307 13.5301 8.62376C13.8473 8.49787 13.902 8.52342 13.9884 8.56378C14.0457 8.59052 14.1169 8.62376 14.2876 8.62376C14.7159 8.62376 15.1444 8.31719 15.1444 8.31719C15.1444 8.31719 15.4424 8.62376 15.7192 8.62376C15.996 8.62376 15.9999 8.31719 15.9999 8.31719V7.30039H16.0309V8.31719C16.0309 8.31719 16.0347 8.62376 16.3115 8.62376C16.5883 8.62376 16.8863 8.31719 16.8863 8.31719C16.8863 8.31719 17.3149 8.62376 17.7432 8.62376C17.9139 8.62376 17.9851 8.59052 18.0423 8.56378C18.1288 8.52342 18.1835 8.49787 18.5006 8.62376C19.0279 8.83307 19.5259 10.1792 19.5259 11.6134C19.5259 13.0475 16.8863 16.6367 16.8863 16.6367L17.026 17.1415C17.026 17.1415 19.7961 14.9722 20.4935 12.047C21.1909 9.12183 18.678 7.1691 18.678 7.1691L18.5161 7.15463V6.40039Z" fill="#E8AA00"/>
<path d="M13.3871 6.40039V5.90039H12.8871V6.40039H13.3871ZM18.5161 6.40039H19.0161V5.90039H18.5161V6.40039ZM13.3871 7.16603L13.4316 7.66404L13.8871 7.62332V7.16603H13.3871ZM13.3527 7.1691L13.3082 6.67109L13.1619 6.68417L13.0459 6.7743L13.3527 7.1691ZM11.5372 12.047L11.0508 12.163V12.163L11.5372 12.047ZM15.0048 17.1415L14.6965 17.5352L15.2868 17.9974L15.4867 17.2748L15.0048 17.1415ZM15.1444 16.6367L15.6263 16.77L15.6911 16.536L15.5472 16.3405L15.1444 16.6367ZM13.5301 8.62376L13.3457 8.15903L13.3457 8.15903L13.5301 8.62376ZM13.9884 8.56378L13.7769 9.01682L13.7769 9.01682L13.9884 8.56378ZM15.1444 8.31719L15.503 7.9687L15.2033 7.66035L14.8535 7.91052L15.1444 8.31719ZM15.9999 8.31719L16.4999 8.32352V8.31719H15.9999ZM15.9999 7.30039V6.80039H15.4999V7.30039H15.9999ZM16.0309 7.30039H16.5309V6.80039H16.0309V7.30039ZM16.0309 8.31719H15.5308L15.5309 8.32351L16.0309 8.31719ZM16.8863 8.31719L17.1772 7.91052L16.8275 7.66035L16.5278 7.9687L16.8863 8.31719ZM18.0423 8.56378L18.2539 9.01682L18.2539 9.01682L18.0423 8.56378ZM18.5006 8.62376L18.3162 9.08849V9.08849L18.5006 8.62376ZM16.8863 16.6367L16.4835 16.3405L16.3397 16.536L16.4044 16.77L16.8863 16.6367ZM17.026 17.1415L16.5441 17.2748L16.744 17.9974L17.3342 17.5352L17.026 17.1415ZM18.678 7.1691L18.9848 6.7743L18.8689 6.68417L18.7226 6.67109L18.678 7.1691ZM18.5161 7.15463H18.0161V7.61192L18.4716 7.65264L18.5161 7.15463ZM13.3871 6.40039V6.90039H18.5161V6.40039V5.90039H13.3871V6.40039ZM13.3871 7.16603H13.8871V6.40039H13.3871H12.8871V7.16603H13.3871ZM13.3527 7.1691L13.3972 7.66712L13.4316 7.66404L13.3871 7.16603L13.3426 6.66801L13.3082 6.67109L13.3527 7.1691ZM11.5372 12.047L12.0236 11.9311C11.7158 10.6401 12.1112 9.55921 12.6058 8.77875C12.8532 8.38835 13.1215 8.08024 13.3277 7.87028C13.4304 7.76566 13.5168 7.68642 13.5759 7.63452C13.6054 7.6086 13.6281 7.58959 13.6425 7.57772C13.6497 7.57179 13.6548 7.56765 13.6577 7.56534C13.6592 7.56418 13.6601 7.56348 13.6604 7.56324C13.6605 7.56312 13.6605 7.56312 13.6604 7.56323C13.6603 7.56329 13.6602 7.56337 13.6601 7.56349C13.66 7.56354 13.6598 7.56365 13.6598 7.56368C13.6597 7.56379 13.6595 7.56391 13.3527 7.1691C13.0459 6.7743 13.0457 6.77443 13.0455 6.77458C13.0455 6.77463 13.0453 6.77479 13.0451 6.7749C13.0448 6.77513 13.0445 6.7754 13.0441 6.77569C13.0434 6.77628 13.0425 6.77699 13.0414 6.77782C13.0393 6.77948 13.0366 6.78163 13.0333 6.78425C13.0267 6.78951 13.0178 6.79669 13.0068 6.80578C12.9847 6.82394 12.9541 6.84974 12.9163 6.88293C12.8407 6.94925 12.7362 7.04542 12.6142 7.16957C12.3711 7.41715 12.0548 7.78006 11.7611 8.24349C11.1736 9.17068 10.6612 10.5287 11.0508 12.163L11.5372 12.047ZM15.0048 17.1415C15.3131 16.7479 15.3131 16.7479 15.3132 16.748C15.3132 16.748 15.3133 16.7481 15.3133 16.7481C15.3134 16.7481 15.3134 16.7481 15.3134 16.7481C15.3133 16.7481 15.3131 16.7479 15.3127 16.7476C15.3119 16.747 15.3105 16.7458 15.3084 16.7442C15.3043 16.7409 15.2976 16.7355 15.2886 16.7282C15.2704 16.7135 15.2428 16.6908 15.2067 16.6604C15.1346 16.5996 15.0292 16.5082 14.8997 16.389C14.6403 16.1503 14.2865 15.8017 13.9119 15.3655C13.1565 14.4859 12.346 13.2835 12.0236 11.9311L11.5372 12.047L11.0508 12.163C11.4258 13.7357 12.3491 15.0806 13.1532 16.017C13.5583 16.4887 13.9406 16.8653 14.2224 17.1247C14.3635 17.2546 14.4799 17.3556 14.562 17.4248C14.6031 17.4595 14.6356 17.4862 14.6584 17.5047C14.6698 17.5139 14.6788 17.5211 14.6852 17.5262C14.6884 17.5288 14.691 17.5308 14.6928 17.5323C14.6938 17.533 14.6946 17.5337 14.6952 17.5341C14.6955 17.5344 14.6957 17.5346 14.696 17.5348C14.6961 17.5348 14.6962 17.535 14.6963 17.535C14.6964 17.5351 14.6965 17.5352 15.0048 17.1415ZM15.1444 16.6367L14.6625 16.5034L14.5229 17.0082L15.0048 17.1415L15.4867 17.2748L15.6263 16.77L15.1444 16.6367ZM12.5048 11.6134H12.0048C12.0048 12.0894 12.2131 12.6688 12.463 13.2122C12.7221 13.7757 13.0634 14.3777 13.3983 14.9242C13.7343 15.4723 14.0696 15.9736 14.3204 16.3373C14.4459 16.5194 14.5507 16.6676 14.6243 16.7705C14.6611 16.822 14.6901 16.8622 14.7101 16.8897C14.7201 16.9035 14.7279 16.9141 14.7332 16.9214C14.7358 16.925 14.7379 16.9278 14.7393 16.9297C14.74 16.9307 14.7405 16.9314 14.7409 16.932C14.7411 16.9322 14.7413 16.9325 14.7414 16.9326C14.7415 16.9327 14.7415 16.9328 14.7416 16.9328C14.7416 16.9329 14.7416 16.9329 15.1444 16.6367C15.5472 16.3405 15.5472 16.3405 15.5473 16.3405C15.5472 16.3405 15.5472 16.3405 15.5472 16.3405C15.5472 16.3404 15.5471 16.3403 15.547 16.3401C15.5467 16.3398 15.5463 16.3392 15.5458 16.3385C15.5446 16.3369 15.5429 16.3346 15.5406 16.3314C15.5359 16.325 15.5288 16.3152 15.5194 16.3024C15.5008 16.2766 15.4731 16.2383 15.4377 16.1889C15.367 16.0899 15.2655 15.9465 15.1436 15.7697C14.8995 15.4156 14.5748 14.9299 14.2509 14.4015C13.926 13.8715 13.6073 13.3072 13.3715 12.7944C13.1264 12.2614 13.0048 11.8544 13.0048 11.6134H12.5048ZM13.5301 8.62376L13.3457 8.15903C13.0789 8.26492 12.8787 8.4831 12.7338 8.69671C12.582 8.92029 12.4529 9.19484 12.348 9.49349C12.1379 10.0916 12.0048 10.8429 12.0048 11.6134H12.5048H13.0048C13.0048 10.9496 13.1208 10.3108 13.2915 9.82497C13.3769 9.58166 13.4712 9.3908 13.5612 9.2583C13.6579 9.11583 13.7177 9.08725 13.7146 9.08849L13.5301 8.62376ZM13.9884 8.56378L14.2 8.11074C14.1403 8.08286 14.0084 8.01939 13.8123 8.03255C13.6649 8.04245 13.5099 8.09383 13.3457 8.15903L13.5301 8.62376L13.7146 9.08849C13.7853 9.06044 13.8317 9.04472 13.8615 9.03616C13.8919 9.02742 13.8943 9.0293 13.8793 9.03031C13.8707 9.03088 13.8576 9.03111 13.841 9.02952C13.8241 9.02789 13.8077 9.02473 13.7926 9.02059C13.7781 9.01662 13.7682 9.01262 13.7651 9.01134C13.7638 9.0108 13.7642 9.01092 13.7769 9.01682L13.9884 8.56378ZM14.2876 8.62376V8.12376C14.261 8.12376 14.2433 8.12247 14.2325 8.12125C14.222 8.12008 14.2175 8.11893 14.2175 8.11893C14.2174 8.11889 14.2177 8.11898 14.2184 8.11919C14.219 8.1194 14.2194 8.11954 14.2192 8.11946C14.2176 8.11886 14.2152 8.11787 14.2 8.11074L13.9884 8.56378L13.7769 9.01682C13.8093 9.03197 13.8779 9.06462 13.9734 9.08867C14.0669 9.11222 14.1694 9.12376 14.2876 9.12376V8.62376ZM15.1444 8.31719C14.8535 7.91052 14.8536 7.91046 14.8537 7.91039C14.8537 7.91037 14.8538 7.91031 14.8539 7.91027C14.854 7.91019 14.8541 7.91011 14.8542 7.91004C14.8544 7.9099 14.8546 7.90977 14.8547 7.90966C14.855 7.90945 14.8553 7.9093 14.8554 7.90922C14.8556 7.90906 14.8554 7.90917 14.8549 7.90953C14.8539 7.91025 14.8514 7.91196 14.8475 7.91453C14.8398 7.91968 14.8269 7.92815 14.8094 7.93885C14.7741 7.96047 14.7227 7.98991 14.6613 8.01919C14.5289 8.08236 14.3936 8.12376 14.2876 8.12376V8.62376V9.12376C14.6098 9.12376 14.903 9.01188 15.0919 8.92177C15.1912 8.8744 15.2737 8.8272 15.3321 8.79134C15.3616 8.77329 15.3854 8.75781 15.4028 8.7462C15.4115 8.74038 15.4187 8.73551 15.4241 8.73174C15.4268 8.72985 15.4291 8.72824 15.431 8.72692C15.4319 8.72626 15.4328 8.72568 15.4335 8.72516C15.4339 8.72491 15.4342 8.72467 15.4345 8.72445C15.4346 8.72435 15.4348 8.72424 15.4349 8.72414C15.435 8.72409 15.4351 8.72402 15.4351 8.724C15.4352 8.72393 15.4353 8.72386 15.1444 8.31719ZM15.7192 8.62376V8.12376C15.7394 8.12376 15.7379 8.12847 15.7101 8.11651C15.6841 8.10534 15.6515 8.08666 15.6154 8.06135C15.5804 8.03676 15.5498 8.01124 15.5279 7.99176C15.5173 7.98228 15.5094 7.97485 15.5049 7.97054C15.5027 7.9684 15.5014 7.96708 15.501 7.96672C15.5009 7.96654 15.5009 7.9666 15.5012 7.96692C15.5014 7.96709 15.5016 7.96731 15.5019 7.96761C15.5021 7.96776 15.5022 7.96792 15.5024 7.9681C15.5025 7.96819 15.5026 7.96829 15.5027 7.96839C15.5027 7.96844 15.5028 7.96852 15.5028 7.96854C15.5029 7.96862 15.503 7.9687 15.1444 8.31719C14.7859 8.66568 14.786 8.66576 14.786 8.66585C14.7861 8.66588 14.7862 8.66596 14.7862 8.66602C14.7863 8.66614 14.7865 8.66626 14.7866 8.66639C14.7868 8.66665 14.7871 8.66692 14.7874 8.66722C14.788 8.66781 14.7886 8.66847 14.7894 8.66922C14.7908 8.6707 14.7926 8.67248 14.7947 8.67455C14.7988 8.67868 14.8041 8.68394 14.8106 8.69019C14.8235 8.70264 14.8411 8.71917 14.8627 8.73842C14.9054 8.77643 14.9665 8.82755 15.0406 8.8796C15.1679 8.96903 15.4193 9.12376 15.7192 9.12376V8.62376ZM15.9999 8.31719C15.4999 8.31087 15.4999 8.31065 15.4999 8.31043C15.4999 8.31036 15.4999 8.31014 15.4999 8.31C15.4999 8.30971 15.4999 8.30943 15.4999 8.30915C15.4999 8.30859 15.5 8.30804 15.5 8.30751C15.5 8.30644 15.5 8.30543 15.5 8.30447C15.5001 8.30255 15.5002 8.30082 15.5002 8.29928C15.5003 8.29621 15.5005 8.29379 15.5006 8.29191C15.5009 8.28831 15.5012 8.28609 15.5015 8.28459C15.5016 8.28405 15.5027 8.27525 15.5098 8.26C15.5172 8.2441 15.5381 8.20634 15.5846 8.17232C15.6368 8.13412 15.6897 8.12376 15.7192 8.12376V8.62376V9.12376C15.8871 9.12376 16.0443 9.07508 16.175 8.9794C16.3001 8.8879 16.3739 8.7735 16.4169 8.68096C16.4595 8.58906 16.479 8.50362 16.4884 8.44559C16.4934 8.41535 16.4961 8.38918 16.4977 8.36882C16.4985 8.35856 16.499 8.34955 16.4993 8.34199C16.4995 8.3382 16.4996 8.33475 16.4997 8.33167C16.4997 8.33013 16.4997 8.32868 16.4998 8.32732C16.4998 8.32664 16.4998 8.32598 16.4998 8.32535C16.4998 8.32503 16.4998 8.32472 16.4998 8.32441C16.4998 8.32426 16.4998 8.32404 16.4998 8.32396C16.4998 8.32374 16.4998 8.32351 15.9999 8.31719ZM15.9999 7.30039H15.4999V8.31719H15.9999H16.4999V7.30039H15.9999ZM16.0309 7.30039V6.80039H15.9999V7.30039V7.80039H16.0309V7.30039ZM16.0309 7.30039H15.5309V8.31719H16.0309H16.5309V7.30039H16.0309ZM16.0309 8.31719C15.5309 8.32351 15.5309 8.32374 15.5309 8.32396C15.5309 8.32404 15.5309 8.32426 15.5309 8.32441C15.5309 8.32472 15.5309 8.32503 15.5309 8.32535C15.5309 8.32598 15.531 8.32664 15.531 8.32732C15.531 8.32868 15.531 8.33013 15.5311 8.33167C15.5312 8.33475 15.5313 8.3382 15.5314 8.34199C15.5318 8.34955 15.5323 8.35856 15.5331 8.36882C15.5346 8.38918 15.5374 8.41535 15.5423 8.44559C15.5518 8.50362 15.5712 8.58906 15.6139 8.68096C15.6568 8.7735 15.7306 8.8879 15.8557 8.9794C15.9865 9.07508 16.1436 9.12376 16.3115 9.12376V8.62376V8.12376C16.341 8.12376 16.3939 8.13412 16.4461 8.17232C16.4926 8.20634 16.5136 8.2441 16.5209 8.26C16.528 8.27525 16.5292 8.28405 16.5293 8.28459C16.5295 8.28609 16.5298 8.28831 16.5301 8.29191C16.5302 8.29379 16.5304 8.29621 16.5305 8.29928C16.5306 8.30082 16.5307 8.30255 16.5307 8.30447C16.5307 8.30543 16.5308 8.30644 16.5308 8.30751C16.5308 8.30804 16.5308 8.30859 16.5308 8.30915C16.5308 8.30943 16.5308 8.30971 16.5308 8.31C16.5308 8.31014 16.5308 8.31036 16.5308 8.31043C16.5308 8.31065 16.5308 8.31087 16.0309 8.31719ZM16.3115 8.62376V9.12376C16.6115 9.12376 16.8629 8.96903 16.9902 8.8796C17.0642 8.82755 17.1254 8.77643 17.168 8.73842C17.1896 8.71917 17.2072 8.70264 17.2201 8.69019C17.2266 8.68394 17.232 8.67868 17.2361 8.67455C17.2382 8.67248 17.2399 8.6707 17.2414 8.66922C17.2421 8.66847 17.2428 8.66781 17.2434 8.66722C17.2436 8.66692 17.2439 8.66665 17.2442 8.66639C17.2443 8.66626 17.2444 8.66614 17.2445 8.66602C17.2446 8.66596 17.2447 8.66588 17.2447 8.66585C17.2448 8.66576 17.2449 8.66568 16.8863 8.31719C16.5278 7.9687 16.5278 7.96862 16.5279 7.96854C16.5279 7.96852 16.528 7.96844 16.5281 7.96839C16.5282 7.96829 16.5283 7.96819 16.5283 7.9681C16.5285 7.96792 16.5287 7.96776 16.5288 7.96761C16.5291 7.96731 16.5293 7.96709 16.5295 7.96692C16.5298 7.9666 16.5299 7.96654 16.5297 7.96672C16.5293 7.96708 16.528 7.9684 16.5258 7.97054C16.5213 7.97485 16.5135 7.98227 16.5028 7.99176C16.481 8.01124 16.4503 8.03676 16.4153 8.06135C16.3793 8.08666 16.3466 8.10534 16.3207 8.11651C16.2928 8.12847 16.2914 8.12376 16.3115 8.12376V8.62376ZM16.8863 8.31719C16.5954 8.72386 16.5955 8.72393 16.5956 8.724C16.5956 8.72402 16.5957 8.72409 16.5958 8.72414C16.5959 8.72424 16.5961 8.72435 16.5962 8.72445C16.5966 8.72467 16.5969 8.72491 16.5972 8.72516C16.598 8.72568 16.5988 8.72626 16.5997 8.72692C16.6016 8.72824 16.6039 8.72985 16.6066 8.73174C16.6121 8.73551 16.6192 8.74038 16.6279 8.7462C16.6453 8.75781 16.6692 8.77329 16.6986 8.79134C16.7571 8.8272 16.8396 8.8744 16.9389 8.92177C17.1278 9.01188 17.4209 9.12376 17.7432 9.12376V8.62376V8.12376C17.6372 8.12376 17.5018 8.08236 17.3694 8.01919C17.308 7.98991 17.2566 7.96047 17.2213 7.93885C17.2039 7.92815 17.1909 7.91968 17.1832 7.91453C17.1794 7.91196 17.1769 7.91025 17.1758 7.90953C17.1753 7.90917 17.1751 7.90906 17.1754 7.90922C17.1755 7.9093 17.1757 7.90945 17.176 7.90966C17.1762 7.90977 17.1763 7.9099 17.1765 7.91004C17.1766 7.91011 17.1767 7.91019 17.1769 7.91027C17.1769 7.91031 17.177 7.91037 17.177 7.91039C17.1771 7.91046 17.1772 7.91052 16.8863 8.31719ZM17.7432 8.62376V9.12376C17.8614 9.12376 17.9638 9.11222 18.0574 9.08867C18.1529 9.06462 18.2214 9.03197 18.2539 9.01682L18.0423 8.56378L17.8308 8.11074C17.8155 8.11787 17.8131 8.11886 17.8116 8.11946C17.8114 8.11954 17.8117 8.1194 17.8124 8.11919C17.813 8.11898 17.8134 8.11889 17.8132 8.11893C17.8132 8.11893 17.8088 8.12008 17.7983 8.12125C17.7874 8.12247 17.7697 8.12376 17.7432 8.12376V8.62376ZM18.0423 8.56378L18.2539 9.01682C18.2665 9.01092 18.267 9.0108 18.2657 9.01134C18.2626 9.01262 18.2526 9.01662 18.2381 9.02059C18.223 9.02473 18.2066 9.02789 18.1897 9.02952C18.1732 9.03111 18.16 9.03088 18.1515 9.03031C18.1364 9.0293 18.1389 9.02742 18.1693 9.03616C18.1991 9.04472 18.2455 9.06044 18.3162 9.08849L18.5006 8.62376L18.6851 8.15903C18.5208 8.09383 18.3659 8.04245 18.2184 8.03255C18.0223 8.01939 17.8905 8.08286 17.8308 8.11074L18.0423 8.56378ZM18.5006 8.62376L18.3162 9.08849C18.313 9.08725 18.3729 9.11583 18.4696 9.2583C18.5595 9.3908 18.6538 9.58166 18.7393 9.82497C18.91 10.3108 19.0259 10.9496 19.0259 11.6134H19.5259H20.0259C20.0259 10.8429 19.8929 10.0916 19.6827 9.49349C19.5778 9.19484 19.4487 8.92029 19.297 8.69671C19.152 8.4831 18.9519 8.26492 18.6851 8.15903L18.5006 8.62376ZM19.5259 11.6134H19.0259C19.0259 11.8544 18.9043 12.2614 18.6592 12.7944C18.4234 13.3072 18.1048 13.8715 17.7798 14.4015C17.4559 14.9299 17.1313 15.4156 16.8871 15.7697C16.7652 15.9465 16.6638 16.0899 16.593 16.1889C16.5576 16.2383 16.53 16.2766 16.5113 16.3024C16.502 16.3152 16.4949 16.325 16.4902 16.3314C16.4878 16.3346 16.4861 16.3369 16.485 16.3385C16.4844 16.3392 16.484 16.3398 16.4838 16.3401C16.4836 16.3403 16.4836 16.3404 16.4835 16.3405C16.4835 16.3405 16.4835 16.3405 16.4835 16.3405C16.4835 16.3405 16.4835 16.3405 16.8863 16.6367C17.2891 16.9329 17.2891 16.9329 17.2892 16.9328C17.2892 16.9328 17.2893 16.9327 17.2893 16.9326C17.2895 16.9325 17.2896 16.9322 17.2898 16.932C17.2902 16.9314 17.2908 16.9307 17.2915 16.9297C17.2929 16.9278 17.2949 16.925 17.2976 16.9214C17.3029 16.9141 17.3106 16.9035 17.3206 16.8897C17.3406 16.8622 17.3696 16.822 17.4065 16.7705C17.4801 16.6676 17.5848 16.5194 17.7104 16.3373C17.9612 15.9736 18.2964 15.4723 18.6324 14.9242C18.9674 14.3777 19.3086 13.7757 19.5678 13.2122C19.8176 12.6688 20.0259 12.0894 20.0259 11.6134H19.5259ZM16.8863 16.6367L16.4044 16.77L16.5441 17.2748L17.026 17.1415L17.5079 17.0082L17.3682 16.5034L16.8863 16.6367ZM17.026 17.1415C17.3342 17.5352 17.3343 17.5351 17.3345 17.535C17.3345 17.535 17.3347 17.5348 17.3348 17.5348C17.335 17.5346 17.3353 17.5344 17.3356 17.5341C17.3362 17.5337 17.337 17.533 17.3379 17.5323C17.3398 17.5308 17.3423 17.5288 17.3455 17.5262C17.3519 17.5211 17.3609 17.5139 17.3723 17.5047C17.3951 17.4862 17.4276 17.4595 17.4687 17.4248C17.5508 17.3556 17.6672 17.2546 17.8083 17.1247C18.0902 16.8653 18.4725 16.4887 18.8775 16.017C19.6816 15.0806 20.6049 13.7357 20.9799 12.163L20.4935 12.047L20.0072 11.9311C19.6847 13.2835 18.8742 14.4859 18.1189 15.3655C17.7443 15.8017 17.3904 16.1503 17.1311 16.389C17.0016 16.5082 16.8961 16.5996 16.824 16.6604C16.788 16.6908 16.7603 16.7135 16.7422 16.7282C16.7331 16.7355 16.7265 16.7409 16.7223 16.7442C16.7203 16.7458 16.7188 16.747 16.718 16.7476C16.7177 16.7479 16.7174 16.7481 16.7174 16.7481C16.7173 16.7481 16.7174 16.7481 16.7174 16.7481C16.7174 16.7481 16.7175 16.748 16.7175 16.748C16.7176 16.7479 16.7177 16.7479 17.026 17.1415ZM20.4935 12.047L20.9799 12.163C21.3695 10.5287 20.8572 9.17068 20.2697 8.24349C19.976 7.78006 19.6597 7.41715 19.4165 7.16957C19.2946 7.04542 19.19 6.94925 19.1145 6.88293C19.0766 6.84974 19.046 6.82394 19.0239 6.80578C19.0129 6.79669 19.004 6.78951 18.9974 6.78425C18.9942 6.78163 18.9914 6.77948 18.9893 6.77782C18.9883 6.77699 18.9874 6.77628 18.9866 6.77569C18.9863 6.7754 18.9859 6.77513 18.9856 6.7749C18.9855 6.77479 18.9853 6.77463 18.9852 6.77458C18.985 6.77443 18.9848 6.7743 18.678 7.1691C18.3712 7.56391 18.3711 7.56379 18.3709 7.56368C18.3709 7.56365 18.3708 7.56354 18.3707 7.56349C18.3705 7.56337 18.3704 7.56329 18.3704 7.56323C18.3702 7.56312 18.3702 7.56312 18.3704 7.56324C18.3707 7.56348 18.3716 7.56418 18.373 7.56534C18.3759 7.56765 18.381 7.57179 18.3882 7.57772C18.4027 7.58959 18.4253 7.6086 18.4548 7.63452C18.514 7.68642 18.6003 7.76566 18.7031 7.87028C18.9093 8.08024 19.1776 8.38835 19.425 8.77875C19.9195 9.55921 20.3149 10.6401 20.0072 11.9311L20.4935 12.047ZM18.678 7.1691L18.7226 6.67109L18.5607 6.65662L18.5161 7.15463L18.4716 7.65264L18.6335 7.66712L18.678 7.1691ZM18.5161 6.40039H18.0161V7.15463H18.5161H19.0161V6.40039H18.5161Z" fill="#FFD018"/>
<path fill-rule="evenodd" clip-rule="evenodd" d="M13.1035 13.7857C13.1035 13.7857 13.418 12.9412 13.9679 13.2227C14.5179 13.5042 14.4699 14.4841 14.9702 14.1349C15.4706 13.7857 15.1869 13.2227 15.9283 13.2227C16.6698 13.2227 16.5606 14.1349 17.0052 14.1349C17.4499 14.1349 17.4884 13.2227 17.9854 13.2227C18.4825 13.2227 18.9866 13.7857 18.9866 13.7857L16.0451 17.7882L13.1035 13.7857Z" fill="#8FC753"/>
<path d="M18.6455 17.1582C19.0874 17.1582 20.1096 17.4885 19.875 17.7598C19.641 18.0308 20.5859 18.0312 20.5859 18.0312C20.5859 18.0312 19.9809 17.3789 20.7109 17.3789C21.4409 17.379 22.2794 17.5498 22.5664 17.5498C22.8534 17.5498 22.9788 17.8559 22.7725 18.0312C22.5659 18.2069 22.0711 18.6982 22.5664 18.6982C23.0619 18.6982 22.8835 18.6474 23.0615 18.3389C23.234 18.0406 24.4671 18.0316 24.5479 18.0312C24.5279 17.9949 24.5166 17.953 24.5166 17.9082C24.5166 17.7702 24.6243 17.6583 24.7578 17.6582C24.8914 17.6582 25 17.7701 25 17.9082C25 18.0463 24.8914 18.1582 24.7578 18.1582C24.6686 18.1581 24.5917 18.1075 24.5498 18.0332L24.2354 18.457L24.5625 18.8613C24.6064 18.799 24.6775 18.7579 24.7578 18.7578C24.8913 18.7578 24.9998 18.8699 25 19.0078C25 19.1459 24.8914 19.2578 24.7578 19.2578C24.6243 19.2577 24.5166 19.1458 24.5166 19.0078C24.5166 18.9807 24.5216 18.9551 24.5293 18.9307C24.3446 18.8408 24.0253 18.6983 23.8174 18.6982H23.2402C23.3862 18.6989 24.1844 19.2256 23.9424 19.4541C23.7002 19.6827 23.3709 20.0225 23.0615 19.8525C22.7551 19.6841 22.5697 19.4581 22.5664 19.4541L22.3242 18.6982C22.3242 18.6982 20.8958 18.3293 20.8945 18.584C20.8945 18.8393 20.8906 18.9648 20.3838 18.9648C19.877 18.9648 19.4006 18.8115 19.0869 18.8115C18.7731 18.8116 18.1883 18.9648 18.0801 18.9648C17.9715 18.9648 17.3937 18.9388 17.79 18.6982C18.1867 18.4575 18.2783 18.2061 18.2783 18.2061C18.2783 18.2061 16.6908 18.4395 16.0625 18.4541V18.457C16.0534 18.457 16.0438 18.4552 16.0342 18.4551C16.0245 18.4552 16.015 18.457 16.0059 18.457V18.4541C15.3863 18.4397 13.9006 18.2082 13.8867 18.2061C13.8867 18.2061 13.9784 18.4575 14.375 18.6982C14.7707 18.9387 14.1922 18.9648 14.084 18.9648C13.9749 18.9645 13.3906 18.8115 13.0771 18.8115C12.7634 18.8116 12.287 18.9648 11.7803 18.9648C11.2738 18.9648 11.2695 18.8393 11.2695 18.584C11.2682 18.3306 9.85475 18.6947 9.84082 18.6982L9.59863 19.4541C9.59863 19.4541 9.41197 19.6825 9.10254 19.8525C8.79308 20.0226 8.46385 19.6827 8.22168 19.4541C7.97973 19.2254 8.7796 18.6982 8.9248 18.6982H8.34668C8.04253 18.6986 7.49749 18.9965 7.48926 19.001L7.92871 18.457L7.6123 18.0312C7.6123 18.0312 8.92375 18.0307 9.10254 18.3389C9.28054 18.6474 9.10305 18.6982 9.59863 18.6982C10.0933 18.6979 9.59795 18.2067 9.3916 18.0312C9.18525 17.8559 9.31158 17.5498 9.59863 17.5498C9.88613 17.5496 10.7244 17.3789 11.4541 17.3789C12.1839 17.379 11.5791 18.0312 11.5791 18.0312C11.599 18.0312 12.5212 18.0281 12.2891 17.7598C12.0545 17.4885 13.0777 17.1582 13.5195 17.1582C13.9321 17.1583 15.7835 17.2501 16.0342 17.2627C16.2938 17.2502 18.2335 17.1582 18.6455 17.1582ZM7.24219 18.7578C7.37556 18.758 7.48319 18.87 7.4834 19.0078C7.4834 19.1458 7.37569 19.2577 7.24219 19.2578C7.10857 19.2578 7 19.1459 7 19.0078C7.0002 18.8699 7.1087 18.7578 7.24219 18.7578ZM7.24219 17.6582C7.37569 17.6583 7.4834 17.7702 7.4834 17.9082C7.4834 18.0462 7.37569 18.1581 7.24219 18.1582C7.10857 18.1582 7 18.0463 7 17.9082C7 17.7701 7.10857 17.6582 7.24219 17.6582Z" fill="white"/>
<path d="M16.0941 2.24414H16.3402V2.44336H16.0941V2.80859C16.3698 2.85513 16.5803 3.10141 16.5804 3.39941C16.5804 3.73064 16.3209 3.99977 16.0004 4C15.6797 4 15.4193 3.73078 15.4193 3.39941C15.4195 3.10563 15.624 2.86102 15.8939 2.80957V2.44336H15.6683V2.24414H15.8939V2.0293H16.0941V2.24414Z" fill="#FFD018"/>
<path d="M16.2866 4.45508C16.6939 4.45511 16.9421 4.65865 17.1841 4.84961C17.4261 5.04056 17.5448 4.84962 18.0015 4.84961C18.4581 4.84961 18.1816 5.2255 18.4614 5.22559C18.7377 5.22559 19.3166 5.51684 19.3315 5.52441L18.8726 6.54297L16.104 6.4375L13.3354 6.54297L12.8765 5.52441C12.8839 5.52064 13.4683 5.22572 13.7466 5.22559C14.0265 5.22559 13.7502 4.84975 14.2065 4.84961C14.6633 4.84961 14.7829 5.04059 15.0249 4.84961C15.2667 4.65879 15.5145 4.45521 15.9214 4.45508C16.0011 4.45508 16.06 4.5313 16.104 4.65332C16.148 4.53124 16.2069 4.45508 16.2866 4.45508Z" fill="#E31D1C"/>
<path fill-rule="evenodd" clip-rule="evenodd" d="M15.6053 3.78027C15.59 4.86302 15.6734 5.71663 15.8543 6.33887L15.8758 6.41211L15.8309 6.47363C15.6781 6.68008 15.251 6.74776 14.5623 6.75098C14.324 6.75209 14.0758 6.7447 13.7947 6.73047C13.7766 6.72953 13.4284 6.7101 13.3973 6.70996C13.2062 6.70996 13.0428 6.42029 12.8094 5.84668C12.6412 5.43335 12.4791 4.94579 12.4237 4.6875C12.2972 4.09819 13.3065 3.69528 14.0799 3.81445C14.4556 3.87235 14.9003 3.8139 15.4139 3.63574L15.6082 3.56836L15.6053 3.78027ZM15.3133 3.98242C14.8379 4.12547 14.4123 4.16917 14.0369 4.11133C13.4347 4.01859 12.6456 4.33323 12.7069 4.62207C12.7579 4.86018 12.9149 5.33228 13.077 5.73047C13.1644 5.94537 13.2482 6.12744 13.3201 6.25488C13.3566 6.3194 13.389 6.36828 13.4149 6.39844C13.4191 6.4034 13.4233 6.40783 13.4266 6.41113C13.5247 6.41517 13.8094 6.43065 13.8094 6.43066C14.0857 6.44465 14.3291 6.45226 14.5613 6.45117C15.0499 6.44886 15.4116 6.40205 15.5496 6.33008C15.3888 5.72739 15.3108 4.94499 15.3133 3.98242Z" fill="#FFD018"/>
<path fill-rule="evenodd" clip-rule="evenodd" d="M16.4576 3.78027C16.4729 4.86302 16.3895 5.71663 16.2086 6.33887L16.1871 6.41211L16.232 6.47363C16.3848 6.68008 16.8119 6.74776 17.5005 6.75098C17.7388 6.75209 17.9871 6.7447 18.2681 6.73047C18.2862 6.72953 18.6345 6.7101 18.6656 6.70996C18.8567 6.70996 19.0201 6.42029 19.2535 5.84668C19.4217 5.43335 19.5838 4.94579 19.6392 4.6875C19.7657 4.09819 18.7564 3.69528 17.983 3.81445C17.6073 3.87235 17.1625 3.8139 16.649 3.63574L16.4546 3.56836L16.4576 3.78027ZM16.7496 3.98242C17.225 4.12547 17.6506 4.16917 18.0259 4.11133C18.6282 4.01859 19.4172 4.33323 19.356 4.62207C19.3049 4.86018 19.1479 5.33228 18.9859 5.73047C18.8985 5.94537 18.8147 6.12744 18.7427 6.25488C18.7063 6.3194 18.6739 6.36828 18.648 6.39844C18.6437 6.4034 18.6395 6.40783 18.6363 6.41113C18.5382 6.41517 18.2534 6.43065 18.2535 6.43066C17.9772 6.44465 17.7338 6.45226 17.5015 6.45117C17.0129 6.44886 16.6512 6.40205 16.5132 6.33008C16.6741 5.72739 16.7521 4.94499 16.7496 3.98242Z" fill="#FFD018"/>
<path fill-rule="evenodd" clip-rule="evenodd" d="M13.1823 3.50395C13.34 3.31143 13.4798 3.32797 13.6569 3.50005C13.7114 3.55311 13.7362 3.57165 13.7535 3.57427C13.773 3.57713 13.7784 3.57386 13.9098 3.49321C13.9603 3.46213 14.0162 3.40487 14.026 3.40141C14.0579 3.39205 14.1319 3.46466 14.1637 3.49126C14.2297 3.48849 14.3117 3.48638 14.4098 3.48638V3.58696C14.3332 3.58696 14.2666 3.58723 14.2106 3.58891C14.1941 3.62322 14.1695 3.6342 14.1344 3.6397C14.0922 3.64629 14.0294 3.64271 13.9869 3.63286C13.9552 3.62545 13.9354 3.61843 13.9264 3.59966C13.7905 3.68291 13.7905 3.68034 13.7399 3.6729C13.6954 3.66629 13.66 3.64089 13.5905 3.57329C13.4495 3.43627 13.3726 3.42679 13.2565 3.56841C13.1808 3.66086 13.0916 3.6594 12.9635 3.60063C12.9521 3.5954 12.9411 3.59067 12.9235 3.58208C12.7982 3.52104 12.7629 3.51648 12.7301 3.56548C12.6607 3.66935 12.6309 3.70382 12.5914 3.72173C12.5697 3.73151 12.5482 3.73453 12.5221 3.73149C12.509 3.72994 12.4547 3.71884 12.4547 3.7188C12.4438 3.71683 12.4333 3.71538 12.4225 3.71391C12.3121 3.699 12.3024 3.71276 12.3024 3.93755V4.32231C12.3024 4.38091 12.2888 4.43859 12.2623 4.50493C12.2492 4.53769 12.2444 4.5484 12.2076 4.62602C12.146 4.75606 12.1227 4.82778 12.1227 4.91704C12.1227 4.99512 12.1315 5.04358 12.153 5.0977C12.1608 5.11732 12.2036 5.2095 12.2164 5.24028C12.2474 5.31455 12.2747 5.39583 12.3014 5.49907C12.3347 5.62775 12.3625 5.66485 12.4332 5.70806C12.5731 5.79352 12.6387 5.87175 12.735 6.12798C12.8047 6.31372 12.8367 6.41421 12.8365 6.46977C12.8417 6.47633 12.8474 6.48443 12.8541 6.49321C12.9112 6.56779 12.9629 6.56782 13.0377 6.48931L13.1071 6.55864C12.9929 6.67849 12.8738 6.67864 12.7789 6.55473C12.7692 6.54205 12.7613 6.53223 12.7555 6.52544C12.7579 6.52708 12.7595 6.52628 12.7623 6.52641C12.759 6.52472 12.7546 6.52478 12.7516 6.52251C12.7449 6.51699 12.7444 6.51656 12.7389 6.50981C12.736 6.50596 12.7356 6.50563 12.7311 6.49516C12.7265 6.47308 12.7249 6.4644 12.7389 6.45317C12.7375 6.44583 12.7358 6.4366 12.733 6.42583C12.7194 6.37224 12.691 6.28612 12.6451 6.16411C12.5569 5.92927 12.5051 5.86929 12.3834 5.79497C12.2909 5.73844 12.2476 5.67889 12.2076 5.52446C12.1822 5.42608 12.1567 5.35003 12.1276 5.28032C12.1158 5.25213 12.0731 5.15851 12.0641 5.13579C12.0377 5.06929 12.026 5.00811 12.026 4.91704C12.026 4.8082 12.053 4.72498 12.1207 4.58208C12.1563 4.50697 12.1615 4.49672 12.1735 4.46684C12.1955 4.41168 12.2057 4.36597 12.2057 4.32231V3.93755C12.2057 3.66082 12.2517 3.58977 12.4342 3.61431C12.4466 3.61598 12.4589 3.61794 12.4713 3.62016C12.554 3.63505 12.5448 3.63452 12.5524 3.63091C12.5681 3.62378 12.5926 3.59378 12.65 3.50786C12.7225 3.39966 12.7973 3.40984 12.9645 3.49126C12.9817 3.49963 12.9919 3.50494 13.0026 3.50981C13.0958 3.55257 13.1423 3.55281 13.1823 3.50395ZM18.2946 3.50005C18.4716 3.32789 18.6114 3.31155 18.7692 3.50395C18.8092 3.55286 18.8564 3.55271 18.9498 3.50981C18.9604 3.50498 18.97 3.49953 18.9869 3.49126C19.1541 3.40981 19.229 3.39977 19.3014 3.50786C19.3589 3.59385 19.3833 3.62381 19.399 3.63091C19.4073 3.63465 19.3961 3.63528 19.4801 3.62016C19.4926 3.61791 19.5047 3.61599 19.5172 3.61431C19.7 3.58961 19.7457 3.66053 19.7457 3.93755V4.32231C19.7457 4.36605 19.7569 4.41155 19.7789 4.46684C19.7909 4.49671 19.7951 4.50701 19.8307 4.58208C19.8985 4.72506 19.9254 4.80813 19.9254 4.91704C19.9254 5.00807 19.9147 5.06932 19.8883 5.13579C19.8793 5.15854 19.8366 5.25224 19.8248 5.28032C19.7957 5.3501 19.7702 5.42598 19.7448 5.52446C19.7048 5.67899 19.6606 5.73841 19.568 5.79497C19.4465 5.86921 19.3954 5.92951 19.3073 6.16411C19.2614 6.2862 19.233 6.37225 19.2194 6.42583C19.2166 6.43674 19.2139 6.44577 19.2125 6.45317C19.2265 6.46441 19.225 6.473 19.2203 6.49516C19.2157 6.50572 19.2156 6.50572 19.2125 6.50981C19.207 6.51653 19.2073 6.51707 19.2008 6.52251C19.1976 6.52493 19.1927 6.52463 19.1891 6.52641C19.1922 6.52631 19.1944 6.52719 19.1969 6.52544C19.1911 6.5322 19.1831 6.54214 19.1735 6.55473C19.0786 6.67865 18.9595 6.6785 18.8453 6.55864L18.9137 6.48931C18.9886 6.56793 19.0402 6.56766 19.0973 6.49321C19.104 6.48441 19.1097 6.47635 19.1149 6.46977C19.1146 6.41423 19.1466 6.31383 19.2164 6.12798C19.3127 5.87156 19.3792 5.79354 19.5192 5.70806C19.5896 5.66493 19.6177 5.62765 19.651 5.49907C19.6777 5.39578 19.7049 5.31457 19.736 5.24028C19.7489 5.20939 19.7907 5.1173 19.7985 5.0977C19.82 5.04348 19.8287 4.99524 19.8287 4.91704C19.8287 4.82773 19.8054 4.75612 19.7438 4.62602C19.707 4.54846 19.7022 4.53768 19.6891 4.50493C19.6626 4.43862 19.649 4.38089 19.649 4.32231V3.93755C19.649 3.71269 19.6403 3.69901 19.5299 3.71391C19.5188 3.71541 19.508 3.71677 19.4967 3.7188C19.5008 3.71805 19.444 3.72985 19.4303 3.73149C19.404 3.7346 19.3818 3.73157 19.36 3.72173C19.3207 3.70379 19.2914 3.66888 19.2223 3.56548C19.1895 3.51642 19.1542 3.52108 19.0289 3.58208C19.0112 3.59072 19.0003 3.59539 18.9889 3.60063C18.8606 3.65953 18.7717 3.66093 18.6959 3.56841C18.5796 3.42643 18.502 3.43612 18.361 3.57329C18.2915 3.64085 18.2561 3.66635 18.2115 3.6729C18.1611 3.68031 18.1616 3.68271 18.026 3.59966C18.017 3.61839 17.9971 3.62547 17.9655 3.63286C17.923 3.64276 17.8593 3.6463 17.817 3.6397C17.7821 3.63417 17.7572 3.62308 17.7408 3.58891C17.685 3.58723 17.6189 3.58697 17.5426 3.58696V3.48638C17.6404 3.48638 17.7219 3.4885 17.7877 3.49126C17.8194 3.46475 17.8934 3.39241 17.9254 3.40141C17.9347 3.40415 17.9917 3.46197 18.0426 3.49321C18.1732 3.57337 18.1787 3.57705 18.1979 3.57427C18.2152 3.57172 18.2399 3.55314 18.2946 3.50005Z" fill="#5E5E5E"/>
<path d="M13.7739 17.885L13.8347 17.3887C14.9092 17.5202 15.6267 17.586 15.9882 17.5862C16.5334 17.6107 17.1833 17.5713 17.9366 17.4672L18.0051 17.9625C17.2235 18.0704 16.5441 18.1117 15.977 18.086C15.5996 18.086 14.8687 18.019 13.7739 17.885Z" fill="#272727"/>
</g>
</g>
<defs>
<clipPath id="clip0_299_35591">
<rect width="32" height="24" fill="white"/>
</clipPath>
</defs>
</svg>
