<svg width="32" height="24" viewBox="0 0 32 24" fill="none" xmlns="http://www.w3.org/2000/svg">
<g clip-path="url(#clip0_299_35703)">
<rect width="32" height="24" fill="white"/>
<path fill-rule="evenodd" clip-rule="evenodd" d="M0 0V24H32V0H0Z" fill="#F7FCFF"/>
<mask id="mask0_299_35703" style="mask-type:luminance" maskUnits="userSpaceOnUse" x="0" y="0" width="32" height="24">
<path fill-rule="evenodd" clip-rule="evenodd" d="M0 0V24H32V0H0Z" fill="white"/>
</mask>
<g mask="url(#mask0_299_35703)">
<path fill-rule="evenodd" clip-rule="evenodd" d="M0 0V8H32V0H0Z" fill="#3D58DB"/>
<path fill-rule="evenodd" clip-rule="evenodd" d="M0 16V24H32V16H0Z" fill="#3D58DB"/>
<path d="M15.7834 8.21484C17.7947 8.21484 19.4249 9.84523 19.425 11.8564C19.425 13.8678 17.7948 15.498 15.7834 15.498C13.7722 15.4979 12.1418 13.8677 12.1418 11.8564C12.1419 9.84529 13.7723 8.21495 15.7834 8.21484Z" stroke="#E8AA00"/>
<path fill-rule="evenodd" clip-rule="evenodd" d="M13.8107 9.66211C13.8107 9.66211 12.8582 11.2298 12.8582 12.306C12.8582 13.3822 13.9983 14.7349 15.7922 14.7349C17.542 14.7349 18.7997 13.6896 18.8377 12.306C18.8758 10.9223 17.8964 9.93728 17.8964 9.93728C17.8964 9.93728 18.4507 11.9294 18.1736 12.7366C17.8964 13.5439 16.9994 14.5205 15.7922 14.3962C14.585 14.2718 13.4394 12.786 13.4394 12.306C13.4394 11.826 13.8107 9.66211 13.8107 9.66211Z" fill="#1E601B"/>
<path d="M14.1605 12.3281H17.3678" stroke="#188396"/>
<path d="M14.459 11.8047H17.2185" stroke="#E8AA00"/>
<path d="M17.05 12.4102H14.594L15.8323 10.3535L17.05 12.4102Z" stroke="#E8AA00"/>
</g>
</g>
<defs>
<clipPath id="clip0_299_35703">
<rect width="32" height="24" fill="white"/>
</clipPath>
</defs>
</svg>
