<svg width="32" height="24" viewBox="0 0 32 24" fill="none" xmlns="http://www.w3.org/2000/svg">
<g clip-path="url(#clip0_299_35705)">
<rect width="32" height="24" fill="white"/>
<path fill-rule="evenodd" clip-rule="evenodd" d="M0 0V24H32V0H0Z" fill="#E31D1C"/>
<mask id="mask0_299_35705" style="mask-type:luminance" maskUnits="userSpaceOnUse" x="0" y="0" width="32" height="24">
<path fill-rule="evenodd" clip-rule="evenodd" d="M0 0V24H32V0H0Z" fill="white"/>
</mask>
<g mask="url(#mask0_299_35705)">
<path fill-rule="evenodd" clip-rule="evenodd" d="M0 12V24H32V12H0Z" fill="#2E42A5"/>
</g>
<path fill-rule="evenodd" clip-rule="evenodd" d="M0 -2V26L20 12L0 -2Z" fill="#F7FCFF"/>
<mask id="mask1_299_35705" style="mask-type:luminance" maskUnits="userSpaceOnUse" x="0" y="-2" width="20" height="28">
<path fill-rule="evenodd" clip-rule="evenodd" d="M0 -2V26L20 12L0 -2Z" fill="white"/>
</mask>
<g mask="url(#mask1_299_35705)">
<path fill-rule="evenodd" clip-rule="evenodd" d="M8.12581 10.1888C9.56253 10.1888 10.7272 9.25111 10.7272 8.09441C10.7272 6.9377 9.56253 6 8.12581 6C6.6891 6 5.52441 6.9377 5.52441 8.09441C5.52441 9.25111 6.6891 10.1888 8.12581 10.1888Z" fill="#FBCD17"/>
<path d="M9.24109 6.88477H9.21765C9.16443 6.88619 9.16406 6.88617 9.06824 6.89062C8.90937 6.8991 8.75907 6.91409 8.63562 6.93555C8.64964 6.94607 8.66416 6.95758 8.67859 6.96875C9.44509 6.85447 9.80649 6.85432 10.1962 6.92578C10.2422 6.93433 10.243 6.93376 10.285 6.94141C10.3797 6.95822 10.4452 6.96582 10.5282 6.96582C10.6025 6.96573 10.6027 6.96558 10.6425 6.96582C10.6513 6.96597 10.6517 6.9659 10.6669 6.9668C10.6775 6.96691 10.678 6.96659 10.7626 6.99316L10.8895 7.14648L10.7665 7.4375C10.7623 7.43925 10.7512 7.44416 10.7255 7.45508C10.6645 7.46783 10.6634 7.46766 10.6512 7.46777C10.5454 7.47554 10.4357 7.48372 10.2997 7.49609C9.92008 7.53064 9.49326 7.58089 9.01355 7.65137C8.99912 7.67038 8.98117 7.69184 8.96082 7.7168C8.90207 7.75951 8.86466 7.76804 8.72449 7.79102C8.58007 7.81468 8.34519 7.84364 8.13757 7.86328C8.03176 7.87329 7.9398 7.87978 7.87195 7.88281C7.39376 7.90413 7.53658 7.91033 7.50574 7.6582C7.48291 7.47195 7.40342 7.44666 7.56824 7.40234C7.50739 7.35479 7.4475 7.30285 7.3905 7.24512C7.29178 7.14512 7.27361 7.13465 7.28308 7.13281C7.27711 7.13386 7.26882 7.13672 7.18835 7.16699C6.99796 7.23556 6.80768 7.25338 6.53406 7.20117C6.1356 7.12511 5.67903 7.20279 5.16199 7.44238L4.95203 6.98828C5.55779 6.7076 6.11765 6.61258 6.62781 6.70996C6.81109 6.74493 6.91058 6.73604 7.01843 6.69727C7.08619 6.67013 7.14339 6.64933 7.20105 6.63965C7.39092 6.60794 7.54355 6.68857 7.74597 6.89355C7.98571 7.13639 8.08982 7.16277 8.10242 7.20605C8.10319 7.19468 8.09987 7.17458 8.0946 7.15039C8.00907 7.0666 7.96861 6.97474 7.97156 6.86523C7.97274 6.82259 7.97874 6.78421 7.99011 6.75C7.98998 6.74295 7.99011 6.73553 7.99011 6.72754C7.99011 6.52161 8.14103 6.38477 8.35339 6.38477H9.23816L9.24109 6.88477ZM7.93933 7.83203C7.95389 7.82891 7.96996 7.82574 7.98718 7.82227L8.03406 7.8125C8.01019 7.81756 7.97906 7.8235 7.93933 7.83203Z" fill="#DA610A"/>
<path d="M8.08643 8.58008C9.07945 8.41727 9.73393 8.4364 10.1128 8.56348C10.5498 8.70997 11.0325 8.66657 11.5405 8.49512C11.3791 9.21382 11.2954 9.89294 11.2954 10.5312C11.2954 11.258 11.4354 11.8453 11.563 12.3604C11.6925 12.8834 11.8022 13.311 11.8022 13.8037C11.8022 14.2343 11.6591 14.4602 11.4595 14.6016C11.2284 14.7651 10.8433 14.8701 10.272 14.8701C9.46604 14.8701 8.71132 15.0861 8.01709 15.5107L8.00635 15.5029L7.99365 15.5107C7.29963 15.0865 6.54538 14.8701 5.73975 14.8701C5.16843 14.8701 4.78334 14.7651 4.55225 14.6016C4.35262 14.4602 4.20949 14.2343 4.20947 13.8037C4.20947 13.311 4.31919 12.8834 4.44873 12.3604C4.5763 11.8453 4.71629 11.258 4.71631 10.5312C4.71631 9.89288 4.63164 9.2139 4.47021 8.49512C4.97857 8.66683 5.46166 8.71004 5.89893 8.56348C6.27779 8.4364 6.93227 8.41727 7.92529 8.58008L8.00635 8.59277L8.08643 8.58008Z" fill="#56C6F5" stroke="#E31D1C"/>
<path fill-rule="evenodd" clip-rule="evenodd" d="M8.78485 10.6232L8.01342 9.9375L7.24199 10.6232H7.47056V11.0185L6.27056 11.7661V13.5946H6.04199V13.9375H6.27056H9.75628H10.042V13.5946H9.75628V11.7661L8.49914 10.9829V10.6232H8.78485Z" fill="#F7FCFF"/>
<path d="M8.01342 9.9375L8.09647 9.84407L8.01342 9.77026L7.93038 9.84407L8.01342 9.9375ZM8.78485 10.6232V10.7482H9.11362L8.86789 10.5298L8.78485 10.6232ZM7.24199 10.6232L7.15895 10.5298L6.91322 10.7482H7.24199V10.6232ZM7.47056 10.6232H7.59556V10.4982H7.47056V10.6232ZM7.47056 11.0185L7.53666 11.1246L7.59556 11.0879V11.0185H7.47056ZM6.27056 11.7661L6.20447 11.66L6.14556 11.6967V11.7661H6.27056ZM6.27056 13.5946V13.7196H6.39556V13.5946H6.27056ZM6.04199 13.5946V13.4696H5.91699V13.5946H6.04199ZM6.04199 13.9375H5.91699V14.0625H6.04199V13.9375ZM10.042 13.9375V14.0625H10.167V13.9375H10.042ZM10.042 13.5946H10.167V13.4696H10.042V13.5946ZM9.75628 13.5946H9.63128V13.7196H9.75628V13.5946ZM9.75628 11.7661H9.88128V11.6967L9.82237 11.66L9.75628 11.7661ZM8.49914 10.9829H8.37414V11.0523L8.43304 11.089L8.49914 10.9829ZM8.49914 10.6232V10.4982H8.37414V10.6232H8.49914ZM8.01342 9.9375L7.93038 10.0309L8.7018 10.7166L8.78485 10.6232L8.86789 10.5298L8.09647 9.84407L8.01342 9.9375ZM7.24199 10.6232L7.32504 10.7166L8.09647 10.0309L8.01342 9.9375L7.93038 9.84407L7.15895 10.5298L7.24199 10.6232ZM7.47056 10.6232V10.4982H7.24199V10.6232V10.7482H7.47056V10.6232ZM7.47056 10.6232H7.34556V11.0185H7.47056H7.59556V10.6232H7.47056ZM7.47056 11.0185L7.40447 10.9124L6.20447 11.66L6.27056 11.7661L6.33666 11.8722L7.53666 11.1246L7.47056 11.0185ZM6.27056 11.7661H6.14556V13.5946H6.27056H6.39556V11.7661H6.27056ZM6.27056 13.5946V13.4696H6.04199V13.5946V13.7196H6.27056V13.5946ZM6.04199 13.5946H5.91699V13.9375H6.04199H6.16699V13.5946H6.04199ZM6.04199 13.9375V14.0625H6.27056V13.9375V13.8125H6.04199V13.9375ZM6.27056 13.9375V14.0625H9.75628V13.9375V13.8125H6.27056V13.9375ZM9.75628 13.9375V14.0625H10.042V13.9375V13.8125H9.75628V13.9375ZM10.042 13.9375H10.167V13.5946H10.042H9.91699V13.9375H10.042ZM10.042 13.5946V13.4696H9.75628V13.5946V13.7196H10.042V13.5946ZM9.75628 13.5946H9.88128V11.7661H9.75628H9.63128V13.5946H9.75628ZM9.75628 11.7661L9.82237 11.66L8.56523 10.8768L8.49914 10.9829L8.43304 11.089L9.69018 11.8722L9.75628 11.7661ZM8.49914 10.9829H8.62414V10.6232H8.49914H8.37414V10.9829H8.49914ZM8.78485 10.6232V10.4982H8.49914V10.6232V10.7482H8.78485V10.6232Z" fill="#3B3B3B"/>
<path d="M7.95191 17.0204C9.01295 17.0204 9.7434 16.9046 10.1195 16.7071C10.2181 16.5395 10.3911 16.4448 10.5751 16.4516C11.4016 16.4822 12.0416 16.134 12.5448 15.3688C13.0885 14.542 13.1978 13.3675 12.8434 11.8259L13.743 11.6191C14.149 13.3855 14.0164 14.8109 13.3161 15.876C12.6885 16.8303 11.8329 17.3401 10.7886 17.3747C10.2552 17.7696 9.32055 17.9435 7.95191 17.9435C6.62785 17.9435 5.64614 17.6864 5.0165 17.1402C3.58662 16.8024 2.67796 16.2321 2.32067 15.3867C1.9398 14.4856 1.9398 13.2346 2.29508 11.6232L3.19651 11.8219C2.87863 13.2638 2.87863 14.3358 3.17092 15.0274C3.37489 15.5099 3.96753 15.9038 4.97156 16.1768L5.90438 16.3763L5.85959 16.6118C6.31466 16.8778 7.01015 17.0204 7.95191 17.0204Z" fill="#FBCD17"/>
<path fill-rule="evenodd" clip-rule="evenodd" d="M4.7667 9.17679C4.86974 8.92068 5.16096 8.79656 5.41709 8.89945L5.92881 9.1055C6.00382 9.13572 6.06748 9.18174 6.11729 9.23832C6.19162 9.22517 6.26535 9.22978 6.33409 9.24906L6.84971 9.09086C7.11374 9.00996 7.39381 9.15886 7.47471 9.42289C7.51584 9.55736 7.49747 9.69637 7.43467 9.81058C7.64224 10.1621 7.32305 10.6813 6.85167 10.5391L6.8292 10.5323L6.77256 10.7735C6.71174 11.0304 6.50936 11.1532 6.30381 11.1582C5.98202 11.4148 5.40039 11.1625 5.50303 10.6582L5.51377 10.6016C5.16014 10.6234 4.86109 10.2479 5.03624 9.88382L5.05967 9.83402L5.04405 9.82718C4.78792 9.72409 4.66366 9.43295 4.7667 9.17679ZM6.32041 10.3789L6.8292 10.5323L6.95127 10.0157L6.32041 10.3789Z" fill="#73BE4A"/>
<path fill-rule="evenodd" clip-rule="evenodd" d="M6.20544 10.4766C6.48159 10.4766 6.70544 10.2527 6.70544 9.97656C6.70544 9.70042 6.48159 9.47656 6.20544 9.47656C5.9293 9.47656 5.70544 9.70042 5.70544 9.97656C5.70544 10.2527 5.9293 10.4766 6.20544 10.4766Z" fill="#FBCD17"/>
<path d="M10.0248 8.96875C10.1958 8.96875 10.2316 9.74014 10.2396 10.0752C10.5446 10.1667 10.7777 10.4297 10.7777 10.4297H9.30603C9.30603 10.4297 9.52864 10.1779 9.82361 10.0811C9.82681 9.74933 9.85287 8.96911 10.0248 8.96875Z" fill="#F7FCFF"/>
<path d="M2.55045 12.5684L2.79675 12.6112C2.59738 13.7573 2.59738 14.579 2.78995 15.0691C3.01408 15.6396 4.33634 16.4048 4.7104 16.4048V16.6548C4.23996 16.6548 2.82192 15.8342 2.55726 15.1606C2.34388 14.6175 2.34388 13.7558 2.55045 12.5684Z" fill="#73BE4A"/>
<path d="M13.3811 12.5098L13.1346 12.5511C13.315 13.6265 13.2746 14.4654 13.0182 15.067C12.7093 15.792 11.516 16.7157 11.2031 16.7157V16.9657C11.6243 16.9657 12.9025 15.9763 13.2482 15.165C13.5261 14.5128 13.5688 13.6281 13.3811 12.5098Z" fill="#73BE4A"/>
<path d="M6.39307 17.4233L6.44016 17.1777C7.23674 17.3305 7.7809 17.4069 8.06599 17.4069C8.35048 17.4069 8.86519 17.3307 9.604 17.1781L9.65457 17.4229C8.8999 17.5788 8.37241 17.6569 8.06599 17.6569C7.76017 17.6569 7.20474 17.579 6.39307 17.4233Z" fill="#73BE4A"/>
</g>
</g>
<defs>
<clipPath id="clip0_299_35705">
<rect width="32" height="24" fill="white"/>
</clipPath>
</defs>
</svg>
