<svg width="32" height="24" viewBox="0 0 32 24" fill="none" xmlns="http://www.w3.org/2000/svg">
<g clip-path="url(#clip0_299_35381)">
<rect width="32" height="24" fill="white"/>
<path fill-rule="evenodd" clip-rule="evenodd" d="M0 0H32V24H0V0Z" fill="#3D58DB"/>
<path d="M33 5V19H-1V5H33Z" fill="#C51918" stroke="#FFD018" stroke-width="2"/>
<path d="M7.14932 9.33063C7.02937 9.33063 6.93213 9.05943 6.93213 8.72489C6.93213 8.39034 7.02937 8.11914 7.14932 8.11914H24.5601C24.6801 8.11914 24.7773 8.39034 24.7773 8.72489C24.7773 9.05943 24.6801 9.33063 24.5601 9.33063H7.14932Z" fill="#FFD018"/>
<path fill-rule="evenodd" clip-rule="evenodd" d="M24.0952 8.60229L25.1063 7.3125L26.8952 8.60229L25.1063 9.926L24.0952 8.60229Z" fill="#F7FCFF"/>
<path d="M7.14932 13.3306C7.02937 13.3306 6.93213 13.0594 6.93213 12.7249C6.93213 12.3903 7.02937 12.1191 7.14932 12.1191H24.5601C24.6801 12.1191 24.7773 12.3903 24.7773 12.7249C24.7773 13.0594 24.6801 13.3306 24.5601 13.3306H7.14932Z" fill="#FFD018"/>
<path fill-rule="evenodd" clip-rule="evenodd" d="M24.0952 12.6023L25.1063 11.3125L26.8952 12.6023L25.1063 13.926L24.0952 12.6023Z" fill="#F7FCFF"/>
<path d="M4.34553 15.8209C4.1847 15.8209 4.05432 15.5129 4.05432 15.1331C4.05432 14.7532 4.1847 14.4453 4.34553 14.4453H27.6897C27.8506 14.4453 27.9809 14.7532 27.9809 15.1331C27.9809 15.5129 27.8506 15.8209 27.6897 15.8209H4.34553Z" fill="#FFD018"/>
<path fill-rule="evenodd" clip-rule="evenodd" d="M8.81726 12.0523C8.81726 12.0523 11.6586 6.07227 15.7225 6.07227C19.7864 6.07227 22.7233 12.0523 22.7233 12.0523C22.7233 12.0523 19.1372 17.9537 15.7703 17.9537C12.4034 17.9537 8.81726 12.0523 8.81726 12.0523Z" fill="#F7FCFF"/>
<mask id="mask0_299_35381" style="mask-type:luminance" maskUnits="userSpaceOnUse" x="8" y="6" width="15" height="12">
<path fill-rule="evenodd" clip-rule="evenodd" d="M8.81726 12.0523C8.81726 12.0523 11.6586 6.07227 15.7225 6.07227C19.7864 6.07227 22.7233 12.0523 22.7233 12.0523C22.7233 12.0523 19.1372 17.9537 15.7703 17.9537C12.4034 17.9537 8.81726 12.0523 8.81726 12.0523Z" fill="white"/>
</mask>
<g mask="url(#mask0_299_35381)">
<path fill-rule="evenodd" clip-rule="evenodd" d="M15.9242 5.67969C15.9242 5.67969 14.9969 6.80589 15.306 7.87981C15.6151 8.95373 16.3352 8.84029 16.3352 9.78606C16.3352 10.7318 16.0026 11.6964 16.3352 11.6964C16.6679 11.6964 16.7832 12.349 16.4791 12.7915C16.1751 13.2339 15.9062 13.2476 15.9242 13.9677C15.9422 14.6878 17.5162 15.3947 16.7537 15.3947C15.9912 15.3947 14.9863 16.1348 15.306 16.1348C15.6257 16.1348 17.2986 16.7114 17.2986 17.4681C17.2986 18.2249 17.2986 18.8305 17.2986 18.8305H8.57117V5.67969H15.9242Z" fill="#272727"/>
<path d="M11.8191 14.2295H11.3845V12.46H11.8191V14.2295ZM12.4597 14.2295H12.0251V12.46H12.4597V14.2295ZM13.1003 14.2295H12.6658V12.46H13.1003V14.2295ZM13.741 14.2295H13.3064V12.46H13.741V14.2295ZM14.3816 14.2295H13.947V12.46H14.3816V14.2295ZM15.0222 14.2295H14.5886V12.46H15.0222V14.2295ZM11.8191 11.6914H11.3845V9.92188H11.8191V11.6914ZM12.4597 11.6914H12.0251V9.92188H12.4597V11.6914ZM13.1003 11.6914H12.6658V9.92188H13.1003V11.6914ZM13.741 11.6914H13.3064V9.92188H13.741V11.6914ZM14.3816 11.6914H13.947V9.92188H14.3816V11.6914ZM15.0222 11.6914H14.5886V9.92188H15.0222V11.6914Z" fill="#F7FCFF"/>
<path d="M16.9775 14.2295H16.543V12.46H16.9775V14.2295ZM17.6182 14.2295H17.1836V12.46H17.6182V14.2295ZM18.2588 14.2295H17.8242V12.46H18.2588V14.2295ZM18.8994 14.2295H18.4648V12.46H18.8994V14.2295ZM19.54 14.2295H19.1055V12.46H19.54V14.2295ZM20.1807 14.2295H19.7471V12.46H20.1807V14.2295ZM16.9775 11.6914H16.543V9.92188H16.9775V11.6914ZM17.6182 11.6914H17.1836V9.92188H17.6182V11.6914ZM18.2588 11.6914H17.8242V9.92188H18.2588V11.6914ZM18.8994 11.6914H18.4648V9.92188H18.8994V11.6914ZM19.54 11.6914H19.1055V9.92188H19.54V11.6914ZM20.1807 11.6914H19.7471V9.92188H20.1807V11.6914Z" fill="#272727"/>
<path fill-rule="evenodd" clip-rule="evenodd" d="M13.2315 7.07145C12.623 7.25998 12.3446 8.85579 12.4126 9.24152C12.4806 9.62724 12.687 9.19312 12.687 9.19312C12.687 9.19312 13.1081 10.1082 13.1515 10.3544C13.1949 10.6006 13.4166 9.98226 13.4166 9.98226C13.4166 9.98226 14.147 10.4854 14.2458 11.046C14.3447 11.6066 14.4933 10.4045 14.4933 10.4045L14.6588 10.3753L14.5541 9.7817L14.8696 10.0515L14.7723 9.49944C14.7723 9.49944 15.0099 9.80995 14.9496 9.46817C14.8893 9.12639 14.8557 8.93558 14.8557 8.93558L14.7733 8.46842L15.0856 8.41336C15.0856 8.41336 13.84 6.88292 13.2315 7.07145Z" fill="#3D58DB"/>
</g>
<path fill-rule="evenodd" clip-rule="evenodd" d="M26.0884 13.695C25.4564 13.775 24.905 15.2982 24.905 15.6898C24.905 16.0815 25.1837 15.6898 25.1837 15.6898C25.1837 15.6898 25.4395 16.6642 25.4395 16.9142C25.4395 17.1642 25.7652 16.5937 25.7652 16.5937C25.7652 16.5937 26.3971 17.216 26.3971 17.7852C26.3971 18.3545 26.7522 17.1965 26.7522 17.1965H26.9202V16.5937L27.1841 16.9142V16.3536C27.1841 16.3536 27.3642 16.7007 27.3642 16.3536C27.3642 16.0066 27.3642 15.8128 27.3642 15.8128V15.3384H27.6813C27.6813 15.3384 26.7204 13.615 26.0884 13.695Z" fill="#3D58DB"/>
<path fill-rule="evenodd" clip-rule="evenodd" d="M5.59292 13.4645C6.22491 13.5445 6.77625 15.0677 6.77625 15.4594C6.77625 15.8511 6.49754 15.4594 6.49754 15.4594C6.49754 15.4594 6.2418 16.4337 6.2418 16.6837C6.2418 16.9337 5.91606 16.3632 5.91606 16.3632C5.91606 16.3632 5.2842 16.9855 5.2842 17.5548C5.2842 18.124 4.92903 16.966 4.92903 16.966H4.76104V16.3632L4.49719 16.6837V16.1231C4.49719 16.1231 4.31711 16.4702 4.31711 16.1231C4.31711 15.7761 4.31711 15.5823 4.31711 15.5823V15.108H4.00002C4.00002 15.108 4.96092 13.3845 5.59292 13.4645Z" fill="#3D58DB"/>
</g>
<defs>
<clipPath id="clip0_299_35381">
<rect width="32" height="24" fill="white"/>
</clipPath>
</defs>
</svg>
