<svg width="32" height="24" viewBox="0 0 32 24" fill="none" xmlns="http://www.w3.org/2000/svg">
<g clip-path="url(#clip0_299_35387)">
<rect width="32" height="24" fill="white"/>
<path fill-rule="evenodd" clip-rule="evenodd" d="M0 0V24H32V0H0Z" fill="#2E42A5"/>
<mask id="mask0_299_35387" style="mask-type:luminance" maskUnits="userSpaceOnUse" x="0" y="0" width="32" height="24">
<path fill-rule="evenodd" clip-rule="evenodd" d="M0 0V24H32V0H0Z" fill="white"/>
</mask>
<g mask="url(#mask0_299_35387)">
<path d="M23.1321 18.5029L24.1448 18.5244L23.3381 19.1729L23.6311 20.1992L22.8 19.5869L21.969 20.1992L22.262 19.1729L21.4553 18.5244L22.468 18.5029L22.8 17.4893L23.1321 18.5029ZM20.0217 16.1055L21.0344 16.1279L20.2278 16.7754L20.5208 17.8027L19.6897 17.1895L18.8586 17.8027L19.1516 16.7754L18.345 16.1279L19.3577 16.1055L19.6897 15.0928L20.0217 16.1055ZM26.2424 16.1055L27.2551 16.1279L26.4485 16.7754L26.7415 17.8027L25.9104 17.1895L25.0793 17.8027L25.3723 16.7754L24.5657 16.1279L25.5784 16.1055L25.9104 15.0928L26.2424 16.1055ZM26.053 7.70312H23.6106V8.51074H25.4827L24.72 9.91016H23.6106V12.709L25.4377 9.8291L27.803 13.9238H26.8372L26.4993 13.4756H24.3586L22.8538 16.2549L22.8547 16.4102L22.8118 16.332L22.7708 16.4102V16.2549L21.2659 13.4756H19.1262L18.7883 13.9238H17.8225L20.1868 9.8291L22.0149 12.709V7.70312H19.5725L18.7883 6.19922H26.8372L26.053 7.70312ZM19.6711 12.3164H20.6653L20.1399 11.5088L19.6711 12.3164ZM24.9602 12.3164H25.9543L25.4846 11.5088L24.9602 12.3164ZM17.4768 8.91602L18.4895 8.9375L17.6829 9.58594L17.9758 10.6123L17.1448 10L16.3137 10.6123L16.6067 9.58594L15.8 8.9375L16.8127 8.91602L17.1448 7.90234L17.4768 8.91602ZM28.7874 8.91602L29.8 8.9375L28.9934 9.58594L29.2864 10.6123L28.4553 10L27.6243 10.6123L27.9172 9.58594L27.1106 8.9375L28.1233 8.91602L28.4553 7.90234L28.7874 8.91602Z" fill="#F7FCFF"/>
<path fill-rule="evenodd" clip-rule="evenodd" d="M8 0H12V10H8V0Z" fill="#F50100"/>
<path fill-rule="evenodd" clip-rule="evenodd" d="M0 0H4V10H0V0Z" fill="#2E42A5"/>
<path fill-rule="evenodd" clip-rule="evenodd" d="M4 0H8V10H4V0Z" fill="#F7FCFF"/>
</g>
</g>
<defs>
<clipPath id="clip0_299_35387">
<rect width="32" height="24" fill="white"/>
</clipPath>
</defs>
</svg>
