<svg width="32" height="24" viewBox="0 0 32 24" fill="none" xmlns="http://www.w3.org/2000/svg">
<g clip-path="url(#clip0_299_35393)">
<rect width="32" height="24" fill="white"/>
<path fill-rule="evenodd" clip-rule="evenodd" d="M0 0H32V24H0V0Z" fill="#F7FCFF"/>
<path fill-rule="evenodd" clip-rule="evenodd" d="M0 0V8H32V0H0Z" fill="#C51918"/>
<path fill-rule="evenodd" clip-rule="evenodd" d="M0 16V24H32V16H0Z" fill="#409100"/>
<path d="M15.9961 15.6846C17.3184 15.6846 18.4897 15.8217 19.5098 16.0977L19.3252 16.7539C18.3691 16.4953 17.2592 16.3652 15.9961 16.3652C14.733 16.3653 13.623 16.4952 12.667 16.7539L12.4834 16.0977C13.5033 15.8217 14.674 15.6846 15.9961 15.6846ZM18.1807 14.8252C18.1897 14.8347 18.3483 15.0063 18.3359 15.2783L18.7402 15.4453C18.7337 15.4529 18.403 15.838 18 15.7695C17.596 15.7007 17.4926 15.2378 17.4912 15.2314H17.8574C17.8574 15.2314 18.0441 14.8881 18.1807 14.8252ZM13.751 14.7568C13.8853 14.8192 14.0675 15.1525 14.0732 15.1631H14.4395C14.4395 15.1631 14.3376 15.632 13.9307 15.7012C13.5237 15.7703 13.1904 15.377 13.1904 15.377L13.5947 15.21C13.582 14.9301 13.751 14.7568 13.751 14.7568ZM15.8984 14.6162C16.0236 14.6966 16.1592 15.0557 16.1621 15.0635L16.5244 15.1143C16.5244 15.1143 16.3579 15.5644 15.9453 15.5762C15.5327 15.588 15.2578 15.1523 15.2578 15.1523L15.6807 15.0439C15.7066 14.7689 15.8932 14.6203 15.8984 14.6162ZM11.1934 12.7236L11.9131 12.7393L11.3389 13.1807L11.5479 13.8809L10.957 13.4629L10.3652 13.8809L10.5742 13.1807L10 12.7393L10.7197 12.7236L10.957 12.0332L11.1934 12.7236ZM21.251 12.7236L21.9707 12.7393L21.3975 13.1807L21.6055 13.8809L21.0146 13.4629L20.4229 13.8809L20.6318 13.1807L20.0576 12.7393L20.7783 12.7236L21.0146 12.0332L21.251 12.7236ZM11.8174 10.3408L12.5371 10.3564L11.9639 10.7979L12.1719 11.498L11.5811 11.0801L10.9893 11.498L11.1982 10.7979L10.624 10.3564L11.3447 10.3408L11.5811 9.65039L11.8174 10.3408ZM20.4883 10.3408L21.208 10.3564L20.6338 10.7979L20.8428 11.498L20.251 11.0801L19.6602 11.498L19.8691 10.7979L19.2949 10.3564L20.0146 10.3408L20.251 9.65039L20.4883 10.3408ZM13.7598 8.50293L14.4795 8.51758L13.9053 8.95996L14.1143 9.65918L13.5234 9.24219L12.9316 9.65918L13.1406 8.95996L12.5664 8.51758L13.2861 8.50293L13.5234 7.81152L13.7598 8.50293ZM18.5752 8.50293L19.2949 8.51758L18.7207 8.95996L18.9297 9.65918L18.3379 9.24219L17.7471 9.65918L17.9561 8.95996L17.3818 8.51758L18.1016 8.50293L18.3379 7.81152L18.5752 8.50293ZM16.2568 7.88965L16.9766 7.90527L16.4023 8.34668L16.6113 9.04688L16.0205 8.62891L15.4287 9.04688L15.6377 8.34668L15.0635 7.90527L15.7832 7.88965L16.0205 7.19922L16.2568 7.88965Z" fill="#FFBB00"/>
<path d="M16.012 10.3652C17.1417 10.442 17.0188 11.6924 17.0188 11.6924C17.0188 11.6924 16.9313 11.4707 16.6174 11.4707C16.3112 11.4709 16.1317 11.768 16.1233 11.7822C16.1233 11.7822 16.1233 12.5825 16.1233 12.9844C16.1233 13.3862 16.5109 13.8048 17.2122 14.1475C17.9044 14.4857 18.4242 13.8231 18.4377 13.8057C18.4453 13.8231 18.7274 14.465 19.426 14.6406C20.1342 14.8185 20.5911 14.4102 20.5911 14.4102C20.5911 14.4102 20.1284 15.5211 19.2512 15.2432C18.3743 14.9651 18.3264 14.2432 18.3264 14.2432C18.3264 14.2432 17.9508 14.9375 17.2122 14.8545C16.4799 14.7722 16.0121 13.7163 16.0042 13.6982L15.9807 12.2852L15.9583 13.6982C15.9466 13.7246 15.4804 14.7723 14.7512 14.8545C14.0126 14.9375 13.637 14.2432 13.637 14.2432C13.637 14.2432 13.5884 14.9652 12.7112 15.2432C11.8371 15.5198 11.3753 14.4173 11.3723 14.4102C11.3758 14.4133 11.8318 14.818 12.5374 14.6406C13.2373 14.4647 13.5191 13.8209 13.5256 13.8057C13.5412 13.8257 14.0605 14.485 14.7512 14.1475C15.4523 13.8048 15.8401 13.3862 15.8401 12.9844V11.7822C15.8325 11.7694 15.6522 11.4707 15.345 11.4707C15.0314 11.4709 14.9436 11.6924 14.9436 11.6924C14.9436 11.6924 14.8215 10.4425 15.9504 10.3652V10.3613C15.961 10.3616 15.9714 10.3628 15.9817 10.3633C15.992 10.3628 16.0025 10.3616 16.0129 10.3613L16.012 10.3652ZM15.9485 10.7012C15.4346 10.7012 15.3244 11.1301 15.3215 11.1416C15.7801 11.1416 15.9485 11.3418 15.9485 11.3418C15.9592 11.3355 16.293 11.1418 16.6292 11.1416C16.6235 11.1265 16.4598 10.7014 15.9485 10.7012Z" fill="#FFBB00"/>
</g>
<defs>
<clipPath id="clip0_299_35393">
<rect width="32" height="24" fill="white"/>
</clipPath>
</defs>
</svg>
