<svg width="32" height="24" viewBox="0 0 32 24" fill="none" xmlns="http://www.w3.org/2000/svg">
<g clip-path="url(#clip0_299_35443)">
<rect width="32" height="24" fill="white"/>
<path fill-rule="evenodd" clip-rule="evenodd" d="M0 0V24H32V0H0Z" fill="#29C470"/>
<mask id="mask0_299_35443" style="mask-type:luminance" maskUnits="userSpaceOnUse" x="0" y="0" width="32" height="24">
<path fill-rule="evenodd" clip-rule="evenodd" d="M0 0V24H32V0H0Z" fill="white"/>
</mask>
<g mask="url(#mask0_299_35443)">
<rect x="2" y="-0.322266" width="10" height="26.3229" fill="#C51918"/>
<mask id="mask1_299_35443" style="mask-type:luminance" maskUnits="userSpaceOnUse" x="2" y="-1" width="10" height="27">
<rect x="2" y="-0.322266" width="10" height="26.3229" fill="white"/>
</mask>
<g mask="url(#mask1_299_35443)">
<path d="M2.60645 17.0322L2.49219 17.1572L2.76172 17.4316L2.6377 17.6113L2.55566 17.5547L2.71289 17.8184L2.97754 17.6143L3.31543 18.1807L2.97656 18.7734L2.78027 18.5957V18.4678L2.58203 18.7754L2.66602 18.9219L2.5957 19.1406V19.2979L2.04883 20L2 19.9512L2.53027 19.2705V19.1338L2.53223 19.1211L2.59375 18.9316L2.55566 18.8652L2.24316 19.1777L2.8457 18.2402V18.5605L2.96094 18.665L3.2373 18.1816L2.95996 17.7168L2.76074 17.8711L2.8418 18.0332L2.78516 18.0723L2.33398 17.3174L2.62207 17.5137L2.67285 17.4404L2.39648 17.1602L2.51855 17.0254L2.11621 16.4375L2.16797 16.3926L2.60645 17.0322ZM11.8838 16.4375L11.4814 17.0254L11.6035 17.1602L11.3271 17.4404L11.3779 17.5137L11.666 17.3174L11.2148 18.0723L11.1582 18.0332L11.2393 17.8711L11.04 17.7168L10.7627 18.1816L11.0391 18.665L11.1543 18.5605V18.2402L11.7568 19.1777L11.4443 18.8652L11.4062 18.9316L11.4678 19.1211L11.4697 19.1338V19.2705L12 19.9512L11.9512 20L11.4043 19.2979V19.1406L11.334 18.9219L11.418 18.7754L11.2197 18.4678V18.5957L11.0234 18.7734L10.6846 18.1807L11.0225 17.6143L11.2871 17.8184L11.4443 17.5547L11.3623 17.6113L11.2383 17.4316L11.5078 17.1572L11.3936 17.0322L11.832 16.3926L11.8838 16.4375ZM2.60645 12.8955L2.49219 13.0215L2.76172 13.2949L2.6377 13.4746L2.55566 13.418L2.71289 13.6816L2.97754 13.4775L3.31543 14.0439L2.97656 14.6367L2.78027 14.459V14.3311L2.58203 14.6387L2.66602 14.7861L2.5957 15.0039V15.1621L2.04883 15.8633L2 15.8145L2.53027 15.1338V14.9971L2.53223 14.9844L2.59375 14.7949L2.55566 14.7285L2.24316 15.041L2.8457 14.1035V14.4238L2.96094 14.5283L3.2373 14.0449L2.95996 13.5801L2.76074 13.7344L2.8418 13.8975L2.78516 13.9355L2.33398 13.1807L2.62207 13.377L2.67285 13.3037L2.39648 13.0234L2.51855 12.8887L2.11621 12.3018L2.16797 12.2559L2.60645 12.8955ZM11.8838 12.3018L11.4814 12.8887L11.6035 13.0234L11.3271 13.3037L11.3779 13.377L11.666 13.1807L11.2148 13.9355L11.1582 13.8975L11.2393 13.7344L11.04 13.5801L10.7627 14.0449L11.0391 14.5283L11.1543 14.4238V14.1035L11.7568 15.041L11.4443 14.7285L11.4062 14.7949L11.4678 14.9844L11.4697 14.9971V15.1338L12 15.8145L11.9512 15.8633L11.4043 15.1621V15.0039L11.334 14.7861L11.418 14.6387L11.2197 14.3311V14.459L11.0234 14.6367L10.6846 14.0439L11.0225 13.4775L11.2871 13.6816L11.4443 13.418L11.3623 13.4746L11.2383 13.2949L11.5078 13.0215L11.3936 12.8955L11.832 12.2559L11.8838 12.3018ZM2.60645 8.24219L2.49219 8.36719L2.76172 8.6416L2.6377 8.82129L2.55566 8.76465L2.71289 9.02832L2.97754 8.82422L3.31543 9.39062L2.97656 9.9834L2.78027 9.80566V9.67773L2.58203 9.98535L2.66602 10.1318L2.5957 10.3506V10.5078L2.04883 11.21L2 11.1611L2.53027 10.4805V10.3438L2.53223 10.3311L2.59375 10.1416L2.55566 10.0752L2.24316 10.3877L2.8457 9.44922V9.77051L2.96094 9.875L3.2373 9.3916L2.95996 8.92676L2.76074 9.08105L2.8418 9.24316L2.78516 9.28223L2.33398 8.52734L2.62207 8.72363L2.67285 8.65039L2.39648 8.37012L2.51855 8.23535L2.11621 7.64746L2.16797 7.60254L2.60645 8.24219ZM11.8838 7.64746L11.4814 8.23535L11.6035 8.37012L11.3271 8.65039L11.3779 8.72363L11.666 8.52734L11.2148 9.28223L11.1582 9.24316L11.2393 9.08105L11.04 8.92676L10.7627 9.3916L11.0391 9.875L11.1543 9.77051V9.44922L11.7568 10.3877L11.4443 10.0752L11.4062 10.1416L11.4678 10.3311L11.4697 10.3438V10.4805L12 11.1611L11.9512 11.21L11.4043 10.5078V10.3506L11.334 10.1318L11.418 9.98535L11.2197 9.67773V9.80566L11.0234 9.9834L10.6846 9.39062L11.0225 8.82422L11.2871 9.02832L11.4443 8.76465L11.3623 8.82129L11.2383 8.6416L11.5078 8.36719L11.3936 8.24219L11.832 7.60254L11.8838 7.64746ZM2.60645 3.66309L2.49219 3.78809L2.76172 4.06152L2.6377 4.24121L2.55566 4.18457L2.71289 4.44824L2.97754 4.24414L3.31543 4.81152L2.97656 5.40332L2.78027 5.22559V5.09766L2.58203 5.40625L2.66602 5.55273L2.5957 5.77051V5.92871L2.04883 6.62988L2 6.58105L2.53027 5.90039V5.76367L2.53223 5.75098L2.59375 5.56152L2.55566 5.49512L2.24316 5.80762L2.8457 4.87012V5.19043L2.96094 5.29492L3.2373 4.81152L2.95996 4.34766L2.76074 4.50098L2.8418 4.66406L2.78516 4.70215L2.33398 3.94727L2.62207 4.14453L2.67285 4.07031L2.39648 3.79004L2.51855 3.65527L2.11621 3.06836L2.16797 3.02246L2.60645 3.66309ZM11.8838 3.06836L11.4814 3.65527L11.6035 3.79004L11.3271 4.07031L11.3779 4.14453L11.666 3.94727L11.2148 4.70215L11.1582 4.66406L11.2393 4.50098L11.04 4.34766L10.7627 4.81152L11.0391 5.29492L11.1543 5.19043V4.87012L11.7568 5.80762L11.4443 5.49512L11.4062 5.56152L11.4678 5.75098L11.4697 5.76367V5.90039L12 6.58105L11.9512 6.62988L11.4043 5.92871V5.77051L11.334 5.55273L11.418 5.40625L11.2197 5.09766V5.22559L11.0234 5.40332L10.6846 4.81152L11.0225 4.24414L11.2871 4.44824L11.4443 4.18457L11.3623 4.24121L11.2383 4.06152L11.5078 3.78809L11.3936 3.66309L11.832 3.02246L11.8838 3.06836ZM2.60645 -1.36035L2.49219 -1.23535L2.76172 -0.960938L2.6377 -0.78125L2.55566 -0.837891L2.71289 -0.575195L2.97754 -0.77832L3.31543 -0.211914L2.97656 0.380859L2.78027 0.203125V0.0751953L2.58203 0.382812L2.66602 0.529297L2.5957 0.748047V0.905273L2.04883 1.60742L2 1.55859L2.53027 0.87793V0.741211L2.53223 0.728516L2.59375 0.539062L2.55566 0.472656L2.24316 0.785156L2.8457 -0.15332V0.167969L2.96094 0.271484L3.2373 -0.210938L2.95996 -0.675781L2.76074 -0.522461L2.8418 -0.359375L2.78516 -0.320312L2.33398 -1.0752L2.62207 -0.878906L2.67285 -0.952148L2.39648 -1.2334L2.51855 -1.36719L2.11621 -1.95508L2.16797 -2L2.60645 -1.36035ZM11.8838 -1.95508L11.4814 -1.36719L11.6035 -1.2334L11.3271 -0.952148L11.3779 -0.878906L11.666 -1.0752L11.2148 -0.320312L11.1582 -0.359375L11.2393 -0.522461L11.04 -0.675781L10.7627 -0.210938L11.0391 0.271484L11.1543 0.167969V-0.15332L11.7568 0.785156L11.4443 0.472656L11.4062 0.539062L11.4678 0.728516L11.4697 0.741211V0.87793L12 1.55859L11.9512 1.60742L11.4043 0.905273V0.748047L11.334 0.529297L11.418 0.382812L11.2197 0.0751953V0.203125L11.0234 0.380859L10.6846 -0.211914L11.0225 -0.77832L11.2871 -0.575195L11.4443 -0.837891L11.3623 -0.78125L11.2383 -0.960938L11.5078 -1.23535L11.3936 -1.36035L11.832 -2L11.8838 -1.95508Z" fill="#E8AA00"/>
<path fill-rule="evenodd" clip-rule="evenodd" d="M7.3067 14.5654H8.8602V14.93H9.21418V15.2217H9.63896V16.1696H9.21418V16.4612H8.8602V16.7529H7.34815L6.92983 17.1247L6.50952 16.7529H5.10799V16.4612H4.75401V16.1696H4.40002V15.2217H4.75401V14.93H5.10799V14.5654H6.55116L6.92983 14.2305L7.3067 14.5654Z" fill="#389F5D"/>
<path d="M8.8602 14.5654H9.1102V14.3154H8.8602V14.5654ZM7.3067 14.5654L7.14063 14.7523L7.21166 14.8154H7.3067V14.5654ZM8.8602 14.93H8.6102V15.18H8.8602V14.93ZM9.21418 14.93H9.46418V14.68H9.21418V14.93ZM9.21418 15.2217H8.96418V15.4717H9.21418V15.2217ZM9.63896 15.2217H9.88896V14.9717H9.63896V15.2217ZM9.63896 16.1696V16.4196H9.88896V16.1696H9.63896ZM9.21418 16.1696V15.9196H8.96418V16.1696H9.21418ZM9.21418 16.4612V16.7112H9.46418V16.4612H9.21418ZM8.8602 16.4612V16.2112H8.6102V16.4612H8.8602ZM8.8602 16.7529V17.0029H9.1102V16.7529H8.8602ZM7.34815 16.7529V16.5029H7.25311L7.18208 16.566L7.34815 16.7529ZM6.92983 17.1247L6.7642 17.3119L6.93022 17.4588L7.0959 17.3115L6.92983 17.1247ZM6.50952 16.7529L6.67515 16.5656L6.60422 16.5029H6.50952V16.7529ZM5.10799 16.7529H4.85799V17.0029H5.10799V16.7529ZM5.10799 16.4612H5.35799V16.2112H5.10799V16.4612ZM4.75401 16.4612H4.50401V16.7112H4.75401V16.4612ZM4.75401 16.1696H5.00401V15.9196H4.75401V16.1696ZM4.40002 16.1696H4.15002V16.4196H4.40002V16.1696ZM4.40002 15.2217V14.9717H4.15002V15.2217H4.40002ZM4.75401 15.2217V15.4717H5.00401V15.2217H4.75401ZM4.75401 14.93V14.68H4.50401V14.93H4.75401ZM5.10799 14.93V15.18H5.35799V14.93H5.10799ZM5.10799 14.5654V14.3154H4.85799V14.5654H5.10799ZM6.55116 14.5654V14.8154H6.64586L6.7168 14.7527L6.55116 14.5654ZM6.92983 14.2305L7.0959 14.0436L6.93022 13.8964L6.7642 14.0432L6.92983 14.2305ZM8.8602 14.5654V14.3154H7.3067V14.5654V14.8154H8.8602V14.5654ZM8.8602 14.93H9.1102V14.5654H8.8602H8.6102V14.93H8.8602ZM9.21418 14.93V14.68H8.8602V14.93V15.18H9.21418V14.93ZM9.21418 15.2217H9.46418V14.93H9.21418H8.96418V15.2217H9.21418ZM9.63896 15.2217V14.9717H9.21418V15.2217V15.4717H9.63896V15.2217ZM9.63896 16.1696H9.88896V15.2217H9.63896H9.38896V16.1696H9.63896ZM9.21418 16.1696V16.4196H9.63896V16.1696V15.9196H9.21418V16.1696ZM9.21418 16.4612H9.46418V16.1696H9.21418H8.96418V16.4612H9.21418ZM8.8602 16.4612V16.7112H9.21418V16.4612V16.2112H8.8602V16.4612ZM8.8602 16.7529H9.1102V16.4612H8.8602H8.6102V16.7529H8.8602ZM7.34815 16.7529V17.0029H8.8602V16.7529V16.5029H7.34815V16.7529ZM6.92983 17.1247L7.0959 17.3115L7.51423 16.9398L7.34815 16.7529L7.18208 16.566L6.76376 16.9378L6.92983 17.1247ZM6.50952 16.7529L6.34388 16.9402L6.7642 17.3119L6.92983 17.1247L7.09546 16.9374L6.67515 16.5656L6.50952 16.7529ZM5.10799 16.7529V17.0029H6.50952V16.7529V16.5029H5.10799V16.7529ZM5.10799 16.4612H4.85799V16.7529H5.10799H5.35799V16.4612H5.10799ZM4.75401 16.4612V16.7112H5.10799V16.4612V16.2112H4.75401V16.4612ZM4.75401 16.1696H4.50401V16.4612H4.75401H5.00401V16.1696H4.75401ZM4.40002 16.1696V16.4196H4.75401V16.1696V15.9196H4.40002V16.1696ZM4.40002 15.2217H4.15002V16.1696H4.40002H4.65002V15.2217H4.40002ZM4.75401 15.2217V14.9717H4.40002V15.2217V15.4717H4.75401V15.2217ZM4.75401 14.93H4.50401V15.2217H4.75401H5.00401V14.93H4.75401ZM5.10799 14.93V14.68H4.75401V14.93V15.18H5.10799V14.93ZM5.10799 14.5654H4.85799V14.93H5.10799H5.35799V14.5654H5.10799ZM6.55116 14.5654V14.3154H5.10799V14.5654V14.8154H6.55116V14.5654ZM6.55116 14.5654L6.7168 14.7527L7.09546 14.4177L6.92983 14.2305L6.7642 14.0432L6.38553 14.3781L6.55116 14.5654ZM6.92983 14.2305L6.76376 14.4173L7.14063 14.7523L7.3067 14.5654L7.47278 14.3785L7.0959 14.0436L6.92983 14.2305Z" fill="#E8AA00"/>
<path d="M6.06628 16.5742H5.31531V15.9307L6.06628 16.5742ZM8.47253 16.5742H7.72253L8.47253 15.9307V16.5742ZM5.31531 15.4082V14.7637H6.06628L5.31531 15.4082ZM8.47253 15.4082L7.72253 14.7637H8.47253V15.4082Z" fill="#C51918"/>
<path d="M6.90393 16.9346L6.64514 16.5947H7.15979L6.90393 16.9346ZM7.15979 16.2783H6.64514L6.90393 15.9385L7.15979 16.2783ZM6.90393 15.4756L6.64514 15.1367H7.15979L6.90393 15.4756ZM7.15979 14.8193H6.64514L6.90393 14.4805L7.15979 14.8193Z" fill="#E8AA00"/>
<path d="M7.16968 16.3838H7.31812V16.583H7.16968V16.7295H6.65015V16.583H6.50171V16.3838H6.65015V16.2373H7.16968V16.3838ZM7.16968 14.9248H7.31812V15.125H7.16968V15.2705H6.65015V15.125H6.50171V14.9248H6.65015V14.7793H7.16968V14.9248Z" fill="#AF0100"/>
<path d="M5.901 16.209L5.65393 15.8682H6.14417L5.901 16.209ZM7.95374 16.209L7.70667 15.8682H8.1969L7.95374 16.209ZM6.14417 15.5498H5.65393L5.901 15.209L6.14417 15.5498ZM8.1969 15.5498H7.70667L7.95374 15.209L8.1969 15.5498Z" fill="#AF0100"/>
<path d="M6.14636 15.6562H6.28796V15.8604H6.14636V16.0098H5.65222V15.8604H5.51062V15.6562H5.65222V15.5078H6.14636V15.6562ZM8.1991 15.6562H8.3407V15.8604H8.1991V16.0098H7.70496V15.8604H7.56335V15.6562H7.70496V15.5078H8.1991V15.6562Z" fill="#E8AA00"/>
<mask id="mask2_299_35443" style="mask-type:luminance" maskUnits="userSpaceOnUse" x="4" y="17" width="6" height="4">
<path fill-rule="evenodd" clip-rule="evenodd" d="M6.21701 17.252L4.44543 18.2509V19.9065L6.21701 20.9457H8.13579L9.94949 19.9065V18.2509L8.13579 17.252H6.21701Z" fill="white"/>
</mask>
<g mask="url(#mask2_299_35443)">
<path d="M4.47083 19.0977H7.23189V20.9206H4.47083V19.0977Z" fill="#E8AA00"/>
<rect x="4.18762" y="17.2734" width="3.04425" height="1.82292" fill="#F9E8E7"/>
<path d="M4.89563 18.3351L5.81215 17.7832V18.3351H4.89563Z" fill="#E8AA00"/>
<rect width="3.04425" height="1.82292" transform="matrix(-1 0 0 1 10.2761 17.2734)" fill="#E8AA00"/>
<path d="M9.35571 18.3351L8.4392 17.7832V18.3351H9.35571Z" fill="#F9E8E7"/>
<rect x="9.99292" y="20.9199" width="2.76106" height="1.82292" transform="rotate(180 9.99292 20.9199)" fill="#F9E8E7"/>
<path d="M9.28491 19.8583L8.3684 20.4102V19.8583H9.28491Z" fill="#E8AA00"/>
<path d="M4.89551 19.743L5.81202 20.2949V19.743H4.89551Z" fill="#FCFCFC"/>
</g>
<path fill-rule="evenodd" clip-rule="evenodd" d="M6.24072 18.3685H6.7009L7.16108 18.2227L7.62125 18.3685H8.08143V19.7539H7.62125L7.16108 19.9727L6.7009 19.7539H6.24072V18.3685Z" fill="#C51918"/>
<path d="M6.34863 20.3008H6.45117V20.5H6.34863V20.6084H6.09863V20.0186H6.34863V20.3008ZM6.70312 20.6084H6.45312V20.0186H6.70312V20.6084ZM8.04785 20.3008H8.15039V20.5H8.04785V20.6084H7.79785V20.0186H8.04785V20.3008ZM8.40234 20.6084H8.15234V20.0186H8.40234V20.6084ZM5.28711 19.4258H5.38965V19.625H5.28711V19.7334H5.03711V19.1436H5.28711V19.4258ZM5.64062 19.7334H5.39062V19.1436H5.64062V19.7334ZM9.18066 19.4258H9.2832V19.625H9.18066V19.7334H8.93066V19.1436H9.18066V19.4258ZM9.53516 19.7334H9.28516V19.1436H9.53516V19.7334ZM5.28711 18.6963H5.38965V18.8965H5.28711V19.0039H5.03711V18.4141H5.28711V18.6963ZM5.64062 19.0039H5.39062V18.4141H5.64062V19.0039ZM9.18066 18.6963H9.2832V18.8965H9.18066V19.0039H8.93066V18.4141H9.18066V18.6963ZM9.53516 19.0039H9.28516V18.4141H9.53516V19.0039ZM6.34863 17.8213H6.45117V18.0215H6.34863V18.1289H6.09863V17.5391H6.34863V17.8213ZM6.70312 18.1289H6.45312V17.5391H6.70312V18.1289ZM8.04785 17.8213H8.15039V18.0215H8.04785V18.1289H7.79785V17.5391H8.04785V17.8213ZM8.40234 18.1289H8.15234V17.5391H8.40234V18.1289Z" fill="#C9343F"/>
<path d="M7.09619 18.667H7.0249V18.542H6.81299V18.7168L7.18018 19.0352L7.54932 18.7158V18.542H7.33643V18.667H7.26611V18.4688H7.61963V18.6953H7.91162V19.0205H7.64014V18.9473H7.84033V18.7686H7.59912L7.23877 19.0811L7.6001 19.3945H7.84033V19.2158H7.64014V19.1426H7.91162V19.4678H7.61963V19.6943H7.26611V19.4961H7.33643V19.6211H7.54932V19.4463L7.18018 19.127L6.81299 19.4453V19.6211H7.0249V19.4961H7.09619V19.6943H6.7417V19.4678H6.45068V19.1426H6.72217V19.2158H6.521V19.3945H6.76123L7.12256 19.0811L6.76221 18.7686H6.521V18.9473H6.72217V19.0205H6.45068V18.6953H6.7417V18.4688H7.09619V18.667Z" fill="white"/>
<path d="M7.58484 8.80078H6.33777V4.80078H7.58484V8.80078ZM5.55847 7.80078H4.77917V5.64648H5.55847V7.80078ZM9.22058 7.80078H8.44128V5.64648H9.22058V7.80078Z" fill="#E8AA00"/>
<path d="M6.33789 8.18652H5.55859V5.10938H6.33789V8.18652ZM8.36328 8.18652H7.58398V5.10938H8.36328V8.18652ZM4.7793 7.41699H4V5.95508H4.7793V7.41699ZM10 7.41699H9.2207V5.95508H10V7.41699Z" fill="#389F5D"/>
<path d="M5.94788 7.56934C6.07685 7.56934 6.18205 7.67253 6.18225 7.7998C6.18225 7.92725 6.07698 8.03125 5.94788 8.03125C5.81887 8.03114 5.71448 7.92718 5.71448 7.7998C5.71468 7.6726 5.819 7.56945 5.94788 7.56934ZM7.97424 7.56934C8.10314 7.56943 8.20744 7.67259 8.20764 7.7998C8.20764 7.9272 8.10327 8.03116 7.97424 8.03125C7.84514 8.03125 7.73987 7.92725 7.73987 7.7998C7.74007 7.67253 7.84526 7.56934 7.97424 7.56934ZM4.38928 6.87695C4.51824 6.87695 4.62341 6.98018 4.62366 7.10742C4.62366 7.23487 4.51839 7.33887 4.38928 7.33887C4.26035 7.33867 4.15588 7.23475 4.15588 7.10742C4.15613 6.9803 4.2605 6.87715 4.38928 6.87695ZM9.60999 6.87695C9.73894 6.87695 9.84411 6.98018 9.84436 7.10742C9.84436 7.23487 9.73909 7.33887 9.60999 7.33887C9.48108 7.33863 9.37659 7.23473 9.37659 7.10742C9.37683 6.98032 9.48124 6.87719 9.60999 6.87695ZM4.38928 6.03125C4.51839 6.03125 4.62366 6.13427 4.62366 6.26172C4.62366 6.38917 4.51839 6.49219 4.38928 6.49219C4.26035 6.49199 4.15588 6.38905 4.15588 6.26172C4.15588 6.13439 4.26035 6.03145 4.38928 6.03125ZM9.60999 6.03125C9.73909 6.03125 9.84436 6.13427 9.84436 6.26172C9.84436 6.38917 9.73909 6.49219 9.60999 6.49219C9.48108 6.49195 9.37659 6.38902 9.37659 6.26172C9.37659 6.13441 9.48108 6.03149 9.60999 6.03125ZM5.94788 5.26172C6.07688 5.26172 6.18209 5.36488 6.18225 5.49219C6.18225 5.61964 6.07698 5.72363 5.94788 5.72363C5.81887 5.72352 5.71448 5.61957 5.71448 5.49219C5.71464 5.36495 5.81897 5.26183 5.94788 5.26172ZM7.97424 5.26172C8.10317 5.26181 8.20748 5.36493 8.20764 5.49219C8.20764 5.61958 8.10327 5.72354 7.97424 5.72363C7.84514 5.72363 7.73987 5.61964 7.73987 5.49219C7.74003 5.36488 7.84524 5.26172 7.97424 5.26172Z" fill="#E1E5E8"/>
<path d="M6.96143 8.2627C7.09022 8.2629 7.19462 8.36602 7.19482 8.49316C7.19482 8.62049 7.09035 8.7244 6.96143 8.72461C6.83232 8.72461 6.72705 8.62061 6.72705 8.49316C6.72726 8.36589 6.83245 8.2627 6.96143 8.2627ZM5.16846 7.18555C5.29756 7.18555 5.40283 7.28954 5.40283 7.41699C5.40263 7.54427 5.29744 7.64746 5.16846 7.64746C5.03965 7.64727 4.93526 7.54415 4.93506 7.41699C4.93506 7.28966 5.03952 7.18574 5.16846 7.18555ZM8.83154 7.18555C8.96047 7.18575 9.06494 7.28967 9.06494 7.41699C9.06474 7.54414 8.96035 7.64726 8.83154 7.64746C8.70256 7.64746 8.59737 7.54427 8.59717 7.41699C8.59717 7.28954 8.70244 7.18555 8.83154 7.18555ZM5.16846 5.80078C5.29756 5.80078 5.40283 5.90478 5.40283 6.03223C5.40271 6.15957 5.29749 6.2627 5.16846 6.2627C5.0396 6.2625 4.93518 6.15945 4.93506 6.03223C4.93506 5.9049 5.03952 5.80098 5.16846 5.80078ZM8.83154 5.80078C8.96047 5.80098 9.06494 5.9049 9.06494 6.03223C9.06482 6.15945 8.9604 6.26249 8.83154 6.2627C8.70251 6.2627 8.59729 6.15957 8.59717 6.03223C8.59717 5.90478 8.70244 5.80078 8.83154 5.80078ZM6.96143 4.95508C7.09025 4.95529 7.19466 5.05836 7.19482 5.18555C7.19482 5.31287 7.09035 5.41678 6.96143 5.41699C6.83232 5.41699 6.72705 5.313 6.72705 5.18555C6.72721 5.05823 6.83242 4.95508 6.96143 4.95508Z" fill="#C51918"/>
<path d="M8.46106 6.49316H9.61047V6.80078H8.49231V6.81641L7.5968 7.72754H6.36536L5.60657 6.90527V6.80078H4.31165V6.49316H5.60657V6.39258L6.36536 5.70703H7.5968L8.46106 6.49316Z" fill="#C51918"/>
<path d="M7.48083 5.76367L7.43103 5.81348L7.59607 5.98047L7.7113 5.8916L8.02673 6.19824L7.54529 6.65332L8.0238 7.1377L7.73279 7.44434H7.60876L7.36267 7.59961L6.99255 7.25684L6.62341 7.59961L6.37732 7.44434H6.2533L5.96228 7.1377L6.43982 6.65332L5.95935 6.19824L6.27478 5.8916L6.38806 5.98047L6.55408 5.81348L6.50525 5.76367L6.58923 5.68359L6.99255 6.0918L7.39685 5.68359L7.48083 5.76367ZM6.12439 7.13867L6.30408 7.3291H6.4115L6.60974 7.4541L6.95154 7.1377L6.52478 6.7334L6.12439 7.13867ZM7.07654 7.09668L7.12146 7.13867L7.07849 7.17773L7.37634 7.4541L7.57458 7.3291H7.68201L7.86169 7.13867L7.4613 6.7334L7.07654 7.09668ZM6.97205 6.27832L6.60583 6.65039L6.99255 7.0166L7.38025 6.65039L6.99255 6.25977L6.97205 6.27832ZM6.3988 6.13672L6.28259 6.0459L6.12732 6.19727L6.52185 6.57031L6.90662 6.18066L6.61853 5.91504L6.3988 6.13672ZM7.07947 6.18066L7.09607 6.19727L7.20349 6.29688L7.19861 6.30078L7.46423 6.57031L7.85876 6.19727L7.70251 6.0459L7.58728 6.13672L7.36755 5.91504L7.07947 6.18066Z" fill="#E8AA00"/>
<path fill-rule="evenodd" clip-rule="evenodd" d="M9.93847 21C10.0551 21.0085 10.1649 22.2438 8.64843 23.1836C8.64482 23.1856 8.54169 23.2404 8.43554 23.2373C8.7117 23.2504 9.09492 23.2056 9.44042 23.1035C9.42578 23.1094 8.52924 23.4667 7.99511 23.3066C7.94294 23.2842 7.88796 23.2661 7.83007 23.2529C7.6784 23.2185 7.52312 23.2163 7.33691 23.2334C7.4152 23.2698 7.50519 23.3128 7.61035 23.3555V23.4004C7.39849 23.3144 7.14985 23.2753 7.04394 23.2627C6.93814 23.2753 6.68952 23.3144 6.47753 23.4004V23.3555C6.58233 23.3129 6.67189 23.2697 6.74999 23.2334C6.5642 23.2164 6.40921 23.2186 6.25781 23.2529C6.19998 23.2661 6.14488 23.2842 6.09277 23.3066C5.56043 23.4662 4.66791 23.1117 4.64746 23.1035C5.14566 23.2507 5.72273 23.2817 5.94335 23.1865C6.01367 23.1562 6.08856 23.1321 6.16699 23.1143C6.38641 23.0645 6.60067 23.064 6.85449 23.0918C6.88004 23.0946 6.94853 23.1029 6.9541 23.1035C6.97801 23.1062 6.99248 23.1074 6.99511 23.1074C7.00969 23.1075 7.02551 23.1103 7.04296 23.1143C7.06115 23.11 7.07768 23.1074 7.09277 23.1074C7.09539 23.1074 7.10917 23.1062 7.13281 23.1035C7.13492 23.1033 7.2073 23.0947 7.23339 23.0918C7.48728 23.064 7.7014 23.0645 7.92089 23.1143C7.99939 23.1321 8.07416 23.1562 8.14453 23.1865C8.20593 23.213 8.29512 23.2282 8.40234 23.2354C8.36386 23.2293 8.32587 23.2141 8.29394 23.1836C8.16621 23.0613 8.28952 22.8823 8.29394 22.876C9.11425 22.1051 9.84454 20.9967 9.93847 21ZM4.06152 21C4.15545 20.9967 4.88574 22.1051 5.70605 22.876C5.71046 22.8823 5.83378 23.0613 5.70605 23.1836C5.57726 23.3066 5.35686 23.1865 5.35156 23.1836C3.83514 22.2438 3.94486 21.0085 4.06152 21Z" fill="#E8AA00"/>
<path fill-rule="evenodd" clip-rule="evenodd" d="M5.76401 9.97852L4.51208 11.0818V12.1326L5.60656 13.2323H7.84134L9.07351 12.0589V11.1643L7.84134 9.97852H5.76401Z" fill="#389F5D"/>
<path d="M6.1947 13.1748H5.9115V12.9561H6.1947V13.1748ZM6.90271 13.1748H6.61951V12.9561H6.90271V13.1748ZM7.61072 13.1748H7.32751V12.9561H7.61072V13.1748ZM6.1947 10.3145H5.9115V10.0957H6.1947V10.3145ZM6.90271 10.3145H6.61951V10.0957H6.90271V10.3145ZM7.61072 10.3145H7.32751V10.0957H7.61072V10.3145Z" fill="#C51918"/>
<path d="M6.55359 13.1748H6.2655V12.9561H6.55359V13.1748ZM7.27429 13.1748H6.98621V12.9561H7.27429V13.1748ZM6.55359 10.2578H6.2655V10.0391H6.55359V10.2578ZM7.27429 10.2578H6.98621V10.0391H7.27429V10.2578Z" fill="#E8AA00"/>
<path fill-rule="evenodd" clip-rule="evenodd" d="M4.91378 9.84375H8.69381V10.4279H9.23506V12.8427H8.69381V13.3419H4.91378V12.8427H4.32605V10.4279H4.91378V9.84375ZM5.12617 10.6466H4.53844V12.6239H5.12617V13.1231H8.48143V12.6239H9.02267V10.6466H8.48143V10.0625H5.12617V10.6466Z" fill="#750100"/>
<path d="M6.40686 13.6123H6.05334V13.2471H6.40686V13.6123ZM6.97327 13.6123H6.61975V13.2471H6.97327V13.6123ZM7.53967 13.6123H7.18616V13.2471H7.53967V13.6123ZM4.35901 12.4404H3.99475V12.0859H4.35901V12.4404ZM9.45667 12.4404H9.09241V12.0859H9.45667V12.4404ZM4.35901 11.8564H3.99475V11.5029H4.35901V11.8564ZM9.45667 11.8564H9.09241V11.5029H9.45667V11.8564ZM4.35901 11.2734H3.99475V10.9189H4.35901V11.2734ZM9.45667 11.2734H9.09241V10.9189H9.45667V11.2734ZM6.40686 9.96582H6.05334V9.60156H6.40686V9.96582ZM6.97327 9.96582H6.61975V9.60156H6.97327V9.96582ZM7.53967 9.96582H7.18616V9.60156H7.53967V9.96582Z" fill="#389F5D"/>
<path fill-rule="evenodd" clip-rule="evenodd" d="M5.77837 10.2871L5.16785 10.8181V12.5364L5.67453 12.8949H7.87116L8.37711 12.5364V10.8181L7.8061 10.2871H5.77837Z" fill="#C51918"/>
<path fill-rule="evenodd" clip-rule="evenodd" d="M6.80334 10.998L6.06665 11.6275H6.80334V10.998Z" fill="#E1E5E8"/>
<path d="M6.80334 12.1992L6.06665 11.5698H6.80334V12.1992Z" fill="#E8AA00"/>
<path fill-rule="evenodd" clip-rule="evenodd" d="M6.73914 10.998L7.47583 11.6275H6.73914V10.998Z" fill="#E8AA00"/>
<path fill-rule="evenodd" clip-rule="evenodd" d="M6.77183 11.7978C6.89506 11.7978 6.99496 11.6979 6.99496 11.5747C6.99496 11.4515 6.89506 11.3516 6.77183 11.3516C6.6486 11.3516 6.54871 11.4515 6.54871 11.5747C6.54871 11.6979 6.6486 11.7978 6.77183 11.7978Z" fill="#29AE66"/>
<path d="M6.73914 12.1992L7.47583 11.5698H6.73914V12.1992Z" fill="#E1E5E8"/>
<path d="M5.20312 11.9277H4.56641V11.7236H5.20312V11.9277ZM9.02637 11.9277H8.38965V11.7236H9.02637V11.9277ZM5.20312 11.5557H4.56641V11.3516H5.20312V11.5557ZM9.02637 11.5557H8.38965V11.3516H9.02637V11.5557Z" fill="#C51918"/>
<path d="M5.13281 12.0996H4.56641V11.877H5.13281V12.0996ZM8.95605 12.0996H8.38965V11.877H8.95605V12.0996ZM5.13281 11.7275H4.56641V11.5049H5.13281V11.7275ZM8.95605 11.7275H8.38965V11.5049H8.95605V11.7275ZM5.13281 11.3555H4.56641V11.1328H5.13281V11.3555ZM8.95605 11.3555H8.38965V11.1328H8.95605V11.3555Z" fill="#E8AA00"/>
<path d="M7.90417 0.123047C8.06431 0.123047 8.50081 0.426739 8.51062 0.433594H9.26355L9.61218 0.789062V1.14648L9.98523 1.58984L9.98328 1.99512H7.02429L7.02136 3.83496H6.09363C5.93139 3.83452 5.48816 3.52344 5.48816 3.52344H4.73425L4.3866 3.16797V2.81152L4.01355 2.36816L4.0155 1.96289H6.97449L6.97644 0.123047H7.90417Z" fill="#E8AA00"/>
<path d="M6.09436 0.123047C5.93423 0.123047 5.49772 0.426739 5.48792 0.433594H4.73499L4.38635 0.789062V1.14648L4.01331 1.58984L4.01526 1.99512H6.97424L6.97717 3.83496H7.90491C8.06715 3.83452 8.51038 3.52344 8.51038 3.52344H9.26428L9.61194 3.16797V2.81152L9.98499 2.36816L9.98303 1.96289H7.02405L7.02209 0.123047H6.09436Z" fill="#E1E5E8"/>
<path d="M7.35754 3.19824C7.40524 3.33343 7.44869 3.42609 7.48254 3.47266L8.02161 3.36133L8.05481 3.51758L7.60754 3.62012L7.5968 3.62891L7.60657 3.66016L7.5177 3.71875C7.49082 3.70244 7.46517 3.68181 7.4386 3.65918L7.41614 3.66504C7.33948 3.70214 7.20654 3.80741 7.02356 3.97852L6.97278 3.92188L6.92297 3.97852C6.7901 3.85426 6.68329 3.76489 6.60559 3.71094C6.60207 3.71318 6.59935 3.71661 6.59583 3.71875L6.50696 3.66016V3.65918L5.89172 3.51758L5.92395 3.36133L6.46399 3.47266C6.49784 3.42606 6.54131 3.33338 6.58899 3.19824L6.7384 3.24219L6.67981 3.51953L6.71008 3.52734C6.73299 3.53466 6.75724 3.54318 6.78235 3.55273C6.76987 3.56745 6.75479 3.5795 6.74231 3.59277L6.97278 3.80859L7.26868 3.53223L7.20813 3.24219L7.35754 3.19824ZM6.03625 2.92188L5.59485 3.21777L5.64368 3.28613L5.51868 3.38086L5.46399 3.30469L5.28918 3.42285L5.20422 3.28906L5.37122 3.17578L5.33704 3.12793L5.46301 3.0332L5.50208 3.08789L5.95032 2.78809L6.03625 2.92188ZM8.44348 3.08789L8.48352 3.0332L8.6095 3.12793L8.57434 3.17578L8.74231 3.28906L8.65735 3.42285L8.48157 3.30469L8.42786 3.38086L8.30286 3.28613L8.35071 3.21777L7.91028 2.92188L7.99622 2.78809L8.44348 3.08789ZM5.49036 2.7627L5.04895 3.05762L5.09875 3.12598L4.97278 3.2207L4.91907 3.14551L4.74426 3.2627L4.65833 3.12891L4.82629 3.01562L4.79211 2.96777L4.91711 2.87305L4.95618 2.92773L5.4054 2.62793L5.49036 2.7627ZM8.9884 2.92773L9.02844 2.87305L9.15442 2.96777L9.11926 3.01562L9.28723 3.12891L9.20227 3.2627L9.02649 3.14551L8.97375 3.2207L8.84778 3.12598L8.89563 3.05762L8.45618 2.7627L8.54114 2.62793L8.9884 2.92773ZM5.25696 2.28223L4.81555 2.57812L4.86438 2.64648L4.73938 2.74121L4.68469 2.66504L4.50989 2.7832L4.42493 2.64844L4.59192 2.53613L4.55774 2.48828L4.68372 2.39355L4.72278 2.44824L5.17102 2.14844L5.25696 2.28223ZM9.22278 2.44824L9.26282 2.39355L9.38782 2.48828L9.35364 2.53516L9.52161 2.64844L9.43665 2.7832L9.26086 2.66504L9.20715 2.74121L9.08118 2.64648L9.13 2.57715L8.68958 2.28223L8.77551 2.14844L9.22278 2.44824ZM9.59973 1.47754L9.43079 1.58984L9.46594 1.63867L9.34094 1.7334L9.3009 1.67773L8.85266 1.97852L8.7677 1.84473L9.20813 1.54785L9.1593 1.48047L9.28528 1.38574L9.33899 1.46094L9.51379 1.34375L9.59973 1.47754ZM4.76282 1.38086L4.8175 1.30566L4.9425 1.40039L4.8927 1.46875L5.33411 1.76465L5.24915 1.89844L4.8009 1.59766L4.76184 1.65332L4.63586 1.55859L4.67004 1.50977L4.50305 1.39746L4.58801 1.26367L4.76282 1.38086ZM9.36536 0.998047L9.19739 1.10938L9.23254 1.1582L9.10657 1.25293L9.06653 1.19727L8.61926 1.49805L8.5343 1.36426L8.97473 1.06836L8.9259 1L9.0509 0.905273L9.10461 0.980469L9.2804 0.864258L9.36536 0.998047ZM4.99622 0.901367L5.0509 0.825195L5.17688 0.919922L5.12708 0.988281L5.56848 1.28418L5.48352 1.41797L5.0343 1.11719L4.99524 1.17285L4.87024 1.0791L4.90442 1.03027L4.73645 0.917969L4.82141 0.78418L4.99622 0.901367ZM8.82043 0.837891L8.65149 0.950195L8.68665 0.999023L8.56165 1.09375L8.52161 1.03711L8.07336 1.33789L7.9884 1.2041L8.42883 0.908203L8.38 0.839844L8.50598 0.745117L8.55969 0.820312L8.7345 0.704102L8.82043 0.837891ZM5.54211 0.740234L5.59583 0.666016L5.7218 0.759766L5.672 0.828125L6.1134 1.12402L6.02844 1.25781L5.5802 0.957031L5.54114 1.01367L5.41516 0.918945L5.44934 0.870117L5.28235 0.757812L5.36731 0.624023L5.54211 0.740234ZM7.08606 0.165039L7.10168 0.148438C7.28474 0.319604 7.41767 0.424929 7.49426 0.461914L8.13196 0.608398L8.09973 0.765625L7.74524 0.691406L7.77942 0.722656C7.75521 0.737222 7.7285 0.758515 7.70032 0.786133L7.5509 0.763672L7.56458 0.712891L7.5304 0.708008C7.50283 0.759871 7.46938 0.833159 7.43567 0.928711L7.28528 0.884766L7.34583 0.594727L7.00793 0.277344L6.77063 0.5C6.80028 0.526816 6.83088 0.556903 6.86047 0.591797C6.83544 0.601323 6.81106 0.609889 6.78821 0.617188L6.77747 0.619141L6.81653 0.804688L6.66711 0.848633C6.6475 0.793017 6.62729 0.745111 6.6095 0.704102L6.59875 0.706055C6.57045 0.678312 6.54395 0.65715 6.51965 0.642578L6.55969 0.605469C6.55291 0.593894 6.54829 0.582745 6.54211 0.574219L6.00208 0.685547L5.96985 0.529297L6.60852 0.381836C6.68521 0.344654 6.81828 0.239321 7.0011 0.0683594L7.08606 0.165039Z" fill="#C51918"/>
<path d="M7.09045 1.96582H9.27209L8.75159 2.33984V2.83008H7.92932L7.04651 3.29785V2.01758H4.86487L5.3844 1.64355V1.15332H6.20764L7.09045 0.685547V1.96582Z" fill="#C51918"/>
<path d="M7.04639 1.96582H4.86475L5.38525 2.33984V2.83008H6.20752L7.09033 3.29785V2.01758H9.27197L8.75244 1.64355V1.15332H7.9292L7.04639 0.685547V1.96582Z" fill="#29AE66"/>
<path d="M6.2887 1.39648L6.39026 1.24707L6.64709 1.42871L6.56702 1.5459L7.65198 2.12598L7.71936 2.02637L7.97522 2.20801L7.9303 2.27441L8.04749 2.33789L7.90393 2.62109L7.75159 2.54004L7.62952 2.72363L7.37268 2.54199L7.47327 2.39062L6.38831 1.81152L6.30042 1.94336L6.04358 1.76172L6.10999 1.66211L5.77893 1.48535L5.92249 1.20117L6.2887 1.39648Z" fill="#29AE66"/>
<path d="M7.57492 1.35344L7.46319 1.21148L7.21965 1.41059L7.3077 1.52191L6.26585 2.17626L6.19168 2.08159L5.94912 2.28064L5.99856 2.34375L5.88609 2.41524L6.04905 2.68774L6.19537 2.59626L6.32995 2.77089L6.57349 2.57178L6.46259 2.42779L7.50451 1.77442L7.60138 1.8998L7.84492 1.70069L7.77173 1.60595L8.08965 1.40653L7.92662 1.13306L7.57492 1.35344Z" fill="#C51918"/>
</g>
<path fill-rule="evenodd" clip-rule="evenodd" d="M19.0734 2C19.0734 2 21.4036 7.5216 19.3333 9.86652C17.263 12.2114 12 11.7593 12 11.7593C12 11.7593 18.7564 14.811 21.7001 10.6091C24.6439 6.40713 19.0734 2 19.0734 2Z" fill="#F7FCFF"/>
<path d="M15.2098 8.58984L15.9608 8.60547L15.3622 9.06445L15.58 9.79199L14.9637 9.35742L14.3466 9.79199L14.5643 9.06445L13.9657 8.60547L14.7167 8.58984L14.9637 7.87207L15.2098 8.58984ZM13.3358 6.6416L14.0868 6.65723L13.4882 7.11621L13.7059 7.84375L13.0897 7.40918L12.4725 7.84375L12.6903 7.11621L12.0917 6.65723L12.8427 6.6416L13.0897 5.92383L13.3358 6.6416ZM15.2098 6.48633L15.9608 6.50195L15.3622 6.96094L15.58 7.68848L14.9637 7.25488L14.3466 7.68848L14.5643 6.96094L13.9657 6.50195L14.7167 6.48633L14.9637 5.76855L15.2098 6.48633ZM17.2479 5.87402L17.9989 5.88965L17.4003 6.34863L17.618 7.0752L17.0009 6.6416L16.3846 7.0752L16.6024 6.34863L16.0038 5.88965L16.7548 5.87402L17.0009 5.15625L17.2479 5.87402ZM15.0907 4.48145L15.8417 4.49707L15.243 4.95605L15.4608 5.68262L14.8446 5.24902L14.2274 5.68262L14.4452 4.95605L13.8466 4.49707L14.5975 4.48145L14.8446 3.76367L15.0907 4.48145Z" fill="#F7FCFF"/>
</g>
</g>
<defs>
<clipPath id="clip0_299_35443">
<rect width="32" height="24" fill="white"/>
</clipPath>
</defs>
</svg>
