<svg width="32" height="24" viewBox="0 0 32 24" fill="none" xmlns="http://www.w3.org/2000/svg">
<g clip-path="url(#clip0_299_35453)">
<rect width="32" height="24" fill="white"/>
<path fill-rule="evenodd" clip-rule="evenodd" d="M0 0V24H32V0H0Z" fill="#00B4FF"/>
<mask id="mask0_299_35453" style="mask-type:luminance" maskUnits="userSpaceOnUse" x="0" y="0" width="32" height="24">
<path fill-rule="evenodd" clip-rule="evenodd" d="M0 0V24H32V0H0Z" fill="white"/>
</mask>
<g mask="url(#mask0_299_35453)">
</g>
<g clip-path="url(#clip1_299_35453)">
<rect width="18" height="14" fill="#2E42A5"/>
<path d="M-2.00427 12.9991L1.95668 14.7363L18.0899 1.88805L20.1792 -0.693481L15.9435 -1.27411L9.36317 4.26259L4.06667 7.99302L-2.00427 12.9991Z" fill="#F7FCFF"/>
<path d="M-1.46204 14.2165L0.555885 15.2246L19.4289 -0.933105H16.5955L-1.46204 14.2165Z" fill="#F50100"/>
<path d="M20.0043 12.9991L16.0433 14.7363L-0.0898743 1.88805L-2.17919 -0.693481L2.05648 -1.27411L8.63683 4.26259L13.9333 7.99302L20.0043 12.9991Z" fill="#F7FCFF"/>
<path d="M19.8691 13.8727L17.8512 14.8809L9.81489 7.9629L7.43229 7.18998L-2.3802 -0.684557H0.453194L10.2602 7.00307L12.8651 7.92989L19.8691 13.8727Z" fill="#F50100"/>
<path fill-rule="evenodd" clip-rule="evenodd" d="M9.98451 0H7.98451V6H0V8H7.98451V14H9.98451V8H18V6H9.98451V0Z" fill="#F50100"/>
<path fill-rule="evenodd" clip-rule="evenodd" d="M6.48451 0H11.4845V4.5H18V9.5H11.4845L11.5 14H6.5L6.48451 9.5H0V4.5H6.48451V0ZM7.98451 6H0V8H7.98451V14H9.98451V8H18V6H9.98451V0H7.98451V6Z" fill="#F7FCFF"/>
</g>
<path d="M17.2314 20.0293L18.1201 19.4951L17.7646 20.6572L18.7959 21.5195L17.4639 21.5586L16.8564 22.6846L16.5166 21.4082L15.209 21.2441L16.2158 20.6396L16.1074 19.3477L17.2314 20.0293ZM13.5625 20.3037H14.5996L13.6963 21.1172L14.1367 22.3867L12.9746 21.7354L11.874 22.3867L12.2393 21.1172L11.2031 20.3037H12.3779L12.9502 19.1406L13.5625 20.3037ZM21.2314 18.0293L22.1201 17.4951L21.7646 18.6572L22.7959 19.5195L21.4639 19.5586L20.8564 20.6846L20.5166 19.4082L19.209 19.2441L20.2158 18.6396L20.1074 17.3477L21.2314 18.0293ZM17.2314 16.0293L18.1201 15.4951L17.7646 16.6572L18.7959 17.5195L17.4639 17.5586L16.8564 18.6846L16.5166 17.4082L15.209 17.2441L16.2158 16.6396L16.1074 15.3477L17.2314 16.0293ZM25.2314 16.0293L26.1201 15.4951L25.7646 16.6572L26.7959 17.5195L25.4639 17.5586L24.8564 18.6846L24.5166 17.4082L23.209 17.2441L24.2158 16.6396L24.1074 15.3477L25.2314 16.0293ZM27.2314 14.0293L28.1201 13.4951L27.7646 14.6572L28.7959 15.5195L27.4639 15.5586L26.8564 16.6846L26.5166 15.4082L25.209 15.2441L26.2158 14.6396L26.1074 13.3477L27.2314 14.0293ZM21.2314 12.0293L22.1201 11.4951L21.7646 12.6572L22.7959 13.5195L21.4639 13.5586L20.8564 14.6846L20.5166 13.4082L19.209 13.2441L20.2158 12.6396L20.1074 11.3477L21.2314 12.0293ZM23.2314 10.0293L24.1201 9.49512L23.7646 10.6572L24.7959 11.5195L23.4639 11.5586L22.8564 12.6846L22.5166 11.4082L21.209 11.2441L22.2158 10.6396L22.1074 9.34766L23.2314 10.0293ZM27.2314 8.0293L28.1201 7.49512L27.7646 8.65723L28.7959 9.51953L27.4639 9.55859L26.8564 10.6846L26.5166 9.4082L25.209 9.24414L26.2158 8.63965L26.1074 7.34766L27.2314 8.0293Z" fill="#FFD018"/>
</g>
<defs>
<clipPath id="clip0_299_35453">
<rect width="32" height="24" fill="white"/>
</clipPath>
<clipPath id="clip1_299_35453">
<rect width="18" height="14" fill="white"/>
</clipPath>
</defs>
</svg>
