<svg width="32" height="24" viewBox="0 0 32 24" fill="none" xmlns="http://www.w3.org/2000/svg">
<g clip-path="url(#clip0_299_35455)">
<rect width="32" height="24" fill="white"/>
<path fill-rule="evenodd" clip-rule="evenodd" d="M0 0V24H32V0H0Z" fill="#EF0000"/>
<mask id="mask0_299_35455" style="mask-type:luminance" maskUnits="userSpaceOnUse" x="0" y="0" width="32" height="24">
<path fill-rule="evenodd" clip-rule="evenodd" d="M0 0V24H32V0H0Z" fill="white"/>
</mask>
<g mask="url(#mask0_299_35455)">
<path fill-rule="evenodd" clip-rule="evenodd" d="M0 0V14H18V0H0Z" fill="#2E42A5"/>
<path d="M10.5701 3.94141L12.7771 3.08105L11.9177 5.28906L14.2595 5.64746L12.4109 7.12891L14.2595 8.61133L11.9177 8.96973L12.7771 11.1768L10.5701 10.3174L10.2117 12.6592L8.72925 10.8105L7.2478 12.6592L6.8894 10.3174L4.6814 11.1768L5.54175 8.96973L3.19995 8.61133L5.04858 7.12891L3.19995 5.64746L5.54175 5.28906L4.6814 3.08105L6.8894 3.94141L7.2478 1.59961L8.72925 3.44824L10.2117 1.59961L10.5701 3.94141ZM8.72925 4.2666C7.14868 4.26678 5.86712 5.54834 5.86694 7.12891C5.86694 8.70963 7.14857 9.99103 8.72925 9.99121C10.3101 9.99121 11.5916 8.70974 11.5916 7.12891C11.5914 5.54823 10.31 4.2666 8.72925 4.2666ZM8.72925 4.83984C9.9938 4.83984 11.0191 5.86439 11.0193 7.12891C11.0193 8.39357 9.99391 9.41895 8.72925 9.41895C7.46474 9.41877 6.44019 8.39346 6.44019 7.12891C6.44037 5.86451 7.46485 4.84002 8.72925 4.83984Z" fill="#FEFFFF"/>
</g>
</g>
<defs>
<clipPath id="clip0_299_35455">
<rect width="32" height="24" fill="white"/>
</clipPath>
</defs>
</svg>
