<svg width="32" height="24" viewBox="0 0 32 24" fill="none" xmlns="http://www.w3.org/2000/svg">
<g clip-path="url(#clip0_299_35461)">
<rect width="32" height="24" fill="white"/>
<path fill-rule="evenodd" clip-rule="evenodd" d="M0 0V24H32V0H0Z" fill="#FECA00"/>
<mask id="mask0_299_35461" style="mask-type:luminance" maskUnits="userSpaceOnUse" x="0" y="0" width="32" height="24">
<path fill-rule="evenodd" clip-rule="evenodd" d="M0 0V24H32V0H0Z" fill="white"/>
</mask>
<g mask="url(#mask0_299_35461)">
<rect width="32" height="4" fill="#272727"/>
<rect y="8" width="32" height="4" fill="#D74800"/>
<rect y="12" width="32" height="4" fill="#272727"/>
<rect y="20" width="32" height="4" fill="#D74800"/>
<path fill-rule="evenodd" clip-rule="evenodd" d="M16 18C19.3137 18 22 15.3137 22 12C22 8.68629 19.3137 6 16 6C12.6863 6 10 8.68629 10 12C10 15.3137 12.6863 18 16 18Z" fill="#F7FCFF"/>
<path fill-rule="evenodd" clip-rule="evenodd" d="M14.4222 7.64258C15.1016 7.64258 15.512 8.3291 15.512 8.3291C15.512 8.3291 14.6136 8.97972 14.6136 9.51172C14.6136 10.0437 14.3062 10.7786 15.512 11.2539C16.7178 11.7291 18.6539 11.7299 18.9026 12.5928C19.151 13.4553 18.435 13.7743 17.4544 13.7744C16.4734 13.7744 15.6746 13.3625 16.0735 13.7744C16.4725 14.1864 17.494 15.1628 16.7845 15.1631C16.5472 15.1631 15.6547 14.4524 15.6204 15.0488C15.599 15.4263 16.024 16.4626 15.6204 16.8633C15.5244 16.9586 16.8182 17.154 16.7171 17.2412C16.4585 17.4639 15.9572 17.2412 15.2806 17.2412C15.1933 17.2422 14.0561 17.9293 13.9407 17.9238C13.8314 17.9176 14.7127 17.2508 14.6136 17.2412C14.0344 17.1855 13.3672 17.2972 13.3401 17.2412C13.2955 17.1419 14.8085 17.2687 15.1302 16.8633C15.637 16.224 15.0528 14.9873 14.9895 14.9814C14.1886 14.9072 13.4086 14.8926 13.222 15.1631C12.8679 15.6773 12.1107 16.1937 12.1106 15.9355C12.1106 15.6773 11.7023 14.8829 13.5169 14.8828C15.3035 14.8828 15.0231 14.6915 15.0139 14.6855V14.0107C15.0139 14.0107 12.2737 13.3663 12.2737 11.9463C12.274 10.5265 13.5089 9.83827 13.68 9.51172C13.8508 9.18517 13.68 8.7666 13.68 8.7666L12.6214 8.67676L13.68 8.3291C13.6807 8.32145 13.7468 7.64281 14.4222 7.64258ZM15.5276 14.5771C15.5276 14.5771 16.2412 14.767 16.094 14.4141C15.9467 14.0615 15.5276 14.0752 15.5276 14.0752V14.5771Z" fill="#272727"/>
<path fill-rule="evenodd" clip-rule="evenodd" d="M13.0769 6.71104L14.0905 7.91298L14.6154 7.78952L14.3636 6.57617L13.0769 6.71104Z" fill="#D74800"/>
<path fill-rule="evenodd" clip-rule="evenodd" d="M14.3927 6.42076L14.458 8.22781L15.3235 8.01485L15.692 6.83134L14.3927 6.42076Z" fill="#FFD018"/>
<path fill-rule="evenodd" clip-rule="evenodd" d="M13.5769 9.43867C13.768 9.43867 13.923 9.28757 13.923 9.10117C13.923 8.91478 13.768 8.76367 13.5769 8.76367C13.3857 8.76367 13.2307 8.91478 13.2307 9.10117C13.2307 9.28757 13.3857 9.43867 13.5769 9.43867Z" fill="#D74800"/>
<path fill-rule="evenodd" clip-rule="evenodd" d="M15.7764 6.75975L14.7687 7.96663L14.9814 8.46211L16.1326 8.00351L15.7764 6.75975Z" fill="#D74800"/>
<path fill-rule="evenodd" clip-rule="evenodd" d="M18.1186 15.8942C18.1186 15.8942 19.891 15.1024 19.891 13.9951C19.891 12.8878 17.013 11.6816 17.013 11.6816C17.013 11.6816 15.3201 12.0691 16.0831 12.5876C16.8462 13.1061 17.8685 13.3053 17.8685 13.9951C17.8685 14.6849 18.1486 15.3426 17.5808 15.3426C17.013 15.3426 18.1186 15.8942 18.1186 15.8942Z" fill="#D74800"/>
<path fill-rule="evenodd" clip-rule="evenodd" d="M15.5615 11.4785C15.5615 11.4785 14.9346 11.5886 14.9644 11.6905C15.0466 11.9719 15.9038 12.3385 16.2774 12.5924C17.0404 13.1109 17.7639 13.0526 18.3021 12.7152C18.8403 12.3778 15.5615 11.4785 15.5615 11.4785Z" fill="#FFFDFF"/>
</g>
</g>
<defs>
<clipPath id="clip0_299_35461">
<rect width="32" height="24" fill="white"/>
</clipPath>
</defs>
</svg>
