<svg width="32" height="24" viewBox="0 0 32 24" fill="none" xmlns="http://www.w3.org/2000/svg">
<g clip-path="url(#clip0_299_35507)">
<rect width="32" height="24" fill="white"/>
<path fill-rule="evenodd" clip-rule="evenodd" d="M0 0H32V24H0V0Z" fill="#F7FCFF"/>
<path fill-rule="evenodd" clip-rule="evenodd" d="M0 14.666V16.666H32V14.666H0Z" fill="#E31D1C"/>
<path fill-rule="evenodd" clip-rule="evenodd" d="M0 18.334V20.334H32V18.334H0Z" fill="#E31D1C"/>
<path fill-rule="evenodd" clip-rule="evenodd" d="M0 7.33398V9.33398H32V7.33398H0Z" fill="#E31D1C"/>
<path fill-rule="evenodd" clip-rule="evenodd" d="M0 22V24H32V22H0Z" fill="#E31D1C"/>
<path fill-rule="evenodd" clip-rule="evenodd" d="M0 11V13H32V11H0Z" fill="#E31D1C"/>
<path fill-rule="evenodd" clip-rule="evenodd" d="M0 0V2H32V0H0Z" fill="#E31D1C"/>
<path fill-rule="evenodd" clip-rule="evenodd" d="M0 3.66602V5.66602H32V3.66602H0Z" fill="#E31D1C"/>
<rect width="20" height="13" fill="#2E42A5"/>
<path d="M2.05261 9.96777H2.77039L2.20593 10.541L2.42468 11.4473L1.72253 10.9385L0.995972 11.4473L1.24109 10.541L0.596558 9.96777H1.43835L1.72156 9.22852L2.05261 9.96777ZM6.05261 9.96777H6.77039L6.20593 10.541L6.42468 11.4473L5.72253 10.9385L4.99597 11.4473L5.24109 10.541L4.59656 9.96777H5.43835L5.72156 9.22852L6.05261 9.96777ZM10.0526 9.96777H10.7704L10.2059 10.541L10.4247 11.4473L9.72253 10.9385L8.99597 11.4473L9.24109 10.541L8.59656 9.96777H9.43835L9.72156 9.22852L10.0526 9.96777ZM14.0526 9.96777H14.7704L14.2059 10.541L14.4247 11.4473L13.7225 10.9385L12.996 11.4473L13.2411 10.541L12.5966 9.96777H13.4384L13.7216 9.22852L14.0526 9.96777ZM18.0526 9.96777H18.7704L18.2059 10.541L18.4247 11.4473L17.7225 10.9385L16.996 11.4473L17.2411 10.541L16.5966 9.96777H17.4384L17.7216 9.22852L18.0526 9.96777ZM4.05261 7.96777H4.77039L4.20593 8.54102L4.42468 9.44727L3.72253 8.93848L2.99597 9.44727L3.24109 8.54102L2.59656 7.96777H3.43835L3.72156 7.22852L4.05261 7.96777ZM8.05261 7.96777H8.77039L8.20593 8.54102L8.42468 9.44727L7.72253 8.93848L6.99597 9.44727L7.24109 8.54102L6.59656 7.96777H7.43835L7.72156 7.22852L8.05261 7.96777ZM12.0526 7.96777H12.7704L12.2059 8.54102L12.4247 9.44727L11.7225 8.93848L10.996 9.44727L11.2411 8.54102L10.5966 7.96777H11.4384L11.7216 7.22852L12.0526 7.96777ZM16.0526 7.96777H16.7704L16.2059 8.54102L16.4247 9.44727L15.7225 8.93848L14.996 9.44727L15.2411 8.54102L14.5966 7.96777H15.4384L15.7216 7.22852L16.0526 7.96777ZM2.05261 5.96777H2.77039L2.20593 6.54102L2.42468 7.44727L1.72253 6.93848L0.995972 7.44727L1.24109 6.54102L0.596558 5.96777H1.43835L1.72156 5.22852L2.05261 5.96777ZM6.05261 5.96777H6.77039L6.20593 6.54102L6.42468 7.44727L5.72253 6.93848L4.99597 7.44727L5.24109 6.54102L4.59656 5.96777H5.43835L5.72156 5.22852L6.05261 5.96777ZM10.0526 5.96777H10.7704L10.2059 6.54102L10.4247 7.44727L9.72253 6.93848L8.99597 7.44727L9.24109 6.54102L8.59656 5.96777H9.43835L9.72156 5.22852L10.0526 5.96777ZM14.0526 5.96777H14.7704L14.2059 6.54102L14.4247 7.44727L13.7225 6.93848L12.996 7.44727L13.2411 6.54102L12.5966 5.96777H13.4384L13.7216 5.22852L14.0526 5.96777ZM18.0526 5.96777H18.7704L18.2059 6.54102L18.4247 7.44727L17.7225 6.93848L16.996 7.44727L17.2411 6.54102L16.5966 5.96777H17.4384L17.7216 5.22852L18.0526 5.96777ZM4.05261 3.96777H4.77039L4.20593 4.54102L4.42468 5.44727L3.72253 4.93848L2.99597 5.44727L3.24109 4.54102L2.59656 3.96777H3.43835L3.72156 3.22852L4.05261 3.96777ZM8.05261 3.96777H8.77039L8.20593 4.54102L8.42468 5.44727L7.72253 4.93848L6.99597 5.44727L7.24109 4.54102L6.59656 3.96777H7.43835L7.72156 3.22852L8.05261 3.96777ZM12.0526 3.96777H12.7704L12.2059 4.54102L12.4247 5.44727L11.7225 4.93848L10.996 5.44727L11.2411 4.54102L10.5966 3.96777H11.4384L11.7216 3.22852L12.0526 3.96777ZM16.0526 3.96777H16.7704L16.2059 4.54102L16.4247 5.44727L15.7225 4.93848L14.996 5.44727L15.2411 4.54102L14.5966 3.96777H15.4384L15.7216 3.22852L16.0526 3.96777ZM2.05261 1.96777H2.77039L2.20593 2.54102L2.42468 3.44727L1.72253 2.93848L0.995972 3.44727L1.24109 2.54102L0.596558 1.96777H1.43835L1.72156 1.22852L2.05261 1.96777ZM6.05261 1.96777H6.77039L6.20593 2.54102L6.42468 3.44727L5.72253 2.93848L4.99597 3.44727L5.24109 2.54102L4.59656 1.96777H5.43835L5.72156 1.22852L6.05261 1.96777ZM10.0526 1.96777H10.7704L10.2059 2.54102L10.4247 3.44727L9.72253 2.93848L8.99597 3.44727L9.24109 2.54102L8.59656 1.96777H9.43835L9.72156 1.22852L10.0526 1.96777ZM14.0526 1.96777H14.7704L14.2059 2.54102L14.4247 3.44727L13.7225 2.93848L12.996 3.44727L13.2411 2.54102L12.5966 1.96777H13.4384L13.7216 1.22852L14.0526 1.96777ZM18.0526 1.96777H18.7704L18.2059 2.54102L18.4247 3.44727L17.7225 2.93848L16.996 3.44727L17.2411 2.54102L16.5966 1.96777H17.4384L17.7216 1.22852L18.0526 1.96777Z" fill="#F7FCFF"/>
</g>
<defs>
<clipPath id="clip0_299_35507">
<rect width="32" height="24" fill="white"/>
</clipPath>
</defs>
</svg>
