<svg width="32" height="24" viewBox="0 0 32 24" fill="none" xmlns="http://www.w3.org/2000/svg">
<g clip-path="url(#clip0_299_35513)">
<rect width="32" height="24" fill="white"/>
<path fill-rule="evenodd" clip-rule="evenodd" d="M0 16H32V24H0V16Z" fill="#14DC5A"/>
<path fill-rule="evenodd" clip-rule="evenodd" d="M0 0H32V10H0V0Z" fill="#0099B5"/>
<path d="M34.5 9.5V16.5H-2.5V9.5H34.5Z" fill="#F7FCFF" stroke="#C51918"/>
<path fill-rule="evenodd" clip-rule="evenodd" d="M2.00097 5.13672C2.05539 2.23768 5.003 1.73088 5.99999 2.1084C5.99999 2.1084 3.56016 2.73768 3.51464 5.16113C3.46926 7.57866 5.87295 8.23702 5.88476 8.24023C4.95552 8.60693 1.94663 8.03544 2.00097 5.13672ZM8.75781 6.01562H9.47558L8.9121 6.57422L9.18261 7.33398L8.42773 6.95996L7.75488 7.33398L7.94726 6.57422L7.30175 6.01562H8.14453L8.42675 5.29688L8.75781 6.01562ZM11.9365 6.01562H12.6543L12.0898 6.57422L12.3613 7.33398L11.6064 6.95996L10.9336 7.33398L11.125 6.57422L10.4805 6.01562H11.3223L11.6055 5.29688L11.9365 6.01562ZM14.916 6.01562H15.6338L15.0703 6.57422L15.3408 7.33398L14.5859 6.95996L13.9131 7.33398L14.1055 6.57422L13.4609 6.01562H14.3027L14.585 5.29688L14.916 6.01562ZM17.916 6.01562H18.6338L18.0693 6.57422L18.3408 7.33398L17.5859 6.95996L16.9121 7.33398L17.1045 6.57422L16.46 6.01562H17.3018L17.584 5.29688L17.916 6.01562ZM20.9463 6.01562H21.6641L21.0996 6.57422L21.3711 7.33398L20.6152 6.95996L19.9424 7.33398L20.1348 6.57422L19.4902 6.01562H20.332L20.6143 5.29688L20.9463 6.01562ZM11.9365 3.97754H12.6543L12.0898 4.53613L12.3613 5.29688L11.6064 4.92285L10.9336 5.29688L11.125 4.53613L10.4805 3.97754H11.3223L11.6055 3.25879L11.9365 3.97754ZM14.916 3.97754H15.6338L15.0703 4.53613L15.3408 5.29688L14.5859 4.92285L13.9131 5.29688L14.1055 4.53613L13.4609 3.97754H14.3027L14.585 3.25879L14.916 3.97754ZM17.916 3.97754H18.6338L18.0693 4.53613L18.3408 5.29688L17.5859 4.92285L16.9121 5.29688L17.1045 4.53613L16.46 3.97754H17.3018L17.584 3.25879L17.916 3.97754ZM20.9463 3.97754H21.6641L21.0996 4.53613L21.3711 5.29688L20.6152 4.92285L19.9424 5.29688L20.1348 4.53613L19.4902 3.97754H20.332L20.6143 3.25879L20.9463 3.97754ZM14.8711 2.06152H15.5889L15.0254 2.61914L15.2969 3.37988L14.541 3.00586L13.8682 3.37988L14.0605 2.61914L13.416 2.06152H14.2578L14.54 1.3418L14.8711 2.06152ZM17.8711 2.06152H18.5889L18.0244 2.61914L18.2959 3.37988L17.541 3.00586L16.8672 3.37988L17.0596 2.61914L16.415 2.06152H17.2568L17.54 1.3418L17.8711 2.06152ZM20.9014 2.06152H21.6191L21.0547 2.61914L21.3262 3.37988L20.5713 3.00586L19.8975 3.37988L20.0898 2.61914L19.4453 2.06152H20.2871L20.5693 1.3418L20.9014 2.06152Z" fill="#F7FCFF"/>
</g>
<defs>
<clipPath id="clip0_299_35513">
<rect width="32" height="24" fill="white"/>
</clipPath>
</defs>
</svg>
