<svg width="32" height="24" viewBox="0 0 32 24" fill="none" xmlns="http://www.w3.org/2000/svg">
<g clip-path="url(#clip0_299_35515)">
<rect width="32" height="24" fill="white"/>
<path fill-rule="evenodd" clip-rule="evenodd" d="M0 0H32V24H0V0Z" fill="#F7FCFF"/>
<path fill-rule="evenodd" clip-rule="evenodd" d="M0 0H14V24H0V0Z" fill="#FFDC17"/>
<path d="M22.7816 12.752L22.4364 12.7744C22.5189 13.9602 22.7736 14.8762 23.2059 15.5226C23.9031 16.565 24.8232 17.371 25.4389 17.371C25.5787 17.371 25.6112 17.4229 25.5651 17.5512C25.4995 17.7335 25.2921 17.9127 25.0253 17.9816C24.5815 18.096 23.5722 18.1552 22.0145 18.1552V18.4901C23.6034 18.4901 24.631 18.4298 25.1144 18.3052C25.4898 18.2083 25.7877 17.9508 25.8918 17.6613C26.0123 17.3264 25.8305 17.0361 25.4389 17.0361C24.9816 17.0361 24.1333 16.293 23.4963 15.3406C23.1004 14.7486 22.8604 13.8857 22.7816 12.752Z" fill="#AF0100"/>
<path d="M21.147 12.752L21.4921 12.7744C21.4097 13.9602 21.155 14.8762 20.7226 15.5226C20.0255 16.565 19.1054 17.371 18.4897 17.371C18.3499 17.371 18.3174 17.4229 18.3635 17.5512C18.4291 17.7335 18.6365 17.9127 18.9033 17.9816C19.3471 18.096 20.3564 18.1552 21.914 18.1552V18.4901C20.3252 18.4901 19.2976 18.4298 18.8142 18.3052C18.4388 18.2083 18.1409 17.9508 18.0368 17.6613C17.9163 17.3264 18.0981 17.0361 18.4897 17.0361C18.947 17.0361 19.7952 16.293 20.4322 15.3406C20.8282 14.7486 21.0682 13.8857 21.147 12.752Z" fill="#AF0100"/>
<path d="M28.7838 7.67676L27.8785 8.44336L28.0817 8.65332L27.9635 8.75977L28.8346 9.42773L29.2301 9.12402L29.9303 9.97559L29.7389 10.1221L29.7594 10.1377L29.6227 10.2119L28.4098 11.1475L27.7096 10.2959L28.0436 10.0371L27.2487 9.4082L26.9957 9.6377L26.7594 9.39355L26.3151 9.77051L26.611 10.0762L26.5035 10.1729L27.4205 10.8076L27.7594 10.5469L28.4596 11.3984L28.3717 11.4648L28.3766 11.4688L28.3512 11.4814L26.9401 12.5703L26.2389 11.7188L26.5817 11.4541L25.7614 10.8457L25.525 11.0605L25.1949 10.7197L20.2828 14.8906C20.4947 15.1994 20.6158 15.5563 20.6158 15.9404C20.6157 16.8791 19.8916 17.6512 18.8893 17.9648C18.6471 17.8876 18.4614 17.7213 18.4 17.5508C18.354 17.4227 18.3862 17.3711 18.526 17.3711C19.1416 17.371 19.8536 16.1543 19.5367 16.4492C19.5123 16.472 19.4868 16.493 19.4625 16.5146C19.5914 16.3399 19.6646 16.1441 19.6647 15.9404C19.6647 15.2741 18.8927 14.6847 17.8922 14.6846C16.8915 14.6846 16.1188 15.2741 16.1188 15.9404C16.1189 16.6067 16.8916 17.1963 17.8922 17.1963C17.9781 17.1963 18.062 17.19 18.1442 17.1816C18.0354 17.298 18.0047 17.4716 18.0729 17.6611C18.1288 17.8167 18.2415 17.962 18.3912 18.0791C18.229 18.103 18.0623 18.1172 17.8922 18.1172C16.4092 18.1172 15.1677 17.1697 15.1676 15.9404C15.1676 14.711 16.4091 13.7637 17.8922 13.7637C18.2558 13.7637 18.6047 13.8207 18.9244 13.9248L28.067 6.79883L28.7838 7.67676Z" fill="#F4B300"/>
<path d="M15.8593 17.4053C16.122 17.4053 16.3348 17.5742 16.3348 17.7822C16.3347 17.9902 16.1218 18.1592 15.8593 18.1592C15.5968 18.1591 15.3838 17.9901 15.3837 17.7822C15.3837 17.5742 15.5966 17.4054 15.8593 17.4053ZM20.0975 17.4053C20.3601 17.4054 20.5731 17.5742 20.5731 17.7822C20.5729 17.9901 20.36 18.1591 20.0975 18.1592C19.8349 18.1592 19.6221 17.9902 19.6219 17.7822C19.6219 17.5742 19.8348 17.4053 20.0975 17.4053ZM15.6864 13.9727C15.9491 13.9727 16.162 14.1415 16.162 14.3496C16.1618 14.5576 15.949 14.7266 15.6864 14.7266C15.4238 14.7265 15.211 14.5576 15.2108 14.3496C15.2108 14.1416 15.4237 13.9727 15.6864 13.9727Z" fill="#BFBFBF"/>
<path d="M15.2162 7.67578L16.1586 8.4043L15.9183 8.65234L16.0375 8.75977L15.1664 9.42773L14.7699 9.12305L14.0697 9.97461L14.2611 10.1211L14.2406 10.1377L14.4203 10.2441L15.5902 11.1465L16.2904 10.2959L15.976 10.0527L16.7611 9.41602L17.0043 9.6377L17.3246 9.30664L17.7875 9.66504L17.389 10.0762L17.4965 10.1729L16.5795 10.8076L16.2406 10.5469L15.5404 11.3984L15.6283 11.4648L15.6234 11.4688L15.6644 11.4932L17.0599 12.5703L17.7611 11.7188L17.4545 11.4814L18.2582 10.8623L18.475 11.0605L18.889 10.6328L18.7367 10.4941L18.7972 10.4473L24.0472 14.5146C23.6365 14.8928 23.3843 15.3869 23.3842 15.9395C23.3842 16.8788 24.1092 17.6516 25.1127 17.9648C25.3539 17.8874 25.5387 17.7209 25.6 17.5508C25.6461 17.4226 25.6138 17.3701 25.474 17.3701C24.8585 17.37 24.1469 16.1538 24.4633 16.4482C24.4877 16.471 24.5132 16.4921 24.5375 16.5137C24.4086 16.3389 24.3353 16.1432 24.3353 15.9395C24.3356 15.2733 25.1075 14.6837 26.1078 14.6836C27.1082 14.6836 27.8809 15.2733 27.8812 15.9395C27.8812 16.6058 27.1084 17.1953 26.1078 17.1953C26.0216 17.1953 25.9373 17.1891 25.8549 17.1807C25.9643 17.2971 25.9955 17.4711 25.9271 17.6611C25.8712 17.8165 25.7582 17.9611 25.6088 18.0781C25.771 18.1021 25.9377 18.1162 26.1078 18.1162C27.5909 18.1162 28.8324 17.1688 28.8324 15.9395C28.8321 14.7103 27.5907 13.7627 26.1078 13.7627C25.6746 13.7627 25.2628 13.8461 24.8959 13.9912L15.8109 6.95703L15.2162 7.67578Z" fill="#BFBFBF"/>
<path d="M28.1407 17.4053C27.878 17.4053 27.6652 17.5742 27.6652 17.7822C27.6653 17.9902 27.8782 18.1592 28.1407 18.1592C28.4032 18.1591 28.6162 17.9901 28.6163 17.7822C28.6163 17.5742 28.4034 17.4054 28.1407 17.4053ZM23.9025 17.4053C23.6399 17.4054 23.4269 17.5742 23.4269 17.7822C23.4271 17.9901 23.64 18.1591 23.9025 18.1592C24.1651 18.1592 24.3779 17.9902 24.3781 17.7822C24.3781 17.5742 24.1652 17.4053 23.9025 17.4053ZM28.3136 13.9727C28.0509 13.9727 27.838 14.1415 27.838 14.3496C27.8382 14.5576 28.051 14.7266 28.3136 14.7266C28.5762 14.7265 28.789 14.5576 28.7892 14.3496C28.7892 14.1416 28.5763 13.9727 28.3136 13.9727Z" fill="#F4B300"/>
<path d="M21.9995 11.7969C22.0712 11.7969 22.1294 11.8551 22.1294 11.9268V12.4668H22.8687C22.9379 12.4668 22.9944 12.5226 22.9946 12.5918C22.9946 12.6612 22.938 12.7178 22.8687 12.7178H22.1294V19.8721C22.1292 19.9436 22.0711 20.002 21.9995 20.002H21.7407C21.6692 20.002 21.611 19.9436 21.6108 19.8721V12.7178H21.1313C21.062 12.7178 21.0054 12.6612 21.0054 12.5918C21.0056 12.5226 21.0621 12.4668 21.1313 12.4668H21.6108V11.9268C21.6108 11.8551 21.6691 11.7969 21.7407 11.7969H21.9995Z" fill="#AF0100"/>
<path fill-rule="evenodd" clip-rule="evenodd" d="M16.7545 7.5944C17.3252 6.8151 17.9321 6.63065 18.5182 7.08951C19.4266 7.80106 19.5035 9.49891 18.5045 10.0964C17.6215 10.6246 17.1823 11.6356 17.526 12.1276C17.814 12.5395 18.6439 12.3532 19.5074 11.7008C19.6633 11.5831 19.8105 11.4561 19.9508 11.3249L20.1559 11.4831C20.0018 11.6288 19.8386 11.7682 19.6666 11.8981C18.6984 12.6296 17.7181 12.8504 17.3112 12.2682C16.8703 11.6371 17.3744 10.4772 18.3688 9.88248C19.2022 9.3837 19.1346 7.89416 18.3551 7.28385C17.9036 6.93047 17.4597 7.06635 16.9664 7.73991L16.7545 7.5944ZM21.4752 9.23112C21.392 9.75967 21.1403 10.2961 20.7731 10.7917L20.5612 10.6442C20.9057 10.1792 21.1417 9.67972 21.2184 9.19303L21.4752 9.23112Z" fill="#979797"/>
<path fill-rule="evenodd" clip-rule="evenodd" d="M27.2694 7.5944C26.6987 6.8151 26.0918 6.63065 25.5057 7.08951C24.5973 7.80106 24.5204 9.49891 25.5194 10.0964C26.4024 10.6246 26.8416 11.6356 26.4979 12.1276C26.2099 12.5395 25.38 12.3532 24.5165 11.7008C24.3607 11.5831 24.2134 11.4561 24.0731 11.3249L23.868 11.4831C24.0221 11.6288 24.1853 11.7682 24.3573 11.8981C25.3255 12.6296 26.3059 12.8504 26.7128 12.2682C27.1537 11.6371 26.6495 10.4772 25.6552 9.88248C24.8217 9.3837 24.8893 7.89416 25.6688 7.28385C26.1203 6.93047 26.5642 7.06635 27.0575 7.73991L27.2694 7.5944ZM22.5487 9.23112C22.632 9.75967 22.8837 10.2961 23.2509 10.7917L23.4628 10.6442C23.1182 10.1792 22.8822 9.67972 22.8055 9.19303L22.5487 9.23112Z" fill="#979797"/>
<path fill-rule="evenodd" clip-rule="evenodd" d="M21.8702 20.017C22.1568 20.017 22.3892 19.9008 22.3892 19.7575C22.3892 19.6142 22.1568 19.498 21.8702 19.498C21.5836 19.498 21.3513 19.6142 21.3513 19.7575C21.3513 19.9008 21.5836 20.017 21.8702 20.017Z" fill="#AF0100"/>
<path fill-rule="evenodd" clip-rule="evenodd" d="M21.7837 9.22064C22.7868 9.22064 23.6 9.08512 23.6 8.91794C23.6 8.75076 22.7868 8.61523 21.7837 8.61523C20.7807 8.61523 19.9675 8.75076 19.9675 8.91794C19.9675 9.08512 20.7807 9.22064 21.7837 9.22064Z" fill="#AF0100"/>
<path d="M21.8341 8.37207C22.6124 8.3721 23.2474 8.49029 23.7374 8.73047L23.6066 8.91895C23.1601 8.70015 22.5696 8.58988 21.8341 8.58984C21.0962 8.58984 20.463 8.70133 19.9347 8.92285L19.8195 8.72754C20.3859 8.49006 21.058 8.37207 21.8341 8.37207ZM21.8341 6.94824C22.6124 6.94828 23.2474 7.06744 23.7374 7.30762L23.6066 7.49609C23.1601 7.27729 22.5696 7.16605 21.8341 7.16602C21.1066 7.16602 20.4809 7.27392 19.9572 7.48926L20.2599 8.1543C20.334 8.13293 20.4094 8.11268 20.4865 8.09473C20.4332 8.0344 20.3996 7.95227 20.3995 7.86133C20.3995 7.67653 20.5353 7.52662 20.7023 7.52637C20.8694 7.52637 21.005 7.67638 21.005 7.86133C21.005 7.91385 20.9923 7.9626 20.9728 8.00684C21.179 7.97939 21.3946 7.96358 21.6193 7.95703V7.67188H21.2941V7.4707H21.6193V7.22949H21.962V7.4707H22.3585V7.67188H21.962V7.95508C22.2174 7.9595 22.4567 7.97659 22.6798 8.00781C22.6602 7.96351 22.6486 7.91396 22.6486 7.86133C22.6486 7.67639 22.7841 7.52639 22.9513 7.52637C23.1185 7.52637 23.254 7.67638 23.254 7.86133C23.254 7.95657 23.217 8.04159 23.1593 8.10254C23.2567 8.12787 23.35 8.15664 23.4396 8.18848L23.6886 7.64258L23.9259 7.74414L23.6788 8.28613C23.6983 8.29509 23.7184 8.30318 23.7374 8.3125L23.6066 8.50098C23.5996 8.49757 23.5921 8.49457 23.5851 8.49121L23.546 8.57812L23.3087 8.47656L23.3458 8.39258C22.9674 8.25687 22.5067 8.1827 21.962 8.17285V8.26172H21.6193V8.1748C20.9725 8.19452 20.4111 8.30416 19.9347 8.50391L19.8195 8.30859C19.8826 8.28211 19.947 8.25691 20.0128 8.2334L19.6759 7.49316L19.879 7.40527L19.8195 7.30371C20.3858 7.06629 21.0581 6.94824 21.8341 6.94824ZM21.8341 5.52539C22.6124 5.52542 23.2474 5.64361 23.7374 5.88379L23.6066 6.07227C23.1601 5.85349 22.5696 5.7432 21.8341 5.74316C21.1065 5.74316 20.4809 5.85103 19.9572 6.06641L20.2599 6.73047C20.3339 6.70913 20.4095 6.68981 20.4865 6.67188C20.4331 6.6115 20.3995 6.52863 20.3995 6.4375C20.3997 6.25289 20.5354 6.10279 20.7023 6.10254C20.8693 6.10254 21.0048 6.25273 21.005 6.4375C21.005 6.49022 20.9924 6.53962 20.9728 6.58398C21.1791 6.55653 21.3946 6.53976 21.6193 6.5332V6.24902H21.2941V6.04688H21.6193V5.80664H21.962V6.04688H22.3585V6.24902H21.962V6.53223C22.2174 6.53665 22.4567 6.55373 22.6798 6.58496C22.6601 6.54052 22.6486 6.49033 22.6486 6.4375C22.6488 6.25275 22.7843 6.10257 22.9513 6.10254C23.1184 6.10254 23.2538 6.25273 23.254 6.4375C23.254 6.53292 23.2172 6.61869 23.1593 6.67969C23.2564 6.70494 23.3493 6.73391 23.4386 6.76562L23.6886 6.21973L23.9259 6.32129L23.6788 6.8623C23.6984 6.8713 23.7183 6.87931 23.7374 6.88867L23.6066 7.07715C23.5995 7.0737 23.5922 7.07078 23.5851 7.06738L23.546 7.1543L23.3087 7.05273L23.3458 6.96875C22.9674 6.83308 22.5066 6.75985 21.962 6.75V6.83887H21.6193V6.75098C20.9725 6.77069 20.4111 6.8813 19.9347 7.08105L19.8195 6.88574C19.8826 6.85926 19.947 6.83407 20.0128 6.81055L19.6759 6.07031L19.879 5.98242L19.8195 5.88086C20.3859 5.6434 21.058 5.52539 21.8341 5.52539ZM21.962 4.62402H22.3585V4.82617H21.962V5.1084C22.2175 5.11282 22.4567 5.13087 22.6798 5.16211C22.66 5.11759 22.6486 5.06761 22.6486 5.01465C22.6486 4.82971 22.7841 4.67971 22.9513 4.67969C23.1185 4.67969 23.254 4.8297 23.254 5.01465C23.254 5.10991 23.217 5.19488 23.1593 5.25586C23.2568 5.28122 23.3499 5.3109 23.4396 5.34277L23.6886 4.79688L23.9259 4.89746L23.6788 5.43945C23.6983 5.44842 23.7184 5.45649 23.7374 5.46582L23.6066 5.6543C23.5996 5.65087 23.5921 5.6479 23.5851 5.64453L23.546 5.73145L23.3087 5.62988L23.3458 5.5459C22.9674 5.4102 22.5066 5.33602 21.962 5.32617V5.41504H21.6193V5.32812C20.9725 5.34784 20.4111 5.45748 19.9347 5.65723L19.8195 5.46191C19.8826 5.43544 19.947 5.41023 20.0128 5.38672L19.6759 4.64648L19.9132 4.54492L20.2599 5.30762C20.3339 5.28626 20.4094 5.266 20.4865 5.24805C20.4332 5.1877 20.3995 5.10561 20.3995 5.01465C20.3995 4.82985 20.5353 4.67994 20.7023 4.67969C20.8694 4.67969 21.005 4.8297 21.005 5.01465C21.005 5.06718 20.9923 5.11591 20.9728 5.16016C21.179 5.13271 21.3946 5.1169 21.6193 5.11035V4.82617H21.2941V4.62402H21.6193V4.38281H21.962V4.62402ZM21.8859 2.33789H22.1857V2.58887H21.8859V3.32227H21.6261V2.58887H21.381V2.33789H21.6261V2.03906H21.8859V2.33789Z" fill="#F4B300"/>
</g>
<defs>
<clipPath id="clip0_299_35515">
<rect width="32" height="24" fill="white"/>
</clipPath>
</defs>
</svg>
