<svg width="32" height="24" viewBox="0 0 32 24" fill="none" xmlns="http://www.w3.org/2000/svg">
<g clip-path="url(#clip0_299_35519)">
<rect width="32" height="24" fill="white"/>
<path fill-rule="evenodd" clip-rule="evenodd" d="M0 0V24H32V0H0Z" fill="#2E42A5"/>
<mask id="mask0_299_35519" style="mask-type:luminance" maskUnits="userSpaceOnUse" x="0" y="0" width="32" height="24">
<path fill-rule="evenodd" clip-rule="evenodd" d="M0 0V24H32V0H0Z" fill="white"/>
</mask>
<g mask="url(#mask0_299_35519)">
<path fill-rule="evenodd" clip-rule="evenodd" d="M0 0V8H32V0H0Z" fill="#FECA00"/>
<path fill-rule="evenodd" clip-rule="evenodd" d="M0 16V24H32V16H0Z" fill="#E31D1C"/>
<path d="M14.202 9.89453H15.2499L14.4266 10.7275L14.8221 11.8604L13.7196 11.3027L12.7372 11.8604L13.0175 10.7275L13.0057 10.7168L12.1884 11.5449L12.5848 12.6777L11.4813 12.1201L10.4989 12.6777L10.5106 12.626L10.0399 13.1035L10.4354 14.2363L9.33289 13.6797L9.10925 13.8066H9.16199L8.33777 14.6387L8.73425 15.7725L7.63171 15.2148L6.64929 15.7725L6.92957 14.6387L5.98816 13.8066H7.21765L7.62976 12.7344L8.11316 13.8066H8.45691L8.63074 13.1035L7.69031 12.2715H8.9198L9.33191 11.1992L9.81531 12.2715H10.5995L10.7802 11.5449L9.83875 10.7119H11.0682L11.4803 9.63965L11.9637 10.7119H12.9999L12.076 9.89453H13.3055L13.7177 8.82227L14.202 9.89453Z" fill="#F7FCFF"/>
<path d="M17.7578 9.84961H16.71L17.5332 10.6826L17.1377 11.8154L18.2402 11.2578L19.2227 11.8154L18.9424 10.6826L18.957 10.6699L19.7764 11.5L19.3799 12.6328L20.4834 12.0752L21.4658 12.6328L21.4541 12.5811L21.9248 13.0586L21.5293 14.1914L22.6318 13.6348L22.8555 13.7617H22.8027L23.627 14.5938L23.2305 15.7275L24.333 15.1699L25.3154 15.7275L25.0352 14.5938L25.9766 13.7617H24.7471L24.335 12.6895L23.8516 13.7617H23.5078L23.334 13.0586L24.2744 12.2266H23.0449L22.6328 11.1543L22.1494 12.2266H21.3652L21.1846 11.5L22.126 10.667H20.8965L20.4844 9.59473L20.001 10.667H18.96L19.8838 9.84961H18.6543L18.2422 8.77734L17.7578 9.84961Z" fill="#F7FCFF"/>
<path fill-rule="evenodd" clip-rule="evenodd" d="M15.8329 10.535L14.8503 11.0925L15.1309 9.95948L14.1896 9.12688H15.4191L15.8315 8.05469L16.315 9.12688H17.3631L16.5396 9.95948L16.9356 11.0925L15.8329 10.535Z" fill="#F7FCFF"/>
</g>
</g>
<defs>
<clipPath id="clip0_299_35519">
<rect width="32" height="24" fill="white"/>
</clipPath>
</defs>
</svg>
