<svg width="32" height="24" viewBox="0 0 32 24" fill="none" xmlns="http://www.w3.org/2000/svg">
<g clip-path="url(#clip0_299_35523)">
<rect width="32" height="24" fill="white"/>
<path fill-rule="evenodd" clip-rule="evenodd" d="M0 0V24H32V0H0Z" fill="#F7FCFF"/>
<mask id="mask0_299_35523" style="mask-type:luminance" maskUnits="userSpaceOnUse" x="0" y="0" width="32" height="24">
<path fill-rule="evenodd" clip-rule="evenodd" d="M0 0V24H32V0H0Z" fill="white"/>
</mask>
<g mask="url(#mask0_299_35523)">
<path fill-rule="evenodd" clip-rule="evenodd" d="M17.8669 14.8369C17.8799 14.8425 18.4758 15.1004 18.4763 15.4414C18.4763 15.7864 19.5085 16.661 19.5085 17.0029C19.5077 17.3452 18.6094 18.1716 18.238 18.5391C17.8665 18.9066 17.3792 19.6129 16.9919 19.6133C16.6045 19.6133 16.3593 20.1309 16.0319 20.1309C16.0235 20.1308 16.0161 20.1262 16.0085 20.1182C16.0009 20.1262 15.9936 20.1309 15.9851 20.1309C15.6577 20.1309 15.4125 19.6133 15.0251 19.6133C14.6378 19.6128 14.1505 18.9066 13.779 18.5391C13.4076 18.1716 12.5093 17.3451 12.5085 17.0029C12.5085 16.661 13.5407 15.7864 13.5407 15.4414C13.5413 15.101 14.1353 14.8433 14.1501 14.8369L15.9851 14.0625C15.9851 14.0625 15.994 14.2448 16.0085 14.5459C16.0231 14.2448 16.0319 14.0625 16.0319 14.0625L17.8669 14.8369ZM14.0866 14.6143C14.0808 14.614 13.0359 14.561 13.0359 15.3418C13.0356 16.1245 12.0728 16.4814 11.5339 16.4814C10.9952 16.4815 10.699 16.8341 10.6989 17.4551C10.6989 18.0763 9.59591 17.6946 9.33273 17.4551C9.0698 17.2155 9.59569 16.181 9.86984 16.1807C10.1439 16.1807 10.4568 15.9688 11.0388 15.9688C11.621 15.9688 11.0992 15.2089 11.6999 14.207C12.3006 13.2054 12.8435 12.8311 12.8435 12.8311L14.0866 14.6143ZM19.3835 12.8311C19.3911 12.8363 19.9306 13.2124 20.5271 14.207C21.1278 15.2089 20.606 15.9688 21.1882 15.9688C21.7701 15.9689 22.0831 16.1807 22.3571 16.1807C22.6313 16.1813 23.157 17.2154 22.8942 17.4551C22.6311 17.6946 21.528 18.0763 21.528 17.4551C21.5279 16.8342 21.2317 16.4816 20.6931 16.4814C20.1542 16.4814 19.1904 16.1245 19.1901 15.3418C19.1901 14.5642 18.1546 14.6135 18.1403 14.6143L19.3835 12.8311ZM2.77706 4.86914C3.27106 4.65717 10.8941 7.13477 11.2927 7.13477C11.6913 7.13478 12.441 8.10062 12.0661 8.50684C11.6914 8.91285 11.5645 9.15029 11.8151 9.15039C12.066 9.15039 13.3317 8.82129 13.3317 8.82129V12.5938C13.3317 12.5938 12.1188 12.8815 11.8151 12.5938C11.5116 12.3059 10.8786 12.5764 10.8786 12.2627C10.8783 11.9524 10.1944 11.9014 10.1804 11.9004C10.1804 11.9004 9.53453 11.6869 9.5339 11.4863C9.5339 11.2876 9.11781 10.7291 9.11007 10.7188C9.10243 10.7144 7.49456 9.80319 6.12667 8.80371C4.7555 7.80178 3.46353 7.08626 3.2712 6.22266C2.55508 5.51351 2.2832 5.08112 2.77706 4.86914ZM29.4499 4.86914C29.9436 5.08114 29.6718 5.51356 28.9558 6.22266C28.7635 7.08627 27.4715 7.80177 26.1003 8.80371C24.736 9.80057 23.1329 10.7097 23.1169 10.7188C23.1109 10.7268 22.6931 11.2871 22.6931 11.4863C22.6924 11.6869 22.0466 11.9004 22.0466 11.9004C22.0374 11.9011 21.3477 11.9513 21.3474 12.2627C21.3474 12.5763 20.7154 12.3059 20.4118 12.5938C20.1089 12.881 18.9005 12.595 18.8952 12.5938V8.82129C18.8952 8.82129 20.1609 9.15039 20.4118 9.15039C20.6623 9.15021 20.5354 8.91274 20.1609 8.50684C19.7859 8.10062 20.5357 7.13477 20.9343 7.13477C21.3343 7.13428 28.956 4.65719 29.4499 4.86914ZM16.0749 4.80273C16.8613 4.80273 17.1472 5.74225 17.1472 5.92676C17.1474 6.11149 17.4145 7.08727 17.4157 7.0918C17.4044 7.09186 17.1478 7.09448 17.1472 7.21777C17.1472 7.34428 17.99 7.8916 17.99 7.8916C17.99 7.8916 17.3612 8.07619 17.6023 8.21387C17.7231 8.28263 17.8199 8.40548 17.8864 8.51074L13.9011 8.7041L14.1833 8.21387C14.1696 8.2076 13.9054 8.08594 14.0437 8.08594C14.1841 8.08552 14.5814 7.5314 14.5905 7.51855H14.4216C14.4216 7.51855 14.3347 7.37695 14.5905 7.37695C14.8463 7.37665 15.0505 6.46191 15.0505 6.46191C15.0556 6.44872 15.2117 6.03303 14.8073 5.92676C14.3965 5.81894 13.9011 6.28418 13.9011 6.28418C13.9011 6.28418 14.022 5.53988 14.1833 5.37793C14.3447 5.21659 14.8072 5.34706 14.8073 5.15137C14.8073 4.95553 15.2886 4.80275 16.0749 4.80273Z" fill="#E8AA00"/>
<path fill-rule="evenodd" clip-rule="evenodd" d="M8.71814 12.1744C9.04686 11.8464 9.00134 12.1741 9.00134 12.4762C9.00129 12.7783 8.43523 13.316 8.26501 13.316L8.26306 13.3151C8.40837 13.5966 8.56082 13.881 8.71814 14.1637C8.70989 14.0055 8.79236 13.7418 8.79236 13.7418C8.79691 13.7318 8.92293 13.4602 9.24548 13.1383C9.57421 12.8103 9.52771 13.138 9.52771 13.4401C9.52764 13.742 8.96277 14.2795 8.79236 14.2799C8.78854 14.2799 8.7851 14.2775 8.78162 14.277C8.89586 14.4805 9.0114 14.6834 9.1283 14.8834C9.15055 14.7586 9.18787 14.6412 9.18787 14.6412C9.19399 14.6279 9.3205 14.3575 9.64099 14.0377C9.96958 13.7099 9.92323 14.0375 9.92322 14.3395C9.92322 14.5977 9.50892 15.0265 9.28259 15.1461C9.37231 15.2972 9.46189 15.4466 9.55115 15.5934C9.56731 15.5284 9.58121 15.4809 9.5824 15.4772C9.5824 15.4772 9.70688 15.2007 10.0355 14.8727C10.3642 14.5446 10.3187 14.8733 10.3187 15.1754C10.3183 15.405 9.9915 15.7699 9.76013 15.9322C9.82333 16.0344 9.88566 16.1352 9.94763 16.234C9.96367 16.1697 9.97686 16.123 9.97791 16.1197C9.97791 16.1197 10.1023 15.8433 10.431 15.5152C10.7598 15.1872 10.7142 15.5159 10.7142 15.818C10.7138 16.0458 10.3915 16.4068 10.1605 16.5709C10.9211 17.765 11.5255 18.6217 11.5365 18.6373H10.8324C10.4831 18.4194 9.99366 17.5563 9.48669 16.4752C9.41035 16.5146 9.29452 16.5512 9.18396 16.5914C8.9001 16.6947 8.20116 16.3471 8.14294 16.1871C8.08571 16.0298 8.62964 16.0043 8.64783 16.0035C8.64783 16.0035 8.95024 16.025 9.37048 16.2213C9.30338 16.0747 9.23544 15.9251 9.16833 15.7731C9.12819 15.8407 8.95197 15.8893 8.78845 15.9488C8.50454 16.0521 7.80565 15.7045 7.74744 15.5445C7.68944 15.3847 8.2533 15.361 8.2533 15.361C8.26463 15.3619 8.56337 15.3868 8.97595 15.5797C9.04169 15.6104 9.08815 15.6395 9.12048 15.6647C8.61271 14.5047 8.11781 13.2294 7.75623 12.2652C7.88873 12.5616 8.03441 12.8679 8.19177 13.1774C8.1916 13.0179 8.26501 12.7779 8.26501 12.7779C8.2687 12.7699 8.39452 12.4974 8.71814 12.1744ZM7.85779 14.525C7.86325 14.5254 8.16361 14.5498 8.58044 14.7447C9.00091 14.9414 8.67677 15.0106 8.39294 15.1139C8.10895 15.2167 7.4106 14.8695 7.35193 14.7096C7.29371 14.5496 7.85779 14.525 7.85779 14.525ZM7.46228 13.6256C7.46228 13.6256 7.76426 13.6486 8.18494 13.8453C8.60556 14.042 8.28129 14.1102 7.99744 14.2135C7.71354 14.3164 7.01533 13.9702 6.95642 13.8102C6.89868 13.6515 7.45323 13.626 7.46228 13.6256ZM7.13318 12.7262C7.14199 12.7269 7.44142 12.7512 7.85583 12.9449C8.27651 13.1416 7.95219 13.2108 7.66833 13.3141C7.38441 13.4173 6.68553 13.0697 6.62732 12.9098C6.56997 12.7501 7.13318 12.7262 7.13318 12.7262ZM6.43689 11.6432C6.43788 11.4754 6.96451 11.6399 6.97498 11.6432C6.97498 11.6432 7.25144 11.7686 7.57947 12.0973C7.90684 12.4256 7.57869 12.3795 7.27673 12.3795C6.97459 12.3791 6.43689 11.8133 6.43689 11.6432ZM8.01111 11.1334C8.20776 10.7129 8.27699 11.0361 8.38025 11.3199C8.48345 11.6035 8.13713 12.3014 7.97693 12.361C7.81949 12.4183 7.79313 11.8732 7.79236 11.8561C7.79236 11.8561 7.81465 11.5538 8.01111 11.1334ZM7.01013 10.6725C6.97015 10.2098 7.19181 10.4558 7.42322 10.65C7.65456 10.8443 7.70352 11.6231 7.59412 11.7535C7.58712 11.7619 7.57913 11.7674 7.57068 11.7711C7.62703 11.9239 7.69016 12.0891 7.75623 12.2652C7.68172 12.0986 7.60964 11.9359 7.54529 11.776C7.41629 11.773 7.18955 11.4196 7.18201 11.4078C7.18201 11.4078 7.05016 11.1349 7.01013 10.6725Z" fill="#46A000"/>
<path d="M22.1979 18.1074L22.0231 18.2598L22.3629 18.5098L21.858 20.7627L21.1813 20.1768L20.4733 20.502V20.1768L20.111 20.502L19.8405 19.5801H19.0602L20.4733 17.9414H20.9713V17.459H22.0231L22.1979 18.1074ZM24.7184 13.1553L24.4147 12.8877L22.6178 16.2402L24.6237 13.9424L24.2369 13.749L26.2174 12.4531L25.3551 14.5654L24.8746 14.2197L22.8395 16.7812L21.9957 16.457L22.8395 13.4561H22.2662L23.4127 11.3447L23.4459 13.6934L23.0914 13.5781L22.8395 15.1465L24.1061 12.7168L23.6842 12.5586L25.2526 10.8613L24.7184 13.1553ZM28.692 10.3379C28.692 10.3379 28.1356 10.4383 28.1354 10.7754V14.7598C28.1354 14.7598 28.2365 15.1405 28.692 15.1484C29.1458 15.1563 26.5543 15.1484 26.5543 15.1484C26.5543 15.1484 27.0468 15.05 27.0573 14.7598C27.0677 14.4695 27.0573 10.7754 27.0573 10.7754C27.0073 10.3379 26.5543 10.3379 26.5543 10.3379H28.692ZM4.30823 10.4033C4.05434 10.4035 3.95876 10.7234 3.95667 10.7305L4.99182 13.6836C4.9971 13.6709 5.99377 11.2712 5.99377 10.8447C5.99361 10.4174 5.57288 10.4033 5.57288 10.4033H7.50061L7.03479 10.5586C7.03479 10.5586 5.49284 14.0954 5.4928 14.8525C5.4198 15.0192 6.1922 15.1303 6.20276 15.1318H4.13245L4.56506 14.8525C4.323 14.2276 2.82971 10.4033 2.82971 10.4033H4.30823Z" fill="#0093E1"/>
<path fill-rule="evenodd" clip-rule="evenodd" d="M12.3435 8.01172C12.3435 8.01172 13.2741 8.65429 14.2047 8.65429C15.1353 8.65429 16.0659 8.01172 16.0659 8.01172C16.0659 8.01172 16.9965 8.65429 17.9271 8.65429C18.8576 8.65429 19.7882 8.01172 19.7882 8.01172V10.9126C19.7882 13.912 16.0659 16.2366 16.0659 16.2366C16.0659 16.2366 12.1633 14.1022 12.3435 10.877V8.01172Z" fill="#F7FCFF"/>
<mask id="mask1_299_35523" style="mask-type:luminance" maskUnits="userSpaceOnUse" x="12" y="8" width="8" height="9">
<path fill-rule="evenodd" clip-rule="evenodd" d="M12.3435 8.01172C12.3435 8.01172 13.2741 8.65429 14.2047 8.65429C15.1353 8.65429 16.0659 8.01172 16.0659 8.01172C16.0659 8.01172 16.9965 8.65429 17.9271 8.65429C18.8576 8.65429 19.7882 8.01172 19.7882 8.01172V10.9126C19.7882 13.912 16.0659 16.2366 16.0659 16.2366C16.0659 16.2366 12.1633 14.1022 12.3435 10.877V8.01172Z" fill="white"/>
</mask>
<g mask="url(#mask1_299_35523)">
<path fill-rule="evenodd" clip-rule="evenodd" d="M12.08 7.81836H19.92V10.8384H12.08V7.81836Z" fill="#2E42A5"/>
<path d="M13.5957 16.9443H12.9365V10.8398H13.5957V16.9443ZM14.7158 16.9443H14.0566V10.8398H14.7158V16.9443ZM15.835 16.9443H15.1768V10.8398H15.835V16.9443ZM16.9551 16.9443H16.2969V10.8398H16.9551V16.9443ZM18.0752 16.9443H17.417V10.8398H18.0752V16.9443ZM19.1953 16.9443H18.5361V10.8398H19.1953V16.9443Z" fill="#AF0100"/>
</g>
</g>
</g>
<defs>
<clipPath id="clip0_299_35523">
<rect width="32" height="24" fill="white"/>
</clipPath>
</defs>
</svg>
