<svg width="32" height="24" viewBox="0 0 32 24" fill="none" xmlns="http://www.w3.org/2000/svg">
<g clip-path="url(#clip0_299_35571)">
<rect width="32" height="24" fill="white"/>
<path fill-rule="evenodd" clip-rule="evenodd" d="M0 0H32V24H0V0Z" fill="#F7FCFF"/>
<path fill-rule="evenodd" clip-rule="evenodd" d="M0 0V8H32V0H0Z" fill="#C51918"/>
<path fill-rule="evenodd" clip-rule="evenodd" d="M0 16V24H32V16H0Z" fill="#5EAA22"/>
<path fill-rule="evenodd" clip-rule="evenodd" d="M0 -2L16.6696 12L0 26V-2Z" fill="#272727"/>
<mask id="path-5-outside-1_299_35571" maskUnits="userSpaceOnUse" x="-2" y="-8.35547" width="36" height="40" fill="black">
<rect fill="white" x="-2" y="-8.35547" width="36" height="40"/>
<path fill-rule="evenodd" clip-rule="evenodd" d="M0 -3.35547L17.4083 9.99948H32V13.9995H17.1694L0 26.811V22.3397L14 11.9995L0 1.53398V-3.35547Z"/>
</mask>
<path fill-rule="evenodd" clip-rule="evenodd" d="M0 -3.35547L17.4083 9.99948H32V13.9995H17.1694L0 26.811V22.3397L14 11.9995L0 1.53398V-3.35547Z" fill="#FFD018"/>
<path d="M17.4083 9.99948L16.1909 11.5863L16.7295 11.9995H17.4083V9.99948ZM0 -3.35547L1.21736 -4.9423L-2 -7.41053V-3.35547H0ZM32 9.99948H34V7.99948H32V9.99948ZM32 13.9995V15.9995H34V13.9995H32ZM17.1694 13.9995V11.9995H16.5054L15.9733 12.3965L17.1694 13.9995ZM0 26.811H-2V30.7988L1.19608 28.4139L0 26.811ZM0 22.3397L-1.18821 20.7309L-2 21.3305V22.3397H0ZM14 11.9995L15.1882 13.6082L17.3533 12.0091L15.1975 10.3976L14 11.9995ZM0 1.53398H-2V2.53596L-1.19747 3.13588L0 1.53398ZM17.4083 9.99948L18.6257 8.41264L1.21736 -4.9423L0 -3.35547L-1.21736 -1.76863L16.1909 11.5863L17.4083 9.99948ZM32 9.99948V7.99948H17.4083V9.99948V11.9995H32V9.99948ZM32 13.9995H34V9.99948H32H30V13.9995H32ZM17.1694 13.9995V15.9995H32V13.9995V11.9995H17.1694V13.9995ZM0 26.811L1.19608 28.4139L18.3655 15.6024L17.1694 13.9995L15.9733 12.3965L-1.19608 25.2081L0 26.811ZM0 22.3397H-2V26.811H0H2V22.3397H0ZM14 11.9995L12.8118 10.3907L-1.18821 20.7309L0 22.3397L1.18821 23.9484L15.1882 13.6082L14 11.9995ZM0 1.53398L-1.19747 3.13588L12.8025 13.6014L14 11.9995L15.1975 10.3976L1.19747 -0.06791L0 1.53398ZM0 -3.35547H-2V1.53398H0H2V-3.35547H0Z" fill="#272727" mask="url(#path-5-outside-1_299_35571)"/>
<path d="M4.87374 16.7672L4.87574 15.1868C6.28407 14.8761 7.21702 14.472 7.67114 13.986C8.78937 12.6079 8.04601 9.37898 5.74864 9.40009C4.61046 9.40009 3.43347 9.94247 3.43347 11.219C3.43347 12.8045 3.75973 13.4822 4.87574 13.4822C5.98479 13.4822 6.3914 13.5415 7.12195 12.5458L7.91473 12.7907C7.13189 13.8577 6.07664 14.7006 4.87374 14.7006C2.8922 14.7006 1.81384 13.2065 1.81384 11.4786C1.81384 9.3455 3.54552 7.85156 5.63347 7.85156C7.19138 7.85156 9.65552 9.75977 9.65552 11.4786C9.65552 13.1975 9.65552 13.986 8.30436 15.1868C7.76013 15.6705 6.41167 16.5343 4.87374 16.7672Z" fill="#FFD018"/>
<path fill-rule="evenodd" clip-rule="evenodd" d="M4.99137 9.87978C5.06763 9.89994 5.11307 9.97831 5.09294 10.0546L4.98063 10.4755C5.07752 10.6017 5.16972 10.722 5.257 10.8368L5.39665 10.5302C5.42927 10.4585 5.5134 10.4265 5.58512 10.4589C5.65696 10.4915 5.68904 10.5765 5.65641 10.6483L5.45329 11.0956C5.50275 11.1613 5.55096 11.2245 5.59684 11.286L5.6818 11.1015C5.71444 11.0297 5.79944 10.9976 5.87126 11.0302C5.94301 11.0628 5.97499 11.1478 5.94255 11.2196L5.79215 11.5487C5.91296 11.7136 6.01838 11.8603 6.10856 11.9901L6.25309 11.6727C6.28575 11.601 6.37074 11.5698 6.44254 11.6024C6.51415 11.6351 6.5462 11.7192 6.51383 11.7909L6.30192 12.2567C6.30008 12.2608 6.29629 12.2637 6.29411 12.2675C6.45205 12.5122 6.52848 12.6647 6.52848 12.7372C6.52833 12.8158 6.46448 12.8795 6.3859 12.8798C6.3071 12.8798 6.24251 12.816 6.24235 12.7372C6.24235 12.7087 6.17722 12.6016 6.05583 12.4208L5.76872 12.5761C5.69936 12.6133 5.61281 12.5876 5.57536 12.5184C5.53805 12.449 5.56353 12.3615 5.63297 12.3241L5.89274 12.1845C5.81083 12.0681 5.715 11.9347 5.60563 11.785L5.19743 12.0048C5.12791 12.0421 5.04139 12.0157 5.00407 11.9462C4.96686 11.8767 4.99225 11.7901 5.06169 11.7528L5.43473 11.5526C5.36755 11.462 5.29787 11.3655 5.22282 11.2655L4.91129 11.4335C4.84179 11.4708 4.75525 11.4444 4.71794 11.3749C4.68078 11.3054 4.70708 11.2188 4.77653 11.1815L5.04801 11.035C4.96855 10.9301 4.88479 10.8213 4.79801 10.7079L4.65544 10.8407C4.59747 10.8942 4.50681 10.8909 4.45329 10.8329C4.39977 10.7749 4.40314 10.6843 4.4611 10.6308L4.62419 10.4794C4.59214 10.4378 4.56042 10.3951 4.52751 10.3524C4.47929 10.29 4.49146 10.2005 4.55387 10.1522C4.61632 10.104 4.70584 10.1152 4.75407 10.1776C4.75662 10.1809 4.75934 10.1841 4.76188 10.1874L4.81657 9.98134C4.83671 9.90505 4.91509 9.85963 4.99137 9.87978Z" fill="#FFD018"/>
<path fill-rule="evenodd" clip-rule="evenodd" d="M5.95235 9.87978C5.8761 9.89994 5.83065 9.97831 5.85079 10.0546L5.96309 10.4755C5.86621 10.6017 5.774 10.722 5.68673 10.8368L5.54708 10.5302C5.51446 10.4585 5.43033 10.4265 5.3586 10.4589C5.28677 10.4915 5.25469 10.5765 5.28731 10.6483L5.49044 11.0956C5.44097 11.1613 5.39276 11.2245 5.34688 11.286L5.26192 11.1015C5.22929 11.0297 5.14429 10.9976 5.07247 11.0302C5.00072 11.0628 4.96874 11.1478 5.00118 11.2196L5.15157 11.5487C5.03076 11.7136 4.92534 11.8603 4.83516 11.9901L4.69063 11.6727C4.65798 11.601 4.57298 11.5698 4.50118 11.6024C4.42957 11.6351 4.39753 11.7192 4.42989 11.7909L4.64181 12.2567C4.64364 12.2608 4.64743 12.2637 4.64962 12.2675C4.49167 12.5122 4.41524 12.6647 4.41524 12.7372C4.4154 12.8158 4.47924 12.8795 4.55782 12.8798C4.63662 12.8798 4.70122 12.816 4.70138 12.7372C4.70138 12.7087 4.76651 12.6016 4.8879 12.4208L5.17501 12.5761C5.24437 12.6133 5.33092 12.5876 5.36837 12.5184C5.40567 12.449 5.3802 12.3615 5.31075 12.3241L5.05099 12.1845C5.13289 12.0681 5.22872 11.9347 5.33809 11.785L5.7463 12.0048C5.81581 12.0421 5.90234 12.0157 5.93966 11.9462C5.97686 11.8767 5.95148 11.7901 5.88204 11.7528L5.50899 11.5526C5.57618 11.462 5.64586 11.3655 5.72091 11.2655L6.03243 11.4335C6.10194 11.4708 6.18848 11.4444 6.22579 11.3749C6.26295 11.3054 6.23664 11.2188 6.1672 11.1815L5.89571 11.035C5.97517 10.9301 6.05894 10.8213 6.14571 10.7079L6.28829 10.8407C6.34626 10.8942 6.43691 10.8909 6.49044 10.8329C6.54396 10.7749 6.54059 10.6843 6.48263 10.6308L6.31954 10.4794C6.35158 10.4378 6.38331 10.3951 6.41622 10.3524C6.46444 10.29 6.45227 10.2005 6.38985 10.1522C6.32741 10.104 6.23788 10.1152 6.18966 10.1776C6.18711 10.1809 6.18439 10.1841 6.18184 10.1874L6.12716 9.98134C6.10701 9.90505 6.02864 9.85963 5.95235 9.87978Z" fill="#FFD018"/>
</g>
<defs>
<clipPath id="clip0_299_35571">
<rect width="32" height="24" fill="white"/>
</clipPath>
</defs>
</svg>
