<svg width="32" height="24" viewBox="0 0 32 24" fill="none" xmlns="http://www.w3.org/2000/svg">
<g clip-path="url(#clip0_299_35579)">
<rect width="32" height="24" fill="white"/>
<rect width="32" height="24" fill="white"/>
<path d="M11.0904 21.2289C10.4245 21.4302 9.46517 21.8428 9.08144 22.0742C8.95729 22.1547 8.96858 22.2453 9.16044 22.5874C9.29587 22.8088 9.43131 23 9.45388 23C9.48774 23 9.86018 22.8491 10.2778 22.6579C10.6954 22.4767 11.2289 22.2377 11.4741 22.195C11.6616 22.1623 11.8328 22.1313 11.9388 22.092C11.9815 22.1845 11.9553 22.133 12.033 22.2781C12.1448 22.4867 12.0752 22.482 12.2686 22.5391C12.4724 22.5993 12.9752 22.356 12.9752 22.356C13.562 22.1748 13.8893 22.1547 15.9998 22.1547C18.1103 22.1547 18.4376 22.1748 19.0245 22.366C19.0245 22.366 19.4968 22.5093 19.5575 22.5266C19.6178 22.5438 19.6497 22.5574 19.7134 22.5438C19.7715 22.5313 19.8321 22.4521 19.8588 22.4042C19.8588 22.4042 19.9886 22.1262 20.022 22.0286C20.1344 22.0768 20.3394 22.1396 20.5369 22.195C20.7739 22.2654 21.3043 22.4767 21.7219 22.6579C22.1395 22.8491 22.5119 23 22.5458 23C22.5684 23 22.7038 22.8088 22.8392 22.5874C23.1101 22.1145 23.1327 22.1547 22.1508 21.7019C20.8416 21.0981 19.5324 20.8264 19.4082 21.1182C19.3857 21.1736 19.3665 21.206 19.3355 21.2778C19.2043 21.2508 18.8609 21.1786 18.5166 21.1283C17.4557 20.9572 14.5439 20.9572 13.483 21.1283C13.1388 21.1786 12.9061 21.2626 12.7116 21.3107C12.6015 21.1143 12.6245 21.1924 12.602 21.137C12.5117 20.9358 11.9142 20.9673 11.0904 21.2289H11.0904Z" fill="#DFDFDF"/>
<path d="M12.0495 8.793C12.0267 9.12092 12.0949 9.35287 12.2731 9.52882C12.3526 9.61281 12.4209 9.71278 12.4209 9.71278C12.4209 9.71278 12.3299 9.81276 12.2541 9.88874C12.076 10.0647 12.004 10.2926 12.004 10.5326C12.004 10.7805 12.076 10.9525 12.2693 11.1764C12.2693 11.1764 12.4324 11.2585 12.4284 11.3604C12.4245 11.4622 12.2541 11.5643 12.2541 11.5643C11.9054 11.9722 11.9168 12.4401 12.2806 12.828L12.436 13H16.006H19.5722L19.7466 12.804C20.0838 12.4241 20.0838 12.0122 19.7503 11.5763C19.7503 11.5763 19.5825 11.4566 19.5798 11.3564C19.5771 11.2561 19.739 11.1564 19.739 11.1564C20.0876 10.7165 20.0801 10.3126 19.72 9.88874C19.5571 9.70078 19.5533 9.66479 19.6821 9.57681C19.8906 9.42885 20.0194 8.92896 19.9247 8.62504C19.7845 8.16915 19.1819 7.86522 18.8143 8.06517C18.746 8.10116 18.6096 8.20114 18.5073 8.28512C18.405 8.37309 18.3102 8.44108 18.2913 8.44108C18.2761 8.44108 18.1852 8.3691 18.0904 8.28112C17.7228 7.9492 17.2801 7.90921 16.9125 8.28512C16.9125 8.28512 16.8601 8.48621 16.7829 8.49307C16.7057 8.49992 16.5972 8.31311 16.5972 8.31311C16.222 7.9412 15.7521 7.95719 15.3693 8.3491C15.3693 8.3491 15.3157 8.51282 15.2291 8.49307C15.1426 8.47332 15.0714 8.28112 15.0714 8.28112C14.8478 8.06517 14.7061 8.06917 14.4484 8.06517C14.3001 8.06276 14.0313 8.09885 13.869 8.2202C13.7067 8.34154 13.7353 8.48691 13.698 8.47707C13.6042 8.45233 13.501 8.30111 13.501 8.30111C13.1371 7.97319 12.8453 7.9172 12.4929 8.11316C12.2162 8.26512 12.0722 8.48907 12.0495 8.793Z" fill="#171796"/>
<path d="M12.2849 14.4919C12.2849 14.4919 12.4301 14.5627 12.4251 14.6533C12.4201 14.744 12.2659 14.8344 12.2659 14.8344C12.1787 14.9328 12.0839 15.0745 12.0536 15.1454C11.9323 15.4485 12.0233 15.8539 12.2621 16.0862C12.4062 16.2318 12.41 16.2909 12.2735 16.4641C12.2128 16.5389 12.1408 16.6451 12.1143 16.7003C11.8299 17.2592 12.2545 17.9599 12.8838 17.9599C13.134 17.9599 13.3236 17.8772 13.4942 17.6883C13.6307 17.5387 13.7027 17.5348 13.824 17.6686C14.0022 17.8733 14.2372 17.9993 14.4343 17.9993C14.6656 17.9993 14.8096 17.9245 15.0447 17.6922C15.0447 17.6922 15.1378 17.5102 15.2229 17.5112C15.3079 17.5121 15.3859 17.6962 15.3859 17.6962C15.7384 18.0898 16.0948 18.1016 16.5687 17.7277C16.5687 17.7277 16.6728 17.5761 16.762 17.5781C16.8512 17.58 16.9288 17.7355 16.9288 17.7355C17.1373 17.9245 17.2927 17.9993 17.4975 17.9993C17.7022 17.9993 17.8538 17.9166 18.0926 17.6726C18.0926 17.6726 18.2159 17.4874 18.2898 17.4757C18.3636 17.4641 18.4414 17.6174 18.4414 17.6174C18.7333 17.8891 18.8925 17.9757 19.1048 17.9757C19.3247 17.9757 19.4801 17.9009 19.7 17.6962C19.9047 17.5033 20.0147 17.2789 19.9881 17.0939C19.9616 16.8931 19.7872 16.5271 19.6583 16.4011C19.6583 16.4011 19.5291 16.3898 19.5484 16.2909C19.5677 16.1919 19.719 16.0901 19.719 16.0901C20.0905 15.6374 20.0943 15.2871 19.7266 14.8383C19.7266 14.8383 19.573 14.7496 19.5749 14.6494C19.5769 14.5491 19.7341 14.4486 19.7341 14.4486C20.0905 14.0117 20.0867 13.6062 19.7266 13.2086L19.5332 13L15.9849 13.0039L12.4365 13.0079L12.2773 13.1929C11.9058 13.622 11.9095 14.0589 12.2849 14.4919Z" fill="#D42E12"/>
<path fill-rule="evenodd" clip-rule="evenodd" d="M17.8209 13.6211C17.9925 13.6213 18.1351 13.7384 18.1647 13.8926L18.1705 13.9521V14.5654L18.9059 14.1758C19.0686 14.0894 19.2715 14.1499 19.359 14.3105C19.4367 14.4535 19.3971 14.6279 19.2731 14.7256L19.2223 14.7588L18.6051 15.085L19.2223 15.4131L19.2731 15.4463C19.3972 15.544 19.4367 15.7183 19.359 15.8613C19.2715 16.0222 19.0687 16.0825 18.9059 15.9961L18.1705 15.6055V16.29C18.1705 16.4725 18.014 16.6209 17.8209 16.6211C17.6491 16.6211 17.5058 16.5039 17.4762 16.3496L17.4703 16.29V15.6885L16.8922 15.9961C16.7294 16.0825 16.5266 16.0222 16.4391 15.8613C16.3614 15.7183 16.4009 15.544 16.525 15.4463L16.5758 15.4131L17.191 15.085L16.5758 14.7588L16.525 14.7256C16.401 14.6279 16.3614 14.4535 16.4391 14.3105C16.5266 14.1499 16.7295 14.0894 16.8922 14.1758L17.4703 14.4824V13.9521C17.4703 13.7695 17.6276 13.6211 17.8209 13.6211Z" fill="#E9D315"/>
<path fill-rule="evenodd" clip-rule="evenodd" d="M14.4218 13.6211C14.5934 13.6213 14.7359 13.7384 14.7655 13.8926L14.7714 13.9521V14.5654L15.5067 14.1758C15.6694 14.0894 15.8723 14.1499 15.9598 14.3105C16.0376 14.4535 15.9979 14.6279 15.8739 14.7256L15.8231 14.7588L15.2059 15.085L15.8231 15.4131L15.8739 15.4463C15.998 15.544 16.0376 15.7183 15.9598 15.8613C15.8724 16.0222 15.6695 16.0825 15.5067 15.9961L14.7714 15.6055V16.29C14.7714 16.4725 14.6148 16.6209 14.4218 16.6211C14.2499 16.6211 14.1067 16.5039 14.077 16.3496L14.0712 16.29V15.6885L13.493 15.9961C13.3303 16.0825 13.1274 16.0222 13.0399 15.8613C12.9622 15.7183 13.0018 15.544 13.1259 15.4463L13.1766 15.4131L13.7919 15.085L13.1766 14.7588L13.1259 14.7256C13.0019 14.6279 12.9622 14.4535 13.0399 14.3105C13.1275 14.1499 13.3304 14.0894 13.493 14.1758L14.0712 14.4824V13.9521C14.0712 13.7695 14.2285 13.6211 14.4218 13.6211Z" fill="#E9D315"/>
<path d="M10.8524 12.8564V12.9043C10.8524 12.9358 10.8534 12.9826 10.8534 13.042C10.8535 13.1608 10.8532 13.3319 10.8534 13.541C10.8537 13.9595 10.8537 14.5308 10.8544 15.1406L10.8612 18.3574C10.8558 18.4824 10.8919 18.5763 10.9628 18.6553C10.9945 18.6906 11.0303 18.7206 11.0634 18.7461C11.1012 18.7753 11.1286 18.7941 11.1678 18.8252C11.2574 18.8962 11.4109 18.9523 11.5878 18.998C11.7723 19.0457 12.0062 19.0883 12.2743 19.1201C12.8074 19.1833 13.4865 19.2056 14.2069 19.1494V19.1504C14.5158 19.1526 14.7415 19.2125 14.9139 19.2959C15.0865 19.3793 15.2134 19.4899 15.3202 19.6055C15.3742 19.6639 15.4227 19.7227 15.4706 19.7812C15.5172 19.8383 15.5658 19.8977 15.6151 19.9492C15.7138 20.0523 15.8402 20.1503 16.0184 20.1504C16.1979 20.1504 16.3226 20.0508 16.4188 19.9463C16.4666 19.8944 16.5132 19.8355 16.5575 19.7783C16.603 19.7196 16.6483 19.6608 16.6991 19.6025C16.7998 19.4871 16.919 19.3766 17.0819 19.2939C17.2443 19.2116 17.4586 19.1527 17.7548 19.1504C18.5728 19.1629 19.2698 19.1429 19.7938 19.0938C20.0558 19.0692 20.2781 19.0372 20.452 18.9971C20.6143 18.9596 20.7589 18.9089 20.8485 18.834L20.8495 18.835V18.834H20.8505L20.8514 18.832C20.8525 18.8311 20.8533 18.83 20.8544 18.8291C20.8556 18.8281 20.8577 18.8275 20.8593 18.8262C20.865 18.8214 20.8732 18.8149 20.8827 18.8066C20.9016 18.7901 20.9275 18.7666 20.955 18.7383C21.0059 18.6858 21.0798 18.5996 21.1132 18.502C21.1442 18.4111 21.1528 18.3286 21.1532 18.2686C21.1534 18.2384 21.1513 18.2126 21.1493 18.1943C21.1486 18.1884 21.148 18.1832 21.1473 18.1787V6.84961H10.8524V12.8564ZM10.8524 12.8564C10.8524 12.8564 10.9167 12.9192 11.0028 12.9219C11.0028 12.8792 11.0028 12.8564 11.0028 12.8564H10.8524Z" stroke="black" stroke-width="0.3"/>
<path d="M14.8687 9.86566C14.6003 10.3654 14.5889 10.5897 14.812 10.9902C14.9859 11.2977 15.19 11.4931 15.4698 11.6181C16.1995 11.9481 17.1333 11.7046 17.5 11.0895C17.7268 10.7114 17.7003 10.0803 17.4508 9.80479L17.3828 9.73111L17.3185 9.94896C17.2278 10.2597 17.137 10.4167 16.9556 10.5833C16.6153 10.894 16.1465 10.9645 15.6626 10.7723C15.2883 10.6217 15.1371 10.4135 14.9972 9.83362L14.9632 9.68945L14.8687 9.86566L14.8687 9.86566Z" fill="white"/>
<path fill-rule="evenodd" clip-rule="evenodd" d="M18.4785 3.5C18.4785 4.36593 17.8551 5 16.9781 5C16.1011 5 15.483 4.36593 15.483 3.5C15.483 2.62934 16.1011 2 16.9781 2C17.8551 2 18.4785 2.62934 18.4785 3.5ZM6.52302 4.95268V2.93218L7.41585 4.95268H7.80679L8.67849 2.93218V4.95268H9.20679V2.04732H8.59396L7.6166 4.28076L6.62868 2.04732H6V4.95268H6.52302ZM10.2264 4.95268L10.5592 4.14827H11.8008L12.1336 4.95268H12.6936L11.4468 2.04732H10.9185L9.6717 4.95268H10.2264ZM11.1774 2.64827L10.7336 3.7224H11.6211L11.1774 2.64827ZM14.2521 4.95268V3.79338L15.4302 2.04732H14.8491L13.9932 3.34858L13.1321 2.04732H12.5351L13.7079 3.79338V4.95268H14.2521ZM16.9781 4.55994C16.4075 4.55994 16.0377 4.11514 16.0377 3.5C16.0377 2.88486 16.4075 2.44006 16.9781 2.44006C17.5487 2.44006 17.9238 2.88486 17.9238 3.5C17.9238 4.11514 17.5487 4.55994 16.9781 4.55994ZM20.2642 2.48265V4.95268H19.7147V2.48265H18.637V2.04732H21.3419V2.48265H20.2642ZM23.286 4.95268V2.48265H24.3638V2.04732H21.6589V2.48265H22.7366V4.95268H23.286ZM27 4.51262V4.95268H24.8815V2.04732H27V2.48265H25.4204V3.24921H26.8521V3.67981H25.4204V4.51262H27Z" fill="#FF2500"/>
<path fill-rule="evenodd" clip-rule="evenodd" d="M26.7765 18.8004C26.7765 18.8004 26.4364 18.1306 27.2963 17.8001C28.1562 17.4695 28.5765 17.9008 28.9553 18.3011C29.3341 18.7014 29.2925 19.9097 29.2925 19.9097L28.3565 21.4066L25.4854 22.0002L24.3414 21.4066L23 18.8004L23.1002 16.2417C23.1002 16.2417 23.2359 15.2615 23.2359 15.0586C23.2359 14.8557 23.8591 13.2832 23.8591 13.2832L24.4492 12.6986L26.1181 11.8108L26.9039 11.4182L27.8797 10.1849L27.7718 9.20299L26.6597 10.6195H25.7177L24.7372 11.0303L24.3414 11.4034L23.8591 11.4182L23.6701 11.0303L24.1966 10.1849L24.9919 9.38417L24.6261 8.70704L25.1676 8.46037L25.0635 8.08712L25.6645 8.46037L26.1181 8.08712L26.2045 7.74385L25.1676 7.18819C25.1676 7.18819 26.1821 6.76251 26.6597 6.80693C27.1373 6.85135 27.5879 7.41331 27.5879 7.41331L28.9553 7.18819C28.9553 7.18819 28.5892 8.08712 28.7075 8.08712C28.8258 8.08712 29.5685 8.08712 29.5685 8.08712L29.2925 9.20299H30.3514L29.5685 10.0626L30.1797 10.3978L29.2498 11.0303L30.1797 11.6559L29.3151 12.2238L29.8022 13.1655L30.5688 12.6986L31 13.2832L30.3514 14.7227L29.2925 15.4739L28.2837 15.7281L27.2963 15.9846L26.9039 16.2417L26.6597 15.2567L24.9919 16.4005L24.1256 18.1939L24.3806 19.8236L24.9919 20.658L26.1181 21.0612L27.5879 20.785L28.3565 19.8498L28.5401 18.8955C28.5401 18.8955 28.0947 18.2473 27.7718 18.3011C27.4488 18.3549 26.7765 18.8004 26.7765 18.8004Z" fill="#DFDFDF" stroke="black" stroke-width="0.3"/>
<path d="M25.0822 12.2254L25.0453 12.6237C26.1996 12.7308 26.9633 12.6731 27.3622 12.4247L27.4421 12.3685L27.1932 12.0554C26.9503 12.2485 26.3171 12.3204 25.319 12.2454L25.0822 12.2254Z" fill="black"/>
<path d="M23.7437 13.3797L23.7068 13.778C24.8611 13.8851 25.6248 13.8274 26.0237 13.579L26.1036 13.5228L25.8547 13.2097C25.6118 13.4028 24.9786 13.4747 23.9805 13.3997L23.7437 13.3797Z" fill="black"/>
<path d="M23.422 14.4559L23.3556 14.8504C24.0356 14.9647 24.4624 14.9122 24.6062 14.6147L24.6362 14.5352L24.2514 14.4257C24.2314 14.4962 24.0156 14.5383 23.5766 14.4794L23.422 14.4559Z" fill="black"/>
<path fill-rule="evenodd" clip-rule="evenodd" d="M25.75 9.5C25.6119 9.5 25.5 9.38807 25.5 9.25C25.5 9.11193 25.6119 9 25.75 9C25.8881 9 26 9.11193 26 9.25C26 9.38807 25.8881 9.5 25.75 9.5Z" fill="black"/>
<path fill-rule="evenodd" clip-rule="evenodd" d="M5.22353 18.8004C5.22353 18.8004 5.56358 18.1306 4.70366 17.8001C3.84375 17.4695 3.42345 17.9008 3.04469 18.3011C2.66592 18.7014 2.70754 19.9097 2.70754 19.9097L3.64348 21.4066L6.51462 22.0002L7.65865 21.4066L9 18.8004L8.89977 16.2417C8.89977 16.2417 8.76409 15.2615 8.76409 15.0586C8.76409 14.8557 8.14093 13.2832 8.14093 13.2832L7.55083 12.6986L5.88193 11.8108L5.09607 11.4182L4.12029 10.1849L4.22825 9.20299L5.3403 10.6195H6.28226L7.26276 11.0303L7.65865 11.4034L8.14093 11.4182L8.32989 11.0303L7.80336 10.1849L7.00806 9.38417L7.37387 8.70704L6.83237 8.46037L6.93655 8.08712L6.33551 8.46037L5.88193 8.08712L5.79552 7.74385L6.83237 7.18819C6.83237 7.18819 5.81789 6.76251 5.3403 6.80693C4.86272 6.85135 4.41214 7.41331 4.41214 7.41331L3.04469 7.18819C3.04469 7.18819 3.41078 8.08712 3.29247 8.08712C3.17416 8.08712 2.43146 8.08712 2.43146 8.08712L2.70754 9.20299H1.64862L2.43146 10.0626L1.82034 10.3978L2.75017 11.0303L1.82034 11.6559L2.68488 12.2238L2.19779 13.1655L1.43118 12.6986L1 13.2832L1.64862 14.7227L2.70754 15.4739L3.71632 15.7281L4.70366 15.9846L5.09607 16.2417L5.3403 15.2567L7.00806 16.4005L7.87441 18.1939L7.61938 19.8236L7.00806 20.658L5.88193 21.0612L4.41214 20.785L3.64348 19.8498L3.45994 18.8955C3.45994 18.8955 3.90528 18.2473 4.22825 18.3011C4.55122 18.3549 5.22353 18.8004 5.22353 18.8004Z" fill="#DFDFDF" stroke="black" stroke-width="0.3"/>
<path d="M6.91778 12.2254L6.95472 12.6237C5.80044 12.7308 5.03673 12.6731 4.63779 12.4247L4.55787 12.3685L4.8068 12.0554C5.04967 12.2485 5.68287 12.3204 6.68098 12.2454L6.91778 12.2254Z" fill="black"/>
<path d="M8.25629 13.3797L8.29322 13.778C7.13894 13.8851 6.37523 13.8274 5.97629 13.579L5.89637 13.5228L6.1453 13.2097C6.38817 13.4028 7.02137 13.4747 8.01948 13.3997L8.25629 13.3797Z" fill="black"/>
<path d="M8.57804 14.4559L8.64436 14.8504C7.96436 14.9647 7.5376 14.9122 7.39385 14.6147L7.36382 14.5352L7.74856 14.4257C7.76861 14.4962 7.98436 14.5383 8.42339 14.4794L8.57804 14.4559Z" fill="black"/>
<path fill-rule="evenodd" clip-rule="evenodd" d="M6.25 9.5C6.38807 9.5 6.5 9.38807 6.5 9.25C6.5 9.11193 6.38807 9 6.25 9C6.11193 9 6 9.11193 6 9.25C6 9.38807 6.11193 9.5 6.25 9.5Z" fill="black"/>
</g>
<defs>
<clipPath id="clip0_299_35579">
<rect width="32" height="24" fill="white"/>
</clipPath>
</defs>
</svg>
