<svg width="32" height="24" viewBox="0 0 32 24" fill="none" xmlns="http://www.w3.org/2000/svg">
<g clip-path="url(#clip0_299_35585)">
<rect width="32" height="24" fill="white"/>
<path fill-rule="evenodd" clip-rule="evenodd" d="M0 0V24H32V0H0Z" fill="#F7FCFF"/>
<mask id="mask0_299_35585" style="mask-type:luminance" maskUnits="userSpaceOnUse" x="0" y="0" width="32" height="24">
<path fill-rule="evenodd" clip-rule="evenodd" d="M0 0V24H32V0H0Z" fill="white"/>
</mask>
<g mask="url(#mask0_299_35585)">
<path fill-rule="evenodd" clip-rule="evenodd" d="M0 2V22H32V2H0Z" fill="#FECA00"/>
<path d="M33.75 8.25V15.75H-1.75V8.25H33.75Z" fill="#272727" stroke="#E31D1C" stroke-width="3.5"/>
<path d="M32 20V24H0V20H32ZM32 0V4H0V0H32Z" fill="#5EAA22"/>
</g>
<path d="M0.59668 -0.802734L16.9287 11.3496L18.0205 12.1621L16.9189 12.9609L0.586914 24.8096L-1 25.9609V-1.99023L0.59668 -0.802734Z" fill="#F7FCFF" stroke="#272727" stroke-width="2"/>
<mask id="mask1_299_35585" style="mask-type:luminance" maskUnits="userSpaceOnUse" x="-2" y="-4" width="22" height="32">
<path d="M0.59668 -0.802734L16.9287 11.3496L18.0205 12.1621L16.9189 12.9609L0.586914 24.8096L-1 25.9609V-1.99023L0.59668 -0.802734Z" fill="white" stroke="white" stroke-width="2"/>
</mask>
<g mask="url(#mask1_299_35585)">
<path fill-rule="evenodd" clip-rule="evenodd" d="M7.47845 14.279L3.69951 17.3295L5.43289 13.2529L2.45447 10.3846H5.97007L7.41266 6.92578L8.94484 10.3846H12.4545L9.31872 13.2529L10.8881 17.3295L7.47845 14.279Z" fill="#E31D1C"/>
<path fill-rule="evenodd" clip-rule="evenodd" d="M5.01759 8.42224C5.01759 8.42224 4.96273 8.28998 5.28655 8.17304C5.61038 8.0561 5.70915 7.80832 5.963 7.99068C6.21685 8.17304 6.37565 7.8064 6.44849 8.33227C6.52132 8.85813 6.72207 9.68735 6.72207 9.68735L10.0096 12.158H9.39196C9.39196 12.158 8.43011 13.5712 8.58892 14.8111C8.58892 14.8111 7.92528 14.7102 7.02577 14.7102C6.12626 14.7102 5.5371 14.9258 5.5371 14.9258L5.01759 13.0021C5.01759 13.0021 5.20569 12.6789 5.28655 12.4185C5.36741 12.158 5.70223 12.1099 5.70223 11.9027C5.70223 11.6955 5.37198 11.5219 5.5371 10.9855C5.70223 10.4492 5.70223 8.84479 5.70223 8.84479C5.70223 8.84479 5.18035 8.6153 5.28655 8.6153C5.39275 8.6153 5.63484 8.42224 5.46069 8.42224C5.28655 8.42224 5.01759 8.42224 5.01759 8.42224Z" fill="#FECA00"/>
<path d="M5.82703 8.76367L5.75183 8.73047L5.75085 8.72949C5.74993 8.72909 5.74856 8.72825 5.74695 8.72754C5.74331 8.72593 5.73799 8.72368 5.73132 8.7207C5.71749 8.71453 5.69701 8.70592 5.67371 8.69531C5.63442 8.67743 5.58553 8.65423 5.53699 8.63086C5.54583 8.62373 5.55535 8.61777 5.56335 8.61035C5.58079 8.59417 5.59942 8.57479 5.61414 8.55273C5.62701 8.53345 5.64768 8.49716 5.64734 8.45117C5.64679 8.39194 5.6121 8.3449 5.56628 8.32031C5.52972 8.3008 5.49025 8.29688 5.46082 8.29688H5.31531C5.31984 8.29517 5.32421 8.29274 5.32898 8.29102C5.42138 8.25765 5.49672 8.21508 5.55945 8.17578C5.62823 8.13268 5.66625 8.10437 5.71179 8.0791C5.75161 8.05701 5.77522 8.05067 5.79382 8.05078C5.81099 8.05098 5.84117 8.05636 5.8905 8.0918C6.0588 8.21263 6.23529 8.1614 6.27527 8.15723C6.2869 8.17643 6.30813 8.22724 6.32507 8.34961C6.36218 8.61743 6.43074 8.95998 6.49011 9.2334C6.51991 9.37063 6.54818 9.49173 6.56824 9.57812C6.57823 9.62116 6.58602 9.65587 6.59167 9.67969C6.5945 9.69159 6.59701 9.70076 6.59851 9.70703C6.59919 9.70988 6.5991 9.71226 6.59949 9.71387L6.60046 9.71582V9.7168L6.61121 9.76074L6.64734 9.78711L9.63562 12.0332H9.32605L9.28894 12.0879H9.28796V12.0889C9.28741 12.0897 9.28603 12.0913 9.28503 12.0928C9.28307 12.0957 9.28073 12.1001 9.27722 12.1055C9.26984 12.1167 9.2584 12.1331 9.245 12.1543C9.2182 12.1966 9.18035 12.2585 9.13562 12.3359C9.04618 12.4909 8.92881 12.7105 8.81628 12.9697C8.61087 13.443 8.41844 14.0626 8.453 14.667C8.37797 14.658 8.27758 14.6468 8.15613 14.6357C7.87498 14.6103 7.48034 14.585 7.02625 14.585C6.56669 14.585 6.18545 14.64 5.91882 14.6953C5.79482 14.721 5.69528 14.7472 5.6239 14.7676L5.15125 13.0186C5.15319 13.0151 5.15596 13.0117 5.15808 13.0078C5.17753 12.9724 5.20394 12.9225 5.23328 12.8643C5.29135 12.749 5.36259 12.5953 5.40613 12.4551C5.43282 12.3697 5.50045 12.3146 5.59949 12.2402C5.64384 12.2069 5.70004 12.1658 5.74304 12.1162C5.78924 12.0629 5.82703 11.9924 5.82703 11.9023C5.82692 11.8184 5.79339 11.746 5.76355 11.6895C5.72923 11.6244 5.70114 11.5803 5.67175 11.5156C5.62118 11.4042 5.58359 11.2583 5.65613 11.0225C5.70127 10.8758 5.73339 10.6644 5.75671 10.4375C5.78027 10.2084 5.79614 9.95501 5.80652 9.71973C5.8169 9.48418 5.82248 9.26504 5.82507 9.10547C5.82636 9.02604 5.8267 8.96117 5.82703 8.91602V8.76367Z" stroke="#0A0A0A" stroke-width="0.25"/>
</g>
</g>
<defs>
<clipPath id="clip0_299_35585">
<rect width="32" height="24" fill="white"/>
</clipPath>
</defs>
</svg>
