<svg width="24" height="24" viewBox="0 0 24 24" fill="none" xmlns="http://www.w3.org/2000/svg">
<path d="M22 7.17586L20.59 5.76586L17.74 8.97586C15.68 6.65586 12.83 5.25586 9.61 5.25586C6.72 5.25586 4.07 6.41586 2 8.25586L3.42 9.67586C5.12 8.18586 7.27 7.25586 9.61 7.25586C12.35 7.25586 14.7 8.51586 16.38 10.4959L13.5 13.7359L9.5 9.73586L2 17.2459L3.5 18.7459L9.5 12.7359L13.5 16.7359L17.55 12.1859C18.3 13.5359 18.8 15.0859 18.99 16.7359H21C20.78 14.4359 20.05 12.3459 18.96 10.5959L22 7.17586Z" fill="black"/>
</svg>
