<svg width="24" height="24" viewBox="0 0 24 24" fill="none" xmlns="http://www.w3.org/2000/svg">
<path d="M7.24 10.2441C6.98 9.76414 6.85 9.21414 6.85 8.57414C6.85 7.96414 6.98 7.41414 7.25 6.90414C7.51 6.40414 7.88 5.97414 8.36 5.61414C8.84 5.26414 9.41 4.98414 10.06 4.78414C10.72 4.59414 11.45 4.49414 12.24 4.49414C13.05 4.49414 13.78 4.60414 14.45 4.83414C15.11 5.05414 15.68 5.37414 16.14 5.77414C16.61 6.17414 16.97 6.65414 17.22 7.20414C17.47 7.75414 17.6 8.35414 17.6 9.01414H14.59C14.59 8.70414 14.54 8.42414 14.44 8.16414C14.35 7.89414 14.2 7.67414 14 7.48414C13.8 7.29414 13.55 7.15414 13.25 7.04414C12.95 6.94414 12.59 6.88414 12.19 6.88414C11.8 6.88414 11.45 6.92414 11.16 7.01414C10.87 7.10414 10.63 7.22414 10.44 7.37414C10.25 7.53414 10.1 7.71414 10 7.92414C9.9 8.13414 9.85 8.35414 9.85 8.58414C9.85 9.06414 10.1 9.46414 10.59 9.79414C10.97 10.0441 11.36 10.2741 12 10.4941H7.39C7.34 10.4141 7.28 10.3241 7.24 10.2441ZM21 11.4941H3V13.4941H12.62C12.8 13.5641 13.02 13.6341 13.17 13.6941C13.54 13.8641 13.83 14.0341 14.04 14.2041C14.25 14.3741 14.39 14.5641 14.47 14.7741C14.54 14.9741 14.58 15.2041 14.58 15.4641C14.58 15.6941 14.53 15.9141 14.44 16.1241C14.35 16.3241 14.21 16.5041 14.02 16.6541C13.83 16.8041 13.6 16.9141 13.31 17.0041C13.02 17.0841 12.68 17.1341 12.3 17.1341C11.87 17.1341 11.47 17.0941 11.12 17.0041C10.77 16.9141 10.46 16.7741 10.21 16.5841C9.96 16.3941 9.76 16.1441 9.62 15.8341C9.48 15.5241 9.37 15.0741 9.37 14.6241H6.4C6.4 15.1741 6.48 15.7541 6.64 16.2041C6.8 16.6541 7.01 17.0541 7.29 17.4141C7.57 17.7641 7.89 18.0741 8.27 18.3341C8.64 18.5941 9.05 18.8141 9.49 18.9841C9.93 19.1541 10.39 19.2841 10.87 19.3741C11.35 19.4541 11.83 19.5041 12.31 19.5041C13.11 19.5041 13.84 19.4141 14.49 19.2241C15.14 19.0341 15.7 18.7741 16.16 18.4341C16.62 18.0941 16.98 17.6641 17.23 17.1641C17.48 16.6641 17.61 16.0941 17.61 15.4541C17.61 14.8541 17.51 14.3141 17.3 13.8441C17.25 13.7341 17.19 13.6141 17.13 13.5141H21V11.4941Z" fill="black"/>
</svg>
