<svg width="504" height="144" viewBox="0 0 504 144" fill="none" xmlns="http://www.w3.org/2000/svg">
<rect width="504" height="144" fill="white"/>
<path d="M25.4148 36H24.3068L27.5114 27.2727H28.6023L31.8068 36H30.6989L28.0909 28.6534H28.0227L25.4148 36ZM25.8239 32.5909H30.2898V33.5284H25.8239V32.5909ZM34.0355 27.2727V36H33.0298V27.2727H34.0355ZM38.6218 36.1364C37.9911 36.1364 37.4471 35.9972 36.9897 35.7188C36.5352 35.4375 36.1843 35.0455 35.9371 34.5426C35.6928 34.0369 35.5707 33.4489 35.5707 32.7784C35.5707 32.108 35.6928 31.517 35.9371 31.0057C36.1843 30.4915 36.5281 30.0909 36.9684 29.804C37.4116 29.5142 37.9286 29.3693 38.5195 29.3693C38.8604 29.3693 39.1971 29.4261 39.5295 29.5398C39.8619 29.6534 40.1644 29.8381 40.4371 30.0938C40.7099 30.3466 40.9272 30.6818 41.0891 31.0994C41.2511 31.517 41.332 32.0312 41.332 32.642V33.0682H36.2866V32.1989H40.3093C40.3093 31.8295 40.2354 31.5 40.0877 31.2102C39.9428 30.9205 39.7354 30.6918 39.4656 30.5241C39.1985 30.3565 38.8832 30.2727 38.5195 30.2727C38.119 30.2727 37.7724 30.3722 37.4798 30.571C37.19 30.767 36.967 31.0227 36.8107 31.3381C36.6545 31.6534 36.5763 31.9915 36.5763 32.3523V32.9318C36.5763 33.4261 36.6616 33.8452 36.832 34.1889C37.0053 34.5298 37.2454 34.7898 37.5522 34.9688C37.859 35.1449 38.2156 35.233 38.6218 35.233C38.886 35.233 39.1246 35.196 39.3377 35.1222C39.5536 35.0455 39.7397 34.9318 39.896 34.7812C40.0522 34.6278 40.1729 34.4375 40.2582 34.2102L41.2298 34.483C41.1275 34.8125 40.9556 35.1023 40.7141 35.3523C40.4727 35.5994 40.1744 35.7926 39.8192 35.9318C39.4641 36.0682 39.065 36.1364 38.6218 36.1364ZM42.8619 36V29.4545H43.8335V30.4432H43.9016C44.021 30.1193 44.2369 29.8565 44.5494 29.6548C44.8619 29.4531 45.2141 29.3523 45.6062 29.3523C45.68 29.3523 45.7724 29.3537 45.8832 29.3565C45.994 29.3594 46.0778 29.3636 46.1346 29.3693V30.392C46.1005 30.3835 46.0224 30.3707 45.9002 30.3537C45.7809 30.3338 45.6545 30.3239 45.521 30.3239C45.2028 30.3239 44.9187 30.3906 44.6687 30.5241C44.4215 30.6548 44.2255 30.8366 44.0806 31.0696C43.9386 31.2997 43.8675 31.5625 43.8675 31.858V36H42.8619ZM50.5835 29.4545V30.3068H47.1914V29.4545H50.5835ZM48.18 27.8864H49.1857V34.125C49.1857 34.4091 49.2269 34.6222 49.3093 34.7642C49.3945 34.9034 49.5025 34.9972 49.6332 35.0455C49.7667 35.0909 49.9073 35.1136 50.055 35.1136C50.1658 35.1136 50.2567 35.108 50.3278 35.0966C50.3988 35.0824 50.4556 35.071 50.4982 35.0625L50.7028 35.9659C50.6346 35.9915 50.5394 36.017 50.4173 36.0426C50.2951 36.071 50.1403 36.0852 49.9528 36.0852C49.6687 36.0852 49.3903 36.0241 49.1175 35.902C48.8477 35.7798 48.6232 35.5938 48.4442 35.3438C48.2681 35.0938 48.18 34.7784 48.18 34.3977V27.8864Z" fill="black"/>
<path d="M34.01 92.76C34.01 93.86 34.9 94.75 36 94.75C37.1 94.75 37.99 93.86 37.99 92.76H34.01ZM36 77.75C38.76 77.75 41 79.99 41 82.75V89.75H31V82.75C31 79.99 33.24 77.75 36 77.75ZM36 73.25C35.17 73.25 34.5 73.92 34.5 74.75V75.92C31.36 76.6 29 79.4 29 82.75V88.75L27 90.75V91.75H45V90.75L43 88.75V82.75C43 79.4 40.64 76.6 37.5 75.92V74.75C37.5 73.92 36.83 73.25 36 73.25ZM37 79.75H35V82.75H32V84.75H35V87.75H37V84.75H40V82.75H37V79.75Z" fill="black"/>
<path d="M87 74H83.5L82.5 73H77.5L76.5 74H73V76H87V74Z" fill="black"/>
<path d="M88 81C87.3 81 86.63 81.1 86 81.29V77H74V89C74 90.1 74.9 91 76 91H81.68C82.8 93.36 85.21 95 88 95C91.87 95 95 91.87 95 88C95 84.13 91.87 81 88 81ZM81 88C81 88.34 81.03 88.67 81.08 89H76V79H84V82.26C82.19 83.53 81 85.62 81 88ZM88 93C85.24 93 83 90.76 83 88C83 85.24 85.24 83 88 83C90.76 83 93 85.24 93 88C93 90.76 90.76 93 88 93Z" fill="black"/>
<path d="M88.5 84H87V89L90.6 91.1L91.4 89.9L88.5 88.2V84Z" fill="black"/>
<path d="M132 74C126.48 74 122 78.48 122 84C122 89.52 126.48 94 132 94C137.52 94 142 89.52 142 84C142 78.48 137.52 74 132 74ZM133 89H131V87H133V89ZM133 85H131V79H133V85Z" fill="black"/>
<path d="M179 87H181V89H179V87ZM179 79H181V85H179V79ZM179.99 74C174.47 74 170 78.48 170 84C170 89.52 174.47 94 179.99 94C185.52 94 190 89.52 190 84C190 78.48 185.52 74 179.99 74ZM180 92C175.58 92 172 88.42 172 84C172 79.58 175.58 76 180 76C184.42 76 188 79.58 188 84C188 88.42 184.42 92 180 92Z" fill="black"/>
<path d="M226.01 92.76C226.01 93.86 226.9 94.75 228 94.75C229.1 94.75 229.99 93.86 229.99 92.76H226.01ZM228 77.75C230.76 77.75 233 79.99 233 82.75V89.75H223V82.75C223 79.99 225.24 77.75 228 77.75ZM228 73.25C227.17 73.25 226.5 73.92 226.5 74.75V75.92C223.36 76.6 221 79.4 221 82.75V88.75L219 90.75V91.75H237V90.75L235 88.75V82.75C235 79.4 232.64 76.6 229.5 75.92V74.75C229.5 73.92 228.83 73.25 228 73.25ZM227 79.75H229V83.75H227V79.75ZM227 85.75H229V87.75H227V85.75Z" fill="black"/>
<path d="M265 93.5H287L276 74.5L265 93.5ZM277 90.5H275V88.5H277V90.5ZM277 86.5H275V82.5H277V86.5Z" fill="black"/>
<path d="M324 78.49L331.53 91.5H316.47L324 78.49ZM324 74.5L313 93.5H335L324 74.5ZM325 88.5H323V90.5H325V88.5ZM325 82.5H323V86.5H325V82.5Z" fill="black"/>
</svg>
