<svg width="24" height="24" viewBox="0 0 24 24" fill="none" xmlns="http://www.w3.org/2000/svg">
<path d="M20.1486 14.42C20.3786 13.65 20.4986 12.84 20.4986 12C20.4986 11.16 20.3786 10.35 20.1486 9.58C20.9286 8.98 21.1686 7.88 20.6586 7C20.1486 6.12 19.0786 5.77 18.1686 6.15C17.0586 4.98 15.6086 4.12 13.9886 3.73C13.8486 2.75 13.0086 2 11.9986 2C10.9886 2 10.1486 2.75 10.0186 3.73C8.38859 4.12 6.94859 4.98 5.82859 6.15C4.91859 5.77 3.84859 6.12 3.33859 7C2.82859 7.88 3.06859 8.98 3.84859 9.58C3.61859 10.35 3.49859 11.16 3.49859 12C3.49859 12.84 3.61859 13.65 3.84859 14.42C3.06859 15.02 2.82859 16.12 3.33859 17C3.84859 17.88 4.91859 18.23 5.82859 17.85C6.22859 18.27 6.65859 18.64 7.12859 18.97L5.77859 22H7.65859L8.63859 19.81C9.07859 20 9.53859 20.15 10.0186 20.27C10.1486 21.25 10.9886 22 11.9986 22C13.0086 22 13.8486 21.25 13.9786 20.27C14.4386 20.16 14.8886 20.01 15.3186 19.83L16.2986 22H18.1786L16.8386 19C17.3186 18.66 17.7686 18.28 18.1786 17.85C19.0886 18.23 20.1686 17.88 20.6686 17C21.1686 16.12 20.9286 15.02 20.1486 14.42ZM13.5586 18.75C13.1886 18.29 12.6286 18 11.9986 18C11.3686 18 10.7986 18.29 10.4286 18.75C10.0286 18.66 9.63859 18.54 9.26859 18.38L10.6986 15.19C11.0986 15.35 11.5386 15.44 11.9986 15.44C12.4386 15.44 12.8686 15.36 13.2586 15.21L14.6786 18.39C14.3186 18.54 13.9486 18.66 13.5586 18.75ZM10.4786 12.02C10.4786 11.19 11.1486 10.52 11.9786 10.52C12.8086 10.52 13.4786 11.19 13.4786 12.02C13.4786 12.85 12.8086 13.52 11.9786 13.52C11.1486 13.52 10.4786 12.85 10.4786 12.02ZM18.7086 14.01C18.0986 14.08 17.5286 14.42 17.1886 15C16.8686 15.56 16.8486 16.2 17.0686 16.75C16.7886 17.04 16.4886 17.3 16.1686 17.54L14.6686 14.19C15.1586 13.6 15.4486 12.85 15.4486 12.03C15.4486 10.14 13.8986 8.62 11.9886 8.62C10.0786 8.62 8.52859 10.15 8.52859 12.03C8.52859 12.83 8.80859 13.57 9.27859 14.16L7.75859 17.55C7.44859 17.32 7.15859 17.07 6.88859 16.79C7.14859 16.23 7.12859 15.57 6.79859 15C6.45859 14.41 5.86859 14.06 5.23859 14.01C5.01859 13.33 4.90859 12.61 4.90859 11.86C4.90859 11.22 4.99859 10.6 5.15859 10.01C5.81859 9.98 6.45859 9.63 6.80859 9.01C7.17859 8.38 7.15859 7.63 6.81859 7.03C7.73859 6.05 8.92859 5.34 10.2686 5C10.6086 5.59 11.2586 6 11.9986 6C12.7386 6 13.3886 5.6 13.7286 5C15.0686 5.34 16.2586 6.07 17.1686 7.05C16.8486 7.64 16.8386 8.38 17.1986 9C17.5486 9.6 18.1586 9.95 18.7986 10C18.9586 10.59 19.0486 11.21 19.0486 11.86C19.0486 12.61 18.9286 13.33 18.7086 14.01Z" fill="black"/>
</svg>
