<svg width="24" height="24" viewBox="0 0 24 24" fill="none" xmlns="http://www.w3.org/2000/svg">
<path d="M20.4951 10.94C20.6251 10.62 20.5951 10.71 20.6451 10.55C20.9451 9.34 20.3051 8.08 19.1451 7.62L17.1351 6.82C16.6751 6.64 16.1851 6.61 15.7251 6.7C15.6151 6.37 15.4351 6.07 15.2051 5.81C14.7251 5.29 14.0551 5 13.3551 5H10.6451C9.93512 5 9.26512 5.29 8.79512 5.81C8.55512 6.07 8.37512 6.37 8.26512 6.69C7.80512 6.6 7.31512 6.63 6.85512 6.81L4.84512 7.61C3.68512 8.07 3.04512 9.33 3.34512 10.54L3.49512 10.92C1.09512 15.55 0.995117 15.55 0.995117 16.38C0.995117 17.29 1.45512 18.12 2.23512 18.6C3.65512 19.48 4.72512 18.74 6.23512 17.99H17.7651C19.2851 18.75 19.6251 19 20.3951 19C21.3951 19 23.0051 18.23 23.0051 16.39C22.9951 15.54 22.8751 15.51 20.4951 10.94ZM20.1151 16.93L18.4351 16.09L19.5151 13.39L20.9251 16.1C21.2051 16.63 20.6351 17.19 20.1151 16.93ZM15.0851 15.99L15.7051 9.09C15.7351 8.76 16.0751 8.55 16.3851 8.67L18.3951 9.47C18.6151 9.56 18.7351 9.78 18.7051 10.01L16.3051 15.99H15.0851ZM7.67512 15.99L5.27512 10.01C5.24512 9.78 5.36512 9.56 5.58512 9.47L7.59512 8.67C7.90512 8.55 8.24512 8.75 8.27512 9.09L8.89512 15.99H7.67512ZM3.06512 16.1L4.47512 13.38L5.55512 16.09L3.87512 16.93C3.35512 17.19 2.78512 16.63 3.06512 16.1ZM10.1451 7.54C10.1151 7.23 10.3751 7 10.6451 7H13.3551C13.6251 7 13.8851 7.23 13.8551 7.54L13.0851 15.99H10.9151L10.1451 7.54Z" fill="black"/>
</svg>
