<svg width="30" height="12" viewBox="0 0 30 12" fill="none" xmlns="http://www.w3.org/2000/svg">
<path d="M-6.65188e-05 -0.000710487H1.2613L4.22721 7.24361H4.32948L7.29539 -0.000710487H8.55675V8.72656H7.56812V2.09588H7.48289L4.75562 8.72656H3.80107L1.0738 2.09588H0.98857V8.72656H-6.65188e-05V-0.000710487ZM12.4655 8.87997C12.0507 8.87997 11.6743 8.80185 11.3362 8.6456C10.9982 8.48651 10.7297 8.25781 10.5308 7.95952C10.332 7.65838 10.2325 7.29474 10.2325 6.86861C10.2325 6.49361 10.3064 6.18963 10.4541 5.95668C10.6019 5.72088 10.7993 5.53622 11.0465 5.4027C11.2936 5.26918 11.5663 5.16974 11.8646 5.1044C12.1658 5.03622 12.4683 4.98224 12.7723 4.94247C13.17 4.89134 13.4925 4.85298 13.7396 4.82741C13.9896 4.79901 14.1715 4.75213 14.2851 4.68679C14.4016 4.62145 14.4598 4.50781 14.4598 4.34588V4.31179C14.4598 3.89134 14.3447 3.56463 14.1146 3.33168C13.8874 3.09872 13.5422 2.98224 13.0791 2.98224C12.599 2.98224 12.2226 3.08736 11.9499 3.29759C11.6771 3.50781 11.4854 3.73224 11.3746 3.97088L10.42 3.62997C10.5905 3.23224 10.8178 2.92259 11.1019 2.70099C11.3888 2.47656 11.7013 2.32031 12.0394 2.23224C12.3803 2.14134 12.7155 2.09588 13.045 2.09588C13.2553 2.09588 13.4967 2.12145 13.7695 2.17258C14.045 2.22088 14.3107 2.32173 14.5663 2.47514C14.8249 2.62855 15.0394 2.86009 15.2098 3.16974C15.3803 3.4794 15.4655 3.89418 15.4655 4.41406V8.72656H14.4598V7.8402H14.4087C14.3405 7.98224 14.2269 8.13423 14.0678 8.29616C13.9087 8.4581 13.697 8.59588 13.4328 8.70952C13.1686 8.82315 12.8462 8.87997 12.4655 8.87997ZM12.6189 7.97656C13.0166 7.97656 13.3519 7.89844 13.6246 7.74219C13.9001 7.58594 14.1075 7.38423 14.2467 7.13707C14.3888 6.88991 14.4598 6.62997 14.4598 6.35724V5.43679C14.4172 5.48793 14.3234 5.5348 14.1786 5.57741C14.0365 5.61719 13.8717 5.6527 13.6842 5.68395C13.4996 5.71236 13.3192 5.73793 13.143 5.76065C12.9697 5.78054 12.8291 5.79759 12.7212 5.81179C12.4598 5.84588 12.2155 5.90128 11.9882 5.97798C11.7638 6.05185 11.582 6.16406 11.4428 6.31463C11.3064 6.46236 11.2382 6.66406 11.2382 6.91974C11.2382 7.26918 11.3675 7.53338 11.626 7.71236C11.8874 7.88849 12.2183 7.97656 12.6189 7.97656ZM17.3011 11.1811V2.18111H18.2727V3.22088H18.392C18.4658 3.10724 18.5681 2.96236 18.6988 2.78622C18.8323 2.60724 19.0227 2.44815 19.2698 2.30895C19.5198 2.1669 19.8579 2.09588 20.284 2.09588C20.8352 2.09588 21.321 2.23366 21.7414 2.50923C22.1619 2.7848 22.49 3.17543 22.7258 3.68111C22.9616 4.18679 23.0795 4.78338 23.0795 5.47088C23.0795 6.16406 22.9616 6.76491 22.7258 7.27344C22.49 7.77912 22.1633 8.17116 21.7457 8.44957C21.3281 8.72514 20.8465 8.86293 20.3011 8.86293C19.8806 8.86293 19.544 8.79332 19.2911 8.65412C19.0383 8.51207 18.8437 8.35156 18.7073 8.17259C18.571 7.99077 18.4658 7.8402 18.392 7.72088H18.3068V11.1811H17.3011ZM18.2897 5.45384C18.2897 5.94815 18.3621 6.38423 18.507 6.76207C18.6519 7.13707 18.8636 7.43111 19.142 7.64418C19.4204 7.8544 19.7613 7.95952 20.1647 7.95952C20.5852 7.95952 20.936 7.84872 21.2173 7.62713C21.5014 7.4027 21.7144 7.10156 21.8565 6.72372C22.0014 6.34304 22.0738 5.91974 22.0738 5.45384C22.0738 4.99361 22.0028 4.57884 21.8607 4.20952C21.7215 3.83736 21.5099 3.54332 21.2258 3.32741C20.9445 3.10866 20.5908 2.99929 20.1647 2.99929C19.7556 2.99929 19.4119 3.10298 19.1335 3.31037C18.855 3.51491 18.6448 3.80185 18.5028 4.17116C18.3607 4.53764 18.2897 4.9652 18.2897 5.45384ZM29.2499 3.64702L28.3465 3.9027C28.2897 3.75213 28.2059 3.60582 28.0951 3.46378C27.9871 3.31889 27.8394 3.19957 27.6519 3.10582C27.4644 3.01207 27.2244 2.9652 26.9318 2.9652C26.5312 2.9652 26.1974 3.05753 25.9303 3.24219C25.6661 3.42401 25.534 3.65554 25.534 3.93679C25.534 4.18679 25.6249 4.38423 25.8068 4.52912C25.9886 4.67401 26.2727 4.79474 26.659 4.89134L27.6306 5.12997C28.2158 5.27202 28.6519 5.48935 28.9389 5.78196C29.2258 6.07173 29.3693 6.44531 29.3693 6.9027C29.3693 7.2777 29.2613 7.61293 29.0454 7.90838C28.8323 8.20384 28.534 8.43679 28.1505 8.60724C27.767 8.7777 27.321 8.86293 26.8124 8.86293C26.1448 8.86293 25.5923 8.71804 25.1548 8.42827C24.7173 8.13849 24.4403 7.7152 24.3238 7.15838L25.2783 6.91974C25.3693 7.27202 25.5411 7.53622 25.794 7.71236C26.0496 7.88849 26.3835 7.97656 26.7954 7.97656C27.2641 7.97656 27.6363 7.87713 27.9119 7.67827C28.1903 7.47656 28.3295 7.23509 28.3295 6.95384C28.3295 6.72656 28.2499 6.53622 28.0908 6.38281C27.9318 6.22656 27.6874 6.11009 27.3579 6.03338L26.267 5.7777C25.6675 5.63565 25.2272 5.41548 24.946 5.11719C24.6675 4.81605 24.5283 4.43963 24.5283 3.98793C24.5283 3.61861 24.632 3.2919 24.8394 3.00781C25.0496 2.72372 25.3352 2.50071 25.696 2.33878C26.0596 2.17685 26.4715 2.09588 26.9318 2.09588C27.5795 2.09588 28.088 2.23793 28.4573 2.52202C28.8295 2.80611 29.0937 3.18111 29.2499 3.64702Z" fill="black"/>
</svg>
