<svg width="24" height="24" viewBox="0 0 24 24" fill="none" xmlns="http://www.w3.org/2000/svg">
<path d="M13.0249 9.79078L9.9749 7.50078V16.5008L13.0249 14.2108L15.9749 12.0008L13.0249 9.79078ZM13.0249 9.79078L9.9749 7.50078V16.5008L13.0249 14.2108L15.9749 12.0008L13.0249 9.79078ZM13.0249 9.79078L9.9749 7.50078V16.5008L13.0249 14.2108L15.9749 12.0008L13.0249 9.79078ZM10.9749 4.07078V2.05078C8.9649 2.25078 7.1349 3.05078 5.6549 4.26078L7.0749 5.69078C8.1849 4.83078 9.5149 4.25078 10.9749 4.07078ZM5.6649 7.10078L4.2349 5.68078C3.0249 7.16078 2.2249 8.99078 2.0249 11.0008H4.0449C4.2249 9.54078 4.8049 8.21078 5.6649 7.10078ZM4.0449 13.0008H2.0249C2.2249 15.0108 3.0249 16.8408 4.2349 18.3208L5.6649 16.8908C4.8049 15.7908 4.2249 14.4608 4.0449 13.0008ZM5.6549 19.7408C7.1349 20.9508 8.9749 21.7508 10.9749 21.9508V19.9308C9.5149 19.7508 8.1849 19.1708 7.0749 18.3108L5.6549 19.7408ZM21.9749 12.0008C21.9749 17.1608 18.0549 21.4208 13.0249 21.9508V19.9308C16.9449 19.4108 19.9749 16.0508 19.9749 12.0008C19.9749 7.95078 16.9449 4.59078 13.0249 4.07078V2.05078C18.0549 2.58078 21.9749 6.84078 21.9749 12.0008Z" fill="black"/>
</svg>
