<svg width="24" height="24" viewBox="0 0 24 24" fill="none" xmlns="http://www.w3.org/2000/svg">
<path d="M8.99942 11.0943H12.6294L8.99942 15.2943V17.0943H14.9994V15.0943H11.3694L14.9994 10.8943V9.0943H8.99942V11.0943ZM16.0554 3.4403L17.3374 1.9053L21.9444 5.7553L20.6644 7.2953L16.0554 3.4403ZM3.33542 7.2843L2.05542 5.7483L6.66142 1.9043L7.94142 3.4403L3.33542 7.2843ZM11.9994 6.0943C15.8594 6.0943 18.9994 9.2343 18.9994 13.0943C18.9994 16.9543 15.8594 20.0943 11.9994 20.0943C8.13942 20.0943 4.99942 16.9543 4.99942 13.0943C4.99942 9.2343 8.13942 6.0943 11.9994 6.0943ZM11.9994 4.0943C7.02942 4.0943 2.99942 8.1243 2.99942 13.0943C2.99942 18.0643 7.02942 22.0943 11.9994 22.0943C16.9694 22.0943 20.9994 18.0643 20.9994 13.0943C20.9994 8.1243 16.9694 4.0943 11.9994 4.0943Z" fill="black"/>
</svg>
