<svg width="24" height="24" viewBox="0 0 24 24" fill="none" xmlns="http://www.w3.org/2000/svg">
<path d="M2.55811 4.50586H20.5581V9.50586H22.5581V4.50586C22.5581 3.40586 21.6581 2.50586 20.5581 2.50586H2.55811C1.45811 2.50586 0.558105 3.40586 0.558105 4.50586V16.5059C0.558105 17.6059 1.45811 18.5059 2.55811 18.5059H11.5581V16.5059H2.55811V4.50586Z" fill="black"/>
<path d="M14.5581 10.5059L8.55811 6.50586V14.5059L14.5581 10.5059Z" fill="black"/>
<path d="M22.2681 16.9359C22.2981 16.6459 22.3081 16.3559 22.2781 16.0759L23.3481 15.2259C23.4481 15.1459 23.4681 15.0159 23.4081 14.9059L22.3781 13.1159C22.3181 13.0059 22.1881 12.9659 22.0681 13.0059L20.7881 13.5059C20.5581 13.3359 20.3081 13.1959 20.0381 13.0859L19.8381 11.7259C19.8181 11.5959 19.7181 11.5059 19.5881 11.5059H17.5181C17.3981 11.5059 17.2881 11.5959 17.2681 11.7159L17.0681 13.0759C16.8081 13.1859 16.5581 13.3359 16.3281 13.4959L15.0481 12.9959C14.9281 12.9459 14.7981 12.9959 14.7381 13.1059L13.7081 14.8959C13.6481 15.0059 13.6681 15.1359 13.7681 15.2159L14.8381 16.0759C14.8081 16.3659 14.7981 16.6559 14.8281 16.9359L13.7581 17.7859C13.6581 17.8659 13.6381 17.9959 13.6981 18.1059L14.7281 19.8959C14.7881 20.0059 14.9181 20.0459 15.0381 20.0059L16.3081 19.5059C16.5381 19.6759 16.7881 19.8159 17.0581 19.9259L17.2581 21.2859C17.2781 21.4059 17.3781 21.4959 17.5081 21.4959H19.5781C19.6981 21.4959 19.8081 21.4059 19.8281 21.2859L20.0281 19.9259C20.2881 19.8159 20.5381 19.6659 20.7681 19.5059L22.0481 20.0059C22.1681 20.0559 22.2981 20.0059 22.3581 19.8959L23.3881 18.1059C23.4481 17.9959 23.4281 17.8659 23.3281 17.7859L22.2681 16.9359ZM18.5581 18.0059C17.7281 18.0059 17.0581 17.3359 17.0581 16.5059C17.0581 15.6759 17.7281 15.0059 18.5581 15.0059C19.3881 15.0059 20.0581 15.6759 20.0581 16.5059C20.0581 17.3359 19.3881 18.0059 18.5581 18.0059Z" fill="black"/>
</svg>
