<svg width="24" height="24" viewBox="0 0 24 24" fill="none" xmlns="http://www.w3.org/2000/svg">
<path d="M9.98993 8.56969L7.98993 6.56969L3.83993 2.42969L2.42993 3.83969L5.15993 6.56969H4.42993C3.87993 6.56969 3.42993 7.01969 3.42993 7.56969V17.5697C3.42993 18.1197 3.87993 18.5697 4.42993 18.5697H16.4299C16.6399 18.5697 16.8199 18.4897 16.9799 18.3897L20.1599 21.5697L21.5699 20.1597L12.7099 11.2997L9.98993 8.56969ZM5.42993 16.5697V8.56969H7.15993L15.1599 16.5697H5.42993ZM15.4299 8.56969V11.1797L21.4299 17.1797V7.06969L17.4299 11.0697V7.56969C17.4299 7.01969 16.9799 6.56969 16.4299 6.56969H10.8199L12.8199 8.56969H15.4299Z" fill="black"/>
</svg>
