<svg width="48" height="48" viewBox="0 0 48 48" fill="none" xmlns="http://www.w3.org/2000/svg">
<g clip-path="url(#clip0_299_35878)">
<path d="M47.044 12.3718C46.7726 11.3506 46.2378 10.4186 45.493 9.66911C44.7483 8.91958 43.8197 8.3788 42.8003 8.10089C39.0476 7.0918 24.0476 7.0918 24.0476 7.0918C24.0476 7.0918 9.04761 7.0918 5.29488 8.10089C4.27547 8.3788 3.34693 8.91958 2.60218 9.66911C1.85744 10.4186 1.32262 11.3506 1.05124 12.3718C0.0476075 16.1409 0.0476074 24.0009 0.0476074 24.0009C0.0476074 24.0009 0.0476075 31.8609 1.05124 35.63C1.32262 36.6511 1.85744 37.5831 2.60218 38.3327C3.34693 39.0822 4.27547 39.623 5.29488 39.9009C9.04761 40.91 24.0476 40.91 24.0476 40.91C24.0476 40.91 39.0476 40.91 42.8003 39.9009C43.8197 39.623 44.7483 39.0822 45.493 38.3327C46.2378 37.5831 46.7726 36.6511 47.044 35.63C48.0476 31.8609 48.0476 24.0009 48.0476 24.0009C48.0476 24.0009 48.0476 16.1409 47.044 12.3718Z" fill="#FF0302"/>
<path d="M19.1385 31.1378V16.8633L31.684 24.0006L19.1385 31.1378Z" fill="#FEFEFE"/>
</g>
<defs>
<clipPath id="clip0_299_35878">
<rect width="48" height="48" fill="white"/>
</clipPath>
</defs>
</svg>
