<svg width="24" height="24" viewBox="0 0 24 24" fill="none" xmlns="http://www.w3.org/2000/svg">
<path d="M20.7101 16.4655L17.3401 13.0855C17.9801 13.3055 18.5701 13.5655 19.1101 13.8455C20.0801 14.3555 20.6901 15.3655 20.7101 16.4655ZM21.9001 20.4855L20.4901 21.8955L17.8801 19.2955H4.7101V16.5155C4.7101 15.3955 5.3201 14.3655 6.3201 13.8555C7.6101 13.1955 9.1901 12.6355 10.9901 12.4055L2.1001 3.51547L3.5101 2.10547L21.9001 20.4855ZM15.8801 17.2955L12.8801 14.2955C12.8201 14.2955 12.7701 14.2955 12.7101 14.2955C10.3401 14.2955 8.4201 15.0255 7.2301 15.6355C6.9101 15.7955 6.7101 16.1355 6.7101 16.5155V17.2955H15.8801ZM12.7101 5.29547C13.8101 5.29547 14.7101 6.19547 14.7101 7.29547C14.7101 8.15547 14.1701 8.88547 13.4101 9.16547L14.8901 10.6455C15.9901 9.93547 16.7101 8.69547 16.7101 7.29547C16.7101 5.08547 14.9201 3.29547 12.7101 3.29547C11.3101 3.29547 10.0701 4.01547 9.3601 5.11547L10.8401 6.59547C11.1201 5.83547 11.8501 5.29547 12.7101 5.29547Z" fill="black"/>
</svg>
