<svg width="24" height="24" viewBox="0 0 24 24" fill="none" xmlns="http://www.w3.org/2000/svg">
<path d="M11.3051 7.86922L6.79507 3.35922C8.37507 2.30922 10.2651 1.69922 12.3051 1.69922C17.8251 1.69922 22.3051 6.17922 22.3051 11.6992C22.3051 13.7392 21.6951 15.6292 20.6451 17.2092L19.1851 15.7492C19.8951 14.5692 20.3051 13.1792 20.3051 11.6992C20.3051 8.34922 18.2351 5.47922 15.3051 4.28922V4.69922C15.3051 5.79922 14.4051 6.69922 13.3051 6.69922H11.3051V7.86922ZM21.4951 20.8892L20.0851 22.2992L17.8151 20.0292C16.2351 21.0892 14.3451 21.6992 12.3051 21.6992C6.78507 21.6992 2.30507 17.2192 2.30507 11.6992C2.30507 9.65922 2.91507 7.76922 3.96507 6.18922L1.69507 3.91922L3.10507 2.50922L21.4951 20.8892ZM11.3051 17.6992C10.2051 17.6992 9.30507 16.7992 9.30507 15.6992V14.6992L4.51507 9.90922C4.38507 10.4892 4.30507 11.0792 4.30507 11.6992C4.30507 15.7792 7.35507 19.1392 11.3051 19.6292V17.6992Z" fill="black"/>
</svg>
