<svg width="24" height="24" viewBox="0 0 24 24" fill="none" xmlns="http://www.w3.org/2000/svg">
<path d="M12.7101 3.83531L18.7101 6.08531V10.7853C18.7101 11.9753 18.4801 13.1453 18.0701 14.2253L19.5801 15.7353C20.3001 14.2053 20.7101 12.5153 20.7101 10.7853V4.69531L12.7101 1.69531L7.4901 3.65531L9.0401 5.20531L12.7101 3.83531ZM3.5201 2.50531L2.1001 3.91531L4.7101 6.52531V10.7853C4.7101 15.8353 8.1201 20.5453 12.7101 21.6953C14.4301 21.2653 15.9901 20.3353 17.2601 19.0753L20.4901 22.3053L21.9001 20.8953L3.5201 2.50531ZM12.7101 19.6153C9.2601 18.4853 6.7101 14.7953 6.7101 10.7853V8.52531L15.8501 17.6653C14.9501 18.5453 13.8801 19.2353 12.7101 19.6153Z" fill="black"/>
</svg>
