<svg width="24" height="24" viewBox="0 0 24 24" fill="none" xmlns="http://www.w3.org/2000/svg">
<path d="M6.73009 10.56L7.79009 9.5L6.73009 8.44L7.79009 7.38L9.91009 9.5L7.79009 11.62L6.73009 10.56ZM3.91009 9C3.94009 9 3.96009 9.01 3.99009 9.01C5.18009 6.07 8.05009 4 11.4101 4C13.6001 4 15.5701 4.88 17.0201 6.3C17.1701 5.7 17.4701 5.01 17.8301 4.34C16.0901 2.88 13.8501 2 11.4001 2C6.52009 2 2.46009 5.51 1.59009 10.14C2.15009 9.44 3.00009 9 3.91009 9ZM20.4101 10.5C19.9901 10.5 19.5901 10.41 19.2201 10.28C19.3401 10.83 19.4101 11.41 19.4101 12C19.4101 16.42 15.8301 20 11.4101 20C8.05009 20 5.18009 17.93 3.99009 14.99C3.96009 14.99 3.94009 15 3.91009 15C3.39009 15 2.87009 14.86 2.41009 14.6C2.09009 14.42 1.82009 14.18 1.59009 13.9C2.48009 18.51 6.52009 22 11.3901 22C16.9301 22 21.4101 17.52 21.4101 12C21.4101 11.45 21.3501 10.91 21.2701 10.38C20.9901 10.45 20.7101 10.5 20.4101 10.5ZM20.4101 3C20.4101 3 18.4101 5.9 18.4101 7C18.4101 8.1 19.3101 9 20.4101 9C21.5101 9 22.4101 8.1 22.4101 7C22.4101 5.9 20.4101 3 20.4101 3ZM15.0301 7.38L12.9101 9.5L15.0301 11.62L16.0901 10.56L15.0301 9.5L16.0901 8.44L15.0301 7.38ZM7.97009 17C8.66009 15.81 9.94009 15 11.4101 15C12.8801 15 14.1601 15.81 14.8501 17H16.5301C15.7301 14.95 13.7401 13.5 11.4101 13.5C10.5401 13.5 9.71009 13.7 8.98009 14.07L5.40009 12C5.40009 11.48 5.14009 10.98 4.66009 10.71C3.94009 10.3 3.03009 10.54 2.61009 11.26C2.20009 11.98 2.44009 12.89 3.16009 13.31C3.64009 13.59 4.21009 13.56 4.65009 13.31L7.62009 15.03C7.05009 15.56 6.59009 16.24 6.29009 17H7.97009Z" fill="black"/>
</svg>
