<svg width="24" height="24" viewBox="0 0 24 24" fill="none" xmlns="http://www.w3.org/2000/svg">
<path d="M13.9989 3.25C13.9989 2.15 14.8989 1.25 15.9989 1.25C17.0989 1.25 17.9989 2.15 17.9989 3.25C17.9989 4.35 17.0989 5.25 15.9989 5.25C14.8989 5.25 13.9989 4.35 13.9989 3.25ZM21.3989 20.34C21.1689 20.29 20.9389 20.36 20.7589 20.51C20.0689 21.11 19.1189 21.39 18.1589 21.18L16.9989 20.94L15.9989 14.75L12.6789 12.08L14.4789 9.19C15.6289 11.03 17.6789 12.25 19.9989 12.25V10.25C18.1489 10.25 16.5589 9.13 15.8689 7.53L15.3489 6.32C15.1589 5.89 14.6089 5.25 13.6989 5.25H7.99892L5.49892 9.25L7.19892 10.31L9.09892 7.25H11.4489L8.93892 11.24C8.65892 11.69 8.56892 12.24 8.68892 12.76L9.49892 16.25L5.99892 18.6L5.52892 18.5C4.56892 18.3 3.81892 17.65 3.42892 16.83C3.32892 16.62 3.14892 16.46 2.91892 16.41C2.48892 16.32 2.09892 16.61 2.01892 16.99C1.97892 17.13 1.99892 17.3 2.06892 17.45C2.64892 18.69 3.77892 19.65 5.21892 19.96L17.8489 22.65C19.2889 22.96 20.7089 22.54 21.7489 21.64C21.8789 21.53 21.9589 21.38 21.9889 21.23C22.0589 20.85 21.8289 20.43 21.3989 20.34ZM8.72892 19.18L11.7489 17.15L11.3089 13.83L14.1489 15.85L14.8989 20.49L8.72892 19.18Z" fill="black"/>
</svg>
