<svg width="24" height="24" viewBox="0 0 24 24" fill="none" xmlns="http://www.w3.org/2000/svg">
<path d="M16.4749 5.18945C17.5795 5.18945 18.4749 4.29402 18.4749 3.18945C18.4749 2.08488 17.5795 1.18945 16.4749 1.18945C15.3703 1.18945 14.4749 2.08488 14.4749 3.18945C14.4749 4.29402 15.3703 5.18945 16.4749 5.18945Z" fill="black"/>
<path d="M23.9749 12.6895V7.98945L18.9249 5.84945C17.9549 5.43945 16.8349 5.78945 16.2749 6.68945L15.2749 8.28945C14.6049 9.46945 13.3649 10.3495 11.8649 10.6095L11.9249 10.6695C12.6149 11.3595 13.4449 11.7395 14.3849 11.8395C15.1849 11.4195 15.9049 10.8595 16.4749 10.1995L17.0749 13.1995L14.9749 15.1895V22.6895H16.9749V16.6895L19.0749 14.6895L20.8749 22.6895H22.9749L20.7949 11.6895L20.1749 8.58945L21.9749 9.28945V12.6895H23.9749Z" fill="black"/>
<path d="M10.2649 8.89945C10.4849 9.04945 10.7349 9.13945 10.9849 9.18945C11.1149 9.20945 11.2349 9.22945 11.3649 9.22945C11.4949 9.22945 11.6249 9.21945 11.7449 9.18945C11.8749 9.16945 11.9949 9.12945 12.1149 9.07945C12.3549 8.97945 12.5849 8.83945 12.7749 8.63945C13.2649 8.14945 13.4449 7.46945 13.3249 6.83945C13.2549 6.46945 13.0749 6.09945 12.7749 5.80945C12.5849 5.61945 12.3549 5.46945 12.1149 5.36945C11.9949 5.31945 11.8749 5.27945 11.7449 5.25945C11.6149 5.23945 11.4949 5.21945 11.3649 5.21945C11.2449 5.21945 11.1349 5.22945 11.0149 5.24945C10.8749 5.26945 10.7349 5.30945 10.6049 5.35945C10.3749 5.46945 10.1449 5.61945 9.9549 5.80945C9.6549 6.09945 9.4749 6.46945 9.4049 6.83945C9.2849 7.46945 9.4649 8.14945 9.9549 8.63945C10.0449 8.73945 10.1549 8.81945 10.2649 8.89945Z" fill="black"/>
<path d="M11.2149 11.3695L9.2149 9.36945C9.1149 9.26945 9.0149 9.18945 8.9049 9.10945C8.6849 8.96945 8.4349 8.86945 8.1849 8.82945C8.0549 8.79945 7.9349 8.78945 7.8049 8.78945C7.2949 8.78945 6.7849 8.98945 6.3949 9.37945L3.0549 12.7195C2.6449 13.1295 2.4349 13.6995 2.4749 14.2595C2.4749 14.4395 2.5149 14.6295 2.5849 14.8095L3.6549 17.7595L0.0249023 21.3895L1.4349 22.8095L5.6749 18.5695V16.3495L6.9749 17.5595V22.6895H8.9749V16.6895L6.8549 14.5695L9.2149 12.2095L9.9249 12.9195C11.2149 14.1795 12.8949 14.9595 14.9549 14.9595L14.8149 12.8895C13.3149 12.8695 12.1149 12.2695 11.2149 11.3695Z" fill="black"/>
</svg>
