<svg width="24" height="24" viewBox="0 0 24 24" fill="none" xmlns="http://www.w3.org/2000/svg">
<path d="M21.9617 11.22C21.5717 7.01 17.7617 4 13.5617 4C13.3717 4 13.1817 4.01 12.9917 4.02C2.00171 4.74 2.00171 17.2 2.00171 17.2V18C2.00171 19.1 2.90171 20 4.00171 20H14.0017C18.6717 20 22.4117 15.99 21.9617 11.22ZM5.26171 11.56C5.83171 10.27 6.54171 9.21 7.40171 8.37L11.0217 9.9C11.6217 10.15 12.0017 10.73 12.0017 11.38C12.0017 12.27 11.2817 12.99 10.3917 12.99H4.72171C4.87171 12.53 5.04171 12.05 5.26171 11.56ZM18.4417 16.04C17.3017 17.29 15.6817 18 14.0017 18H4.00171V17.2C4.00171 17.18 4.01171 16.28 4.24171 15H10.3917C12.3817 15 14.0017 13.38 14.0017 11.39C14.0017 9.94 13.1317 8.63 11.8017 8.07L9.30171 7.01C10.4017 6.44 11.6717 6.11 13.1217 6.02C13.2717 6 13.4217 6 13.5617 6C16.8717 6 19.6917 8.37 19.9717 11.41C20.1317 13.13 19.5917 14.77 18.4417 16.04Z" fill="black"/>
</svg>
