<svg width="24" height="24" viewBox="0 0 24 24" fill="none" xmlns="http://www.w3.org/2000/svg">
<path d="M20.0006 5.5V4.5C20.0006 3.4 19.1006 2.5 18.0006 2.5C16.9006 2.5 16.0006 3.4 16.0006 4.5V5.5H15.0006V10.5H21.0006V5.5H20.0006ZM19.0006 5.5H17.0006V4.5C17.0006 3.95 17.4506 3.5 18.0006 3.5C18.5506 3.5 19.0006 3.95 19.0006 4.5V5.5Z" fill="black"/>
<path d="M20.2006 15.37L16.5306 14.64C16.0306 14.54 15.7006 14.84 15.6306 14.91L13.1106 17.41C10.6106 15.98 8.54063 13.91 7.11063 11.41L9.61063 8.89C9.84063 8.65 9.94063 8.32 9.88063 7.99L9.13063 4.3C9.04063 3.84 8.63063 3.5 8.15063 3.5H4.00063C3.44063 3.5 2.97063 3.97 3.00063 4.53C3.17063 7.42 4.05063 10.13 5.43063 12.5C7.01063 15.23 9.28063 17.49 12.0006 19.07C14.3706 20.44 17.0806 21.33 19.9706 21.5C20.5206 21.53 21.0006 21.07 21.0006 20.5V16.35C21.0006 15.87 20.6606 15.46 20.2006 15.37ZM5.10063 5.5H7.33063L7.80063 7.85L6.17063 9.5C5.63063 8.2 5.27063 6.87 5.10063 5.5ZM19.0006 19.4C17.6306 19.22 16.3006 18.87 15.0006 18.33L16.6506 16.7L19.0006 17.17V19.4Z" fill="black"/>
</svg>
