<svg width="24" height="24" viewBox="0 0 24 24" fill="none" xmlns="http://www.w3.org/2000/svg">
<g clip-path="url(#clip0_299_39917)">
<path d="M23.7051 16.7998C20.6551 13.9098 16.5351 12.1298 11.9951 12.1298C7.45512 12.1298 3.33512 13.9098 0.285117 16.7998C0.105117 16.9798 -0.00488281 17.2298 -0.00488281 17.5098C-0.00488281 17.7898 0.105117 18.0398 0.285117 18.2198L2.76512 20.6998C2.94512 20.8798 3.19512 20.9898 3.47512 20.9898C3.74512 20.9898 3.99512 20.8798 4.17512 20.7098C4.96512 19.9698 5.86512 19.3498 6.83512 18.8598C7.16512 18.6998 7.39512 18.3598 7.39512 17.9598V14.8598C8.84512 14.3798 10.3951 14.1298 11.9951 14.1298C13.5951 14.1298 15.1451 14.3798 16.5951 14.8498V17.9498C16.5951 18.3398 16.8251 18.6898 17.1551 18.8498C18.1351 19.3398 19.0251 19.9698 19.8251 20.6998C20.0051 20.8798 20.2551 20.9798 20.5251 20.9798C20.8051 20.9798 21.0551 20.8698 21.2351 20.6898L23.7151 18.2098C23.8951 18.0298 24.0051 17.7798 24.0051 17.4998C24.0051 17.2198 23.8851 16.9798 23.7051 16.7998ZM5.39512 17.3598C4.73512 17.7298 4.10512 18.1598 3.52512 18.6298L2.45512 17.5598C3.36512 16.8098 4.35512 16.1698 5.40512 15.6598V17.3598H5.39512ZM20.4751 18.6198C19.8751 18.1398 19.2551 17.7198 18.5951 17.3498V15.6498C19.6451 16.1598 20.6251 16.7998 21.5451 17.5498L20.4751 18.6198ZM6.99512 6.55977L11.9351 11.4998L19.0051 4.42977L17.5951 3.00977L11.9351 8.66977L8.39512 5.12977H10.9951V3.12977H4.99512V9.12977H6.99512V6.55977Z" fill="black"/>
</g>
<defs>
<clipPath id="clip0_299_39917">
<rect width="24" height="24" fill="white"/>
</clipPath>
</defs>
</svg>
