<svg width="24" height="24" viewBox="0 0 24 24" fill="none" xmlns="http://www.w3.org/2000/svg">
<path d="M12.7099 3.3457C16.5799 3.3457 19.7099 6.4757 19.7099 10.3457V11.3457H15.7099V11.5157L17.5399 13.3457H19.7099V15.5157L21.7099 17.5157V10.3457C21.7099 5.3757 17.6799 1.3457 12.7099 1.3457C10.6899 1.3457 8.8299 2.0157 7.3299 3.1457L8.7599 4.5757C9.8799 3.7957 11.2399 3.3457 12.7099 3.3457Z" fill="black"/>
<path d="M2.8099 1.4457L1.3999 2.8557L4.7299 6.1857C4.0799 7.4357 3.7099 8.8457 3.7099 10.3457V17.3457C3.7099 18.4457 4.6099 19.3457 5.7099 19.3457H9.7099V11.3457H5.7099V10.3457C5.7099 9.4057 5.8999 8.5157 6.2299 7.6957L15.7099 17.1757V19.3457H17.8799L18.8799 20.3457H12.7099V22.3457H19.7099C20.0499 22.3457 20.3599 22.2557 20.6399 22.1057L21.1899 22.6557L22.5999 21.2457L2.8099 1.4457ZM7.7099 13.3457V17.3457H5.7099V13.3457H7.7099Z" fill="black"/>
</svg>
