<svg width="24" height="24" viewBox="0 0 24 24" fill="none" xmlns="http://www.w3.org/2000/svg">
<path d="M17.8051 8.28961C18.6351 8.28961 19.3051 8.95961 19.3051 9.78961C19.3051 10.6196 18.6351 11.2896 17.8051 11.2896C16.9751 11.2896 16.3051 10.6196 16.3051 9.78961C16.3051 8.95961 16.9751 8.28961 17.8051 8.28961ZM11.1351 7.28961H20.3051V15.2896H19.1351L21.0051 17.1596C21.7551 16.8696 22.3051 16.1396 22.3051 15.2896V7.28961C22.3051 6.18961 21.4051 5.28961 20.3051 5.28961H9.13507L11.1351 7.28961ZM20.0851 21.8996L15.4751 17.2896H4.30507C3.20507 17.2896 2.30507 16.3896 2.30507 15.2896V7.28961C2.30507 6.43961 2.85507 5.70961 3.60507 5.41961L1.69507 3.50961L3.10507 2.09961L21.4851 20.4796L20.0851 21.8996ZM13.4751 15.2896L10.4751 12.2896H9.30507V14.2896H7.30507V12.2896H5.30507V10.2896H7.30507V9.11961L5.47507 7.28961H4.30507V15.2896H13.4751Z" fill="black"/>
</svg>
