<svg width="24" height="24" viewBox="0 0 24 24" fill="none" xmlns="http://www.w3.org/2000/svg">
<path d="M12.7101 6.69531C15.4701 6.69531 17.7101 8.93531 17.7101 11.6953C17.7101 12.3353 17.5801 12.9453 17.3601 13.5153L18.8601 15.0153C19.4001 14.0253 19.7101 12.8953 19.7101 11.6953C19.7101 9.47531 18.6801 7.50531 17.0701 6.22531L15.7101 1.69531H9.7101L8.7501 4.90531L10.8901 7.04531C11.4601 6.82531 12.0701 6.69531 12.7101 6.69531ZM11.2001 3.69531H14.2201L14.6001 4.96531C14.0501 4.80531 12.6301 4.45531 10.8201 4.96531L11.2001 3.69531Z" fill="black"/>
<path d="M3.5201 2.50531L2.1001 3.91531L6.5601 8.37531C6.0201 9.36531 5.7101 10.4953 5.7101 11.6953C5.7101 13.9153 6.7401 15.8853 8.3501 17.1653L9.7101 21.6953H15.7101L16.6701 18.4853L20.4901 22.3053L21.9001 20.8953L3.5201 2.50531ZM14.2201 19.6953H11.2001L10.8201 18.4253C11.3701 18.5753 12.7901 18.9353 14.6001 18.4253L14.2201 19.6953ZM12.7101 16.6953C9.9501 16.6953 7.7101 14.4553 7.7101 11.6953C7.7101 11.0553 7.8401 10.4453 8.0601 9.87531L14.5301 16.3453C13.9601 16.5653 13.3501 16.6953 12.7101 16.6953Z" fill="black"/>
</svg>
