<svg width="48" height="48" viewBox="0 0 48 48" fill="none" xmlns="http://www.w3.org/2000/svg">
<path d="M47.9999 23.6552C47.9999 30.0138 46.9342 35.1717 45.6193 35.1717C44.3043 35.1717 43.2391 30.0152 43.2391 23.6552C43.2391 17.2952 44.3048 12.1387 45.6193 12.1387C46.9338 12.1387 47.9999 17.2947 47.9999 23.6552Z" fill="black"/>
<path d="M41.9256 23.6563C41.9256 30.7549 38.8951 36.5118 35.1568 36.5118C31.4184 36.5118 28.3879 30.7549 28.3879 23.6563C28.3879 16.5577 31.418 10.8008 35.1563 10.8008C38.8947 10.8008 41.9252 16.5558 41.9252 23.6563" fill="black"/>
<path d="M27.0749 23.6554C27.0749 31.1968 21.0139 37.3103 13.5377 37.3103C6.06146 37.3103 0 31.1955 0 23.6554C0 16.1153 6.061 10 13.5377 10C21.0143 10 27.0749 16.114 27.0749 23.6554Z" fill="black"/>
</svg>
