<svg width="24" height="24" viewBox="0 0 24 24" fill="none" xmlns="http://www.w3.org/2000/svg">
<path d="M17.3364 1.9043L21.9434 5.7493L20.6634 7.2843L16.0534 3.4413L17.3364 1.9043ZM6.6624 1.9043L7.9444 3.4403L3.3364 7.2843L2.0564 5.7483L6.6624 1.9043ZM11.9994 4.0943C7.0294 4.0943 2.9994 8.1243 2.9994 13.0943C2.9994 18.0643 7.0294 22.0943 11.9994 22.0943C16.9694 22.0943 20.9994 18.0643 20.9994 13.0943C20.9994 8.1243 16.9694 4.0943 11.9994 4.0943ZM11.9994 20.0943C8.1394 20.0943 4.9994 16.9543 4.9994 13.0943C4.9994 9.2343 8.1394 6.0943 11.9994 6.0943C15.8594 6.0943 18.9994 9.2343 18.9994 13.0943C18.9994 16.9543 15.8594 20.0943 11.9994 20.0943ZM12.9994 9.0943H10.9994V12.0943H7.9994V14.0943H10.9994V17.0943H12.9994V14.0943H15.9994V12.0943H12.9994V9.0943Z" fill="black"/>
</svg>
