<svg width="24" height="24" viewBox="0 0 24 24" fill="none" xmlns="http://www.w3.org/2000/svg">
<g clip-path="url(#clip0_299_36551)">
<path d="M1.97494 0.564453L0.564941 1.97445L4.95494 6.36445L7.16494 11.0245L5.81494 13.4745C5.65494 13.7545 5.56494 14.0845 5.56494 14.4345C5.56494 15.5345 6.46494 16.4345 7.56494 16.4345H15.0249L16.4049 17.8145C15.9049 18.1745 15.5749 18.7645 15.5749 19.4345C15.5749 20.5345 16.4649 21.4345 17.5649 21.4345C18.2349 21.4345 18.8249 21.1045 19.1849 20.5945L22.0249 23.4345L23.4349 22.0245L1.97494 0.564453ZM7.56494 14.4345L8.66494 12.4345H11.0249L13.0249 14.4345H7.56494ZM20.5649 3.43445H7.68494L9.68494 5.43445H18.8749L16.1149 10.4345H14.6749L16.6149 12.3745C17.1549 12.2345 17.6049 11.8845 17.8649 11.4045L21.4449 4.91445C21.8149 4.25445 21.3249 3.43445 20.5649 3.43445ZM7.56494 17.4345C6.46494 17.4345 5.57494 18.3345 5.57494 19.4345C5.57494 20.5345 6.46494 21.4345 7.56494 21.4345C8.66494 21.4345 9.56494 20.5345 9.56494 19.4345C9.56494 18.3345 8.66494 17.4345 7.56494 17.4345Z" fill="black"/>
</g>
<defs>
<clipPath id="clip0_299_36551">
<rect width="24" height="24" fill="white"/>
</clipPath>
</defs>
</svg>
