<svg width="24" height="24" viewBox="0 0 24 24" fill="none" xmlns="http://www.w3.org/2000/svg">
<g clip-path="url(#clip0_299_36579)">
<path d="M21.5026 14.5005H23.5026C23.5026 19.4705 19.4726 23.5005 14.5026 23.5005V21.5005C18.3726 21.5005 21.5026 18.3705 21.5026 14.5005ZM14.5026 17.5005V19.5005C17.2626 19.5005 19.5026 17.2605 19.5026 14.5005H17.5026C17.5026 16.1605 16.1626 17.5005 14.5026 17.5005ZM18.7626 1.09055L22.3026 4.63055C23.0826 5.41055 23.0826 6.68055 22.3026 7.46055L19.1226 10.6405C18.3426 11.4205 17.0726 11.4205 16.2926 10.6405L15.0526 9.40055L14.3426 10.1005L15.5826 11.3405C16.3626 12.1205 16.3626 13.3905 15.5826 14.1705L14.1726 15.5805C13.3926 16.3605 12.1226 16.3605 11.3426 15.5805L10.1026 14.3405L9.39256 15.0505L10.6326 16.2905C11.4126 17.0705 11.4126 18.3405 10.6326 19.1205L7.45256 22.3005C6.67256 23.0805 5.40256 23.0805 4.62256 22.3005L1.08256 18.7605C0.302559 17.9805 0.302559 16.7105 1.08256 15.9305L4.26256 12.7505C5.04256 11.9705 6.31256 11.9705 7.09256 12.7505L8.33256 13.9905L9.04256 13.2805L7.80256 12.0505C7.02256 11.2705 7.02256 10.0005 7.80256 9.22055L9.22256 7.80055C10.0026 7.02055 11.2726 7.02055 12.0526 7.80055L13.2926 9.04055L14.0026 8.33055L12.7526 7.10055C11.9726 6.32055 11.9726 5.05055 12.7526 4.27055L15.9326 1.09055C16.7226 0.300547 17.9826 0.300547 18.7626 1.09055ZM3.56256 16.2905L2.50256 17.3505L6.04256 20.8905L7.10256 19.8305L3.56256 16.2905ZM5.68256 14.1705L4.62256 15.2305L8.16256 18.7705L9.22256 17.7105L5.68256 14.1705ZM10.6326 9.22055L9.22256 10.6305L12.7626 14.1705L14.1726 12.7605L10.6326 9.22055ZM15.2326 4.62055L14.1726 5.68055L17.7126 9.22055L18.7726 8.16055L15.2326 4.62055ZM17.3526 2.50055L16.2926 3.56055L19.8326 7.10055L20.8926 6.04055L17.3526 2.50055Z" fill="black"/>
</g>
<defs>
<clipPath id="clip0_299_36579">
<rect width="24" height="24" fill="white"/>
</clipPath>
</defs>
</svg>
