<svg width="24" height="24" viewBox="0 0 24 24" fill="none" xmlns="http://www.w3.org/2000/svg">
<path d="M19.9741 10.002L15.8242 10.012C15.6642 10.002 15.5142 10.032 15.3742 10.092L14.7842 10.352L12.9542 6.25195C12.3941 4.99195 10.9142 4.42195 9.65415 4.98195C8.39415 5.54195 7.82415 7.02195 8.38415 8.28195L11.6842 15.732L9.81415 16.122C9.62415 16.172 8.82415 16.392 8.45415 17.332L7.75415 19.192L14.5342 21.862C15.0241 22.052 15.5842 22.042 16.0641 21.822L22.0541 19.172C22.9441 18.772 23.4242 17.792 23.1842 16.852L21.8242 11.512C21.6042 10.652 20.8541 10.042 19.9741 10.002ZM21.2442 17.342L15.2542 20.002L10.3342 18.042L14.5142 17.162L10.2142 7.46195C10.1042 7.21195 10.2142 6.91195 10.4642 6.80195C10.7142 6.69195 11.0142 6.80195 11.1242 7.05195L13.6242 12.702L15.2341 11.992L19.8841 12.002L21.2442 17.342ZM3.55415 12.182C3.35415 11.322 3.25415 10.422 3.25415 9.50195C3.25415 6.66195 4.24415 4.05195 5.88415 2.00195L6.95415 3.07195C5.57415 4.85195 4.75415 7.08195 4.75415 9.50195C4.75415 10.382 4.86415 11.242 5.07415 12.062L6.69415 10.442L7.75415 11.502L4.25415 15.002L0.75415 11.502L1.81415 10.442L3.55415 12.182Z" fill="black"/>
</svg>
