<svg width="24" height="24" viewBox="0 0 24 24" fill="none" xmlns="http://www.w3.org/2000/svg">
<path d="M19.9741 10.502L15.8242 10.512C15.6642 10.502 15.5142 10.532 15.3742 10.592L14.7842 10.852L12.9542 6.75195C12.3941 5.49195 10.9142 4.92195 9.65415 5.48195C8.39415 6.04195 7.82415 7.52195 8.38415 8.78195L11.6842 16.232L9.81415 16.622C9.62415 16.672 8.82415 16.892 8.45415 17.832L7.75415 19.692L14.5342 22.362C15.0241 22.552 15.5842 22.542 16.0641 22.322L22.0541 19.672C22.9441 19.272 23.4242 18.292 23.1842 17.352L21.8242 12.012C21.6042 11.152 20.8541 10.542 19.9741 10.502ZM21.2442 17.842L15.2542 20.502L10.3342 18.542L14.5142 17.662L10.2142 7.96195C10.1042 7.71195 10.2142 7.41195 10.4642 7.30195C10.7142 7.19195 11.0142 7.30195 11.1242 7.55195L13.6242 13.202L15.2341 12.492L19.8841 12.502L21.2442 17.842ZM1.81415 6.06195L0.75415 5.00195L4.25415 1.50195L7.75415 5.00195L6.69415 6.06195L5.07415 4.44195C4.86415 5.26195 4.75415 6.12195 4.75415 7.00195C4.75415 9.42195 5.57415 11.652 6.95415 13.432L5.88415 14.502C4.24415 12.452 3.25415 9.84195 3.25415 7.00195C3.25415 6.08195 3.35415 5.18195 3.55415 4.32195L1.81415 6.06195Z" fill="black"/>
</svg>
