<svg width="48" height="48" viewBox="0 0 48 48" fill="none" xmlns="http://www.w3.org/2000/svg">
<g clip-path="url(#clip0_299_35872)">
<path d="M23.9996 19.6367V28.9313H36.916C36.3488 31.9204 34.6468 34.4514 32.0941 36.1532L39.8831 42.1968C44.4213 38.0079 47.0395 31.8551 47.0395 24.546C47.0395 22.8443 46.8868 21.2077 46.6031 19.637L23.9996 19.6367Z" fill="#4285F4"/>
<path d="M10.5494 28.5684L8.79263 29.9131L2.57434 34.7567C6.52342 42.5893 14.6174 48.0003 23.9991 48.0003C30.4789 48.0003 35.9116 45.8621 39.8826 42.1968L32.0936 36.1531C29.9554 37.5931 27.2281 38.4659 23.9991 38.4659C17.7591 38.4659 12.4575 34.255 10.5592 28.5822L10.5494 28.5684Z" fill="#34A853"/>
<path d="M2.57436 13.2441C0.938084 16.4731 0 20.1168 0 24.0004C0 27.8839 0.938084 31.5276 2.57436 34.7566C2.57436 34.7783 10.5599 28.5602 10.5599 28.5602C10.08 27.1202 9.79624 25.593 9.79624 24.0001C9.79624 22.4072 10.08 20.88 10.5599 19.44L2.57436 13.2441Z" fill="#FBBC05"/>
<path d="M23.9996 9.55636C27.5342 9.55636 30.676 10.7781 33.1851 13.1345L40.0577 6.2619C35.8904 2.37833 30.4797 0 23.9996 0C14.6179 0 6.52342 5.38908 2.57434 13.2437L10.5597 19.44C12.4578 13.7672 17.7596 9.55636 23.9996 9.55636Z" fill="#EA4335"/>
</g>
<defs>
<clipPath id="clip0_299_35872">
<rect width="48" height="48" fill="white"/>
</clipPath>
</defs>
</svg>
