<svg width="48" height="48" viewBox="0 0 48 48" fill="none" xmlns="http://www.w3.org/2000/svg">
<g clip-path="url(#clip0_299_35910)">
<path d="M24 0C10.7456 0 0 10.7456 0 24C0 30.6281 2.68688 36.6281 7.02938 40.9706L2.45812 45.5419C1.55062 46.4494 2.19375 48 3.47625 48H24C37.2544 48 48 37.2544 48 24C48 10.7456 37.2544 0 24 0Z" fill="#FF4500"/>
<path d="M37.605 28.7888C40.7002 28.7888 43.2094 26.2797 43.2094 23.1845C43.2094 20.0892 40.7002 17.5801 37.605 17.5801C34.5098 17.5801 32.0006 20.0892 32.0006 23.1845C32.0006 26.2797 34.5098 28.7888 37.605 28.7888Z" fill="url(#paint0_radial_299_35910)"/>
<path d="M10.395 28.7888C13.4902 28.7888 15.9994 26.2797 15.9994 23.1845C15.9994 20.0892 13.4902 17.5801 10.395 17.5801C7.29978 17.5801 4.79062 20.0892 4.79062 23.1845C4.79062 26.2797 7.29978 28.7888 10.395 28.7888Z" fill="url(#paint1_radial_299_35910)"/>
<path d="M24.0131 40C32.8493 40 40.0125 34.6274 40.0125 28C40.0125 21.3726 32.8493 16 24.0131 16C15.1769 16 8.01376 21.3726 8.01376 28C8.01376 34.6274 15.1769 40 24.0131 40Z" fill="url(#paint2_radial_299_35910)"/>
<path d="M19.2825 26.833C19.1888 28.8655 17.8388 29.6042 16.2694 29.6042C14.7 29.6042 13.5 28.5636 13.5938 26.5311C13.6875 24.4986 15.0375 23.1523 16.6069 23.1523C18.1763 23.1523 19.3763 24.8005 19.2825 26.833Z" fill="#842123"/>
<path d="M34.4325 26.5291C34.5263 28.5616 33.3281 29.6023 31.7569 29.6023C30.1856 29.6023 28.8356 28.8654 28.7438 26.831C28.65 24.7985 29.8481 23.1504 31.4194 23.1504C32.9906 23.1504 34.3406 24.4948 34.4325 26.5291Z" fill="#842123"/>
<path d="M28.7438 27.0088C28.8319 28.912 30.0937 29.602 31.5637 29.602C33.0337 29.602 34.155 28.5688 34.0669 26.6657C33.9788 24.7626 32.7169 23.5176 31.2469 23.5176C29.7769 23.5176 28.6556 25.1057 28.7438 27.0088Z" fill="url(#paint3_radial_299_35910)"/>
<path d="M19.2844 27.0088C19.1962 28.912 17.9344 29.602 16.4644 29.602C14.9944 29.602 13.8731 28.5688 13.9612 26.6657C14.0494 24.7626 15.3112 23.5176 16.7812 23.5176C18.2512 23.5176 19.3725 25.1057 19.2844 27.0088Z" fill="url(#paint4_radial_299_35910)"/>
<path d="M24.0131 30.9609C22.0294 30.9609 20.1281 31.0566 18.3694 31.2309C18.0694 31.2609 17.8781 31.5666 17.9944 31.8403C18.9787 34.1484 21.3019 35.7703 24.0131 35.7703C26.7244 35.7703 29.0456 34.1484 30.0319 31.8403C30.1481 31.5666 29.9587 31.2609 29.6569 31.2309C27.8981 31.0566 25.9969 30.9609 24.0131 30.9609Z" fill="#BBCFDA"/>
<path d="M24.0131 31.4004C22.035 31.4004 20.1394 31.4979 18.3863 31.676C18.0863 31.706 17.8969 32.0173 18.0131 32.2948C18.9956 34.6404 21.3113 36.2866 24.0113 36.2866C26.7113 36.2866 29.0288 34.6385 30.0113 32.2948C30.1275 32.0173 29.9381 31.706 29.6381 31.676C27.885 31.4979 25.9894 31.4004 24.0113 31.4004H24.0131Z" fill="white"/>
<path d="M24.0131 31.1719C22.0669 31.1719 20.2012 31.2675 18.4744 31.4419C18.18 31.4719 17.9925 31.7775 18.1069 32.0513C19.0725 34.3594 21.3525 35.9812 24.0131 35.9812C26.6737 35.9812 28.9519 34.3594 29.9194 32.0513C30.0337 31.7775 29.8462 31.4719 29.5519 31.4419C27.8269 31.2675 25.9612 31.1719 24.0131 31.1719Z" fill="url(#paint5_radial_299_35910)"/>
<path d="M32.7769 14.3683C34.9701 14.3683 36.7481 12.5903 36.7481 10.397C36.7481 8.20377 34.9701 6.42578 32.7769 6.42578C30.5836 6.42578 28.8056 8.20377 28.8056 10.397C28.8056 12.5903 30.5836 14.3683 32.7769 14.3683Z" fill="url(#paint6_radial_299_35910)"/>
<path d="M23.9569 16.505C23.4806 16.505 23.0963 16.3063 23.0963 15.9988C23.0963 12.44 25.9913 9.54688 29.5481 9.54688C30.0244 9.54688 30.4088 9.93313 30.4088 10.4075C30.4088 10.8819 30.0225 11.2681 29.5481 11.2681C26.94 11.2681 24.8175 13.3906 24.8175 15.9988C24.8175 16.3063 24.4313 16.505 23.9569 16.505Z" fill="url(#paint7_radial_299_35910)"/>
<path d="M18.2381 27.9503C18.2381 28.6872 17.4544 29.0172 16.4888 29.0172C15.5231 29.0172 14.7394 28.6872 14.7394 27.9503C14.7394 27.2134 15.5231 26.6172 16.4888 26.6172C17.4544 26.6172 18.2381 27.2134 18.2381 27.9503Z" fill="#FF6101"/>
<path d="M33.2888 27.9503C33.2888 28.6872 32.505 29.0172 31.5394 29.0172C30.5738 29.0172 29.79 28.6872 29.79 27.9503C29.79 27.2134 30.5738 26.6172 31.5394 26.6172C32.505 26.6172 33.2888 27.2134 33.2888 27.9503Z" fill="#FF6101"/>
<path d="M17.6963 25.9513C18.0401 25.9513 18.3188 25.6474 18.3188 25.2725C18.3188 24.8976 18.0401 24.5938 17.6963 24.5938C17.3525 24.5938 17.0738 24.8976 17.0738 25.2725C17.0738 25.6474 17.3525 25.9513 17.6963 25.9513Z" fill="#FFC49C"/>
<path d="M32.4919 25.9513C32.8357 25.9513 33.1144 25.6474 33.1144 25.2725C33.1144 24.8976 32.8357 24.5938 32.4919 24.5938C32.1481 24.5938 31.8694 24.8976 31.8694 25.2725C31.8694 25.6474 32.1481 25.9513 32.4919 25.9513Z" fill="#FFC49C"/>
</g>
<defs>
<radialGradient id="paint0_radial_299_35910" cx="0" cy="0" r="1" gradientUnits="userSpaceOnUse" gradientTransform="translate(37.6897 20.1671) scale(11.2315 9.79772)">
<stop stop-color="#FEFFFF"/>
<stop offset="0.4" stop-color="#FEFFFF"/>
<stop offset="0.51" stop-color="#F9FCFC"/>
<stop offset="0.62" stop-color="#EDF3F5"/>
<stop offset="0.7" stop-color="#DEE9EC"/>
<stop offset="0.72" stop-color="#D8E4E8"/>
<stop offset="0.76" stop-color="#CCD8DF"/>
<stop offset="0.8" stop-color="#C8D5DD"/>
<stop offset="0.83" stop-color="#CCD6DE"/>
<stop offset="0.85" stop-color="#D8DBE2"/>
<stop offset="0.88" stop-color="#EDE3E9"/>
<stop offset="0.9" stop-color="#FFEBEF"/>
</radialGradient>
<radialGradient id="paint1_radial_299_35910" cx="0" cy="0" r="1" gradientUnits="userSpaceOnUse" gradientTransform="translate(10.4797 20.1671) scale(11.2315 9.79772)">
<stop stop-color="#FEFFFF"/>
<stop offset="0.4" stop-color="#FEFFFF"/>
<stop offset="0.51" stop-color="#F9FCFC"/>
<stop offset="0.62" stop-color="#EDF3F5"/>
<stop offset="0.7" stop-color="#DEE9EC"/>
<stop offset="0.72" stop-color="#D8E4E8"/>
<stop offset="0.76" stop-color="#CCD8DF"/>
<stop offset="0.8" stop-color="#C8D5DD"/>
<stop offset="0.83" stop-color="#CCD6DE"/>
<stop offset="0.85" stop-color="#D8DBE2"/>
<stop offset="0.88" stop-color="#EDE3E9"/>
<stop offset="0.9" stop-color="#FFEBEF"/>
</radialGradient>
<radialGradient id="paint2_radial_299_35910" cx="0" cy="0" r="1" gradientUnits="userSpaceOnUse" gradientTransform="translate(24.4401 18.5961) scale(33.8788 23.7872)">
<stop stop-color="#FEFFFF"/>
<stop offset="0.4" stop-color="#FEFFFF"/>
<stop offset="0.51" stop-color="#F9FCFC"/>
<stop offset="0.62" stop-color="#EDF3F5"/>
<stop offset="0.7" stop-color="#DEE9EC"/>
<stop offset="0.72" stop-color="#D8E4E8"/>
<stop offset="0.76" stop-color="#CCD8DF"/>
<stop offset="0.8" stop-color="#C8D5DD"/>
<stop offset="0.83" stop-color="#CCD6DE"/>
<stop offset="0.85" stop-color="#D8DBE2"/>
<stop offset="0.88" stop-color="#EDE3E9"/>
<stop offset="0.9" stop-color="#FFEBEF"/>
</radialGradient>
<radialGradient id="paint3_radial_299_35910" cx="0" cy="0" r="1" gradientUnits="userSpaceOnUse" gradientTransform="translate(30.99 28.3066) rotate(180) scale(2.83057 4.15553)">
<stop stop-color="#FF6600"/>
<stop offset="0.5" stop-color="#FF4500"/>
<stop offset="0.7" stop-color="#FC4301"/>
<stop offset="0.82" stop-color="#F43F07"/>
<stop offset="0.92" stop-color="#E53812"/>
<stop offset="1" stop-color="#D4301F"/>
</radialGradient>
<radialGradient id="paint4_radial_299_35910" cx="0" cy="0" r="1" gradientUnits="userSpaceOnUse" gradientTransform="translate(16.9107 28.3066) scale(2.83057 4.15553)">
<stop stop-color="#FF6600"/>
<stop offset="0.5" stop-color="#FF4500"/>
<stop offset="0.7" stop-color="#FC4301"/>
<stop offset="0.82" stop-color="#F43F07"/>
<stop offset="0.92" stop-color="#E53812"/>
<stop offset="1" stop-color="#D4301F"/>
</radialGradient>
<radialGradient id="paint5_radial_299_35910" cx="0" cy="0" r="1" gradientUnits="userSpaceOnUse" gradientTransform="translate(24.0691 36.5452) scale(9.98104 6.58324)">
<stop stop-color="#172E35"/>
<stop offset="0.29" stop-color="#0E1C21"/>
<stop offset="0.73" stop-color="#030708"/>
<stop offset="1"/>
</radialGradient>
<radialGradient id="paint6_radial_299_35910" cx="0" cy="0" r="1" gradientUnits="userSpaceOnUse" gradientTransform="translate(32.871 6.39505) scale(8.76139 8.76139)">
<stop stop-color="#FEFFFF"/>
<stop offset="0.4" stop-color="#FEFFFF"/>
<stop offset="0.51" stop-color="#F9FCFC"/>
<stop offset="0.62" stop-color="#EDF3F5"/>
<stop offset="0.7" stop-color="#DEE9EC"/>
<stop offset="0.72" stop-color="#D8E4E8"/>
<stop offset="0.76" stop-color="#CCD8DF"/>
<stop offset="0.8" stop-color="#C8D5DD"/>
<stop offset="0.83" stop-color="#CCD6DE"/>
<stop offset="0.85" stop-color="#D8DBE2"/>
<stop offset="0.88" stop-color="#EDE3E9"/>
<stop offset="0.9" stop-color="#FFEBEF"/>
</radialGradient>
<radialGradient id="paint7_radial_299_35910" cx="0" cy="0" r="1" gradientUnits="userSpaceOnUse" gradientTransform="translate(29.22 15.9455) scale(7.1813 7.18131)">
<stop offset="0.48" stop-color="#7A9299"/>
<stop offset="0.67" stop-color="#172E35"/>
<stop offset="0.75"/>
<stop offset="0.82" stop-color="#172E35"/>
</radialGradient>
<clipPath id="clip0_299_35910">
<rect width="48" height="48" fill="white"/>
</clipPath>
</defs>
</svg>
