<svg width="48" height="48" viewBox="0 0 48 48" fill="none" xmlns="http://www.w3.org/2000/svg">
<path d="M44.5944 35.3593C37.1613 31.76 35.9766 26.2028 35.9239 25.7906C35.8601 25.2914 35.7877 24.8988 36.3384 24.3909C36.8694 23.9002 39.2253 22.4416 39.879 21.9853C40.9594 21.2296 41.4352 20.4751 41.0845 19.5477C40.8392 18.9061 40.242 18.6645 39.6128 18.6645C39.4144 18.6651 39.2166 18.6873 39.0229 18.7307C37.8358 18.9883 36.683 19.5833 36.0158 19.744C35.9357 19.7647 35.8533 19.7758 35.7706 19.7771C35.4149 19.7771 35.28 19.6189 35.3144 19.1907C35.3977 17.8928 35.5743 15.3596 35.3695 12.9932C35.0887 9.73739 34.0389 8.12422 32.7941 6.69751C32.192 6.00562 29.3958 3.0332 23.9997 3.0332C18.6036 3.0332 15.8112 6.00562 15.2127 6.68892C13.9642 8.11563 12.9157 9.72881 12.6373 12.9846C12.4325 15.351 12.6164 17.883 12.6925 19.1821C12.717 19.5894 12.5919 19.7685 12.2363 19.7685C12.1535 19.7671 12.0712 19.756 11.991 19.7354C11.3251 19.5747 10.1723 18.9797 8.98512 18.7221C8.79147 18.6787 8.59368 18.6565 8.39523 18.6559C7.76364 18.6559 7.16884 18.9012 6.92356 19.5391C6.57282 20.4666 7.0462 21.221 8.13033 21.9767C8.78399 22.433 11.1399 23.8904 11.6709 24.3823C12.2203 24.8902 12.1492 25.2828 12.0854 25.7821C12.0327 26.2004 10.8468 31.7576 3.41488 35.3507C2.97951 35.5617 2.23878 36.0083 3.54488 36.7296C5.59539 37.8631 6.96036 37.7416 8.02118 38.4249C8.92134 39.0052 8.38909 40.2565 9.04398 40.7079C9.84849 41.2636 12.2264 40.6687 15.2985 41.6832C17.8739 42.5321 19.4388 44.9304 24.0059 44.9304C28.5729 44.9304 30.1832 42.5211 32.7132 41.6832C35.7791 40.6687 38.162 41.2636 38.9677 40.7079C39.6214 40.2565 39.0904 39.0052 39.9906 38.4249C41.0514 37.7416 42.4151 37.8631 44.4669 36.7296C45.7705 36.0168 45.0298 35.5703 44.5944 35.3593Z" fill="white"/>
<path d="M47.8284 34.9366C47.4948 34.0288 46.8596 33.543 46.136 33.1406C45.9999 33.0609 45.8748 32.9971 45.7681 32.948C45.5522 32.8364 45.3315 32.7285 45.112 32.6144C42.8566 31.4183 41.0956 29.9094 39.8741 28.1208C39.5272 27.6173 39.2263 27.0835 38.9751 26.526C38.8709 26.2279 38.8758 26.0586 38.9506 25.904C39.0248 25.785 39.123 25.6826 39.2388 25.6035C39.6263 25.3471 40.0261 25.087 40.2972 24.9116C40.7804 24.5988 41.163 24.351 41.4095 24.1756C42.3354 23.5278 42.983 22.8396 43.3877 22.0705C43.67 21.539 43.8347 20.953 43.8705 20.3523C43.9062 19.7515 43.8122 19.1501 43.5949 18.5889C42.9817 16.9745 41.4573 15.9723 39.6104 15.9723C39.2208 15.9719 38.8323 16.013 38.4515 16.095C38.3497 16.117 38.2479 16.1403 38.1485 16.1661C38.1657 15.062 38.1412 13.8966 38.0431 12.7496C37.6948 8.71727 36.2832 6.60358 34.8116 4.91803C33.8691 3.86179 32.7591 2.96818 31.5261 2.27315C29.2928 0.997334 26.7603 0.349609 23.9998 0.349609C21.2392 0.349609 18.719 0.997334 16.4833 2.27315C15.2472 2.96839 14.1349 3.86379 13.1916 4.92294C11.72 6.60849 10.3084 8.72586 9.96012 12.7545C9.86201 13.9015 9.83748 15.0731 9.85342 16.171C9.75408 16.1452 9.65352 16.1219 9.55173 16.0999C9.17087 16.0179 8.78237 15.9768 8.3928 15.9772C6.54464 15.9772 5.01779 16.9794 4.40705 18.5938C4.18875 19.1553 4.09383 19.7571 4.12875 20.3585C4.16366 20.9599 4.3276 21.5467 4.6094 22.079C5.01534 22.8482 5.66287 23.5364 6.58879 24.1841C6.83406 24.3559 7.21792 24.6037 7.70112 24.9202C7.96234 25.0895 8.34374 25.3373 8.71779 25.5851C8.84866 25.6697 8.95989 25.7814 9.04401 25.9126C9.1225 26.0733 9.12495 26.2463 9.00844 26.5653C8.76064 27.111 8.46473 27.6337 8.12422 28.1269C6.92972 29.875 5.22014 31.357 3.03718 32.5432C1.8807 33.1566 0.678844 33.5663 0.171121 34.9464C-0.21151 35.9879 0.0386716 37.173 1.01119 38.1716C1.36812 38.5443 1.7821 38.8577 2.23758 39.1002C3.18532 39.6212 4.19309 40.0245 5.23854 40.3012C5.45428 40.3569 5.6591 40.4485 5.84437 40.5723C6.1988 40.8827 6.14852 41.3501 6.62067 42.0346C6.85769 42.3884 7.15885 42.6946 7.50858 42.9375C8.49949 43.622 9.61305 43.6649 10.7928 43.7103C11.8586 43.7508 13.0665 43.7974 14.4462 44.2526C15.0177 44.4415 15.6113 44.807 16.2993 45.234C17.9512 46.2497 20.2127 47.6396 23.9973 47.6396C27.7819 47.6396 30.0593 46.2423 31.7235 45.2229C32.4066 44.8034 32.9965 44.4415 33.5521 44.2575C34.9317 43.8011 36.1397 43.7557 37.2055 43.7152C38.3852 43.6698 39.4988 43.6269 40.4897 42.9424C40.9039 42.6535 41.249 42.2764 41.5003 41.8383C41.84 41.2605 41.8314 40.8569 42.1502 40.5748C42.3241 40.4569 42.5164 40.369 42.7193 40.3147C43.779 40.0371 44.8005 39.6301 45.7607 39.1027C46.2446 38.843 46.6802 38.5019 47.0484 38.0943L47.0607 38.0795C47.9731 37.1031 48.2024 35.9524 47.8284 34.9366ZM44.4644 36.7448C42.4127 37.8784 41.0489 37.7569 39.9881 38.4402C39.0867 39.0205 39.6202 40.2717 38.9653 40.7232C38.1608 41.2789 35.7829 40.6839 32.7108 41.6985C30.1771 42.5363 28.5607 44.9457 24.0034 44.9457C19.4462 44.9457 17.8678 42.5412 15.2924 41.6923C12.2265 40.6778 9.84361 41.2728 9.03788 40.7171C8.38421 40.2656 8.91524 39.0143 8.01507 38.4341C6.95302 37.7508 5.58929 37.8722 3.53877 36.7448C2.23267 36.0235 2.97341 35.577 3.40877 35.366C10.8407 31.7667 12.0266 26.2095 12.0793 25.7973C12.1431 25.298 12.2142 24.9055 11.6648 24.3976C11.1338 23.9069 8.77788 22.4483 8.12422 21.9919C7.04255 21.2363 6.56671 20.4818 6.91746 19.5544C7.16274 18.9128 7.76121 18.6711 8.38912 18.6711C8.58757 18.6717 8.78536 18.6939 8.97901 18.7374C10.1661 18.995 11.319 19.59 11.9849 19.7507C12.0651 19.7713 12.1474 19.7824 12.2302 19.7838C12.5858 19.7838 12.7109 19.6047 12.6864 19.1974C12.6103 17.8983 12.4264 15.3663 12.6312 12.9999C12.912 9.74406 13.9606 8.13089 15.2066 6.70418C15.8051 6.01842 18.6172 3.04601 23.9949 3.04601C29.3725 3.04601 32.192 6.00616 32.7905 6.68946C34.0377 8.11617 35.0875 9.72934 35.3659 12.9851C35.5707 15.3515 35.3941 17.8848 35.3107 19.1827C35.2825 19.6108 35.4113 19.7691 35.7669 19.7691C35.8497 19.7677 35.932 19.7566 36.0122 19.7359C36.6793 19.5752 37.8321 18.9803 39.0193 18.7227C39.2129 18.6792 39.4107 18.657 39.6092 18.6564C40.2408 18.6564 40.8356 18.9018 41.0808 19.5397C41.4316 20.4671 40.9582 21.2215 39.8753 21.9772C39.2216 22.4336 36.8658 23.891 36.3347 24.3829C35.7841 24.8908 35.8564 25.2833 35.9202 25.7826C35.9729 26.2009 37.1576 31.7581 44.5907 35.3513C45.0298 35.5708 45.7705 36.0174 44.4644 36.7448Z" fill="black"/>
</svg>
