<svg width="200" height="54" viewBox="0 0 200 54" fill="none" xmlns="http://www.w3.org/2000/svg">
<rect y="0.00012207" width="53.9507" height="53.9507" rx="9.80921" fill="black"/>
<path d="M15.7533 23.8114C18.1329 21.432 21.9909 21.4326 24.3704 23.8121C25.0964 24.5381 25.6006 25.4016 25.8834 26.3188C26.5266 28.4053 26.8746 30.7661 28.4186 32.31C29.9626 33.8541 32.3238 34.2022 34.4105 34.8457C35.3277 35.1286 36.1913 35.6331 36.9174 36.3591C39.297 38.7387 39.2976 42.5966 36.9181 44.9763C34.5385 47.3559 30.6799 47.3559 28.3003 44.9763C27.3567 44.0327 26.7876 42.8566 26.5926 41.6325C26.2799 39.669 26.0363 37.5043 24.6304 36.0984C23.2245 34.6926 21.0599 34.449 19.0965 34.1365C17.8726 33.9417 16.6968 33.3728 15.7533 32.4293C13.3736 30.0496 13.3736 26.1911 15.7533 23.8114Z" fill="white"/>
<path d="M17.0941 8.99869C19.4737 6.61923 23.3317 6.6198 25.7113 8.99938C26.4372 9.72539 26.9414 10.5889 27.2242 11.506C27.8674 13.5925 28.2155 15.9534 29.7594 17.4973C31.3035 19.0414 33.6646 19.3895 35.7512 20.033C36.6685 20.3159 37.5322 20.8203 38.2583 21.5464C40.6378 23.926 40.6384 27.7839 38.259 30.1636C35.8793 32.5432 32.0207 32.5432 29.6411 30.1636C28.6975 29.2199 28.1284 28.0439 27.9334 26.8198C27.6207 24.8563 27.3771 22.6915 25.9712 21.2856C24.5654 19.8798 22.4008 19.6362 20.4374 19.3237C19.2135 19.1289 18.0376 18.56 17.0941 17.6165C14.7144 15.2369 14.7144 11.3783 17.0941 8.99869Z" fill="white"/>
<path d="M77.0725 40.4631C74.1082 40.4631 71.7614 39.5615 70.0323 37.7582C68.3031 35.9302 67.4385 33.2993 67.4385 29.8657V24.0852C67.4385 20.7504 68.3031 18.1566 70.0323 16.3039C71.7614 14.4265 74.1082 13.4878 77.0725 13.4878C80.1604 13.4878 82.5071 14.3524 84.1128 16.0816C85.7432 17.8108 86.5584 20.1575 86.5584 23.1218V23.7888H81.6672V23.1218C81.6672 22.3067 81.5314 21.5038 81.2596 20.7133C80.9879 19.8981 80.5185 19.2312 79.8516 18.7124C79.1846 18.1937 78.2583 17.9343 77.0725 17.9343C75.9856 17.9343 75.084 18.206 74.3676 18.7495C73.6759 19.2682 73.1571 19.9722 72.8113 20.8615C72.4902 21.7261 72.3296 22.6772 72.3296 23.7147V30.2362C72.3296 31.916 72.6878 33.2993 73.4042 34.3863C74.1206 35.4732 75.3433 36.0166 77.0725 36.0166C78.3324 36.0166 79.2958 35.7696 79.9627 35.2756C80.6297 34.7815 81.0744 34.1392 81.2967 33.3488C81.5437 32.5583 81.6672 31.7184 81.6672 30.8291V30.1621H86.5584V30.8291C86.5584 33.8922 85.7432 36.2637 84.1128 37.9435C82.5071 39.6232 80.1604 40.4631 77.0725 40.4631Z" fill="black"/>
<path d="M91.3867 39.9444V14.0065H96.2778V35.2756H108.061V39.9444H91.3867Z" fill="black"/>
<path d="M111.592 39.9444L117.78 14.0065H126.97L133.158 39.9444H128.044L126.785 34.3863H117.966L116.706 39.9444H111.592ZM119.003 29.7175H125.71L122.709 14.0065H122.042L119.003 29.7175Z" fill="black"/>
<path d="M136.43 39.9444V14.0065H146.36C148.139 14.0065 149.633 14.3277 150.844 14.97C152.054 15.6122 152.968 16.4768 153.586 17.5637C154.203 18.626 154.512 19.824 154.512 21.158V22.0473C154.512 23.1095 154.216 24.1099 153.623 25.0487C153.055 25.9627 151.998 27.0002 150.837 27.4942C151.701 27.593 152.573 28.26 153.067 28.8282C153.586 29.3963 153.845 30.1127 153.845 30.9773V39.9444H148.954V32.163C148.954 31.5702 148.794 31.0885 148.472 30.7179C148.176 30.3474 147.67 30.1621 146.953 30.1621H141.321V39.9444H136.43ZM141.321 25.4933H145.99C147.176 25.4933 148.077 25.2092 148.695 24.6411C149.312 24.0729 149.621 23.2948 149.621 22.3067V21.862C149.621 20.9974 149.312 20.2563 148.695 19.6388C148.077 18.9965 147.176 18.6754 145.99 18.6754H141.321V25.4933Z" fill="black"/>
<path d="M159.081 39.9444V35.2756H165.306V18.6754H159.081V14.0065H176.422V18.6754H170.197V35.2756H176.422V39.9444H159.081Z" fill="black"/>
<path d="M190.44 40.4631C187.476 40.4631 185.141 39.5615 183.437 37.7582C181.732 35.9302 180.88 33.2993 180.88 29.8657V24.0852C180.88 20.7504 181.732 18.1566 183.437 16.3039C185.141 14.4265 187.476 13.4878 190.44 13.4878C193.405 13.4878 195.739 14.4265 197.443 16.3039C199.148 18.1566 200 20.7504 200 24.0852V29.8657C200 33.2993 199.148 35.9302 197.443 37.7582C195.739 39.5615 193.405 40.4631 190.44 40.4631ZM190.44 36.0166C192.219 36.0166 193.442 35.4732 194.109 34.3863C194.776 33.2993 195.109 31.8913 195.109 30.1621V23.7888C195.109 22.7019 194.948 21.7138 194.627 20.8245C194.306 19.9352 193.8 19.2312 193.108 18.7124C192.441 18.1937 191.552 17.9343 190.44 17.9343C189.329 17.9343 188.427 18.1937 187.735 18.7124C187.044 19.2312 186.537 19.9352 186.216 20.8245C185.92 21.7138 185.771 22.7019 185.771 23.7888V30.1621C185.771 31.8913 186.105 33.2993 186.772 34.3863C187.439 35.4732 188.662 36.0166 190.44 36.0166Z" fill="black"/>
</svg>
