<svg width="24" height="24" viewBox="0 0 24 24" fill="none" xmlns="http://www.w3.org/2000/svg">
<path d="M6.7401 3.28469C7.8601 2.52469 9.2201 2.08469 10.7101 2.08469C14.6401 2.08469 17.7101 5.15469 17.7101 9.08469C17.7101 10.3447 17.3301 11.7347 16.6401 12.9847C16.6201 13.0247 16.5901 13.0647 16.5601 13.1147L15.0801 11.6347C15.4801 10.7747 15.7101 9.88469 15.7101 9.08469C15.7101 6.28469 13.5101 4.08469 10.7101 4.08469C9.7901 4.08469 8.9501 4.34469 8.2101 4.75469L6.7401 3.28469ZM17.9201 14.4647L19.3501 15.8947C20.8201 14.0147 21.7101 11.6547 21.7101 9.08469C21.7101 6.04469 20.4801 3.29469 18.4901 1.30469L17.0701 2.72469C18.7001 4.34469 19.7101 6.59469 19.7101 9.08469C19.7101 11.1047 19.0401 12.9647 17.9201 14.4647ZM10.7101 6.58469C10.5001 6.58469 10.3101 6.61469 10.1201 6.66469L13.1301 9.67469C13.1801 9.48469 13.2101 9.29469 13.2101 9.08469C13.2101 7.70469 12.0901 6.58469 10.7101 6.58469ZM21.9001 21.2747L3.5201 2.89469L2.1001 4.30469L4.2301 6.43469C3.9001 7.24469 3.7101 8.13469 3.7101 9.08469H5.7101C5.7101 8.72469 5.7601 8.37469 5.8301 8.03469L12.4401 14.6447C11.5601 15.3247 10.6601 16.0547 10.1701 17.5447C9.6701 19.0447 9.1701 19.5547 8.4601 19.9247C8.2701 20.0247 8.0001 20.0847 7.7101 20.0847C6.6101 20.0847 5.7101 19.1847 5.7101 18.0847H3.7101C3.7101 20.2947 5.5001 22.0847 7.7101 22.0847C8.2801 22.0847 8.8401 21.9647 9.3501 21.7347C10.7101 21.0247 11.4801 20.0047 12.0801 18.1847C12.4001 17.2047 12.9801 16.7547 13.7901 16.1347C13.8201 16.1147 13.8401 16.0947 13.8701 16.0747L20.4901 22.6947L21.9001 21.2747Z" fill="black"/>
</svg>
