<svg width="24" height="24" viewBox="0 0 24 24" fill="none" xmlns="http://www.w3.org/2000/svg">
<path d="M20.3643 8.55157L19.1343 10.4016C19.7275 11.5846 20.0179 12.8964 19.9795 14.2193C19.9411 15.5422 19.5751 16.8349 18.9143 17.9816H5.0543C4.19547 16.4917 3.8396 14.7647 4.03944 13.0566C4.23929 11.3486 4.98421 9.75039 6.16378 8.49899C7.34335 7.2476 8.89477 6.40961 10.588 6.10926C12.2813 5.80892 14.0263 6.0622 15.5643 6.83157L17.4143 5.60157C15.5308 4.39378 13.2966 3.85257 11.0692 4.0645C8.84176 4.27643 6.74975 5.22926 5.1278 6.77058C3.50584 8.31189 2.44766 10.3526 2.12252 12.5664C1.79738 14.7801 2.22405 17.039 3.3343 18.9816C3.50881 19.2838 3.75939 19.5352 4.06113 19.7106C4.36288 19.886 4.70528 19.9795 5.0543 19.9816H18.9043C19.2567 19.983 19.6033 19.8912 19.9088 19.7156C20.2144 19.54 20.4681 19.2868 20.6443 18.9816C21.5657 17.3855 22.0281 15.5658 21.9804 13.7235C21.9328 11.8812 21.3769 10.0879 20.3743 8.54157L20.3643 8.55157Z" fill="black"/>
<path d="M10.5743 15.3916C10.76 15.5775 10.9806 15.725 11.2234 15.8257C11.4662 15.9263 11.7265 15.9781 11.9893 15.9781C12.2521 15.9781 12.5124 15.9263 12.7552 15.8257C12.998 15.725 13.2186 15.5775 13.4043 15.3916L19.0643 6.90157L10.5743 12.5616C10.3884 12.7473 10.2408 12.9679 10.1402 13.2107C10.0395 13.4535 9.98773 13.7137 9.98773 13.9766C9.98773 14.2394 10.0395 14.4997 10.1402 14.7424C10.2408 14.9852 10.3884 15.2058 10.5743 15.3916Z" fill="black"/>
</svg>
