<svg width="24" height="24" viewBox="0 0 24 24" fill="none" xmlns="http://www.w3.org/2000/svg">
<path d="M4.33993 2.93555L2.92993 4.34555L7.28993 8.70555L6.99993 9.00555H2.99993V15.0055H6.99993L11.9999 20.0055V13.4155L16.1799 17.5955C15.5299 18.0855 14.7999 18.4755 13.9999 18.7055V20.7655C15.3399 20.4655 16.5699 19.8455 17.6099 19.0155L19.6599 21.0655L21.0699 19.6555L4.33993 2.93555ZM9.99993 15.1755L7.82993 13.0055H4.99993V11.0055H7.82993L8.70993 10.1255L9.99993 11.4155V15.1755ZM18.9999 12.0055C18.9999 12.8255 18.8499 13.6155 18.5899 14.3455L20.1199 15.8755C20.6799 14.7055 20.9999 13.3955 20.9999 12.0055C20.9999 7.72555 18.0099 4.14555 13.9999 3.23555V5.29555C16.8899 6.15555 18.9999 8.83555 18.9999 12.0055ZM11.9999 4.00555L10.1199 5.88555L11.9999 7.76555V4.00555ZM16.4999 12.0055C16.4999 10.2355 15.4799 8.71555 13.9999 7.97555V9.76555L16.4799 12.2455C16.4899 12.1655 16.4999 12.0855 16.4999 12.0055Z" fill="black"/>
</svg>
