<svg width="24" height="24" viewBox="0 0 24 24" fill="none" xmlns="http://www.w3.org/2000/svg">
<g clip-path="url(#clip0_299_37835)">
<path d="M10.9999 6.99945L7.79994 15.9995H9.69994L10.3999 13.9995H13.5999L14.2999 15.9995H16.1999L12.9999 6.99945H10.9999ZM10.8499 12.6495L11.9999 8.99945L13.1499 12.6495H10.8499ZM19.9999 8.68945V3.99945H15.3099L11.9999 0.689453L8.68994 3.99945H3.99994V8.68945L0.689941 11.9995L3.99994 15.3095V19.9995H8.68994L11.9999 23.3095L15.3099 19.9995H19.9999V15.3095L23.3099 11.9995L19.9999 8.68945ZM17.9999 14.4795V17.9995H14.4799L11.9999 20.4795L9.51994 17.9995H5.99994V14.4795L3.51994 11.9995L5.99994 9.51945V5.99945H9.51994L11.9999 3.51945L14.4799 5.99945H17.9999V9.51945L20.4799 11.9995L17.9999 14.4795Z" fill="black"/>
</g>
<defs>
<clipPath id="clip0_299_37835">
<rect width="24" height="24" fill="white"/>
</clipPath>
</defs>
</svg>
