<svg width="24" height="24" viewBox="0 0 24 24" fill="none" xmlns="http://www.w3.org/2000/svg">
<path d="M12.7876 21.502L2.99756 11.712V13.712C2.99756 14.242 3.20756 14.752 3.58756 15.122L11.3776 22.912C12.1576 23.692 13.4276 23.692 14.2076 22.912L20.4176 16.702C21.1976 15.922 21.1976 14.652 20.4176 13.872L12.7876 21.502Z" fill="black"/>
<path d="M11.3776 17.912C11.7676 18.302 12.2776 18.502 12.7876 18.502C13.2976 18.502 13.8076 18.302 14.1976 17.912L20.4076 11.702C21.1876 10.922 21.1876 9.65195 20.4076 8.87195L12.6176 1.08195C12.2476 0.711953 11.7376 0.501953 11.2076 0.501953H4.99756C3.89756 0.501953 2.99756 1.40195 2.99756 2.50195V8.71195C2.99756 9.24195 3.20756 9.75195 3.58756 10.122L11.3776 17.912ZM4.99756 2.50195H11.2076L18.9976 10.292L12.7876 16.502L4.99756 8.71195V2.50195Z" fill="black"/>
<path d="M7.24756 6.00195C7.93791 6.00195 8.49756 5.44231 8.49756 4.75195C8.49756 4.0616 7.93791 3.50195 7.24756 3.50195C6.5572 3.50195 5.99756 4.0616 5.99756 4.75195C5.99756 5.44231 6.5572 6.00195 7.24756 6.00195Z" fill="black"/>
</svg>
