<svg width="24" height="24" viewBox="0 0 24 24" fill="none" xmlns="http://www.w3.org/2000/svg">
<path d="M18 18.5072V17.5072C18 16.7072 17.3 16.0072 16.5 16.0072H13V22.0072H14.5V20.0072H15.6L16.5 22.0072H18L17.1 19.9072C17.6 19.6072 18 19.1072 18 18.5072ZM16.5 18.5072H14.5V17.5072H16.5V18.5072ZM3.5 18.0072H1.5V16.0072H0V22.0072H1.5V19.5072H3.5V22.0072H5V16.0072H3.5V18.0072ZM10 16.0072H6.5V22.0072H10C10.8 22.0072 11.5 21.3072 11.5 20.5072V17.5072C11.5 16.7072 10.8 16.0072 10 16.0072ZM10 20.5072H8V17.5072H10V20.5072ZM24 20.0072H22V22.0072H20.5V20.0072H18.5V18.5072H20.5V16.5072H22V18.5072H24V20.0072ZM10.98 4.15721L9.42 2.59721C14.52 0.177212 19.83 5.48721 17.41 10.5872L15.85 9.02721C16.66 6.06721 13.94 3.34721 10.98 4.15721ZM6.34 2.34721L4.93 3.76721L6.59 5.42721C4.17 10.5272 9.48 15.8372 14.58 13.4172L16.24 15.0772L17.65 13.6672L6.34 2.34721ZM8.15 6.98721L13.02 11.8572C10.06 12.6672 7.34 9.94721 8.15 6.98721Z" fill="black"/>
</svg>
