<svg width="24" height="24" viewBox="0 0 24 24" fill="none" xmlns="http://www.w3.org/2000/svg">
<path d="M9.3701 5.12922C9.6101 5.12922 9.8301 5.19922 10.0101 5.32922L10.8201 5.88922C10.5301 6.12922 10.2801 6.42922 10.1001 6.75922L11.7601 8.41922C11.7401 8.33922 11.7101 8.27922 11.7101 8.19922C11.7101 7.64922 12.1601 7.19922 12.7101 7.19922C13.2601 7.19922 13.7101 7.64922 13.7101 8.19922C13.7101 8.74922 13.2601 9.19922 12.7101 9.19922C12.6301 9.19922 12.5701 9.16922 12.4901 9.15922L16.5501 13.2192C18.0401 12.9792 19.1801 11.6892 19.1801 10.1292C19.1801 9.41922 18.9301 8.73922 18.5101 8.19922C18.9401 7.65922 19.1801 6.97922 19.1801 6.26922C19.1801 4.53922 17.7701 3.12922 16.0401 3.12922C15.8901 3.12922 15.7501 3.13922 15.6101 3.15922C15.1501 2.00922 14.0201 1.19922 12.7101 1.19922C11.4001 1.19922 10.2701 2.00922 9.8001 3.15922C9.6601 3.13922 9.5101 3.12922 9.3701 3.12922C8.5701 3.12922 7.8401 3.43922 7.2801 3.93922L8.7001 5.35922C8.9001 5.22922 9.1201 5.12922 9.3701 5.12922ZM16.0501 11.2692C15.8101 11.2692 15.5901 11.1992 15.4101 11.0692L14.6001 10.4992C15.1501 10.0492 15.5401 9.40922 15.6601 8.66922L16.5401 9.08922C16.9401 9.27922 17.2001 9.67922 17.2001 10.1192C17.2001 10.7592 16.6801 11.2692 16.0501 11.2692ZM15.4001 5.32922C15.6001 5.19922 15.8201 5.12922 16.0501 5.12922C16.6801 5.12922 17.1901 5.63922 17.1901 6.26922C17.1901 6.70922 16.9401 7.09922 16.5301 7.29922L15.6501 7.71922C15.5301 6.97922 15.1401 6.33922 14.5801 5.88922L15.4001 5.32922ZM12.7101 3.19922C13.3301 3.19922 13.8301 3.68922 13.8501 4.29922L13.7401 5.38922C13.4201 5.26922 13.0701 5.19922 12.7101 5.19922C12.3501 5.19922 12.0101 5.26922 11.6901 5.38922L11.5701 4.29922C11.5901 3.68922 12.0901 3.19922 12.7101 3.19922Z" fill="black"/>
<path d="M20.6901 17.3492C21.3401 16.1092 21.7101 14.6992 21.7101 13.1992C20.2101 13.1992 18.8001 13.5692 17.5601 14.2192L20.6901 17.3492Z" fill="black"/>
<path d="M3.7101 13.1992C3.7101 18.1692 7.7401 22.1992 12.7101 22.1992C12.7101 17.2292 8.6801 13.1992 3.7101 13.1992ZM6.1501 15.6392C8.0501 16.3492 9.5701 17.8592 10.2701 19.7592C8.3701 19.0492 6.8601 17.5392 6.1501 15.6392Z" fill="black"/>
<path d="M3.5201 3.00922L2.1001 4.41922L6.5201 8.83922C6.3301 9.23922 6.2201 9.67922 6.2201 10.1292C6.2201 11.8592 7.6301 13.2692 9.3701 13.2692C9.5201 13.2692 9.6601 13.2592 9.8001 13.2392C10.2701 14.3892 11.4001 15.1992 12.7101 15.1992C12.7601 15.1992 12.8201 15.1892 12.8701 15.1892L14.5101 16.8292C13.3801 18.3192 12.7101 20.1792 12.7101 22.1992C14.7301 22.1992 16.5901 21.5292 18.0901 20.3992L20.4901 22.7992L21.9001 21.3892L3.5201 3.00922ZM15.1501 19.7592C15.3501 19.2192 15.6201 18.7192 15.9401 18.2592L16.6601 18.9792C16.1901 19.2892 15.6901 19.5592 15.1501 19.7592Z" fill="black"/>
</svg>
