<svg width="24" height="24" viewBox="0 0 24 24" fill="none" xmlns="http://www.w3.org/2000/svg">
<path d="M9.30507 5.46547V2.29547H15.3051V6.29547H11.3051V7.46547L9.30507 5.46547ZM19.7251 14.2955L22.3051 16.8655L21.5051 17.6655L14.7251 10.8855L15.5251 10.0855L18.2751 12.8355V8.29547H18.8751L22.3051 11.7255L19.7251 14.2955ZM19.4751 12.8455L20.6051 11.7155L19.4751 10.5855V12.8455ZM21.4951 20.4855L20.0851 21.8955L16.1051 17.9155L15.5251 18.4955L14.6751 17.6455L15.2551 17.0655L11.3051 13.1255V16.2955C11.3051 18.5055 9.52507 20.2955 7.31507 20.2955C5.10507 20.2955 3.30507 18.5055 3.30507 16.2955C3.30507 14.0855 5.09507 12.2955 7.31507 12.2955C8.04507 12.2955 8.72507 12.5055 9.31507 12.8455V11.1255L1.69507 3.51547L3.10507 2.10547L21.4951 20.4855Z" fill="black"/>
</svg>
