<svg width="24" height="24" viewBox="0 0 24 24" fill="none" xmlns="http://www.w3.org/2000/svg">
<path d="M21.7138 13.1181L19.1338 15.6981L17.3238 13.8881L19.5038 11.6981L12.3038 4.49813L10.1138 6.68812L8.30385 4.86813L10.8838 2.28812C11.6638 1.50813 12.9338 1.50813 13.7138 2.28812L21.7138 10.2881C22.5038 11.0681 22.5038 12.3281 21.7138 13.1181ZM21.4938 20.8881L20.0838 22.2981L16.3038 18.5281L13.7238 21.1081C12.9438 21.8881 11.6738 21.8881 10.8938 21.1081L2.89385 13.1081C2.11385 12.3281 2.11385 11.0581 2.89385 10.2781L5.47385 7.69812L1.69385 3.91812L3.10385 2.50813L21.4938 20.8881ZM14.4938 16.7181L13.1038 15.3281L12.3038 16.1281L7.88385 11.6981L8.68385 10.8981L7.28385 9.50813L5.10385 11.6981L12.3038 18.8981L14.4938 16.7181ZM16.7238 11.6981L12.3038 7.27812L11.5038 8.07812L15.9238 12.4981L16.7238 11.6981Z" fill="black"/>
</svg>
