<svg width="24" height="24" viewBox="0 0 24 24" fill="none" xmlns="http://www.w3.org/2000/svg">
<path d="M12.0026 7.57305L16.4226 11.993L12.0026 16.413L7.58256 11.993L12.0026 7.57305ZM12.0026 19.193L4.80256 11.993L12.0026 4.79305L18.0026 10.793V7.16305L13.4226 2.58305C12.6426 1.80305 11.3726 1.80305 10.5926 2.58305L2.58256 10.583C1.80256 11.363 1.80256 12.633 2.58256 13.413L10.5926 21.413C11.3726 22.193 12.6426 22.193 13.4226 21.413L18.0026 16.823V13.193L12.0026 19.193ZM20.0026 20.003H22.0026V22.003H20.0026V20.003ZM22.0026 10.003H20.0026V18.003H22.0026V10.003Z" fill="black"/>
</svg>
