<svg width="24" height="24" viewBox="0 0 24 24" fill="none" xmlns="http://www.w3.org/2000/svg">
<path d="M9.58991 13C10.1399 13 10.5899 13.45 10.5899 14C10.5899 14.55 10.1399 15 9.58991 15C9.03991 15 8.58991 14.55 8.58991 14C8.58991 13.45 9.03991 13 9.58991 13ZM9.58991 11C7.92991 11 6.58991 12.34 6.58991 14C6.58991 15.66 7.92991 17 9.58991 17C11.2499 17 12.5899 15.66 12.5899 14C12.5899 12.34 11.2499 11 9.58991 11ZM18.0899 9L19.1799 6.59L21.5899 5.5L19.1799 4.41L18.0899 2L16.9999 4.41L14.5899 5.5L16.9999 6.59L18.0899 9ZM20.8699 12.72L20.0899 11L19.3099 12.72L17.5899 13.5L19.3099 14.28L20.0899 16L20.8699 14.28L22.5899 13.5L20.8699 12.72ZM15.8399 14C15.8399 13.88 15.8399 13.75 15.8299 13.63L17.7699 12.16L15.2699 7.83L13.0299 8.77C12.8299 8.64 12.6099 8.51 12.3899 8.4L12.0899 6H7.08991L6.78991 8.41C6.56991 8.52 6.35991 8.65 6.14991 8.78L3.90991 7.83L1.40991 12.16L3.34991 13.63C3.33991 13.75 3.33991 13.88 3.33991 14C3.33991 14.12 3.33991 14.25 3.34991 14.37L1.40991 15.84L3.90991 20.17L6.14991 19.23C6.34991 19.36 6.56991 19.49 6.78991 19.6L7.08991 22H12.0899L12.3899 19.59C12.6099 19.48 12.8199 19.36 13.0299 19.22L15.2699 20.16L17.7699 15.83L15.8299 14.36C15.8399 14.25 15.8399 14.12 15.8399 14ZM14.4199 17.64L12.6899 16.91C12.1299 17.51 11.3899 17.95 10.5599 18.14L10.3199 20H8.85991L8.62991 18.14C7.79991 17.95 7.05991 17.51 6.49991 16.91L4.76991 17.64L4.03991 16.37L5.52991 15.24C5.40991 14.85 5.34991 14.44 5.34991 14.01C5.34991 13.58 5.40991 13.17 5.52991 12.78L4.03991 11.65L4.76991 10.38L6.49991 11.11C7.05991 10.51 7.79991 10.07 8.62991 9.88L8.85991 8H10.3299L10.5599 9.86C11.3899 10.05 12.1299 10.49 12.6899 11.09L14.4199 10.36L15.1499 11.63L13.6599 12.76C13.7799 13.15 13.8399 13.56 13.8399 13.99C13.8399 14.42 13.7799 14.83 13.6599 15.22L15.1499 16.35L14.4199 17.64Z" fill="black"/>
</svg>
