<svg width="24" height="24" viewBox="0 0 24 24" fill="none" xmlns="http://www.w3.org/2000/svg">
<path d="M3.11507 2.10547L1.69507 3.51547L4.38507 6.20547C3.08507 7.89547 2.30507 10.0055 2.30507 12.2955C2.30507 15.0555 3.42507 17.5555 5.23507 19.3655L6.65507 17.9455C5.20507 16.5055 4.30507 14.5055 4.30507 12.2955C4.30507 10.5455 4.87507 8.94547 5.81507 7.63547L7.24507 9.06547C6.65507 9.99547 6.30507 11.1055 6.30507 12.2955C6.30507 13.9555 6.98507 15.4455 8.06507 16.5355L9.48507 15.1155C8.75507 14.3955 8.30507 13.4055 8.30507 12.2955C8.30507 11.6655 8.45507 11.0655 8.71507 10.5355L10.3251 12.1455C10.3251 12.1955 10.3051 12.2455 10.3051 12.2955C10.3051 12.8455 10.5351 13.3455 10.8951 13.7055C11.2551 14.0655 11.7551 14.2955 12.3051 14.2955C12.3551 14.2955 12.4051 14.2855 12.4651 14.2755L20.0851 21.8955L21.4951 20.4855L3.11507 2.10547ZM18.0051 14.1655C18.1951 13.5755 18.3051 12.9455 18.3051 12.2955C18.3051 8.98547 15.6151 6.29547 12.3051 6.29547C11.6551 6.29547 11.0251 6.39547 10.4351 6.59547L12.1451 8.30547C12.1951 8.29547 12.2551 8.29547 12.3051 8.29547C14.5151 8.29547 16.3051 10.0855 16.3051 12.2955C16.3051 12.3455 16.3051 12.4055 16.2951 12.4555L18.0051 14.1655ZM12.3051 4.29547C16.7251 4.29547 20.3051 7.87547 20.3051 12.2955C20.3051 13.5155 20.0351 14.6655 19.5351 15.6955L21.0251 17.1855C21.8351 15.7455 22.3051 14.0755 22.3051 12.2955C22.3051 6.77547 17.8251 2.29547 12.3051 2.29547C10.5251 2.29547 8.86507 2.75547 7.41507 3.57547L8.89507 5.05547C9.93507 4.56547 11.0851 4.29547 12.3051 4.29547Z" fill="black"/>
</svg>
