<svg width="24" height="24" viewBox="0 0 24 24" fill="none" xmlns="http://www.w3.org/2000/svg">
<path d="M15.9206 4.5C17.7106 4.5 19.3406 5.23 20.5106 6.41L21.5706 5.35C20.1306 3.9 18.1306 3 15.9206 3C13.7106 3 11.7106 3.9 10.2606 5.34L11.3206 6.4C12.5106 5.23 14.1306 4.5 15.9206 4.5Z" fill="black"/>
<path d="M15.9206 6C14.5406 6 13.2906 6.56 12.3806 7.46L13.4406 8.52C14.0706 7.89 14.9506 7.49 15.9106 7.49C16.8706 7.49 17.7506 7.88 18.3806 8.52L19.4406 7.46C18.5506 6.56 17.3006 6 15.9206 6Z" fill="black"/>
<path d="M15.9206 9C15.3706 9 14.8706 9.22 14.5106 9.59L15.9206 11L17.3306 9.59C16.9706 9.22 16.4706 9 15.9206 9Z" fill="black"/>
<path d="M19.6306 14.87L15.9606 14.14C15.4606 14.04 15.1306 14.34 15.0606 14.41L12.5406 16.91C10.0406 15.48 7.97056 13.41 6.54056 10.91L9.04056 8.39C9.27056 8.15 9.37056 7.82 9.31056 7.49L8.56056 3.8C8.47056 3.34 8.06056 3 7.58056 3H3.43056C2.87056 3 2.40056 3.47 2.43056 4.03C2.60056 6.92 3.48056 9.63 4.86056 12C6.44056 14.73 8.71056 16.99 11.4306 18.57C13.8006 19.94 16.5106 20.83 19.4006 21C19.9506 21.03 20.4306 20.57 20.4306 20V15.85C20.4306 15.37 20.0906 14.96 19.6306 14.87ZM4.53056 5H6.76056L7.23056 7.35L5.60056 9C5.06056 7.7 4.70056 6.37 4.53056 5ZM18.4306 18.9C17.0606 18.72 15.7306 18.37 14.4306 17.83L16.0806 16.2L18.4306 16.67V18.9Z" fill="black"/>
</svg>
